<svg width="380" height="430" viewBox="0 0 380 430" fill="none" xmlns="http://www.w3.org/2000/svg">
<path d="M550.441 592C532.849 559.553 513.867 544.654 489.828 525.727C481.49 519.21 473.153 512.505 463.648 504.393C449.113 491.874 424.74 470.864 425.824 447.611C427.686 406.727 470.763 375.741 512.422 345.808C556.139 314.389 601.356 281.888 596.714 238.706C591.545 190.657 541.659 164.186 493.413 138.661C451.086 116.192 407.259 92.9649 392.946 55.056C384.859 48.7559 380.384 41.8879 379.689 34.5874C378.939 26.746 382.469 18.3638 390.389 9.54908L390.751 9.25165L424.851 -8.89164C436.579 -14.002 447.557 -17.7064 458.201 -21.3026C486.659 -30.9015 511.227 -39.2025 532.127 -68.8104L534.406 -67.2692C513.006 -36.9583 488.021 -28.5221 459.118 -18.5987C448.557 -15.0295 437.635 -11.3522 426.101 -6.34995L392.335 11.6581C385.137 19.7699 381.802 27.449 382.496 34.4792C383.191 41.5094 387.332 47.431 395.003 53.4066L395.308 53.65L395.447 54.0285C409.343 91.1803 452.754 114.218 494.775 136.525C543.632 162.456 594.185 189.305 599.494 238.76C604.301 283.456 558.445 316.417 514.09 348.296C472.958 377.877 430.409 408.458 428.631 448.043C427.63 470.134 451.336 490.603 465.51 502.825C474.876 510.936 483.38 517.561 491.606 524.05C515.868 543.194 535.072 558.282 552.943 591.162L550.441 592Z" fill="white"/>
<path d="M529.042 591.946C520.149 573.776 500.973 555.659 480.685 536.462C450.392 507.827 419.071 478.192 420.794 446.043C422.934 406.133 463.593 374.984 502.918 344.835C544.606 312.956 587.516 279.941 582.541 237.544C576.983 190.252 527.68 165.349 479.99 141.257C438.052 120.085 394.697 98.1836 380.218 60.9777C372.158 54.7858 367.712 47.9448 366.989 40.6983C366.239 32.857 369.768 24.4748 377.745 15.5789L378.078 15.2815L412.262 -4.05151C423.851 -9.45934 434.801 -13.6234 445.362 -17.5711C474.126 -28.3868 498.972 -37.6882 519.788 -67.7288L522.067 -66.2146C500.778 -35.471 475.571 -26.0073 446.362 -15.0294C435.829 -11.0817 424.963 -6.91765 413.568 -1.50982L379.69 17.688C372.409 25.7997 369.074 33.56 369.768 40.6172C370.408 47.1877 374.604 53.4608 382.247 59.2472L382.552 59.4906V59.8421C396.448 96.2909 439.525 118.003 481.129 139.013C529.487 163.348 579.484 188.684 585.181 237.408C590.295 281.347 546.69 314.794 504.586 347.133C465.677 376.876 425.602 407.674 423.517 446.34C421.85 477.273 452.726 506.448 482.575 534.677C503.057 554.037 522.4 572.343 531.488 590.946L529.042 591.946Z" fill="white"/>
<path d="M505.002 591.838C497.971 574.073 482.769 555.497 466.427 535.839C441.665 505.853 416.069 474.866 418.737 444.069C422.044 405.916 459.146 374.605 495.025 344.321C535.656 310.035 574.037 277.669 568.451 236.164C562.225 189.927 513.701 167.079 466.761 144.961C425.324 125.439 382.497 105.241 367.851 68.9541C359.847 62.8702 355.4 56.1375 354.677 48.9451C353.871 41.0767 357.456 32.5593 365.544 23.6364L365.85 23.393L400.117 2.46473C411.622 -3.40277 422.489 -7.99944 433.022 -12.4339C462.148 -24.7367 487.271 -35.336 508.059 -66.1337L510.394 -64.6465C489.217 -33.1729 463.704 -22.4113 434.189 -9.97329C423.712 -5.53886 412.873 -0.969261 401.562 4.81712L367.517 25.6373C360.124 33.9383 356.734 41.7256 357.456 48.7828C358.096 55.2722 362.292 61.4372 369.852 67.1424L370.185 67.3587L370.324 67.7103C384.414 103.24 426.908 123.249 467.956 142.609C515.619 165.159 564.782 188.224 571.202 235.867C576.983 278.751 536.24 313.118 496.859 346.376C461.397 376.281 424.601 407.241 421.516 444.285C418.932 474.028 444.166 504.582 468.595 534.163C484.964 553.983 500.417 572.721 507.504 590.945L505.002 591.838Z" fill="white"/>
<path d="M479.045 591.703C474.126 573.776 463.231 554.794 451.698 534.704C433.911 503.717 415.569 471.676 418.876 441.716C422.878 405.835 456.006 374.362 488.022 343.916C525.457 308.467 560.808 274.776 554.527 234.731C547.357 189.873 499.805 169.351 453.782 149.531C412.79 131.928 370.63 113.785 355.789 78.6343C347.813 72.7127 343.394 66.1151 342.643 59.0038C341.81 51.1084 345.423 42.5099 353.76 33.4248L354.038 33.2085L388.416 10.4956C399.783 4.08728 410.65 -1.05018 421.099 -5.99835C450.614 -20.0046 476.099 -32.0641 496.72 -63.9163L499.055 -62.4561C478.017 -30.0091 452.198 -17.7333 422.322 -3.56482C411.9 1.38335 401.089 6.49375 389.889 12.6587L355.733 35.2364C348.174 43.6726 344.617 51.4599 345.478 58.6253C346.145 65.0336 350.314 71.0903 357.845 76.6063L358.151 76.8226L358.29 77.1742C372.575 111.622 414.401 129.657 454.866 147.07C501.556 167.215 549.83 188.008 557.223 234.326C563.837 275.777 526.318 311.415 490.05 345.889C458.368 375.984 425.629 407.106 421.711 442.041C418.459 471.162 436.635 502.798 454.199 533.406C465.816 553.659 476.821 572.802 481.824 591.027L479.045 591.703Z" fill="white"/>
<path d="M451.92 591.54C449.419 573.559 443.332 554.496 436.913 534.298C426.685 502.176 416.097 468.972 420.377 439.147C425.101 406.322 453.726 374.902 481.296 344.51C513.951 308.602 547.69 271.504 540.381 233.109C532.043 189.846 485.576 171.838 440.609 154.452C400.311 138.904 358.679 122.816 343.727 88.5574C327.525 51.4597 344.839 38.535 376.855 18.8505C387.972 11.9825 398.81 6.27724 409.232 0.761253C439.164 -15.0837 464.982 -28.7655 485.492 -61.8074L487.882 -60.4013C466.983 -26.8187 440.831 -12.9206 410.566 3.08662C400.172 8.49446 389.444 14.3079 378.328 21.1218C344.144 42.1312 331.666 54.0284 346.284 87.4759C360.902 120.923 401.867 136.579 441.609 151.91C487.299 169.567 534.545 187.818 543.104 232.595C550.664 272.262 516.452 309.873 483.38 346.16C456.033 376.281 427.797 407.403 423.128 439.418C418.931 468.647 429.409 501.608 439.553 533.406C446.028 553.685 452.142 572.856 454.671 591.08L451.92 591.54Z" fill="white"/>
<path d="M427.074 591.351H424.295C424.295 574.181 423.044 556.498 421.71 537.732C419.292 503.609 416.791 468.296 422.488 436.471C427.657 407.431 451.392 376.471 474.347 346.538C503.973 307.872 534.6 267.909 526.346 231.406C516.924 189.711 471.485 174.353 427.574 159.481C388.027 146.124 347.145 132.28 331.887 99.2652C315.351 63.5194 333.833 48.783 365.376 27.6655C376.493 20.2838 387.165 13.9836 397.531 7.8998C427.852 -9.89198 454.06 -25.2232 474.486 -59.5359L476.876 -58.1839C456.088 -23.2764 429.631 -7.75587 399.06 10.1981C388.721 16.282 378.022 22.5551 367.044 29.9097C335.778 50.811 318.853 64.3035 334.5 98.1566C349.257 130.117 389.583 143.745 428.547 156.94C473.208 172.055 519.398 187.656 529.153 230.838C537.685 268.53 506.641 309.008 476.654 348.161C453.893 377.904 430.353 408.539 425.295 436.93C419.737 468.431 422.155 503.582 424.573 537.57C425.823 556.335 427.074 574.1 427.074 591.351Z" fill="white"/>
<path d="M399.644 591.54L396.865 591.189C402.173 551.333 409.843 510.883 417.236 471.757C419.626 459.102 422.016 446.475 424.323 433.902C429.103 407.782 447.751 378.931 467.483 348.377C494.052 307.25 521.538 264.745 512.311 229.783C501.75 189.711 457.367 176.868 414.484 164.457C375.576 153.235 335.556 141.636 319.993 109.919C302.206 73.7402 324.995 57.2733 353.843 36.4261C364.793 28.5037 375.465 21.6628 385.803 15.0382C416.513 -4.67339 443.026 -21.7081 463.398 -57.2375L465.816 -55.9397C445.166 -19.8424 418.348 -2.64545 387.36 17.2554C377.049 23.88 366.405 30.775 355.538 38.5622C323.717 61.5455 306.514 76.1467 322.522 108.702C337.557 139.337 377.077 150.775 415.29 161.834C458.951 174.461 504.224 187.521 515.035 229.08C524.539 265.151 496.748 308.197 469.873 349.783C450.28 380.121 431.771 408.756 427.074 434.362C424.767 446.935 422.377 459.589 419.987 472.216C412.595 511.261 404.952 551.82 399.644 591.54Z" fill="white"/>
<path d="M373.103 591.676L370.324 591.027C376.799 565.312 386.804 540.734 396.476 516.939C407.593 489.576 419.098 461.293 425.101 431.414C432.716 393.56 447.89 362.6 464.01 329.72C466.4 324.826 468.818 319.878 471.263 314.821C473.403 310.387 475.904 305.628 478.545 300.572C490.328 278.21 504.974 250.36 498.304 228.188C486.715 189.63 443.333 179.139 401.367 168.999C363.293 159.806 323.94 150.315 308.015 119.815C289.839 85.0426 312.962 67.1697 342.199 44.565C353.038 36.1828 363.682 28.8282 373.965 21.6898C405.036 0.0584793 431.855 -18.4634 452.198 -55.1555L454.644 -53.8847C433.995 -16.6247 405.619 3.05983 375.577 23.907C365.321 31.0183 354.705 38.3459 343.922 46.701C315.658 68.5217 293.341 85.7726 310.572 118.598C325.913 147.99 364.654 157.345 402.118 166.376C444.833 176.705 489.022 187.359 501.056 227.431C508.032 250.63 493.107 278.995 481.101 301.816C478.461 306.818 475.96 311.577 473.848 315.984C471.402 321.04 468.984 325.989 466.594 330.883C449.919 365.006 435.551 394.506 428.019 431.955C421.933 462.05 410.372 490.468 399.199 517.94C389.5 541.626 379.44 566.124 373.103 591.676Z" fill="white"/>
<path d="M348.118 591.783L345.505 590.918C354.426 565.177 368.684 541.815 382.468 519.21C399.56 491.252 417.208 462.428 424.156 429.305C433.271 386.34 446.25 352.649 462.258 313.037C464.12 308.413 466.343 303.438 468.706 298.165C478.739 275.777 491.245 247.926 484.186 226.728C471.763 189.414 429.214 181.031 388.054 172.92C350.675 165.538 311.989 157.913 295.758 128.548C277.221 95.0198 301.122 75.4704 328.803 52.8387L330.192 51.7301C340.948 42.9423 351.536 35.101 361.764 27.53C393.14 4.33038 420.126 -15.7327 440.553 -53.3712L443.026 -52.1274C422.433 -13.9211 393.78 7.35877 363.431 29.6931C353.231 37.2371 342.671 45.0514 331.999 53.785L330.609 54.9207C302.817 77.6877 280.723 95.6687 298.204 127.25C313.823 155.506 351.842 163.023 388.61 170.27C430.548 178.517 473.903 187.061 486.826 225.889C494.219 248.061 481.49 276.453 471.263 299.247C468.9 304.492 466.705 309.44 464.843 314.01C448.89 353.46 435.967 387.016 426.879 429.792C419.792 463.266 402.006 492.387 384.803 520.535C371.101 543.086 356.956 566.313 348.118 591.783Z" fill="white"/>
<path d="M325.441 591.865L322.884 590.864C333.722 564.42 351.62 541.491 368.907 519.319C390.612 491.495 413.068 462.753 420.627 427.602C428.844 388.406 439.404 349.711 452.254 311.712C453.921 306.818 455.95 301.518 458.118 295.921C466.678 273.641 477.35 245.899 470.124 225.619C457.145 189.143 415.263 182.357 374.743 176.056C337.891 170.216 299.706 164.159 283.253 135.66C264.41 103.213 289.061 82.1494 315.158 59.9502L317.937 57.5978C328.581 48.4856 339.142 40.2657 349.341 32.3432C379.634 8.76506 408.26 -13.6234 428.575 -51.8297L431.049 -50.5859C410.455 -11.7306 381.607 10.7119 351.064 34.4523C340.893 42.3748 330.36 50.6758 319.771 59.6258L316.992 61.9782C290.701 84.3936 267.995 103.754 285.726 134.362C301.568 161.726 339.003 167.674 375.215 173.407C416.542 179.977 459.257 186.764 472.764 224.781C480.323 246.007 469.457 274.236 460.758 296.922C458.59 302.492 456.562 307.737 454.922 312.631C442.097 350.53 431.564 389.127 423.378 428.224C415.569 463.888 393.03 492.901 371.102 520.941C353.927 542.978 336.14 565.772 325.441 591.865Z" fill="white"/>
<path d="M305.791 591.892L303.234 590.837C315.185 563.23 335.834 540.409 355.788 518.345C381.523 489.873 405.813 462.969 413.623 426.412L416.68 412.027C423.906 377.768 430.742 345.43 440.775 310.765C442.304 305.493 444.221 299.788 446.333 293.785C454.087 270.693 463.008 244.519 456.005 224.619C443.36 188.359 401.672 183.005 361.235 177.814C324.717 173.136 286.921 168.296 270.301 140.5C251.264 108.675 275.554 87.3677 301.261 64.79L305.013 61.4913C315.602 52.1628 326.135 43.6724 336.306 35.4525C366.877 10.928 395.53 -12.2716 415.874 -50.9376L418.347 -49.6938C397.726 -10.5952 368.767 12.8478 338.085 37.5616C327.913 45.6733 317.408 54.2177 306.875 63.5192L303.123 66.818C278.277 88.6115 254.793 109.215 272.691 139.148C288.644 165.781 325.745 170.54 361.625 175.137C402.812 180.545 445.416 185.953 458.59 223.807C465.788 244.546 456.811 271.18 448.918 294.677C446.889 300.68 444.972 306.331 443.36 311.55C433.383 346.106 426.685 378.417 419.32 412.622L416.263 427.034C408.342 464.213 382.635 492.631 357.9 520.103C338.057 542.031 317.575 564.69 305.791 591.892Z" fill="white"/>
<path d="M289.811 591.865L287.254 590.864C299.288 561.446 321.549 538.544 343.115 516.371C369.712 488.981 394.864 463.131 402.395 426.115C403.766 419.445 405.1 412.82 406.397 406.241C412.956 373.794 419.153 342.888 427.491 310.549C428.964 304.844 430.937 298.598 433.049 291.946C440.247 269.098 448.418 243.276 441.692 224.348C428.742 187.927 387.388 183.303 347.423 178.814C311.155 174.731 273.664 170.54 256.85 142.771C237.702 111.081 262.714 88.7739 287.004 67.1696L291.451 63.2219C301.984 53.7582 312.517 45.1056 322.689 36.7505C353.259 11.6582 381.996 -11.92 402.423 -50.559L404.896 -49.3152C384.219 -10.2976 355.205 13.5509 324.467 38.8055C314.323 47.1606 303.818 55.7861 293.341 65.1957L288.894 69.1705C264.382 90.9911 241.259 111.595 259.213 141.257C275.332 167.863 312.017 172 347.701 175.975C388.555 180.572 430.77 185.304 444.277 223.348C451.308 243.141 443.026 269.504 435.689 292.757C433.605 299.355 431.66 305.574 430.131 311.198C421.794 343.483 415.624 374.226 409.065 406.755C407.75 413.334 406.416 419.959 405.063 426.628C397.365 464.483 370.768 491.766 345.061 518.237C323.856 540.22 301.623 562.933 289.811 591.865Z" fill="white"/>
<path d="M276.916 588.972L274.332 587.971C286.393 558.228 308.932 535.353 330.721 513.262C357.373 486.223 382.552 460.698 390.195 423.573C392.78 410.946 395.281 398.183 397.671 385.853C402.479 361.248 407.426 335.804 413.484 310.549C414.874 304.682 416.819 298.274 418.848 291.487C425.518 269.26 433.05 244.114 426.491 225.565C413.818 189.684 373.325 184.168 334.167 178.814C298.705 173.974 261.909 168.972 245.4 141.581C226.335 110.135 250.208 88.747 275.499 66.0881L279.39 62.4108C289.589 53.2175 299.761 44.7813 309.599 36.6154C339.642 11.6583 367.962 -11.8928 388.5 -50.0721L390.945 -48.8013C370.324 -10.0812 341.726 13.7403 311.489 38.7786C301.679 46.8903 291.535 55.3536 281.363 64.5199L277.389 68.089C252.932 89.9637 229.865 110.622 247.818 140.203C263.743 166.458 299.761 171.379 334.556 176.138C374.548 181.545 415.874 187.251 429.048 224.673C435.884 244.033 428.214 269.639 421.433 292.271C419.404 299.058 417.486 305.439 416.097 311.198C410.066 336.399 404.98 361.789 400.311 386.367C397.921 398.724 395.448 411.487 392.835 424.222C385.026 462.077 358.401 489.116 332.638 515.236C311.128 537.029 288.783 559.688 276.916 588.972Z" fill="white"/>
<path d="M265.771 580.995L263.214 579.994C275.359 550.251 298.259 527.809 320.381 506.069C347.451 479.49 373.019 454.37 380.523 417.246C382.94 405.159 387.193 389.503 391.639 372.928C405.09 323.339 421.821 261.608 410.315 228.08C398.254 192.929 359.484 185.871 321.966 179.058C288.032 172.893 252.931 166.511 237.007 139.445C218.442 107.863 241.981 86.5565 266.883 63.9788L269.828 61.2749C279.583 52.406 289.283 44.2673 298.593 36.4259C327.58 12.0906 354.954 -10.8927 374.77 -48.2878L377.243 -47.044C357.178 -9.1892 329.608 13.9563 300.427 38.4809C291.089 46.2952 281.445 54.4069 271.746 63.2487L268.772 65.9527C243.76 88.6926 221.943 108.35 239.424 138.093C254.71 164.051 289.171 170.324 322.494 176.381C360.763 183.33 400.31 190.522 412.955 227.187C424.711 261.5 407.87 323.663 394.335 373.604C389.833 390.125 385.608 405.727 383.218 417.732C375.576 455.587 348.507 482.248 322.327 507.962C300.427 529.539 277.721 551.82 265.771 580.995Z" fill="white"/>
<path d="M256.072 568.881L253.515 567.827C266.272 538.733 289.144 516.452 311.239 494.821C340.225 466.619 367.6 439.959 373.603 399.454C375.437 387.178 379.161 371.144 383.052 354.19C392.752 312.144 404.841 259.824 396.42 229.81C387.026 196.363 348.424 185.926 311.1 175.732C283.086 168.134 254.127 160.292 238.063 142.663C211.105 113.082 228.753 91.613 256.6 64.4656C267.995 53.3796 279.389 43.5914 290.423 34.1006C317.158 11.1714 342.421 -10.514 361.125 -45.7731L363.598 -44.5293C344.644 -8.81053 319.132 13.0101 292.257 36.1286C281.279 45.5923 270.024 55.3534 258.546 66.3854C230.949 93.4246 214.746 113.001 240.148 140.878C255.655 157.913 284.225 165.646 311.85 173.136C349.925 183.438 389.305 194.091 399.088 229.026C407.703 259.688 395.531 312.361 385.748 354.704C381.857 371.604 378.161 387.584 376.354 399.778C370.213 441.148 341.254 469.377 313.212 496.66C291.284 518.183 268.606 540.274 256.072 568.881Z" fill="white"/>
<path d="M247.457 553.604L244.9 552.523C257.657 524.51 281.029 503.014 303.707 482.221C333.945 454.452 362.487 428.143 367.35 388.098C368.434 378.931 370.129 367.791 372.075 356.002C378.467 315.443 386.471 264.745 378.495 234.515C369.824 201.554 334.723 188.927 300.678 176.705C274.971 167.431 248.402 157.778 233.395 139.499C208.382 108.918 225.641 87.395 250.737 62.4379C261.381 51.8385 271.969 42.6182 282.224 33.6682C306.987 12.0368 330.36 -8.37773 347.396 -42.2578L349.897 -41.0681C332.694 -6.75538 309.127 13.7403 284.17 35.642C273.943 44.565 263.41 53.7853 252.821 64.3036C228.698 88.2873 212.106 108.945 235.673 137.796C250.181 155.588 276.388 164.997 301.734 174.137C336.363 186.602 372.158 199.472 381.191 233.812C389.278 264.583 381.191 315.47 374.798 356.381C372.964 368.143 371.213 379.283 370.102 388.395C365.127 429.495 334.973 457.183 305.625 484.222C283.197 504.799 259.936 526.106 247.457 553.604Z" fill="white"/>
<path d="M239.564 536.137L237.091 534.974C250.681 507.692 274.193 487.277 296.954 467.538C325.607 442.689 352.537 419.192 360.875 383.447C368.128 351.946 367.739 272.586 357.762 240.518C347.785 208.449 317.686 194.172 288.533 180.355C262.52 167.999 235.729 155.236 222.528 130.008C209.327 104.781 225.668 82.041 241.148 64.7359C252.834 51.9231 265.357 39.8566 278.639 28.6116C299.816 10.0357 318.103 -6.02559 333.889 -38.4996L336.39 -37.364C320.382 -4.3762 301.901 11.8473 280.501 30.6395C267.303 41.7937 254.863 53.7702 243.26 66.4935C228.364 83.1767 212.69 105.349 225.029 128.684C237.73 153.019 264.188 165.673 289.784 177.841C319.465 191.928 350.175 206.502 360.458 239.652C370.518 272.099 370.907 352.162 363.626 383.96C355.289 420.571 327.83 444.312 298.816 469.485C276.249 489.143 252.932 509.368 239.564 536.137Z" fill="white"/>
<path d="M232.144 517.453L229.67 516.182C248.013 482.816 264.715 466.646 295.203 443.014L304.04 436.227C333.388 413.785 352.759 398.967 356.706 362.194C359.902 332.451 349.563 276.02 341.226 245.412C332.416 213.208 306.959 197.039 280.084 179.896C260.074 167.16 239.397 154.019 226.53 133.74C205.047 99.941 226.113 77.147 248.429 53.028L250.097 51.2164C258.434 42.1853 265.938 34.9929 273.192 27.8816C291.784 9.8465 306.542 -4.40314 320.438 -34.3085L322.967 -33.1999C308.848 -2.69969 294.008 11.7122 275.193 29.9366C267.967 36.9397 260.491 44.1862 252.237 53.1362L250.542 54.9749C228.003 79.3101 208.548 100.374 228.947 132.469C241.482 152.208 261.908 165.214 281.752 177.76C307.959 194.416 335.056 211.667 344.116 244.871C352.454 275.669 362.931 332.559 359.707 362.6C355.622 400.454 335.862 415.623 305.958 438.471L297.148 445.258C266.744 468.512 250.236 484.519 232.144 517.453Z" fill="white"/>
<path d="M224.778 498.471L222.361 497.147C241.37 464.267 257.739 449.287 289.589 426.088C293.174 423.384 296.787 420.923 300.316 418.435C327.441 399.211 350.869 382.636 351.758 348.674C352.259 330.126 342.504 305.412 333.916 283.429C329.303 271.694 324.967 260.635 322.355 251.171C313.795 220.211 292.646 201.662 270.218 182.059C252.987 166.971 235.172 151.37 223.945 129.684C203.518 90.2881 235.506 55.9483 266.41 22.7442C283.391 4.51982 299.427 -12.7041 306.708 -30.3066L309.293 -29.3062C301.817 -11.244 285.642 6.14217 268.467 24.5558C238.174 57.0029 206.853 90.7477 226.418 128.467C237.396 149.693 255.043 165.133 272.08 180.031C293.813 198.959 316.269 218.724 324.884 250.468C327.469 259.797 331.776 270.802 336.362 282.455C345.061 304.574 354.899 329.666 354.399 348.756C353.482 383.906 329.525 400.995 301.817 420.626C298.287 423.113 294.702 425.628 291.117 428.251C259.74 451.207 243.566 466.024 224.778 498.471Z" fill="white"/>
<path d="M217.191 480.22L214.829 478.787C237.229 443.636 256.739 429.035 289.311 406.322C292.09 404.348 295.23 402.266 298.538 400.076C319.715 386.015 348.701 366.791 348.979 341.239C349.146 325.258 336.445 307.169 324.161 289.675C315.49 277.318 307.292 265.664 303.651 254.984C295.314 230.486 278.639 209.233 262.631 188.711C245.344 166.62 227.474 143.771 220.304 117.111C210.188 79.256 232.783 53.5687 256.739 26.2592C270.913 10.0357 285.587 -6.70159 293.118 -26.332L295.731 -25.3857C288.032 -5.3226 273.192 11.631 258.851 28.0167C235.395 54.7855 213.245 80.0671 223 116.435C230.031 142.555 246.928 164.186 264.854 187.061C281.057 207.773 297.787 229.215 306.291 254.118C309.821 264.447 317.881 275.966 326.44 288.134C338.974 305.979 351.925 324.447 351.759 341.266C351.453 368.305 321.771 387.935 300.122 402.293C296.814 404.483 293.702 406.565 290.923 408.512C258.657 431.009 239.314 445.447 217.191 480.22Z" fill="white"/>
<path d="M209.104 463.429L206.575 462.32C214.471 445.07 225.889 429.561 240.136 416.737C254.382 403.912 271.16 394.04 289.45 387.719C323.106 376.146 340.864 353.812 342.254 321.284C338.808 308.062 327.469 300.383 315.463 292.217C303.457 284.051 291.534 275.993 285.42 261.852V261.419C283.653 233.376 272.783 206.601 254.377 184.952C234.786 161.02 220.498 133.401 212.411 103.835C209.049 72.0637 228.447 48.8371 247.207 26.3675C259.935 11.1986 273.025 -4.45712 279.389 -22.7356L282.168 -21.8433C275.498 -3.10517 262.297 12.7127 249.513 28.0169C230.254 51.0813 212.05 72.8479 215.274 103.294C223.271 132.435 237.369 159.656 256.684 183.249C275.333 205.296 286.345 232.514 288.144 261.013C293.98 274.317 305.736 282.293 317.103 289.999C329.609 298.49 341.42 306.493 345.061 320.824V321.013V321.203C343.644 355.056 325.246 378.282 290.367 390.261C272.437 396.47 255.989 406.157 242.021 418.734C228.053 431.311 216.854 446.517 209.104 463.429Z" fill="white"/>
<path d="M200.044 449.477L197.543 448.314C214.774 412.974 243.149 388.503 281.863 375.551C315.935 364.952 333.944 343.104 335.417 310.657C330.582 297.408 318.298 294.055 305.291 290.486C291.673 286.755 276.249 282.51 267.939 266.151L267.772 265.61C266.885 237.227 258.253 209.585 242.76 185.52C226.244 159.189 214.607 130.242 208.382 99.9953C206.103 69.6573 221.472 49.4861 237.757 28.1251C248.735 13.7133 259.991 -1.21236 265.827 -19.6531L268.606 -18.8689C262.742 0.0584812 251.236 15.1193 240.092 29.8016C224.14 50.7299 209.049 70.5226 211.244 99.6708C217.398 129.514 228.863 158.082 245.122 184.087C260.841 208.454 269.617 236.45 270.552 265.205C278.361 280.374 292.424 284.132 306.042 287.945C319.659 291.757 332.888 295.326 338.141 310.09V310.333V310.603C336.696 344.375 318.048 367.088 282.697 378.201C244.789 390.801 216.969 414.812 200.044 449.477Z" fill="white"/>
<path d="M189.705 439.121L187.26 437.877C207.186 400.887 238.396 375.524 279.973 362.546C316.63 351.378 330.998 330.099 323.911 297.652C309.388 290.177 292.519 288.248 276.61 292.244H276.388H276.165C266.744 291.595 259.991 288.837 256.072 283.997C252.153 279.157 251.236 273.046 252.598 265.069C250.413 243.996 245.289 223.311 237.368 203.582C223.34 172.96 211.971 141.25 203.379 108.783C198.488 73.6321 212.522 52.5686 227.391 30.2072C236.729 16.1738 246.4 1.62676 252.098 -17.3007L254.877 -16.5435C249.041 2.76242 239.286 17.4717 229.864 31.6943C215.274 53.6231 201.517 74.3351 206.241 108.269C214.792 140.552 226.106 172.082 240.064 202.528C248.117 222.567 253.325 243.581 255.544 264.988V265.205C254.265 272.586 255.238 278.319 258.323 282.266C261.408 286.214 267.717 288.864 276.221 289.486C292.966 285.404 310.676 287.605 325.829 295.651L326.385 295.948V296.543C334.055 330.45 318.659 353.515 280.695 365.114C239.953 377.877 209.299 402.78 189.705 439.121Z" fill="white"/>
<path d="M177.811 433.307L175.365 432.063C195.403 394.966 226.835 369.873 268.828 357.652C305.736 346.836 320.299 325.637 313.295 293.001C296.983 286.651 278.818 286.477 262.381 292.514H261.964C251.903 292.839 244.733 290.676 240.592 286.052C236.451 281.428 235.506 275.236 236.951 266.908C234.501 245.657 229.912 224.691 223.25 204.312C211.37 172.433 201.596 139.847 193.986 106.755C189.872 72.5236 202.518 51.9468 215.885 30.1802C224.223 16.4714 232.977 2.32988 238.341 -16.219L241.12 -15.4889C235.562 3.4385 226.835 17.7152 218.359 31.5592C205.213 52.9202 192.818 73.1184 196.82 106.323C204.414 139.263 214.142 171.702 225.946 203.447C232.693 224.073 237.347 245.292 239.842 266.8V267.179C238.48 274.831 239.481 280.698 242.788 284.267C246.095 287.837 252.709 290.081 261.769 289.675C279.03 283.394 298.094 283.703 315.129 290.54L315.824 290.811L315.991 291.514C323.606 325.691 308.07 348.729 269.746 360.004C228.364 372.307 197.487 396.885 177.811 433.307Z" fill="white"/>
<path d="M164.554 432.685L162.108 431.441C182.035 394.506 213.301 369.603 255.016 357.435C291.534 346.619 306.208 325.313 299.788 292.703C283.134 286.47 264.695 286.47 248.04 292.703H247.623C237.535 293.109 230.309 291 226.085 286.403C221.86 281.806 220.804 275.587 222.138 267.232C219.201 246.034 214.696 225.069 208.659 204.502C198.265 172.487 189.205 139.607 181.979 106.755C178.061 72.7126 190.317 51.4057 203.212 28.828C210.938 15.3084 218.914 1.51846 224.223 -16.057L227.002 -15.2729C221.444 2.57297 213.551 16.5793 205.769 30.1529C193.04 52.3251 181.035 73.2534 184.814 106.322C192.096 138.932 201.044 171.757 211.439 203.663C217.526 224.436 222.068 245.608 225.029 267.016V267.395C223.778 275.074 224.862 280.914 228.253 284.537C231.643 288.161 238.285 290.297 247.401 289.945C264.896 283.476 284.253 283.65 301.622 290.432L302.317 290.702L302.484 291.405C309.487 325.583 293.841 348.647 255.933 359.977C214.829 371.982 184.119 396.453 164.554 432.685Z" fill="white"/>
<path d="M153.549 435.011L151.075 433.767C159.998 416.373 172.495 400.946 187.792 388.44C203.089 375.934 220.861 366.614 240.008 361.058C274.943 349.837 289.033 328.936 283.086 297.138C267.32 289.706 249.352 287.971 232.394 292.244H232.199H232.143C222.389 291.919 215.468 289.297 211.161 284.484C206.853 279.671 205.825 273.668 206.936 265.313C203.574 244.655 199.405 223.808 194.597 203.393C186.037 172.082 178.478 140.04 172.141 108.215C168.723 74.93 179.701 51.4329 191.29 26.2594C198.206 12.2013 203.976 -2.36351 208.548 -17.3007L211.327 -16.5706C206.74 -1.49698 200.923 13.196 193.93 27.3681C182.48 52.0548 171.697 75.3896 175.004 107.81C181.313 139.472 188.9 171.46 197.404 202.744C202.267 223.321 206.436 244.303 209.827 265.096V265.475C208.798 272.992 209.993 278.805 213.384 282.726C216.775 286.647 223.333 289.215 232.143 289.54C249.844 285.15 268.575 287.068 284.948 294.948L285.587 295.245V295.921C292.09 329.179 277.027 351.946 240.787 363.519C221.989 368.988 204.546 378.156 189.54 390.454C174.533 402.752 162.283 417.917 153.549 435.011Z" fill="white"/>
<path d="M145.073 439.364L142.571 438.201C150.39 421.534 161.713 406.647 175.811 394.5C189.908 382.354 206.467 373.218 224.418 367.683C257.184 355.894 270.135 335.236 264.021 304.519C249.582 295.201 232.307 290.956 215.052 292.487H214.691C196.654 289.458 188.511 279.508 190.484 262.987C173.642 229.431 168.723 164.7 165.472 121.816C165.194 117.895 164.888 114.163 164.61 110.675C162.053 78.2284 170.446 51.1892 179.312 22.5277C183.453 9.14332 187.649 -4.67369 190.901 -19.2478L193.68 -18.707C190.484 -4.02476 186.204 9.87338 182.035 23.3118C173.225 51.7571 164.916 78.6069 167.445 110.459C167.723 113.947 168.001 117.679 168.306 121.626C171.586 164.456 176.505 229.161 193.319 262.23L193.486 262.581V262.987C191.54 278.237 198.655 287.025 215.191 290.026C233.204 288.47 251.219 292.986 266.216 302.816L266.717 303.113V303.654C273.331 335.749 259.435 358.219 225.446 370.495C207.846 375.872 191.6 384.779 177.757 396.641C163.913 408.503 152.779 423.057 145.073 439.364Z" fill="white"/>
<path d="M138.625 445.312L136.04 444.285C142.322 428.556 152.065 414.354 164.586 402.677C177.107 390.999 192.103 382.129 208.521 376.687C238.508 364.033 249.902 343.564 243.232 314.173C230.261 302.519 213.867 295.107 196.348 292.974H196.07C179.2 287.079 171.586 275.831 173.42 259.553C161.191 229.459 160.524 182.465 159.969 144.664C159.802 133.578 159.663 123.033 159.246 113.839C157.69 79.6617 162.553 45.7005 167.25 12.875C168.89 1.43741 170.585 -10.3787 172.002 -22.0867L174.782 -21.7622C173.364 -10.0542 171.669 1.78893 170.029 13.3887C165.444 45.9169 160.469 79.7699 162.025 113.785C162.442 123.06 162.581 133.551 162.748 144.691C163.304 182.384 163.971 229.297 176.116 258.931V259.256V259.58C174.309 274.803 181.063 284.889 196.793 290.432C214.967 292.664 231.956 300.413 245.345 312.577L245.678 312.875V313.28C252.793 343.916 240.564 366.142 209.382 379.31C193.359 384.634 178.725 393.3 166.504 404.701C154.282 416.101 144.767 429.961 138.625 445.312Z" fill="white"/>
<path d="M133.678 452.397L130.898 451.64C134.662 437.784 141.78 425.006 151.658 414.375C161.536 403.744 173.886 395.568 187.677 390.531C213.023 378.877 225.168 359.274 223.806 332.37C220.026 315.038 206.186 306.601 191.54 297.652C176.282 288.35 160.497 278.724 154.855 258.093C146.684 228.35 149.658 190.982 152.548 154.858C153.938 137.688 155.327 121.464 155.327 106.863C155.327 86.2052 154.549 65.2769 153.799 45.0516C152.937 21.9601 152.048 -1.91549 152.326 -25.4937H155.105C154.827 -1.96957 155.716 21.879 156.578 44.8082C157.328 65.0876 158.106 86.0159 158.106 106.728C158.106 121.437 156.772 137.715 155.327 154.939C152.548 190.82 149.491 227.945 157.523 257.255C162.887 276.831 178.228 286.187 193.013 295.11C207.798 304.033 222.527 313.118 226.557 331.775C228.114 360.112 215.441 380.445 188.9 392.775C175.46 397.684 163.429 405.662 153.82 416.038C144.21 426.413 137.302 438.883 133.678 452.397Z" fill="white"/>
<path d="M129.676 460.265L126.896 459.778C131.899 433.037 147.129 413.65 172.197 402.212C193.93 389.666 203.518 370.711 200.517 345.97C197.237 326.502 183.842 314.632 169.751 302.086C155.105 289.053 139.959 275.587 136.401 252.821C132.066 225.781 138.208 196.958 144.183 168.999C148.268 149.801 152.52 129.955 153.104 111.325C153.993 82.9604 147.907 55.2182 141.987 28.3954C137.42 9.3704 133.986 -9.8956 131.704 -29.3062L134.484 -29.5496C136.743 -10.2466 140.158 8.91168 144.711 27.8276C150.631 54.8667 156.745 82.7171 155.828 111.406C155.216 130.333 150.964 150.234 146.851 169.567C140.931 197.255 134.817 225.862 139.097 252.361C142.599 274.208 157.384 287.35 171.697 300.058C185.592 312.388 199.877 325.123 203.324 345.565C206.464 371.55 196.431 391.369 173.559 404.564C162.009 409.494 151.928 417.186 144.255 426.925C136.583 436.664 131.567 448.133 129.676 460.265Z" fill="white"/>
<path d="M126.007 468.809L123.367 467.971C128.592 452.099 139.431 438.553 149.936 425.466C166.027 405.348 181.229 386.34 176.977 360.112C173.587 339.102 160.608 323.285 148.046 307.98C133.872 290.702 119.226 272.829 117.725 247.331C116.225 221.834 125.618 198.012 134.678 174.948C142.154 156.02 149.88 136.309 151.353 116.002C153.715 84.6368 141.571 53.8121 129.815 24.2042C122.422 5.46608 114.752 -13.921 110.833 -33.227L113.612 -33.7407C117.475 -14.8133 125.09 4.60082 132.455 23.2308C144.322 53.2173 156.578 84.2312 154.16 116.219C152.604 136.903 144.822 156.777 137.263 175.921C128.314 198.715 119.032 222.32 120.588 247.169C122.144 272.018 136.429 289.35 150.325 306.277C163.109 321.851 176.338 337.967 179.84 359.679C184.286 387.097 168 407.43 152.243 427.115C141.765 440.04 131.093 453.397 126.007 468.809Z" fill="white"/>
<path d="M122.366 476.894L119.587 476.435C122.505 460.644 129.842 447.368 136.901 434.551C145.878 418.327 154.355 402.969 154.216 383.177C154.049 357.679 140.681 335.939 127.758 314.903C114.168 292.812 100.105 269.964 100.995 242.492C101.773 217.832 113.417 197.58 124.645 177.976C133.594 162.321 142.877 146.178 146.601 127.846C153.965 92.1539 134.873 56.1647 116.502 21.4194C106.275 2.08638 95.6863 -17.8956 90.1836 -37.1745L92.9628 -37.9045C98.3543 -18.9771 108.415 0.0854912 119.059 20.2026C137.68 55.3536 156.967 91.6942 149.463 128.359C145.628 147.097 136.234 163.51 127.23 179.247C115.641 199.472 104.719 218.562 103.94 242.546C103.079 269.206 116.919 291.73 130.315 313.497C143.432 334.83 156.995 356.894 157.161 383.122C157.3 403.591 148.268 419.95 139.514 435.795C132.399 448.476 125.201 461.536 122.366 476.894Z" fill="white"/>
<path d="M115.418 484.546C114.196 468.106 118.837 453.559 123.311 439.499C127.563 426.142 131.955 412.46 131.343 396.912C130.315 371.117 118.448 346.917 106.97 323.501C93.7132 296.462 80.0119 268.53 83.208 238.165C85.8482 213.127 100.439 195.524 114.557 178.49C126.118 164.538 138.096 150.126 143.432 131.631C153.799 95.7499 127.786 55.9212 102.662 17.2011C89.2388 -3.42976 76.538 -22.898 70.0625 -40.906L72.6749 -41.7983C79.067 -24.0877 91.6566 -4.72763 104.997 15.7681C130.482 54.8937 156.8 95.3444 146.1 132.361C140.542 151.288 128.453 166.025 116.725 180.193C102.217 197.688 88.5162 214.209 85.9593 238.436C82.8467 268.179 95.7976 294.434 109.499 322.257C121.088 345.916 133.094 370.36 134.122 396.723C134.734 412.622 130.287 426.655 125.952 440.202C121.366 454.695 117.003 468.35 118.198 484.276L115.418 484.546Z" fill="white"/>
<path d="M109.861 491.441C108.61 476.872 108.369 462.238 109.138 447.638C110.094 431.251 109.611 414.814 107.693 398.508C104.664 377.958 95.7427 356.029 86.2935 332.802C72.3977 298.868 58.1962 263.798 63.2264 232.352C67.3118 206.692 85.6821 191.982 103.441 177.76C116.281 167.485 129.565 156.858 137.319 142.149C156.106 106.566 119.643 57.0028 87.6275 13.4157C71.8141 -7.89121 57.0567 -27.9272 50.3867 -44.2048L52.9713 -45.1782C59.4746 -29.2251 74.1763 -9.2702 89.7397 11.8474C122.367 56.1376 159.358 106.484 139.765 143.393C131.733 158.589 118.254 169.378 105.192 179.842C87.0161 194.389 69.8687 208.125 65.9222 232.757C61.0309 263.501 75.1769 298.219 88.8503 331.802C98.3551 355.191 107.36 377.255 110.417 398.129C112.355 414.588 112.848 431.178 111.89 447.719C111.119 462.193 111.361 476.701 112.612 491.144L109.861 491.441Z" fill="white"/>
<path d="M102.718 496.903C101.078 479.652 97.6045 462.158 94.2417 445.259C91.7961 432.956 89.2392 420.247 87.4328 407.674C84.6536 387.746 76.3161 365.033 67.9786 340.968C54.0828 301.951 39.5756 261.608 46.3289 228.756C51.8873 202.041 72.5087 189.387 92.5186 177.138C106.97 168.296 121.894 159.184 131.066 144.691C149.186 116.354 130.204 92.0999 111.862 68.6299C109.277 65.304 106.692 62.0323 104.275 58.7606C97.0209 49.0535 90.0452 40.2658 83.2918 31.7214C63.6709 7.06165 46.718 -14.2452 32.0996 -46.9897L34.6565 -48.0442C49.1359 -15.5972 65.9776 5.54745 85.4874 30.072C92.2407 38.5893 99.2442 47.4041 106.526 57.1112C108.944 60.3288 111.5 63.6006 114.085 66.8994C132.122 89.9638 152.549 116.111 133.539 146.043C124.034 160.942 108.832 170.243 94.1306 179.22C73.7037 191.712 54.4163 203.555 49.1637 229.107C42.5771 261.23 56.862 301.221 70.7022 339.968C79.3454 364.168 87.3772 386.989 90.4065 407.187C92.2129 419.679 94.742 432.388 97.1877 444.637C100.92 461.791 103.759 479.118 105.692 496.552L102.718 496.903Z" fill="white"/>
<path d="M93.3798 500.581C92.5183 484.546 87.0155 470.026 81.1793 454.614C76.3157 441.743 71.2577 428.413 69.1455 414.055C66.3663 394.749 58.8904 371.901 50.9976 347.701C37.1018 304.709 22.5389 260.283 30.2372 226.322C36.5737 198.472 58.8904 187.521 80.4567 176.922C96.159 169.216 112.389 161.266 122.533 146.827C142.21 118.706 120.838 93.0461 101.967 70.4414C98.9104 66.7911 96.0478 63.3301 93.352 59.8961C85.2369 49.5671 77.4274 40.3197 69.8959 31.3698C48.8576 6.46669 30.7096 -15.0294 15.0352 -48.6662L17.5642 -49.7748C33.0719 -16.4896 51.1365 4.89843 72.0358 29.6663C79.5952 38.6163 87.4324 47.8907 95.5476 58.2467C98.3267 61.6537 101.106 65.0876 104.107 68.7379C123.562 92.0997 145.795 118.571 124.812 148.341C114.279 163.375 97.7431 171.487 81.7351 179.328C59.7519 190.144 38.9916 200.283 32.9608 226.917C25.4015 260.148 39.7697 304.222 53.6378 346.863C61.5584 371.198 69.0343 394.154 71.8969 413.677C73.9534 427.764 78.9559 440.959 83.7917 453.722C89.35 468.593 95.2697 483.978 96.159 500.418L93.3798 500.581Z" fill="white"/>
<path d="M84.1253 502.041H81.3462C81.3462 491.036 77.6499 484.6 73.6479 477.705C71.5396 474.23 69.6824 470.616 68.0895 466.89C60.8359 449.098 56.8339 439.31 53.36 417.165C50.414 398.453 43.5495 376.092 36.2681 352.406C22.9837 309.143 7.94841 260.473 15.5911 225.322C21.9832 196.173 45.1614 186.358 67.5893 176.867C84.0141 169.918 100.939 162.753 111.611 148.017C131.871 119.95 109.582 93.9383 89.906 70.8738C86.8211 67.2506 83.8752 63.8437 81.1794 60.4638C72.4806 49.6481 64.0875 40.0492 56.0001 30.7207C34.406 6.06095 15.7857 -15.2459 0 -49.5046L2.52903 -50.6132C18.1479 -16.706 36.6572 4.46563 58.1123 28.9631C66.2275 38.2646 74.6206 47.8905 83.3749 58.7062C86.1541 62.032 88.9333 65.439 92.0459 69.0352C111.333 91.6129 135.345 119.707 113.89 149.45C102.773 164.808 85.4871 172.163 68.701 179.193C45.9118 188.846 24.4011 197.931 18.3147 225.727C10.8109 260.04 25.7629 308.575 38.9361 351.405C46.2453 375.173 53.1376 397.615 56.1113 416.516C59.5575 438.363 63.2538 447.475 70.6741 465.646C72.2621 469.296 74.1197 472.829 76.2325 476.218C80.2623 483.546 84.2087 490.306 84.1253 502.041Z" fill="white"/>
</svg>
