<svg width="24" height="24" viewBox="0 0 24 24" fill="none" xmlns="http://www.w3.org/2000/svg">
<path d="M11.5094 3.3967C11.6183 2.86353 12.3801 2.86353 12.4891 3.3967L13.3369 7.54438C13.6578 9.11445 14.8848 10.3414 16.4548 10.6623L20.6025 11.5101C21.1357 11.6191 21.1357 12.3809 20.6025 12.4898L16.4548 13.3376C14.8848 13.6585 13.6578 14.8855 13.3369 16.4556L12.4891 20.6032C12.3801 21.1364 11.6183 21.1364 11.5094 20.6032L10.6616 16.4556C10.3407 14.8855 9.11371 13.6585 7.54365 13.3376L3.39597 12.4898C2.8628 12.3809 2.8628 11.6191 3.39597 11.5101L7.54365 10.6623C9.11371 10.3414 10.3407 9.11445 10.6616 7.54438L11.5094 3.3967Z" stroke="white" stroke-width="2"/>
</svg>
