<svg width="945" height="684" viewBox="0 0 945 684" fill="none" xmlns="http://www.w3.org/2000/svg">
<path d="M52.6018 321.874C38.2391 283.637 52.336 238.764 86.8948 197.09C121.446 155.425 176.401 117.027 243.579 91.793C310.756 66.5595 377.401 59.2813 430.838 67.8955C484.287 76.5115 524.441 101.007 538.804 139.244C553.166 177.48 539.069 222.354 504.511 264.028C469.96 305.693 415.004 344.091 347.827 369.325C280.65 394.558 214.004 401.836 160.567 393.222C107.118 384.606 66.9644 360.11 52.6018 321.874Z" stroke="#161616" stroke-width="0.74302"/>
<path d="M538.439 353.533C555.267 389.052 546.889 432.464 519.615 473.977C492.344 515.485 446.214 555.035 387.68 582.769C329.146 610.502 269.323 621.152 219.93 615.967C170.529 610.782 131.628 589.771 114.799 554.253C97.9706 518.734 106.349 475.323 133.623 433.809C160.894 392.301 207.024 352.751 265.558 325.017C324.092 297.284 383.915 286.634 433.308 291.819C482.709 297.004 521.61 318.015 538.439 353.533Z" stroke="#161616" stroke-width="0.747693"/>
<path d="M402.62 348.615C388.168 310.14 402.353 264.986 437.127 223.052C471.894 181.128 527.192 142.49 594.788 117.099C662.384 91.708 729.445 84.3845 783.216 93.0524C836.998 101.722 877.402 126.371 891.855 164.846C906.307 203.32 892.122 248.474 857.348 290.408C822.581 332.333 767.283 370.971 699.687 396.362C632.09 421.752 565.029 429.076 511.259 420.408C457.477 411.738 417.072 387.09 402.62 348.615Z" stroke="#161616" stroke-width="0.747654"/>
<rect x="380.16" y="117.652" width="56" height="56" rx="28" fill="#161616"/>
<path d="M402.798 156.042C401.585 156.042 400.501 155.769 399.548 155.223C398.603 154.669 397.854 153.919 397.299 152.974C396.753 152.021 396.48 150.938 396.48 149.724V142.86C396.48 141.647 396.753 140.564 397.299 139.61C397.854 138.657 398.603 137.907 399.548 137.361C400.501 136.815 401.585 136.542 402.798 136.542C404.011 136.542 405.095 136.815 406.048 137.361C407.001 137.907 407.751 138.657 408.297 139.61C408.843 140.564 409.116 141.647 409.116 142.86V149.724C409.116 150.938 408.843 152.021 408.297 152.974C407.751 153.919 407.001 154.669 406.048 155.223C405.095 155.769 404.011 156.042 402.798 156.042ZM402.798 153.819C403.535 153.819 404.202 153.642 404.8 153.286C405.398 152.931 405.875 152.454 406.23 151.856C406.585 151.25 406.763 150.582 406.763 149.854V142.717C406.763 141.981 406.585 141.313 406.23 140.715C405.875 140.117 405.398 139.641 404.8 139.285C404.202 138.93 403.535 138.752 402.798 138.752C402.07 138.752 401.403 138.93 400.796 139.285C400.198 139.641 399.721 140.117 399.366 140.715C399.011 141.313 398.833 141.981 398.833 142.717V149.854C398.833 150.582 399.011 151.25 399.366 151.856C399.721 152.454 400.198 152.931 400.796 153.286C401.403 153.642 402.07 153.819 402.798 153.819ZM416.019 155.652V139.493L412.496 141.625V139.038L416.019 136.932H418.372V155.652H416.019Z" fill="white"/>
<rect x="336.742" y="393.652" width="56" height="56" rx="28" fill="#161616"/>
<path d="M357.38 432.042C356.167 432.042 355.084 431.769 354.13 431.223C353.186 430.669 352.436 429.919 351.881 428.974C351.335 428.021 351.062 426.938 351.062 425.724V418.86C351.062 417.647 351.335 416.564 351.881 415.61C352.436 414.657 353.186 413.907 354.13 413.361C355.084 412.815 356.167 412.542 357.38 412.542C358.594 412.542 359.677 412.815 360.63 413.361C361.584 413.907 362.333 414.657 362.879 415.61C363.425 416.564 363.698 417.647 363.698 418.86V425.724C363.698 426.938 363.425 428.021 362.879 428.974C362.333 429.919 361.584 430.669 360.63 431.223C359.677 431.769 358.594 432.042 357.38 432.042ZM357.38 429.819C358.117 429.819 358.784 429.642 359.382 429.286C359.98 428.931 360.457 428.454 360.812 427.856C361.168 427.25 361.345 426.582 361.345 425.854V418.717C361.345 417.981 361.168 417.313 360.812 416.715C360.457 416.117 359.98 415.641 359.382 415.285C358.784 414.93 358.117 414.752 357.38 414.752C356.652 414.752 355.985 414.93 355.378 415.285C354.78 415.641 354.304 416.117 353.948 416.715C353.593 417.313 353.415 417.981 353.415 418.717V425.854C353.415 426.582 353.593 427.25 353.948 427.856C354.304 428.454 354.78 428.931 355.378 429.286C355.985 429.642 356.652 429.819 357.38 429.819ZM372.473 432.016C371.545 432.016 370.683 431.847 369.886 431.509C369.088 431.163 368.399 430.677 367.819 430.053C367.247 429.421 366.826 428.671 366.558 427.804L368.781 427.167C369.067 428.034 369.543 428.693 370.211 429.143C370.878 429.594 371.628 429.815 372.46 429.806C373.222 429.789 373.881 429.616 374.436 429.286C374.999 428.948 375.432 428.489 375.736 427.908C376.048 427.328 376.204 426.656 376.204 425.893C376.204 424.732 375.857 423.792 375.164 423.072C374.47 422.344 373.56 421.98 372.434 421.98C372.122 421.98 371.792 422.024 371.446 422.11C371.108 422.197 370.791 422.318 370.497 422.474L369.379 420.641L376.321 414.362L376.62 415.142H367.299V412.932H378.336V415.155L372.421 420.823L372.395 420.004C373.634 419.918 374.717 420.121 375.645 420.615C376.572 421.109 377.291 421.816 377.803 422.734C378.323 423.653 378.583 424.706 378.583 425.893C378.583 427.089 378.314 428.147 377.777 429.065C377.239 429.984 376.511 430.708 375.593 431.236C374.674 431.756 373.634 432.016 372.473 432.016Z" fill="white"/>
<rect x="700.16" y="160.652" width="56" height="56" rx="28" fill="#161616"/>
<path d="M720.298 199.042C719.085 199.042 718.001 198.769 717.048 198.223C716.103 197.669 715.354 196.919 714.799 195.974C714.253 195.021 713.98 193.938 713.98 192.724V185.86C713.98 184.647 714.253 183.564 714.799 182.61C715.354 181.657 716.103 180.907 717.048 180.361C718.001 179.815 719.085 179.542 720.298 179.542C721.511 179.542 722.595 179.815 723.548 180.361C724.501 180.907 725.251 181.657 725.797 182.61C726.343 183.564 726.616 184.647 726.616 185.86V192.724C726.616 193.938 726.343 195.021 725.797 195.974C725.251 196.919 724.501 197.669 723.548 198.223C722.595 198.769 721.511 199.042 720.298 199.042ZM720.298 196.819C721.035 196.819 721.702 196.642 722.3 196.286C722.898 195.931 723.375 195.454 723.73 194.856C724.085 194.25 724.263 193.582 724.263 192.854V185.717C724.263 184.981 724.085 184.313 723.73 183.715C723.375 183.117 722.898 182.641 722.3 182.285C721.702 181.93 721.035 181.752 720.298 181.752C719.57 181.752 718.903 181.93 718.296 182.285C717.698 182.641 717.221 183.117 716.866 183.715C716.511 184.313 716.333 184.981 716.333 185.717V192.854C716.333 193.582 716.511 194.25 716.866 194.856C717.221 195.454 717.698 195.931 718.296 196.286C718.903 196.642 719.57 196.819 720.298 196.819ZM729.736 198.639L729.749 196.559L738.056 189.084C738.749 188.46 739.213 187.871 739.447 187.316C739.689 186.753 739.811 186.177 739.811 185.587C739.811 184.868 739.646 184.218 739.317 183.637C738.987 183.057 738.537 182.597 737.965 182.259C737.401 181.921 736.76 181.752 736.041 181.752C735.295 181.752 734.632 181.93 734.052 182.285C733.471 182.632 733.012 183.096 732.674 183.676C732.344 184.257 732.184 184.89 732.193 185.574H729.827C729.827 184.396 730.1 183.356 730.646 182.454C731.192 181.544 731.933 180.834 732.869 180.322C733.813 179.802 734.884 179.542 736.08 179.542C737.241 179.542 738.281 179.811 739.2 180.348C740.118 180.877 740.842 181.601 741.371 182.519C741.908 183.429 742.177 184.461 742.177 185.613C742.177 186.428 742.073 187.134 741.865 187.732C741.665 188.33 741.353 188.885 740.929 189.396C740.504 189.899 739.971 190.436 739.33 191.008L732.427 197.209L732.128 196.429H742.177V198.639H729.736Z" fill="white"/>
<path d="M131.631 213.605L127.759 208.732L131.631 203.859L133.05 204.97L130.058 208.732L133.05 212.494L131.631 213.605ZM127.143 213.605L123.271 208.732L127.143 203.859L128.562 204.97L125.559 208.732L128.562 212.494L127.143 213.605ZM137.294 210.052V207.412H148.261V210.052H137.294ZM142.64 216.982C141.056 216.982 139.7 216.638 138.57 215.948C137.441 215.252 136.572 214.284 135.963 213.044C135.362 211.805 135.061 210.368 135.061 208.732C135.061 207.097 135.362 205.66 135.963 204.42C136.572 203.181 137.441 202.217 138.57 201.527C139.7 200.831 141.056 200.482 142.64 200.482C144.224 200.482 145.581 200.831 146.71 201.527C147.847 202.217 148.716 203.181 149.317 204.42C149.926 205.66 150.23 207.097 150.23 208.732C150.23 210.368 149.926 211.805 149.317 213.044C148.716 214.284 147.847 215.252 146.71 215.948C145.581 216.638 144.224 216.982 142.64 216.982ZM142.64 214.485C143.704 214.493 144.587 214.258 145.291 213.781C146.003 213.305 146.534 212.634 146.886 211.768C147.246 210.903 147.425 209.891 147.425 208.732C147.425 207.574 147.246 206.569 146.886 205.718C146.534 204.86 146.003 204.193 145.291 203.716C144.587 203.24 143.704 202.994 142.64 202.979C141.577 202.972 140.693 203.207 139.989 203.683C139.285 204.16 138.754 204.831 138.394 205.696C138.042 206.562 137.866 207.574 137.866 208.732C137.866 209.891 138.042 210.899 138.394 211.757C138.746 212.608 139.274 213.272 139.978 213.748C140.69 214.225 141.577 214.471 142.64 214.485ZM152.871 216.652V200.812H155.522V207.478H163.024V200.812H165.664V216.652H163.024V209.964H155.522V216.652H152.871ZM172.598 216.652V210.162L167.208 200.812H170.299L173.94 207.126L177.57 200.812H180.661L175.282 210.162V216.652H172.598ZM182.197 216.652V200.812H192.427V203.298H184.848V216.652H182.197ZM198.702 216.652V210.162L193.312 200.812H196.403L200.044 207.126L203.674 200.812H206.765L201.386 210.162V216.652H198.702ZM212.838 216.652V210.162L207.448 200.812H210.539L214.18 207.126L217.81 200.812H220.901L215.522 210.162V216.652H212.838ZM225.114 219.292V214.166C225.627 214.166 226.056 214.038 226.401 213.781C226.746 213.525 227.021 213.169 227.226 212.714C227.439 212.26 227.604 211.732 227.721 211.13C227.838 210.522 227.93 209.876 227.996 209.194C228.077 208.292 228.146 207.409 228.205 206.543C228.264 205.671 228.319 204.769 228.37 203.837C228.429 202.899 228.495 201.883 228.568 200.79L238.897 200.812V214.166H240.085V219.292H237.445V216.652H227.765V219.292H225.114ZM229.239 214.166H236.246V203.298L230.988 203.276C230.937 204.046 230.893 204.765 230.856 205.432C230.827 206.092 230.786 206.763 230.735 207.445C230.691 208.127 230.629 208.872 230.548 209.678C230.475 210.47 230.394 211.13 230.306 211.658C230.225 212.186 230.104 212.645 229.943 213.033C229.782 213.415 229.547 213.792 229.239 214.166ZM242.504 216.652V200.812H252.734V203.298H245.155V207.203H251.414V209.689H245.155V214.166H252.734V216.652H242.504ZM255.373 216.652V200.812H257.76L263.238 212.032L268.716 200.812H271.103V216.652H268.628V206.499L263.766 216.652H262.71L257.859 206.499V216.652H255.373ZM286.909 216.652H284.225V205.487L276.877 216.652H274.193V200.812H276.877V211.977L284.225 200.812H286.909V216.652ZM288.884 216.652V214.43C289.236 214.452 289.533 214.427 289.775 214.353C290.017 214.273 290.219 214.122 290.38 213.902C290.549 213.675 290.696 213.356 290.82 212.945C290.945 212.527 291.066 212.003 291.183 211.372C291.352 210.47 291.491 209.532 291.601 208.556C291.719 207.574 291.818 206.609 291.898 205.663C291.979 204.71 292.041 203.815 292.085 202.979C292.129 202.143 292.166 201.421 292.195 200.812H302.799V216.652H300.148V203.298H294.648C294.612 203.79 294.568 204.384 294.516 205.08C294.472 205.77 294.41 206.518 294.329 207.324C294.256 208.131 294.161 208.967 294.043 209.832C293.933 210.698 293.798 211.548 293.636 212.384C293.49 213.147 293.314 213.833 293.108 214.441C292.903 215.043 292.628 215.541 292.283 215.937C291.946 216.326 291.502 216.586 290.952 216.718C290.41 216.85 289.72 216.828 288.884 216.652ZM305.883 216.652V200.812H316.113V203.298H308.534V216.652H305.883ZM317.871 216.652V200.812H328.101V203.298H320.522V207.203H326.781V209.689H320.522V214.166H328.101V216.652H317.871ZM329.64 216.652V214.43C329.992 214.452 330.289 214.427 330.531 214.353C330.773 214.273 330.975 214.122 331.136 213.902C331.305 213.675 331.452 213.356 331.576 212.945C331.701 212.527 331.822 212.003 331.939 211.372C332.108 210.47 332.247 209.532 332.357 208.556C332.475 207.574 332.574 206.609 332.654 205.663C332.735 204.71 332.797 203.815 332.841 202.979C332.885 202.143 332.922 201.421 332.951 200.812H343.555V216.652H340.904V203.298H335.404C335.368 203.79 335.324 204.384 335.272 205.08C335.228 205.77 335.166 206.518 335.085 207.324C335.012 208.131 334.917 208.967 334.799 209.832C334.689 210.698 334.554 211.548 334.392 212.384C334.246 213.147 334.07 213.833 333.864 214.441C333.659 215.043 333.384 215.541 333.039 215.937C332.702 216.326 332.258 216.586 331.708 216.718C331.166 216.85 330.476 216.828 329.64 216.652ZM346.639 216.652V200.812H356.869V203.298H349.29V207.203H355.549V209.689H349.29V214.166H356.869V216.652H346.639ZM359.508 216.652V200.812H366.053C366.207 200.812 366.405 200.82 366.647 200.834C366.889 200.842 367.112 200.864 367.318 200.9C368.234 201.04 368.99 201.344 369.584 201.813C370.185 202.283 370.629 202.877 370.915 203.595C371.208 204.307 371.355 205.099 371.355 205.971C371.355 206.837 371.208 207.629 370.915 208.347C370.621 209.059 370.174 209.649 369.573 210.118C368.979 210.588 368.227 210.892 367.318 211.031C367.112 211.061 366.885 211.083 366.636 211.097C366.394 211.112 366.199 211.119 366.053 211.119H362.159V216.652H359.508ZM362.159 208.644H365.943C366.089 208.644 366.254 208.637 366.438 208.622C366.621 208.608 366.79 208.578 366.944 208.534C367.384 208.424 367.728 208.23 367.978 207.951C368.234 207.673 368.414 207.357 368.517 207.005C368.627 206.653 368.682 206.309 368.682 205.971C368.682 205.634 368.627 205.289 368.517 204.937C368.414 204.578 368.234 204.259 367.978 203.98C367.728 203.702 367.384 203.507 366.944 203.397C366.79 203.353 366.621 203.328 366.438 203.32C366.254 203.306 366.089 203.298 365.943 203.298H362.159V208.644ZM386.275 216.652H383.591V205.487L376.243 216.652H373.559V200.812H376.243V211.977L383.591 200.812H386.275V216.652ZM168.11 246.652L173.104 230.812H176.987L181.981 246.652H179.253L174.721 232.44H175.315L170.838 246.652H168.11ZM170.893 243.22V240.745H179.209V243.22H170.893ZM183.97 246.652V230.812H194.2V233.298H186.621V246.652H183.97ZM195.958 246.652V230.812H206.188V233.298H198.609V237.203H204.868V239.689H198.609V244.166H206.188V246.652H195.958ZM208.827 246.652V230.812H211.478V237.478H218.98V230.812H221.62V246.652H218.98V239.964H211.478V246.652H208.827ZM228.51 246.652V233.298H223.384V230.812H236.287V233.298H231.161V246.652H228.51ZM243.162 246.652V233.298H238.036V230.812H250.939V233.298H245.813V246.652H243.162ZM265.414 246.652H262.73V235.487L255.382 246.652H252.698V230.812H255.382V241.977L262.73 230.812H265.414V246.652ZM268.489 246.652V230.812H278.719V233.298H271.14V246.652H268.489ZM293.194 246.652H290.51V235.487L283.162 246.652H280.478V230.812H283.162V241.977L290.51 230.812H293.194V246.652ZM297.501 243.605L296.082 242.494L299.085 238.732L296.082 234.97L297.501 233.859L301.373 238.732L297.501 243.605ZM301.989 243.605L300.581 242.494L303.573 238.732L300.581 234.97L301.989 233.859L305.861 238.732L301.989 243.605ZM313.563 246.652V230.812H316.214V238.16L322.539 230.812H325.795L318.986 238.578L326.257 246.652H322.891L316.214 239.26V246.652H313.563ZM332.206 246.652V244.397C331.392 244.537 330.615 244.504 329.874 244.298C329.141 244.093 328.488 243.73 327.916 243.209C327.344 242.681 326.893 242.007 326.563 241.185C326.233 240.357 326.068 239.389 326.068 238.281C326.068 237.174 326.233 236.202 326.563 235.366C326.893 234.53 327.344 233.845 327.916 233.309C328.488 232.774 329.141 232.4 329.874 232.187C330.615 231.975 331.392 231.938 332.206 232.077V230.812H334.835V232.077C335.649 231.938 336.427 231.975 337.167 232.187C337.908 232.4 338.564 232.774 339.136 233.309C339.708 233.845 340.159 234.53 340.489 235.366C340.827 236.202 340.995 237.174 340.995 238.281C340.995 239.389 340.827 240.357 340.489 241.185C340.159 242.007 339.708 242.681 339.136 243.209C338.564 243.73 337.908 244.093 337.167 244.298C336.427 244.504 335.649 244.537 334.835 244.397V246.652H332.206ZM332.206 241.966V234.464C331.568 234.362 331.026 234.406 330.578 234.596C330.138 234.78 329.783 235.062 329.511 235.443C329.247 235.817 329.057 236.254 328.939 236.752C328.822 237.251 328.763 237.761 328.763 238.281C328.763 238.802 328.822 239.304 328.939 239.788C329.057 240.272 329.247 240.698 329.511 241.064C329.783 241.424 330.138 241.688 330.578 241.856C331.026 242.025 331.568 242.062 332.206 241.966ZM334.835 241.966C335.481 242.062 336.023 242.025 336.463 241.856C336.903 241.68 337.259 241.413 337.53 241.053C337.802 240.694 337.996 240.28 338.113 239.81C338.238 239.341 338.3 238.857 338.3 238.358C338.3 237.86 338.238 237.361 338.113 236.862C337.996 236.356 337.802 235.909 337.53 235.52C337.259 235.124 336.903 234.824 336.463 234.618C336.023 234.413 335.481 234.362 334.835 234.464V241.966Z" fill="#222222"/>
<path d="M138.28 500.605L134.408 495.732L138.28 490.859L139.699 491.97L136.707 495.732L139.699 499.494L138.28 500.605ZM133.792 500.605L129.92 495.732L133.792 490.859L135.211 491.97L132.208 495.732L135.211 499.494L133.792 500.605ZM142.591 503.652V487.812H145.242V494.478H152.744V487.812H155.384V503.652H152.744V496.964H145.242V503.652H142.591ZM157.368 503.652L162.362 487.812H166.245L171.239 503.652H168.511L163.979 489.44H164.573L160.096 503.652H157.368ZM160.151 500.22V497.745H168.467V500.22H160.151ZM173.228 503.652V487.812H179.773C179.927 487.812 180.125 487.82 180.367 487.834C180.609 487.842 180.832 487.864 181.038 487.9C181.954 488.04 182.71 488.344 183.303 488.813C183.905 489.283 184.349 489.877 184.635 490.595C184.928 491.307 185.075 492.099 185.075 492.971C185.075 493.837 184.928 494.629 184.635 495.347C184.341 496.059 183.894 496.649 183.293 497.118C182.699 497.588 181.947 497.892 181.038 498.031C180.832 498.061 180.605 498.083 180.356 498.097C180.114 498.112 179.919 498.119 179.773 498.119H175.879V503.652H173.228ZM175.879 495.644H179.663C179.809 495.644 179.974 495.637 180.158 495.622C180.341 495.608 180.51 495.578 180.664 495.534C181.104 495.424 181.448 495.23 181.698 494.951C181.954 494.673 182.134 494.357 182.237 494.005C182.347 493.653 182.402 493.309 182.402 492.971C182.402 492.634 182.347 492.289 182.237 491.937C182.134 491.578 181.954 491.259 181.698 490.98C181.448 490.702 181.104 490.507 180.664 490.397C180.51 490.353 180.341 490.328 180.158 490.32C179.974 490.306 179.809 490.298 179.663 490.298H175.879V495.644ZM187.256 503.652V487.812H189.907V493.345H193.801C193.948 493.345 194.146 493.353 194.395 493.367C194.645 493.375 194.872 493.397 195.077 493.433C195.987 493.573 196.738 493.877 197.332 494.346C197.934 494.816 198.377 495.41 198.663 496.128C198.957 496.84 199.103 497.628 199.103 498.493C199.103 499.366 198.957 500.162 198.663 500.88C198.377 501.592 197.934 502.182 197.332 502.651C196.738 503.121 195.987 503.425 195.077 503.564C194.872 503.594 194.645 503.616 194.395 503.63C194.153 503.645 193.955 503.652 193.801 503.652H187.256ZM189.907 501.166H193.691C193.845 501.166 194.01 501.159 194.186 501.144C194.37 501.13 194.542 501.104 194.703 501.067C195.136 500.957 195.477 500.763 195.726 500.484C195.983 500.206 196.163 499.89 196.265 499.538C196.375 499.179 196.43 498.831 196.43 498.493C196.43 498.156 196.375 497.811 196.265 497.459C196.163 497.107 195.983 496.792 195.726 496.513C195.477 496.235 195.136 496.04 194.703 495.93C194.542 495.886 194.37 495.857 194.186 495.842C194.01 495.828 193.845 495.82 193.691 495.82H189.907V501.166ZM200.687 503.652V487.812H203.338V503.652H200.687ZM206.399 503.652V487.812H209.05V494.478H216.552V487.812H219.192V503.652H216.552V496.964H209.05V503.652H206.399ZM225.361 503.652L231.323 495.578L225.823 487.812H228.991L233.886 494.973V487.812H236.537V494.973L241.432 487.812H244.6L239.1 495.578L245.062 503.652H241.795L236.537 496.447V503.652H233.886V496.447L228.639 503.652H225.361ZM245.711 503.652L250.705 487.812H254.588L259.582 503.652H256.854L252.322 489.44H252.916L248.439 503.652H245.711ZM248.494 500.22V497.745H256.81V500.22H248.494ZM261.571 503.652V487.812H264.222V501.166H269.117V487.812H271.768V501.166H276.674V487.812H279.314V503.652H261.571ZM286.196 503.652V490.298H281.07V487.812H293.973V490.298H288.847V503.652H286.196ZM294.202 503.652L299.196 487.812H303.079L308.073 503.652H305.345L300.813 489.44H301.407L296.93 503.652H294.202ZM296.985 500.22V497.745H305.301V500.22H296.985ZM310.061 503.652V487.812H316.606C316.76 487.812 316.958 487.82 317.2 487.834C317.442 487.842 317.666 487.864 317.871 487.9C318.788 488.04 319.543 488.344 320.137 488.813C320.739 489.283 321.182 489.877 321.468 490.595C321.762 491.307 321.908 492.099 321.908 492.971C321.908 493.837 321.762 494.629 321.468 495.347C321.175 496.059 320.728 496.649 320.126 497.118C319.532 497.588 318.781 497.892 317.871 498.031C317.666 498.061 317.439 498.083 317.189 498.097C316.947 498.112 316.753 498.119 316.606 498.119H312.712V503.652H310.061ZM312.712 495.644H316.496C316.643 495.644 316.808 495.637 316.991 495.622C317.175 495.608 317.343 495.578 317.497 495.534C317.937 495.424 318.282 495.23 318.531 494.951C318.788 494.673 318.968 494.357 319.07 494.005C319.18 493.653 319.235 493.309 319.235 492.971C319.235 492.634 319.18 492.289 319.07 491.937C318.968 491.578 318.788 491.259 318.531 490.98C318.282 490.702 317.937 490.507 317.497 490.397C317.343 490.353 317.175 490.328 316.991 490.32C316.808 490.306 316.643 490.298 316.496 490.298H312.712V495.644ZM335.216 503.982C333.632 503.982 332.275 503.638 331.146 502.948C330.016 502.252 329.147 501.284 328.539 500.044C327.937 498.805 327.637 497.368 327.637 495.732C327.637 494.097 327.937 492.66 328.539 491.42C329.147 490.181 330.016 489.217 331.146 488.527C332.275 487.831 333.632 487.482 335.216 487.482C336.8 487.482 338.156 487.831 339.286 488.527C340.422 489.217 341.291 490.181 341.893 491.42C342.501 492.66 342.806 494.097 342.806 495.732C342.806 497.368 342.501 498.805 341.893 500.044C341.291 501.284 340.422 502.252 339.286 502.948C338.156 503.638 336.8 503.982 335.216 503.982ZM335.216 501.485C336.279 501.493 337.163 501.258 337.867 500.781C338.578 500.305 339.11 499.634 339.462 498.768C339.821 497.903 340.001 496.891 340.001 495.732C340.001 494.574 339.821 493.569 339.462 492.718C339.11 491.86 338.578 491.193 337.867 490.716C337.163 490.24 336.279 489.994 335.216 489.979C334.152 489.972 333.269 490.207 332.565 490.683C331.861 491.16 331.329 491.831 330.97 492.696C330.618 493.562 330.442 494.574 330.442 495.732C330.442 496.891 330.618 497.899 330.97 498.757C331.322 499.608 331.85 500.272 332.554 500.748C333.265 501.225 334.152 501.471 335.216 501.485ZM344.995 503.652V487.812H351.54C351.694 487.812 351.892 487.82 352.134 487.834C352.376 487.842 352.6 487.864 352.805 487.9C353.722 488.04 354.477 488.344 355.071 488.813C355.672 489.283 356.116 489.877 356.402 490.595C356.695 491.307 356.842 492.099 356.842 492.971C356.842 493.837 356.695 494.629 356.402 495.347C356.109 496.059 355.661 496.649 355.06 497.118C354.466 497.588 353.714 497.892 352.805 498.031C352.6 498.061 352.372 498.083 352.123 498.097C351.881 498.112 351.687 498.119 351.54 498.119H347.646V503.652H344.995ZM347.646 495.644H351.43C351.577 495.644 351.742 495.637 351.925 495.622C352.108 495.608 352.277 495.578 352.431 495.534C352.871 495.424 353.216 495.23 353.465 494.951C353.722 494.673 353.901 494.357 354.004 494.005C354.114 493.653 354.169 493.309 354.169 492.971C354.169 492.634 354.114 492.289 354.004 491.937C353.901 491.578 353.722 491.259 353.465 490.98C353.216 490.702 352.871 490.507 352.431 490.397C352.277 490.353 352.108 490.328 351.925 490.32C351.742 490.306 351.577 490.298 351.43 490.298H347.646V495.644ZM357.103 506.292V501.166C357.616 501.166 358.045 501.038 358.39 500.781C358.735 500.525 359.01 500.169 359.215 499.714C359.428 499.26 359.593 498.732 359.71 498.13C359.827 497.522 359.919 496.876 359.985 496.194C360.066 495.292 360.135 494.409 360.194 493.543C360.253 492.671 360.308 491.769 360.359 490.837C360.418 489.899 360.484 488.883 360.557 487.79L370.886 487.812V501.166H372.074V506.292H369.434V503.652H359.754V506.292H357.103ZM361.228 501.166H368.235V490.298L362.977 490.276C362.926 491.046 362.882 491.765 362.845 492.432C362.816 493.092 362.775 493.763 362.724 494.445C362.68 495.127 362.618 495.872 362.537 496.678C362.464 497.47 362.383 498.13 362.295 498.658C362.214 499.186 362.093 499.645 361.932 500.033C361.771 500.415 361.536 500.792 361.228 501.166ZM381.192 503.982C379.608 503.982 378.251 503.638 377.122 502.948C375.993 502.252 375.124 501.284 374.515 500.044C373.914 498.805 373.613 497.368 373.613 495.732C373.613 494.097 373.914 492.66 374.515 491.42C375.124 490.181 375.993 489.217 377.122 488.527C378.251 487.831 379.608 487.482 381.192 487.482C382.776 487.482 384.133 487.831 385.262 488.527C386.399 489.217 387.268 490.181 387.869 491.42C388.478 492.66 388.782 494.097 388.782 495.732C388.782 497.368 388.478 498.805 387.869 500.044C387.268 501.284 386.399 502.252 385.262 502.948C384.133 503.638 382.776 503.982 381.192 503.982ZM381.192 501.485C382.255 501.493 383.139 501.258 383.843 500.781C384.554 500.305 385.086 499.634 385.438 498.768C385.797 497.903 385.977 496.891 385.977 495.732C385.977 494.574 385.797 493.569 385.438 492.718C385.086 491.86 384.554 491.193 383.843 490.716C383.139 490.24 382.255 489.994 381.192 489.979C380.129 489.972 379.245 490.207 378.541 490.683C377.837 491.16 377.305 491.831 376.946 492.696C376.594 493.562 376.418 494.574 376.418 495.732C376.418 496.891 376.594 497.899 376.946 498.757C377.298 499.608 377.826 500.272 378.53 500.748C379.241 501.225 380.129 501.471 381.192 501.485ZM397.671 503.982C396.087 503.982 394.73 503.638 393.601 502.948C392.471 502.252 391.602 501.284 390.994 500.044C390.392 498.805 390.092 497.368 390.092 495.732C390.092 494.097 390.392 492.66 390.994 491.42C391.602 490.181 392.471 489.217 393.601 488.527C394.73 487.831 396.087 487.482 397.671 487.482C399.497 487.482 401.018 487.941 402.236 488.857C403.453 489.767 404.307 490.995 404.799 492.542L402.126 493.279C401.818 492.245 401.293 491.439 400.553 490.859C399.812 490.273 398.851 489.979 397.671 489.979C396.607 489.979 395.72 490.218 395.009 490.694C394.305 491.171 393.773 491.842 393.414 492.707C393.062 493.565 392.882 494.574 392.875 495.732C392.875 496.891 393.051 497.903 393.403 498.768C393.762 499.626 394.297 500.294 395.009 500.77C395.72 501.247 396.607 501.485 397.671 501.485C398.851 501.485 399.812 501.192 400.553 500.605C401.293 500.019 401.818 499.212 402.126 498.185L404.799 498.922C404.307 500.47 403.453 501.702 402.236 502.618C401.018 503.528 399.497 503.982 397.671 503.982ZM408.638 503.652L410.728 499.384L405.261 487.812H408.253L412.114 496.59L416.096 487.812H418.923L411.465 503.652H408.638ZM421.788 500.605L420.369 499.494L423.372 495.732L420.369 491.97L421.788 490.859L425.66 495.732L421.788 500.605ZM426.276 500.605L424.868 499.494L427.86 495.732L424.868 491.97L426.276 490.859L430.148 495.732L426.276 500.605ZM169.339 533.652V517.812H179.932V520.298H171.99V523.708H175.884C176.03 523.708 176.225 523.716 176.467 523.73C176.716 523.738 176.943 523.752 177.149 523.774C178.036 523.877 178.777 524.159 179.371 524.621C179.972 525.083 180.423 525.666 180.724 526.37C181.032 527.074 181.186 527.844 181.186 528.68C181.186 529.516 181.035 530.29 180.735 531.001C180.434 531.705 179.983 532.288 179.382 532.75C178.788 533.205 178.043 533.484 177.149 533.586C176.943 533.608 176.72 533.627 176.478 533.641C176.236 533.649 176.038 533.652 175.884 533.652H169.339ZM171.99 531.166H175.774C175.92 531.166 176.085 531.159 176.269 531.144C176.452 531.13 176.621 531.108 176.775 531.078C177.435 530.939 177.889 530.631 178.139 530.154C178.388 529.678 178.513 529.186 178.513 528.68C178.513 528.167 178.388 527.676 178.139 527.206C177.889 526.73 177.435 526.422 176.775 526.282C176.621 526.246 176.452 526.224 176.269 526.216C176.085 526.202 175.92 526.194 175.774 526.194H171.99V531.166ZM183.39 533.652V517.812H193.62V520.298H186.041V524.203H192.3V526.689H186.041V531.166H193.62V533.652H183.39ZM196.259 533.652V517.812H198.943V528.977L206.291 517.812H208.975V533.652H206.291V522.487L198.943 533.652H196.259ZM202.606 516.47C201.99 516.47 201.429 516.32 200.923 516.019C200.424 515.719 200.024 515.319 199.724 514.82C199.423 514.314 199.273 513.753 199.273 513.137H201.341C201.341 513.489 201.462 513.79 201.704 514.039C201.953 514.281 202.254 514.402 202.606 514.402C202.958 514.402 203.255 514.281 203.497 514.039C203.746 513.79 203.871 513.489 203.871 513.137H205.939C205.939 513.753 205.788 514.314 205.488 514.82C205.187 515.319 204.784 515.719 204.278 516.019C203.772 516.32 203.214 516.47 202.606 516.47ZM213.403 527.052V524.412H224.37V527.052H213.403ZM218.749 533.982C217.165 533.982 215.808 533.638 214.679 532.948C213.549 532.252 212.68 531.284 212.072 530.044C211.47 528.805 211.17 527.368 211.17 525.732C211.17 524.097 211.47 522.66 212.072 521.42C212.68 520.181 213.549 519.217 214.679 518.527C215.808 517.831 217.165 517.482 218.749 517.482C220.333 517.482 221.689 517.831 222.819 518.527C223.955 519.217 224.824 520.181 225.426 521.42C226.034 522.66 226.339 524.097 226.339 525.732C226.339 527.368 226.034 528.805 225.426 530.044C224.824 531.284 223.955 532.252 222.819 532.948C221.689 533.638 220.333 533.982 218.749 533.982ZM218.749 531.485C219.812 531.493 220.696 531.258 221.4 530.781C222.111 530.305 222.643 529.634 222.995 528.768C223.354 527.903 223.534 526.891 223.534 525.732C223.534 524.574 223.354 523.569 222.995 522.718C222.643 521.86 222.111 521.193 221.4 520.716C220.696 520.24 219.812 519.994 218.749 519.979C217.685 519.972 216.802 520.207 216.098 520.683C215.394 521.16 214.862 521.831 214.503 522.696C214.151 523.562 213.975 524.574 213.975 525.732C213.975 526.891 214.151 527.899 214.503 528.757C214.855 529.608 215.383 530.272 216.087 530.748C216.798 531.225 217.685 531.471 218.749 531.485ZM228.979 533.652V517.812H231.63V525.16L237.955 517.812H241.211L234.402 525.578L241.673 533.652H238.307L231.63 526.26V533.652H228.979ZM243.224 533.652V517.812H245.611L251.089 529.032L256.567 517.812H258.954V533.652H256.479V523.499L251.617 533.652H250.561L245.71 523.499V533.652H243.224ZM263.397 527.052V524.412H274.364V527.052H263.397ZM268.743 533.982C267.159 533.982 265.802 533.638 264.673 532.948C263.544 532.252 262.675 531.284 262.066 530.044C261.465 528.805 261.164 527.368 261.164 525.732C261.164 524.097 261.465 522.66 262.066 521.42C262.675 520.181 263.544 519.217 264.673 518.527C265.802 517.831 267.159 517.482 268.743 517.482C270.327 517.482 271.684 517.831 272.813 518.527C273.95 519.217 274.819 520.181 275.42 521.42C276.029 522.66 276.333 524.097 276.333 525.732C276.333 527.368 276.029 528.805 275.42 530.044C274.819 531.284 273.95 532.252 272.813 532.948C271.684 533.638 270.327 533.982 268.743 533.982ZM268.743 531.485C269.806 531.493 270.69 531.258 271.394 530.781C272.105 530.305 272.637 529.634 272.989 528.768C273.348 527.903 273.528 526.891 273.528 525.732C273.528 524.574 273.348 523.569 272.989 522.718C272.637 521.86 272.105 521.193 271.394 520.716C270.69 520.24 269.806 519.994 268.743 519.979C267.68 519.972 266.796 520.207 266.092 520.683C265.388 521.16 264.856 521.831 264.497 522.696C264.145 523.562 263.969 524.574 263.969 525.732C263.969 526.891 264.145 527.899 264.497 528.757C264.849 529.608 265.377 530.272 266.081 530.748C266.792 531.225 267.68 531.471 268.743 531.485ZM282.35 533.652V520.298H277.224V517.812H290.127V520.298H285.001V533.652H282.35ZM297.714 533.652L299.804 529.384L294.337 517.812H297.329L301.19 526.59L305.172 517.812H307.999L300.541 533.652H297.714ZM309.632 533.652V517.812H312.283V524.412H315.341V527.052H312.283V533.652H309.632ZM321.578 533.982C320.529 533.982 319.59 533.788 318.762 533.399C317.94 533.011 317.244 532.453 316.672 531.727C316.1 531.001 315.663 530.132 315.363 529.12C315.062 528.101 314.912 526.972 314.912 525.732C314.912 524.486 315.062 523.356 315.363 522.344C315.663 521.332 316.1 520.463 316.672 519.737C317.244 519.011 317.94 518.454 318.762 518.065C319.59 517.677 320.529 517.482 321.578 517.482C322.626 517.482 323.565 517.677 324.394 518.065C325.222 518.454 325.923 519.011 326.495 519.737C327.067 520.463 327.503 521.332 327.804 522.344C328.104 523.356 328.255 524.486 328.255 525.732C328.255 526.986 328.104 528.119 327.804 529.131C327.503 530.143 327.067 531.012 326.495 531.738C325.923 532.464 325.222 533.022 324.394 533.41C323.565 533.792 322.626 533.982 321.578 533.982ZM321.578 531.485C322.238 531.485 322.81 531.346 323.294 531.067C323.778 530.781 324.177 530.382 324.493 529.868C324.808 529.348 325.046 528.739 325.208 528.042C325.369 527.338 325.45 526.568 325.45 525.732C325.45 524.896 325.369 524.13 325.208 523.433C325.054 522.729 324.819 522.121 324.504 521.607C324.188 521.094 323.785 520.698 323.294 520.419C322.81 520.133 322.238 519.99 321.578 519.99C320.925 519.99 320.357 520.133 319.873 520.419C319.389 520.698 318.985 521.094 318.663 521.607C318.347 522.121 318.109 522.729 317.948 523.433C317.794 524.13 317.717 524.896 317.717 525.732C317.717 526.568 317.794 527.338 317.948 528.042C318.109 528.739 318.347 529.348 318.663 529.868C318.978 530.382 319.378 530.781 319.862 531.067C320.353 531.346 320.925 531.485 321.578 531.485ZM330.45 533.652V517.812H332.837L338.315 529.032L343.793 517.812H346.18V533.652H343.705V523.499L338.843 533.652H337.787L332.936 523.499V533.652H330.45ZM351.36 533.652L353.45 529.384L347.983 517.812H350.975L354.836 526.59L358.818 517.812H361.645L354.187 533.652H351.36Z" fill="#222222"/>
<path d="M528.28 273.605L524.408 268.732L528.28 263.859L529.699 264.97L526.707 268.732L529.699 272.494L528.28 273.605ZM523.792 273.605L519.92 268.732L523.792 263.859L525.211 264.97L522.208 268.732L525.211 272.494L523.792 273.605ZM531.491 276.652L536.485 260.812H540.368L545.362 276.652H542.634L538.102 262.44H538.696L534.219 276.652H531.491ZM534.274 273.22V270.745H542.59V273.22H534.274ZM547.351 276.652V260.812H550.002V268.16L556.327 260.812H559.583L552.774 268.578L560.045 276.652H556.679L550.002 269.26V276.652H547.351ZM565.401 276.652V263.298H560.275V260.812H573.178V263.298H568.052V276.652H565.401ZM587.652 276.652H584.968V265.487L577.62 276.652H574.936V260.812H577.62V271.977L584.968 260.812H587.652V276.652ZM590.728 276.652V260.812H597.009C598.079 260.812 598.956 261.029 599.638 261.461C600.327 261.887 600.837 262.433 601.167 263.1C601.504 263.768 601.673 264.457 601.673 265.168C601.673 266.041 601.464 266.782 601.046 267.39C600.635 267.999 600.074 268.41 599.363 268.622V268.072C600.36 268.3 601.115 268.773 601.629 269.491C602.149 270.21 602.41 271.028 602.41 271.944C602.41 272.883 602.23 273.704 601.87 274.408C601.511 275.112 600.976 275.662 600.265 276.058C599.561 276.454 598.688 276.652 597.647 276.652H590.728ZM593.412 274.155H597.317C597.779 274.155 598.193 274.064 598.56 273.88C598.926 273.69 599.212 273.426 599.418 273.088C599.63 272.744 599.737 272.337 599.737 271.867C599.737 271.442 599.645 271.061 599.462 270.723C599.278 270.386 599.011 270.118 598.659 269.92C598.307 269.715 597.885 269.612 597.394 269.612H593.412V274.155ZM593.412 267.137H596.976C597.357 267.137 597.698 267.064 597.999 266.917C598.299 266.771 598.538 266.554 598.714 266.268C598.89 265.982 598.978 265.63 598.978 265.212C598.978 264.662 598.802 264.204 598.45 263.837C598.098 263.471 597.606 263.287 596.976 263.287H593.412V267.137ZM603.759 279.292V274.166C604.273 274.166 604.702 274.038 605.046 273.781C605.391 273.525 605.666 273.169 605.871 272.714C606.084 272.26 606.249 271.732 606.366 271.13C606.484 270.522 606.575 269.876 606.641 269.194C606.722 268.292 606.792 267.409 606.85 266.543C606.909 265.671 606.964 264.769 607.015 263.837C607.074 262.899 607.14 261.883 607.213 260.79L617.542 260.812V274.166H618.73V279.292H616.09V276.652H606.41V279.292H603.759ZM607.884 274.166H614.891V263.298L609.633 263.276C609.582 264.046 609.538 264.765 609.501 265.432C609.472 266.092 609.432 266.763 609.38 267.445C609.336 268.127 609.274 268.872 609.193 269.678C609.12 270.47 609.039 271.13 608.951 271.658C608.871 272.186 608.75 272.645 608.588 273.033C608.427 273.415 608.192 273.792 607.884 274.166ZM624.999 276.652V270.162L619.609 260.812H622.7L626.341 267.126L629.971 260.812H633.062L627.683 270.162V276.652H624.999ZM639.136 276.652V270.162L633.746 260.812H636.837L640.478 267.126L644.108 260.812H647.199L641.82 270.162V276.652H639.136ZM652.259 276.652V260.812H658.54C659.61 260.812 660.487 261.029 661.169 261.461C661.858 261.887 662.368 262.433 662.698 263.1C663.035 263.768 663.204 264.457 663.204 265.168C663.204 266.041 662.995 266.782 662.577 267.39C662.166 267.999 661.605 268.41 660.894 268.622V268.072C661.891 268.3 662.646 268.773 663.16 269.491C663.68 270.21 663.941 271.028 663.941 271.944C663.941 272.883 663.761 273.704 663.402 274.408C663.042 275.112 662.507 275.662 661.796 276.058C661.092 276.454 660.219 276.652 659.178 276.652H652.259ZM654.943 274.155H658.848C659.31 274.155 659.724 274.064 660.091 273.88C660.457 273.69 660.743 273.426 660.949 273.088C661.161 272.744 661.268 272.337 661.268 271.867C661.268 271.442 661.176 271.061 660.993 270.723C660.809 270.386 660.542 270.118 660.19 269.92C659.838 269.715 659.416 269.612 658.925 269.612H654.943V274.155ZM654.943 267.137H658.507C658.888 267.137 659.229 267.064 659.53 266.917C659.83 266.771 660.069 266.554 660.245 266.268C660.421 265.982 660.509 265.63 660.509 265.212C660.509 264.662 660.333 264.204 659.981 263.837C659.629 263.471 659.137 263.287 658.507 263.287H654.943V267.137ZM672.837 276.982C671.253 276.982 669.896 276.638 668.767 275.948C667.637 275.252 666.768 274.284 666.16 273.044C665.558 271.805 665.258 270.368 665.258 268.732C665.258 267.097 665.558 265.66 666.16 264.42C666.768 263.181 667.637 262.217 668.767 261.527C669.896 260.831 671.253 260.482 672.837 260.482C674.421 260.482 675.777 260.831 676.907 261.527C678.043 262.217 678.912 263.181 679.514 264.42C680.122 265.66 680.427 267.097 680.427 268.732C680.427 270.368 680.122 271.805 679.514 273.044C678.912 274.284 678.043 275.252 676.907 275.948C675.777 276.638 674.421 276.982 672.837 276.982ZM672.837 274.485C673.9 274.493 674.784 274.258 675.488 273.781C676.199 273.305 676.731 272.634 677.083 271.768C677.442 270.903 677.622 269.891 677.622 268.732C677.622 267.574 677.442 266.569 677.083 265.718C676.731 264.86 676.199 264.193 675.488 263.716C674.784 263.24 673.9 262.994 672.837 262.979C671.773 262.972 670.89 263.207 670.186 263.683C669.482 264.16 668.95 264.831 668.591 265.696C668.239 266.562 668.063 267.574 668.063 268.732C668.063 269.891 668.239 270.899 668.591 271.757C668.943 272.608 669.471 273.272 670.175 273.748C670.886 274.225 671.773 274.471 672.837 274.485ZM681.086 276.652V274.43C681.438 274.452 681.735 274.427 681.977 274.353C682.219 274.273 682.421 274.122 682.582 273.902C682.751 273.675 682.898 273.356 683.022 272.945C683.147 272.527 683.268 272.003 683.385 271.372C683.554 270.47 683.693 269.532 683.803 268.556C683.921 267.574 684.02 266.609 684.1 265.663C684.181 264.71 684.243 263.815 684.287 262.979C684.331 262.143 684.368 261.421 684.397 260.812H695.001V276.652H692.35V263.298H686.85C686.814 263.79 686.77 264.384 686.718 265.08C686.674 265.77 686.612 266.518 686.531 267.324C686.458 268.131 686.363 268.967 686.245 269.832C686.135 270.698 686 271.548 685.838 272.384C685.692 273.147 685.516 273.833 685.31 274.441C685.105 275.043 684.83 275.541 684.485 275.937C684.148 276.326 683.704 276.586 683.154 276.718C682.612 276.85 681.922 276.828 681.086 276.652ZM704.784 276.982C703.2 276.982 701.843 276.638 700.714 275.948C699.585 275.252 698.716 274.284 698.107 273.044C697.506 271.805 697.205 270.368 697.205 268.732C697.205 267.097 697.506 265.66 698.107 264.42C698.716 263.181 699.585 262.217 700.714 261.527C701.843 260.831 703.2 260.482 704.784 260.482C706.368 260.482 707.725 260.831 708.854 261.527C709.991 262.217 710.86 263.181 711.461 264.42C712.07 265.66 712.374 267.097 712.374 268.732C712.374 270.368 712.07 271.805 711.461 273.044C710.86 274.284 709.991 275.252 708.854 275.948C707.725 276.638 706.368 276.982 704.784 276.982ZM704.784 274.485C705.847 274.493 706.731 274.258 707.435 273.781C708.146 273.305 708.678 272.634 709.03 271.768C709.389 270.903 709.569 269.891 709.569 268.732C709.569 267.574 709.389 266.569 709.03 265.718C708.678 264.86 708.146 264.193 707.435 263.716C706.731 263.24 705.847 262.994 704.784 262.979C703.721 262.972 702.837 263.207 702.133 263.683C701.429 264.16 700.897 264.831 700.538 265.696C700.186 266.562 700.01 267.574 700.01 268.732C700.01 269.891 700.186 270.899 700.538 271.757C700.89 272.608 701.418 273.272 702.122 273.748C702.833 274.225 703.721 274.471 704.784 274.485ZM714.563 276.652V260.812H717.214V267.478H724.716V260.812H727.356V276.652H724.716V269.964H717.214V276.652H714.563ZM734.246 276.652V263.298H729.12V260.812H742.023V263.298H736.897V276.652H734.246ZM743.782 276.652V260.812H754.012V263.298H746.433V267.203H752.692V269.689H746.433V274.166H754.012V276.652H743.782ZM756.651 276.652V260.812H763.196C763.35 260.812 763.548 260.82 763.79 260.834C764.032 260.842 764.256 260.864 764.461 260.9C765.378 261.04 766.133 261.344 766.727 261.813C767.329 262.283 767.772 262.877 768.058 263.595C768.352 264.307 768.498 265.099 768.498 265.971C768.498 266.837 768.352 267.629 768.058 268.347C767.765 269.059 767.318 269.649 766.716 270.118C766.122 270.588 765.371 270.892 764.461 271.031C764.256 271.061 764.029 271.083 763.779 271.097C763.537 271.112 763.343 271.119 763.196 271.119H759.302V276.652H756.651ZM759.302 268.644H763.086C763.233 268.644 763.398 268.637 763.581 268.622C763.765 268.608 763.933 268.578 764.087 268.534C764.527 268.424 764.872 268.23 765.121 267.951C765.378 267.673 765.558 267.357 765.66 267.005C765.77 266.653 765.825 266.309 765.825 265.971C765.825 265.634 765.77 265.289 765.66 264.937C765.558 264.578 765.378 264.259 765.121 263.98C764.872 263.702 764.527 263.507 764.087 263.397C763.933 263.353 763.765 263.328 763.581 263.32C763.398 263.306 763.233 263.298 763.086 263.298H759.302V268.644ZM768.506 276.652V274.43C768.858 274.452 769.155 274.427 769.397 274.353C769.639 274.273 769.841 274.122 770.002 273.902C770.171 273.675 770.318 273.356 770.442 272.945C770.567 272.527 770.688 272.003 770.805 271.372C770.974 270.47 771.113 269.532 771.223 268.556C771.341 267.574 771.44 266.609 771.52 265.663C771.601 264.71 771.663 263.815 771.707 262.979C771.751 262.143 771.788 261.421 771.817 260.812H782.421V276.652H779.77V263.298H774.27C774.234 263.79 774.19 264.384 774.138 265.08C774.094 265.77 774.032 266.518 773.951 267.324C773.878 268.131 773.783 268.967 773.665 269.832C773.555 270.698 773.42 271.548 773.258 272.384C773.112 273.147 772.936 273.833 772.73 274.441C772.525 275.043 772.25 275.541 771.905 275.937C771.568 276.326 771.124 276.586 770.574 276.718C770.032 276.85 769.342 276.828 768.506 276.652ZM792.204 276.982C790.62 276.982 789.263 276.638 788.134 275.948C787.005 275.252 786.136 274.284 785.527 273.044C784.926 271.805 784.625 270.368 784.625 268.732C784.625 267.097 784.926 265.66 785.527 264.42C786.136 263.181 787.005 262.217 788.134 261.527C789.263 260.831 790.62 260.482 792.204 260.482C793.788 260.482 795.145 260.831 796.274 261.527C797.411 262.217 798.28 263.181 798.881 264.42C799.49 265.66 799.794 267.097 799.794 268.732C799.794 270.368 799.49 271.805 798.881 273.044C798.28 274.284 797.411 275.252 796.274 275.948C795.145 276.638 793.788 276.982 792.204 276.982ZM792.204 274.485C793.267 274.493 794.151 274.258 794.855 273.781C795.566 273.305 796.098 272.634 796.45 271.768C796.809 270.903 796.989 269.891 796.989 268.732C796.989 267.574 796.809 266.569 796.45 265.718C796.098 264.86 795.566 264.193 794.855 263.716C794.151 263.24 793.267 262.994 792.204 262.979C791.141 262.972 790.257 263.207 789.553 263.683C788.849 264.16 788.317 264.831 787.958 265.696C787.606 266.562 787.43 267.574 787.43 268.732C787.43 269.891 787.606 270.899 787.958 271.757C788.31 272.608 788.838 273.272 789.542 273.748C790.253 274.225 791.141 274.471 792.204 274.485ZM801.983 276.652V260.812H808.528C808.682 260.812 808.88 260.82 809.122 260.834C809.364 260.842 809.588 260.864 809.793 260.9C810.71 261.04 811.465 261.344 812.059 261.813C812.661 262.283 813.104 262.877 813.39 263.595C813.684 264.307 813.83 265.099 813.83 265.971C813.83 266.837 813.684 267.629 813.39 268.347C813.097 269.059 812.65 269.649 812.048 270.118C811.454 270.588 810.703 270.892 809.793 271.031C809.588 271.061 809.361 271.083 809.111 271.097C808.869 271.112 808.675 271.119 808.528 271.119H804.634V276.652H801.983ZM804.634 268.644H808.418C808.565 268.644 808.73 268.637 808.913 268.622C809.097 268.608 809.265 268.578 809.419 268.534C809.859 268.424 810.204 268.23 810.453 267.951C810.71 267.673 810.89 267.357 810.992 267.005C811.102 266.653 811.157 266.309 811.157 265.971C811.157 265.634 811.102 265.289 810.992 264.937C810.89 264.578 810.71 264.259 810.453 263.98C810.204 263.702 809.859 263.507 809.419 263.397C809.265 263.353 809.097 263.328 808.913 263.32C808.73 263.306 808.565 263.298 808.418 263.298H804.634V268.644ZM817.266 273.605L815.847 272.494L818.85 268.732L815.847 264.97L817.266 263.859L821.138 268.732L817.266 273.605ZM821.754 273.605L820.346 272.494L823.338 268.732L820.346 264.97L821.754 263.859L825.626 268.732L821.754 273.605ZM572.552 306.652V290.812H583.145V293.298H575.203V296.708H579.097C579.243 296.708 579.438 296.716 579.68 296.73C579.929 296.738 580.156 296.752 580.362 296.774C581.249 296.877 581.99 297.159 582.584 297.621C583.185 298.083 583.636 298.666 583.937 299.37C584.245 300.074 584.399 300.844 584.399 301.68C584.399 302.516 584.248 303.29 583.948 304.001C583.647 304.705 583.196 305.288 582.595 305.75C582.001 306.205 581.256 306.484 580.362 306.586C580.156 306.608 579.933 306.627 579.691 306.641C579.449 306.649 579.251 306.652 579.097 306.652H572.552ZM575.203 304.166H578.987C579.133 304.166 579.298 304.159 579.482 304.144C579.665 304.13 579.834 304.108 579.988 304.078C580.648 303.939 581.102 303.631 581.352 303.154C581.601 302.678 581.726 302.186 581.726 301.68C581.726 301.167 581.601 300.676 581.352 300.206C581.102 299.73 580.648 299.422 579.988 299.282C579.834 299.246 579.665 299.224 579.482 299.216C579.298 299.202 579.133 299.194 578.987 299.194H575.203V304.166ZM586.603 306.652V290.812H596.833V293.298H589.254V297.203H595.513V299.689H589.254V304.166H596.833V306.652H586.603ZM599.472 306.652V290.812H602.156V301.977L609.504 290.812H612.188V306.652H609.504V295.487L602.156 306.652H599.472ZM605.819 289.47C605.203 289.47 604.642 289.32 604.136 289.019C603.637 288.719 603.237 288.319 602.937 287.82C602.636 287.314 602.486 286.753 602.486 286.137H604.554C604.554 286.489 604.675 286.79 604.917 287.039C605.166 287.281 605.467 287.402 605.819 287.402C606.171 287.402 606.468 287.281 606.71 287.039C606.959 286.79 607.084 286.489 607.084 286.137H609.152C609.152 286.753 609.001 287.314 608.701 287.82C608.4 288.319 607.997 288.719 607.491 289.019C606.985 289.32 606.427 289.47 605.819 289.47ZM616.616 300.052V297.412H627.583V300.052H616.616ZM621.962 306.982C620.378 306.982 619.021 306.638 617.892 305.948C616.762 305.252 615.893 304.284 615.285 303.044C614.683 301.805 614.383 300.368 614.383 298.732C614.383 297.097 614.683 295.66 615.285 294.42C615.893 293.181 616.762 292.217 617.892 291.527C619.021 290.831 620.378 290.482 621.962 290.482C623.546 290.482 624.902 290.831 626.032 291.527C627.168 292.217 628.037 293.181 628.639 294.42C629.247 295.66 629.552 297.097 629.552 298.732C629.552 300.368 629.247 301.805 628.639 303.044C628.037 304.284 627.168 305.252 626.032 305.948C624.902 306.638 623.546 306.982 621.962 306.982ZM621.962 304.485C623.025 304.493 623.909 304.258 624.613 303.781C625.324 303.305 625.856 302.634 626.208 301.768C626.567 300.903 626.747 299.891 626.747 298.732C626.747 297.574 626.567 296.569 626.208 295.718C625.856 294.86 625.324 294.193 624.613 293.716C623.909 293.24 623.025 292.994 621.962 292.979C620.898 292.972 620.015 293.207 619.311 293.683C618.607 294.16 618.075 294.831 617.716 295.696C617.364 296.562 617.188 297.574 617.188 298.732C617.188 299.891 617.364 300.899 617.716 301.757C618.068 302.608 618.596 303.272 619.3 303.748C620.011 304.225 620.898 304.471 621.962 304.485ZM632.192 306.652V290.812H634.843V298.16L641.168 290.812H644.424L637.615 298.578L644.886 306.652H641.52L634.843 299.26V306.652H632.192ZM646.436 306.652V290.812H648.823L654.301 302.032L659.779 290.812H662.166V306.652H659.691V296.499L654.829 306.652H653.773L648.922 296.499V306.652H646.436ZM666.61 300.052V297.412H677.577V300.052H666.61ZM671.956 306.982C670.372 306.982 669.015 306.638 667.886 305.948C666.756 305.252 665.887 304.284 665.279 303.044C664.677 301.805 664.377 300.368 664.377 298.732C664.377 297.097 664.677 295.66 665.279 294.42C665.887 293.181 666.756 292.217 667.886 291.527C669.015 290.831 670.372 290.482 671.956 290.482C673.54 290.482 674.896 290.831 676.026 291.527C677.162 292.217 678.031 293.181 678.633 294.42C679.241 295.66 679.546 297.097 679.546 298.732C679.546 300.368 679.241 301.805 678.633 303.044C678.031 304.284 677.162 305.252 676.026 305.948C674.896 306.638 673.54 306.982 671.956 306.982ZM671.956 304.485C673.019 304.493 673.903 304.258 674.607 303.781C675.318 303.305 675.85 302.634 676.202 301.768C676.561 300.903 676.741 299.891 676.741 298.732C676.741 297.574 676.561 296.569 676.202 295.718C675.85 294.86 675.318 294.193 674.607 293.716C673.903 293.24 673.019 292.994 671.956 292.979C670.892 292.972 670.009 293.207 669.305 293.683C668.601 294.16 668.069 294.831 667.71 295.696C667.358 296.562 667.182 297.574 667.182 298.732C667.182 299.891 667.358 300.899 667.71 301.757C668.062 302.608 668.59 303.272 669.294 303.748C670.005 304.225 670.892 304.471 671.956 304.485ZM685.563 306.652V293.298H680.437V290.812H693.34V293.298H688.214V306.652H685.563ZM700.927 306.652L703.017 302.384L697.55 290.812H700.542L704.403 299.59L708.385 290.812H711.212L703.754 306.652H700.927ZM712.845 306.652V290.812H715.496V297.412H718.554V300.052H715.496V306.652H712.845ZM724.791 306.982C723.742 306.982 722.803 306.788 721.975 306.399C721.153 306.011 720.457 305.453 719.885 304.727C719.313 304.001 718.876 303.132 718.576 302.12C718.275 301.101 718.125 299.972 718.125 298.732C718.125 297.486 718.275 296.356 718.576 295.344C718.876 294.332 719.313 293.463 719.885 292.737C720.457 292.011 721.153 291.454 721.975 291.065C722.803 290.677 723.742 290.482 724.791 290.482C725.839 290.482 726.778 290.677 727.607 291.065C728.435 291.454 729.136 292.011 729.708 292.737C730.28 293.463 730.716 294.332 731.017 295.344C731.317 296.356 731.468 297.486 731.468 298.732C731.468 299.986 731.317 301.119 731.017 302.131C730.716 303.143 730.28 304.012 729.708 304.738C729.136 305.464 728.435 306.022 727.607 306.41C726.778 306.792 725.839 306.982 724.791 306.982ZM724.791 304.485C725.451 304.485 726.023 304.346 726.507 304.067C726.991 303.781 727.39 303.382 727.706 302.868C728.021 302.348 728.259 301.739 728.421 301.042C728.582 300.338 728.663 299.568 728.663 298.732C728.663 297.896 728.582 297.13 728.421 296.433C728.267 295.729 728.032 295.121 727.717 294.607C727.401 294.094 726.998 293.698 726.507 293.419C726.023 293.133 725.451 292.99 724.791 292.99C724.138 292.99 723.57 293.133 723.086 293.419C722.602 293.698 722.198 294.094 721.876 294.607C721.56 295.121 721.322 295.729 721.161 296.433C721.007 297.13 720.93 297.896 720.93 298.732C720.93 299.568 721.007 300.338 721.161 301.042C721.322 301.739 721.56 302.348 721.876 302.868C722.191 303.382 722.591 303.781 723.075 304.067C723.566 304.346 724.138 304.485 724.791 304.485ZM733.663 306.652V290.812H736.05L741.528 302.032L747.006 290.812H749.393V306.652H746.918V296.499L742.056 306.652H741L736.149 296.499V306.652H733.663ZM754.573 306.652L756.663 302.384L751.196 290.812H754.188L758.049 299.59L762.031 290.812H764.858L757.4 306.652H754.573Z" fill="#222222"/>
</svg>
