<svg width="945" height="684" viewBox="0 0 945 684" fill="none" xmlns="http://www.w3.org/2000/svg">
<path d="M52.6018 321.874C38.2391 283.637 52.336 238.764 86.8948 197.09C121.446 155.425 176.401 117.027 243.579 91.793C310.756 66.5595 377.401 59.2813 430.838 67.8955C484.287 76.5115 524.441 101.007 538.804 139.244C553.166 177.48 539.069 222.354 504.511 264.028C469.96 305.693 415.004 344.091 347.827 369.325C280.65 394.558 214.004 401.836 160.567 393.222C107.118 384.606 66.9644 360.11 52.6018 321.874Z" stroke="#161616" stroke-width="0.74302"/>
<path d="M538.439 353.533C555.267 389.052 546.889 432.464 519.615 473.977C492.344 515.485 446.214 555.035 387.68 582.769C329.146 610.502 269.323 621.152 219.93 615.967C170.529 610.782 131.628 589.771 114.799 554.253C97.9706 518.734 106.349 475.323 133.623 433.809C160.894 392.301 207.024 352.751 265.558 325.017C324.092 297.284 383.915 286.634 433.308 291.819C482.709 297.004 521.61 318.015 538.439 353.533Z" stroke="#161616" stroke-width="0.747693"/>
<path d="M402.62 348.615C388.168 310.14 402.353 264.986 437.127 223.052C471.894 181.128 527.192 142.49 594.788 117.099C662.384 91.708 729.445 84.3845 783.216 93.0524C836.998 101.722 877.402 126.371 891.855 164.846C906.307 203.32 892.122 248.474 857.348 290.408C822.581 332.333 767.283 370.971 699.687 396.362C632.09 421.752 565.029 429.076 511.259 420.408C457.477 411.738 417.072 387.09 402.62 348.615Z" stroke="#161616" stroke-width="0.747654"/>
<rect x="380.16" y="117.652" width="56" height="56" rx="28" fill="#161616"/>
<path d="M402.798 156.042C401.585 156.042 400.501 155.769 399.548 155.223C398.603 154.669 397.854 153.919 397.299 152.974C396.753 152.021 396.48 150.938 396.48 149.724V142.86C396.48 141.647 396.753 140.564 397.299 139.61C397.854 138.657 398.603 137.907 399.548 137.361C400.501 136.815 401.585 136.542 402.798 136.542C404.011 136.542 405.095 136.815 406.048 137.361C407.001 137.907 407.751 138.657 408.297 139.61C408.843 140.564 409.116 141.647 409.116 142.86V149.724C409.116 150.938 408.843 152.021 408.297 152.974C407.751 153.919 407.001 154.669 406.048 155.223C405.095 155.769 404.011 156.042 402.798 156.042ZM402.798 153.819C403.535 153.819 404.202 153.642 404.8 153.286C405.398 152.931 405.875 152.454 406.23 151.856C406.585 151.25 406.763 150.582 406.763 149.854V142.717C406.763 141.981 406.585 141.313 406.23 140.715C405.875 140.117 405.398 139.641 404.8 139.285C404.202 138.93 403.535 138.752 402.798 138.752C402.07 138.752 401.403 138.93 400.796 139.285C400.198 139.641 399.721 140.117 399.366 140.715C399.011 141.313 398.833 141.981 398.833 142.717V149.854C398.833 150.582 399.011 151.25 399.366 151.856C399.721 152.454 400.198 152.931 400.796 153.286C401.403 153.642 402.07 153.819 402.798 153.819ZM416.019 155.652V139.493L412.496 141.625V139.038L416.019 136.932H418.372V155.652H416.019Z" fill="white"/>
<rect x="336.742" y="393.652" width="56" height="56" rx="28" fill="#161616"/>
<path d="M357.38 432.042C356.167 432.042 355.084 431.769 354.13 431.223C353.186 430.669 352.436 429.919 351.881 428.974C351.335 428.021 351.062 426.938 351.062 425.724V418.86C351.062 417.647 351.335 416.564 351.881 415.61C352.436 414.657 353.186 413.907 354.13 413.361C355.084 412.815 356.167 412.542 357.38 412.542C358.594 412.542 359.677 412.815 360.63 413.361C361.584 413.907 362.333 414.657 362.879 415.61C363.425 416.564 363.698 417.647 363.698 418.86V425.724C363.698 426.938 363.425 428.021 362.879 428.974C362.333 429.919 361.584 430.669 360.63 431.223C359.677 431.769 358.594 432.042 357.38 432.042ZM357.38 429.819C358.117 429.819 358.784 429.642 359.382 429.286C359.98 428.931 360.457 428.454 360.812 427.856C361.168 427.25 361.345 426.582 361.345 425.854V418.717C361.345 417.981 361.168 417.313 360.812 416.715C360.457 416.117 359.98 415.641 359.382 415.285C358.784 414.93 358.117 414.752 357.38 414.752C356.652 414.752 355.985 414.93 355.378 415.285C354.78 415.641 354.304 416.117 353.948 416.715C353.593 417.313 353.415 417.981 353.415 418.717V425.854C353.415 426.582 353.593 427.25 353.948 427.856C354.304 428.454 354.78 428.931 355.378 429.286C355.985 429.642 356.652 429.819 357.38 429.819ZM372.473 432.016C371.545 432.016 370.683 431.847 369.886 431.509C369.088 431.163 368.399 430.677 367.819 430.053C367.247 429.421 366.826 428.671 366.558 427.804L368.781 427.167C369.067 428.034 369.543 428.693 370.211 429.143C370.878 429.594 371.628 429.815 372.46 429.806C373.222 429.789 373.881 429.616 374.436 429.286C374.999 428.948 375.432 428.489 375.736 427.908C376.048 427.328 376.204 426.656 376.204 425.893C376.204 424.732 375.857 423.792 375.164 423.072C374.47 422.344 373.56 421.98 372.434 421.98C372.122 421.98 371.792 422.024 371.446 422.11C371.108 422.197 370.791 422.318 370.497 422.474L369.379 420.641L376.321 414.362L376.62 415.142H367.299V412.932H378.336V415.155L372.421 420.823L372.395 420.004C373.634 419.918 374.717 420.121 375.645 420.615C376.572 421.109 377.291 421.816 377.803 422.734C378.323 423.653 378.583 424.706 378.583 425.893C378.583 427.089 378.314 428.147 377.777 429.065C377.239 429.984 376.511 430.708 375.593 431.236C374.674 431.756 373.634 432.016 372.473 432.016Z" fill="white"/>
<rect x="700.16" y="160.652" width="56" height="56" rx="28" fill="#161616"/>
<path d="M720.298 199.042C719.085 199.042 718.001 198.769 717.048 198.223C716.103 197.669 715.354 196.919 714.799 195.974C714.253 195.021 713.98 193.938 713.98 192.724V185.86C713.98 184.647 714.253 183.564 714.799 182.61C715.354 181.657 716.103 180.907 717.048 180.361C718.001 179.815 719.085 179.542 720.298 179.542C721.511 179.542 722.595 179.815 723.548 180.361C724.501 180.907 725.251 181.657 725.797 182.61C726.343 183.564 726.616 184.647 726.616 185.86V192.724C726.616 193.938 726.343 195.021 725.797 195.974C725.251 196.919 724.501 197.669 723.548 198.223C722.595 198.769 721.511 199.042 720.298 199.042ZM720.298 196.819C721.035 196.819 721.702 196.642 722.3 196.286C722.898 195.931 723.375 195.454 723.73 194.856C724.085 194.25 724.263 193.582 724.263 192.854V185.717C724.263 184.981 724.085 184.313 723.73 183.715C723.375 183.117 722.898 182.641 722.3 182.285C721.702 181.93 721.035 181.752 720.298 181.752C719.57 181.752 718.903 181.93 718.296 182.285C717.698 182.641 717.221 183.117 716.866 183.715C716.511 184.313 716.333 184.981 716.333 185.717V192.854C716.333 193.582 716.511 194.25 716.866 194.856C717.221 195.454 717.698 195.931 718.296 196.286C718.903 196.642 719.57 196.819 720.298 196.819ZM729.736 198.639L729.749 196.559L738.056 189.084C738.749 188.46 739.213 187.871 739.447 187.316C739.689 186.753 739.811 186.177 739.811 185.587C739.811 184.868 739.646 184.218 739.317 183.637C738.987 183.057 738.537 182.597 737.965 182.259C737.401 181.921 736.76 181.752 736.041 181.752C735.295 181.752 734.632 181.93 734.052 182.285C733.471 182.632 733.012 183.096 732.674 183.676C732.344 184.257 732.184 184.89 732.193 185.574H729.827C729.827 184.396 730.1 183.356 730.646 182.454C731.192 181.544 731.933 180.834 732.869 180.322C733.813 179.802 734.884 179.542 736.08 179.542C737.241 179.542 738.281 179.811 739.2 180.348C740.118 180.877 740.842 181.601 741.371 182.519C741.908 183.429 742.177 184.461 742.177 185.613C742.177 186.428 742.073 187.134 741.865 187.732C741.665 188.33 741.353 188.885 740.929 189.396C740.504 189.899 739.971 190.436 739.33 191.008L732.427 197.209L732.128 196.429H742.177V198.639H729.736Z" fill="white"/>
<path d="M168.995 216.652V200.812H175.54C175.694 200.812 175.892 200.82 176.134 200.834C176.376 200.842 176.6 200.864 176.805 200.9C177.722 201.04 178.477 201.344 179.071 201.813C179.672 202.283 180.116 202.877 180.402 203.595C180.695 204.307 180.842 205.099 180.842 205.971C180.842 206.837 180.695 207.629 180.402 208.347C180.109 209.059 179.661 209.649 179.06 210.118C178.466 210.588 177.714 210.892 176.805 211.031C176.6 211.061 176.372 211.083 176.123 211.097C175.881 211.112 175.687 211.119 175.54 211.119H171.646V216.652H168.995ZM171.646 208.644H175.43C175.577 208.644 175.742 208.637 175.925 208.622C176.108 208.608 176.277 208.578 176.431 208.534C176.871 208.424 177.216 208.23 177.465 207.951C177.722 207.673 177.901 207.357 178.004 207.005C178.114 206.653 178.169 206.309 178.169 205.971C178.169 205.634 178.114 205.289 178.004 204.937C177.901 204.578 177.722 204.259 177.465 203.98C177.216 203.702 176.871 203.507 176.431 203.397C176.277 203.353 176.108 203.328 175.925 203.32C175.742 203.306 175.577 203.298 175.43 203.298H171.646V208.644ZM183.046 216.652V200.812H192.583V203.463H185.697V207.412H191.263V210.052H185.697V216.652H183.046ZM198.746 204.772V200.812H201.397V204.772H198.746ZM202.849 204.772V200.812H205.5V204.772H202.849ZM208.135 216.652L213.129 200.812H217.012L222.006 216.652H219.278L214.746 202.44H215.34L210.863 216.652H208.135ZM210.918 213.22V210.745H219.234V213.22H210.918ZM230.099 216.982C229.073 216.982 228.108 216.803 227.206 216.443C226.312 216.077 225.523 215.541 224.841 214.837C224.167 214.133 223.639 213.272 223.257 212.252C222.876 211.226 222.685 210.052 222.685 208.732C222.685 207.002 223.008 205.524 223.653 204.299C224.299 203.067 225.182 202.125 226.304 201.472C227.426 200.812 228.691 200.482 230.099 200.482C232.05 200.482 233.594 200.937 234.73 201.846C235.874 202.748 236.648 204.017 237.051 205.652L234.345 206.081C234.045 205.143 233.553 204.395 232.871 203.837C232.189 203.273 231.32 202.99 230.264 202.99C229.201 202.976 228.317 203.207 227.613 203.683C226.909 204.16 226.378 204.831 226.018 205.696C225.666 206.562 225.49 207.574 225.49 208.732C225.49 209.891 225.666 210.899 226.018 211.757C226.37 212.608 226.898 213.272 227.602 213.748C228.314 214.225 229.201 214.471 230.264 214.485C231.064 214.493 231.764 214.35 232.365 214.056C232.967 213.756 233.458 213.305 233.839 212.703C234.221 212.095 234.477 211.336 234.609 210.426H231.815V208.347H237.425C237.44 208.465 237.451 208.637 237.458 208.864C237.466 209.092 237.469 209.227 237.469 209.271C237.469 210.767 237.172 212.098 236.578 213.264C235.992 214.423 235.148 215.332 234.048 215.992C232.948 216.652 231.632 216.982 230.099 216.982ZM239.679 216.652V200.812H249.909V203.298H242.33V207.203H248.589V209.689H242.33V214.166H249.909V216.652H239.679ZM252.548 216.652V200.812H255.232L262.58 211.977V200.812H265.264V216.652H262.58L255.232 205.487V216.652H252.548ZM275.038 216.982C273.454 216.982 272.097 216.638 270.968 215.948C269.838 215.252 268.969 214.284 268.361 213.044C267.759 211.805 267.459 210.368 267.459 208.732C267.459 207.097 267.759 205.66 268.361 204.42C268.969 203.181 269.838 202.217 270.968 201.527C272.097 200.831 273.454 200.482 275.038 200.482C276.864 200.482 278.385 200.941 279.603 201.857C280.82 202.767 281.674 203.995 282.166 205.542L279.493 206.279C279.185 205.245 278.66 204.439 277.92 203.859C277.179 203.273 276.218 202.979 275.038 202.979C273.974 202.979 273.087 203.218 272.376 203.694C271.672 204.171 271.14 204.842 270.781 205.707C270.429 206.565 270.249 207.574 270.242 208.732C270.242 209.891 270.418 210.903 270.77 211.768C271.129 212.626 271.664 213.294 272.376 213.77C273.087 214.247 273.974 214.485 275.038 214.485C276.218 214.485 277.179 214.192 277.92 213.605C278.66 213.019 279.185 212.212 279.493 211.185L282.166 211.922C281.674 213.47 280.82 214.702 279.603 215.618C278.385 216.528 276.864 216.982 275.038 216.982ZM287.765 216.652V210.162L282.375 200.812H285.466L289.107 207.126L292.737 200.812H295.828L290.449 210.162V216.652H287.765ZM300.888 216.652V200.812H310.425V203.463H303.539V207.412H309.105V210.052H303.539V216.652H300.888ZM319.102 216.982C317.518 216.982 316.162 216.638 315.032 215.948C313.903 215.252 313.034 214.284 312.425 213.044C311.824 211.805 311.523 210.368 311.523 208.732C311.523 207.097 311.824 205.66 312.425 204.42C313.034 203.181 313.903 202.217 315.032 201.527C316.162 200.831 317.518 200.482 319.102 200.482C320.686 200.482 322.043 200.831 323.172 201.527C324.309 202.217 325.178 203.181 325.779 204.42C326.388 205.66 326.692 207.097 326.692 208.732C326.692 210.368 326.388 211.805 325.779 213.044C325.178 214.284 324.309 215.252 323.172 215.948C322.043 216.638 320.686 216.982 319.102 216.982ZM319.102 214.485C320.166 214.493 321.049 214.258 321.753 213.781C322.465 213.305 322.996 212.634 323.348 211.768C323.708 210.903 323.887 209.891 323.887 208.732C323.887 207.574 323.708 206.569 323.348 205.718C322.996 204.86 322.465 204.193 321.753 203.716C321.049 203.24 320.166 202.994 319.102 202.979C318.039 202.972 317.155 203.207 316.451 203.683C315.747 204.16 315.216 204.831 314.856 205.696C314.504 206.562 314.328 207.574 314.328 208.732C314.328 209.891 314.504 210.899 314.856 211.757C315.208 212.608 315.736 213.272 316.44 213.748C317.152 214.225 318.039 214.471 319.102 214.485ZM328.882 216.652V200.812H335.427C335.581 200.812 335.779 200.82 336.021 200.834C336.263 200.842 336.486 200.864 336.692 200.9C337.608 201.04 338.364 201.344 338.958 201.813C339.559 202.283 340.003 202.877 340.289 203.595C340.582 204.307 340.729 205.099 340.729 205.971C340.729 207.262 340.402 208.373 339.75 209.304C339.097 210.228 338.096 210.8 336.747 211.02L335.614 211.119H331.533V216.652H328.882ZM337.979 216.652L334.855 210.206L337.55 209.612L340.982 216.652H337.979ZM331.533 208.644H335.317C335.463 208.644 335.628 208.637 335.812 208.622C335.995 208.608 336.164 208.578 336.318 208.534C336.758 208.424 337.102 208.23 337.352 207.951C337.608 207.673 337.788 207.357 337.891 207.005C338.001 206.653 338.056 206.309 338.056 205.971C338.056 205.634 338.001 205.289 337.891 204.937C337.788 204.578 337.608 204.259 337.352 203.98C337.102 203.702 336.758 203.507 336.318 203.397C336.164 203.353 335.995 203.328 335.812 203.32C335.628 203.306 335.463 203.298 335.317 203.298H331.533V208.644ZM177.589 246.652V230.812H182.638C182.77 230.812 183.03 230.816 183.419 230.823C183.815 230.831 184.196 230.856 184.563 230.9C185.817 231.062 186.876 231.509 187.742 232.242C188.614 232.968 189.274 233.896 189.722 235.025C190.169 236.155 190.393 237.39 190.393 238.732C190.393 240.074 190.169 241.31 189.722 242.439C189.274 243.569 188.614 244.5 187.742 245.233C186.876 245.959 185.817 246.403 184.563 246.564C184.203 246.608 183.826 246.634 183.43 246.641C183.034 246.649 182.77 246.652 182.638 246.652H177.589ZM180.284 244.155H182.638C182.858 244.155 183.136 244.148 183.474 244.133C183.818 244.119 184.123 244.086 184.387 244.034C185.135 243.895 185.743 243.561 186.213 243.033C186.682 242.505 187.027 241.864 187.247 241.108C187.474 240.353 187.588 239.561 187.588 238.732C187.588 237.874 187.474 237.068 187.247 236.312C187.019 235.557 186.667 234.923 186.191 234.409C185.721 233.896 185.12 233.57 184.387 233.43C184.123 233.372 183.818 233.339 183.474 233.331C183.136 233.317 182.858 233.309 182.638 233.309H180.284V244.155ZM192.993 246.652V230.812H203.223V233.298H195.644V237.203H201.903V239.689H195.644V244.166H203.223V246.652H192.993ZM209.426 246.652L204.432 230.812H207.16L211.34 244.078L215.575 230.812H218.303L213.309 246.652H209.426ZM219.956 246.652V230.812H230.186V233.298H222.607V237.203H228.866V239.689H222.607V244.166H230.186V246.652H219.956ZM233.045 246.652V230.812H235.696V244.166H242.692V246.652H233.045ZM250.825 246.982C249.241 246.982 247.884 246.638 246.755 245.948C245.626 245.252 244.757 244.284 244.148 243.044C243.547 241.805 243.246 240.368 243.246 238.732C243.246 237.097 243.547 235.66 244.148 234.42C244.757 233.181 245.626 232.217 246.755 231.527C247.884 230.831 249.241 230.482 250.825 230.482C252.409 230.482 253.766 230.831 254.895 231.527C256.032 232.217 256.901 233.181 257.502 234.42C258.111 235.66 258.415 237.097 258.415 238.732C258.415 240.368 258.111 241.805 257.502 243.044C256.901 244.284 256.032 245.252 254.895 245.948C253.766 246.638 252.409 246.982 250.825 246.982ZM250.825 244.485C251.888 244.493 252.772 244.258 253.476 243.781C254.187 243.305 254.719 242.634 255.071 241.768C255.43 240.903 255.61 239.891 255.61 238.732C255.61 237.574 255.43 236.569 255.071 235.718C254.719 234.86 254.187 234.193 253.476 233.716C252.772 233.24 251.888 232.994 250.825 232.979C249.762 232.972 248.878 233.207 248.174 233.683C247.47 234.16 246.938 234.831 246.579 235.696C246.227 236.562 246.051 237.574 246.051 238.732C246.051 239.891 246.227 240.899 246.579 241.757C246.931 242.608 247.459 243.272 248.163 243.748C248.874 244.225 249.762 244.471 250.825 244.485ZM260.604 246.652V230.812H267.149C267.303 230.812 267.501 230.82 267.743 230.834C267.985 230.842 268.209 230.864 268.414 230.9C269.331 231.04 270.086 231.344 270.68 231.813C271.282 232.283 271.725 232.877 272.011 233.595C272.305 234.307 272.451 235.099 272.451 235.971C272.451 236.837 272.305 237.629 272.011 238.347C271.718 239.059 271.271 239.649 270.669 240.118C270.075 240.588 269.324 240.892 268.414 241.031C268.209 241.061 267.982 241.083 267.732 241.097C267.49 241.112 267.296 241.119 267.149 241.119H263.255V246.652H260.604ZM263.255 238.644H267.039C267.186 238.644 267.351 238.637 267.534 238.622C267.718 238.608 267.886 238.578 268.04 238.534C268.48 238.424 268.825 238.23 269.074 237.951C269.331 237.673 269.511 237.357 269.613 237.005C269.723 236.653 269.778 236.309 269.778 235.971C269.778 235.634 269.723 235.289 269.613 234.937C269.511 234.578 269.331 234.259 269.074 233.98C268.825 233.702 268.48 233.507 268.04 233.397C267.886 233.353 267.718 233.328 267.534 233.32C267.351 233.306 267.186 233.298 267.039 233.298H263.255V238.644ZM274.655 246.652V230.812H277.042L282.52 242.032L287.998 230.812H290.385V246.652H287.91V236.499L283.048 246.652H281.992L277.141 236.499V246.652H274.655ZM293.476 246.652V230.812H303.706V233.298H296.127V237.203H302.386V239.689H296.127V244.166H303.706V246.652H293.476ZM306.345 246.652V230.812H309.029L316.377 241.977V230.812H319.061V246.652H316.377L309.029 235.487V246.652H306.345ZM325.942 246.652V233.298H320.816V230.812H333.719V233.298H328.593V246.652H325.942ZM190.356 276.652V260.812H193.007V276.652H190.356ZM196.302 276.652V260.812H198.986L206.334 271.977V260.812H209.018V276.652H206.334L198.986 265.487V276.652H196.302ZM212.313 276.652V260.812H214.964V276.652H212.313ZM222.065 276.652V263.298H216.939V260.812H229.842V263.298H224.716V276.652H222.065ZM231.821 276.652V260.812H234.472V276.652H231.821ZM236.667 276.652L241.661 260.812H245.544L250.538 276.652H247.81L243.278 262.44H243.872L239.395 276.652H236.667ZM239.45 273.22V270.745H247.766V273.22H239.45ZM255.022 276.652V263.298H249.896V260.812H262.799V263.298H257.673V276.652H255.022ZM264.778 276.652V260.812H267.429V276.652H264.778ZM274.288 276.652L269.294 260.812H272.022L276.202 274.078L280.437 260.812H283.165L278.171 276.652H274.288ZM284.817 276.652V260.812H295.047V263.298H287.468V267.203H293.727V269.689H287.468V274.166H295.047V276.652H284.817ZM303.399 276.982C302.24 276.982 301.195 276.781 300.264 276.377C299.34 275.974 298.577 275.398 297.976 274.65C297.382 273.895 297.004 273 296.843 271.966L299.593 271.548C299.828 272.487 300.308 273.213 301.034 273.726C301.767 274.24 302.611 274.496 303.564 274.496C304.129 274.496 304.66 274.408 305.159 274.232C305.658 274.056 306.061 273.8 306.369 273.462C306.684 273.125 306.842 272.711 306.842 272.219C306.842 271.999 306.805 271.798 306.732 271.614C306.659 271.424 306.549 271.255 306.402 271.108C306.263 270.962 306.079 270.83 305.852 270.712C305.632 270.588 305.375 270.481 305.082 270.393L300.99 269.183C300.638 269.081 300.257 268.945 299.846 268.776C299.443 268.6 299.058 268.362 298.691 268.061C298.332 267.753 298.035 267.365 297.8 266.895C297.573 266.419 297.459 265.832 297.459 265.135C297.459 264.116 297.716 263.262 298.229 262.572C298.75 261.876 299.446 261.355 300.319 261.01C301.199 260.666 302.174 260.497 303.245 260.504C304.33 260.512 305.298 260.699 306.149 261.065C307 261.425 307.711 261.949 308.283 262.638C308.855 263.328 309.258 264.16 309.493 265.135L306.644 265.63C306.527 265.073 306.299 264.6 305.962 264.211C305.632 263.815 305.225 263.515 304.741 263.309C304.264 263.104 303.755 262.994 303.212 262.979C302.684 262.972 302.193 263.053 301.738 263.221C301.291 263.383 300.928 263.617 300.649 263.925C300.378 264.233 300.242 264.593 300.242 265.003C300.242 265.392 300.359 265.711 300.594 265.96C300.829 266.202 301.118 266.397 301.463 266.543C301.815 266.683 302.171 266.8 302.53 266.895L305.368 267.687C305.757 267.79 306.193 267.929 306.677 268.105C307.161 268.281 307.627 268.527 308.074 268.842C308.521 269.158 308.888 269.572 309.174 270.085C309.467 270.599 309.614 271.251 309.614 272.043C309.614 272.865 309.442 273.587 309.097 274.21C308.76 274.826 308.301 275.34 307.722 275.75C307.143 276.161 306.479 276.469 305.731 276.674C304.99 276.88 304.213 276.982 303.399 276.982ZM311.775 264.772V260.812H314.426V264.772H311.775ZM315.878 264.772V260.812H318.529V264.772H315.878Z" fill="#222222"/>
<path d="M124.54 504V488.16H127.224L134.572 499.325V488.16H137.256V504H134.572L127.224 492.835V504H124.54ZM146.865 504.33C145.838 504.33 144.874 504.15 143.972 503.791C143.077 503.424 142.289 502.889 141.607 502.185C140.932 501.481 140.404 500.619 140.023 499.6C139.642 498.573 139.451 497.4 139.451 496.08C139.451 494.349 139.774 492.872 140.419 491.647C141.064 490.415 141.948 489.473 143.07 488.82C144.192 488.16 145.457 487.83 146.865 487.83C148.816 487.83 150.359 488.285 151.496 489.194C152.64 490.096 153.414 491.365 153.817 493L151.111 493.429C150.81 492.49 150.319 491.742 149.637 491.185C148.955 490.62 148.086 490.338 147.03 490.338C145.967 490.323 145.083 490.554 144.379 491.031C143.675 491.508 143.143 492.179 142.784 493.044C142.432 493.909 142.256 494.921 142.256 496.08C142.256 497.239 142.432 498.247 142.784 499.105C143.136 499.956 143.664 500.619 144.368 501.096C145.079 501.573 145.967 501.818 147.03 501.833C147.829 501.84 148.53 501.697 149.131 501.404C149.732 501.103 150.224 500.652 150.605 500.051C150.986 499.442 151.243 498.683 151.375 497.774H148.581V495.695H154.191C154.206 495.812 154.217 495.985 154.224 496.212C154.231 496.439 154.235 496.575 154.235 496.619C154.235 498.115 153.938 499.446 153.344 500.612C152.757 501.771 151.914 502.68 150.814 503.34C149.714 504 148.398 504.33 146.865 504.33ZM163.143 504.33C161.559 504.33 160.203 503.985 159.073 503.296C157.944 502.599 157.075 501.631 156.466 500.392C155.865 499.153 155.564 497.715 155.564 496.08C155.564 494.445 155.865 493.007 156.466 491.768C157.075 490.529 157.944 489.564 159.073 488.875C160.203 488.178 161.559 487.83 163.143 487.83C164.727 487.83 166.084 488.178 167.213 488.875C168.35 489.564 169.219 490.529 169.82 491.768C170.429 493.007 170.733 494.445 170.733 496.08C170.733 497.715 170.429 499.153 169.82 500.392C169.219 501.631 168.35 502.599 167.213 503.296C166.084 503.985 164.727 504.33 163.143 504.33ZM163.143 501.833C164.207 501.84 165.09 501.606 165.794 501.129C166.506 500.652 167.037 499.981 167.389 499.116C167.749 498.251 167.928 497.239 167.928 496.08C167.928 494.921 167.749 493.917 167.389 493.066C167.037 492.208 166.506 491.541 165.794 491.064C165.09 490.587 164.207 490.342 163.143 490.327C162.08 490.32 161.196 490.554 160.492 491.031C159.788 491.508 159.257 492.179 158.897 493.044C158.545 493.909 158.369 494.921 158.369 496.08C158.369 497.239 158.545 498.247 158.897 499.105C159.249 499.956 159.777 500.619 160.481 501.096C161.193 501.573 162.08 501.818 163.143 501.833ZM183.949 488.127L183.784 489.271C183.447 489.242 183.179 489.3 182.981 489.447C182.783 489.586 182.647 489.788 182.574 490.052C182.508 490.309 182.497 490.602 182.541 490.932H183.949V493.759H181.232V490.822C181.232 489.861 181.459 489.135 181.914 488.644C182.369 488.145 183.047 487.973 183.949 488.127ZM180.264 488.127L180.099 489.271C179.762 489.242 179.494 489.3 179.296 489.447C179.098 489.586 178.962 489.788 178.889 490.052C178.823 490.309 178.812 490.602 178.856 490.932H180.264V493.759H177.547V490.822C177.547 489.861 177.774 489.135 178.229 488.644C178.684 488.145 179.362 487.973 180.264 488.127ZM187.253 504V488.16H189.937L197.285 499.325V488.16H199.969V504H197.285L189.937 492.835V504H187.253ZM201.944 504L206.938 488.16H210.821L215.815 504H213.087L208.555 489.788H209.149L204.672 504H201.944ZM204.727 500.568V498.093H213.043V500.568H204.727ZM217.804 504V488.16H224.349C224.503 488.16 224.701 488.167 224.943 488.182C225.185 488.189 225.408 488.211 225.614 488.248C226.53 488.387 227.286 488.692 227.88 489.161C228.481 489.63 228.925 490.224 229.211 490.943C229.504 491.654 229.651 492.446 229.651 493.319C229.651 494.61 229.324 495.721 228.672 496.652C228.019 497.576 227.018 498.148 225.669 498.368L224.536 498.467H220.455V504H217.804ZM226.901 504L223.777 497.554L226.472 496.96L229.904 504H226.901ZM220.455 495.992H224.239C224.385 495.992 224.55 495.985 224.734 495.97C224.917 495.955 225.086 495.926 225.24 495.882C225.68 495.772 226.024 495.578 226.274 495.299C226.53 495.02 226.71 494.705 226.813 494.353C226.923 494.001 226.978 493.656 226.978 493.319C226.978 492.982 226.923 492.637 226.813 492.285C226.71 491.926 226.53 491.607 226.274 491.328C226.024 491.049 225.68 490.855 225.24 490.745C225.086 490.701 224.917 490.675 224.734 490.668C224.55 490.653 224.385 490.646 224.239 490.646H220.455V495.992ZM235.876 504V497.51L230.486 488.16H233.577L237.218 494.474L240.848 488.16H243.939L238.56 497.51V504H235.876ZM245.476 504V488.16H248.16L255.508 499.325V488.16H258.192V504H255.508L248.16 492.835V504H245.476ZM265.231 504V503.637L273.041 490.646H265.781V488.16H277.628V488.534L269.862 501.503H277.441V504H265.231ZM280.259 504V488.16H282.91V494.826H290.412V488.16H293.052V504H290.412V497.312H282.91V504H280.259ZM295.036 504L300.03 488.16H303.913L308.907 504H306.179L301.647 489.788H302.241L297.764 504H295.036ZM297.819 500.568V498.093H306.135V500.568H297.819ZM316.329 504.33C315.17 504.33 314.125 504.128 313.194 503.725C312.27 503.322 311.507 502.746 310.906 501.998C310.312 501.243 309.934 500.348 309.773 499.314L312.523 498.896C312.757 499.835 313.238 500.561 313.964 501.074C314.697 501.587 315.54 501.844 316.494 501.844C317.058 501.844 317.59 501.756 318.089 501.58C318.587 501.404 318.991 501.147 319.299 500.81C319.614 500.473 319.772 500.058 319.772 499.567C319.772 499.347 319.735 499.145 319.662 498.962C319.588 498.771 319.478 498.603 319.332 498.456C319.192 498.309 319.009 498.177 318.782 498.06C318.562 497.935 318.305 497.829 318.012 497.741L313.92 496.531C313.568 496.428 313.186 496.293 312.776 496.124C312.372 495.948 311.987 495.71 311.621 495.409C311.261 495.101 310.964 494.712 310.73 494.243C310.502 493.766 310.389 493.18 310.389 492.483C310.389 491.464 310.645 490.609 311.159 489.92C311.679 489.223 312.376 488.703 313.249 488.358C314.129 488.013 315.104 487.845 316.175 487.852C317.26 487.859 318.228 488.046 319.079 488.413C319.929 488.772 320.641 489.297 321.213 489.986C321.785 490.675 322.188 491.508 322.423 492.483L319.574 492.978C319.456 492.421 319.229 491.948 318.892 491.559C318.562 491.163 318.155 490.862 317.671 490.657C317.194 490.452 316.684 490.342 316.142 490.327C315.614 490.32 315.122 490.4 314.668 490.569C314.22 490.73 313.857 490.965 313.579 491.273C313.307 491.581 313.172 491.94 313.172 492.351C313.172 492.74 313.289 493.059 313.524 493.308C313.758 493.55 314.048 493.744 314.393 493.891C314.745 494.03 315.1 494.148 315.46 494.243L318.298 495.035C318.686 495.138 319.123 495.277 319.607 495.453C320.091 495.629 320.556 495.875 321.004 496.19C321.451 496.505 321.818 496.92 322.104 497.433C322.397 497.946 322.544 498.599 322.544 499.391C322.544 500.212 322.371 500.935 322.027 501.558C321.689 502.174 321.231 502.687 320.652 503.098C320.072 503.509 319.409 503.817 318.661 504.022C317.92 504.227 317.143 504.33 316.329 504.33ZM324.925 504V488.16H327.576V494.826H335.078V488.16H337.718V504H335.078V497.312H327.576V504H324.925ZM344.608 504V490.646H339.482V488.16H352.385V490.646H347.259V504H344.608ZM352.614 504L357.608 488.16H361.491L366.485 504H363.757L359.225 489.788H359.819L355.342 504H352.614ZM355.397 500.568V498.093H363.713V500.568H355.397ZM368.474 504V488.16H375.019C375.173 488.16 375.371 488.167 375.613 488.182C375.855 488.189 376.078 488.211 376.284 488.248C377.2 488.387 377.956 488.692 378.55 489.161C379.151 489.63 379.595 490.224 379.881 490.943C380.174 491.654 380.321 492.446 380.321 493.319C380.321 494.61 379.994 495.721 379.342 496.652C378.689 497.576 377.688 498.148 376.339 498.368L375.206 498.467H371.125V504H368.474ZM377.571 504L374.447 497.554L377.142 496.96L380.574 504H377.571ZM371.125 495.992H374.909C375.055 495.992 375.22 495.985 375.404 495.97C375.587 495.955 375.756 495.926 375.91 495.882C376.35 495.772 376.694 495.578 376.944 495.299C377.2 495.02 377.38 494.705 377.483 494.353C377.593 494.001 377.648 493.656 377.648 493.319C377.648 492.982 377.593 492.637 377.483 492.285C377.38 491.926 377.2 491.607 376.944 491.328C376.694 491.049 376.35 490.855 375.91 490.745C375.756 490.701 375.587 490.675 375.404 490.668C375.22 490.653 375.055 490.646 374.909 490.646H371.125V495.992ZM394.1 504.33C392.516 504.33 391.16 503.985 390.03 503.296C388.901 502.599 388.032 501.631 387.423 500.392C386.822 499.153 386.521 497.715 386.521 496.08C386.521 494.445 386.822 493.007 387.423 491.768C388.032 490.529 388.901 489.564 390.03 488.875C391.16 488.178 392.516 487.83 394.1 487.83C395.684 487.83 397.041 488.178 398.17 488.875C399.307 489.564 400.176 490.529 400.777 491.768C401.386 493.007 401.69 494.445 401.69 496.08C401.69 497.715 401.386 499.153 400.777 500.392C400.176 501.631 399.307 502.599 398.17 503.296C397.041 503.985 395.684 504.33 394.1 504.33ZM394.1 501.833C395.164 501.84 396.047 501.606 396.751 501.129C397.463 500.652 397.994 499.981 398.346 499.116C398.706 498.251 398.885 497.239 398.885 496.08C398.885 494.921 398.706 493.917 398.346 493.066C397.994 492.208 397.463 491.541 396.751 491.064C396.047 490.587 395.164 490.342 394.1 490.327C393.037 490.32 392.153 490.554 391.449 491.031C390.745 491.508 390.214 492.179 389.854 493.044C389.502 493.909 389.326 494.921 389.326 496.08C389.326 497.239 389.502 498.247 389.854 499.105C390.206 499.956 390.734 500.619 391.438 501.096C392.15 501.573 393.037 501.818 394.1 501.833ZM403.88 504V488.16H410.425C410.579 488.16 410.777 488.167 411.019 488.182C411.261 488.189 411.485 488.211 411.69 488.248C412.607 488.387 413.362 488.692 413.956 489.161C414.557 489.63 415.001 490.224 415.287 490.943C415.58 491.654 415.727 492.446 415.727 493.319C415.727 494.61 415.401 495.721 414.748 496.652C414.095 497.576 413.094 498.148 411.745 498.368L410.612 498.467H406.531V504H403.88ZM412.977 504L409.853 497.554L412.548 496.96L415.98 504H412.977ZM406.531 495.992H410.315C410.462 495.992 410.627 495.985 410.81 495.97C410.993 495.955 411.162 495.926 411.316 495.882C411.756 495.772 412.101 495.578 412.35 495.299C412.607 495.02 412.786 494.705 412.889 494.353C412.999 494.001 413.054 493.656 413.054 493.319C413.054 492.982 412.999 492.637 412.889 492.285C412.786 491.926 412.607 491.607 412.35 491.328C412.101 491.049 411.756 490.855 411.316 490.745C411.162 490.701 410.993 490.675 410.81 490.668C410.627 490.653 410.462 490.646 410.315 490.646H406.531V495.992ZM418.403 504V488.16H423.452C423.584 488.16 423.845 488.164 424.233 488.171C424.629 488.178 425.011 488.204 425.377 488.248C426.631 488.409 427.691 488.857 428.556 489.59C429.429 490.316 430.089 491.244 430.536 492.373C430.984 493.502 431.207 494.738 431.207 496.08C431.207 497.422 430.984 498.658 430.536 499.787C430.089 500.916 429.429 501.848 428.556 502.581C427.691 503.307 426.631 503.751 425.377 503.912C425.018 503.956 424.64 503.982 424.244 503.989C423.848 503.996 423.584 504 423.452 504H418.403ZM421.098 501.503H423.452C423.672 501.503 423.951 501.496 424.288 501.481C424.633 501.466 424.937 501.433 425.201 501.382C425.949 501.243 426.558 500.909 427.027 500.381C427.497 499.853 427.841 499.211 428.061 498.456C428.289 497.701 428.402 496.909 428.402 496.08C428.402 495.222 428.289 494.415 428.061 493.66C427.834 492.905 427.482 492.27 427.005 491.757C426.536 491.244 425.935 490.917 425.201 490.778C424.937 490.719 424.633 490.686 424.288 490.679C423.951 490.664 423.672 490.657 423.452 490.657H421.098V501.503ZM440.507 504.33C438.923 504.33 437.566 503.985 436.437 503.296C435.307 502.599 434.438 501.631 433.83 500.392C433.228 499.153 432.928 497.715 432.928 496.08C432.928 494.445 433.228 493.007 433.83 491.768C434.438 490.529 435.307 489.564 436.437 488.875C437.566 488.178 438.923 487.83 440.507 487.83C442.091 487.83 443.447 488.178 444.577 488.875C445.713 489.564 446.582 490.529 447.184 491.768C447.792 493.007 448.097 494.445 448.097 496.08C448.097 497.715 447.792 499.153 447.184 500.392C446.582 501.631 445.713 502.599 444.577 503.296C443.447 503.985 442.091 504.33 440.507 504.33ZM440.507 501.833C441.57 501.84 442.454 501.606 443.158 501.129C443.869 500.652 444.401 499.981 444.753 499.116C445.112 498.251 445.292 497.239 445.292 496.08C445.292 494.921 445.112 493.917 444.753 493.066C444.401 492.208 443.869 491.541 443.158 491.064C442.454 490.587 441.57 490.342 440.507 490.327C439.443 490.32 438.56 490.554 437.856 491.031C437.152 491.508 436.62 492.179 436.261 493.044C435.909 493.909 435.733 494.921 435.733 496.08C435.733 497.239 435.909 498.247 436.261 499.105C436.613 499.956 437.141 500.619 437.845 501.096C438.556 501.573 439.443 501.818 440.507 501.833ZM456.149 504.33C454.99 504.33 453.945 504.128 453.014 503.725C452.09 503.322 451.327 502.746 450.726 501.998C450.132 501.243 449.754 500.348 449.593 499.314L452.343 498.896C452.578 499.835 453.058 500.561 453.784 501.074C454.517 501.587 455.361 501.844 456.314 501.844C456.879 501.844 457.41 501.756 457.909 501.58C458.408 501.404 458.811 501.147 459.119 500.81C459.434 500.473 459.592 500.058 459.592 499.567C459.592 499.347 459.555 499.145 459.482 498.962C459.409 498.771 459.299 498.603 459.152 498.456C459.013 498.309 458.829 498.177 458.602 498.06C458.382 497.935 458.125 497.829 457.832 497.741L453.74 496.531C453.388 496.428 453.007 496.293 452.596 496.124C452.193 495.948 451.808 495.71 451.441 495.409C451.082 495.101 450.785 494.712 450.55 494.243C450.323 493.766 450.209 493.18 450.209 492.483C450.209 491.464 450.466 490.609 450.979 489.92C451.5 489.223 452.196 488.703 453.069 488.358C453.949 488.013 454.924 487.845 455.995 487.852C457.08 487.859 458.048 488.046 458.899 488.413C459.75 488.772 460.461 489.297 461.033 489.986C461.605 490.675 462.008 491.508 462.243 492.483L459.394 492.978C459.277 492.421 459.049 491.948 458.712 491.559C458.382 491.163 457.975 490.862 457.491 490.657C457.014 490.452 456.505 490.342 455.962 490.327C455.434 490.32 454.943 490.4 454.488 490.569C454.041 490.73 453.678 490.965 453.399 491.273C453.128 491.581 452.992 491.94 452.992 492.351C452.992 492.74 453.109 493.059 453.344 493.308C453.579 493.55 453.868 493.744 454.213 493.891C454.565 494.03 454.921 494.148 455.28 494.243L458.118 495.035C458.507 495.138 458.943 495.277 459.427 495.453C459.911 495.629 460.377 495.875 460.824 496.19C461.271 496.505 461.638 496.92 461.924 497.433C462.217 497.946 462.364 498.599 462.364 499.391C462.364 500.212 462.192 500.935 461.847 501.558C461.51 502.174 461.051 502.687 460.472 503.098C459.893 503.509 459.229 503.817 458.481 504.022C457.74 504.227 456.963 504.33 456.149 504.33ZM471.125 504.33C469.864 504.33 468.753 504.073 467.792 503.56C466.839 503.047 466.091 502.324 465.548 501.393C465.013 500.462 464.745 499.369 464.745 498.115V488.182L467.429 488.16V498.049C467.429 498.643 467.528 499.175 467.726 499.644C467.931 500.113 468.206 500.513 468.551 500.843C468.896 501.166 469.292 501.411 469.739 501.58C470.186 501.749 470.648 501.833 471.125 501.833C471.616 501.833 472.082 501.749 472.522 501.58C472.969 501.404 473.365 501.155 473.71 500.832C474.055 500.502 474.326 500.102 474.524 499.633C474.722 499.164 474.821 498.636 474.821 498.049V488.16H477.505V498.115C477.505 499.369 477.234 500.462 476.691 501.393C476.156 502.324 475.408 503.047 474.447 503.56C473.494 504.073 472.386 504.33 471.125 504.33ZM480.799 493.748L480.953 492.604C481.29 492.633 481.558 492.578 481.756 492.439C481.954 492.292 482.086 492.091 482.152 491.834C482.225 491.57 482.244 491.273 482.207 490.943H480.799V488.116H483.516V491.053C483.516 492.014 483.289 492.74 482.834 493.231C482.379 493.722 481.701 493.895 480.799 493.748ZM484.484 493.748L484.638 492.604C484.975 492.633 485.243 492.578 485.441 492.439C485.639 492.292 485.771 492.091 485.837 491.834C485.91 491.57 485.929 491.273 485.892 490.943H484.484V488.116H487.201V491.053C487.201 492.014 486.974 492.74 486.519 493.231C486.064 493.722 485.386 493.895 484.484 493.748Z" fill="#222222"/>
<path d="M519.7 276.652V260.812H522.384L529.732 271.977V260.812H532.416V276.652H529.732L522.384 265.487V276.652H519.7ZM542.025 276.982C540.999 276.982 540.034 276.803 539.132 276.443C538.238 276.077 537.449 275.541 536.767 274.837C536.093 274.133 535.565 273.272 535.183 272.252C534.802 271.226 534.611 270.052 534.611 268.732C534.611 267.002 534.934 265.524 535.579 264.299C536.225 263.067 537.108 262.125 538.23 261.472C539.352 260.812 540.617 260.482 542.025 260.482C543.976 260.482 545.52 260.937 546.656 261.846C547.8 262.748 548.574 264.017 548.977 265.652L546.271 266.081C545.971 265.143 545.479 264.395 544.797 263.837C544.115 263.273 543.246 262.99 542.19 262.99C541.127 262.976 540.243 263.207 539.539 263.683C538.835 264.16 538.304 264.831 537.944 265.696C537.592 266.562 537.416 267.574 537.416 268.732C537.416 269.891 537.592 270.899 537.944 271.757C538.296 272.608 538.824 273.272 539.528 273.748C540.24 274.225 541.127 274.471 542.19 274.485C542.99 274.493 543.69 274.35 544.291 274.056C544.893 273.756 545.384 273.305 545.765 272.703C546.147 272.095 546.403 271.336 546.535 270.426H543.741V268.347H549.351C549.366 268.465 549.377 268.637 549.384 268.864C549.392 269.092 549.395 269.227 549.395 269.271C549.395 270.767 549.098 272.098 548.504 273.264C547.918 274.423 547.074 275.332 545.974 275.992C544.874 276.652 543.558 276.982 542.025 276.982ZM558.303 276.982C556.719 276.982 555.363 276.638 554.233 275.948C553.104 275.252 552.235 274.284 551.626 273.044C551.025 271.805 550.724 270.368 550.724 268.732C550.724 267.097 551.025 265.66 551.626 264.42C552.235 263.181 553.104 262.217 554.233 261.527C555.363 260.831 556.719 260.482 558.303 260.482C559.887 260.482 561.244 260.831 562.373 261.527C563.51 262.217 564.379 263.181 564.98 264.42C565.589 265.66 565.893 267.097 565.893 268.732C565.893 270.368 565.589 271.805 564.98 273.044C564.379 274.284 563.51 275.252 562.373 275.948C561.244 276.638 559.887 276.982 558.303 276.982ZM558.303 274.485C559.367 274.493 560.25 274.258 560.954 273.781C561.666 273.305 562.197 272.634 562.549 271.768C562.909 270.903 563.088 269.891 563.088 268.732C563.088 267.574 562.909 266.569 562.549 265.718C562.197 264.86 561.666 264.193 560.954 263.716C560.25 263.24 559.367 262.994 558.303 262.979C557.24 262.972 556.356 263.207 555.652 263.683C554.948 264.16 554.417 264.831 554.057 265.696C553.705 266.562 553.529 267.574 553.529 268.732C553.529 269.891 553.705 270.899 554.057 271.757C554.409 272.608 554.937 273.272 555.641 273.748C556.353 274.225 557.24 274.471 558.303 274.485ZM579.109 260.779L578.944 261.923C578.607 261.894 578.339 261.953 578.141 262.099C577.943 262.239 577.808 262.44 577.734 262.704C577.668 262.961 577.657 263.254 577.701 263.584H579.109V266.411H576.392V263.474C576.392 262.514 576.62 261.788 577.074 261.296C577.529 260.798 578.207 260.625 579.109 260.779ZM575.424 260.779L575.259 261.923C574.922 261.894 574.654 261.953 574.456 262.099C574.258 262.239 574.123 262.44 574.049 262.704C573.983 262.961 573.972 263.254 574.016 263.584H575.424V266.411H572.707V263.474C572.707 262.514 572.935 261.788 573.389 261.296C573.844 260.798 574.522 260.625 575.424 260.779ZM578.67 276.652L583.664 260.812H587.547L592.541 276.652H589.813L585.281 262.44H585.875L581.398 276.652H578.67ZM581.453 273.22V270.745H589.769V273.22H581.453ZM600.8 276.982C599.216 276.982 597.859 276.638 596.73 275.948C595.6 275.252 594.731 274.284 594.123 273.044C593.521 271.805 593.221 270.368 593.221 268.732C593.221 267.097 593.521 265.66 594.123 264.42C594.731 263.181 595.6 262.217 596.73 261.527C597.859 260.831 599.216 260.482 600.8 260.482C602.626 260.482 604.147 260.941 605.365 261.857C606.582 262.767 607.436 263.995 607.928 265.542L605.255 266.279C604.947 265.245 604.422 264.439 603.682 263.859C602.941 263.273 601.98 262.979 600.8 262.979C599.736 262.979 598.849 263.218 598.138 263.694C597.434 264.171 596.902 264.842 596.543 265.707C596.191 266.565 596.011 267.574 596.004 268.732C596.004 269.891 596.18 270.903 596.532 271.768C596.891 272.626 597.426 273.294 598.138 273.77C598.849 274.247 599.736 274.485 600.8 274.485C601.98 274.485 602.941 274.192 603.682 273.605C604.422 273.019 604.947 272.212 605.255 271.185L607.928 271.922C607.436 273.47 606.582 274.702 605.365 275.618C604.147 276.528 602.626 276.982 600.8 276.982ZM614.149 276.652V263.298H609.023V260.812H621.926V263.298H616.8V276.652H614.149ZM623.905 276.652V260.812H626.556V276.652H623.905ZM633.415 276.652L628.421 260.812H631.149L635.329 274.078L639.564 260.812H642.292L637.298 276.652H633.415ZM643.944 276.652V260.812H654.174V263.298H646.595V267.203H652.854V269.689H646.595V274.166H654.174V276.652H643.944ZM664.782 276.652L659.788 260.812H662.516L666.696 274.078L670.931 260.812H673.659L668.665 276.652H664.782ZM681.581 276.982C679.997 276.982 678.64 276.638 677.511 275.948C676.381 275.252 675.512 274.284 674.904 273.044C674.302 271.805 674.002 270.368 674.002 268.732C674.002 267.097 674.302 265.66 674.904 264.42C675.512 263.181 676.381 262.217 677.511 261.527C678.64 260.831 679.997 260.482 681.581 260.482C683.165 260.482 684.521 260.831 685.651 261.527C686.787 262.217 687.656 263.181 688.258 264.42C688.866 265.66 689.171 267.097 689.171 268.732C689.171 270.368 688.866 271.805 688.258 273.044C687.656 274.284 686.787 275.252 685.651 275.948C684.521 276.638 683.165 276.982 681.581 276.982ZM681.581 274.485C682.644 274.493 683.528 274.258 684.232 273.781C684.943 273.305 685.475 272.634 685.827 271.768C686.186 270.903 686.366 269.891 686.366 268.732C686.366 267.574 686.186 266.569 685.827 265.718C685.475 264.86 684.943 264.193 684.232 263.716C683.528 263.24 682.644 262.994 681.581 262.979C680.517 262.972 679.634 263.207 678.93 263.683C678.226 264.16 677.694 264.831 677.335 265.696C676.983 266.562 676.807 267.574 676.807 268.732C676.807 269.891 676.983 270.899 677.335 271.757C677.687 272.608 678.215 273.272 678.919 273.748C679.63 274.225 680.517 274.471 681.581 274.485ZM691.58 276.652V260.812H694.231V274.166H701.227V276.652H691.58ZM709.471 276.982C708.209 276.982 707.098 276.726 706.138 276.212C705.184 275.699 704.436 274.977 703.894 274.045C703.358 273.114 703.091 272.021 703.091 270.767V260.834L705.775 260.812V270.701C705.775 271.295 705.874 271.827 706.072 272.296C706.277 272.766 706.552 273.165 706.897 273.495C707.241 273.818 707.637 274.064 708.085 274.232C708.532 274.401 708.994 274.485 709.471 274.485C709.962 274.485 710.428 274.401 710.868 274.232C711.315 274.056 711.711 273.807 712.056 273.484C712.4 273.154 712.672 272.755 712.87 272.285C713.068 271.816 713.167 271.288 713.167 270.701V260.812H715.851V270.767C715.851 272.021 715.579 273.114 715.037 274.045C714.501 274.977 713.753 275.699 712.793 276.212C711.839 276.726 710.732 276.982 709.471 276.982ZM718.925 276.652V260.812H721.609L728.957 271.977V260.812H731.641V276.652H728.957L721.609 265.487V276.652H718.925ZM738.522 276.652V263.298H733.396V260.812H746.299V263.298H741.173V276.652H738.522ZM748.058 276.652V260.812H758.288V263.298H750.709V267.203H756.968V269.689H750.709V274.166H758.288V276.652H748.058ZM760.927 276.652V260.812H771.157V263.298H763.578V267.203H769.837V269.689H763.578V274.166H771.157V276.652H760.927ZM773.796 276.652V260.812H780.341C780.495 260.812 780.693 260.82 780.935 260.834C781.177 260.842 781.401 260.864 781.606 260.9C782.523 261.04 783.278 261.344 783.872 261.813C784.473 262.283 784.917 262.877 785.203 263.595C785.496 264.307 785.643 265.099 785.643 265.971C785.643 267.262 785.317 268.373 784.664 269.304C784.011 270.228 783.01 270.8 781.661 271.02L780.528 271.119H776.447V276.652H773.796ZM782.893 276.652L779.769 270.206L782.464 269.612L785.896 276.652H782.893ZM776.447 268.644H780.231C780.378 268.644 780.543 268.637 780.726 268.622C780.909 268.608 781.078 268.578 781.232 268.534C781.672 268.424 782.017 268.23 782.266 267.951C782.523 267.673 782.702 267.357 782.805 267.005C782.915 266.653 782.97 266.309 782.97 265.971C782.97 265.634 782.915 265.289 782.805 264.937C782.702 264.578 782.523 264.259 782.266 263.98C782.017 263.702 781.672 263.507 781.232 263.397C781.078 263.353 780.909 263.328 780.726 263.32C780.543 263.306 780.378 263.298 780.231 263.298H776.447V268.644ZM794.182 276.982C793.024 276.982 791.979 276.781 791.047 276.377C790.123 275.974 789.361 275.398 788.759 274.65C788.165 273.895 787.788 273 787.626 271.966L790.376 271.548C790.611 272.487 791.091 273.213 791.817 273.726C792.551 274.24 793.394 274.496 794.347 274.496C794.912 274.496 795.444 274.408 795.942 274.232C796.441 274.056 796.844 273.8 797.152 273.462C797.468 273.125 797.625 272.711 797.625 272.219C797.625 271.999 797.589 271.798 797.515 271.614C797.442 271.424 797.332 271.255 797.185 271.108C797.046 270.962 796.863 270.83 796.635 270.712C796.415 270.588 796.159 270.481 795.865 270.393L791.773 269.183C791.421 269.081 791.04 268.945 790.629 268.776C790.226 268.6 789.841 268.362 789.474 268.061C789.115 267.753 788.818 267.365 788.583 266.895C788.356 266.419 788.242 265.832 788.242 265.135C788.242 264.116 788.499 263.262 789.012 262.572C789.533 261.876 790.23 261.355 791.102 261.01C791.982 260.666 792.958 260.497 794.028 260.504C795.114 260.512 796.082 260.699 796.932 261.065C797.783 261.425 798.494 261.949 799.066 262.638C799.638 263.328 800.042 264.16 800.276 265.135L797.427 265.63C797.31 265.073 797.083 264.6 796.745 264.211C796.415 263.815 796.008 263.515 795.524 263.309C795.048 263.104 794.538 262.994 793.995 262.979C793.467 262.972 792.976 263.053 792.521 263.221C792.074 263.383 791.711 263.617 791.432 263.925C791.161 264.233 791.025 264.593 791.025 265.003C791.025 265.392 791.143 265.711 791.377 265.96C791.612 266.202 791.902 266.397 792.246 266.543C792.598 266.683 792.954 266.8 793.313 266.895L796.151 267.687C796.54 267.79 796.976 267.929 797.46 268.105C797.944 268.281 798.41 268.527 798.857 268.842C799.305 269.158 799.671 269.572 799.957 270.085C800.251 270.599 800.397 271.251 800.397 272.043C800.397 272.865 800.225 273.587 799.88 274.21C799.543 274.826 799.085 275.34 798.505 275.75C797.926 276.161 797.262 276.469 796.514 276.674C795.774 276.88 794.996 276.982 794.182 276.982ZM802.998 266.4L803.152 265.256C803.49 265.286 803.757 265.231 803.955 265.091C804.153 264.945 804.285 264.743 804.351 264.486C804.425 264.222 804.443 263.925 804.406 263.595H802.998V260.768H805.715V263.705C805.715 264.666 805.488 265.392 805.033 265.883C804.579 266.375 803.9 266.547 802.998 266.4ZM806.683 266.4L806.837 265.256C807.175 265.286 807.442 265.231 807.64 265.091C807.838 264.945 807.97 264.743 808.036 264.486C808.11 264.222 808.128 263.925 808.091 263.595H806.683V260.768H809.4V263.705C809.4 264.666 809.173 265.392 808.718 265.883C808.264 266.375 807.585 266.547 806.683 266.4Z" fill="#222222"/>
</svg>
