<svg width="945" height="684" viewBox="0 0 945 684" fill="none" xmlns="http://www.w3.org/2000/svg">
<path d="M52.6018 321.874C38.2391 283.637 52.336 238.764 86.8948 197.09C121.446 155.425 176.401 117.027 243.579 91.793C310.756 66.5595 377.401 59.2813 430.838 67.8955C484.287 76.5115 524.441 101.007 538.804 139.244C553.166 177.48 539.069 222.354 504.511 264.028C469.96 305.693 415.004 344.091 347.827 369.325C280.65 394.558 214.004 401.836 160.567 393.222C107.118 384.606 66.9644 360.11 52.6018 321.874Z" stroke="#161616" stroke-width="0.74302"/>
<path d="M538.439 353.533C555.267 389.052 546.889 432.464 519.615 473.977C492.344 515.485 446.214 555.035 387.68 582.769C329.146 610.502 269.323 621.152 219.93 615.967C170.529 610.782 131.628 589.771 114.799 554.253C97.9706 518.734 106.349 475.323 133.623 433.809C160.894 392.301 207.024 352.751 265.558 325.017C324.092 297.284 383.915 286.634 433.308 291.819C482.709 297.004 521.61 318.015 538.439 353.533Z" stroke="#161616" stroke-width="0.747693"/>
<path d="M402.62 348.615C388.168 310.14 402.353 264.986 437.127 223.052C471.894 181.128 527.192 142.49 594.788 117.099C662.384 91.708 729.445 84.3845 783.216 93.0524C836.998 101.722 877.402 126.371 891.855 164.846C906.307 203.32 892.122 248.474 857.348 290.408C822.581 332.333 767.283 370.971 699.687 396.362C632.09 421.752 565.029 429.076 511.259 420.408C457.477 411.738 417.072 387.09 402.62 348.615Z" stroke="#161616" stroke-width="0.747654"/>
<rect x="380.16" y="117.652" width="56" height="56" rx="28" fill="#161616"/>
<path d="M402.798 156.042C401.585 156.042 400.501 155.769 399.548 155.223C398.603 154.669 397.854 153.919 397.299 152.974C396.753 152.021 396.48 150.938 396.48 149.724V142.86C396.48 141.647 396.753 140.564 397.299 139.61C397.854 138.657 398.603 137.907 399.548 137.361C400.501 136.815 401.585 136.542 402.798 136.542C404.011 136.542 405.095 136.815 406.048 137.361C407.001 137.907 407.751 138.657 408.297 139.61C408.843 140.564 409.116 141.647 409.116 142.86V149.724C409.116 150.938 408.843 152.021 408.297 152.974C407.751 153.919 407.001 154.669 406.048 155.223C405.095 155.769 404.011 156.042 402.798 156.042ZM402.798 153.819C403.535 153.819 404.202 153.642 404.8 153.286C405.398 152.931 405.875 152.454 406.23 151.856C406.585 151.25 406.763 150.582 406.763 149.854V142.717C406.763 141.981 406.585 141.313 406.23 140.715C405.875 140.117 405.398 139.641 404.8 139.285C404.202 138.93 403.535 138.752 402.798 138.752C402.07 138.752 401.403 138.93 400.796 139.285C400.198 139.641 399.721 140.117 399.366 140.715C399.011 141.313 398.833 141.981 398.833 142.717V149.854C398.833 150.582 399.011 151.25 399.366 151.856C399.721 152.454 400.198 152.931 400.796 153.286C401.403 153.642 402.07 153.819 402.798 153.819ZM416.019 155.652V139.493L412.496 141.625V139.038L416.019 136.932H418.372V155.652H416.019Z" fill="white"/>
<rect x="336.742" y="393.652" width="56" height="56" rx="28" fill="#161616"/>
<path d="M357.38 432.042C356.167 432.042 355.084 431.769 354.13 431.223C353.186 430.669 352.436 429.919 351.881 428.974C351.335 428.021 351.062 426.938 351.062 425.724V418.86C351.062 417.647 351.335 416.564 351.881 415.61C352.436 414.657 353.186 413.907 354.13 413.361C355.084 412.815 356.167 412.542 357.38 412.542C358.594 412.542 359.677 412.815 360.63 413.361C361.584 413.907 362.333 414.657 362.879 415.61C363.425 416.564 363.698 417.647 363.698 418.86V425.724C363.698 426.938 363.425 428.021 362.879 428.974C362.333 429.919 361.584 430.669 360.63 431.223C359.677 431.769 358.594 432.042 357.38 432.042ZM357.38 429.819C358.117 429.819 358.784 429.642 359.382 429.286C359.98 428.931 360.457 428.454 360.812 427.856C361.168 427.25 361.345 426.582 361.345 425.854V418.717C361.345 417.981 361.168 417.313 360.812 416.715C360.457 416.117 359.98 415.641 359.382 415.285C358.784 414.93 358.117 414.752 357.38 414.752C356.652 414.752 355.985 414.93 355.378 415.285C354.78 415.641 354.304 416.117 353.948 416.715C353.593 417.313 353.415 417.981 353.415 418.717V425.854C353.415 426.582 353.593 427.25 353.948 427.856C354.304 428.454 354.78 428.931 355.378 429.286C355.985 429.642 356.652 429.819 357.38 429.819ZM372.473 432.016C371.545 432.016 370.683 431.847 369.886 431.509C369.088 431.163 368.399 430.677 367.819 430.053C367.247 429.421 366.826 428.671 366.558 427.804L368.781 427.167C369.067 428.034 369.543 428.693 370.211 429.143C370.878 429.594 371.628 429.815 372.46 429.806C373.222 429.789 373.881 429.616 374.436 429.286C374.999 428.948 375.432 428.489 375.736 427.908C376.048 427.328 376.204 426.656 376.204 425.893C376.204 424.732 375.857 423.792 375.164 423.072C374.47 422.344 373.56 421.98 372.434 421.98C372.122 421.98 371.792 422.024 371.446 422.11C371.108 422.197 370.791 422.318 370.497 422.474L369.379 420.641L376.321 414.362L376.62 415.142H367.299V412.932H378.336V415.155L372.421 420.823L372.395 420.004C373.634 419.918 374.717 420.121 375.645 420.615C376.572 421.109 377.291 421.816 377.803 422.734C378.323 423.653 378.583 424.706 378.583 425.893C378.583 427.089 378.314 428.147 377.777 429.065C377.239 429.984 376.511 430.708 375.593 431.236C374.674 431.756 373.634 432.016 372.473 432.016Z" fill="white"/>
<rect x="700.16" y="160.652" width="56" height="56" rx="28" fill="#161616"/>
<path d="M720.298 199.042C719.085 199.042 718.001 198.769 717.048 198.223C716.103 197.669 715.354 196.919 714.799 195.974C714.253 195.021 713.98 193.938 713.98 192.724V185.86C713.98 184.647 714.253 183.564 714.799 182.61C715.354 181.657 716.103 180.907 717.048 180.361C718.001 179.815 719.085 179.542 720.298 179.542C721.511 179.542 722.595 179.815 723.548 180.361C724.501 180.907 725.251 181.657 725.797 182.61C726.343 183.564 726.616 184.647 726.616 185.86V192.724C726.616 193.938 726.343 195.021 725.797 195.974C725.251 196.919 724.501 197.669 723.548 198.223C722.595 198.769 721.511 199.042 720.298 199.042ZM720.298 196.819C721.035 196.819 721.702 196.642 722.3 196.286C722.898 195.931 723.375 195.454 723.73 194.856C724.085 194.25 724.263 193.582 724.263 192.854V185.717C724.263 184.981 724.085 184.313 723.73 183.715C723.375 183.117 722.898 182.641 722.3 182.285C721.702 181.93 721.035 181.752 720.298 181.752C719.57 181.752 718.903 181.93 718.296 182.285C717.698 182.641 717.221 183.117 716.866 183.715C716.511 184.313 716.333 184.981 716.333 185.717V192.854C716.333 193.582 716.511 194.25 716.866 194.856C717.221 195.454 717.698 195.931 718.296 196.286C718.903 196.642 719.57 196.819 720.298 196.819ZM729.736 198.639L729.749 196.559L738.056 189.084C738.749 188.46 739.213 187.871 739.447 187.316C739.689 186.753 739.811 186.177 739.811 185.587C739.811 184.868 739.646 184.218 739.317 183.637C738.987 183.057 738.537 182.597 737.965 182.259C737.401 181.921 736.76 181.752 736.041 181.752C735.295 181.752 734.632 181.93 734.052 182.285C733.471 182.632 733.012 183.096 732.674 183.676C732.344 184.257 732.184 184.89 732.193 185.574H729.827C729.827 184.396 730.1 183.356 730.646 182.454C731.192 181.544 731.933 180.834 732.869 180.322C733.813 179.802 734.884 179.542 736.08 179.542C737.241 179.542 738.281 179.811 739.2 180.348C740.118 180.877 740.842 181.601 741.371 182.519C741.908 183.429 742.177 184.461 742.177 185.613C742.177 186.428 742.073 187.134 741.865 187.732C741.665 188.33 741.353 188.885 740.929 189.396C740.504 189.899 739.971 190.436 739.33 191.008L732.427 197.209L732.128 196.429H742.177V198.639H729.736Z" fill="white"/>
<path d="M173.503 216.982C171.919 216.982 170.562 216.638 169.433 215.948C168.303 215.252 167.434 214.284 166.826 213.044C166.224 211.805 165.924 210.368 165.924 208.732C165.924 207.097 166.224 205.66 166.826 204.42C167.434 203.181 168.303 202.217 169.433 201.527C170.562 200.831 171.919 200.482 173.503 200.482C175.087 200.482 176.443 200.831 177.573 201.527C178.709 202.217 179.578 203.181 180.18 204.42C180.788 205.66 181.093 207.097 181.093 208.732C181.093 210.368 180.788 211.805 180.18 213.044C179.578 214.284 178.709 215.252 177.573 215.948C176.443 216.638 175.087 216.982 173.503 216.982ZM173.503 214.485C174.566 214.493 175.45 214.258 176.154 213.781C176.865 213.305 177.397 212.634 177.749 211.768C178.108 210.903 178.288 209.891 178.288 208.732C178.288 207.574 178.108 206.569 177.749 205.718C177.397 204.86 176.865 204.193 176.154 203.716C175.45 203.24 174.566 202.994 173.503 202.979C172.439 202.972 171.556 203.207 170.852 203.683C170.148 204.16 169.616 204.831 169.257 205.696C168.905 206.562 168.729 207.574 168.729 208.732C168.729 209.891 168.905 210.899 169.257 211.757C169.609 212.608 170.137 213.272 170.841 213.748C171.552 214.225 172.439 214.471 173.503 214.485ZM188.54 216.652V214.397C187.726 214.537 186.949 214.504 186.208 214.298C185.475 214.093 184.822 213.73 184.25 213.209C183.678 212.681 183.227 212.007 182.897 211.185C182.567 210.357 182.402 209.389 182.402 208.281C182.402 207.174 182.567 206.202 182.897 205.366C183.227 204.53 183.678 203.845 184.25 203.309C184.822 202.774 185.475 202.4 186.208 202.187C186.949 201.975 187.726 201.938 188.54 202.077V200.812H191.169V202.077C191.983 201.938 192.761 201.975 193.501 202.187C194.242 202.4 194.898 202.774 195.47 203.309C196.042 203.845 196.493 204.53 196.823 205.366C197.161 206.202 197.329 207.174 197.329 208.281C197.329 209.389 197.161 210.357 196.823 211.185C196.493 212.007 196.042 212.681 195.47 213.209C194.898 213.73 194.242 214.093 193.501 214.298C192.761 214.504 191.983 214.537 191.169 214.397V216.652H188.54ZM188.54 211.966V204.464C187.902 204.362 187.36 204.406 186.912 204.596C186.472 204.78 186.117 205.062 185.845 205.443C185.581 205.817 185.391 206.254 185.273 206.752C185.156 207.251 185.097 207.761 185.097 208.281C185.097 208.802 185.156 209.304 185.273 209.788C185.391 210.272 185.581 210.698 185.845 211.064C186.117 211.424 186.472 211.688 186.912 211.856C187.36 212.025 187.902 212.062 188.54 211.966ZM191.169 211.966C191.815 212.062 192.357 212.025 192.797 211.856C193.237 211.68 193.593 211.413 193.864 211.053C194.136 210.694 194.33 210.28 194.447 209.81C194.572 209.341 194.634 208.857 194.634 208.358C194.634 207.86 194.572 207.361 194.447 206.862C194.33 206.356 194.136 205.909 193.864 205.52C193.593 205.124 193.237 204.824 192.797 204.618C192.357 204.413 191.815 204.362 191.169 204.464V211.966ZM212.509 213.605L208.637 208.732L212.509 203.859L213.928 204.97L210.936 208.732L213.928 212.494L212.509 213.605ZM208.021 213.605L204.149 208.732L208.021 203.859L209.44 204.97L206.437 208.732L209.44 212.494L208.021 213.605ZM215.719 216.652L220.713 200.812H224.596L229.59 216.652H226.862L222.33 202.44H222.924L218.447 216.652H215.719ZM218.502 213.22V210.745H226.818V213.22H218.502ZM231.579 216.652V200.812H241.809V203.298H234.23V216.652H231.579ZM243.567 216.652V200.812H253.797V203.298H246.218V207.203H252.477V209.689H246.218V214.166H253.797V216.652H243.567ZM256.436 216.652V200.812H259.087V207.478H266.589V200.812H269.229V216.652H266.589V209.964H259.087V216.652H256.436ZM276.119 216.652V203.298H270.993V200.812H283.896V203.298H278.77V216.652H276.119ZM292.354 216.982C290.77 216.982 289.414 216.638 288.284 215.948C287.155 215.252 286.286 214.284 285.677 213.044C285.076 211.805 284.775 210.368 284.775 208.732C284.775 207.097 285.076 205.66 285.677 204.42C286.286 203.181 287.155 202.217 288.284 201.527C289.414 200.831 290.77 200.482 292.354 200.482C294.18 200.482 295.702 200.941 296.919 201.857C298.137 202.767 298.991 203.995 299.482 205.542L296.809 206.279C296.501 205.245 295.977 204.439 295.236 203.859C294.496 203.273 293.535 202.979 292.354 202.979C291.291 202.979 290.404 203.218 289.692 203.694C288.988 204.171 288.457 204.842 288.097 205.707C287.745 206.565 287.566 207.574 287.558 208.732C287.558 209.891 287.734 210.903 288.086 211.768C288.446 212.626 288.981 213.294 289.692 213.77C290.404 214.247 291.291 214.485 292.354 214.485C293.535 214.485 294.496 214.192 295.236 213.605C295.977 213.019 296.501 212.212 296.809 211.185L299.482 211.922C298.991 213.47 298.137 214.702 296.919 215.618C295.702 216.528 294.18 216.982 292.354 216.982ZM305.703 216.652V203.298H300.577V200.812H313.48V203.298H308.354V216.652H305.703ZM315.239 216.652V200.812H321.52C322.591 200.812 323.467 201.029 324.149 201.461C324.839 201.887 325.348 202.433 325.678 203.1C326.016 203.768 326.184 204.457 326.184 205.168C326.184 206.041 325.975 206.782 325.557 207.39C325.147 207.999 324.586 208.41 323.874 208.622V208.072C324.872 208.3 325.627 208.773 326.14 209.491C326.661 210.21 326.921 211.028 326.921 211.944C326.921 212.883 326.742 213.704 326.382 214.408C326.023 215.112 325.488 215.662 324.776 216.058C324.072 216.454 323.2 216.652 322.158 216.652H315.239ZM317.923 214.155H321.828C322.29 214.155 322.705 214.064 323.071 213.88C323.438 213.69 323.724 213.426 323.929 213.088C324.142 212.744 324.248 212.337 324.248 211.867C324.248 211.442 324.157 211.061 323.973 210.723C323.79 210.386 323.522 210.118 323.17 209.92C322.818 209.715 322.397 209.612 321.905 209.612H317.923V214.155ZM317.923 207.137H321.487C321.869 207.137 322.21 207.064 322.51 206.917C322.811 206.771 323.049 206.554 323.225 206.268C323.401 205.982 323.489 205.63 323.489 205.212C323.489 204.662 323.313 204.204 322.961 203.837C322.609 203.471 322.118 203.287 321.487 203.287H317.923V207.137ZM335.817 216.982C334.233 216.982 332.876 216.638 331.747 215.948C330.618 215.252 329.749 214.284 329.14 213.044C328.539 211.805 328.238 210.368 328.238 208.732C328.238 207.097 328.539 205.66 329.14 204.42C329.749 203.181 330.618 202.217 331.747 201.527C332.876 200.831 334.233 200.482 335.817 200.482C337.401 200.482 338.758 200.831 339.887 201.527C341.024 202.217 341.893 203.181 342.494 204.42C343.103 205.66 343.407 207.097 343.407 208.732C343.407 210.368 343.103 211.805 342.494 213.044C341.893 214.284 341.024 215.252 339.887 215.948C338.758 216.638 337.401 216.982 335.817 216.982ZM335.817 214.485C336.88 214.493 337.764 214.258 338.468 213.781C339.179 213.305 339.711 212.634 340.063 211.768C340.422 210.903 340.602 209.891 340.602 208.732C340.602 207.574 340.422 206.569 340.063 205.718C339.711 204.86 339.179 204.193 338.468 203.716C337.764 203.24 336.88 202.994 335.817 202.979C334.754 202.972 333.87 203.207 333.166 203.683C332.462 204.16 331.93 204.831 331.571 205.696C331.219 206.562 331.043 207.574 331.043 208.732C331.043 209.891 331.219 210.899 331.571 211.757C331.923 212.608 332.451 213.272 333.155 213.748C333.866 214.225 334.754 214.471 335.817 214.485ZM136.196 246.652H133.512V235.487L126.164 246.652H123.48V230.812H126.164V241.977L133.512 230.812H136.196V246.652ZM139.271 246.652V230.812H141.922V237.478H149.424V230.812H152.064V246.652H149.424V239.964H141.922V246.652H139.271ZM167.864 246.652H165.18V235.487L157.832 246.652H155.148V230.812H157.832V241.977L165.18 230.812H167.864V246.652ZM183.028 249.149V246.652H170.939V230.812H173.59V244.298H181.268V231.175H183.919V244.298H185.679V249.149H183.028ZM200.155 246.652H197.471V235.487L190.123 246.652H187.439V230.812H190.123V241.977L197.471 230.812H200.155V246.652ZM202.13 246.652L207.124 230.812H211.007L216.001 246.652H213.273L208.741 232.44H209.335L204.858 246.652H202.13ZM204.913 243.22V240.745H213.229V243.22H204.913ZM220.486 246.652V233.298H215.36V230.812H228.263V233.298H223.137V246.652H220.486ZM242.737 246.652H240.053V235.487L232.705 246.652H230.021V230.812H232.705V241.977L240.053 230.812H242.737V246.652ZM245.812 246.652V230.812H252.093C253.164 230.812 254.04 231.029 254.722 231.461C255.412 231.887 255.921 232.433 256.251 233.1C256.589 233.768 256.757 234.457 256.757 235.168C256.757 236.041 256.548 236.782 256.13 237.39C255.72 237.999 255.159 238.41 254.447 238.622V238.072C255.445 238.3 256.2 238.773 256.713 239.491C257.234 240.21 257.494 241.028 257.494 241.944C257.494 242.883 257.315 243.704 256.955 244.408C256.596 245.112 256.061 245.662 255.349 246.058C254.645 246.454 253.773 246.652 252.731 246.652H245.812ZM248.496 244.155H252.401C252.863 244.155 253.278 244.064 253.644 243.88C254.011 243.69 254.297 243.426 254.502 243.088C254.715 242.744 254.821 242.337 254.821 241.867C254.821 241.442 254.73 241.061 254.546 240.723C254.363 240.386 254.095 240.118 253.743 239.92C253.391 239.715 252.97 239.612 252.478 239.612H248.496V244.155ZM248.496 237.137H252.06C252.442 237.137 252.783 237.064 253.083 236.917C253.384 236.771 253.622 236.554 253.798 236.268C253.974 235.982 254.062 235.63 254.062 235.212C254.062 234.662 253.886 234.204 253.534 233.837C253.182 233.471 252.691 233.287 252.06 233.287H248.496V237.137ZM264.096 246.652V230.812H270.641C270.795 230.812 270.993 230.82 271.235 230.834C271.477 230.842 271.7 230.864 271.906 230.9C272.822 231.04 273.578 231.344 274.172 231.813C274.773 232.283 275.217 232.877 275.503 233.595C275.796 234.307 275.943 235.099 275.943 235.971C275.943 236.837 275.796 237.629 275.503 238.347C275.209 239.059 274.762 239.649 274.161 240.118C273.567 240.588 272.815 240.892 271.906 241.031C271.7 241.061 271.473 241.083 271.224 241.097C270.982 241.112 270.787 241.119 270.641 241.119H266.747V246.652H264.096ZM266.747 238.644H270.531C270.677 238.644 270.842 238.637 271.026 238.622C271.209 238.608 271.378 238.578 271.532 238.534C271.972 238.424 272.316 238.23 272.566 237.951C272.822 237.673 273.002 237.357 273.105 237.005C273.215 236.653 273.27 236.309 273.27 235.971C273.27 235.634 273.215 235.289 273.105 234.937C273.002 234.578 272.822 234.259 272.566 233.98C272.316 233.702 271.972 233.507 271.532 233.397C271.378 233.353 271.209 233.328 271.026 233.32C270.842 233.306 270.677 233.298 270.531 233.298H266.747V238.644ZM275.951 246.652L280.945 230.812H284.828L289.822 246.652H287.094L282.562 232.44H283.156L278.679 246.652H275.951ZM278.734 243.22V240.745H287.05V243.22H278.734ZM296.991 246.982C295.876 246.982 294.901 246.821 294.065 246.498C293.236 246.168 292.539 245.747 291.975 245.233C291.417 244.713 290.988 244.166 290.688 243.594L292.954 242.054C293.13 242.458 293.386 242.846 293.724 243.22C294.061 243.587 294.505 243.891 295.055 244.133C295.605 244.368 296.287 244.485 297.101 244.485C297.885 244.485 298.527 244.368 299.026 244.133C299.524 243.899 299.891 243.591 300.126 243.209C300.36 242.828 300.478 242.414 300.478 241.966C300.478 241.409 300.324 240.98 300.016 240.679C299.708 240.371 299.304 240.159 298.806 240.041C298.307 239.917 297.775 239.847 297.211 239.832C296.697 239.818 296.327 239.807 296.1 239.799C295.872 239.792 295.722 239.788 295.649 239.788C295.575 239.788 295.506 239.788 295.44 239.788V237.28C295.52 237.28 295.656 237.28 295.847 237.28C296.045 237.28 296.246 237.28 296.452 237.28C296.664 237.273 296.837 237.266 296.969 237.258C297.805 237.222 298.49 237.027 299.026 236.675C299.568 236.323 299.84 235.803 299.84 235.113C299.84 234.446 299.587 233.922 299.081 233.54C298.582 233.159 297.918 232.968 297.09 232.968C296.312 232.968 295.627 233.141 295.033 233.485C294.446 233.83 294.002 234.237 293.702 234.706L291.843 232.814C292.378 232.162 293.104 231.612 294.021 231.164C294.945 230.71 295.993 230.482 297.167 230.482C297.856 230.482 298.527 230.574 299.18 230.757C299.832 230.933 300.419 231.205 300.94 231.571C301.46 231.938 301.875 232.407 302.183 232.979C302.491 233.551 302.645 234.233 302.645 235.025C302.645 235.751 302.505 236.422 302.227 237.038C301.955 237.647 301.574 238.146 301.083 238.534C301.779 238.813 302.318 239.238 302.7 239.81C303.088 240.382 303.283 241.105 303.283 241.977C303.283 243.004 303.004 243.891 302.447 244.639C301.889 245.387 301.134 245.967 300.181 246.377C299.235 246.781 298.171 246.982 296.991 246.982ZM305.668 246.652V230.812H311.949C313.02 230.812 313.896 231.029 314.578 231.461C315.267 231.887 315.777 232.433 316.107 233.1C316.444 233.768 316.613 234.457 316.613 235.168C316.613 236.041 316.404 236.782 315.986 237.39C315.575 237.999 315.014 238.41 314.303 238.622V238.072C315.3 238.3 316.056 238.773 316.569 239.491C317.09 240.21 317.35 241.028 317.35 241.944C317.35 242.883 317.17 243.704 316.811 244.408C316.452 245.112 315.916 245.662 315.205 246.058C314.501 246.454 313.628 246.652 312.587 246.652H305.668ZM308.352 244.155H312.257C312.719 244.155 313.133 244.064 313.5 243.88C313.867 243.69 314.153 243.426 314.358 243.088C314.571 242.744 314.677 242.337 314.677 241.867C314.677 241.442 314.585 241.061 314.402 240.723C314.219 240.386 313.951 240.118 313.599 239.92C313.247 239.715 312.825 239.612 312.334 239.612H308.352V244.155ZM308.352 237.137H311.916C312.297 237.137 312.638 237.064 312.939 236.917C313.24 236.771 313.478 236.554 313.654 236.268C313.83 235.982 313.918 235.63 313.918 235.212C313.918 234.662 313.742 234.204 313.39 233.837C313.038 233.471 312.547 233.287 311.916 233.287H308.352V237.137ZM332.263 246.652H329.579V235.487L322.231 246.652H319.547V230.812H322.231V241.977L329.579 230.812H332.263V246.652ZM339.144 246.652V233.298H334.018V230.812H346.921V233.298H341.795V246.652H339.144ZM361.396 246.652H358.712V235.487L351.364 246.652H348.68V230.812H351.364V241.977L358.712 230.812H361.396V246.652ZM375.911 246.652H373.271V241.119H369.179L368.046 241.02C366.696 240.8 365.695 240.228 365.043 239.304C364.39 238.373 364.064 237.262 364.064 235.971C364.064 235.099 364.21 234.307 364.504 233.595C364.797 232.877 365.241 232.283 365.835 231.813C366.429 231.344 367.184 231.04 368.101 230.9C368.313 230.864 368.537 230.842 368.772 230.834C369.014 230.82 369.212 230.812 369.366 230.812H375.911V246.652ZM366.814 246.652H363.811L367.243 239.612L369.938 240.206L366.814 246.652ZM373.271 238.644V233.298H369.476C369.329 233.298 369.164 233.306 368.981 233.32C368.797 233.328 368.629 233.353 368.475 233.397C368.035 233.507 367.686 233.702 367.43 233.98C367.18 234.259 367.004 234.578 366.902 234.937C366.799 235.289 366.748 235.634 366.748 235.971C366.748 236.309 366.799 236.653 366.902 237.005C367.004 237.357 367.18 237.673 367.43 237.951C367.686 238.23 368.035 238.424 368.475 238.534C368.629 238.578 368.797 238.608 368.981 238.622C369.164 238.637 369.329 238.644 369.476 238.644H373.271ZM379.214 236.4L379.368 235.256C379.705 235.286 379.973 235.231 380.171 235.091C380.369 234.945 380.501 234.743 380.567 234.486C380.64 234.222 380.659 233.925 380.622 233.595H379.214V230.768H381.931V233.705C381.931 234.666 381.704 235.392 381.249 235.883C380.794 236.375 380.116 236.547 379.214 236.4ZM382.899 236.4L383.053 235.256C383.39 235.286 383.658 235.231 383.856 235.091C384.054 234.945 384.186 234.743 384.252 234.486C384.325 234.222 384.344 233.925 384.307 233.595H382.899V230.768H385.616V233.705C385.616 234.666 385.389 235.392 384.934 235.883C384.479 236.375 383.801 236.547 382.899 236.4Z" fill="#222222"/>
<path d="M136.399 503.982C134.815 503.982 133.458 503.638 132.329 502.948C131.2 502.252 130.331 501.284 129.722 500.044C129.121 498.805 128.82 497.368 128.82 495.732C128.82 494.097 129.121 492.66 129.722 491.42C130.331 490.181 131.2 489.217 132.329 488.527C133.458 487.831 134.815 487.482 136.399 487.482C137.983 487.482 139.34 487.831 140.469 488.527C141.606 489.217 142.475 490.181 143.076 491.42C143.685 492.66 143.989 494.097 143.989 495.732C143.989 497.368 143.685 498.805 143.076 500.044C142.475 501.284 141.606 502.252 140.469 502.948C139.34 503.638 137.983 503.982 136.399 503.982ZM136.399 501.485C137.462 501.493 138.346 501.258 139.05 500.781C139.761 500.305 140.293 499.634 140.645 498.768C141.004 497.903 141.184 496.891 141.184 495.732C141.184 494.574 141.004 493.569 140.645 492.718C140.293 491.86 139.761 491.193 139.05 490.716C138.346 490.24 137.462 489.994 136.399 489.979C135.336 489.972 134.452 490.207 133.748 490.683C133.044 491.16 132.512 491.831 132.153 492.696C131.801 493.562 131.625 494.574 131.625 495.732C131.625 496.891 131.801 497.899 132.153 498.757C132.505 499.608 133.033 500.272 133.737 500.748C134.448 501.225 135.336 501.471 136.399 501.485ZM152.878 503.982C151.294 503.982 149.937 503.638 148.808 502.948C147.678 502.252 146.809 501.284 146.201 500.044C145.599 498.805 145.299 497.368 145.299 495.732C145.299 494.097 145.599 492.66 146.201 491.42C146.809 490.181 147.678 489.217 148.808 488.527C149.937 487.831 151.294 487.482 152.878 487.482C154.462 487.482 155.818 487.831 156.948 488.527C158.084 489.217 158.953 490.181 159.555 491.42C160.163 492.66 160.468 494.097 160.468 495.732C160.468 497.368 160.163 498.805 159.555 500.044C158.953 501.284 158.084 502.252 156.948 502.948C155.818 503.638 154.462 503.982 152.878 503.982ZM152.878 501.485C153.941 501.493 154.825 501.258 155.529 500.781C156.24 500.305 156.772 499.634 157.124 498.768C157.483 497.903 157.663 496.891 157.663 495.732C157.663 494.574 157.483 493.569 157.124 492.718C156.772 491.86 156.24 491.193 155.529 490.716C154.825 490.24 153.941 489.994 152.878 489.979C151.814 489.972 150.931 490.207 150.227 490.683C149.523 491.16 148.991 491.831 148.632 492.696C148.28 493.562 148.104 494.574 148.104 495.732C148.104 496.891 148.28 497.899 148.632 498.757C148.984 499.608 149.512 500.272 150.216 500.748C150.927 501.225 151.814 501.471 152.878 501.485ZM173.683 487.779L173.518 488.923C173.181 488.894 172.913 488.953 172.715 489.099C172.517 489.239 172.382 489.44 172.308 489.704C172.242 489.961 172.231 490.254 172.275 490.584H173.683V493.411H170.966V490.474C170.966 489.514 171.194 488.788 171.648 488.296C172.103 487.798 172.781 487.625 173.683 487.779ZM169.998 487.779L169.833 488.923C169.496 488.894 169.228 488.953 169.03 489.099C168.832 489.239 168.697 489.44 168.623 489.704C168.557 489.961 168.546 490.254 168.59 490.584H169.998V493.411H167.281V490.474C167.281 489.514 167.509 488.788 167.963 488.296C168.418 487.798 169.096 487.625 169.998 487.779ZM176.987 503.652V487.812H179.638V494.478H187.14V487.812H189.78V503.652H187.14V496.964H179.638V503.652H176.987ZM191.764 503.652L196.758 487.812H200.641L205.635 503.652H202.907L198.375 489.44H198.969L194.492 503.652H191.764ZM194.547 500.22V497.745H202.863V500.22H194.547ZM207.624 503.652V487.812H214.169C214.323 487.812 214.521 487.82 214.763 487.834C215.005 487.842 215.229 487.864 215.434 487.9C216.351 488.04 217.106 488.344 217.7 488.813C218.301 489.283 218.745 489.877 219.031 490.595C219.324 491.307 219.471 492.099 219.471 492.971C219.471 493.837 219.324 494.629 219.031 495.347C218.738 496.059 218.29 496.649 217.689 497.118C217.095 497.588 216.343 497.892 215.434 498.031C215.229 498.061 215.001 498.083 214.752 498.097C214.51 498.112 214.316 498.119 214.169 498.119H210.275V503.652H207.624ZM210.275 495.644H214.059C214.206 495.644 214.371 495.637 214.554 495.622C214.737 495.608 214.906 495.578 215.06 495.534C215.5 495.424 215.845 495.23 216.094 494.951C216.351 494.673 216.53 494.357 216.633 494.005C216.743 493.653 216.798 493.309 216.798 492.971C216.798 492.634 216.743 492.289 216.633 491.937C216.53 491.578 216.351 491.259 216.094 490.98C215.845 490.702 215.5 490.507 215.06 490.397C214.906 490.353 214.737 490.328 214.554 490.32C214.371 490.306 214.206 490.298 214.059 490.298H210.275V495.644ZM221.653 503.652V487.812H224.304V493.345H228.198C228.344 493.345 228.542 493.353 228.792 493.367C229.041 493.375 229.268 493.397 229.474 493.433C230.383 493.573 231.135 493.877 231.729 494.346C232.33 494.816 232.774 495.41 233.06 496.128C233.353 496.84 233.5 497.628 233.5 498.493C233.5 499.366 233.353 500.162 233.06 500.88C232.774 501.592 232.33 502.182 231.729 502.651C231.135 503.121 230.383 503.425 229.474 503.564C229.268 503.594 229.041 503.616 228.792 503.63C228.55 503.645 228.352 503.652 228.198 503.652H221.653ZM224.304 501.166H228.088C228.242 501.166 228.407 501.159 228.583 501.144C228.766 501.13 228.938 501.104 229.1 501.067C229.532 500.957 229.873 500.763 230.123 500.484C230.379 500.206 230.559 499.89 230.662 499.538C230.772 499.179 230.827 498.831 230.827 498.493C230.827 498.156 230.772 497.811 230.662 497.459C230.559 497.107 230.379 496.792 230.123 496.513C229.873 496.235 229.532 496.04 229.1 495.93C228.938 495.886 228.766 495.857 228.583 495.842C228.407 495.828 228.242 495.82 228.088 495.82H224.304V501.166ZM235.084 503.652V487.812H237.735V503.652H235.084ZM240.796 503.652V487.812H243.447V494.478H250.949V487.812H253.589V503.652H250.949V496.964H243.447V503.652H240.796ZM259.757 503.652L265.719 495.578L260.219 487.812H263.387L268.282 494.973V487.812H270.933V494.973L275.828 487.812H278.996L273.496 495.578L279.458 503.652H276.191L270.933 496.447V503.652H268.282V496.447L263.035 503.652H259.757ZM280.108 503.652L285.102 487.812H288.985L293.979 503.652H291.251L286.719 489.44H287.313L282.836 503.652H280.108ZM282.891 500.22V497.745H291.207V500.22H282.891ZM295.968 503.652V487.812H298.619V501.166H303.514V487.812H306.165V501.166H311.071V487.812H313.711V503.652H295.968ZM320.592 503.652V490.298H315.466V487.812H328.369V490.298H323.243V503.652H320.592ZM328.598 503.652L333.592 487.812H337.475L342.469 503.652H339.741L335.209 489.44H335.803L331.326 503.652H328.598ZM331.381 500.22V497.745H339.697V500.22H331.381ZM344.458 503.652V487.812H351.003C351.157 487.812 351.355 487.82 351.597 487.834C351.839 487.842 352.063 487.864 352.268 487.9C353.185 488.04 353.94 488.344 354.534 488.813C355.135 489.283 355.579 489.877 355.865 490.595C356.158 491.307 356.305 492.099 356.305 492.971C356.305 493.837 356.158 494.629 355.865 495.347C355.572 496.059 355.124 496.649 354.523 497.118C353.929 497.588 353.177 497.892 352.268 498.031C352.063 498.061 351.835 498.083 351.586 498.097C351.344 498.112 351.15 498.119 351.003 498.119H347.109V503.652H344.458ZM347.109 495.644H350.893C351.04 495.644 351.205 495.637 351.388 495.622C351.571 495.608 351.74 495.578 351.894 495.534C352.334 495.424 352.679 495.23 352.928 494.951C353.185 494.673 353.364 494.357 353.467 494.005C353.577 493.653 353.632 493.309 353.632 492.971C353.632 492.634 353.577 492.289 353.467 491.937C353.364 491.578 353.185 491.259 352.928 490.98C352.679 490.702 352.334 490.507 351.894 490.397C351.74 490.353 351.571 490.328 351.388 490.32C351.205 490.306 351.04 490.298 350.893 490.298H347.109V495.644ZM369.612 503.982C368.028 503.982 366.671 503.638 365.542 502.948C364.413 502.252 363.544 501.284 362.935 500.044C362.334 498.805 362.033 497.368 362.033 495.732C362.033 494.097 362.334 492.66 362.935 491.42C363.544 490.181 364.413 489.217 365.542 488.527C366.671 487.831 368.028 487.482 369.612 487.482C371.196 487.482 372.553 487.831 373.682 488.527C374.819 489.217 375.688 490.181 376.289 491.42C376.898 492.66 377.202 494.097 377.202 495.732C377.202 497.368 376.898 498.805 376.289 500.044C375.688 501.284 374.819 502.252 373.682 502.948C372.553 503.638 371.196 503.982 369.612 503.982ZM369.612 501.485C370.675 501.493 371.559 501.258 372.263 500.781C372.974 500.305 373.506 499.634 373.858 498.768C374.217 497.903 374.397 496.891 374.397 495.732C374.397 494.574 374.217 493.569 373.858 492.718C373.506 491.86 372.974 491.193 372.263 490.716C371.559 490.24 370.675 489.994 369.612 489.979C368.549 489.972 367.665 490.207 366.961 490.683C366.257 491.16 365.725 491.831 365.366 492.696C365.014 493.562 364.838 494.574 364.838 495.732C364.838 496.891 365.014 497.899 365.366 498.757C365.718 499.608 366.246 500.272 366.95 500.748C367.661 501.225 368.549 501.471 369.612 501.485ZM379.392 503.652V487.812H385.937C386.091 487.812 386.289 487.82 386.531 487.834C386.773 487.842 386.996 487.864 387.202 487.9C388.118 488.04 388.874 488.344 389.468 488.813C390.069 489.283 390.513 489.877 390.799 490.595C391.092 491.307 391.239 492.099 391.239 492.971C391.239 493.837 391.092 494.629 390.799 495.347C390.505 496.059 390.058 496.649 389.457 497.118C388.863 497.588 388.111 497.892 387.202 498.031C386.996 498.061 386.769 498.083 386.52 498.097C386.278 498.112 386.083 498.119 385.937 498.119H382.043V503.652H379.392ZM382.043 495.644H385.827C385.973 495.644 386.138 495.637 386.322 495.622C386.505 495.608 386.674 495.578 386.828 495.534C387.268 495.424 387.612 495.23 387.862 494.951C388.118 494.673 388.298 494.357 388.401 494.005C388.511 493.653 388.566 493.309 388.566 492.971C388.566 492.634 388.511 492.289 388.401 491.937C388.298 491.578 388.118 491.259 387.862 490.98C387.612 490.702 387.268 490.507 386.828 490.397C386.674 490.353 386.505 490.328 386.322 490.32C386.138 490.306 385.973 490.298 385.827 490.298H382.043V495.644ZM391.5 506.292V501.166C392.013 501.166 392.442 501.038 392.787 500.781C393.131 500.525 393.406 500.169 393.612 499.714C393.824 499.26 393.989 498.732 394.107 498.13C394.224 497.522 394.316 496.876 394.382 496.194C394.462 495.292 394.532 494.409 394.591 493.543C394.649 492.671 394.704 491.769 394.756 490.837C394.814 489.899 394.88 488.883 394.954 487.79L405.283 487.812V501.166H406.471V506.292H403.831V503.652H394.151V506.292H391.5ZM395.625 501.166H402.632V490.298L397.374 490.276C397.322 491.046 397.278 491.765 397.242 492.432C397.212 493.092 397.172 493.763 397.121 494.445C397.077 495.127 397.014 495.872 396.934 496.678C396.86 497.47 396.78 498.13 396.692 498.658C396.611 499.186 396.49 499.645 396.329 500.033C396.167 500.415 395.933 500.792 395.625 501.166ZM415.589 503.982C414.005 503.982 412.648 503.638 411.519 502.948C410.389 502.252 409.52 501.284 408.912 500.044C408.31 498.805 408.01 497.368 408.01 495.732C408.01 494.097 408.31 492.66 408.912 491.42C409.52 490.181 410.389 489.217 411.519 488.527C412.648 487.831 414.005 487.482 415.589 487.482C417.173 487.482 418.529 487.831 419.659 488.527C420.795 489.217 421.664 490.181 422.266 491.42C422.874 492.66 423.179 494.097 423.179 495.732C423.179 497.368 422.874 498.805 422.266 500.044C421.664 501.284 420.795 502.252 419.659 502.948C418.529 503.638 417.173 503.982 415.589 503.982ZM415.589 501.485C416.652 501.493 417.536 501.258 418.24 500.781C418.951 500.305 419.483 499.634 419.835 498.768C420.194 497.903 420.374 496.891 420.374 495.732C420.374 494.574 420.194 493.569 419.835 492.718C419.483 491.86 418.951 491.193 418.24 490.716C417.536 490.24 416.652 489.994 415.589 489.979C414.525 489.972 413.642 490.207 412.938 490.683C412.234 491.16 411.702 491.831 411.343 492.696C410.991 493.562 410.815 494.574 410.815 495.732C410.815 496.891 410.991 497.899 411.343 498.757C411.695 499.608 412.223 500.272 412.927 500.748C413.638 501.225 414.525 501.471 415.589 501.485ZM432.067 503.982C430.483 503.982 429.126 503.638 427.997 502.948C426.868 502.252 425.999 501.284 425.39 500.044C424.789 498.805 424.488 497.368 424.488 495.732C424.488 494.097 424.789 492.66 425.39 491.42C425.999 490.181 426.868 489.217 427.997 488.527C429.126 487.831 430.483 487.482 432.067 487.482C433.893 487.482 435.415 487.941 436.632 488.857C437.849 489.767 438.704 490.995 439.195 492.542L436.522 493.279C436.214 492.245 435.69 491.439 434.949 490.859C434.208 490.273 433.248 489.979 432.067 489.979C431.004 489.979 430.116 490.218 429.405 490.694C428.701 491.171 428.169 491.842 427.81 492.707C427.458 493.565 427.278 494.574 427.271 495.732C427.271 496.891 427.447 497.903 427.799 498.768C428.158 499.626 428.694 500.294 429.405 500.77C430.116 501.247 431.004 501.485 432.067 501.485C433.248 501.485 434.208 501.192 434.949 500.605C435.69 500.019 436.214 499.212 436.522 498.185L439.195 498.922C438.704 500.47 437.849 501.702 436.632 502.618C435.415 503.528 433.893 503.982 432.067 503.982ZM443.034 503.652L445.124 499.384L439.657 487.812H442.649L446.51 496.59L450.492 487.812H453.319L445.861 503.652H443.034ZM455.172 493.4L455.326 492.256C455.663 492.286 455.931 492.231 456.129 492.091C456.327 491.945 456.459 491.743 456.525 491.486C456.598 491.222 456.617 490.925 456.58 490.595H455.172V487.768H457.889V490.705C457.889 491.666 457.662 492.392 457.207 492.883C456.752 493.375 456.074 493.547 455.172 493.4ZM458.857 493.4L459.011 492.256C459.348 492.286 459.616 492.231 459.814 492.091C460.012 491.945 460.144 491.743 460.21 491.486C460.283 491.222 460.302 490.925 460.265 490.595H458.857V487.768H461.574V490.705C461.574 491.666 461.347 492.392 460.892 492.883C460.437 493.375 459.759 493.547 458.857 493.4Z" fill="#222222"/>
<path d="M526.399 276.982C524.815 276.982 523.458 276.638 522.329 275.948C521.2 275.252 520.331 274.284 519.722 273.044C519.121 271.805 518.82 270.368 518.82 268.732C518.82 267.097 519.121 265.66 519.722 264.42C520.331 263.181 521.2 262.217 522.329 261.527C523.458 260.831 524.815 260.482 526.399 260.482C527.983 260.482 529.34 260.831 530.469 261.527C531.606 262.217 532.475 263.181 533.076 264.42C533.685 265.66 533.989 267.097 533.989 268.732C533.989 270.368 533.685 271.805 533.076 273.044C532.475 274.284 531.606 275.252 530.469 275.948C529.34 276.638 527.983 276.982 526.399 276.982ZM526.399 274.485C527.462 274.493 528.346 274.258 529.05 273.781C529.761 273.305 530.293 272.634 530.645 271.768C531.004 270.903 531.184 269.891 531.184 268.732C531.184 267.574 531.004 266.569 530.645 265.718C530.293 264.86 529.761 264.193 529.05 263.716C528.346 263.24 527.462 262.994 526.399 262.979C525.336 262.972 524.452 263.207 523.748 263.683C523.044 264.16 522.512 264.831 522.153 265.696C521.801 266.562 521.625 267.574 521.625 268.732C521.625 269.891 521.801 270.899 522.153 271.757C522.505 272.608 523.033 273.272 523.737 273.748C524.448 274.225 525.336 274.471 526.399 274.485ZM542.878 276.982C541.294 276.982 539.937 276.638 538.808 275.948C537.678 275.252 536.809 274.284 536.201 273.044C535.599 271.805 535.299 270.368 535.299 268.732C535.299 267.097 535.599 265.66 536.201 264.42C536.809 263.181 537.678 262.217 538.808 261.527C539.937 260.831 541.294 260.482 542.878 260.482C544.462 260.482 545.818 260.831 546.948 261.527C548.084 262.217 548.953 263.181 549.555 264.42C550.163 265.66 550.468 267.097 550.468 268.732C550.468 270.368 550.163 271.805 549.555 273.044C548.953 274.284 548.084 275.252 546.948 275.948C545.818 276.638 544.462 276.982 542.878 276.982ZM542.878 274.485C543.941 274.493 544.825 274.258 545.529 273.781C546.24 273.305 546.772 272.634 547.124 271.768C547.483 270.903 547.663 269.891 547.663 268.732C547.663 267.574 547.483 266.569 547.124 265.718C546.772 264.86 546.24 264.193 545.529 263.716C544.825 263.24 543.941 262.994 542.878 262.979C541.814 262.972 540.931 263.207 540.227 263.683C539.523 264.16 538.991 264.831 538.632 265.696C538.28 266.562 538.104 267.574 538.104 268.732C538.104 269.891 538.28 270.899 538.632 271.757C538.984 272.608 539.512 273.272 540.216 273.748C540.927 274.225 541.814 274.471 542.878 274.485ZM563.683 260.779L563.518 261.923C563.181 261.894 562.913 261.953 562.715 262.099C562.517 262.239 562.382 262.44 562.308 262.704C562.242 262.961 562.231 263.254 562.275 263.584H563.683V266.411H560.966V263.474C560.966 262.514 561.194 261.788 561.648 261.296C562.103 260.798 562.781 260.625 563.683 260.779ZM559.998 260.779L559.833 261.923C559.496 261.894 559.228 261.953 559.03 262.099C558.832 262.239 558.697 262.44 558.623 262.704C558.557 262.961 558.546 263.254 558.59 263.584H559.998V266.411H557.281V263.474C557.281 262.514 557.509 261.788 557.963 261.296C558.418 260.798 559.096 260.625 559.998 260.779ZM563.245 276.652L568.239 260.812H572.122L577.116 276.652H574.388L569.856 262.44H570.45L565.973 276.652H563.245ZM566.028 273.22V270.745H574.344V273.22H566.028ZM579.104 276.652V260.812H581.755V268.16L588.08 260.812H591.336L584.527 268.578L591.798 276.652H588.432L581.755 269.26V276.652H579.104ZM597.155 276.652V263.298H592.029V260.812H604.932V263.298H599.806V276.652H597.155ZM619.406 276.652H616.722V265.487L609.374 276.652H606.69V260.812H609.374V271.977L616.722 260.812H619.406V276.652ZM622.481 276.652V260.812H628.762C629.833 260.812 630.709 261.029 631.391 261.461C632.081 261.887 632.59 262.433 632.92 263.1C633.258 263.768 633.426 264.457 633.426 265.168C633.426 266.041 633.217 266.782 632.799 267.39C632.389 267.999 631.828 268.41 631.116 268.622V268.072C632.114 268.3 632.869 268.773 633.382 269.491C633.903 270.21 634.163 271.028 634.163 271.944C634.163 272.883 633.984 273.704 633.624 274.408C633.265 275.112 632.73 275.662 632.018 276.058C631.314 276.454 630.442 276.652 629.4 276.652H622.481ZM625.165 274.155H629.07C629.532 274.155 629.947 274.064 630.313 273.88C630.68 273.69 630.966 273.426 631.171 273.088C631.384 272.744 631.49 272.337 631.49 271.867C631.49 271.442 631.399 271.061 631.215 270.723C631.032 270.386 630.764 270.118 630.412 269.92C630.06 269.715 629.639 269.612 629.147 269.612H625.165V274.155ZM625.165 267.137H628.729C629.111 267.137 629.452 267.064 629.752 266.917C630.053 266.771 630.291 266.554 630.467 266.268C630.643 265.982 630.731 265.63 630.731 265.212C630.731 264.662 630.555 264.204 630.203 263.837C629.851 263.471 629.36 263.287 628.729 263.287H625.165V267.137ZM636.36 276.652V260.812H639.011V267.478H646.513V260.812H649.153V276.652H646.513V269.964H639.011V276.652H636.36ZM652.215 276.652V260.812H654.866V266.345H658.76C658.907 266.345 659.105 266.353 659.354 266.367C659.604 266.375 659.831 266.397 660.036 266.433C660.946 266.573 661.697 266.877 662.291 267.346C662.893 267.816 663.336 268.41 663.622 269.128C663.916 269.84 664.062 270.628 664.062 271.493C664.062 272.366 663.916 273.162 663.622 273.88C663.336 274.592 662.893 275.182 662.291 275.651C661.697 276.121 660.946 276.425 660.036 276.564C659.831 276.594 659.604 276.616 659.354 276.63C659.112 276.645 658.914 276.652 658.76 276.652H652.215ZM654.866 274.166H658.65C658.804 274.166 658.969 274.159 659.145 274.144C659.329 274.13 659.501 274.104 659.662 274.067C660.095 273.957 660.436 273.763 660.685 273.484C660.942 273.206 661.122 272.89 661.224 272.538C661.334 272.179 661.389 271.831 661.389 271.493C661.389 271.156 661.334 270.811 661.224 270.459C661.122 270.107 660.942 269.792 660.685 269.513C660.436 269.235 660.095 269.04 659.662 268.93C659.501 268.886 659.329 268.857 659.145 268.842C658.969 268.828 658.804 268.82 658.65 268.82H654.866V274.166ZM665.646 276.652V260.812H668.297V276.652H665.646ZM671.358 276.652V260.812H681.588V263.298H674.009V267.203H680.268V269.689H674.009V274.166H681.588V276.652H671.358ZM688.632 276.652V260.812H694.913C695.983 260.812 696.86 261.029 697.542 261.461C698.231 261.887 698.741 262.433 699.071 263.1C699.408 263.768 699.577 264.457 699.577 265.168C699.577 266.041 699.368 266.782 698.95 267.39C698.539 267.999 697.978 268.41 697.267 268.622V268.072C698.264 268.3 699.019 268.773 699.533 269.491C700.053 270.21 700.314 271.028 700.314 271.944C700.314 272.883 700.134 273.704 699.775 274.408C699.415 275.112 698.88 275.662 698.169 276.058C697.465 276.454 696.592 276.652 695.551 276.652H688.632ZM691.316 274.155H695.221C695.683 274.155 696.097 274.064 696.464 273.88C696.83 273.69 697.116 273.426 697.322 273.088C697.534 272.744 697.641 272.337 697.641 271.867C697.641 271.442 697.549 271.061 697.366 270.723C697.182 270.386 696.915 270.118 696.563 269.92C696.211 269.715 695.789 269.612 695.298 269.612H691.316V274.155ZM691.316 267.137H694.88C695.261 267.137 695.602 267.064 695.903 266.917C696.203 266.771 696.442 266.554 696.618 266.268C696.794 265.982 696.882 265.63 696.882 265.212C696.882 264.662 696.706 264.204 696.354 263.837C696.002 263.471 695.51 263.287 694.88 263.287H691.316V267.137ZM709.21 276.982C707.626 276.982 706.269 276.638 705.14 275.948C704.01 275.252 703.141 274.284 702.533 273.044C701.931 271.805 701.631 270.368 701.631 268.732C701.631 267.097 701.931 265.66 702.533 264.42C703.141 263.181 704.01 262.217 705.14 261.527C706.269 260.831 707.626 260.482 709.21 260.482C710.794 260.482 712.15 260.831 713.28 261.527C714.416 262.217 715.285 263.181 715.887 264.42C716.495 265.66 716.8 267.097 716.8 268.732C716.8 270.368 716.495 271.805 715.887 273.044C715.285 274.284 714.416 275.252 713.28 275.948C712.15 276.638 710.794 276.982 709.21 276.982ZM709.21 274.485C710.273 274.493 711.157 274.258 711.861 273.781C712.572 273.305 713.104 272.634 713.456 271.768C713.815 270.903 713.995 269.891 713.995 268.732C713.995 267.574 713.815 266.569 713.456 265.718C713.104 264.86 712.572 264.193 711.861 263.716C711.157 263.24 710.273 262.994 709.21 262.979C708.146 262.972 707.263 263.207 706.559 263.683C705.855 264.16 705.323 264.831 704.964 265.696C704.612 266.562 704.436 267.574 704.436 268.732C704.436 269.891 704.612 270.899 704.964 271.757C705.316 272.608 705.844 273.272 706.548 273.748C707.259 274.225 708.146 274.471 709.21 274.485ZM717.46 276.652V274.43C717.812 274.452 718.109 274.427 718.351 274.353C718.593 274.273 718.794 274.122 718.956 273.902C719.124 273.675 719.271 273.356 719.396 272.945C719.52 272.527 719.641 272.003 719.759 271.372C719.927 270.47 720.067 269.532 720.177 268.556C720.294 267.574 720.393 266.609 720.474 265.663C720.554 264.71 720.617 263.815 720.661 262.979C720.705 262.143 720.741 261.421 720.771 260.812H731.375V276.652H728.724V263.298H723.224C723.187 263.79 723.143 264.384 723.092 265.08C723.048 265.77 722.985 266.518 722.905 267.324C722.831 268.131 722.736 268.967 722.619 269.832C722.509 270.698 722.373 271.548 722.212 272.384C722.065 273.147 721.889 273.833 721.684 274.441C721.478 275.043 721.203 275.541 720.859 275.937C720.521 276.326 720.078 276.586 719.528 276.718C718.985 276.85 718.296 276.828 717.46 276.652ZM741.157 276.982C739.573 276.982 738.216 276.638 737.087 275.948C735.958 275.252 735.089 274.284 734.48 273.044C733.879 271.805 733.578 270.368 733.578 268.732C733.578 267.097 733.879 265.66 734.48 264.42C735.089 263.181 735.958 262.217 737.087 261.527C738.216 260.831 739.573 260.482 741.157 260.482C742.741 260.482 744.098 260.831 745.227 261.527C746.364 262.217 747.233 263.181 747.834 264.42C748.443 265.66 748.747 267.097 748.747 268.732C748.747 270.368 748.443 271.805 747.834 273.044C747.233 274.284 746.364 275.252 745.227 275.948C744.098 276.638 742.741 276.982 741.157 276.982ZM741.157 274.485C742.22 274.493 743.104 274.258 743.808 273.781C744.519 273.305 745.051 272.634 745.403 271.768C745.762 270.903 745.942 269.891 745.942 268.732C745.942 267.574 745.762 266.569 745.403 265.718C745.051 264.86 744.519 264.193 743.808 263.716C743.104 263.24 742.22 262.994 741.157 262.979C740.094 262.972 739.21 263.207 738.506 263.683C737.802 264.16 737.27 264.831 736.911 265.696C736.559 266.562 736.383 267.574 736.383 268.732C736.383 269.891 736.559 270.899 736.911 271.757C737.263 272.608 737.791 273.272 738.495 273.748C739.206 274.225 740.094 274.471 741.157 274.485ZM750.936 276.652V260.812H753.587V267.478H761.089V260.812H763.729V276.652H761.089V269.964H753.587V276.652H750.936ZM770.619 276.652V263.298H765.493V260.812H778.396V263.298H773.27V276.652H770.619ZM780.155 276.652V260.812H790.385V263.298H782.806V267.203H789.065V269.689H782.806V274.166H790.385V276.652H780.155ZM793.024 276.652V260.812H799.569C799.723 260.812 799.921 260.82 800.163 260.834C800.405 260.842 800.629 260.864 800.834 260.9C801.751 261.04 802.506 261.344 803.1 261.813C803.702 262.283 804.145 262.877 804.431 263.595C804.725 264.307 804.871 265.099 804.871 265.971C804.871 266.837 804.725 267.629 804.431 268.347C804.138 269.059 803.691 269.649 803.089 270.118C802.495 270.588 801.744 270.892 800.834 271.031C800.629 271.061 800.402 271.083 800.152 271.097C799.91 271.112 799.716 271.119 799.569 271.119H795.675V276.652H793.024ZM795.675 268.644H799.459C799.606 268.644 799.771 268.637 799.954 268.622C800.138 268.608 800.306 268.578 800.46 268.534C800.9 268.424 801.245 268.23 801.494 267.951C801.751 267.673 801.931 267.357 802.033 267.005C802.143 266.653 802.198 266.309 802.198 265.971C802.198 265.634 802.143 265.289 802.033 264.937C801.931 264.578 801.751 264.259 801.494 263.98C801.245 263.702 800.9 263.507 800.46 263.397C800.306 263.353 800.138 263.328 799.954 263.32C799.771 263.306 799.606 263.298 799.459 263.298H795.675V268.644ZM807.053 276.652V260.812H809.704V266.345H813.598C813.745 266.345 813.943 266.353 814.192 266.367C814.441 266.375 814.669 266.397 814.874 266.433C815.783 266.573 816.535 266.877 817.129 267.346C817.73 267.816 818.174 268.41 818.46 269.128C818.753 269.84 818.9 270.628 818.9 271.493C818.9 272.366 818.753 273.162 818.46 273.88C818.174 274.592 817.73 275.182 817.129 275.651C816.535 276.121 815.783 276.425 814.874 276.564C814.669 276.594 814.441 276.616 814.192 276.63C813.95 276.645 813.752 276.652 813.598 276.652H807.053ZM809.704 274.166H813.488C813.642 274.166 813.807 274.159 813.983 274.144C814.166 274.13 814.339 274.104 814.5 274.067C814.933 273.957 815.274 273.763 815.523 273.484C815.78 273.206 815.959 272.89 816.062 272.538C816.172 272.179 816.227 271.831 816.227 271.493C816.227 271.156 816.172 270.811 816.062 270.459C815.959 270.107 815.78 269.792 815.523 269.513C815.274 269.235 814.933 269.04 814.5 268.93C814.339 268.886 814.166 268.857 813.983 268.842C813.807 268.828 813.642 268.82 813.488 268.82H809.704V274.166ZM820.484 276.652V260.812H823.135V276.652H820.484ZM826.416 266.4L826.57 265.256C826.908 265.286 827.175 265.231 827.373 265.091C827.571 264.945 827.703 264.743 827.769 264.486C827.843 264.222 827.861 263.925 827.824 263.595H826.416V260.768H829.133V263.705C829.133 264.666 828.906 265.392 828.451 265.883C827.997 266.375 827.318 266.547 826.416 266.4ZM830.101 266.4L830.255 265.256C830.593 265.286 830.86 265.231 831.058 265.091C831.256 264.945 831.388 264.743 831.454 264.486C831.528 264.222 831.546 263.925 831.509 263.595H830.101V260.768H832.818V263.705C832.818 264.666 832.591 265.392 832.136 265.883C831.682 266.375 831.003 266.547 830.101 266.4Z" fill="#222222"/>
</svg>
