<svg width="1364" height="910" viewBox="0 0 1364 910" fill="none" xmlns="http://www.w3.org/2000/svg">
<path d="M57.1968 487.101C41.5605 445.474 54.5274 397.538 88.251 353.661C121.971 309.788 176.409 270.025 243.581 244.794C310.753 219.562 377.908 213.652 432.172 224.475C486.443 235.299 527.762 262.843 543.399 304.471C559.035 346.098 546.068 394.033 512.345 437.911C478.625 481.783 424.186 521.546 357.014 546.778C289.842 572.009 222.688 577.92 168.423 567.097C114.152 556.272 72.8331 528.728 57.1968 487.101Z" stroke="#161616" stroke-width="0.74302"/>
<path d="M451.357 757.257C435.613 715.343 448.187 667.261 481.355 623.382C514.519 579.506 568.244 539.88 634.675 514.927C701.106 489.974 767.633 484.43 821.482 495.621C875.336 506.813 916.455 534.726 932.2 576.64C947.944 618.555 935.37 666.636 902.202 710.516C869.037 754.391 815.313 794.017 748.882 818.97C682.451 843.924 615.924 849.467 562.075 838.277C508.221 827.085 467.101 799.172 451.357 757.257Z" stroke="#161616" stroke-width="0.74302"/>
<path d="M988.033 333.758C1035.77 313.623 1090.31 322.124 1139.9 352.208C1189.49 382.293 1234.11 433.948 1261.99 500.053C1289.87 566.157 1295.72 634.167 1282.65 690.678C1269.58 747.19 1237.6 792.174 1189.86 812.309C1142.12 832.445 1087.59 823.944 1038 793.859C988.407 763.775 943.784 712.12 915.904 646.015C888.025 579.911 882.179 511.901 895.248 455.39C908.317 398.878 940.291 353.894 988.033 333.758Z" stroke="#161616" stroke-width="0.74302"/>
<path d="M543.441 532.533C560.269 568.052 551.891 611.464 524.617 652.977C497.346 694.485 451.216 734.035 392.682 761.769C334.148 789.502 274.325 800.152 224.932 794.967C175.531 789.782 136.63 768.771 119.801 733.253C102.973 697.734 111.351 654.323 138.625 612.809C165.896 571.301 212.026 531.751 270.56 504.017C329.094 476.284 388.917 465.634 438.31 470.819C487.711 476.004 526.612 497.015 543.441 532.533Z" stroke="#161616" stroke-width="0.747693"/>
<path d="M403.246 515.971C387.581 474.266 400.69 426.196 434.668 382.164C468.643 338.137 523.449 298.199 591.04 272.81C658.632 247.421 726.177 241.4 780.736 252.172C835.301 262.945 876.815 290.497 892.481 332.201C908.146 373.906 895.037 421.975 861.058 466.008C827.084 510.035 772.278 549.972 704.687 575.362C637.095 600.751 569.549 606.772 514.991 596C460.426 585.227 418.911 557.675 403.246 515.971Z" stroke="#161616" stroke-width="0.747654"/>
<path d="M772.689 363.173C754.146 313.807 764.689 258.814 796.785 209.794C828.882 160.773 882.519 117.751 950.099 92.366C1017.68 66.9814 1086.38 64.0518 1142.81 79.8186C1199.24 95.5854 1243.38 130.038 1261.92 179.404C1280.47 228.77 1269.92 283.763 1237.83 332.783C1205.73 381.804 1152.09 424.827 1084.51 450.211C1016.94 475.596 948.238 478.525 891.806 462.759C835.373 446.992 791.233 412.539 772.689 363.173Z" stroke="#161616" stroke-width="0.747654"/>
<path d="M556.598 436V420.16H567.191V422.646H559.249V426.056H563.143C563.289 426.056 563.484 426.063 563.726 426.078C563.975 426.085 564.202 426.1 564.408 426.122C565.295 426.225 566.036 426.507 566.63 426.969C567.231 427.431 567.682 428.014 567.983 428.718C568.291 429.422 568.445 430.192 568.445 431.028C568.445 431.864 568.294 432.638 567.994 433.349C567.693 434.053 567.242 434.636 566.641 435.098C566.047 435.553 565.302 435.831 564.408 435.934C564.202 435.956 563.979 435.974 563.737 435.989C563.495 435.996 563.297 436 563.143 436H556.598ZM559.249 433.514H563.033C563.179 433.514 563.344 433.507 563.528 433.492C563.711 433.477 563.88 433.455 564.034 433.426C564.694 433.287 565.148 432.979 565.398 432.502C565.647 432.025 565.772 431.534 565.772 431.028C565.772 430.515 565.647 430.023 565.398 429.554C565.148 429.077 564.694 428.769 564.034 428.63C563.88 428.593 563.711 428.571 563.528 428.564C563.344 428.549 563.179 428.542 563.033 428.542H559.249V433.514ZM583.364 436H580.68V424.835L573.332 436H570.648V420.16H573.332V431.325L580.68 420.16H583.364V436ZM592.049 436.33C590.935 436.33 589.959 436.169 589.123 435.846C588.295 435.516 587.598 435.094 587.033 434.581C586.476 434.06 586.047 433.514 585.746 432.942L588.012 431.402C588.188 431.805 588.445 432.194 588.782 432.568C589.12 432.935 589.563 433.239 590.113 433.481C590.663 433.716 591.345 433.833 592.159 433.833C592.944 433.833 593.586 433.716 594.084 433.481C594.583 433.246 594.95 432.938 595.184 432.557C595.419 432.176 595.536 431.761 595.536 431.314C595.536 430.757 595.382 430.328 595.074 430.027C594.766 429.719 594.363 429.506 593.864 429.389C593.366 429.264 592.834 429.195 592.269 429.18C591.756 429.165 591.386 429.154 591.158 429.147C590.931 429.14 590.781 429.136 590.707 429.136C590.634 429.136 590.564 429.136 590.498 429.136V426.628C590.579 426.628 590.715 426.628 590.905 426.628C591.103 426.628 591.305 426.628 591.51 426.628C591.723 426.621 591.895 426.613 592.027 426.606C592.863 426.569 593.549 426.375 594.084 426.023C594.627 425.671 594.898 425.15 594.898 424.461C594.898 423.794 594.645 423.269 594.139 422.888C593.641 422.507 592.977 422.316 592.148 422.316C591.371 422.316 590.685 422.488 590.091 422.833C589.505 423.178 589.061 423.585 588.76 424.054L586.901 422.162C587.437 421.509 588.163 420.959 589.079 420.512C590.003 420.057 591.052 419.83 592.225 419.83C592.915 419.83 593.586 419.922 594.238 420.105C594.891 420.281 595.478 420.552 595.998 420.919C596.519 421.286 596.933 421.755 597.241 422.327C597.549 422.899 597.703 423.581 597.703 424.373C597.703 425.099 597.564 425.77 597.285 426.386C597.014 426.995 596.633 427.493 596.141 427.882C596.838 428.161 597.377 428.586 597.758 429.158C598.147 429.73 598.341 430.452 598.341 431.325C598.341 432.352 598.063 433.239 597.505 433.987C596.948 434.735 596.193 435.314 595.239 435.725C594.293 436.128 593.23 436.33 592.049 436.33ZM600.727 436V420.16H603.378V426.826H610.88V420.16H613.52V436H610.88V429.312H603.378V436H600.727ZM616.603 436V420.16H626.833V422.646H619.254V426.551H625.513V429.037H619.254V433.514H626.833V436H616.603ZM635.506 436.33C633.922 436.33 632.565 435.985 631.436 435.296C630.306 434.599 629.437 433.631 628.829 432.392C628.227 431.153 627.927 429.715 627.927 428.08C627.927 426.445 628.227 425.007 628.829 423.768C629.437 422.529 630.306 421.564 631.436 420.875C632.565 420.178 633.922 419.83 635.506 419.83C637.332 419.83 638.853 420.288 640.071 421.205C641.288 422.114 642.142 423.343 642.634 424.89L639.961 425.627C639.653 424.593 639.128 423.786 638.388 423.207C637.647 422.62 636.686 422.327 635.506 422.327C634.442 422.327 633.555 422.565 632.844 423.042C632.14 423.519 631.608 424.19 631.249 425.055C630.897 425.913 630.717 426.921 630.71 428.08C630.71 429.239 630.886 430.251 631.238 431.116C631.597 431.974 632.132 432.641 632.844 433.118C633.555 433.595 634.442 433.833 635.506 433.833C636.686 433.833 637.647 433.54 638.388 432.953C639.128 432.366 639.653 431.56 639.961 430.533L642.634 431.27C642.142 432.817 641.288 434.049 640.071 434.966C638.853 435.875 637.332 436.33 635.506 436.33ZM644.829 429.114V427.035H651.429V429.114H644.829ZM667.003 436H664.319V424.835L656.971 436H654.287V420.16H656.971V431.325L664.319 420.16H667.003V436ZM670.078 436V420.16H672.729V426.826H680.231V420.16H682.871V436H680.231V429.312H672.729V436H670.078ZM685.955 436V420.16H688.606V427.508L694.931 420.16H698.187L691.378 427.926L698.649 436H695.283L688.606 428.608V436H685.955ZM702.289 436L704.379 431.732L698.912 420.16H701.904L705.765 428.938L709.747 420.16H712.574L705.116 436H702.289ZM714.207 436V420.16H724.8V422.646H716.858V426.056H720.752C720.899 426.056 721.093 426.063 721.335 426.078C721.584 426.085 721.812 426.1 722.017 426.122C722.904 426.225 723.645 426.507 724.239 426.969C724.84 427.431 725.291 428.014 725.592 428.718C725.9 429.422 726.054 430.192 726.054 431.028C726.054 431.864 725.904 432.638 725.603 433.349C725.302 434.053 724.851 434.636 724.25 435.098C723.656 435.553 722.912 435.831 722.017 435.934C721.812 435.956 721.588 435.974 721.346 435.989C721.104 435.996 720.906 436 720.752 436H714.207ZM716.858 433.514H720.642C720.789 433.514 720.954 433.507 721.137 433.492C721.32 433.477 721.489 433.455 721.643 433.426C722.303 433.287 722.758 432.979 723.007 432.502C723.256 432.025 723.381 431.534 723.381 431.028C723.381 430.515 723.256 430.023 723.007 429.554C722.758 429.077 722.303 428.769 721.643 428.63C721.489 428.593 721.32 428.571 721.137 428.564C720.954 428.549 720.789 428.542 720.642 428.542H716.858V433.514ZM726.062 436L731.056 420.16H734.939L739.933 436H737.205L732.673 421.788H733.267L728.79 436H726.062ZM728.845 432.568V430.093H737.161V432.568H728.845ZM744.417 436V422.646H739.291V420.16H752.194V422.646H747.068V436H744.417ZM760.652 436.33C759.068 436.33 757.711 435.985 756.582 435.296C755.453 434.599 754.584 433.631 753.975 432.392C753.374 431.153 753.073 429.715 753.073 428.08C753.073 426.445 753.374 425.007 753.975 423.768C754.584 422.529 755.453 421.564 756.582 420.875C757.711 420.178 759.068 419.83 760.652 419.83C762.236 419.83 763.593 420.178 764.722 420.875C765.859 421.564 766.728 422.529 767.329 423.768C767.938 425.007 768.242 426.445 768.242 428.08C768.242 429.715 767.938 431.153 767.329 432.392C766.728 433.631 765.859 434.599 764.722 435.296C763.593 435.985 762.236 436.33 760.652 436.33ZM760.652 433.833C761.715 433.84 762.599 433.606 763.303 433.129C764.014 432.652 764.546 431.981 764.898 431.116C765.257 430.251 765.437 429.239 765.437 428.08C765.437 426.921 765.257 425.917 764.898 425.066C764.546 424.208 764.014 423.541 763.303 423.064C762.599 422.587 761.715 422.342 760.652 422.327C759.589 422.32 758.705 422.554 758.001 423.031C757.297 423.508 756.765 424.179 756.406 425.044C756.054 425.909 755.878 426.921 755.878 428.08C755.878 429.239 756.054 430.247 756.406 431.105C756.758 431.956 757.286 432.619 757.99 433.096C758.701 433.573 759.589 433.818 760.652 433.833ZM770.432 436V420.16H776.977C777.131 420.16 777.329 420.167 777.571 420.182C777.813 420.189 778.036 420.211 778.242 420.248C779.158 420.387 779.914 420.692 780.508 421.161C781.109 421.63 781.553 422.224 781.839 422.943C782.132 423.654 782.279 424.446 782.279 425.319C782.279 426.184 782.132 426.976 781.839 427.695C781.545 428.406 781.098 428.997 780.497 429.466C779.903 429.935 779.151 430.24 778.242 430.379C778.036 430.408 777.809 430.43 777.56 430.445C777.318 430.46 777.123 430.467 776.977 430.467H773.083V436H770.432ZM773.083 427.992H776.867C777.013 427.992 777.178 427.985 777.362 427.97C777.545 427.955 777.714 427.926 777.868 427.882C778.308 427.772 778.652 427.578 778.902 427.299C779.158 427.02 779.338 426.705 779.441 426.353C779.551 426.001 779.606 425.656 779.606 425.319C779.606 424.982 779.551 424.637 779.441 424.285C779.338 423.926 779.158 423.607 778.902 423.328C778.652 423.049 778.308 422.855 777.868 422.745C777.714 422.701 777.545 422.675 777.362 422.668C777.178 422.653 777.013 422.646 776.867 422.646H773.083V427.992Z" fill="#222222"/>
<path d="M573.11 677.33C571.526 677.33 570.169 676.985 569.04 676.296C567.911 675.599 567.042 674.631 566.433 673.392C565.832 672.153 565.531 670.715 565.531 669.08C565.531 667.445 565.832 666.007 566.433 664.768C567.042 663.529 567.911 662.564 569.04 661.875C570.169 661.178 571.526 660.83 573.11 660.83C574.936 660.83 576.458 661.288 577.675 662.205C578.892 663.114 579.747 664.343 580.238 665.89L577.565 666.627C577.257 665.593 576.733 664.786 575.992 664.207C575.251 663.62 574.291 663.327 573.11 663.327C572.047 663.327 571.159 663.565 570.448 664.042C569.744 664.519 569.212 665.19 568.853 666.055C568.501 666.913 568.321 667.921 568.314 669.08C568.314 670.239 568.49 671.251 568.842 672.116C569.201 672.974 569.737 673.641 570.448 674.118C571.159 674.595 572.047 674.833 573.11 674.833C574.291 674.833 575.251 674.54 575.992 673.953C576.733 673.366 577.257 672.56 577.565 671.533L580.238 672.27C579.747 673.817 578.892 675.049 577.675 675.966C576.458 676.875 574.936 677.33 573.11 677.33ZM586.459 677V663.646H581.333V661.16H594.236V663.646H589.11V677H586.459ZM594.465 677L599.459 661.16H603.342L608.336 677H605.608L601.076 662.788H601.67L597.193 677H594.465ZM597.248 673.568V671.093H605.564V673.568H597.248ZM622.414 679.497V677H610.325V661.16H612.976V674.646H620.654V661.523H623.305V674.646H625.065V679.497H622.414ZM639.541 677H636.857V665.835L629.509 677H626.825V661.16H629.509V672.325L636.857 661.16H639.541V677ZM649.315 677.33C647.731 677.33 646.375 676.985 645.245 676.296C644.116 675.599 643.247 674.631 642.638 673.392C642.037 672.153 641.736 670.715 641.736 669.08C641.736 667.445 642.037 666.007 642.638 664.768C643.247 663.529 644.116 662.564 645.245 661.875C646.375 661.178 647.731 660.83 649.315 660.83C650.899 660.83 652.256 661.178 653.385 661.875C654.522 662.564 655.391 663.529 655.992 664.768C656.601 666.007 656.905 667.445 656.905 669.08C656.905 670.715 656.601 672.153 655.992 673.392C655.391 674.631 654.522 675.599 653.385 676.296C652.256 676.985 650.899 677.33 649.315 677.33ZM649.315 674.833C650.379 674.84 651.262 674.606 651.966 674.129C652.678 673.652 653.209 672.981 653.561 672.116C653.921 671.251 654.1 670.239 654.1 669.08C654.1 667.921 653.921 666.917 653.561 666.066C653.209 665.208 652.678 664.541 651.966 664.064C651.262 663.587 650.379 663.342 649.315 663.327C648.252 663.32 647.368 663.554 646.664 664.031C645.96 664.508 645.429 665.179 645.069 666.044C644.717 666.909 644.541 667.921 644.541 669.08C644.541 670.239 644.717 671.247 645.069 672.105C645.421 672.956 645.949 673.619 646.653 674.096C647.365 674.573 648.252 674.818 649.315 674.833ZM659.095 677V661.16H661.746V667.826H669.248V661.16H671.888V677H669.248V670.312H661.746V677H659.095ZM673.872 677L678.866 661.16H682.749L687.743 677H685.015L680.483 662.788H681.077L676.6 677H673.872ZM676.655 673.568V671.093H684.971V673.568H676.655ZM689.731 677V661.16H696.276C696.43 661.16 696.628 661.167 696.87 661.182C697.112 661.189 697.336 661.211 697.541 661.248C698.458 661.387 699.213 661.692 699.807 662.161C700.409 662.63 700.852 663.224 701.138 663.943C701.432 664.654 701.578 665.446 701.578 666.319C701.578 667.184 701.432 667.976 701.138 668.695C700.845 669.406 700.398 669.997 699.796 670.466C699.202 670.935 698.451 671.24 697.541 671.379C697.336 671.408 697.109 671.43 696.859 671.445C696.617 671.46 696.423 671.467 696.276 671.467H692.382V677H689.731ZM692.382 668.992H696.166C696.313 668.992 696.478 668.985 696.661 668.97C696.845 668.955 697.013 668.926 697.167 668.882C697.607 668.772 697.952 668.578 698.201 668.299C698.458 668.02 698.638 667.705 698.74 667.353C698.85 667.001 698.905 666.656 698.905 666.319C698.905 665.982 698.85 665.637 698.74 665.285C698.638 664.926 698.458 664.607 698.201 664.328C697.952 664.049 697.607 663.855 697.167 663.745C697.013 663.701 696.845 663.675 696.661 663.668C696.478 663.653 696.313 663.646 696.166 663.646H692.382V668.992ZM701.839 679.64V674.514C702.353 674.514 702.782 674.386 703.126 674.129C703.471 673.872 703.746 673.517 703.951 673.062C704.164 672.607 704.329 672.079 704.446 671.478C704.564 670.869 704.655 670.224 704.721 669.542C704.802 668.64 704.872 667.756 704.93 666.891C704.989 666.018 705.044 665.116 705.095 664.185C705.154 663.246 705.22 662.231 705.293 661.138L715.622 661.16V674.514H716.81V679.64H714.17V677H704.49V679.64H701.839ZM705.964 674.514H712.971V663.646L707.713 663.624C707.662 664.394 707.618 665.113 707.581 665.78C707.552 666.44 707.512 667.111 707.46 667.793C707.416 668.475 707.354 669.219 707.273 670.026C707.2 670.818 707.119 671.478 707.031 672.006C706.951 672.534 706.83 672.992 706.668 673.381C706.507 673.762 706.272 674.14 705.964 674.514ZM719.207 677V661.16H721.858V666.693H725.752C725.899 666.693 726.097 666.7 726.346 666.715C726.596 666.722 726.823 666.744 727.028 666.781C727.938 666.92 728.689 667.225 729.283 667.694C729.885 668.163 730.328 668.757 730.614 669.476C730.908 670.187 731.054 670.976 731.054 671.841C731.054 672.714 730.908 673.509 730.614 674.228C730.328 674.939 729.885 675.53 729.283 675.999C728.689 676.468 727.938 676.773 727.028 676.912C726.823 676.941 726.596 676.963 726.346 676.978C726.104 676.993 725.906 677 725.752 677H719.207ZM721.858 674.514H725.642C725.796 674.514 725.961 674.507 726.137 674.492C726.321 674.477 726.493 674.452 726.654 674.415C727.087 674.305 727.428 674.111 727.677 673.832C727.934 673.553 728.114 673.238 728.216 672.886C728.326 672.527 728.381 672.178 728.381 671.841C728.381 671.504 728.326 671.159 728.216 670.807C728.114 670.455 727.934 670.14 727.677 669.861C727.428 669.582 727.087 669.388 726.654 669.278C726.493 669.234 726.321 669.205 726.137 669.19C725.961 669.175 725.796 669.168 725.642 669.168H721.858V674.514ZM732.638 677V661.16H735.289V677H732.638ZM738.351 677V661.16H741.002V668.508L747.327 661.16H750.583L743.774 668.926L751.045 677H747.679L741.002 669.608V677H738.351ZM762.784 677.33C761.604 677.33 760.548 677.147 759.616 676.78C758.685 676.406 757.897 675.849 757.251 675.108C756.606 674.36 756.122 673.432 755.799 672.325L758.395 671.676C758.689 672.615 759.206 673.377 759.946 673.964C760.687 674.551 761.578 674.84 762.619 674.833C763.345 674.818 764.031 674.675 764.676 674.404C765.329 674.133 765.861 673.715 766.271 673.15C766.601 672.732 766.843 672.285 766.997 671.808C767.151 671.324 767.258 670.825 767.316 670.312H761.706V667.826H767.338C767.221 666.931 766.964 666.147 766.568 665.472C766.172 664.79 765.641 664.262 764.973 663.888C764.313 663.507 763.529 663.323 762.619 663.338C761.534 663.345 760.617 663.646 759.869 664.24C759.121 664.834 758.612 665.637 758.34 666.649L755.689 666.275C756.085 664.544 756.899 663.206 758.131 662.26C759.363 661.307 760.914 660.83 762.784 660.83C764.317 660.83 765.633 661.178 766.733 661.875C767.841 662.564 768.691 663.529 769.285 664.768C769.887 666.007 770.191 667.445 770.198 669.08C770.206 670.62 769.916 672.013 769.329 673.26C768.743 674.507 767.892 675.497 766.777 676.23C765.67 676.963 764.339 677.33 762.784 677.33ZM772.403 677V661.16H774.79L780.268 672.38L785.746 661.16H788.133V677H785.658V666.847L780.796 677H779.74L774.889 666.847V677H772.403ZM791.224 677V661.16H801.454V663.646H793.875V667.551H800.134V670.037H793.875V674.514H801.454V677H791.224ZM810.126 677.33C808.542 677.33 807.185 676.985 806.056 676.296C804.926 675.599 804.057 674.631 803.449 673.392C802.847 672.153 802.547 670.715 802.547 669.08C802.547 667.445 802.847 666.007 803.449 664.768C804.057 663.529 804.926 662.564 806.056 661.875C807.185 661.178 808.542 660.83 810.126 660.83C811.952 660.83 813.473 661.288 814.691 662.205C815.908 663.114 816.762 664.343 817.254 665.89L814.581 666.627C814.273 665.593 813.748 664.786 813.008 664.207C812.267 663.62 811.306 663.327 810.126 663.327C809.062 663.327 808.175 663.565 807.464 664.042C806.76 664.519 806.228 665.19 805.869 666.055C805.517 666.913 805.337 667.921 805.33 669.08C805.33 670.239 805.506 671.251 805.858 672.116C806.217 672.974 806.752 673.641 807.464 674.118C808.175 674.595 809.062 674.833 810.126 674.833C811.306 674.833 812.267 674.54 813.008 673.953C813.748 673.366 814.273 672.56 814.581 671.533L817.254 672.27C816.762 673.817 815.908 675.049 814.691 675.966C813.473 676.875 811.952 677.33 810.126 677.33ZM577.568 707.33C575.984 707.33 574.627 706.985 573.498 706.296C572.369 705.599 571.5 704.631 570.891 703.392C570.29 702.153 569.989 700.715 569.989 699.08C569.989 697.445 570.29 696.007 570.891 694.768C571.5 693.529 572.369 692.564 573.498 691.875C574.627 691.178 575.984 690.83 577.568 690.83C579.394 690.83 580.916 691.288 582.133 692.205C583.35 693.114 584.205 694.343 584.696 695.89L582.023 696.627C581.715 695.593 581.191 694.786 580.45 694.207C579.709 693.62 578.749 693.327 577.568 693.327C576.505 693.327 575.617 693.565 574.906 694.042C574.202 694.519 573.67 695.19 573.311 696.055C572.959 696.913 572.779 697.921 572.772 699.08C572.772 700.239 572.948 701.251 573.3 702.116C573.659 702.974 574.195 703.641 574.906 704.118C575.617 704.595 576.505 704.833 577.568 704.833C578.749 704.833 579.709 704.54 580.45 703.953C581.191 703.366 581.715 702.56 582.023 701.533L584.696 702.27C584.205 703.817 583.35 705.049 582.133 705.966C580.916 706.875 579.394 707.33 577.568 707.33ZM593.81 707.33C592.226 707.33 590.87 706.985 589.74 706.296C588.611 705.599 587.742 704.631 587.133 703.392C586.532 702.153 586.231 700.715 586.231 699.08C586.231 697.445 586.532 696.007 587.133 694.768C587.742 693.529 588.611 692.564 589.74 691.875C590.87 691.178 592.226 690.83 593.81 690.83C595.394 690.83 596.751 691.178 597.88 691.875C599.017 692.564 599.886 693.529 600.487 694.768C601.096 696.007 601.4 697.445 601.4 699.08C601.4 700.715 601.096 702.153 600.487 703.392C599.886 704.631 599.017 705.599 597.88 706.296C596.751 706.985 595.394 707.33 593.81 707.33ZM593.81 704.833C594.874 704.84 595.757 704.606 596.461 704.129C597.173 703.652 597.704 702.981 598.056 702.116C598.416 701.251 598.595 700.239 598.595 699.08C598.595 697.921 598.416 696.917 598.056 696.066C597.704 695.208 597.173 694.541 596.461 694.064C595.757 693.587 594.874 693.342 593.81 693.327C592.747 693.32 591.863 693.554 591.159 694.031C590.455 694.508 589.924 695.179 589.564 696.044C589.212 696.909 589.036 697.921 589.036 699.08C589.036 700.239 589.212 701.247 589.564 702.105C589.916 702.956 590.444 703.619 591.148 704.096C591.86 704.573 592.747 704.818 593.81 704.833ZM610.289 707.33C608.705 707.33 607.348 706.985 606.219 706.296C605.089 705.599 604.22 704.631 603.612 703.392C603.01 702.153 602.71 700.715 602.71 699.08C602.71 697.445 603.01 696.007 603.612 694.768C604.22 693.529 605.089 692.564 606.219 691.875C607.348 691.178 608.705 690.83 610.289 690.83C611.873 690.83 613.229 691.178 614.359 691.875C615.495 692.564 616.364 693.529 616.966 694.768C617.574 696.007 617.879 697.445 617.879 699.08C617.879 700.715 617.574 702.153 616.966 703.392C616.364 704.631 615.495 705.599 614.359 706.296C613.229 706.985 611.873 707.33 610.289 707.33ZM610.289 704.833C611.352 704.84 612.236 704.606 612.94 704.129C613.651 703.652 614.183 702.981 614.535 702.116C614.894 701.251 615.074 700.239 615.074 699.08C615.074 697.921 614.894 696.917 614.535 696.066C614.183 695.208 613.651 694.541 612.94 694.064C612.236 693.587 611.352 693.342 610.289 693.327C609.225 693.32 608.342 693.554 607.638 694.031C606.934 694.508 606.402 695.179 606.043 696.044C605.691 696.909 605.515 697.921 605.515 699.08C605.515 700.239 605.691 701.247 606.043 702.105C606.395 702.956 606.923 703.619 607.627 704.096C608.338 704.573 609.225 704.818 610.289 704.833ZM618.792 709.64V704.514C619.305 704.514 619.734 704.386 620.079 704.129C620.423 703.872 620.698 703.517 620.904 703.062C621.116 702.607 621.281 702.079 621.399 701.478C621.516 700.869 621.608 700.224 621.674 699.542C621.754 698.64 621.824 697.756 621.883 696.891C621.941 696.018 621.996 695.116 622.048 694.185C622.106 693.246 622.172 692.231 622.246 691.138L632.575 691.16V704.514H633.763V709.64H631.123V707H621.443V709.64H618.792ZM622.917 704.514H629.924V693.646L624.666 693.624C624.614 694.394 624.57 695.113 624.534 695.78C624.504 696.44 624.464 697.111 624.413 697.793C624.369 698.475 624.306 699.219 624.226 700.026C624.152 700.818 624.072 701.478 623.984 702.006C623.903 702.534 623.782 702.992 623.621 703.381C623.459 703.762 623.225 704.14 622.917 704.514ZM635.082 707L640.076 691.16H643.959L648.953 707H646.225L641.693 692.788H642.287L637.81 707H635.082ZM637.865 703.568V701.093H646.181V703.568H637.865ZM662.045 707.33C660.461 707.33 659.104 706.985 657.975 706.296C656.845 705.599 655.976 704.631 655.368 703.392C654.766 702.153 654.466 700.715 654.466 699.08C654.466 697.445 654.766 696.007 655.368 694.768C655.976 693.529 656.845 692.564 657.975 691.875C659.104 691.178 660.461 690.83 662.045 690.83C663.629 690.83 664.985 691.178 666.115 691.875C667.251 692.564 668.12 693.529 668.722 694.768C669.33 696.007 669.635 697.445 669.635 699.08C669.635 700.715 669.33 702.153 668.722 703.392C668.12 704.631 667.251 705.599 666.115 706.296C664.985 706.985 663.629 707.33 662.045 707.33ZM662.045 704.833C663.108 704.84 663.992 704.606 664.696 704.129C665.407 703.652 665.939 702.981 666.291 702.116C666.65 701.251 666.83 700.239 666.83 699.08C666.83 697.921 666.65 696.917 666.291 696.066C665.939 695.208 665.407 694.541 664.696 694.064C663.992 693.587 663.108 693.342 662.045 693.327C660.981 693.32 660.098 693.554 659.394 694.031C658.69 694.508 658.158 695.179 657.799 696.044C657.447 696.909 657.271 697.921 657.271 699.08C657.271 700.239 657.447 701.247 657.799 702.105C658.151 702.956 658.679 703.619 659.383 704.096C660.094 704.573 660.981 704.818 662.045 704.833ZM671.824 707V691.16H682.417V693.646H674.475V697.056H678.369C678.516 697.056 678.71 697.063 678.952 697.078C679.202 697.085 679.429 697.1 679.634 697.122C680.522 697.225 681.262 697.507 681.856 697.969C682.458 698.431 682.909 699.014 683.209 699.718C683.517 700.422 683.671 701.192 683.671 702.028C683.671 702.864 683.521 703.638 683.22 704.349C682.92 705.053 682.469 705.636 681.867 706.098C681.273 706.553 680.529 706.831 679.634 706.934C679.429 706.956 679.205 706.974 678.963 706.989C678.721 706.996 678.523 707 678.369 707H671.824ZM674.475 704.514H678.259C678.406 704.514 678.571 704.507 678.754 704.492C678.938 704.477 679.106 704.455 679.26 704.426C679.92 704.287 680.375 703.979 680.624 703.502C680.874 703.025 680.998 702.534 680.998 702.028C680.998 701.515 680.874 701.023 680.624 700.554C680.375 700.077 679.92 699.769 679.26 699.63C679.106 699.593 678.938 699.571 678.754 699.564C678.571 699.549 678.406 699.542 678.259 699.542H674.475V704.514ZM686.458 707V693.239H684.302V691.16H689.109V696.693H693.003C693.15 696.693 693.348 696.7 693.597 696.715C693.846 696.722 694.074 696.744 694.279 696.781C695.188 696.92 695.94 697.225 696.534 697.694C697.135 698.163 697.579 698.757 697.865 699.476C698.158 700.187 698.305 700.976 698.305 701.841C698.305 702.714 698.158 703.509 697.865 704.228C697.579 704.939 697.135 705.53 696.534 705.999C695.94 706.468 695.188 706.773 694.279 706.912C694.074 706.941 693.846 706.963 693.597 706.978C693.355 706.993 693.157 707 693.003 707H686.458ZM689.109 704.514H692.893C693.047 704.514 693.212 704.507 693.388 704.492C693.571 704.477 693.744 704.452 693.905 704.415C694.338 704.305 694.679 704.111 694.928 703.832C695.185 703.553 695.364 703.238 695.467 702.886C695.577 702.527 695.632 702.178 695.632 701.841C695.632 701.504 695.577 701.159 695.467 700.807C695.364 700.455 695.185 700.14 694.928 699.861C694.679 699.582 694.338 699.388 693.905 699.278C693.744 699.234 693.571 699.205 693.388 699.19C693.212 699.175 693.047 699.168 692.893 699.168H689.109V704.514ZM700.355 707V691.16H710.585V693.646H703.006V697.551H709.265V700.037H703.006V704.514H710.585V707H700.355ZM713.225 707V691.16H715.876V698.508L722.201 691.16H725.457L718.648 698.926L725.919 707H722.553L715.876 699.608V707H713.225ZM731.275 707V693.646H726.149V691.16H739.052V693.646H733.926V707H731.275ZM753.527 707H750.843V695.835L743.495 707H740.811V691.16H743.495V702.325L750.843 691.16H753.527V707ZM755.502 707V704.778C755.854 704.8 756.151 704.774 756.393 704.701C756.635 704.62 756.836 704.47 756.998 704.25C757.166 704.023 757.313 703.704 757.438 703.293C757.562 702.875 757.683 702.351 757.801 701.72C757.969 700.818 758.109 699.879 758.219 698.904C758.336 697.921 758.435 696.957 758.516 696.011C758.596 695.058 758.659 694.163 758.703 693.327C758.747 692.491 758.783 691.769 758.813 691.16H769.417V707H766.766V693.646H761.266C761.229 694.137 761.185 694.731 761.134 695.428C761.09 696.117 761.027 696.865 760.947 697.672C760.873 698.479 760.778 699.315 760.661 700.18C760.551 701.045 760.415 701.896 760.254 702.732C760.107 703.495 759.931 704.18 759.726 704.789C759.52 705.39 759.245 705.889 758.901 706.285C758.563 706.674 758.12 706.934 757.57 707.066C757.027 707.198 756.338 707.176 755.502 707ZM772.5 707V691.16H782.73V693.646H775.151V697.551H781.41V700.037H775.151V704.514H782.73V707H772.5ZM785.369 707V691.16H791.914C792.068 691.16 792.266 691.167 792.508 691.182C792.75 691.189 792.974 691.211 793.179 691.248C794.096 691.387 794.851 691.692 795.445 692.161C796.046 692.63 796.49 693.224 796.776 693.943C797.069 694.654 797.216 695.446 797.216 696.319C797.216 697.184 797.069 697.976 796.776 698.695C796.483 699.406 796.035 699.997 795.434 700.466C794.84 700.935 794.088 701.24 793.179 701.379C792.974 701.408 792.746 701.43 792.497 701.445C792.255 701.46 792.061 701.467 791.914 701.467H788.02V707H785.369ZM788.02 698.992H791.804C791.951 698.992 792.116 698.985 792.299 698.97C792.482 698.955 792.651 698.926 792.805 698.882C793.245 698.772 793.59 698.578 793.839 698.299C794.096 698.02 794.275 697.705 794.378 697.353C794.488 697.001 794.543 696.656 794.543 696.319C794.543 695.982 794.488 695.637 794.378 695.285C794.275 694.926 794.096 694.607 793.839 694.328C793.59 694.049 793.245 693.855 792.805 693.745C792.651 693.701 792.482 693.675 792.299 693.668C792.116 693.653 791.951 693.646 791.804 693.646H788.02V698.992ZM812.136 707H809.452V695.835L802.104 707H799.42V691.16H802.104V702.325L809.452 691.16H812.136V707Z" fill="#222222"/>
<path d="M1013.96 573H1011.28V561.835L1003.93 573H1001.25V557.16H1003.93V568.325L1011.28 557.16H1013.96V573ZM1017.04 573V557.16H1019.69V563.826H1027.19V557.16H1029.83V573H1027.19V566.312H1019.69V573H1017.04ZM1032.07 575.64V570.514C1032.58 570.514 1033.01 570.386 1033.35 570.129C1033.7 569.872 1033.97 569.517 1034.18 569.062C1034.39 568.607 1034.56 568.079 1034.67 567.478C1034.79 566.869 1034.88 566.224 1034.95 565.542C1035.03 564.64 1035.1 563.756 1035.16 562.891C1035.22 562.018 1035.27 561.116 1035.32 560.185C1035.38 559.246 1035.45 558.231 1035.52 557.138L1045.85 557.16V570.514H1047.04V575.64H1044.4V573H1034.72V575.64H1032.07ZM1036.19 570.514H1043.2V559.646L1037.94 559.624C1037.89 560.394 1037.85 561.113 1037.81 561.78C1037.78 562.44 1037.74 563.111 1037.69 563.793C1037.64 564.475 1037.58 565.219 1037.5 566.026C1037.43 566.818 1037.35 567.478 1037.26 568.006C1037.18 568.534 1037.06 568.992 1036.9 569.381C1036.73 569.762 1036.5 570.14 1036.19 570.514ZM1051.55 573L1053.64 568.732L1048.17 557.16H1051.16L1055.02 565.938L1059 557.16H1061.83L1054.37 573H1051.55ZM1069.28 573.33C1067.7 573.33 1066.34 572.985 1065.21 572.296C1064.08 571.599 1063.21 570.631 1062.61 569.392C1062 568.153 1061.7 566.715 1061.7 565.08C1061.7 563.445 1062 562.007 1062.61 560.768C1063.21 559.529 1064.08 558.564 1065.21 557.875C1066.34 557.178 1067.7 556.83 1069.28 556.83C1071.11 556.83 1072.63 557.288 1073.85 558.205C1075.07 559.114 1075.92 560.343 1076.41 561.89L1073.74 562.627C1073.43 561.593 1072.91 560.786 1072.16 560.207C1071.42 559.62 1070.46 559.327 1069.28 559.327C1068.22 559.327 1067.33 559.565 1066.62 560.042C1065.92 560.519 1065.39 561.19 1065.03 562.055C1064.67 562.913 1064.49 563.921 1064.49 565.08C1064.49 566.239 1064.66 567.251 1065.01 568.116C1065.37 568.974 1065.91 569.641 1066.62 570.118C1067.33 570.595 1068.22 570.833 1069.28 570.833C1070.46 570.833 1071.42 570.54 1072.16 569.953C1072.91 569.366 1073.43 568.56 1073.74 567.533L1076.41 568.27C1075.92 569.817 1075.07 571.049 1073.85 571.966C1072.63 572.875 1071.11 573.33 1069.28 573.33ZM1082.63 573V559.646H1077.51V557.16H1090.41V559.646H1085.28V573H1082.63ZM1092.17 573V557.16H1098.71C1098.87 557.16 1099.06 557.167 1099.31 557.182C1099.55 557.189 1099.77 557.211 1099.98 557.248C1100.89 557.387 1101.65 557.692 1102.24 558.161C1102.85 558.63 1103.29 559.224 1103.57 559.943C1103.87 560.654 1104.01 561.446 1104.01 562.319C1104.01 563.184 1103.87 563.976 1103.57 564.695C1103.28 565.406 1102.83 565.997 1102.23 566.466C1101.64 566.935 1100.89 567.24 1099.98 567.379C1099.77 567.408 1099.55 567.43 1099.3 567.445C1099.05 567.46 1098.86 567.467 1098.71 567.467H1094.82V573H1092.17ZM1094.82 564.992H1098.6C1098.75 564.992 1098.91 564.985 1099.1 564.97C1099.28 564.955 1099.45 564.926 1099.6 564.882C1100.04 564.772 1100.39 564.578 1100.64 564.299C1100.89 564.02 1101.07 563.705 1101.18 563.353C1101.29 563.001 1101.34 562.656 1101.34 562.319C1101.34 561.982 1101.29 561.637 1101.18 561.285C1101.07 560.926 1100.89 560.607 1100.64 560.328C1100.39 560.049 1100.04 559.855 1099.6 559.745C1099.45 559.701 1099.28 559.675 1099.1 559.668C1098.91 559.653 1098.75 559.646 1098.6 559.646H1094.82V564.992ZM1118.93 573H1116.25V561.835L1108.9 573H1106.22V557.16H1108.9V568.325L1116.25 557.16H1118.93V573ZM1120.91 573L1125.9 557.16H1129.79L1134.78 573H1132.05L1127.52 558.788H1128.11L1123.64 573H1120.91ZM1123.69 569.568V567.093H1132.01V569.568H1123.69ZM1136.36 573V570.778C1136.71 570.8 1137.01 570.774 1137.25 570.701C1137.49 570.62 1137.69 570.47 1137.85 570.25C1138.02 570.023 1138.17 569.704 1138.29 569.293C1138.42 568.875 1138.54 568.351 1138.66 567.72C1138.82 566.818 1138.96 565.879 1139.07 564.904C1139.19 563.921 1139.29 562.957 1139.37 562.011C1139.45 561.058 1139.51 560.163 1139.56 559.327C1139.6 558.491 1139.64 557.769 1139.67 557.16H1150.27V573H1147.62V559.646H1142.12C1142.08 560.137 1142.04 560.731 1141.99 561.428C1141.94 562.117 1141.88 562.865 1141.8 563.672C1141.73 564.479 1141.63 565.315 1141.52 566.18C1141.41 567.045 1141.27 567.896 1141.11 568.732C1140.96 569.495 1140.79 570.18 1140.58 570.789C1140.38 571.39 1140.1 571.889 1139.76 572.285C1139.42 572.674 1138.97 572.934 1138.42 573.066C1137.88 573.198 1137.19 573.176 1136.36 573ZM1152.51 575.64V570.514C1153.02 570.514 1153.45 570.386 1153.8 570.129C1154.14 569.872 1154.42 569.517 1154.62 569.062C1154.83 568.607 1155 568.079 1155.12 567.478C1155.23 566.869 1155.32 566.224 1155.39 565.542C1155.47 564.64 1155.54 563.756 1155.6 562.891C1155.66 562.018 1155.71 561.116 1155.76 560.185C1155.82 559.246 1155.89 558.231 1155.96 557.138L1166.29 557.16V570.514H1167.48V575.64H1164.84V573H1155.16V575.64H1152.51ZM1156.63 570.514H1163.64V559.646L1158.38 559.624C1158.33 560.394 1158.29 561.113 1158.25 561.78C1158.22 562.44 1158.18 563.111 1158.13 563.793C1158.09 564.475 1158.02 565.219 1157.94 566.026C1157.87 566.818 1157.79 567.478 1157.7 568.006C1157.62 568.534 1157.5 568.992 1157.34 569.381C1157.18 569.762 1156.94 570.14 1156.63 570.514ZM1169.88 573V557.16H1172.53V562.693H1176.42C1176.57 562.693 1176.77 562.7 1177.02 562.715C1177.26 562.722 1177.49 562.744 1177.7 562.781C1178.61 562.92 1179.36 563.225 1179.95 563.694C1180.55 564.163 1181 564.757 1181.28 565.476C1181.58 566.187 1181.72 566.976 1181.72 567.841C1181.72 568.714 1181.58 569.509 1181.28 570.228C1181 570.939 1180.55 571.53 1179.95 571.999C1179.36 572.468 1178.61 572.773 1177.7 572.912C1177.49 572.941 1177.26 572.963 1177.02 572.978C1176.77 572.993 1176.58 573 1176.42 573H1169.88ZM1172.53 570.514H1176.31C1176.47 570.514 1176.63 570.507 1176.81 570.492C1176.99 570.477 1177.16 570.452 1177.32 570.415C1177.76 570.305 1178.1 570.111 1178.35 569.832C1178.6 569.553 1178.78 569.238 1178.89 568.886C1179 568.527 1179.05 568.178 1179.05 567.841C1179.05 567.504 1179 567.159 1178.89 566.807C1178.78 566.455 1178.6 566.14 1178.35 565.861C1178.1 565.582 1177.76 565.388 1177.32 565.278C1177.16 565.234 1176.99 565.205 1176.81 565.19C1176.63 565.175 1176.47 565.168 1176.31 565.168H1172.53V570.514ZM1183.31 573V557.16H1185.96V573H1183.31ZM1189.02 573V557.16H1191.67V564.508L1198 557.16H1201.25L1194.44 564.926L1201.71 573H1198.35L1191.67 565.608V573H1189.02ZM1067.96 603L1073.92 594.926L1068.42 587.16H1071.59L1076.48 594.321V587.16H1079.13V594.321L1084.03 587.16H1087.2L1081.7 594.926L1087.66 603H1084.39L1079.13 595.795V603H1076.48V595.795L1071.23 603H1067.96ZM1088.31 603L1093.3 587.16H1097.18L1102.18 603H1099.45L1094.92 588.788H1095.51L1091.04 603H1088.31ZM1091.09 599.568V597.093H1099.41V599.568H1091.09ZM1104.17 603V587.16H1106.82V593.826H1114.32V587.16H1116.96V603H1114.32V596.312H1106.82V603H1104.17ZM1118.94 603L1123.94 587.16H1127.82L1132.81 603H1130.09L1125.55 588.788H1126.15L1121.67 603H1118.94ZM1121.73 599.568V597.093H1130.04V599.568H1121.73ZM1007.81 633V619.646H1002.69V617.16H1015.59V619.646H1010.46V633H1007.81ZM1017.35 633V617.16H1027.58V619.646H1020V623.551H1026.26V626.037H1020V630.514H1027.58V633H1017.35ZM1028.9 633L1034.27 624.992L1029.05 617.16H1032.3L1035.9 622.737L1039.48 617.16H1042.75L1037.53 624.992L1042.88 633H1039.63L1035.9 627.247L1032.16 633H1028.9ZM1044.63 633V617.16H1047.28V623.826H1054.79V617.16H1057.43V633H1054.79V626.312H1047.28V633H1044.63ZM1067.21 633.33C1065.63 633.33 1064.27 632.985 1063.14 632.296C1062.01 631.599 1061.14 630.631 1060.53 629.392C1059.93 628.153 1059.63 626.715 1059.63 625.08C1059.63 623.445 1059.93 622.007 1060.53 620.768C1061.14 619.529 1062.01 618.564 1063.14 617.875C1064.27 617.178 1065.63 616.83 1067.21 616.83C1068.79 616.83 1070.15 617.178 1071.28 617.875C1072.42 618.564 1073.29 619.529 1073.89 620.768C1074.5 622.007 1074.8 623.445 1074.8 625.08C1074.8 626.715 1074.5 628.153 1073.89 629.392C1073.29 630.631 1072.42 631.599 1071.28 632.296C1070.15 632.985 1068.79 633.33 1067.21 633.33ZM1067.21 630.833C1068.27 630.84 1069.16 630.606 1069.86 630.129C1070.57 629.652 1071.1 628.981 1071.46 628.116C1071.82 627.251 1071.99 626.239 1071.99 625.08C1071.99 623.921 1071.82 622.917 1071.46 622.066C1071.1 621.208 1070.57 620.541 1069.86 620.064C1069.16 619.587 1068.27 619.342 1067.21 619.327C1066.15 619.32 1065.26 619.554 1064.56 620.031C1063.85 620.508 1063.32 621.179 1062.96 622.044C1062.61 622.909 1062.44 623.921 1062.44 625.08C1062.44 626.239 1062.61 627.247 1062.96 628.105C1063.32 628.956 1063.84 629.619 1064.55 630.096C1065.26 630.573 1066.15 630.818 1067.21 630.833ZM1075.46 633V630.778C1075.81 630.8 1076.11 630.774 1076.35 630.701C1076.59 630.62 1076.79 630.47 1076.96 630.25C1077.12 630.023 1077.27 629.704 1077.4 629.293C1077.52 628.875 1077.64 628.351 1077.76 627.72C1077.93 626.818 1078.07 625.879 1078.18 624.904C1078.29 623.921 1078.39 622.957 1078.47 622.011C1078.55 621.058 1078.62 620.163 1078.66 619.327C1078.7 618.491 1078.74 617.769 1078.77 617.16H1089.37V633H1086.72V619.646H1081.22C1081.19 620.137 1081.14 620.731 1081.09 621.428C1081.05 622.117 1080.99 622.865 1080.9 623.672C1080.83 624.479 1080.74 625.315 1080.62 626.18C1080.51 627.045 1080.37 627.896 1080.21 628.732C1080.06 629.495 1079.89 630.18 1079.68 630.789C1079.48 631.39 1079.2 631.889 1078.86 632.285C1078.52 632.674 1078.08 632.934 1077.53 633.066C1076.98 633.198 1076.3 633.176 1075.46 633ZM1099.16 633.33C1097.57 633.33 1096.22 632.985 1095.09 632.296C1093.96 631.599 1093.09 630.631 1092.48 629.392C1091.88 628.153 1091.58 626.715 1091.58 625.08C1091.58 623.445 1091.88 622.007 1092.48 620.768C1093.09 619.529 1093.96 618.564 1095.09 617.875C1096.22 617.178 1097.57 616.83 1099.16 616.83C1100.74 616.83 1102.1 617.178 1103.23 617.875C1104.36 618.564 1105.23 619.529 1105.83 620.768C1106.44 622.007 1106.75 623.445 1106.75 625.08C1106.75 626.715 1106.44 628.153 1105.83 629.392C1105.23 630.631 1104.36 631.599 1103.23 632.296C1102.1 632.985 1100.74 633.33 1099.16 633.33ZM1099.16 630.833C1100.22 630.84 1101.1 630.606 1101.81 630.129C1102.52 629.652 1103.05 628.981 1103.4 628.116C1103.76 627.251 1103.94 626.239 1103.94 625.08C1103.94 623.921 1103.76 622.917 1103.4 622.066C1103.05 621.208 1102.52 620.541 1101.81 620.064C1101.1 619.587 1100.22 619.342 1099.16 619.327C1098.09 619.32 1097.21 619.554 1096.51 620.031C1095.8 620.508 1095.27 621.179 1094.91 622.044C1094.56 622.909 1094.38 623.921 1094.38 625.08C1094.38 626.239 1094.56 627.247 1094.91 628.105C1095.26 628.956 1095.79 629.619 1096.49 630.096C1097.21 630.573 1098.09 630.818 1099.16 630.833ZM1108.94 633V617.16H1119.17V619.646H1111.59V633H1108.94ZM1133.64 633H1130.96V621.835L1123.61 633H1120.92V617.16H1123.61V628.325L1130.96 617.16H1133.64V633ZM1148.16 633H1145.52V627.467H1141.42L1140.29 627.368C1138.94 627.148 1137.94 626.576 1137.29 625.652C1136.64 624.721 1136.31 623.61 1136.31 622.319C1136.31 621.446 1136.46 620.654 1136.75 619.943C1137.04 619.224 1137.49 618.63 1138.08 618.161C1138.67 617.692 1139.43 617.387 1140.35 617.248C1140.56 617.211 1140.78 617.189 1141.02 617.182C1141.26 617.167 1141.46 617.16 1141.61 617.16H1148.16V633ZM1139.06 633H1136.06L1139.49 625.96L1142.18 626.554L1139.06 633ZM1145.52 624.992V619.646H1141.72C1141.57 619.646 1141.41 619.653 1141.23 619.668C1141.04 619.675 1140.87 619.701 1140.72 619.745C1140.28 619.855 1139.93 620.049 1139.67 620.328C1139.43 620.607 1139.25 620.926 1139.15 621.285C1139.04 621.637 1138.99 621.982 1138.99 622.319C1138.99 622.656 1139.04 623.001 1139.15 623.353C1139.25 623.705 1139.43 624.02 1139.67 624.299C1139.93 624.578 1140.28 624.772 1140.72 624.882C1140.87 624.926 1141.04 624.955 1141.23 624.97C1141.41 624.985 1141.57 624.992 1141.72 624.992H1145.52ZM1150.14 633V630.778C1150.49 630.8 1150.79 630.774 1151.03 630.701C1151.27 630.62 1151.47 630.47 1151.64 630.25C1151.8 630.023 1151.95 629.704 1152.08 629.293C1152.2 628.875 1152.32 628.351 1152.44 627.72C1152.61 626.818 1152.75 625.879 1152.86 624.904C1152.97 623.921 1153.07 622.957 1153.15 622.011C1153.23 621.058 1153.3 620.163 1153.34 619.327C1153.38 618.491 1153.42 617.769 1153.45 617.16H1164.05V633H1161.4V619.646H1155.9C1155.87 620.137 1155.82 620.731 1155.77 621.428C1155.73 622.117 1155.66 622.865 1155.58 623.672C1155.51 624.479 1155.42 625.315 1155.3 626.18C1155.19 627.045 1155.05 627.896 1154.89 628.732C1154.74 629.495 1154.57 630.18 1154.36 630.789C1154.16 631.39 1153.88 631.889 1153.54 632.285C1153.2 632.674 1152.76 632.934 1152.21 633.066C1151.66 633.198 1150.98 633.176 1150.14 633ZM1167.12 633V617.16H1169.77V622.693H1173.66C1173.81 622.693 1174.01 622.7 1174.25 622.715C1174.5 622.722 1174.73 622.744 1174.94 622.781C1175.85 622.92 1176.6 623.225 1177.19 623.694C1177.79 624.163 1178.24 624.757 1178.52 625.476C1178.82 626.187 1178.96 626.976 1178.96 627.841C1178.96 628.714 1178.82 629.509 1178.52 630.228C1178.24 630.939 1177.79 631.53 1177.19 631.999C1176.6 632.468 1175.85 632.773 1174.94 632.912C1174.73 632.941 1174.5 632.963 1174.25 632.978C1174.01 632.993 1173.81 633 1173.66 633H1167.12ZM1169.77 630.514H1173.55C1173.7 630.514 1173.87 630.507 1174.05 630.492C1174.23 630.477 1174.4 630.452 1174.56 630.415C1175 630.305 1175.34 630.111 1175.59 629.832C1175.84 629.553 1176.02 629.238 1176.12 628.886C1176.23 628.527 1176.29 628.178 1176.29 627.841C1176.29 627.504 1176.23 627.159 1176.12 626.807C1176.02 626.455 1175.84 626.14 1175.59 625.861C1175.34 625.582 1175 625.388 1174.56 625.278C1174.4 625.234 1174.23 625.205 1174.05 625.19C1173.87 625.175 1173.7 625.168 1173.55 625.168H1169.77V630.514ZM1180.55 633V617.16H1183.2V633H1180.55ZM1186.26 633V617.16H1188.91V624.508L1195.23 617.16H1198.49L1191.68 624.926L1198.95 633H1195.59L1188.91 625.608V633H1186.26ZM1051.69 663V647.16H1064.53V663H1061.88V649.646H1054.34V663H1051.69ZM1066.51 663L1071.51 647.16H1075.39L1080.38 663H1077.65L1073.12 648.788H1073.72L1069.24 663H1066.51ZM1069.29 659.568V657.093H1077.61V659.568H1069.29ZM1082.37 663V647.16H1088.92C1089.07 647.16 1089.27 647.167 1089.51 647.182C1089.75 647.189 1089.98 647.211 1090.18 647.248C1091.1 647.387 1091.85 647.692 1092.45 648.161C1093.05 648.63 1093.49 649.224 1093.78 649.943C1094.07 650.654 1094.22 651.446 1094.22 652.319C1094.22 653.184 1094.07 653.976 1093.78 654.695C1093.48 655.406 1093.04 655.997 1092.44 656.466C1091.84 656.935 1091.09 657.24 1090.18 657.379C1089.98 657.408 1089.75 657.43 1089.5 657.445C1089.26 657.46 1089.06 657.467 1088.92 657.467H1085.02V663H1082.37ZM1085.02 654.992H1088.81C1088.95 654.992 1089.12 654.985 1089.3 654.97C1089.48 654.955 1089.65 654.926 1089.81 654.882C1090.25 654.772 1090.59 654.578 1090.84 654.299C1091.1 654.02 1091.28 653.705 1091.38 653.353C1091.49 653.001 1091.55 652.656 1091.55 652.319C1091.55 651.982 1091.49 651.637 1091.38 651.285C1091.28 650.926 1091.1 650.607 1090.84 650.328C1090.59 650.049 1090.25 649.855 1089.81 649.745C1089.65 649.701 1089.48 649.675 1089.3 649.668C1089.12 649.653 1088.95 649.646 1088.81 649.646H1085.02V654.992ZM1096.42 663V647.16H1099.07V654.508L1105.4 647.16H1108.65L1101.84 654.926L1109.12 663H1105.75L1099.07 655.608V663H1096.42ZM1114.47 663V649.646H1109.35V647.16H1122.25V649.646H1117.12V663H1114.47ZM1122.48 663L1127.47 647.16H1131.36L1136.35 663H1133.62L1129.09 648.788H1129.68L1125.21 663H1122.48ZM1125.26 659.568V657.093H1133.58V659.568H1125.26ZM1138.34 663V647.16H1144.88C1145.04 647.16 1145.23 647.167 1145.48 647.182C1145.72 647.189 1145.94 647.211 1146.15 647.248C1147.06 647.387 1147.82 647.692 1148.41 648.161C1149.02 648.63 1149.46 649.224 1149.74 649.943C1150.04 650.654 1150.18 651.446 1150.18 652.319C1150.18 653.184 1150.04 653.976 1149.74 654.695C1149.45 655.406 1149 655.997 1148.4 656.466C1147.81 656.935 1147.06 657.24 1146.15 657.379C1145.94 657.408 1145.72 657.43 1145.47 657.445C1145.22 657.46 1145.03 657.467 1144.88 657.467H1140.99V663H1138.34ZM1140.99 654.992H1144.77C1144.92 654.992 1145.08 654.985 1145.27 654.97C1145.45 654.955 1145.62 654.926 1145.77 654.882C1146.21 654.772 1146.56 654.578 1146.81 654.299C1147.06 654.02 1147.24 653.705 1147.35 653.353C1147.46 653.001 1147.51 652.656 1147.51 652.319C1147.51 651.982 1147.46 651.637 1147.35 651.285C1147.24 650.926 1147.06 650.607 1146.81 650.328C1146.56 650.049 1146.21 649.855 1145.77 649.745C1145.62 649.701 1145.45 649.675 1145.27 649.668C1145.08 649.653 1144.92 649.646 1144.77 649.646H1140.99V654.992Z" fill="#222222"/>
<path d="M240.954 662V646.16H243.605V653.508L249.93 646.16H253.186L246.377 653.926L253.648 662H250.282L243.605 654.608V662H240.954ZM261.038 662.33C259.454 662.33 258.097 661.985 256.968 661.296C255.838 660.599 254.969 659.631 254.361 658.392C253.759 657.153 253.459 655.715 253.459 654.08C253.459 652.445 253.759 651.007 254.361 649.768C254.969 648.529 255.838 647.564 256.968 646.875C258.097 646.178 259.454 645.83 261.038 645.83C262.622 645.83 263.978 646.178 265.108 646.875C266.244 647.564 267.113 648.529 267.715 649.768C268.323 651.007 268.628 652.445 268.628 654.08C268.628 655.715 268.323 657.153 267.715 658.392C267.113 659.631 266.244 660.599 265.108 661.296C263.978 661.985 262.622 662.33 261.038 662.33ZM261.038 659.833C262.101 659.84 262.985 659.606 263.689 659.129C264.4 658.652 264.932 657.981 265.284 657.116C265.643 656.251 265.823 655.239 265.823 654.08C265.823 652.921 265.643 651.917 265.284 651.066C264.932 650.208 264.4 649.541 263.689 649.064C262.985 648.587 262.101 648.342 261.038 648.327C259.974 648.32 259.091 648.554 258.387 649.031C257.683 649.508 257.151 650.179 256.792 651.044C256.44 651.909 256.264 652.921 256.264 654.08C256.264 655.239 256.44 656.247 256.792 657.105C257.144 657.956 257.672 658.619 258.376 659.096C259.087 659.573 259.974 659.818 261.038 659.833ZM270.817 662V646.16H277.098C278.169 646.16 279.045 646.376 279.727 646.809C280.417 647.234 280.926 647.781 281.256 648.448C281.594 649.115 281.762 649.805 281.762 650.516C281.762 651.389 281.553 652.129 281.135 652.738C280.725 653.347 280.164 653.757 279.452 653.97V653.42C280.45 653.647 281.205 654.12 281.718 654.839C282.239 655.558 282.499 656.375 282.499 657.292C282.499 658.231 282.32 659.052 281.96 659.756C281.601 660.46 281.066 661.01 280.354 661.406C279.65 661.802 278.778 662 277.736 662H270.817ZM273.501 659.503H277.406C277.868 659.503 278.283 659.411 278.649 659.228C279.016 659.037 279.302 658.773 279.507 658.436C279.72 658.091 279.826 657.684 279.826 657.215C279.826 656.79 279.735 656.408 279.551 656.071C279.368 655.734 279.1 655.466 278.748 655.268C278.396 655.063 277.975 654.96 277.483 654.96H273.501V659.503ZM273.501 652.485H277.065C277.447 652.485 277.788 652.412 278.088 652.265C278.389 652.118 278.627 651.902 278.803 651.616C278.979 651.33 279.067 650.978 279.067 650.56C279.067 650.01 278.891 649.552 278.539 649.185C278.187 648.818 277.696 648.635 277.065 648.635H273.501V652.485ZM291.395 662.33C289.811 662.33 288.455 661.985 287.325 661.296C286.196 660.599 285.327 659.631 284.718 658.392C284.117 657.153 283.816 655.715 283.816 654.08C283.816 652.445 284.117 651.007 284.718 649.768C285.327 648.529 286.196 647.564 287.325 646.875C288.455 646.178 289.811 645.83 291.395 645.83C292.979 645.83 294.336 646.178 295.465 646.875C296.602 647.564 297.471 648.529 298.072 649.768C298.681 651.007 298.985 652.445 298.985 654.08C298.985 655.715 298.681 657.153 298.072 658.392C297.471 659.631 296.602 660.599 295.465 661.296C294.336 661.985 292.979 662.33 291.395 662.33ZM291.395 659.833C292.459 659.84 293.342 659.606 294.046 659.129C294.758 658.652 295.289 657.981 295.641 657.116C296.001 656.251 296.18 655.239 296.18 654.08C296.18 652.921 296.001 651.917 295.641 651.066C295.289 650.208 294.758 649.541 294.046 649.064C293.342 648.587 292.459 648.342 291.395 648.327C290.332 648.32 289.448 648.554 288.744 649.031C288.04 649.508 287.509 650.179 287.149 651.044C286.797 651.909 286.621 652.921 286.621 654.08C286.621 655.239 286.797 656.247 287.149 657.105C287.501 657.956 288.029 658.619 288.733 659.096C289.445 659.573 290.332 659.818 291.395 659.833ZM301.175 662V646.16H307.72C307.874 646.16 308.072 646.167 308.314 646.182C308.556 646.189 308.779 646.211 308.985 646.248C309.901 646.387 310.657 646.692 311.251 647.161C311.852 647.63 312.296 648.224 312.582 648.943C312.875 649.654 313.022 650.446 313.022 651.319C313.022 652.184 312.875 652.976 312.582 653.695C312.288 654.406 311.841 654.997 311.24 655.466C310.646 655.935 309.894 656.24 308.985 656.379C308.779 656.408 308.552 656.43 308.303 656.445C308.061 656.46 307.866 656.467 307.72 656.467H303.826V662H301.175ZM303.826 653.992H307.61C307.756 653.992 307.921 653.985 308.105 653.97C308.288 653.955 308.457 653.926 308.611 653.882C309.051 653.772 309.395 653.578 309.645 653.299C309.901 653.02 310.081 652.705 310.184 652.353C310.294 652.001 310.349 651.656 310.349 651.319C310.349 650.982 310.294 650.637 310.184 650.285C310.081 649.926 309.901 649.607 309.645 649.328C309.395 649.049 309.051 648.855 308.611 648.745C308.457 648.701 308.288 648.675 308.105 648.668C307.921 648.653 307.756 648.646 307.61 648.646H303.826V653.992ZM315.226 662V646.16H317.877V653.508L324.202 646.16H327.458L320.649 653.926L327.92 662H324.554L317.877 654.608V662H315.226ZM342.186 662H339.502V650.835L332.154 662H329.47V646.16H332.154V657.325L339.502 646.16H342.186V662ZM345.261 662V646.16H347.912V652.826H355.414V646.16H358.054V662H355.414V655.312H347.912V662H345.261ZM361.138 662V646.16H371.368V648.646H363.789V662H361.138Z" fill="#222222"/>
<path d="M141.239 383.33C139.655 383.33 138.298 382.985 137.169 382.296C136.04 381.599 135.171 380.631 134.562 379.392C133.961 378.153 133.66 376.715 133.66 375.08C133.66 373.445 133.961 372.007 134.562 370.768C135.171 369.529 136.04 368.564 137.169 367.875C138.298 367.178 139.655 366.83 141.239 366.83C143.065 366.83 144.587 367.288 145.804 368.205C147.021 369.114 147.876 370.343 148.367 371.89L145.694 372.627C145.386 371.593 144.862 370.786 144.121 370.207C143.38 369.62 142.42 369.327 141.239 369.327C140.176 369.327 139.288 369.565 138.577 370.042C137.873 370.519 137.341 371.19 136.982 372.055C136.63 372.913 136.45 373.921 136.443 375.08C136.443 376.239 136.619 377.251 136.971 378.116C137.33 378.974 137.866 379.641 138.577 380.118C139.288 380.595 140.176 380.833 141.239 380.833C142.42 380.833 143.38 380.54 144.121 379.953C144.862 379.366 145.386 378.56 145.694 377.533L148.367 378.27C147.876 379.817 147.021 381.049 145.804 381.966C144.587 382.875 143.065 383.33 141.239 383.33ZM149.253 383L154.247 367.16H158.13L163.124 383H160.396L155.864 368.788H156.458L151.981 383H149.253ZM152.036 379.568V377.093H160.352V379.568H152.036ZM176.552 383H173.912V377.467H169.82L168.687 377.368C167.338 377.148 166.337 376.576 165.684 375.652C165.032 374.721 164.705 373.61 164.705 372.319C164.705 371.446 164.852 370.654 165.145 369.943C165.439 369.224 165.882 368.63 166.476 368.161C167.07 367.692 167.826 367.387 168.742 367.248C168.955 367.211 169.179 367.189 169.413 367.182C169.655 367.167 169.853 367.16 170.007 367.16H176.552V383ZM167.455 383H164.452L167.884 375.96L170.579 376.554L167.455 383ZM173.912 374.992V369.646H170.117C169.971 369.646 169.806 369.653 169.622 369.668C169.439 369.675 169.27 369.701 169.116 369.745C168.676 369.855 168.328 370.049 168.071 370.328C167.822 370.607 167.646 370.926 167.543 371.285C167.441 371.637 167.389 371.982 167.389 372.319C167.389 372.656 167.441 373.001 167.543 373.353C167.646 373.705 167.822 374.02 168.071 374.299C168.328 374.578 168.676 374.772 169.116 374.882C169.27 374.926 169.439 374.955 169.622 374.97C169.806 374.985 169.971 374.992 170.117 374.992H173.912ZM179.636 383V367.16H182.287V374.508L188.612 367.16H191.868L185.059 374.926L192.33 383H188.964L182.287 375.608V383H179.636ZM192.78 383L197.774 367.16H201.657L206.651 383H203.923L199.391 368.788H199.985L195.508 383H192.78ZM195.563 379.568V377.093H203.879V379.568H195.563ZM211.135 383V369.646H206.009V367.16H218.912V369.646H213.786V383H211.135ZM231.108 383.33C229.524 383.33 228.167 382.985 227.038 382.296C225.909 381.599 225.04 380.631 224.431 379.392C223.83 378.153 223.529 376.715 223.529 375.08C223.529 373.445 223.83 372.007 224.431 370.768C225.04 369.529 225.909 368.564 227.038 367.875C228.167 367.178 229.524 366.83 231.108 366.83C232.934 366.83 234.456 367.288 235.673 368.205C236.89 369.114 237.745 370.343 238.236 371.89L235.563 372.627C235.255 371.593 234.731 370.786 233.99 370.207C233.249 369.62 232.289 369.327 231.108 369.327C230.045 369.327 229.157 369.565 228.446 370.042C227.742 370.519 227.21 371.19 226.851 372.055C226.499 372.913 226.319 373.921 226.312 375.08C226.312 376.239 226.488 377.251 226.84 378.116C227.199 378.974 227.735 379.641 228.446 380.118C229.157 380.595 230.045 380.833 231.108 380.833C232.289 380.833 233.249 380.54 233.99 379.953C234.731 379.366 235.255 378.56 235.563 377.533L238.236 378.27C237.745 379.817 236.89 381.049 235.673 381.966C234.456 382.875 232.934 383.33 231.108 383.33ZM247.35 383.33C245.766 383.33 244.41 382.985 243.28 382.296C242.151 381.599 241.282 380.631 240.673 379.392C240.072 378.153 239.771 376.715 239.771 375.08C239.771 373.445 240.072 372.007 240.673 370.768C241.282 369.529 242.151 368.564 243.28 367.875C244.41 367.178 245.766 366.83 247.35 366.83C248.934 366.83 250.291 367.178 251.42 367.875C252.557 368.564 253.426 369.529 254.027 370.768C254.636 372.007 254.94 373.445 254.94 375.08C254.94 376.715 254.636 378.153 254.027 379.392C253.426 380.631 252.557 381.599 251.42 382.296C250.291 382.985 248.934 383.33 247.35 383.33ZM247.35 380.833C248.414 380.84 249.297 380.606 250.001 380.129C250.713 379.652 251.244 378.981 251.596 378.116C251.956 377.251 252.135 376.239 252.135 375.08C252.135 373.921 251.956 372.917 251.596 372.066C251.244 371.208 250.713 370.541 250.001 370.064C249.297 369.587 248.414 369.342 247.35 369.327C246.287 369.32 245.403 369.554 244.699 370.031C243.995 370.508 243.464 371.179 243.104 372.044C242.752 372.909 242.576 373.921 242.576 375.08C242.576 376.239 242.752 377.247 243.104 378.105C243.456 378.956 243.984 379.619 244.688 380.096C245.4 380.573 246.287 380.818 247.35 380.833ZM263.829 383.33C262.245 383.33 260.888 382.985 259.759 382.296C258.63 381.599 257.761 380.631 257.152 379.392C256.551 378.153 256.25 376.715 256.25 375.08C256.25 373.445 256.551 372.007 257.152 370.768C257.761 369.529 258.63 368.564 259.759 367.875C260.888 367.178 262.245 366.83 263.829 366.83C265.413 366.83 266.77 367.178 267.899 367.875C269.036 368.564 269.905 369.529 270.506 370.768C271.115 372.007 271.419 373.445 271.419 375.08C271.419 376.715 271.115 378.153 270.506 379.392C269.905 380.631 269.036 381.599 267.899 382.296C266.77 382.985 265.413 383.33 263.829 383.33ZM263.829 380.833C264.892 380.84 265.776 380.606 266.48 380.129C267.191 379.652 267.723 378.981 268.075 378.116C268.434 377.251 268.614 376.239 268.614 375.08C268.614 373.921 268.434 372.917 268.075 372.066C267.723 371.208 267.191 370.541 266.48 370.064C265.776 369.587 264.892 369.342 263.829 369.327C262.766 369.32 261.882 369.554 261.178 370.031C260.474 370.508 259.942 371.179 259.583 372.044C259.231 372.909 259.055 373.921 259.055 375.08C259.055 376.239 259.231 377.247 259.583 378.105C259.935 378.956 260.463 379.619 261.167 380.096C261.878 380.573 262.766 380.818 263.829 380.833ZM272.332 385.64V380.514C272.845 380.514 273.274 380.386 273.619 380.129C273.963 379.872 274.238 379.517 274.444 379.062C274.656 378.607 274.821 378.079 274.939 377.478C275.056 376.869 275.148 376.224 275.214 375.542C275.294 374.64 275.364 373.756 275.423 372.891C275.481 372.018 275.536 371.116 275.588 370.185C275.646 369.246 275.712 368.231 275.786 367.138L286.115 367.16V380.514H287.303V385.64H284.663V383H274.983V385.64H272.332ZM276.457 380.514H283.464V369.646L278.206 369.624C278.154 370.394 278.11 371.113 278.074 371.78C278.044 372.44 278.004 373.111 277.953 373.793C277.909 374.475 277.846 375.219 277.766 376.026C277.692 376.818 277.612 377.478 277.524 378.006C277.443 378.534 277.322 378.992 277.161 379.381C276.999 379.762 276.765 380.14 276.457 380.514ZM288.622 383L293.616 367.16H297.499L302.493 383H299.765L295.233 368.788H295.827L291.35 383H288.622ZM291.405 379.568V377.093H299.721V379.568H291.405ZM310.751 383.33C309.167 383.33 307.81 382.985 306.681 382.296C305.551 381.599 304.682 380.631 304.074 379.392C303.472 378.153 303.172 376.715 303.172 375.08C303.172 373.445 303.472 372.007 304.074 370.768C304.682 369.529 305.551 368.564 306.681 367.875C307.81 367.178 309.167 366.83 310.751 366.83C312.577 366.83 314.098 367.288 315.316 368.205C316.533 369.114 317.387 370.343 317.879 371.89L315.206 372.627C314.898 371.593 314.373 370.786 313.633 370.207C312.892 369.62 311.931 369.327 310.751 369.327C309.687 369.327 308.8 369.565 308.089 370.042C307.385 370.519 306.853 371.19 306.494 372.055C306.142 372.913 305.962 373.921 305.955 375.08C305.955 376.239 306.131 377.251 306.483 378.116C306.842 378.974 307.377 379.641 308.089 380.118C308.8 380.595 309.687 380.833 310.751 380.833C311.931 380.833 312.892 380.54 313.633 379.953C314.373 379.366 314.898 378.56 315.206 377.533L317.879 378.27C317.387 379.817 316.533 381.049 315.316 381.966C314.098 382.875 312.577 383.33 310.751 383.33ZM320.272 383V367.16H322.923V372.693H326.817C326.964 372.693 327.162 372.7 327.411 372.715C327.66 372.722 327.888 372.744 328.093 372.781C329.002 372.92 329.754 373.225 330.348 373.694C330.949 374.163 331.393 374.757 331.679 375.476C331.972 376.187 332.119 376.976 332.119 377.841C332.119 378.714 331.972 379.509 331.679 380.228C331.393 380.939 330.949 381.53 330.348 381.999C329.754 382.468 329.002 382.773 328.093 382.912C327.888 382.941 327.66 382.963 327.411 382.978C327.169 382.993 326.971 383 326.817 383H320.272ZM322.923 380.514H326.707C326.861 380.514 327.026 380.507 327.202 380.492C327.385 380.477 327.558 380.452 327.719 380.415C328.152 380.305 328.493 380.111 328.742 379.832C328.999 379.553 329.178 379.238 329.281 378.886C329.391 378.527 329.446 378.178 329.446 377.841C329.446 377.504 329.391 377.159 329.281 376.807C329.178 376.455 328.999 376.14 328.742 375.861C328.493 375.582 328.152 375.388 327.719 375.278C327.558 375.234 327.385 375.205 327.202 375.19C327.026 375.175 326.861 375.168 326.707 375.168H322.923V380.514ZM333.703 383V367.16H336.354V383H333.703ZM339.195 385.805L339.349 384.661C339.686 384.69 339.954 384.632 340.152 384.485C340.35 384.346 340.482 384.144 340.548 383.88C340.621 383.623 340.64 383.33 340.603 383H339.195V380.173H341.912V383.11C341.912 384.071 341.685 384.797 341.23 385.288C340.775 385.779 340.097 385.952 339.195 385.805ZM133.22 413L139.182 404.926L133.682 397.16H136.85L141.745 404.321V397.16H144.396V404.321L149.291 397.16H152.459L146.959 404.926L152.921 413H149.654L144.396 405.795V413H141.745V405.795L136.498 413H133.22ZM153.571 413L158.565 397.16H162.448L167.442 413H164.714L160.182 398.788H160.776L156.299 413H153.571ZM156.354 409.568V407.093H164.67V409.568H156.354ZM169.431 413V397.16H175.976C176.13 397.16 176.328 397.167 176.57 397.182C176.812 397.189 177.035 397.211 177.241 397.248C178.157 397.387 178.913 397.692 179.507 398.161C180.108 398.63 180.552 399.224 180.838 399.943C181.131 400.654 181.278 401.446 181.278 402.319C181.278 403.184 181.131 403.976 180.838 404.695C180.544 405.406 180.097 405.997 179.496 406.466C178.902 406.935 178.15 407.24 177.241 407.379C177.035 407.408 176.808 407.43 176.559 407.445C176.317 407.46 176.122 407.467 175.976 407.467H172.082V413H169.431ZM172.082 404.992H175.866C176.012 404.992 176.177 404.985 176.361 404.97C176.544 404.955 176.713 404.926 176.867 404.882C177.307 404.772 177.651 404.578 177.901 404.299C178.157 404.02 178.337 403.705 178.44 403.353C178.55 403.001 178.605 402.656 178.605 402.319C178.605 401.982 178.55 401.637 178.44 401.285C178.337 400.926 178.157 400.607 177.901 400.328C177.651 400.049 177.307 399.855 176.867 399.745C176.713 399.701 176.544 399.675 176.361 399.668C176.177 399.653 176.012 399.646 175.866 399.646H172.082V404.992ZM183.481 413V397.16H185.868L191.346 408.38L196.824 397.16H199.211V413H196.736V402.847L191.874 413H190.818L185.967 402.847V413H183.481ZM201.202 413L206.196 397.16H210.079L215.073 413H212.345L207.813 398.788H208.407L203.93 413H201.202ZM203.985 409.568V407.093H212.301V409.568H203.985ZM217.061 413V397.16H219.712V403.826H227.214V397.16H229.854V413H227.214V406.312H219.712V413H217.061ZM232.938 413V397.16H235.589V404.508L241.914 397.16H245.17L238.361 404.926L245.632 413H242.266L235.589 405.608V413H232.938ZM247.183 413V397.16H257.413V399.646H249.834V403.551H256.093V406.037H249.834V410.514H257.413V413H247.183ZM258.952 413V410.778C259.304 410.8 259.601 410.774 259.843 410.701C260.085 410.62 260.286 410.47 260.448 410.25C260.616 410.023 260.763 409.704 260.888 409.293C261.012 408.875 261.133 408.351 261.251 407.72C261.419 406.818 261.559 405.879 261.669 404.904C261.786 403.921 261.885 402.957 261.966 402.011C262.046 401.058 262.109 400.163 262.153 399.327C262.197 398.491 262.233 397.769 262.263 397.16H272.867V413H270.216V399.646H264.716C264.679 400.137 264.635 400.731 264.584 401.428C264.54 402.117 264.477 402.865 264.397 403.672C264.323 404.479 264.228 405.315 264.111 406.18C264.001 407.045 263.865 407.896 263.704 408.732C263.557 409.495 263.381 410.18 263.176 410.789C262.97 411.39 262.695 411.889 262.351 412.285C262.013 412.674 261.57 412.934 261.02 413.066C260.477 413.198 259.788 413.176 258.952 413ZM275.95 413V397.16H286.18V399.646H278.601V403.551H284.86V406.037H278.601V410.514H286.18V413H275.95ZM288.819 413V397.16H295.364C295.518 397.16 295.716 397.167 295.958 397.182C296.2 397.189 296.424 397.211 296.629 397.248C297.546 397.387 298.301 397.692 298.895 398.161C299.497 398.63 299.94 399.224 300.226 399.943C300.52 400.654 300.666 401.446 300.666 402.319C300.666 403.184 300.52 403.976 300.226 404.695C299.933 405.406 299.486 405.997 298.884 406.466C298.29 406.935 297.539 407.24 296.629 407.379C296.424 407.408 296.197 407.43 295.947 407.445C295.705 407.46 295.511 407.467 295.364 407.467H291.47V413H288.819ZM291.47 404.992H295.254C295.401 404.992 295.566 404.985 295.749 404.97C295.933 404.955 296.101 404.926 296.255 404.882C296.695 404.772 297.04 404.578 297.289 404.299C297.546 404.02 297.726 403.705 297.828 403.353C297.938 403.001 297.993 402.656 297.993 402.319C297.993 401.982 297.938 401.637 297.828 401.285C297.726 400.926 297.546 400.607 297.289 400.328C297.04 400.049 296.695 399.855 296.255 399.745C296.101 399.701 295.933 399.675 295.749 399.668C295.566 399.653 295.401 399.646 295.254 399.646H291.47V404.992Z" fill="#222222"/>
<path d="M877.741 193.27C876.445 193.27 875.335 192.988 874.411 192.424C873.487 191.854 872.776 191.062 872.278 190.048C871.786 189.034 871.54 187.858 871.54 186.52C871.54 185.182 871.786 184.006 872.278 182.992C872.776 181.978 873.487 181.189 874.411 180.625C875.335 180.055 876.445 179.77 877.741 179.77C879.037 179.77 880.147 180.055 881.071 180.625C882.001 181.189 882.712 181.978 883.204 182.992C883.702 184.006 883.951 185.182 883.951 186.52C883.951 187.858 883.702 189.034 883.204 190.048C882.712 191.062 882.001 191.854 881.071 192.424C880.147 192.988 879.037 193.27 877.741 193.27ZM877.741 191.227C878.611 191.233 879.334 191.041 879.91 190.651C880.492 190.261 880.927 189.712 881.215 189.004C881.509 188.296 881.656 187.468 881.656 186.52C881.656 185.572 881.509 184.75 881.215 184.054C880.927 183.352 880.492 182.806 879.91 182.416C879.334 182.026 878.611 181.825 877.741 181.813C876.871 181.807 876.148 181.999 875.572 182.389C874.996 182.779 874.561 183.328 874.267 184.036C873.979 184.744 873.835 185.572 873.835 186.52C873.835 187.468 873.979 188.293 874.267 188.995C874.555 189.691 874.987 190.234 875.563 190.624C876.145 191.014 876.871 191.215 877.741 191.227ZM890.044 193V191.155C889.378 191.269 888.742 191.242 888.136 191.074C887.536 190.906 887.002 190.609 886.534 190.183C886.066 189.751 885.697 189.199 885.427 188.527C885.157 187.849 885.022 187.057 885.022 186.151C885.022 185.245 885.157 184.45 885.427 183.766C885.697 183.082 886.066 182.521 886.534 182.083C887.002 181.645 887.536 181.339 888.136 181.165C888.742 180.991 889.378 180.961 890.044 181.075V180.04H892.195V181.075C892.861 180.961 893.497 180.991 894.103 181.165C894.709 181.339 895.246 181.645 895.714 182.083C896.182 182.521 896.551 183.082 896.821 183.766C897.097 184.45 897.235 185.245 897.235 186.151C897.235 187.057 897.097 187.849 896.821 188.527C896.551 189.199 896.182 189.751 895.714 190.183C895.246 190.609 894.709 190.906 894.103 191.074C893.497 191.242 892.861 191.269 892.195 191.155V193H890.044ZM890.044 189.166V183.028C889.522 182.944 889.078 182.98 888.712 183.136C888.352 183.286 888.061 183.517 887.839 183.829C887.623 184.135 887.467 184.492 887.371 184.9C887.275 185.308 887.227 185.725 887.227 186.151C887.227 186.577 887.275 186.988 887.371 187.384C887.467 187.78 887.623 188.128 887.839 188.428C888.061 188.722 888.352 188.938 888.712 189.076C889.078 189.214 889.522 189.244 890.044 189.166ZM892.195 189.166C892.723 189.244 893.167 189.214 893.527 189.076C893.887 188.932 894.178 188.713 894.4 188.419C894.622 188.125 894.781 187.786 894.877 187.402C894.979 187.018 895.03 186.622 895.03 186.214C895.03 185.806 894.979 185.398 894.877 184.99C894.781 184.576 894.622 184.21 894.4 183.892C894.178 183.568 893.887 183.322 893.527 183.154C893.167 182.986 892.723 182.944 892.195 183.028V189.166ZM909.435 193H907.239V183.865L901.227 193H899.031V180.04H901.227V189.175L907.239 180.04H909.435V193ZM917.432 193.27C916.136 193.27 915.026 192.988 914.102 192.424C913.178 191.854 912.467 191.062 911.969 190.048C911.477 189.034 911.231 187.858 911.231 186.52C911.231 185.182 911.477 184.006 911.969 182.992C912.467 181.978 913.178 181.189 914.102 180.625C915.026 180.055 916.136 179.77 917.432 179.77C918.926 179.77 920.171 180.145 921.167 180.895C922.163 181.639 922.862 182.644 923.264 183.91L921.077 184.513C920.825 183.667 920.396 183.007 919.79 182.533C919.184 182.053 918.398 181.813 917.432 181.813C916.562 181.813 915.836 182.008 915.254 182.398C914.678 182.788 914.243 183.337 913.949 184.045C913.661 184.747 913.514 185.572 913.508 186.52C913.508 187.468 913.652 188.296 913.94 189.004C914.234 189.706 914.672 190.252 915.254 190.642C915.836 191.032 916.562 191.227 917.432 191.227C918.398 191.227 919.184 190.987 919.79 190.507C920.396 190.027 920.825 189.367 921.077 188.527L923.264 189.13C922.862 190.396 922.163 191.404 921.167 192.154C920.171 192.898 918.926 193.27 917.432 193.27ZM928.354 193V182.074H924.16V180.04H934.717V182.074H930.523V193H928.354ZM946.56 193H944.364V183.865L938.352 193H936.156V180.04H938.352V189.175L944.364 180.04H946.56V193ZM949.076 193V180.04H951.245V185.494H957.383V180.04H959.543V193H957.383V187.528H951.245V193H949.076ZM961.887 195.295L962.013 194.359C962.289 194.383 962.508 194.335 962.67 194.215C962.832 194.101 962.94 193.936 962.994 193.72C963.054 193.51 963.069 193.27 963.039 193H961.887V190.687H964.11V193.09C964.11 193.876 963.924 194.47 963.552 194.872C963.18 195.274 962.625 195.415 961.887 195.295ZM972.244 187.6V185.44H981.217V187.6H972.244ZM976.618 193.27C975.322 193.27 974.212 192.988 973.288 192.424C972.364 191.854 971.653 191.062 971.155 190.048C970.663 189.034 970.417 187.858 970.417 186.52C970.417 185.182 970.663 184.006 971.155 182.992C971.653 181.978 972.364 181.189 973.288 180.625C974.212 180.055 975.322 179.77 976.618 179.77C977.914 179.77 979.024 180.055 979.948 180.625C980.878 181.189 981.589 181.978 982.081 182.992C982.579 184.006 982.828 185.182 982.828 186.52C982.828 187.858 982.579 189.034 982.081 190.048C981.589 191.062 980.878 191.854 979.948 192.424C979.024 192.988 977.914 193.27 976.618 193.27ZM976.618 191.227C977.488 191.233 978.211 191.041 978.787 190.651C979.369 190.261 979.804 189.712 980.092 189.004C980.386 188.296 980.533 187.468 980.533 186.52C980.533 185.572 980.386 184.75 980.092 184.054C979.804 183.352 979.369 182.806 978.787 182.416C978.211 182.026 977.488 181.825 976.618 181.813C975.748 181.807 975.025 181.999 974.449 182.389C973.873 182.779 973.438 183.328 973.144 184.036C972.856 184.744 972.712 185.572 972.712 186.52C972.712 187.468 972.856 188.293 973.144 188.995C973.432 189.691 973.864 190.234 974.44 190.624C975.022 191.014 975.748 191.215 976.618 191.227ZM984.989 193V180.04H987.158V185.494H993.296V180.04H995.456V193H993.296V187.528H987.158V193H984.989ZM997.286 195.16V190.966C997.706 190.966 998.057 190.861 998.339 190.651C998.621 190.441 998.846 190.15 999.014 189.778C999.188 189.406 999.323 188.974 999.419 188.482C999.515 187.984 999.59 187.456 999.644 186.898C999.71 186.16 999.767 185.437 999.815 184.729C999.863 184.015 999.908 183.277 999.95 182.515C999.998 181.747 1000.05 180.916 1000.11 180.022L1008.56 180.04V190.966H1009.53V195.16H1007.37V193H999.455V195.16H997.286ZM1000.66 190.966H1006.39V182.074L1002.09 182.056C1002.05 182.686 1002.01 183.274 1001.98 183.82C1001.96 184.36 1001.93 184.909 1001.88 185.467C1001.85 186.025 1001.8 186.634 1001.73 187.294C1001.67 187.942 1001.61 188.482 1001.53 188.914C1001.47 189.346 1001.37 189.721 1001.24 190.039C1001.1 190.351 1000.91 190.66 1000.66 190.966ZM1014.66 193V187.69L1010.25 180.04H1012.78L1015.76 185.206L1018.73 180.04H1021.26L1016.86 187.69V193H1014.66ZM1022.52 193V180.04H1027.87C1028 180.04 1028.16 180.046 1028.36 180.058C1028.56 180.064 1028.74 180.082 1028.91 180.112C1029.66 180.226 1030.28 180.475 1030.76 180.859C1031.25 181.243 1031.62 181.729 1031.85 182.317C1032.09 182.899 1032.21 183.547 1032.21 184.261C1032.21 184.969 1032.09 185.617 1031.85 186.205C1031.61 186.787 1031.24 187.27 1030.75 187.654C1030.27 188.038 1029.65 188.287 1028.91 188.401C1028.74 188.425 1028.55 188.443 1028.35 188.455C1028.15 188.467 1027.99 188.473 1027.87 188.473H1024.69V193H1022.52ZM1024.69 186.448H1027.78C1027.9 186.448 1028.04 186.442 1028.19 186.43C1028.34 186.418 1028.48 186.394 1028.6 186.358C1028.96 186.268 1029.24 186.109 1029.45 185.881C1029.66 185.653 1029.8 185.395 1029.89 185.107C1029.98 184.819 1030.02 184.537 1030.02 184.261C1030.02 183.985 1029.98 183.703 1029.89 183.415C1029.8 183.121 1029.66 182.86 1029.45 182.632C1029.24 182.404 1028.96 182.245 1028.6 182.155C1028.48 182.119 1028.34 182.098 1028.19 182.092C1028.04 182.08 1027.9 182.074 1027.78 182.074H1024.69V186.448ZM1037.16 193V187.69L1032.75 180.04H1035.28L1038.26 185.206L1041.23 180.04H1043.76L1039.36 187.69V193H1037.16ZM1045.02 193V180.04H1047.19V190.966H1051.19V180.04H1053.36V190.966H1057.37V180.04H1059.53V193H1045.02ZM1065.17 193V182.074H1060.97V180.04H1071.53V182.074H1067.33V193H1065.17ZM1076.66 193V187.69L1072.25 180.04H1074.78L1077.76 185.206L1080.73 180.04H1083.26L1078.86 187.69V193H1076.66ZM1084.52 193V180.04H1086.68V185.494H1092.82V180.04H1094.98V193H1092.82V187.528H1086.68V193H1084.52ZM1097.33 195.295L1097.45 194.359C1097.73 194.383 1097.95 194.335 1098.11 194.215C1098.27 194.101 1098.38 193.936 1098.43 193.72C1098.49 193.51 1098.51 193.27 1098.48 193H1097.33V190.687H1099.55V193.09C1099.55 193.876 1099.36 194.47 1098.99 194.872C1098.62 195.274 1098.06 195.415 1097.33 195.295ZM1106.58 193V180.04H1108.75V186.052L1113.92 180.04H1116.58L1111.01 186.394L1116.96 193H1114.21L1108.75 186.952V193H1106.58ZM1117.33 193L1121.42 180.04H1124.59L1128.68 193H1126.45L1122.74 181.372H1123.23L1119.56 193H1117.33ZM1119.61 190.192V188.167H1126.41V190.192H1119.61ZM1130.31 193V180.04H1132.26L1136.74 189.22L1141.22 180.04H1143.18V193H1141.15V184.693L1137.17 193H1136.31L1132.34 184.693V193H1130.31ZM1145.71 193V180.04H1156.21V193H1154.04V182.074H1147.87V193H1145.71ZM1157.83 193L1161.92 180.04H1165.09L1169.18 193H1166.95L1163.24 181.372H1163.73L1160.06 193H1157.83ZM1160.11 190.192V188.167H1166.91V190.192H1160.11ZM1170.81 193V180.04H1172.98V185.494H1179.11V180.04H1181.27V193H1179.11V187.528H1172.98V193H1170.81ZM1183.78 193V180.04H1185.95V184.567H1189.13C1189.25 184.567 1189.42 184.573 1189.62 184.585C1189.82 184.591 1190.01 184.609 1190.18 184.639C1190.92 184.753 1191.54 185.002 1192.02 185.386C1192.52 185.77 1192.88 186.256 1193.11 186.844C1193.35 187.426 1193.47 188.071 1193.47 188.779C1193.47 189.493 1193.35 190.144 1193.11 190.732C1192.88 191.314 1192.52 191.797 1192.02 192.181C1191.54 192.565 1190.92 192.814 1190.18 192.928C1190.01 192.952 1189.82 192.97 1189.62 192.982C1189.42 192.994 1189.26 193 1189.13 193H1183.78ZM1185.95 190.966H1189.04C1189.17 190.966 1189.31 190.96 1189.45 190.948C1189.6 190.936 1189.74 190.915 1189.87 190.885C1190.23 190.795 1190.51 190.636 1190.71 190.408C1190.92 190.18 1191.07 189.922 1191.15 189.634C1191.24 189.34 1191.29 189.055 1191.29 188.779C1191.29 188.503 1191.24 188.221 1191.15 187.933C1191.07 187.645 1190.92 187.387 1190.71 187.159C1190.51 186.931 1190.23 186.772 1189.87 186.682C1189.74 186.646 1189.6 186.622 1189.45 186.61C1189.31 186.598 1189.17 186.592 1189.04 186.592H1185.95V190.966ZM1194.77 193V180.04H1196.94V193H1194.77ZM1199.44 193V180.04H1201.61V185.494H1207.75V180.04H1209.91V193H1207.75V187.528H1201.61V193H1199.44ZM1212.25 195.295L1212.38 194.359C1212.65 194.383 1212.87 194.335 1213.03 194.215C1213.2 194.101 1213.3 193.936 1213.36 193.72C1213.42 193.51 1213.43 193.27 1213.4 193H1212.25V190.687H1214.47V193.09C1214.47 193.876 1214.29 194.47 1213.92 194.872C1213.54 195.274 1212.99 195.415 1212.25 195.295ZM872.26 218V205.04H874.429V211.052L879.604 205.04H882.268L876.697 211.394L882.646 218H879.892L874.429 211.952V218H872.26ZM888.692 218.27C887.396 218.27 886.286 217.988 885.362 217.424C884.438 216.854 883.727 216.062 883.229 215.048C882.737 214.034 882.491 212.858 882.491 211.52C882.491 210.182 882.737 209.006 883.229 207.992C883.727 206.978 884.438 206.189 885.362 205.625C886.286 205.055 887.396 204.77 888.692 204.77C889.988 204.77 891.098 205.055 892.022 205.625C892.952 206.189 893.663 206.978 894.155 207.992C894.653 209.006 894.902 210.182 894.902 211.52C894.902 212.858 894.653 214.034 894.155 215.048C893.663 216.062 892.952 216.854 892.022 217.424C891.098 217.988 889.988 218.27 888.692 218.27ZM888.692 216.227C889.562 216.233 890.285 216.041 890.861 215.651C891.443 215.261 891.878 214.712 892.166 214.004C892.46 213.296 892.607 212.468 892.607 211.52C892.607 210.572 892.46 209.75 892.166 209.054C891.878 208.352 891.443 207.806 890.861 207.416C890.285 207.026 889.562 206.825 888.692 206.813C887.822 206.807 887.099 206.999 886.523 207.389C885.947 207.779 885.512 208.328 885.218 209.036C884.93 209.744 884.786 210.572 884.786 211.52C884.786 212.468 884.93 213.293 885.218 213.995C885.506 214.691 885.938 215.234 886.514 215.624C887.096 216.014 887.822 216.215 888.692 216.227ZM902.175 218.27C900.879 218.27 899.769 217.988 898.845 217.424C897.921 216.854 897.21 216.062 896.712 215.048C896.22 214.034 895.974 212.858 895.974 211.52C895.974 210.182 896.22 209.006 896.712 207.992C897.21 206.978 897.921 206.189 898.845 205.625C899.769 205.055 900.879 204.77 902.175 204.77C903.471 204.77 904.581 205.055 905.505 205.625C906.435 206.189 907.146 206.978 907.638 207.992C908.136 209.006 908.385 210.182 908.385 211.52C908.385 212.858 908.136 214.034 907.638 215.048C907.146 216.062 906.435 216.854 905.505 217.424C904.581 217.988 903.471 218.27 902.175 218.27ZM902.175 216.227C903.045 216.233 903.768 216.041 904.344 215.651C904.926 215.261 905.361 214.712 905.649 214.004C905.943 213.296 906.09 212.468 906.09 211.52C906.09 210.572 905.943 209.75 905.649 209.054C905.361 208.352 904.926 207.806 904.344 207.416C903.768 207.026 903.045 206.825 902.175 206.813C901.305 206.807 900.582 206.999 900.006 207.389C899.43 207.779 898.995 208.328 898.701 209.036C898.413 209.744 898.269 210.572 898.269 211.52C898.269 212.468 898.413 213.293 898.701 213.995C898.989 214.691 899.421 215.234 899.997 215.624C900.579 216.014 901.305 216.215 902.175 216.227ZM910.176 218V205.04H912.129L916.611 214.22L921.093 205.04H923.046V218H921.021V209.693L917.043 218H916.179L912.21 209.693V218H910.176ZM924.881 220.16V215.966C925.301 215.966 925.652 215.861 925.934 215.651C926.216 215.441 926.441 215.15 926.609 214.778C926.783 214.406 926.918 213.974 927.014 213.482C927.11 212.984 927.185 212.456 927.239 211.898C927.305 211.16 927.362 210.437 927.41 209.729C927.458 209.015 927.503 208.277 927.545 207.515C927.593 206.747 927.647 205.916 927.707 205.022L936.158 205.04V215.966H937.13V220.16H934.97V218H927.05V220.16H924.881ZM928.256 215.966H933.989V207.074L929.687 207.056C929.645 207.686 929.609 208.274 929.579 208.82C929.555 209.36 929.522 209.909 929.48 210.467C929.444 211.025 929.393 211.634 929.327 212.294C929.267 212.942 929.201 213.482 929.129 213.914C929.063 214.346 928.964 214.721 928.832 215.039C928.7 215.351 928.508 215.66 928.256 215.966ZM940.82 218L942.53 214.508L938.057 205.04H940.505L943.664 212.222L946.922 205.04H949.235L943.133 218H940.82ZM950.571 218V205.04H952.74V211.052L957.915 205.04H960.579L955.008 211.394L960.957 218H958.203L952.74 211.952V218H950.571ZM968.591 218V207.074H964.397V205.04H974.954V207.074H970.76V218H968.591ZM975.141 218L979.227 205.04H982.404L986.49 218H984.258L980.55 206.372H981.036L977.373 218H975.141ZM977.418 215.192V213.167H984.222V215.192H977.418ZM988.117 218V205.04H990.07L994.552 214.22L999.034 205.04H1000.99V218H998.962V209.693L994.984 218H994.12L990.151 209.693V218H988.117ZM1002.62 218L1006.7 205.04H1009.88L1013.96 218H1011.73L1008.02 206.372H1008.51L1004.85 218H1002.62ZM1004.89 215.192V213.167H1011.7V215.192H1004.89ZM1015.59 218V205.04H1017.76V211.052L1022.94 205.04H1025.6L1020.03 211.394L1025.98 218H1023.22L1017.76 211.952V218H1015.59ZM1030.36 218V207.074H1026.17V205.04H1036.72V207.074H1032.53V218H1030.36ZM1036.91 218L1041 205.04H1044.17L1048.26 218H1046.03L1042.32 206.372H1042.81L1039.14 218H1036.91ZM1039.19 215.192V213.167H1045.99V215.192H1039.19ZM1049.89 218V205.04H1052.06V210.494H1058.19V205.04H1060.35V218H1058.19V212.528H1052.06V218H1049.89ZM1064.59 218L1066.3 214.508L1061.82 205.04H1064.27L1067.43 212.222L1070.69 205.04H1073L1066.9 218H1064.59ZM1075.7 218L1077.41 214.508L1072.93 205.04H1075.38L1078.54 212.222L1081.8 205.04H1084.11L1078.01 218H1075.7ZM1092.92 218V212.24L1093.27 212.798C1092.91 213.092 1092.43 213.323 1091.83 213.491C1091.22 213.653 1090.58 213.734 1089.89 213.734C1088.8 213.734 1087.93 213.521 1087.28 213.095C1086.64 212.669 1086.17 212.081 1085.88 211.331C1085.59 210.581 1085.45 209.714 1085.45 208.73V205.04H1087.64V208.064C1087.64 208.508 1087.67 208.946 1087.72 209.378C1087.77 209.804 1087.88 210.191 1088.06 210.539C1088.24 210.887 1088.51 211.166 1088.88 211.376C1089.24 211.58 1089.74 211.682 1090.36 211.682C1091.06 211.682 1091.65 211.565 1092.14 211.331C1092.64 211.097 1092.98 210.848 1093.19 210.584L1092.92 211.673V205.04H1095.1V218H1092.92ZM1099.32 218L1101.03 214.508L1096.56 205.04H1099.01L1102.17 212.222L1105.42 205.04H1107.74L1101.63 218H1099.32ZM1110.88 218L1115.75 211.394L1111.25 205.04H1113.85L1117.85 210.899V205.04H1120.02V210.899L1124.02 205.04H1126.62L1122.12 211.394L1126.99 218H1124.32L1120.02 212.105V218H1117.85V212.105L1113.56 218H1110.88ZM1127.53 218L1131.61 205.04H1134.79L1138.88 218H1136.64L1132.94 206.372H1133.42L1129.76 218H1127.53ZM1129.8 215.192V213.167H1136.61V215.192H1129.8ZM1140.5 218V205.04H1142.7V214.175L1148.71 205.04H1150.91V218H1148.71V208.865L1142.7 218H1140.5ZM1145.7 203.942C1145.19 203.942 1144.73 203.819 1144.32 203.573C1143.91 203.327 1143.58 203 1143.34 202.592C1143.09 202.178 1142.97 201.719 1142.97 201.215H1144.66C1144.66 201.503 1144.76 201.749 1144.96 201.953C1145.16 202.151 1145.41 202.25 1145.7 202.25C1145.98 202.25 1146.23 202.151 1146.42 201.953C1146.63 201.749 1146.73 201.503 1146.73 201.215H1148.42C1148.42 201.719 1148.3 202.178 1148.05 202.592C1147.81 203 1147.48 203.327 1147.06 203.573C1146.65 203.819 1146.19 203.942 1145.7 203.942ZM1152.73 220.16V215.966C1153.15 215.966 1153.5 215.861 1153.78 215.651C1154.06 215.441 1154.29 215.15 1154.46 214.778C1154.63 214.406 1154.77 213.974 1154.86 213.482C1154.96 212.984 1155.03 212.456 1155.09 211.898C1155.15 211.16 1155.21 210.437 1155.26 209.729C1155.31 209.015 1155.35 208.277 1155.39 207.515C1155.44 206.747 1155.5 205.916 1155.56 205.022L1164.01 205.04V215.966H1164.98V220.16H1162.82V218H1154.9V220.16H1152.73ZM1156.1 215.966H1161.84V207.074L1157.54 207.056C1157.49 207.686 1157.46 208.274 1157.43 208.82C1157.4 209.36 1157.37 209.909 1157.33 210.467C1157.29 211.025 1157.24 211.634 1157.18 212.294C1157.12 212.942 1157.05 213.482 1156.98 213.914C1156.91 214.346 1156.81 214.721 1156.68 215.039C1156.55 215.351 1156.36 215.66 1156.1 215.966ZM1166.94 218V205.04H1169.11V209.567H1172.29C1172.41 209.567 1172.58 209.573 1172.78 209.585C1172.98 209.591 1173.17 209.609 1173.34 209.639C1174.08 209.753 1174.7 210.002 1175.18 210.386C1175.68 210.77 1176.04 211.256 1176.27 211.844C1176.51 212.426 1176.63 213.071 1176.63 213.779C1176.63 214.493 1176.51 215.144 1176.27 215.732C1176.04 216.314 1175.68 216.797 1175.18 217.181C1174.7 217.565 1174.08 217.814 1173.34 217.928C1173.17 217.952 1172.98 217.97 1172.78 217.982C1172.58 217.994 1172.42 218 1172.29 218H1166.94ZM1169.11 215.966H1172.2C1172.33 215.966 1172.47 215.96 1172.61 215.948C1172.76 215.936 1172.9 215.915 1173.03 215.885C1173.39 215.795 1173.67 215.636 1173.87 215.408C1174.08 215.18 1174.23 214.922 1174.31 214.634C1174.4 214.34 1174.45 214.055 1174.45 213.779C1174.45 213.503 1174.4 213.221 1174.31 212.933C1174.23 212.645 1174.08 212.387 1173.87 212.159C1173.67 211.931 1173.39 211.772 1173.03 211.682C1172.9 211.646 1172.76 211.622 1172.61 211.61C1172.47 211.598 1172.33 211.592 1172.2 211.592H1169.11V215.966ZM1177.93 218V205.04H1180.1V218H1177.93ZM1182.6 218V205.04H1184.77V210.494H1190.91V205.04H1193.07V218H1190.91V212.528H1184.77V218H1182.6ZM872.26 243V230.04H874.429V236.052L879.604 230.04H882.268L876.697 236.394L882.646 243H879.892L874.429 236.952V243H872.26ZM888.692 243.27C887.396 243.27 886.286 242.988 885.362 242.424C884.438 241.854 883.727 241.062 883.229 240.048C882.737 239.034 882.491 237.858 882.491 236.52C882.491 235.182 882.737 234.006 883.229 232.992C883.727 231.978 884.438 231.189 885.362 230.625C886.286 230.055 887.396 229.77 888.692 229.77C889.988 229.77 891.098 230.055 892.022 230.625C892.952 231.189 893.663 231.978 894.155 232.992C894.653 234.006 894.902 235.182 894.902 236.52C894.902 237.858 894.653 239.034 894.155 240.048C893.663 241.062 892.952 241.854 892.022 242.424C891.098 242.988 889.988 243.27 888.692 243.27ZM888.692 241.227C889.562 241.233 890.285 241.041 890.861 240.651C891.443 240.261 891.878 239.712 892.166 239.004C892.46 238.296 892.607 237.468 892.607 236.52C892.607 235.572 892.46 234.75 892.166 234.054C891.878 233.352 891.443 232.806 890.861 232.416C890.285 232.026 889.562 231.825 888.692 231.813C887.822 231.807 887.099 231.999 886.523 232.389C885.947 232.779 885.512 233.328 885.218 234.036C884.93 234.744 884.786 235.572 884.786 236.52C884.786 237.468 884.93 238.293 885.218 238.995C885.506 239.691 885.938 240.234 886.514 240.624C887.096 241.014 887.822 241.215 888.692 241.227ZM896.694 243V230.04H898.647L903.129 239.22L907.611 230.04H909.564V243H907.539V234.693L903.561 243H902.697L898.728 234.693V243H896.694ZM912.092 243V230.04H914.045L918.527 239.22L923.009 230.04H924.962V243H922.937V234.693L918.959 243H918.095L914.126 234.693V243H912.092ZM927.49 243V230.04H935.86V232.074H929.659V235.269H934.78V237.303H929.659V240.966H935.86V243H927.49ZM938.02 243V230.04H943.375C943.501 230.04 943.663 230.046 943.861 230.058C944.059 230.064 944.242 230.082 944.41 230.112C945.16 230.226 945.778 230.475 946.264 230.859C946.756 231.243 947.119 231.729 947.353 232.317C947.593 232.899 947.713 233.547 947.713 234.261C947.713 234.969 947.593 235.617 947.353 236.205C947.113 236.787 946.747 237.27 946.255 237.654C945.769 238.038 945.154 238.287 944.41 238.401C944.242 238.425 944.056 238.443 943.852 238.455C943.654 238.467 943.495 238.473 943.375 238.473H940.189V243H938.02ZM940.189 236.448H943.285C943.405 236.448 943.54 236.442 943.69 236.43C943.84 236.418 943.978 236.394 944.104 236.358C944.464 236.268 944.746 236.109 944.95 235.881C945.16 235.653 945.307 235.395 945.391 235.107C945.481 234.819 945.526 234.537 945.526 234.261C945.526 233.985 945.481 233.703 945.391 233.415C945.307 233.121 945.16 232.86 944.95 232.632C944.746 232.404 944.464 232.245 944.104 232.155C943.978 232.119 943.84 232.098 943.69 232.092C943.54 232.08 943.405 232.074 943.285 232.074H940.189V236.448ZM959.407 245.043V243H949.516V230.04H951.685V241.074H957.967V230.337H960.136V241.074H961.576V245.043H959.407ZM973.42 243H971.224V233.865L965.212 243H963.016V230.04H965.212V239.175L971.224 230.04H973.42V243ZM985.296 243H983.136V238.473H979.788L978.861 238.392C977.757 238.212 976.938 237.744 976.404 236.988C975.87 236.226 975.603 235.317 975.603 234.261C975.603 233.547 975.723 232.899 975.963 232.317C976.203 231.729 976.566 231.243 977.052 230.859C977.538 230.475 978.156 230.226 978.906 230.112C979.08 230.082 979.263 230.064 979.455 230.058C979.653 230.046 979.815 230.04 979.941 230.04H985.296V243ZM977.853 243H975.396L978.204 237.24L980.409 237.726L977.853 243ZM983.136 236.448V232.074H980.031C979.911 232.074 979.776 232.08 979.626 232.092C979.476 232.098 979.338 232.119 979.212 232.155C978.852 232.245 978.567 232.404 978.357 232.632C978.153 232.86 978.009 233.121 977.925 233.415C977.841 233.703 977.799 233.985 977.799 234.261C977.799 234.537 977.841 234.819 977.925 235.107C978.009 235.395 978.153 235.653 978.357 235.881C978.567 236.109 978.852 236.268 979.212 236.358C979.338 236.394 979.476 236.418 979.626 236.43C979.776 236.442 979.911 236.448 980.031 236.448H983.136ZM986.919 243V241.182C987.207 241.2 987.45 241.179 987.648 241.119C987.846 241.053 988.011 240.93 988.143 240.75C988.281 240.564 988.401 240.303 988.503 239.967C988.605 239.625 988.704 239.196 988.8 238.68C988.938 237.942 989.052 237.174 989.142 236.376C989.238 235.572 989.319 234.783 989.385 234.009C989.451 233.229 989.502 232.497 989.538 231.813C989.574 231.129 989.604 230.538 989.628 230.04H998.304V243H996.135V232.074H991.635C991.605 232.476 991.569 232.962 991.527 233.532C991.491 234.096 991.44 234.708 991.374 235.368C991.314 236.028 991.236 236.712 991.14 237.42C991.05 238.128 990.939 238.824 990.807 239.508C990.687 240.132 990.543 240.693 990.375 241.191C990.207 241.683 989.982 242.091 989.7 242.415C989.424 242.733 989.061 242.946 988.611 243.054C988.167 243.162 987.603 243.144 986.919 243ZM1000.81 243V230.04H1002.98V234.567H1006.16C1006.28 234.567 1006.45 234.573 1006.65 234.585C1006.85 234.591 1007.04 234.609 1007.21 234.639C1007.95 234.753 1008.57 235.002 1009.05 235.386C1009.54 235.77 1009.91 236.256 1010.14 236.844C1010.38 237.426 1010.5 238.071 1010.5 238.779C1010.5 239.493 1010.38 240.144 1010.14 240.732C1009.91 241.314 1009.54 241.797 1009.05 242.181C1008.57 242.565 1007.95 242.814 1007.21 242.928C1007.04 242.952 1006.85 242.97 1006.65 242.982C1006.45 242.994 1006.29 243 1006.16 243H1000.81ZM1002.98 240.966H1006.07C1006.2 240.966 1006.33 240.96 1006.48 240.948C1006.63 240.936 1006.77 240.915 1006.9 240.885C1007.26 240.795 1007.53 240.636 1007.74 240.408C1007.95 240.18 1008.1 239.922 1008.18 239.634C1008.27 239.34 1008.31 239.055 1008.31 238.779C1008.31 238.503 1008.27 238.221 1008.18 237.933C1008.1 237.645 1007.95 237.387 1007.74 237.159C1007.53 236.931 1007.26 236.772 1006.9 236.682C1006.77 236.646 1006.63 236.622 1006.48 236.61C1006.33 236.598 1006.2 236.592 1006.07 236.592H1002.98V240.966ZM1011.8 243V230.04H1013.97V243H1011.8ZM1016.47 243V230.04H1018.64V236.052L1023.81 230.04H1026.48L1020.91 236.394L1026.86 243H1024.1L1018.64 236.952V243H1016.47ZM1030.3 243L1035.18 236.394L1030.68 230.04H1033.27L1037.27 235.899V230.04H1039.44V235.899L1043.45 230.04H1046.04L1041.54 236.394L1046.42 243H1043.74L1039.44 237.105V243H1037.27V237.105L1032.98 243H1030.3ZM1047.85 243V230.04H1056.22V232.074H1050.02V235.269H1055.14V237.303H1050.02V240.966H1056.22V243H1047.85ZM1061.98 243V230.04H1063.93L1068.42 239.22L1072.9 230.04H1074.85V243H1072.83V234.693L1068.85 243H1067.98L1064.01 234.693V243H1061.98ZM1079.09 243L1080.8 239.508L1076.33 230.04H1078.77L1081.93 237.222L1085.19 230.04H1087.5L1081.4 243H1079.09ZM1088.84 243V230.04H1091.01V235.494H1097.15V230.04H1099.31V243H1097.15V237.528H1091.01V243H1088.84ZM1112.23 243H1110.04V233.865L1104.03 243H1101.83V230.04H1104.03V239.175L1110.04 230.04H1112.23V243ZM1124.64 245.043V243H1114.75V230.04H1116.92V241.074H1123.2V230.337H1125.37V241.074H1126.81V245.043H1124.64ZM1138.65 243H1136.46V233.865L1130.45 243H1128.25V230.04H1130.45V239.175L1136.46 230.04H1138.65V243ZM1141.17 243V230.04H1151.67V243H1149.5V232.074H1143.34V243H1141.17ZM1153.3 243L1157.38 230.04H1160.56L1164.64 243H1162.41L1158.7 231.372H1159.19L1155.53 243H1153.3ZM1155.57 240.192V238.167H1162.38V240.192H1155.57ZM1165.93 243V241.182C1166.22 241.2 1166.47 241.179 1166.66 241.119C1166.86 241.053 1167.03 240.93 1167.16 240.75C1167.3 240.564 1167.42 240.303 1167.52 239.967C1167.62 239.625 1167.72 239.196 1167.82 238.68C1167.95 237.942 1168.07 237.174 1168.16 236.376C1168.25 235.572 1168.33 234.783 1168.4 234.009C1168.47 233.229 1168.52 232.497 1168.55 231.813C1168.59 231.129 1168.62 230.538 1168.64 230.04H1177.32V243H1175.15V232.074H1170.65C1170.62 232.476 1170.58 232.962 1170.54 233.532C1170.51 234.096 1170.46 234.708 1170.39 235.368C1170.33 236.028 1170.25 236.712 1170.16 237.42C1170.07 238.128 1169.95 238.824 1169.82 239.508C1169.7 240.132 1169.56 240.693 1169.39 241.191C1169.22 241.683 1169 242.091 1168.72 242.415C1168.44 242.733 1168.08 242.946 1167.63 243.054C1167.18 243.162 1166.62 243.144 1165.93 243ZM1179.15 245.16V240.966C1179.57 240.966 1179.92 240.861 1180.2 240.651C1180.48 240.441 1180.71 240.15 1180.88 239.778C1181.05 239.406 1181.19 238.974 1181.28 238.482C1181.38 237.984 1181.45 237.456 1181.51 236.898C1181.57 236.16 1181.63 235.437 1181.68 234.729C1181.73 234.015 1181.77 233.277 1181.81 232.515C1181.86 231.747 1181.92 230.916 1181.98 230.022L1190.43 230.04V240.966H1191.4V245.16H1189.24V243H1181.32V245.16H1179.15ZM1182.52 240.966H1188.26V232.074L1183.96 232.056C1183.91 232.686 1183.88 233.274 1183.85 233.82C1183.82 234.36 1183.79 234.909 1183.75 235.467C1183.71 236.025 1183.66 236.634 1183.6 237.294C1183.54 237.942 1183.47 238.482 1183.4 238.914C1183.33 239.346 1183.23 239.721 1183.1 240.039C1182.97 240.351 1182.78 240.66 1182.52 240.966ZM1193.36 243V230.04H1195.53V234.567H1198.71C1198.83 234.567 1199 234.573 1199.2 234.585C1199.4 234.591 1199.59 234.609 1199.76 234.639C1200.5 234.753 1201.12 235.002 1201.6 235.386C1202.1 235.77 1202.46 236.256 1202.69 236.844C1202.93 237.426 1203.05 238.071 1203.05 238.779C1203.05 239.493 1202.93 240.144 1202.69 240.732C1202.46 241.314 1202.1 241.797 1201.6 242.181C1201.12 242.565 1200.5 242.814 1199.76 242.928C1199.59 242.952 1199.4 242.97 1199.2 242.982C1199 242.994 1198.84 243 1198.71 243H1193.36ZM1195.53 240.966H1198.62C1198.75 240.966 1198.89 240.96 1199.03 240.948C1199.18 240.936 1199.32 240.915 1199.45 240.885C1199.81 240.795 1200.09 240.636 1200.29 240.408C1200.5 240.18 1200.65 239.922 1200.73 239.634C1200.82 239.34 1200.87 239.055 1200.87 238.779C1200.87 238.503 1200.82 238.221 1200.73 237.933C1200.65 237.645 1200.5 237.387 1200.29 237.159C1200.09 236.931 1199.81 236.772 1199.45 236.682C1199.32 236.646 1199.18 236.622 1199.03 236.61C1198.89 236.598 1198.75 236.592 1198.62 236.592H1195.53V240.966ZM1204.35 243V230.04H1206.52V243H1204.35ZM1209.02 243V230.04H1211.19V236.052L1216.37 230.04H1219.03L1213.46 236.394L1219.41 243H1216.65L1211.19 236.952V243H1209.02ZM882.664 268H880.468V258.865L874.456 268H872.26V255.04H874.456V264.175L880.468 255.04H882.664V268ZM884.1 268L888.978 261.394L884.478 255.04H887.07L891.075 260.899V255.04H893.244V260.899L897.249 255.04H899.841L895.341 261.394L900.219 268H897.546L893.244 262.105V268H891.075V262.105L886.782 268H884.1ZM900.751 268L904.837 255.04H908.014L912.1 268H909.868L906.16 256.372H906.646L902.983 268H900.751ZM903.028 265.192V263.167H909.832V265.192H903.028ZM913.727 268V255.04H919.082C919.208 255.04 919.37 255.046 919.568 255.058C919.766 255.064 919.949 255.082 920.117 255.112C920.867 255.226 921.485 255.475 921.971 255.859C922.463 256.243 922.826 256.729 923.06 257.317C923.3 257.899 923.42 258.547 923.42 259.261C923.42 259.969 923.3 260.617 923.06 261.205C922.82 261.787 922.454 262.27 921.962 262.654C921.476 263.038 920.861 263.287 920.117 263.401C919.949 263.425 919.763 263.443 919.559 263.455C919.361 263.467 919.202 263.473 919.082 263.473H915.896V268H913.727ZM915.896 261.448H918.992C919.112 261.448 919.247 261.442 919.397 261.43C919.547 261.418 919.685 261.394 919.811 261.358C920.171 261.268 920.453 261.109 920.657 260.881C920.867 260.653 921.014 260.395 921.098 260.107C921.188 259.819 921.233 259.537 921.233 259.261C921.233 258.985 921.188 258.703 921.098 258.415C921.014 258.121 920.867 257.86 920.657 257.632C920.453 257.404 920.171 257.245 919.811 257.155C919.685 257.119 919.547 257.098 919.397 257.092C919.247 257.08 919.112 257.074 918.992 257.074H915.896V261.448ZM923.426 268L927.512 255.04H930.689L934.775 268H932.543L928.835 256.372H929.321L925.658 268H923.426ZM925.703 265.192V263.167H932.507V265.192H925.703ZM941.532 268.27C940.236 268.27 939.126 267.988 938.202 267.424C937.278 266.854 936.567 266.062 936.069 265.048C935.577 264.034 935.331 262.858 935.331 261.52C935.331 260.182 935.577 259.006 936.069 257.992C936.567 256.978 937.278 256.189 938.202 255.625C939.126 255.055 940.236 254.77 941.532 254.77C943.026 254.77 944.271 255.145 945.267 255.895C946.263 256.639 946.962 257.644 947.364 258.91L945.177 259.513C944.925 258.667 944.496 258.007 943.89 257.533C943.284 257.053 942.498 256.813 941.532 256.813C940.662 256.813 939.936 257.008 939.354 257.398C938.778 257.788 938.343 258.337 938.049 259.045C937.761 259.747 937.614 260.572 937.608 261.52C937.608 262.468 937.752 263.296 938.04 264.004C938.334 264.706 938.772 265.252 939.354 265.642C939.936 266.032 940.662 266.227 941.532 266.227C942.498 266.227 943.284 265.987 943.89 265.507C944.496 265.027 944.925 264.367 945.177 263.527L947.364 264.13C946.962 265.396 946.263 266.404 945.267 267.154C944.271 267.898 943.026 268.27 941.532 268.27ZM949.322 268V255.04H951.491V259.567H954.677C954.797 259.567 954.959 259.573 955.163 259.585C955.367 259.591 955.553 259.609 955.721 259.639C956.465 259.753 957.08 260.002 957.566 260.386C958.058 260.77 958.421 261.256 958.655 261.844C958.895 262.426 959.015 263.071 959.015 263.779C959.015 264.493 958.895 265.144 958.655 265.732C958.421 266.314 958.058 266.797 957.566 267.181C957.08 267.565 956.465 267.814 955.721 267.928C955.553 267.952 955.367 267.97 955.163 267.982C954.965 267.994 954.803 268 954.677 268H949.322ZM951.491 265.966H954.587C954.713 265.966 954.848 265.96 954.992 265.948C955.142 265.936 955.283 265.915 955.415 265.885C955.769 265.795 956.048 265.636 956.252 265.408C956.462 265.18 956.609 264.922 956.693 264.634C956.783 264.34 956.828 264.055 956.828 263.779C956.828 263.503 956.783 263.221 956.693 262.933C956.609 262.645 956.462 262.387 956.252 262.159C956.048 261.931 955.769 261.772 955.415 261.682C955.283 261.646 955.142 261.622 954.992 261.61C954.848 261.598 954.713 261.592 954.587 261.592H951.491V265.966ZM960.311 268V255.04H962.48V268H960.311Z" fill="#222222"/>
</svg>
