<svg width="1364" height="910" viewBox="0 0 1364 910" fill="none" xmlns="http://www.w3.org/2000/svg">
<path d="M57.1968 487.101C41.5605 445.474 54.5274 397.538 88.251 353.661C121.971 309.788 176.409 270.025 243.581 244.794C310.753 219.562 377.908 213.652 432.172 224.475C486.443 235.299 527.762 262.843 543.399 304.471C559.035 346.098 546.068 394.033 512.345 437.911C478.625 481.783 424.186 521.546 357.014 546.778C289.842 572.009 222.688 577.92 168.423 567.097C114.152 556.272 72.8331 528.728 57.1968 487.101Z" stroke="#161616" stroke-width="0.74302"/>
<path d="M451.357 757.257C435.613 715.343 448.187 667.261 481.355 623.382C514.519 579.506 568.244 539.88 634.675 514.927C701.106 489.974 767.633 484.43 821.482 495.621C875.336 506.813 916.455 534.726 932.2 576.64C947.944 618.555 935.37 666.636 902.202 710.516C869.037 754.391 815.313 794.017 748.882 818.97C682.451 843.924 615.924 849.467 562.075 838.277C508.221 827.085 467.101 799.172 451.357 757.257Z" stroke="#161616" stroke-width="0.74302"/>
<path d="M988.033 333.758C1035.77 313.623 1090.31 322.124 1139.9 352.208C1189.49 382.293 1234.11 433.948 1261.99 500.053C1289.87 566.157 1295.72 634.167 1282.65 690.678C1269.58 747.19 1237.6 792.174 1189.86 812.309C1142.12 832.445 1087.59 823.944 1038 793.859C988.407 763.775 943.784 712.12 915.904 646.015C888.025 579.911 882.179 511.901 895.248 455.39C908.317 398.878 940.291 353.894 988.033 333.758Z" stroke="#161616" stroke-width="0.74302"/>
<path d="M543.441 532.533C560.269 568.052 551.891 611.464 524.617 652.977C497.346 694.485 451.216 734.035 392.682 761.769C334.148 789.502 274.325 800.152 224.932 794.967C175.531 789.782 136.63 768.771 119.801 733.253C102.973 697.734 111.351 654.323 138.625 612.809C165.896 571.301 212.026 531.751 270.56 504.017C329.094 476.284 388.917 465.634 438.31 470.819C487.711 476.004 526.612 497.015 543.441 532.533Z" stroke="#161616" stroke-width="0.747693"/>
<path d="M403.246 515.971C387.581 474.266 400.69 426.196 434.668 382.164C468.643 338.137 523.449 298.199 591.04 272.81C658.632 247.421 726.177 241.4 780.736 252.172C835.301 262.945 876.815 290.497 892.481 332.201C908.146 373.906 895.037 421.975 861.058 466.008C827.084 510.035 772.278 549.972 704.687 575.362C637.095 600.751 569.549 606.772 514.991 596C460.426 585.227 418.911 557.675 403.246 515.971Z" stroke="#161616" stroke-width="0.747654"/>
<path d="M772.689 363.173C754.146 313.807 764.689 258.814 796.785 209.794C828.882 160.773 882.519 117.751 950.099 92.366C1017.68 66.9814 1086.38 64.0518 1142.81 79.8186C1199.24 95.5854 1243.38 130.038 1261.92 179.404C1280.47 228.77 1269.92 283.763 1237.83 332.783C1205.73 381.804 1152.09 424.827 1084.51 450.211C1016.94 475.596 948.238 478.525 891.806 462.759C835.373 446.992 791.233 412.539 772.689 363.173Z" stroke="#161616" stroke-width="0.747654"/>
<path d="M551.774 436V420.16H558.055C559.126 420.16 560.002 420.376 560.684 420.809C561.374 421.234 561.883 421.781 562.213 422.448C562.551 423.115 562.719 423.805 562.719 424.516C562.719 425.389 562.51 426.129 562.092 426.738C561.682 427.347 561.121 427.757 560.409 427.97V427.42C561.407 427.647 562.162 428.12 562.675 428.839C563.196 429.558 563.456 430.375 563.456 431.292C563.456 432.231 563.277 433.052 562.917 433.756C562.558 434.46 562.023 435.01 561.311 435.406C560.607 435.802 559.735 436 558.693 436H551.774ZM554.458 433.503H558.363C558.825 433.503 559.24 433.411 559.606 433.228C559.973 433.037 560.259 432.773 560.464 432.436C560.677 432.091 560.783 431.684 560.783 431.215C560.783 430.79 560.692 430.408 560.508 430.071C560.325 429.734 560.057 429.466 559.705 429.268C559.353 429.063 558.932 428.96 558.44 428.96H554.458V433.503ZM554.458 426.485H558.022C558.404 426.485 558.745 426.412 559.045 426.265C559.346 426.118 559.584 425.902 559.76 425.616C559.936 425.33 560.024 424.978 560.024 424.56C560.024 424.01 559.848 423.552 559.496 423.185C559.144 422.818 558.653 422.635 558.022 422.635H554.458V426.485ZM572.033 436.33C570.772 436.33 569.661 436.073 568.7 435.56C567.747 435.047 566.999 434.324 566.456 433.393C565.921 432.462 565.653 431.369 565.653 430.115V420.182L568.337 420.16V430.049C568.337 430.643 568.436 431.175 568.634 431.644C568.84 432.113 569.115 432.513 569.459 432.843C569.804 433.166 570.2 433.411 570.647 433.58C571.095 433.749 571.557 433.833 572.033 433.833C572.525 433.833 572.99 433.749 573.43 433.58C573.878 433.404 574.274 433.155 574.618 432.832C574.963 432.502 575.234 432.102 575.432 431.633C575.63 431.164 575.729 430.636 575.729 430.049V420.16H578.413V430.115C578.413 431.369 578.142 432.462 577.599 433.393C577.064 434.324 576.316 435.047 575.355 435.56C574.402 436.073 573.295 436.33 572.033 436.33ZM586.684 436.33C585.526 436.33 584.481 436.128 583.549 435.725C582.625 435.322 581.863 434.746 581.261 433.998C580.667 433.243 580.29 432.348 580.128 431.314L582.878 430.896C583.113 431.835 583.593 432.561 584.319 433.074C585.053 433.587 585.896 433.844 586.849 433.844C587.414 433.844 587.946 433.756 588.444 433.58C588.943 433.404 589.346 433.147 589.654 432.81C589.97 432.473 590.127 432.058 590.127 431.567C590.127 431.347 590.091 431.145 590.017 430.962C589.944 430.771 589.834 430.603 589.687 430.456C589.548 430.309 589.365 430.177 589.137 430.06C588.917 429.935 588.661 429.829 588.367 429.741L584.275 428.531C583.923 428.428 583.542 428.293 583.131 428.124C582.728 427.948 582.343 427.71 581.976 427.409C581.617 427.101 581.32 426.712 581.085 426.243C580.858 425.766 580.744 425.18 580.744 424.483C580.744 423.464 581.001 422.609 581.514 421.92C582.035 421.223 582.732 420.703 583.604 420.358C584.484 420.013 585.46 419.845 586.53 419.852C587.616 419.859 588.584 420.046 589.434 420.413C590.285 420.772 590.996 421.297 591.568 421.986C592.14 422.675 592.544 423.508 592.778 424.483L589.929 424.978C589.812 424.421 589.585 423.948 589.247 423.559C588.917 423.163 588.51 422.862 588.026 422.657C587.55 422.452 587.04 422.342 586.497 422.327C585.969 422.32 585.478 422.4 585.023 422.569C584.576 422.73 584.213 422.965 583.934 423.273C583.663 423.581 583.527 423.94 583.527 424.351C583.527 424.74 583.645 425.059 583.879 425.308C584.114 425.55 584.404 425.744 584.748 425.891C585.1 426.03 585.456 426.148 585.815 426.243L588.653 427.035C589.042 427.138 589.478 427.277 589.962 427.453C590.446 427.629 590.912 427.875 591.359 428.19C591.807 428.505 592.173 428.92 592.459 429.433C592.753 429.946 592.899 430.599 592.899 431.391C592.899 432.212 592.727 432.935 592.382 433.558C592.045 434.174 591.587 434.687 591.007 435.098C590.428 435.509 589.764 435.817 589.016 436.022C588.276 436.227 587.498 436.33 586.684 436.33ZM595.5 436V420.16H598.151V436H595.5ZM601.446 436V420.16H604.13L611.478 431.325V420.16H614.162V436H611.478L604.13 424.835V436H601.446ZM617.237 436V420.16H627.467V422.646H619.888V426.551H626.147V429.037H619.888V433.514H627.467V436H617.237ZM635.819 436.33C634.66 436.33 633.615 436.128 632.684 435.725C631.76 435.322 630.997 434.746 630.396 433.998C629.802 433.243 629.424 432.348 629.263 431.314L632.013 430.896C632.248 431.835 632.728 432.561 633.454 433.074C634.187 433.587 635.031 433.844 635.984 433.844C636.549 433.844 637.08 433.756 637.579 433.58C638.078 433.404 638.481 433.147 638.789 432.81C639.104 432.473 639.262 432.058 639.262 431.567C639.262 431.347 639.225 431.145 639.152 430.962C639.079 430.771 638.969 430.603 638.822 430.456C638.683 430.309 638.499 430.177 638.272 430.06C638.052 429.935 637.795 429.829 637.502 429.741L633.41 428.531C633.058 428.428 632.677 428.293 632.266 428.124C631.863 427.948 631.478 427.71 631.111 427.409C630.752 427.101 630.455 426.712 630.22 426.243C629.993 425.766 629.879 425.18 629.879 424.483C629.879 423.464 630.136 422.609 630.649 421.92C631.17 421.223 631.866 420.703 632.739 420.358C633.619 420.013 634.594 419.845 635.665 419.852C636.75 419.859 637.718 420.046 638.569 420.413C639.42 420.772 640.131 421.297 640.703 421.986C641.275 422.675 641.678 423.508 641.913 424.483L639.064 424.978C638.947 424.421 638.719 423.948 638.382 423.559C638.052 423.163 637.645 422.862 637.161 422.657C636.684 422.452 636.175 422.342 635.632 422.327C635.104 422.32 634.613 422.4 634.158 422.569C633.711 422.73 633.348 422.965 633.069 423.273C632.798 423.581 632.662 423.94 632.662 424.351C632.662 424.74 632.779 425.059 633.014 425.308C633.249 425.55 633.538 425.744 633.883 425.891C634.235 426.03 634.591 426.148 634.95 426.243L637.788 427.035C638.177 427.138 638.613 427.277 639.097 427.453C639.581 427.629 640.047 427.875 640.494 428.19C640.941 428.505 641.308 428.92 641.594 429.433C641.887 429.946 642.034 430.599 642.034 431.391C642.034 432.212 641.862 432.935 641.517 433.558C641.18 434.174 640.721 434.687 640.142 435.098C639.563 435.509 638.899 435.817 638.151 436.022C637.41 436.227 636.633 436.33 635.819 436.33ZM650.6 436.33C649.442 436.33 648.397 436.128 647.465 435.725C646.541 435.322 645.779 434.746 645.177 433.998C644.583 433.243 644.206 432.348 644.044 431.314L646.794 430.896C647.029 431.835 647.509 432.561 648.235 433.074C648.969 433.587 649.812 433.844 650.765 433.844C651.33 433.844 651.862 433.756 652.36 433.58C652.859 433.404 653.262 433.147 653.57 432.81C653.886 432.473 654.043 432.058 654.043 431.567C654.043 431.347 654.007 431.145 653.933 430.962C653.86 430.771 653.75 430.603 653.603 430.456C653.464 430.309 653.281 430.177 653.053 430.06C652.833 429.935 652.577 429.829 652.283 429.741L648.191 428.531C647.839 428.428 647.458 428.293 647.047 428.124C646.644 427.948 646.259 427.71 645.892 427.409C645.533 427.101 645.236 426.712 645.001 426.243C644.774 425.766 644.66 425.18 644.66 424.483C644.66 423.464 644.917 422.609 645.43 421.92C645.951 421.223 646.648 420.703 647.52 420.358C648.4 420.013 649.376 419.845 650.446 419.852C651.532 419.859 652.5 420.046 653.35 420.413C654.201 420.772 654.912 421.297 655.484 421.986C656.056 422.675 656.46 423.508 656.694 424.483L653.845 424.978C653.728 424.421 653.501 423.948 653.163 423.559C652.833 423.163 652.426 422.862 651.942 422.657C651.466 422.452 650.956 422.342 650.413 422.327C649.885 422.32 649.394 422.4 648.939 422.569C648.492 422.73 648.129 422.965 647.85 423.273C647.579 423.581 647.443 423.94 647.443 424.351C647.443 424.74 647.561 425.059 647.795 425.308C648.03 425.55 648.32 425.744 648.664 425.891C649.016 426.03 649.372 426.148 649.731 426.243L652.569 427.035C652.958 427.138 653.394 427.277 653.878 427.453C654.362 427.629 654.828 427.875 655.275 428.19C655.723 428.505 656.089 428.92 656.375 429.433C656.669 429.946 656.815 430.599 656.815 431.391C656.815 432.212 656.643 432.935 656.298 433.558C655.961 434.174 655.503 434.687 654.923 435.098C654.344 435.509 653.68 435.817 652.932 436.022C652.192 436.227 651.414 436.33 650.6 436.33ZM663.821 436V420.16H666.472V436H663.821ZM669.767 436V420.16H672.451L679.799 431.325V420.16H682.483V436H679.799L672.451 424.835V436H669.767ZM692.257 436.33C690.673 436.33 689.316 435.985 688.187 435.296C687.057 434.599 686.188 433.631 685.58 432.392C684.978 431.153 684.678 429.715 684.678 428.08C684.678 426.445 684.978 425.007 685.58 423.768C686.188 422.529 687.057 421.564 688.187 420.875C689.316 420.178 690.673 419.83 692.257 419.83C694.083 419.83 695.604 420.288 696.822 421.205C698.039 422.114 698.893 423.343 699.385 424.89L696.712 425.627C696.404 424.593 695.879 423.786 695.139 423.207C694.398 422.62 693.437 422.327 692.257 422.327C691.193 422.327 690.306 422.565 689.595 423.042C688.891 423.519 688.359 424.19 688 425.055C687.648 425.913 687.468 426.921 687.461 428.08C687.461 429.239 687.637 430.251 687.989 431.116C688.348 431.974 688.883 432.641 689.595 433.118C690.306 433.595 691.193 433.833 692.257 433.833C693.437 433.833 694.398 433.54 695.139 432.953C695.879 432.366 696.404 431.56 696.712 430.533L699.385 431.27C698.893 432.817 698.039 434.049 696.822 434.966C695.604 435.875 694.083 436.33 692.257 436.33ZM708.18 436.33C706.918 436.33 705.807 436.073 704.847 435.56C703.893 435.047 703.145 434.324 702.603 433.393C702.067 432.462 701.8 431.369 701.8 430.115V420.182L704.484 420.16V430.049C704.484 430.643 704.583 431.175 704.781 431.644C704.986 432.113 705.261 432.513 705.606 432.843C705.95 433.166 706.346 433.411 706.794 433.58C707.241 433.749 707.703 433.833 708.18 433.833C708.671 433.833 709.137 433.749 709.577 433.58C710.024 433.404 710.42 433.155 710.765 432.832C711.109 432.502 711.381 432.102 711.579 431.633C711.777 431.164 711.876 430.636 711.876 430.049V420.16H714.56V430.115C714.56 431.369 714.288 432.462 713.746 433.393C713.21 434.324 712.462 435.047 711.502 435.56C710.548 436.073 709.441 436.33 708.18 436.33ZM717.634 436V420.16H723.915C724.985 420.16 725.862 420.376 726.544 420.809C727.233 421.234 727.743 421.781 728.073 422.448C728.41 423.115 728.579 423.805 728.579 424.516C728.579 425.389 728.37 426.129 727.952 426.738C727.541 427.347 726.98 427.757 726.269 427.97V427.42C727.266 427.647 728.021 428.12 728.535 428.839C729.055 429.558 729.316 430.375 729.316 431.292C729.316 432.231 729.136 433.052 728.777 433.756C728.417 434.46 727.882 435.01 727.171 435.406C726.467 435.802 725.594 436 724.553 436H717.634ZM720.318 433.503H724.223C724.685 433.503 725.099 433.411 725.466 433.228C725.832 433.037 726.118 432.773 726.324 432.436C726.536 432.091 726.643 431.684 726.643 431.215C726.643 430.79 726.551 430.408 726.368 430.071C726.184 429.734 725.917 429.466 725.565 429.268C725.213 429.063 724.791 428.96 724.3 428.96H720.318V433.503ZM720.318 426.485H723.882C724.263 426.485 724.604 426.412 724.905 426.265C725.205 426.118 725.444 425.902 725.62 425.616C725.796 425.33 725.884 424.978 725.884 424.56C725.884 424.01 725.708 423.552 725.356 423.185C725.004 422.818 724.512 422.635 723.882 422.635H720.318V426.485ZM730.413 436L735.407 420.16H739.29L744.284 436H741.556L737.024 421.788H737.618L733.141 436H730.413ZM733.196 432.568V430.093H741.512V432.568H733.196ZM748.768 436V422.646H743.642V420.16H756.545V422.646H751.419V436H748.768ZM765.003 436.33C763.419 436.33 762.062 435.985 760.933 435.296C759.803 434.599 758.934 433.631 758.326 432.392C757.724 431.153 757.424 429.715 757.424 428.08C757.424 426.445 757.724 425.007 758.326 423.768C758.934 422.529 759.803 421.564 760.933 420.875C762.062 420.178 763.419 419.83 765.003 419.83C766.587 419.83 767.943 420.178 769.073 420.875C770.209 421.564 771.078 422.529 771.68 423.768C772.288 425.007 772.593 426.445 772.593 428.08C772.593 429.715 772.288 431.153 771.68 432.392C771.078 433.631 770.209 434.599 769.073 435.296C767.943 435.985 766.587 436.33 765.003 436.33ZM765.003 433.833C766.066 433.84 766.95 433.606 767.654 433.129C768.365 432.652 768.897 431.981 769.249 431.116C769.608 430.251 769.788 429.239 769.788 428.08C769.788 426.921 769.608 425.917 769.249 425.066C768.897 424.208 768.365 423.541 767.654 423.064C766.95 422.587 766.066 422.342 765.003 422.327C763.939 422.32 763.056 422.554 762.352 423.031C761.648 423.508 761.116 424.179 760.757 425.044C760.405 425.909 760.229 426.921 760.229 428.08C760.229 429.239 760.405 430.247 760.757 431.105C761.109 431.956 761.637 432.619 762.341 433.096C763.052 433.573 763.939 433.818 765.003 433.833ZM774.782 436V420.16H781.327C781.481 420.16 781.679 420.167 781.921 420.182C782.163 420.189 782.387 420.211 782.592 420.248C783.509 420.387 784.264 420.692 784.858 421.161C785.46 421.63 785.903 422.224 786.189 422.943C786.483 423.654 786.629 424.446 786.629 425.319C786.629 426.61 786.303 427.721 785.65 428.652C784.998 429.576 783.997 430.148 782.647 430.368L781.514 430.467H777.433V436H774.782ZM783.879 436L780.755 429.554L783.45 428.96L786.882 436H783.879ZM777.433 427.992H781.217C781.364 427.992 781.529 427.985 781.712 427.97C781.896 427.955 782.064 427.926 782.218 427.882C782.658 427.772 783.003 427.578 783.252 427.299C783.509 427.02 783.689 426.705 783.791 426.353C783.901 426.001 783.956 425.656 783.956 425.319C783.956 424.982 783.901 424.637 783.791 424.285C783.689 423.926 783.509 423.607 783.252 423.328C783.003 423.049 782.658 422.855 782.218 422.745C782.064 422.701 781.896 422.675 781.712 422.668C781.529 422.653 781.364 422.646 781.217 422.646H777.433V427.992Z" fill="#222222"/>
<path d="M559.182 677V661.16H561.866L569.214 672.325V661.16H571.898V677H569.214L561.866 665.835V677H559.182ZM581.672 677.33C580.088 677.33 578.731 676.985 577.602 676.296C576.472 675.599 575.603 674.631 574.995 673.392C574.393 672.153 574.093 670.715 574.093 669.08C574.093 667.445 574.393 666.007 574.995 664.768C575.603 663.529 576.472 662.564 577.602 661.875C578.731 661.178 580.088 660.83 581.672 660.83C583.256 660.83 584.612 661.178 585.742 661.875C586.878 662.564 587.747 663.529 588.349 664.768C588.957 666.007 589.262 667.445 589.262 669.08C589.262 670.715 588.957 672.153 588.349 673.392C587.747 674.631 586.878 675.599 585.742 676.296C584.612 676.985 583.256 677.33 581.672 677.33ZM581.672 674.833C582.735 674.84 583.619 674.606 584.323 674.129C585.034 673.652 585.566 672.981 585.918 672.116C586.277 671.251 586.457 670.239 586.457 669.08C586.457 667.921 586.277 666.917 585.918 666.066C585.566 665.208 585.034 664.541 584.323 664.064C583.619 663.587 582.735 663.342 581.672 663.327C580.608 663.32 579.725 663.554 579.021 664.031C578.317 664.508 577.785 665.179 577.426 666.044C577.074 666.909 576.898 667.921 576.898 669.08C576.898 670.239 577.074 671.247 577.426 672.105C577.778 672.956 578.306 673.619 579.01 674.096C579.721 674.573 580.608 674.818 581.672 674.833ZM591.451 677V661.16H594.135L601.483 672.325V661.16H604.167V677H601.483L594.135 665.835V677H591.451ZM607.022 670.114V668.035H613.622V670.114H607.022ZM622.343 677.33C621.185 677.33 620.14 677.128 619.208 676.725C618.284 676.322 617.522 675.746 616.92 674.998C616.326 674.243 615.949 673.348 615.787 672.314L618.537 671.896C618.772 672.835 619.252 673.561 619.978 674.074C620.712 674.587 621.555 674.844 622.508 674.844C623.073 674.844 623.605 674.756 624.103 674.58C624.602 674.404 625.005 674.147 625.313 673.81C625.629 673.473 625.786 673.058 625.786 672.567C625.786 672.347 625.75 672.145 625.676 671.962C625.603 671.771 625.493 671.603 625.346 671.456C625.207 671.309 625.024 671.177 624.796 671.06C624.576 670.935 624.32 670.829 624.026 670.741L619.934 669.531C619.582 669.428 619.201 669.293 618.79 669.124C618.387 668.948 618.002 668.71 617.635 668.409C617.276 668.101 616.979 667.712 616.744 667.243C616.517 666.766 616.403 666.18 616.403 665.483C616.403 664.464 616.66 663.609 617.173 662.92C617.694 662.223 618.391 661.703 619.263 661.358C620.143 661.013 621.119 660.845 622.189 660.852C623.275 660.859 624.243 661.046 625.093 661.413C625.944 661.772 626.655 662.297 627.227 662.986C627.799 663.675 628.203 664.508 628.437 665.483L625.588 665.978C625.471 665.421 625.244 664.948 624.906 664.559C624.576 664.163 624.169 663.862 623.685 663.657C623.209 663.452 622.699 663.342 622.156 663.327C621.628 663.32 621.137 663.4 620.682 663.569C620.235 663.73 619.872 663.965 619.593 664.273C619.322 664.581 619.186 664.94 619.186 665.351C619.186 665.74 619.304 666.059 619.538 666.308C619.773 666.55 620.063 666.744 620.407 666.891C620.759 667.03 621.115 667.148 621.474 667.243L624.312 668.035C624.701 668.138 625.137 668.277 625.621 668.453C626.105 668.629 626.571 668.875 627.018 669.19C627.466 669.505 627.832 669.92 628.118 670.433C628.412 670.946 628.558 671.599 628.558 672.391C628.558 673.212 628.386 673.935 628.041 674.558C627.704 675.174 627.246 675.687 626.666 676.098C626.087 676.509 625.423 676.817 624.675 677.022C623.935 677.227 623.157 677.33 622.343 677.33ZM634.745 677V663.646H629.619V661.16H642.522V663.646H637.396V677H634.745ZM642.752 677L647.746 661.16H651.629L656.623 677H653.895L649.363 662.788H649.957L645.48 677H642.752ZM645.535 673.568V671.093H653.851V673.568H645.535ZM661.107 677V663.646H655.981V661.16H668.884V663.646H663.758V677H661.107ZM670.863 677V661.16H673.514V677H670.863ZM683.508 677.33C681.924 677.33 680.567 676.985 679.438 676.296C678.308 675.599 677.439 674.631 676.831 673.392C676.229 672.153 675.929 670.715 675.929 669.08C675.929 667.445 676.229 666.007 676.831 664.768C677.439 663.529 678.308 662.564 679.438 661.875C680.567 661.178 681.924 660.83 683.508 660.83C685.092 660.83 686.448 661.178 687.578 661.875C688.714 662.564 689.583 663.529 690.185 664.768C690.793 666.007 691.098 667.445 691.098 669.08C691.098 670.715 690.793 672.153 690.185 673.392C689.583 674.631 688.714 675.599 687.578 676.296C686.448 676.985 685.092 677.33 683.508 677.33ZM683.508 674.833C684.571 674.84 685.455 674.606 686.159 674.129C686.87 673.652 687.402 672.981 687.754 672.116C688.113 671.251 688.293 670.239 688.293 669.08C688.293 667.921 688.113 666.917 687.754 666.066C687.402 665.208 686.87 664.541 686.159 664.064C685.455 663.587 684.571 663.342 683.508 663.327C682.444 663.32 681.561 663.554 680.857 664.031C680.153 664.508 679.621 665.179 679.262 666.044C678.91 666.909 678.734 667.921 678.734 669.08C678.734 670.239 678.91 671.247 679.262 672.105C679.614 672.956 680.142 673.619 680.846 674.096C681.557 674.573 682.444 674.818 683.508 674.833ZM693.287 677V661.16H695.971L703.319 672.325V661.16H706.003V677H703.319L695.971 665.835V677H693.287ZM707.978 677L712.972 661.16H716.855L721.849 677H719.121L714.589 662.788H715.183L710.706 677H707.978ZM710.761 673.568V671.093H719.077V673.568H710.761ZM723.838 677V661.16H730.383C730.537 661.16 730.735 661.167 730.977 661.182C731.219 661.189 731.443 661.211 731.648 661.248C732.565 661.387 733.32 661.692 733.914 662.161C734.515 662.63 734.959 663.224 735.245 663.943C735.538 664.654 735.685 665.446 735.685 666.319C735.685 667.61 735.359 668.721 734.706 669.652C734.053 670.576 733.052 671.148 731.703 671.368L730.57 671.467H726.489V677H723.838ZM732.935 677L729.811 670.554L732.506 669.96L735.938 677H732.935ZM726.489 668.992H730.273C730.42 668.992 730.585 668.985 730.768 668.97C730.951 668.955 731.12 668.926 731.274 668.882C731.714 668.772 732.059 668.578 732.308 668.299C732.565 668.02 732.744 667.705 732.847 667.353C732.957 667.001 733.012 666.656 733.012 666.319C733.012 665.982 732.957 665.637 732.847 665.285C732.744 664.926 732.565 664.607 732.308 664.328C732.059 664.049 731.714 663.855 731.274 663.745C731.12 663.701 730.951 663.675 730.768 663.668C730.585 663.653 730.42 663.646 730.273 663.646H726.489V668.992ZM741.911 677V670.51L736.521 661.16H739.612L743.253 667.474L746.883 661.16H749.974L744.595 670.51V677H741.911ZM755.033 677V661.16H761.578C761.732 661.16 761.93 661.167 762.172 661.182C762.414 661.189 762.638 661.211 762.843 661.248C763.76 661.387 764.515 661.692 765.109 662.161C765.71 662.63 766.154 663.224 766.44 663.943C766.733 664.654 766.88 665.446 766.88 666.319C766.88 667.61 766.554 668.721 765.901 669.652C765.248 670.576 764.247 671.148 762.898 671.368L761.765 671.467H757.684V677H755.033ZM764.13 677L761.006 670.554L763.701 669.96L767.133 677H764.13ZM757.684 668.992H761.468C761.615 668.992 761.78 668.985 761.963 668.97C762.146 668.955 762.315 668.926 762.469 668.882C762.909 668.772 763.254 668.578 763.503 668.299C763.76 668.02 763.939 667.705 764.042 667.353C764.152 667.001 764.207 666.656 764.207 666.319C764.207 665.982 764.152 665.637 764.042 665.285C763.939 664.926 763.76 664.607 763.503 664.328C763.254 664.049 762.909 663.855 762.469 663.745C762.315 663.701 762.146 663.675 761.963 663.668C761.78 663.653 761.615 663.646 761.468 663.646H757.684V668.992ZM769.557 677V661.16H779.787V663.646H772.208V667.551H778.467V670.037H772.208V674.514H779.787V677H769.557ZM786.232 677V663.646H781.106V661.16H794.009V663.646H788.883V677H786.232ZM794.238 677L799.232 661.16H803.115L808.109 677H805.381L800.849 662.788H801.443L796.966 677H794.238ZM797.021 673.568V671.093H805.337V673.568H797.021ZM810.318 677V661.16H812.969V677H810.318ZM816.484 677V661.16H819.135V674.514H826.131V677H816.484ZM636.729 707V691.16H646.266V693.811H639.38V697.76H644.946V700.4H639.38V707H636.729ZM646.93 707L651.924 691.16H655.807L660.801 707H658.073L653.541 692.788H654.135L649.658 707H646.93ZM649.713 703.568V701.093H658.029V703.568H649.713ZM669.059 707.33C667.475 707.33 666.119 706.985 664.989 706.296C663.86 705.599 662.991 704.631 662.382 703.392C661.781 702.153 661.48 700.715 661.48 699.08C661.48 697.445 661.781 696.007 662.382 694.768C662.991 693.529 663.86 692.564 664.989 691.875C666.119 691.178 667.475 690.83 669.059 690.83C670.885 690.83 672.407 691.288 673.624 692.205C674.842 693.114 675.696 694.343 676.187 695.89L673.514 696.627C673.206 695.593 672.682 694.786 671.941 694.207C671.201 693.62 670.24 693.327 669.059 693.327C667.996 693.327 667.109 693.565 666.397 694.042C665.693 694.519 665.162 695.19 664.802 696.055C664.45 696.913 664.271 697.921 664.263 699.08C664.263 700.239 664.439 701.251 664.791 702.116C665.151 702.974 665.686 703.641 666.397 704.118C667.109 704.595 667.996 704.833 669.059 704.833C670.24 704.833 671.201 704.54 671.941 703.953C672.682 703.366 673.206 702.56 673.514 701.533L676.187 702.27C675.696 703.817 674.842 705.049 673.624 705.966C672.407 706.875 670.885 707.33 669.059 707.33ZM678.823 707V691.16H681.474V707H678.823ZM684.989 707V691.16H687.64V704.514H694.636V707H684.989ZM696.719 707V691.16H699.37V707H696.719ZM706.471 707V693.646H701.345V691.16H714.248V693.646H709.122V707H706.471ZM716.227 707V691.16H718.878V707H716.227ZM722.173 707V691.16H732.403V693.646H724.824V697.551H731.083V700.037H724.824V704.514H732.403V707H722.173ZM740.755 707.33C739.596 707.33 738.551 707.128 737.62 706.725C736.696 706.322 735.933 705.746 735.332 704.998C734.738 704.243 734.36 703.348 734.199 702.314L736.949 701.896C737.183 702.835 737.664 703.561 738.39 704.074C739.123 704.587 739.966 704.844 740.92 704.844C741.484 704.844 742.016 704.756 742.515 704.58C743.013 704.404 743.417 704.147 743.725 703.81C744.04 703.473 744.198 703.058 744.198 702.567C744.198 702.347 744.161 702.145 744.088 701.962C744.014 701.771 743.904 701.603 743.758 701.456C743.618 701.309 743.435 701.177 743.208 701.06C742.988 700.935 742.731 700.829 742.438 700.741L738.346 699.531C737.994 699.428 737.612 699.293 737.202 699.124C736.798 698.948 736.413 698.71 736.047 698.409C735.687 698.101 735.39 697.712 735.156 697.243C734.928 696.766 734.815 696.18 734.815 695.483C734.815 694.464 735.071 693.609 735.585 692.92C736.105 692.223 736.802 691.703 737.675 691.358C738.555 691.013 739.53 690.845 740.601 690.852C741.686 690.859 742.654 691.046 743.505 691.413C744.355 691.772 745.067 692.297 745.639 692.986C746.211 693.675 746.614 694.508 746.849 695.483L744 695.978C743.882 695.421 743.655 694.948 743.318 694.559C742.988 694.163 742.581 693.862 742.097 693.657C741.62 693.452 741.11 693.342 740.568 693.327C740.04 693.32 739.548 693.4 739.094 693.569C738.646 693.73 738.283 693.965 738.005 694.273C737.733 694.581 737.598 694.94 737.598 695.351C737.598 695.74 737.715 696.059 737.95 696.308C738.184 696.55 738.474 696.744 738.819 696.891C739.171 697.03 739.526 697.148 739.886 697.243L742.724 698.035C743.112 698.138 743.549 698.277 744.033 698.453C744.517 698.629 744.982 698.875 745.43 699.19C745.877 699.505 746.244 699.92 746.53 700.433C746.823 700.946 746.97 701.599 746.97 702.391C746.97 703.212 746.797 703.935 746.453 704.558C746.115 705.174 745.657 705.687 745.078 706.098C744.498 706.509 743.835 706.817 743.087 707.022C742.346 707.227 741.569 707.33 740.755 707.33Z" fill="#222222"/>
<path d="M1013.87 573V557.16H1016.52V573H1013.87ZM1019.82 573V557.16H1022.5L1029.85 568.325V557.16H1032.54V573H1029.85L1022.5 561.835V573H1019.82ZM1035.61 573V557.16H1040.66C1040.79 557.16 1041.05 557.164 1041.44 557.171C1041.84 557.178 1042.22 557.204 1042.58 557.248C1043.84 557.409 1044.9 557.857 1045.76 558.59C1046.64 559.316 1047.3 560.244 1047.74 561.373C1048.19 562.502 1048.41 563.738 1048.41 565.08C1048.41 566.422 1048.19 567.658 1047.74 568.787C1047.3 569.916 1046.64 570.848 1045.76 571.581C1044.9 572.307 1043.84 572.751 1042.58 572.912C1042.22 572.956 1041.85 572.982 1041.45 572.989C1041.06 572.996 1040.79 573 1040.66 573H1035.61ZM1038.31 570.503H1040.66C1040.88 570.503 1041.16 570.496 1041.5 570.481C1041.84 570.466 1042.14 570.433 1042.41 570.382C1043.16 570.243 1043.76 569.909 1044.23 569.381C1044.7 568.853 1045.05 568.211 1045.27 567.456C1045.5 566.701 1045.61 565.909 1045.61 565.08C1045.61 564.222 1045.5 563.415 1045.27 562.66C1045.04 561.905 1044.69 561.27 1044.21 560.757C1043.74 560.244 1043.14 559.917 1042.41 559.778C1042.14 559.719 1041.84 559.686 1041.5 559.679C1041.16 559.664 1040.88 559.657 1040.66 559.657H1038.31V570.503ZM1057.39 573.33C1056.13 573.33 1055.02 573.073 1054.06 572.56C1053.11 572.047 1052.36 571.324 1051.82 570.393C1051.28 569.462 1051.01 568.369 1051.01 567.115V557.182L1053.7 557.16V567.049C1053.7 567.643 1053.8 568.175 1054 568.644C1054.2 569.113 1054.48 569.513 1054.82 569.843C1055.17 570.166 1055.56 570.411 1056.01 570.58C1056.46 570.749 1056.92 570.833 1057.39 570.833C1057.89 570.833 1058.35 570.749 1058.79 570.58C1059.24 570.404 1059.63 570.155 1059.98 569.832C1060.32 569.502 1060.6 569.102 1060.79 568.633C1060.99 568.164 1061.09 567.636 1061.09 567.049V557.16H1063.77V567.115C1063.77 568.369 1063.5 569.462 1062.96 570.393C1062.43 571.324 1061.68 572.047 1060.72 572.56C1059.76 573.073 1058.66 573.33 1057.39 573.33ZM1072.05 573.33C1070.89 573.33 1069.84 573.128 1068.91 572.725C1067.99 572.322 1067.22 571.746 1066.62 570.998C1066.03 570.243 1065.65 569.348 1065.49 568.314L1068.24 567.896C1068.47 568.835 1068.95 569.561 1069.68 570.074C1070.41 570.587 1071.26 570.844 1072.21 570.844C1072.78 570.844 1073.31 570.756 1073.81 570.58C1074.3 570.404 1074.71 570.147 1075.02 569.81C1075.33 569.473 1075.49 569.058 1075.49 568.567C1075.49 568.347 1075.45 568.145 1075.38 567.962C1075.31 567.771 1075.2 567.603 1075.05 567.456C1074.91 567.309 1074.73 567.177 1074.5 567.06C1074.28 566.935 1074.02 566.829 1073.73 566.741L1069.64 565.531C1069.28 565.428 1068.9 565.293 1068.49 565.124C1068.09 564.948 1067.7 564.71 1067.34 564.409C1066.98 564.101 1066.68 563.712 1066.45 563.243C1066.22 562.766 1066.11 562.18 1066.11 561.483C1066.11 560.464 1066.36 559.609 1066.88 558.92C1067.4 558.223 1068.09 557.703 1068.97 557.358C1069.85 557.013 1070.82 556.845 1071.89 556.852C1072.98 556.859 1073.94 557.046 1074.8 557.413C1075.65 557.772 1076.36 558.297 1076.93 558.986C1077.5 559.675 1077.9 560.508 1078.14 561.483L1075.29 561.978C1075.17 561.421 1074.95 560.948 1074.61 560.559C1074.28 560.163 1073.87 559.862 1073.39 559.657C1072.91 559.452 1072.4 559.342 1071.86 559.327C1071.33 559.32 1070.84 559.4 1070.38 559.569C1069.94 559.73 1069.57 559.965 1069.3 560.273C1069.02 560.581 1068.89 560.94 1068.89 561.351C1068.89 561.74 1069.01 562.059 1069.24 562.308C1069.48 562.55 1069.76 562.744 1070.11 562.891C1070.46 563.03 1070.82 563.148 1071.18 563.243L1074.01 564.035C1074.4 564.138 1074.84 564.277 1075.32 564.453C1075.81 564.629 1076.27 564.875 1076.72 565.19C1077.17 565.505 1077.53 565.92 1077.82 566.433C1078.11 566.946 1078.26 567.599 1078.26 568.391C1078.26 569.212 1078.09 569.935 1077.74 570.558C1077.41 571.174 1076.95 571.687 1076.37 572.098C1075.79 572.509 1075.13 572.817 1074.38 573.022C1073.64 573.227 1072.86 573.33 1072.05 573.33ZM1084.45 573V559.646H1079.32V557.16H1092.22V559.646H1087.1V573H1084.45ZM1093.98 573V557.16H1100.53C1100.68 557.16 1100.88 557.167 1101.12 557.182C1101.36 557.189 1101.59 557.211 1101.79 557.248C1102.71 557.387 1103.47 557.692 1104.06 558.161C1104.66 558.63 1105.1 559.224 1105.39 559.943C1105.68 560.654 1105.83 561.446 1105.83 562.319C1105.83 563.61 1105.5 564.721 1104.85 565.652C1104.2 566.576 1103.2 567.148 1101.85 567.368L1100.72 567.467H1096.63V573H1093.98ZM1103.08 573L1099.96 566.554L1102.65 565.96L1106.08 573H1103.08ZM1096.63 564.992H1100.42C1100.57 564.992 1100.73 564.985 1100.91 564.97C1101.1 564.955 1101.27 564.926 1101.42 564.882C1101.86 564.772 1102.2 564.578 1102.45 564.299C1102.71 564.02 1102.89 563.705 1102.99 563.353C1103.1 563.001 1103.16 562.656 1103.16 562.319C1103.16 561.982 1103.1 561.637 1102.99 561.285C1102.89 560.926 1102.71 560.607 1102.45 560.328C1102.2 560.049 1101.86 559.855 1101.42 559.745C1101.27 559.701 1101.1 559.675 1100.91 559.668C1100.73 559.653 1100.57 559.646 1100.42 559.646H1096.63V564.992ZM1108.73 573V557.16H1111.38V573H1108.73ZM1113.57 573L1118.57 557.16H1122.45L1127.44 573H1124.72L1120.18 558.788H1120.78L1116.3 573H1113.57ZM1116.36 569.568V567.093H1124.67V569.568H1116.36ZM1129.65 573V557.16H1132.3V570.514H1139.3V573H1129.65ZM1143.37 573L1148.37 557.16H1152.25L1157.24 573H1154.51L1149.98 558.788H1150.58L1146.1 573H1143.37ZM1146.15 569.568V567.093H1154.47V569.568H1146.15ZM1159.23 573V557.16H1161.92L1169.26 568.325V557.16H1171.95V573H1169.26L1161.92 561.835V573H1159.23ZM1175.02 573V557.16H1180.07C1180.2 557.16 1180.46 557.164 1180.85 557.171C1181.25 557.178 1181.63 557.204 1182 557.248C1183.25 557.409 1184.31 557.857 1185.18 558.59C1186.05 559.316 1186.71 560.244 1187.16 561.373C1187.6 562.502 1187.83 563.738 1187.83 565.08C1187.83 566.422 1187.6 567.658 1187.16 568.787C1186.71 569.916 1186.05 570.848 1185.18 571.581C1184.31 572.307 1183.25 572.751 1182 572.912C1181.64 572.956 1181.26 572.982 1180.86 572.989C1180.47 572.996 1180.2 573 1180.07 573H1175.02ZM1177.72 570.503H1180.07C1180.29 570.503 1180.57 570.496 1180.91 570.481C1181.25 570.466 1181.56 570.433 1181.82 570.382C1182.57 570.243 1183.18 569.909 1183.65 569.381C1184.12 568.853 1184.46 568.211 1184.68 567.456C1184.91 566.701 1185.02 565.909 1185.02 565.08C1185.02 564.222 1184.91 563.415 1184.68 562.66C1184.45 561.905 1184.1 561.27 1183.62 560.757C1183.16 560.244 1182.55 559.917 1181.82 559.778C1181.56 559.719 1181.25 559.686 1180.91 559.679C1180.57 559.664 1180.29 559.657 1180.07 559.657H1177.72V570.503ZM995.588 603V589.646H990.462V587.16H1003.37V589.646H998.239V603H995.588ZM1005.12 603V587.16H1015.35V589.646H1007.77V593.551H1014.03V596.037H1007.77V600.514H1015.35V603H1005.12ZM1024.13 603.33C1022.55 603.33 1021.19 602.985 1020.06 602.296C1018.93 601.599 1018.07 600.631 1017.46 599.392C1016.86 598.153 1016.55 596.715 1016.55 595.08C1016.55 593.445 1016.86 592.007 1017.46 590.768C1018.07 589.529 1018.93 588.564 1020.06 587.875C1021.19 587.178 1022.55 586.83 1024.13 586.83C1025.96 586.83 1027.48 587.288 1028.7 588.205C1029.92 589.114 1030.77 590.343 1031.26 591.89L1028.59 592.627C1028.28 591.593 1027.76 590.786 1027.02 590.207C1026.27 589.62 1025.31 589.327 1024.13 589.327C1023.07 589.327 1022.18 589.565 1021.47 590.042C1020.77 590.519 1020.24 591.19 1019.88 592.055C1019.52 592.913 1019.34 593.921 1019.34 595.08C1019.34 596.239 1019.51 597.251 1019.87 598.116C1020.22 598.974 1020.76 599.641 1021.47 600.118C1022.18 600.595 1023.07 600.833 1024.13 600.833C1025.31 600.833 1026.27 600.54 1027.02 599.953C1027.76 599.366 1028.28 598.56 1028.59 597.533L1031.26 598.27C1030.77 599.817 1029.92 601.049 1028.7 601.966C1027.48 602.875 1025.96 603.33 1024.13 603.33ZM1033.68 603V587.16H1036.33V593.826H1043.83V587.16H1046.47V603H1043.83V596.312H1036.33V603H1033.68ZM1049.55 603V587.16H1052.24L1059.59 598.325V587.16H1062.27V603H1059.59L1052.24 591.835V603H1049.55ZM1072.04 603.33C1070.46 603.33 1069.1 602.985 1067.97 602.296C1066.84 601.599 1065.98 600.631 1065.37 599.392C1064.77 598.153 1064.46 596.715 1064.46 595.08C1064.46 593.445 1064.77 592.007 1065.37 590.768C1065.98 589.529 1066.84 588.564 1067.97 587.875C1069.1 587.178 1070.46 586.83 1072.04 586.83C1073.63 586.83 1074.98 587.178 1076.11 587.875C1077.25 588.564 1078.12 589.529 1078.72 590.768C1079.33 592.007 1079.63 593.445 1079.63 595.08C1079.63 596.715 1079.33 598.153 1078.72 599.392C1078.12 600.631 1077.25 601.599 1076.11 602.296C1074.98 602.985 1073.63 603.33 1072.04 603.33ZM1072.04 600.833C1073.11 600.84 1073.99 600.606 1074.69 600.129C1075.41 599.652 1075.94 598.981 1076.29 598.116C1076.65 597.251 1076.83 596.239 1076.83 595.08C1076.83 593.921 1076.65 592.917 1076.29 592.066C1075.94 591.208 1075.41 590.541 1074.69 590.064C1073.99 589.587 1073.11 589.342 1072.04 589.327C1070.98 589.32 1070.1 589.554 1069.39 590.031C1068.69 590.508 1068.16 591.179 1067.8 592.044C1067.45 592.909 1067.27 593.921 1067.27 595.08C1067.27 596.239 1067.45 597.247 1067.8 598.105C1068.15 598.956 1068.68 599.619 1069.38 600.096C1070.09 600.573 1070.98 600.818 1072.04 600.833ZM1082.04 603V587.16H1084.69V600.514H1091.69V603H1082.04ZM1099.82 603.33C1098.24 603.33 1096.88 602.985 1095.75 602.296C1094.62 601.599 1093.75 600.631 1093.15 599.392C1092.54 598.153 1092.24 596.715 1092.24 595.08C1092.24 593.445 1092.54 592.007 1093.15 590.768C1093.75 589.529 1094.62 588.564 1095.75 587.875C1096.88 587.178 1098.24 586.83 1099.82 586.83C1101.41 586.83 1102.76 587.178 1103.89 587.875C1105.03 588.564 1105.9 589.529 1106.5 590.768C1107.11 592.007 1107.41 593.445 1107.41 595.08C1107.41 596.715 1107.11 598.153 1106.5 599.392C1105.9 600.631 1105.03 601.599 1103.89 602.296C1102.76 602.985 1101.41 603.33 1099.82 603.33ZM1099.82 600.833C1100.89 600.84 1101.77 600.606 1102.47 600.129C1103.19 599.652 1103.72 598.981 1104.07 598.116C1104.43 597.251 1104.61 596.239 1104.61 595.08C1104.61 593.921 1104.43 592.917 1104.07 592.066C1103.72 591.208 1103.19 590.541 1102.47 590.064C1101.77 589.587 1100.89 589.342 1099.82 589.327C1098.76 589.32 1097.88 589.554 1097.17 590.031C1096.47 590.508 1095.94 591.179 1095.58 592.044C1095.22 592.909 1095.05 593.921 1095.05 595.08C1095.05 596.239 1095.22 597.247 1095.58 598.105C1095.93 598.956 1096.46 599.619 1097.16 600.096C1097.87 600.573 1098.76 600.818 1099.82 600.833ZM1116.14 603.33C1115.11 603.33 1114.15 603.15 1113.24 602.791C1112.35 602.424 1111.56 601.889 1110.88 601.185C1110.2 600.481 1109.68 599.619 1109.29 598.6C1108.91 597.573 1108.72 596.4 1108.72 595.08C1108.72 593.349 1109.05 591.872 1109.69 590.647C1110.34 589.415 1111.22 588.473 1112.34 587.82C1113.46 587.16 1114.73 586.83 1116.14 586.83C1118.09 586.83 1119.63 587.285 1120.77 588.194C1121.91 589.096 1122.69 590.365 1123.09 592L1120.38 592.429C1120.08 591.49 1119.59 590.742 1118.91 590.185C1118.23 589.62 1117.36 589.338 1116.3 589.338C1115.24 589.323 1114.35 589.554 1113.65 590.031C1112.95 590.508 1112.41 591.179 1112.06 592.044C1111.7 592.909 1111.53 593.921 1111.53 595.08C1111.53 596.239 1111.7 597.247 1112.06 598.105C1112.41 598.956 1112.94 599.619 1113.64 600.096C1114.35 600.573 1115.24 600.818 1116.3 600.833C1117.1 600.84 1117.8 600.697 1118.4 600.404C1119 600.103 1119.5 599.652 1119.88 599.051C1120.26 598.442 1120.51 597.683 1120.65 596.774H1117.85V594.695H1123.46C1123.48 594.812 1123.49 594.985 1123.5 595.212C1123.5 595.439 1123.51 595.575 1123.51 595.619C1123.51 597.115 1123.21 598.446 1122.62 599.612C1122.03 600.771 1121.19 601.68 1120.09 602.34C1118.99 603 1117.67 603.33 1116.14 603.33ZM1128.9 603V596.51L1123.51 587.16H1126.6L1130.24 593.474L1133.87 587.16H1136.96L1131.58 596.51V603H1128.9ZM1142.02 603V587.16H1148.57C1148.72 587.16 1148.92 587.167 1149.16 587.182C1149.4 587.189 1149.63 587.211 1149.83 587.248C1150.75 587.387 1151.5 587.692 1152.1 588.161C1152.7 588.63 1153.14 589.224 1153.43 589.943C1153.72 590.654 1153.87 591.446 1153.87 592.319C1153.87 593.184 1153.72 593.976 1153.43 594.695C1153.14 595.406 1152.69 595.997 1152.09 596.466C1151.49 596.935 1150.74 597.24 1149.83 597.379C1149.63 597.408 1149.4 597.43 1149.15 597.445C1148.91 597.46 1148.71 597.467 1148.57 597.467H1144.67V603H1142.02ZM1144.67 594.992H1148.46C1148.6 594.992 1148.77 594.985 1148.95 594.97C1149.14 594.955 1149.3 594.926 1149.46 594.882C1149.9 594.772 1150.24 594.578 1150.49 594.299C1150.75 594.02 1150.93 593.705 1151.03 593.353C1151.14 593.001 1151.2 592.656 1151.2 592.319C1151.2 591.982 1151.14 591.637 1151.03 591.285C1150.93 590.926 1150.75 590.607 1150.49 590.328C1150.24 590.049 1149.9 589.855 1149.46 589.745C1149.3 589.701 1149.14 589.675 1148.95 589.668C1148.77 589.653 1148.6 589.646 1148.46 589.646H1144.67V594.992ZM1153.88 603L1158.87 587.16H1162.75L1167.75 603H1165.02L1160.49 588.788H1161.08L1156.61 603H1153.88ZM1156.66 599.568V597.093H1164.98V599.568H1156.66ZM1169.74 603V587.16H1176.28C1176.44 587.16 1176.63 587.167 1176.88 587.182C1177.12 587.189 1177.34 587.211 1177.55 587.248C1178.46 587.387 1179.22 587.692 1179.81 588.161C1180.41 588.63 1180.86 589.224 1181.14 589.943C1181.44 590.654 1181.58 591.446 1181.58 592.319C1181.58 593.61 1181.26 594.721 1180.61 595.652C1179.95 596.576 1178.95 597.148 1177.6 597.368L1176.47 597.467H1172.39V603H1169.74ZM1178.83 603L1175.71 596.554L1178.41 595.96L1181.84 603H1178.83ZM1172.39 594.992H1176.17C1176.32 594.992 1176.48 594.985 1176.67 594.97C1176.85 594.955 1177.02 594.926 1177.17 594.882C1177.61 594.772 1177.96 594.578 1178.21 594.299C1178.46 594.02 1178.64 593.705 1178.75 593.353C1178.86 593.001 1178.91 592.656 1178.91 592.319C1178.91 591.982 1178.86 591.637 1178.75 591.285C1178.64 590.926 1178.46 590.607 1178.21 590.328C1177.96 590.049 1177.61 589.855 1177.17 589.745C1177.02 589.701 1176.85 589.675 1176.67 589.668C1176.48 589.653 1176.32 589.646 1176.17 589.646H1172.39V594.992ZM1184.26 603V587.16H1186.91V594.508L1193.24 587.16H1196.49L1189.68 594.926L1196.95 603H1193.59L1186.91 595.608V603H1184.26ZM1203.7 603.33C1202.54 603.33 1201.5 603.128 1200.57 602.725C1199.64 602.322 1198.88 601.746 1198.28 600.998C1197.68 600.243 1197.31 599.348 1197.15 598.314L1199.9 597.896C1200.13 598.835 1200.61 599.561 1201.34 600.074C1202.07 600.587 1202.91 600.844 1203.87 600.844C1204.43 600.844 1204.96 600.756 1205.46 600.58C1205.96 600.404 1206.36 600.147 1206.67 599.81C1206.99 599.473 1207.14 599.058 1207.14 598.567C1207.14 598.347 1207.11 598.145 1207.03 597.962C1206.96 597.771 1206.85 597.603 1206.7 597.456C1206.57 597.309 1206.38 597.177 1206.15 597.06C1205.93 596.935 1205.68 596.829 1205.38 596.741L1201.29 595.531C1200.94 595.428 1200.56 595.293 1200.15 595.124C1199.75 594.948 1199.36 594.71 1198.99 594.409C1198.63 594.101 1198.34 593.712 1198.1 593.243C1197.88 592.766 1197.76 592.18 1197.76 591.483C1197.76 590.464 1198.02 589.609 1198.53 588.92C1199.05 588.223 1199.75 587.703 1200.62 587.358C1201.5 587.013 1202.48 586.845 1203.55 586.852C1204.63 586.859 1205.6 587.046 1206.45 587.413C1207.3 587.772 1208.01 588.297 1208.59 588.986C1209.16 589.675 1209.56 590.508 1209.8 591.483L1206.95 591.978C1206.83 591.421 1206.6 590.948 1206.26 590.559C1205.93 590.163 1205.53 589.862 1205.04 589.657C1204.57 589.452 1204.06 589.342 1203.51 589.327C1202.99 589.32 1202.5 589.4 1202.04 589.569C1201.59 589.73 1201.23 589.965 1200.95 590.273C1200.68 590.581 1200.54 590.94 1200.54 591.351C1200.54 591.74 1200.66 592.059 1200.9 592.308C1201.13 592.55 1201.42 592.744 1201.77 592.891C1202.12 593.03 1202.47 593.148 1202.83 593.243L1205.67 594.035C1206.06 594.138 1206.5 594.277 1206.98 594.453C1207.46 594.629 1207.93 594.875 1208.38 595.19C1208.82 595.505 1209.19 595.92 1209.48 596.433C1209.77 596.946 1209.92 597.599 1209.92 598.391C1209.92 599.212 1209.74 599.935 1209.4 600.558C1209.06 601.174 1208.6 601.687 1208.02 602.098C1207.45 602.509 1206.78 602.817 1206.03 603.022C1205.29 603.227 1204.52 603.33 1203.7 603.33Z" fill="#222222"/>
<path d="M245.537 662.33C243.953 662.33 242.596 661.985 241.467 661.296C240.338 660.599 239.469 659.631 238.86 658.392C238.259 657.153 237.958 655.715 237.958 654.08C237.958 652.445 238.259 651.007 238.86 649.768C239.469 648.529 240.338 647.564 241.467 646.875C242.596 646.178 243.953 645.83 245.537 645.83C247.363 645.83 248.885 646.288 250.102 647.205C251.319 648.114 252.174 649.343 252.665 650.89L249.992 651.627C249.684 650.593 249.16 649.786 248.419 649.207C247.678 648.62 246.718 648.327 245.537 648.327C244.474 648.327 243.586 648.565 242.875 649.042C242.171 649.519 241.639 650.19 241.28 651.055C240.928 651.913 240.748 652.921 240.741 654.08C240.741 655.239 240.917 656.251 241.269 657.116C241.628 657.974 242.164 658.641 242.875 659.118C243.586 659.595 244.474 659.833 245.537 659.833C246.718 659.833 247.678 659.54 248.419 658.953C249.16 658.366 249.684 657.56 249.992 656.533L252.665 657.27C252.174 658.817 251.319 660.049 250.102 660.966C248.885 661.875 247.363 662.33 245.537 662.33ZM261.779 662.33C260.195 662.33 258.838 661.985 257.709 661.296C256.58 660.599 255.711 659.631 255.102 658.392C254.501 657.153 254.2 655.715 254.2 654.08C254.2 652.445 254.501 651.007 255.102 649.768C255.711 648.529 256.58 647.564 257.709 646.875C258.838 646.178 260.195 645.83 261.779 645.83C263.363 645.83 264.72 646.178 265.849 646.875C266.986 647.564 267.855 648.529 268.456 649.768C269.065 651.007 269.369 652.445 269.369 654.08C269.369 655.715 269.065 657.153 268.456 658.392C267.855 659.631 266.986 660.599 265.849 661.296C264.72 661.985 263.363 662.33 261.779 662.33ZM261.779 659.833C262.842 659.84 263.726 659.606 264.43 659.129C265.141 658.652 265.673 657.981 266.025 657.116C266.384 656.251 266.564 655.239 266.564 654.08C266.564 652.921 266.384 651.917 266.025 651.066C265.673 650.208 265.141 649.541 264.43 649.064C263.726 648.587 262.842 648.342 261.779 648.327C260.716 648.32 259.832 648.554 259.128 649.031C258.424 649.508 257.892 650.179 257.533 651.044C257.181 651.909 257.005 652.921 257.005 654.08C257.005 655.239 257.181 656.247 257.533 657.105C257.885 657.956 258.413 658.619 259.117 659.096C259.828 659.573 260.716 659.818 261.779 659.833ZM274.237 662L269.606 646.16H272.389L275.546 657.6L278.692 646.182L281.475 646.16L284.632 657.6L287.778 646.16H290.561L285.941 662H283.323L280.078 650.736L276.855 662H274.237ZM298.625 662.33C297.041 662.33 295.684 661.985 294.555 661.296C293.425 660.599 292.556 659.631 291.948 658.392C291.346 657.153 291.046 655.715 291.046 654.08C291.046 652.445 291.346 651.007 291.948 649.768C292.556 648.529 293.425 647.564 294.555 646.875C295.684 646.178 297.041 645.83 298.625 645.83C300.209 645.83 301.565 646.178 302.695 646.875C303.831 647.564 304.7 648.529 305.302 649.768C305.91 651.007 306.215 652.445 306.215 654.08C306.215 655.715 305.91 657.153 305.302 658.392C304.7 659.631 303.831 660.599 302.695 661.296C301.565 661.985 300.209 662.33 298.625 662.33ZM298.625 659.833C299.688 659.84 300.572 659.606 301.276 659.129C301.987 658.652 302.519 657.981 302.871 657.116C303.23 656.251 303.41 655.239 303.41 654.08C303.41 652.921 303.23 651.917 302.871 651.066C302.519 650.208 301.987 649.541 301.276 649.064C300.572 648.587 299.688 648.342 298.625 648.327C297.561 648.32 296.678 648.554 295.974 649.031C295.27 649.508 294.738 650.179 294.379 651.044C294.027 651.909 293.851 652.921 293.851 654.08C293.851 655.239 294.027 656.247 294.379 657.105C294.731 657.956 295.259 658.619 295.963 659.096C296.674 659.573 297.561 659.818 298.625 659.833ZM308.404 662V646.16H314.949C315.103 646.16 315.301 646.167 315.543 646.182C315.785 646.189 316.009 646.211 316.214 646.248C317.131 646.387 317.886 646.692 318.48 647.161C319.082 647.63 319.525 648.224 319.811 648.943C320.105 649.654 320.251 650.446 320.251 651.319C320.251 652.61 319.925 653.721 319.272 654.652C318.62 655.576 317.619 656.148 316.269 656.368L315.136 656.467H311.055V662H308.404ZM317.501 662L314.377 655.554L317.072 654.96L320.504 662H317.501ZM311.055 653.992H314.839C314.986 653.992 315.151 653.985 315.334 653.97C315.518 653.955 315.686 653.926 315.84 653.882C316.28 653.772 316.625 653.578 316.874 653.299C317.131 653.02 317.311 652.705 317.413 652.353C317.523 652.001 317.578 651.656 317.578 651.319C317.578 650.982 317.523 650.637 317.413 650.285C317.311 649.926 317.131 649.607 316.874 649.328C316.625 649.049 316.28 648.855 315.84 648.745C315.686 648.701 315.518 648.675 315.334 648.668C315.151 648.653 314.986 648.646 314.839 648.646H311.055V653.992ZM322.928 662V646.16H325.579V653.508L331.904 646.16H335.16L328.351 653.926L335.622 662H332.256L325.579 654.608V662H322.928ZM337.392 662V646.16H340.043V662H337.392ZM343.338 662V646.16H346.022L353.37 657.325V646.16H356.054V662H353.37L346.022 650.835V662H343.338ZM365.663 662.33C364.636 662.33 363.672 662.15 362.77 661.791C361.875 661.424 361.087 660.889 360.405 660.185C359.73 659.481 359.202 658.619 358.821 657.6C358.44 656.573 358.249 655.4 358.249 654.08C358.249 652.349 358.572 650.872 359.217 649.647C359.862 648.415 360.746 647.473 361.868 646.82C362.99 646.16 364.255 645.83 365.663 645.83C367.614 645.83 369.157 646.285 370.294 647.194C371.438 648.096 372.212 649.365 372.615 651L369.909 651.429C369.608 650.49 369.117 649.742 368.435 649.185C367.753 648.62 366.884 648.338 365.828 648.338C364.765 648.323 363.881 648.554 363.177 649.031C362.473 649.508 361.941 650.179 361.582 651.044C361.23 651.909 361.054 652.921 361.054 654.08C361.054 655.239 361.23 656.247 361.582 657.105C361.934 657.956 362.462 658.619 363.166 659.096C363.877 659.573 364.765 659.818 365.828 659.833C366.627 659.84 367.328 659.697 367.929 659.404C368.53 659.103 369.022 658.652 369.403 658.051C369.784 657.442 370.041 656.683 370.173 655.774H367.379V653.695H372.989C373.004 653.812 373.015 653.985 373.022 654.212C373.029 654.439 373.033 654.575 373.033 654.619C373.033 656.115 372.736 657.446 372.142 658.612C371.555 659.771 370.712 660.68 369.612 661.34C368.512 662 367.196 662.33 365.663 662.33Z" fill="#222222"/>
<path d="M138.346 383V369.646H133.22V367.16H146.123V369.646H140.997V383H138.346ZM147.882 383V367.16H154.427C154.581 367.16 154.779 367.167 155.021 367.182C155.263 367.189 155.486 367.211 155.692 367.248C156.608 367.387 157.364 367.692 157.958 368.161C158.559 368.63 159.003 369.224 159.289 369.943C159.582 370.654 159.729 371.446 159.729 372.319C159.729 373.61 159.402 374.721 158.75 375.652C158.097 376.576 157.096 377.148 155.747 377.368L154.614 377.467H150.533V383H147.882ZM156.979 383L153.855 376.554L156.55 375.96L159.982 383H156.979ZM150.533 374.992H154.317C154.463 374.992 154.628 374.985 154.812 374.97C154.995 374.955 155.164 374.926 155.318 374.882C155.758 374.772 156.102 374.578 156.352 374.299C156.608 374.02 156.788 373.705 156.891 373.353C157.001 373.001 157.056 372.656 157.056 372.319C157.056 371.982 157.001 371.637 156.891 371.285C156.788 370.926 156.608 370.607 156.352 370.328C156.102 370.049 155.758 369.855 155.318 369.745C155.164 369.701 154.995 369.675 154.812 369.668C154.628 369.653 154.463 369.646 154.317 369.646H150.533V374.992ZM161.305 383L166.299 367.16H170.182L175.176 383H172.448L167.916 368.788H168.51L164.033 383H161.305ZM164.088 379.568V377.093H172.404V379.568H164.088ZM179.182 383L174.188 367.16H176.916L181.096 380.426L185.331 367.16H188.059L183.065 383H179.182ZM189.712 383V367.16H199.942V369.646H192.363V373.551H198.622V376.037H192.363V380.514H199.942V383H189.712ZM202.801 383V367.16H205.452V380.514H212.448V383H202.801ZM214.531 383V367.16H217.182V383H214.531ZM220.478 383V367.16H223.162L230.51 378.325V367.16H233.194V383H230.51L223.162 371.835V383H220.478ZM242.803 383.33C241.776 383.33 240.812 383.15 239.91 382.791C239.015 382.424 238.227 381.889 237.545 381.185C236.87 380.481 236.342 379.619 235.961 378.6C235.579 377.573 235.389 376.4 235.389 375.08C235.389 373.349 235.711 371.872 236.357 370.647C237.002 369.415 237.886 368.473 239.008 367.82C240.13 367.16 241.395 366.83 242.803 366.83C244.753 366.83 246.297 367.285 247.434 368.194C248.578 369.096 249.351 370.365 249.755 372L247.049 372.429C246.748 371.49 246.257 370.742 245.575 370.185C244.893 369.62 244.024 369.338 242.968 369.338C241.904 369.323 241.021 369.554 240.317 370.031C239.613 370.508 239.081 371.179 238.722 372.044C238.37 372.909 238.194 373.921 238.194 375.08C238.194 376.239 238.37 377.247 238.722 378.105C239.074 378.956 239.602 379.619 240.306 380.096C241.017 380.573 241.904 380.818 242.968 380.833C243.767 380.84 244.467 380.697 245.069 380.404C245.67 380.103 246.161 379.652 246.543 379.051C246.924 378.442 247.181 377.683 247.313 376.774H244.519V374.695H250.129C250.143 374.812 250.154 374.985 250.162 375.212C250.169 375.439 250.173 375.575 250.173 375.619C250.173 377.115 249.876 378.446 249.282 379.612C248.695 380.771 247.852 381.68 246.752 382.34C245.652 383 244.335 383.33 242.803 383.33ZM260.592 383V369.646H255.466V367.16H268.369V369.646H263.243V383H260.592ZM270.128 383V367.16H276.673C276.827 367.16 277.025 367.167 277.267 367.182C277.509 367.189 277.733 367.211 277.938 367.248C278.855 367.387 279.61 367.692 280.204 368.161C280.805 368.63 281.249 369.224 281.535 369.943C281.828 370.654 281.975 371.446 281.975 372.319C281.975 373.61 281.649 374.721 280.996 375.652C280.343 376.576 279.342 377.148 277.993 377.368L276.86 377.467H272.779V383H270.128ZM279.225 383L276.101 376.554L278.796 375.96L282.228 383H279.225ZM272.779 374.992H276.563C276.71 374.992 276.875 374.985 277.058 374.97C277.241 374.955 277.41 374.926 277.564 374.882C278.004 374.772 278.349 374.578 278.598 374.299C278.855 374.02 279.034 373.705 279.137 373.353C279.247 373.001 279.302 372.656 279.302 372.319C279.302 371.982 279.247 371.637 279.137 371.285C279.034 370.926 278.855 370.607 278.598 370.328C278.349 370.049 278.004 369.855 277.564 369.745C277.41 369.701 277.241 369.675 277.058 369.668C276.875 369.653 276.71 369.646 276.563 369.646H272.779V374.992ZM283.551 383L288.545 367.16H292.428L297.422 383H294.694L290.162 368.788H290.756L286.279 383H283.551ZM286.334 379.568V377.093H294.65V379.568H286.334ZM299.411 383V367.16H304.46C304.592 367.16 304.852 367.164 305.241 367.171C305.637 367.178 306.018 367.204 306.385 367.248C307.639 367.409 308.699 367.857 309.564 368.59C310.437 369.316 311.097 370.244 311.544 371.373C311.991 372.502 312.215 373.738 312.215 375.08C312.215 376.422 311.991 377.658 311.544 378.787C311.097 379.916 310.437 380.848 309.564 381.581C308.699 382.307 307.639 382.751 306.385 382.912C306.026 382.956 305.648 382.982 305.252 382.989C304.856 382.996 304.592 383 304.46 383H299.411ZM302.106 380.503H304.46C304.68 380.503 304.959 380.496 305.296 380.481C305.641 380.466 305.945 380.433 306.209 380.382C306.957 380.243 307.566 379.909 308.035 379.381C308.504 378.853 308.849 378.211 309.069 377.456C309.296 376.701 309.41 375.909 309.41 375.08C309.41 374.222 309.296 373.415 309.069 372.66C308.842 371.905 308.49 371.27 308.013 370.757C307.544 370.244 306.942 369.917 306.209 369.778C305.945 369.719 305.641 369.686 305.296 369.679C304.959 369.664 304.68 369.657 304.46 369.657H302.106V380.503ZM314.815 383V367.16H325.045V369.646H317.466V373.551H323.725V376.037H317.466V380.514H325.045V383H314.815ZM327.465 385.805L327.619 384.661C327.956 384.69 328.224 384.632 328.422 384.485C328.62 384.346 328.752 384.144 328.818 383.88C328.891 383.623 328.909 383.33 328.873 383H327.465V380.173H330.182V383.11C330.182 384.071 329.954 384.797 329.5 385.288C329.045 385.779 328.367 385.952 327.465 385.805ZM338.77 383V367.16H348.307V369.811H341.421V373.76H346.987V376.4H341.421V383H338.77ZM348.971 383L353.965 367.16H357.848L362.842 383H360.114L355.582 368.788H356.176L351.699 383H348.971ZM351.754 379.568V377.093H360.07V379.568H351.754ZM365.051 383V367.16H367.702V383H365.051ZM370.997 383V367.16H377.542C377.696 367.16 377.894 367.167 378.136 367.182C378.378 367.189 378.602 367.211 378.807 367.248C379.724 367.387 380.479 367.692 381.073 368.161C381.674 368.63 382.118 369.224 382.404 369.943C382.697 370.654 382.844 371.446 382.844 372.319C382.844 373.61 382.518 374.721 381.865 375.652C381.212 376.576 380.211 377.148 378.862 377.368L377.729 377.467H373.648V383H370.997ZM380.094 383L376.97 376.554L379.665 375.96L383.097 383H380.094ZM373.648 374.992H377.432C377.579 374.992 377.744 374.985 377.927 374.97C378.11 374.955 378.279 374.926 378.433 374.882C378.873 374.772 379.218 374.578 379.467 374.299C379.724 374.02 379.903 373.705 380.006 373.353C380.116 373.001 380.171 372.656 380.171 372.319C380.171 371.982 380.116 371.637 380.006 371.285C379.903 370.926 379.724 370.607 379.467 370.328C379.218 370.049 378.873 369.855 378.433 369.745C378.279 369.701 378.11 369.675 377.927 369.668C377.744 369.653 377.579 369.646 377.432 369.646H373.648V374.992ZM391.383 383.33C390.225 383.33 389.18 383.128 388.248 382.725C387.324 382.322 386.562 381.746 385.96 380.998C385.366 380.243 384.989 379.348 384.827 378.314L387.577 377.896C387.812 378.835 388.292 379.561 389.018 380.074C389.752 380.587 390.595 380.844 391.548 380.844C392.113 380.844 392.645 380.756 393.143 380.58C393.642 380.404 394.045 380.147 394.353 379.81C394.669 379.473 394.826 379.058 394.826 378.567C394.826 378.347 394.79 378.145 394.716 377.962C394.643 377.771 394.533 377.603 394.386 377.456C394.247 377.309 394.064 377.177 393.836 377.06C393.616 376.935 393.36 376.829 393.066 376.741L388.974 375.531C388.622 375.428 388.241 375.293 387.83 375.124C387.427 374.948 387.042 374.71 386.675 374.409C386.316 374.101 386.019 373.712 385.784 373.243C385.557 372.766 385.443 372.18 385.443 371.483C385.443 370.464 385.7 369.609 386.213 368.92C386.734 368.223 387.431 367.703 388.303 367.358C389.183 367.013 390.159 366.845 391.229 366.852C392.315 366.859 393.283 367.046 394.133 367.413C394.984 367.772 395.695 368.297 396.267 368.986C396.839 369.675 397.243 370.508 397.477 371.483L394.628 371.978C394.511 371.421 394.284 370.948 393.946 370.559C393.616 370.163 393.209 369.862 392.725 369.657C392.249 369.452 391.739 369.342 391.196 369.327C390.668 369.32 390.177 369.4 389.722 369.569C389.275 369.73 388.912 369.965 388.633 370.273C388.362 370.581 388.226 370.94 388.226 371.351C388.226 371.74 388.344 372.059 388.578 372.308C388.813 372.55 389.103 372.744 389.447 372.891C389.799 373.03 390.155 373.148 390.514 373.243L393.352 374.035C393.741 374.138 394.177 374.277 394.661 374.453C395.145 374.629 395.611 374.875 396.058 375.19C396.506 375.505 396.872 375.92 397.158 376.433C397.452 376.946 397.598 377.599 397.598 378.391C397.598 379.212 397.426 379.935 397.081 380.558C396.744 381.174 396.286 381.687 395.706 382.098C395.127 382.509 394.463 382.817 393.715 383.022C392.975 383.227 392.197 383.33 391.383 383.33Z" fill="#222222"/>
<path d="M877.741 193.27C876.445 193.27 875.335 192.988 874.411 192.424C873.487 191.854 872.776 191.062 872.278 190.048C871.786 189.034 871.54 187.858 871.54 186.52C871.54 185.182 871.786 184.006 872.278 182.992C872.776 181.978 873.487 181.189 874.411 180.625C875.335 180.055 876.445 179.77 877.741 179.77C879.235 179.77 880.48 180.145 881.476 180.895C882.472 181.639 883.171 182.644 883.573 183.91L881.386 184.513C881.134 183.667 880.705 183.007 880.099 182.533C879.493 182.053 878.707 181.813 877.741 181.813C876.871 181.813 876.145 182.008 875.563 182.398C874.987 182.788 874.552 183.337 874.258 184.045C873.97 184.747 873.823 185.572 873.817 186.52C873.817 187.468 873.961 188.296 874.249 189.004C874.543 189.706 874.981 190.252 875.563 190.642C876.145 191.032 876.871 191.227 877.741 191.227C878.707 191.227 879.493 190.987 880.099 190.507C880.705 190.027 881.134 189.367 881.386 188.527L883.573 189.13C883.171 190.396 882.472 191.404 881.476 192.154C880.48 192.898 879.235 193.27 877.741 193.27ZM891.03 193.27C889.734 193.27 888.624 192.988 887.7 192.424C886.776 191.854 886.065 191.062 885.567 190.048C885.075 189.034 884.829 187.858 884.829 186.52C884.829 185.182 885.075 184.006 885.567 182.992C886.065 181.978 886.776 181.189 887.7 180.625C888.624 180.055 889.734 179.77 891.03 179.77C892.326 179.77 893.436 180.055 894.36 180.625C895.29 181.189 896.001 181.978 896.493 182.992C896.991 184.006 897.24 185.182 897.24 186.52C897.24 187.858 896.991 189.034 896.493 190.048C896.001 191.062 895.29 191.854 894.36 192.424C893.436 192.988 892.326 193.27 891.03 193.27ZM891.03 191.227C891.9 191.233 892.623 191.041 893.199 190.651C893.781 190.261 894.216 189.712 894.504 189.004C894.798 188.296 894.945 187.468 894.945 186.52C894.945 185.572 894.798 184.75 894.504 184.054C894.216 183.352 893.781 182.806 893.199 182.416C892.623 182.026 891.9 181.825 891.03 181.813C890.16 181.807 889.437 181.999 888.861 182.389C888.285 182.779 887.85 183.328 887.556 184.036C887.268 184.744 887.124 185.572 887.124 186.52C887.124 187.468 887.268 188.293 887.556 188.995C887.844 189.691 888.276 190.234 888.852 190.624C889.434 191.014 890.16 191.215 891.03 191.227ZM899.031 193V180.04H900.984L905.466 189.22L909.948 180.04H911.901V193H909.876V184.693L905.898 193H905.034L901.065 184.693V193H899.031ZM914.43 193V180.04H916.383L920.865 189.22L925.347 180.04H927.3V193H925.275V184.693L921.297 193H920.433L916.464 184.693V193H914.43ZM929.828 193V180.04H938.198V182.074H931.997V185.269H937.118V187.303H931.997V190.966H938.198V193H929.828ZM940.358 193V180.04H945.713C945.839 180.04 946.001 180.046 946.199 180.058C946.397 180.064 946.58 180.082 946.748 180.112C947.498 180.226 948.116 180.475 948.602 180.859C949.094 181.243 949.457 181.729 949.691 182.317C949.931 182.899 950.051 183.547 950.051 184.261C950.051 185.317 949.784 186.226 949.25 186.988C948.716 187.744 947.897 188.212 946.793 188.392L945.866 188.473H942.527V193H940.358ZM947.801 193L945.245 187.726L947.45 187.24L950.258 193H947.801ZM942.527 186.448H945.623C945.743 186.448 945.878 186.442 946.028 186.43C946.178 186.418 946.316 186.394 946.442 186.358C946.802 186.268 947.084 186.109 947.288 185.881C947.498 185.653 947.645 185.395 947.729 185.107C947.819 184.819 947.864 184.537 947.864 184.261C947.864 183.985 947.819 183.703 947.729 183.415C947.645 183.121 947.498 182.86 947.288 182.632C947.084 182.404 946.802 182.245 946.442 182.155C946.316 182.119 946.178 182.098 946.028 182.092C945.878 182.08 945.743 182.074 945.623 182.074H942.527V186.448ZM957.264 193.27C955.968 193.27 954.858 192.988 953.934 192.424C953.01 191.854 952.299 191.062 951.801 190.048C951.309 189.034 951.063 187.858 951.063 186.52C951.063 185.182 951.309 184.006 951.801 182.992C952.299 181.978 953.01 181.189 953.934 180.625C954.858 180.055 955.968 179.77 957.264 179.77C958.758 179.77 960.003 180.145 960.999 180.895C961.995 181.639 962.694 182.644 963.096 183.91L960.909 184.513C960.657 183.667 960.228 183.007 959.622 182.533C959.016 182.053 958.23 181.813 957.264 181.813C956.394 181.813 955.668 182.008 955.086 182.398C954.51 182.788 954.075 183.337 953.781 184.045C953.493 184.747 953.346 185.572 953.34 186.52C953.34 187.468 953.484 188.296 953.772 189.004C954.066 189.706 954.504 190.252 955.086 190.642C955.668 191.032 956.394 191.227 957.264 191.227C958.23 191.227 959.016 190.987 959.622 190.507C960.228 190.027 960.657 189.367 960.909 188.527L963.096 189.13C962.694 190.396 961.995 191.404 960.999 192.154C960.003 192.898 958.758 193.27 957.264 193.27ZM965.253 193V180.04H967.422V193H965.253ZM969.217 193L973.303 180.04H976.48L980.566 193H978.334L974.626 181.372H975.112L971.449 193H969.217ZM971.494 190.192V188.167H978.298V190.192H971.494ZM982.374 193V180.04H984.543V190.966H990.267V193H982.374ZM999.979 193.27C998.683 193.27 997.573 192.988 996.649 192.424C995.725 191.854 995.014 191.062 994.516 190.048C994.024 189.034 993.778 187.858 993.778 186.52C993.778 185.182 994.024 184.006 994.516 182.992C995.014 181.978 995.725 181.189 996.649 180.625C997.573 180.055 998.683 179.77 999.979 179.77C1001.28 179.77 1002.39 180.055 1003.31 180.625C1004.24 181.189 1004.95 181.978 1005.44 182.992C1005.94 184.006 1006.19 185.182 1006.19 186.52C1006.19 187.858 1005.94 189.034 1005.44 190.048C1004.95 191.062 1004.24 191.854 1003.31 192.424C1002.39 192.988 1001.28 193.27 999.979 193.27ZM999.979 191.227C1000.85 191.233 1001.57 191.041 1002.15 190.651C1002.73 190.261 1003.17 189.712 1003.45 189.004C1003.75 188.296 1003.89 187.468 1003.89 186.52C1003.89 185.572 1003.75 184.75 1003.45 184.054C1003.17 183.352 1002.73 182.806 1002.15 182.416C1001.57 182.026 1000.85 181.825 999.979 181.813C999.109 181.807 998.386 181.999 997.81 182.389C997.234 182.779 996.799 183.328 996.505 184.036C996.217 184.744 996.073 185.572 996.073 186.52C996.073 187.468 996.217 188.293 996.505 188.995C996.793 189.691 997.225 190.234 997.801 190.624C998.383 191.014 999.109 191.215 999.979 191.227ZM1007.98 193V180.04H1013.34C1013.46 180.04 1013.62 180.046 1013.82 180.058C1014.02 180.064 1014.2 180.082 1014.37 180.112C1015.12 180.226 1015.74 180.475 1016.22 180.859C1016.72 181.243 1017.08 181.729 1017.31 182.317C1017.55 182.899 1017.67 183.547 1017.67 184.261C1017.67 185.317 1017.41 186.226 1016.87 186.988C1016.34 187.744 1015.52 188.212 1014.42 188.392L1013.49 188.473H1010.15V193H1007.98ZM1015.42 193L1012.87 187.726L1015.07 187.24L1017.88 193H1015.42ZM1010.15 186.448H1013.25C1013.37 186.448 1013.5 186.442 1013.65 186.43C1013.8 186.418 1013.94 186.394 1014.06 186.358C1014.42 186.268 1014.71 186.109 1014.91 185.881C1015.12 185.653 1015.27 185.395 1015.35 185.107C1015.44 184.819 1015.49 184.537 1015.49 184.261C1015.49 183.985 1015.44 183.703 1015.35 183.415C1015.27 183.121 1015.12 182.86 1014.91 182.632C1014.71 182.404 1014.42 182.245 1014.06 182.155C1013.94 182.119 1013.8 182.098 1013.65 182.092C1013.5 182.08 1013.37 182.074 1013.25 182.074H1010.15V186.448ZM1023.47 193V180.04H1025.42L1029.9 189.22L1034.38 180.04H1036.34V193H1034.31V184.693L1030.33 193H1029.47L1025.5 184.693V193H1023.47ZM1044.09 193.27C1043.05 193.27 1042.14 193.06 1041.36 192.64C1040.58 192.22 1039.97 191.629 1039.52 190.867C1039.08 190.105 1038.87 189.211 1038.87 188.185V180.058L1041.06 180.04V188.131C1041.06 188.617 1041.14 189.052 1041.3 189.436C1041.47 189.82 1041.7 190.147 1041.98 190.417C1042.26 190.681 1042.59 190.882 1042.95 191.02C1043.32 191.158 1043.7 191.227 1044.09 191.227C1044.49 191.227 1044.87 191.158 1045.23 191.02C1045.59 190.876 1045.92 190.672 1046.2 190.408C1046.48 190.138 1046.7 189.811 1046.87 189.427C1047.03 189.043 1047.11 188.611 1047.11 188.131V180.04H1049.31V188.185C1049.31 189.211 1049.08 190.105 1048.64 190.867C1048.2 191.629 1047.59 192.22 1046.8 192.64C1046.02 193.06 1045.12 193.27 1044.09 193.27ZM1051.82 193V180.04H1054.02L1060.03 189.175V180.04H1062.22V193H1060.03L1054.02 183.865V193H1051.82ZM1064.92 193V180.04H1067.09V193H1064.92ZM1075.27 193.27C1073.97 193.27 1072.86 192.988 1071.94 192.424C1071.01 191.854 1070.3 191.062 1069.8 190.048C1069.31 189.034 1069.07 187.858 1069.07 186.52C1069.07 185.182 1069.31 184.006 1069.8 182.992C1070.3 181.978 1071.01 181.189 1071.94 180.625C1072.86 180.055 1073.97 179.77 1075.27 179.77C1076.76 179.77 1078.01 180.145 1079 180.895C1080 181.639 1080.7 182.644 1081.1 183.91L1078.91 184.513C1078.66 183.667 1078.23 183.007 1077.62 182.533C1077.02 182.053 1076.23 181.813 1075.27 181.813C1074.4 181.813 1073.67 182.008 1073.09 182.398C1072.51 182.788 1072.08 183.337 1071.78 184.045C1071.5 184.747 1071.35 185.572 1071.34 186.52C1071.34 187.468 1071.49 188.296 1071.77 189.004C1072.07 189.706 1072.51 190.252 1073.09 190.642C1073.67 191.032 1074.4 191.227 1075.27 191.227C1076.23 191.227 1077.02 190.987 1077.62 190.507C1078.23 190.027 1078.66 189.367 1078.91 188.527L1081.1 189.13C1080.7 190.396 1080 191.404 1079 192.154C1078.01 192.898 1076.76 193.27 1075.27 193.27ZM1083.25 193V180.04H1085.42V193H1083.25ZM1088.12 193V180.04H1093.47C1093.6 180.04 1093.76 180.046 1093.96 180.058C1094.16 180.064 1094.34 180.082 1094.51 180.112C1095.26 180.226 1095.88 180.475 1096.36 180.859C1096.86 181.243 1097.22 181.729 1097.45 182.317C1097.69 182.899 1097.81 183.547 1097.81 184.261C1097.81 184.969 1097.69 185.617 1097.45 186.205C1097.21 186.787 1096.85 187.27 1096.35 187.654C1095.87 188.038 1095.25 188.287 1094.51 188.401C1094.34 188.425 1094.16 188.443 1093.95 188.455C1093.75 188.467 1093.59 188.473 1093.47 188.473H1090.29V193H1088.12ZM1090.29 186.448H1093.38C1093.5 186.448 1093.64 186.442 1093.79 186.43C1093.94 186.418 1094.08 186.394 1094.2 186.358C1094.56 186.268 1094.85 186.109 1095.05 185.881C1095.26 185.653 1095.41 185.395 1095.49 185.107C1095.58 184.819 1095.63 184.537 1095.63 184.261C1095.63 183.985 1095.58 183.703 1095.49 183.415C1095.41 183.121 1095.26 182.86 1095.05 182.632C1094.85 182.404 1094.56 182.245 1094.2 182.155C1094.08 182.119 1093.94 182.098 1093.79 182.092C1093.64 182.08 1093.5 182.074 1093.38 182.074H1090.29V186.448ZM1097.82 193L1101.9 180.04H1105.08L1109.17 193H1106.94L1103.23 181.372H1103.71L1100.05 193H1097.82ZM1100.1 190.192V188.167H1106.9V190.192H1100.1ZM1110.98 193V180.04H1113.14V190.966H1118.87V193H1110.98ZM1123.1 193V180.04H1128.45C1128.58 180.04 1128.74 180.046 1128.94 180.058C1129.14 180.064 1129.32 180.082 1129.49 180.112C1130.24 180.226 1130.86 180.475 1131.34 180.859C1131.84 181.243 1132.2 181.729 1132.43 182.317C1132.67 182.899 1132.79 183.547 1132.79 184.261C1132.79 185.317 1132.53 186.226 1131.99 186.988C1131.46 187.744 1130.64 188.212 1129.53 188.392L1128.61 188.473H1125.27V193H1123.1ZM1130.54 193L1127.99 187.726L1130.19 187.24L1133 193H1130.54ZM1125.27 186.448H1128.36C1128.48 186.448 1128.62 186.442 1128.77 186.43C1128.92 186.418 1129.06 186.394 1129.18 186.358C1129.54 186.268 1129.83 186.109 1130.03 185.881C1130.24 185.653 1130.39 185.395 1130.47 185.107C1130.56 184.819 1130.61 184.537 1130.61 184.261C1130.61 183.985 1130.56 183.703 1130.47 183.415C1130.39 183.121 1130.24 182.86 1130.03 182.632C1129.83 182.404 1129.54 182.245 1129.18 182.155C1129.06 182.119 1128.92 182.098 1128.77 182.092C1128.62 182.08 1128.48 182.074 1128.36 182.074H1125.27V186.448ZM1134.98 193V180.04H1143.35V182.074H1137.15V185.269H1142.27V187.303H1137.15V190.966H1143.35V193H1134.98ZM1145.51 193V180.04H1147.71L1153.72 189.175V180.04H1155.92V193H1153.72L1147.71 183.865V193H1145.51ZM1161.55 193V182.074H1157.35V180.04H1167.91V182.074H1163.71V193H1161.55ZM1168.1 193L1172.18 180.04H1175.36L1179.45 193H1177.21L1173.51 181.372H1173.99L1170.33 193H1168.1ZM1170.37 190.192V188.167H1177.18V190.192H1170.37ZM1181.25 193V180.04H1183.42V190.966H1189.15V193H1181.25ZM1198.86 193.27C1197.56 193.27 1196.45 192.988 1195.53 192.424C1194.6 191.854 1193.89 191.062 1193.4 190.048C1192.9 189.034 1192.66 187.858 1192.66 186.52C1192.66 185.182 1192.9 184.006 1193.4 182.992C1193.89 181.978 1194.6 181.189 1195.53 180.625C1196.45 180.055 1197.56 179.77 1198.86 179.77C1200.15 179.77 1201.26 180.055 1202.19 180.625C1203.12 181.189 1203.83 181.978 1204.32 182.992C1204.82 184.006 1205.07 185.182 1205.07 186.52C1205.07 187.858 1204.82 189.034 1204.32 190.048C1203.83 191.062 1203.12 191.854 1202.19 192.424C1201.26 192.988 1200.15 193.27 1198.86 193.27ZM1198.86 191.227C1199.73 191.233 1200.45 191.041 1201.03 190.651C1201.61 190.261 1202.04 189.712 1202.33 189.004C1202.63 188.296 1202.77 187.468 1202.77 186.52C1202.77 185.572 1202.63 184.75 1202.33 184.054C1202.04 183.352 1201.61 182.806 1201.03 182.416C1200.45 182.026 1199.73 181.825 1198.86 181.813C1197.99 181.807 1197.27 181.999 1196.69 182.389C1196.11 182.779 1195.68 183.328 1195.38 184.036C1195.1 184.744 1194.95 185.572 1194.95 186.52C1194.95 187.468 1195.1 188.293 1195.38 188.995C1195.67 189.691 1196.1 190.234 1196.68 190.624C1197.26 191.014 1197.99 191.215 1198.86 191.227ZM1206.86 193V180.04H1214.66V182.209H1209.03V185.44H1213.58V187.6H1209.03V193H1206.86ZM871.36 218L875.446 205.04H878.623L882.709 218H880.477L876.769 206.372H877.255L873.592 218H871.36ZM873.637 215.192V213.167H880.441V215.192H873.637ZM884.336 218V205.04H886.532L892.544 214.175V205.04H894.74V218H892.544L886.532 208.865V218H884.336ZM906.341 218.27C905.045 218.27 903.935 217.988 903.011 217.424C902.087 216.854 901.376 216.062 900.878 215.048C900.386 214.034 900.14 212.858 900.14 211.52C900.14 210.182 900.386 209.006 900.878 207.992C901.376 206.978 902.087 206.189 903.011 205.625C903.935 205.055 905.045 204.77 906.341 204.77C907.637 204.77 908.747 205.055 909.671 205.625C910.601 206.189 911.312 206.978 911.804 207.992C912.302 209.006 912.551 210.182 912.551 211.52C912.551 212.858 912.302 214.034 911.804 215.048C911.312 216.062 910.601 216.854 909.671 217.424C908.747 217.988 907.637 218.27 906.341 218.27ZM906.341 216.227C907.211 216.233 907.934 216.041 908.51 215.651C909.092 215.261 909.527 214.712 909.815 214.004C910.109 213.296 910.256 212.468 910.256 211.52C910.256 210.572 910.109 209.75 909.815 209.054C909.527 208.352 909.092 207.806 908.51 207.416C907.934 207.026 907.211 206.825 906.341 206.813C905.471 206.807 904.748 206.999 904.172 207.389C903.596 207.779 903.161 208.328 902.867 209.036C902.579 209.744 902.435 210.572 902.435 211.52C902.435 212.468 902.579 213.293 902.867 213.995C903.155 214.691 903.587 215.234 904.163 215.624C904.745 216.014 905.471 216.215 906.341 216.227ZM914.342 218V205.04H922.145V207.209H916.511V210.44H921.065V212.6H916.511V218H914.342ZM923.764 218V205.04H931.567V207.209H925.933V210.44H930.487V212.6H925.933V218H923.764ZM933.366 218V205.04H935.535V218H933.366ZM943.712 218.27C942.416 218.27 941.306 217.988 940.382 217.424C939.458 216.854 938.747 216.062 938.249 215.048C937.757 214.034 937.511 212.858 937.511 211.52C937.511 210.182 937.757 209.006 938.249 207.992C938.747 206.978 939.458 206.189 940.382 205.625C941.306 205.055 942.416 204.77 943.712 204.77C945.206 204.77 946.451 205.145 947.447 205.895C948.443 206.639 949.142 207.644 949.544 208.91L947.357 209.513C947.105 208.667 946.676 208.007 946.07 207.533C945.464 207.053 944.678 206.813 943.712 206.813C942.842 206.813 942.116 207.008 941.534 207.398C940.958 207.788 940.523 208.337 940.229 209.045C939.941 209.747 939.794 210.572 939.788 211.52C939.788 212.468 939.932 213.296 940.22 214.004C940.514 214.706 940.952 215.252 941.534 215.642C942.116 216.032 942.842 216.227 943.712 216.227C944.678 216.227 945.464 215.987 946.07 215.507C946.676 215.027 947.105 214.367 947.357 213.527L949.544 214.13C949.142 215.396 948.443 216.404 947.447 217.154C946.451 217.898 945.206 218.27 943.712 218.27ZM951.52 218V205.04H959.89V207.074H953.689V210.269H958.81V212.303H953.689V215.966H959.89V218H951.52ZM961.869 220.295L961.995 219.359C962.271 219.383 962.49 219.335 962.652 219.215C962.814 219.101 962.922 218.936 962.976 218.72C963.036 218.51 963.051 218.27 963.021 218H961.869V215.687H964.092V218.09C964.092 218.876 963.906 219.47 963.534 219.872C963.162 220.274 962.607 220.415 961.869 220.295ZM971.119 218V205.04H976.474C976.6 205.04 976.762 205.046 976.96 205.058C977.158 205.064 977.341 205.082 977.509 205.112C978.259 205.226 978.877 205.475 979.363 205.859C979.855 206.243 980.218 206.729 980.452 207.317C980.692 207.899 980.812 208.547 980.812 209.261C980.812 209.969 980.692 210.617 980.452 211.205C980.212 211.787 979.846 212.27 979.354 212.654C978.868 213.038 978.253 213.287 977.509 213.401C977.341 213.425 977.155 213.443 976.951 213.455C976.753 213.467 976.594 213.473 976.474 213.473H973.288V218H971.119ZM973.288 211.448H976.384C976.504 211.448 976.639 211.442 976.789 211.43C976.939 211.418 977.077 211.394 977.203 211.358C977.563 211.268 977.845 211.109 978.049 210.881C978.259 210.653 978.406 210.395 978.49 210.107C978.58 209.819 978.625 209.537 978.625 209.261C978.625 208.985 978.58 208.703 978.49 208.415C978.406 208.121 978.259 207.86 978.049 207.632C977.845 207.404 977.563 207.245 977.203 207.155C977.077 207.119 976.939 207.098 976.789 207.092C976.639 207.08 976.504 207.074 976.384 207.074H973.288V211.448ZM982.615 218V205.04H987.97C988.096 205.04 988.258 205.046 988.456 205.058C988.654 205.064 988.837 205.082 989.005 205.112C989.755 205.226 990.373 205.475 990.859 205.859C991.351 206.243 991.714 206.729 991.948 207.317C992.188 207.899 992.308 208.547 992.308 209.261C992.308 210.317 992.041 211.226 991.507 211.988C990.973 212.744 990.154 213.212 989.05 213.392L988.123 213.473H984.784V218H982.615ZM990.058 218L987.502 212.726L989.707 212.24L992.515 218H990.058ZM984.784 211.448H987.88C988 211.448 988.135 211.442 988.285 211.43C988.435 211.418 988.573 211.394 988.699 211.358C989.059 211.268 989.341 211.109 989.545 210.881C989.755 210.653 989.902 210.395 989.986 210.107C990.076 209.819 990.121 209.537 990.121 209.261C990.121 208.985 990.076 208.703 989.986 208.415C989.902 208.121 989.755 207.86 989.545 207.632C989.341 207.404 989.059 207.245 988.699 207.155C988.573 207.119 988.435 207.098 988.285 207.092C988.135 207.08 988 207.074 987.88 207.074H984.784V211.448ZM999.979 218.27C998.683 218.27 997.573 217.988 996.649 217.424C995.725 216.854 995.014 216.062 994.516 215.048C994.024 214.034 993.778 212.858 993.778 211.52C993.778 210.182 994.024 209.006 994.516 207.992C995.014 206.978 995.725 206.189 996.649 205.625C997.573 205.055 998.683 204.77 999.979 204.77C1001.28 204.77 1002.39 205.055 1003.31 205.625C1004.24 206.189 1004.95 206.978 1005.44 207.992C1005.94 209.006 1006.19 210.182 1006.19 211.52C1006.19 212.858 1005.94 214.034 1005.44 215.048C1004.95 216.062 1004.24 216.854 1003.31 217.424C1002.39 217.988 1001.28 218.27 999.979 218.27ZM999.979 216.227C1000.85 216.233 1001.57 216.041 1002.15 215.651C1002.73 215.261 1003.17 214.712 1003.45 214.004C1003.75 213.296 1003.89 212.468 1003.89 211.52C1003.89 210.572 1003.75 209.75 1003.45 209.054C1003.17 208.352 1002.73 207.806 1002.15 207.416C1001.57 207.026 1000.85 206.825 999.979 206.813C999.109 206.807 998.386 206.999 997.81 207.389C997.234 207.779 996.799 208.328 996.505 209.036C996.217 209.744 996.073 210.572 996.073 211.52C996.073 212.468 996.217 213.293 996.505 213.995C996.793 214.691 997.225 215.234 997.801 215.624C998.383 216.014 999.109 216.215 999.979 216.227ZM1007.98 218V205.04H1012.11C1012.22 205.04 1012.43 205.043 1012.75 205.049C1013.07 205.055 1013.39 205.076 1013.69 205.112C1014.71 205.244 1015.58 205.61 1016.29 206.21C1017 206.804 1017.54 207.563 1017.91 208.487C1018.27 209.411 1018.46 210.422 1018.46 211.52C1018.46 212.618 1018.27 213.629 1017.91 214.553C1017.54 215.477 1017 216.239 1016.29 216.839C1015.58 217.433 1014.71 217.796 1013.69 217.928C1013.39 217.964 1013.08 217.985 1012.76 217.991C1012.44 217.997 1012.22 218 1012.11 218H1007.98ZM1010.19 215.957H1012.11C1012.29 215.957 1012.52 215.951 1012.8 215.939C1013.08 215.927 1013.33 215.9 1013.54 215.858C1014.15 215.744 1014.65 215.471 1015.04 215.039C1015.42 214.607 1015.7 214.082 1015.88 213.464C1016.07 212.846 1016.16 212.198 1016.16 211.52C1016.16 210.818 1016.07 210.158 1015.88 209.54C1015.7 208.922 1015.41 208.403 1015.02 207.983C1014.63 207.563 1014.14 207.296 1013.54 207.182C1013.33 207.134 1013.08 207.107 1012.8 207.101C1012.52 207.089 1012.29 207.083 1012.11 207.083H1010.19V215.957ZM1025.8 218.27C1024.77 218.27 1023.86 218.06 1023.08 217.64C1022.3 217.22 1021.69 216.629 1021.24 215.867C1020.8 215.105 1020.58 214.211 1020.58 213.185V205.058L1022.78 205.04V213.131C1022.78 213.617 1022.86 214.052 1023.02 214.436C1023.19 214.82 1023.42 215.147 1023.7 215.417C1023.98 215.681 1024.3 215.882 1024.67 216.02C1025.04 216.158 1025.41 216.227 1025.8 216.227C1026.21 216.227 1026.59 216.158 1026.95 216.02C1027.31 215.876 1027.64 215.672 1027.92 215.408C1028.2 215.138 1028.42 214.811 1028.59 214.427C1028.75 214.043 1028.83 213.611 1028.83 213.131V205.04H1031.02V213.185C1031.02 214.211 1030.8 215.105 1030.36 215.867C1029.92 216.629 1029.31 217.22 1028.52 217.64C1027.74 218.06 1026.84 218.27 1025.8 218.27ZM1039.02 218.27C1037.72 218.27 1036.61 217.988 1035.69 217.424C1034.77 216.854 1034.06 216.062 1033.56 215.048C1033.07 214.034 1032.82 212.858 1032.82 211.52C1032.82 210.182 1033.07 209.006 1033.56 207.992C1034.06 206.978 1034.77 206.189 1035.69 205.625C1036.61 205.055 1037.72 204.77 1039.02 204.77C1040.51 204.77 1041.76 205.145 1042.76 205.895C1043.75 206.639 1044.45 207.644 1044.85 208.91L1042.67 209.513C1042.41 208.667 1041.98 208.007 1041.38 207.533C1040.77 207.053 1039.99 206.813 1039.02 206.813C1038.15 206.813 1037.42 207.008 1036.84 207.398C1036.27 207.788 1035.83 208.337 1035.54 209.045C1035.25 209.747 1035.1 210.572 1035.1 211.52C1035.1 212.468 1035.24 213.296 1035.53 214.004C1035.82 214.706 1036.26 215.252 1036.84 215.642C1037.42 216.032 1038.15 216.227 1039.02 216.227C1039.99 216.227 1040.77 215.987 1041.38 215.507C1041.98 215.027 1042.41 214.367 1042.67 213.527L1044.85 214.13C1044.45 215.396 1043.75 216.404 1042.76 217.154C1041.76 217.898 1040.51 218.27 1039.02 218.27ZM1049.94 218V207.074H1045.75V205.04H1056.31V207.074H1052.11V218H1049.94ZM1057.92 218V205.04H1060.09V218H1057.92ZM1068.27 218.27C1066.97 218.27 1065.86 217.988 1064.94 217.424C1064.02 216.854 1063.31 216.062 1062.81 215.048C1062.32 214.034 1062.07 212.858 1062.07 211.52C1062.07 210.182 1062.32 209.006 1062.81 207.992C1063.31 206.978 1064.02 206.189 1064.94 205.625C1065.86 205.055 1066.97 204.77 1068.27 204.77C1069.57 204.77 1070.68 205.055 1071.6 205.625C1072.53 206.189 1073.24 206.978 1073.73 207.992C1074.23 209.006 1074.48 210.182 1074.48 211.52C1074.48 212.858 1074.23 214.034 1073.73 215.048C1073.24 216.062 1072.53 216.854 1071.6 217.424C1070.68 217.988 1069.57 218.27 1068.27 218.27ZM1068.27 216.227C1069.14 216.233 1069.86 216.041 1070.44 215.651C1071.02 215.261 1071.46 214.712 1071.74 214.004C1072.04 213.296 1072.19 212.468 1072.19 211.52C1072.19 210.572 1072.04 209.75 1071.74 209.054C1071.46 208.352 1071.02 207.806 1070.44 207.416C1069.86 207.026 1069.14 206.825 1068.27 206.813C1067.4 206.807 1066.68 206.999 1066.1 207.389C1065.53 207.779 1065.09 208.328 1064.8 209.036C1064.51 209.744 1064.36 210.572 1064.36 211.52C1064.36 212.468 1064.51 213.293 1064.8 213.995C1065.08 214.691 1065.52 215.234 1066.09 215.624C1066.67 216.014 1067.4 216.215 1068.27 216.227ZM1076.27 218V205.04H1078.47L1084.48 214.175V205.04H1086.68V218H1084.48L1078.47 208.865V218H1076.27ZM1089.01 220.295L1089.14 219.359C1089.41 219.383 1089.63 219.335 1089.79 219.215C1089.96 219.101 1090.06 218.936 1090.12 218.72C1090.18 218.51 1090.19 218.27 1090.16 218H1089.01V215.687H1091.23V218.09C1091.23 218.876 1091.05 219.47 1090.68 219.872C1090.3 220.274 1089.75 220.415 1089.01 220.295ZM1101 218L1097.21 205.04H1099.49L1102.07 214.4L1104.64 205.058L1106.92 205.04L1109.5 214.4L1112.08 205.04H1114.35L1110.57 218H1108.43L1105.78 208.784L1103.14 218H1101ZM1113.66 218L1117.74 205.04H1120.92L1125.01 218H1122.77L1119.07 206.372H1119.55L1115.89 218H1113.66ZM1115.93 215.192V213.167H1122.74V215.192H1115.93ZM1126.63 218V205.04H1131.99C1132.11 205.04 1132.28 205.046 1132.47 205.058C1132.67 205.064 1132.86 205.082 1133.02 205.112C1133.77 205.226 1134.39 205.475 1134.88 205.859C1135.37 206.243 1135.73 206.729 1135.97 207.317C1136.21 207.899 1136.33 208.547 1136.33 209.261C1136.33 210.317 1136.06 211.226 1135.53 211.988C1134.99 212.744 1134.17 213.212 1133.07 213.392L1132.14 213.473H1128.8V218H1126.63ZM1134.08 218L1131.52 212.726L1133.73 212.24L1136.53 218H1134.08ZM1128.8 211.448H1131.9C1132.02 211.448 1132.15 211.442 1132.3 211.43C1132.45 211.418 1132.59 211.394 1132.72 211.358C1133.08 211.268 1133.36 211.109 1133.56 210.881C1133.77 210.653 1133.92 210.395 1134 210.107C1134.09 209.819 1134.14 209.537 1134.14 209.261C1134.14 208.985 1134.09 208.703 1134 208.415C1133.92 208.121 1133.77 207.86 1133.56 207.632C1133.36 207.404 1133.08 207.245 1132.72 207.155C1132.59 207.119 1132.45 207.098 1132.3 207.092C1132.15 207.08 1132.02 207.074 1131.9 207.074H1128.8V211.448ZM1138.52 218V205.04H1146.89V207.074H1140.68V210.269H1145.81V212.303H1140.68V215.966H1146.89V218H1138.52ZM1149.05 218V205.04H1151.21V210.494H1157.35V205.04H1159.51V218H1157.35V212.528H1151.21V218H1149.05ZM1167.52 218.27C1166.22 218.27 1165.11 217.988 1164.19 217.424C1163.26 216.854 1162.55 216.062 1162.05 215.048C1161.56 214.034 1161.32 212.858 1161.32 211.52C1161.32 210.182 1161.56 209.006 1162.05 207.992C1162.55 206.978 1163.26 206.189 1164.19 205.625C1165.11 205.055 1166.22 204.77 1167.52 204.77C1168.81 204.77 1169.92 205.055 1170.85 205.625C1171.78 206.189 1172.49 206.978 1172.98 207.992C1173.48 209.006 1173.73 210.182 1173.73 211.52C1173.73 212.858 1173.48 214.034 1172.98 215.048C1172.49 216.062 1171.78 216.854 1170.85 217.424C1169.92 217.988 1168.81 218.27 1167.52 218.27ZM1167.52 216.227C1168.39 216.233 1169.11 216.041 1169.69 215.651C1170.27 215.261 1170.7 214.712 1170.99 214.004C1171.28 213.296 1171.43 212.468 1171.43 211.52C1171.43 210.572 1171.28 209.75 1170.99 209.054C1170.7 208.352 1170.27 207.806 1169.69 207.416C1169.11 207.026 1168.39 206.825 1167.52 206.813C1166.65 206.807 1165.92 206.999 1165.35 207.389C1164.77 207.779 1164.34 208.328 1164.04 209.036C1163.75 209.744 1163.61 210.572 1163.61 211.52C1163.61 212.468 1163.75 213.293 1164.04 213.995C1164.33 214.691 1164.76 215.234 1165.34 215.624C1165.92 216.014 1166.65 216.215 1167.52 216.227ZM1180.74 218.27C1179.71 218.27 1178.8 218.06 1178.01 217.64C1177.23 217.22 1176.62 216.629 1176.17 215.867C1175.74 215.105 1175.52 214.211 1175.52 213.185V205.058L1177.71 205.04V213.131C1177.71 213.617 1177.79 214.052 1177.96 214.436C1178.12 214.82 1178.35 215.147 1178.63 215.417C1178.91 215.681 1179.24 215.882 1179.6 216.02C1179.97 216.158 1180.35 216.227 1180.74 216.227C1181.14 216.227 1181.52 216.158 1181.88 216.02C1182.25 215.876 1182.57 215.672 1182.85 215.408C1183.13 215.138 1183.36 214.811 1183.52 214.427C1183.68 214.043 1183.76 213.611 1183.76 213.131V205.04H1185.96V213.185C1185.96 214.211 1185.74 215.105 1185.29 215.867C1184.85 216.629 1184.24 217.22 1183.46 217.64C1182.68 218.06 1181.77 218.27 1180.74 218.27ZM1192.72 218.27C1191.78 218.27 1190.92 218.105 1190.16 217.775C1189.4 217.445 1188.78 216.974 1188.29 216.362C1187.8 215.744 1187.49 215.012 1187.36 214.166L1189.61 213.824C1189.8 214.592 1190.2 215.186 1190.79 215.606C1191.39 216.026 1192.08 216.236 1192.86 216.236C1193.32 216.236 1193.76 216.164 1194.16 216.02C1194.57 215.876 1194.9 215.666 1195.15 215.39C1195.41 215.114 1195.54 214.775 1195.54 214.373C1195.54 214.193 1195.51 214.028 1195.45 213.878C1195.39 213.722 1195.3 213.584 1195.18 213.464C1195.07 213.344 1194.92 213.236 1194.73 213.14C1194.55 213.038 1194.34 212.951 1194.1 212.879L1190.75 211.889C1190.47 211.805 1190.15 211.694 1189.82 211.556C1189.49 211.412 1189.17 211.217 1188.87 210.971C1188.58 210.719 1188.34 210.401 1188.14 210.017C1187.96 209.627 1187.86 209.147 1187.86 208.577C1187.86 207.743 1188.07 207.044 1188.49 206.48C1188.92 205.91 1189.49 205.484 1190.2 205.202C1190.92 204.92 1191.72 204.782 1192.6 204.788C1193.49 204.794 1194.28 204.947 1194.97 205.247C1195.67 205.541 1196.25 205.97 1196.72 206.534C1197.19 207.098 1197.52 207.779 1197.71 208.577L1195.38 208.982C1195.28 208.526 1195.1 208.139 1194.82 207.821C1194.55 207.497 1194.22 207.251 1193.82 207.083C1193.43 206.915 1193.02 206.825 1192.57 206.813C1192.14 206.807 1191.74 206.873 1191.37 207.011C1191 207.143 1190.7 207.335 1190.47 207.587C1190.25 207.839 1190.14 208.133 1190.14 208.469C1190.14 208.787 1190.24 209.048 1190.43 209.252C1190.62 209.45 1190.86 209.609 1191.14 209.729C1191.43 209.843 1191.72 209.939 1192.01 210.017L1194.34 210.665C1194.65 210.749 1195.01 210.863 1195.41 211.007C1195.8 211.151 1196.18 211.352 1196.55 211.61C1196.92 211.868 1197.22 212.207 1197.45 212.627C1197.69 213.047 1197.81 213.581 1197.81 214.229C1197.81 214.901 1197.67 215.492 1197.39 216.002C1197.11 216.506 1196.74 216.926 1196.26 217.262C1195.79 217.598 1195.24 217.85 1194.63 218.018C1194.03 218.186 1193.39 218.27 1192.72 218.27ZM1199.76 218V205.04H1208.13V207.074H1201.93V210.269H1207.05V212.303H1201.93V215.966H1208.13V218H1199.76ZM1210.11 220.295L1210.23 219.359C1210.51 219.383 1210.73 219.335 1210.89 219.215C1211.05 219.101 1211.16 218.936 1211.21 218.72C1211.27 218.51 1211.29 218.27 1211.26 218H1210.11V215.687H1212.33V218.09C1212.33 218.876 1212.14 219.47 1211.77 219.872C1211.4 220.274 1210.85 220.415 1210.11 220.295ZM872.26 243V230.04H877.615C877.741 230.04 877.903 230.046 878.101 230.058C878.299 230.064 878.482 230.082 878.65 230.112C879.4 230.226 880.018 230.475 880.504 230.859C880.996 231.243 881.359 231.729 881.593 232.317C881.833 232.899 881.953 233.547 881.953 234.261C881.953 234.969 881.833 235.617 881.593 236.205C881.353 236.787 880.987 237.27 880.495 237.654C880.009 238.038 879.394 238.287 878.65 238.401C878.482 238.425 878.296 238.443 878.092 238.455C877.894 238.467 877.735 238.473 877.615 238.473H874.429V243H872.26ZM874.429 236.448H877.525C877.645 236.448 877.78 236.442 877.93 236.43C878.08 236.418 878.218 236.394 878.344 236.358C878.704 236.268 878.986 236.109 879.19 235.881C879.4 235.653 879.547 235.395 879.631 235.107C879.721 234.819 879.766 234.537 879.766 234.261C879.766 233.985 879.721 233.703 879.631 233.415C879.547 233.121 879.4 232.86 879.19 232.632C878.986 232.404 878.704 232.245 878.344 232.155C878.218 232.119 878.08 232.098 877.93 232.092C877.78 232.08 877.645 232.074 877.525 232.074H874.429V236.448ZM888.976 243.27C887.944 243.27 887.035 243.06 886.249 242.64C885.469 242.22 884.857 241.629 884.413 240.867C883.975 240.105 883.756 239.211 883.756 238.185V230.058L885.952 230.04V238.131C885.952 238.617 886.033 239.052 886.195 239.436C886.363 239.82 886.588 240.147 886.87 240.417C887.152 240.681 887.476 240.882 887.842 241.02C888.208 241.158 888.586 241.227 888.976 241.227C889.378 241.227 889.759 241.158 890.119 241.02C890.485 240.876 890.809 240.672 891.091 240.408C891.373 240.138 891.595 239.811 891.757 239.427C891.919 239.043 892 238.611 892 238.131V230.04H894.196V238.185C894.196 239.211 893.974 240.105 893.53 240.867C893.092 241.629 892.48 242.22 891.694 242.64C890.914 243.06 890.008 243.27 888.976 243.27ZM896.711 243V230.04H901.85C902.726 230.04 903.443 230.217 904.001 230.571C904.565 230.919 904.982 231.366 905.252 231.912C905.528 232.458 905.666 233.022 905.666 233.604C905.666 234.318 905.495 234.924 905.153 235.422C904.817 235.92 904.358 236.256 903.776 236.43V235.98C904.592 236.166 905.21 236.553 905.63 237.141C906.056 237.729 906.269 238.398 906.269 239.148C906.269 239.916 906.122 240.588 905.828 241.164C905.534 241.74 905.096 242.19 904.514 242.514C903.938 242.838 903.224 243 902.372 243H896.711ZM898.907 240.957H902.102C902.48 240.957 902.819 240.882 903.119 240.732C903.419 240.576 903.653 240.36 903.821 240.084C903.995 239.802 904.082 239.469 904.082 239.085C904.082 238.737 904.007 238.425 903.857 238.149C903.707 237.873 903.488 237.654 903.2 237.492C902.912 237.324 902.567 237.24 902.165 237.24H898.907V240.957ZM898.907 235.215H901.823C902.135 235.215 902.414 235.155 902.66 235.035C902.906 234.915 903.101 234.738 903.245 234.504C903.389 234.27 903.461 233.982 903.461 233.64C903.461 233.19 903.317 232.815 903.029 232.515C902.741 232.215 902.339 232.065 901.823 232.065H898.907V235.215ZM908.247 243V230.04H910.416V240.966H916.14V243H908.247ZM917.844 243V230.04H920.013V243H917.844ZM928.19 243.27C926.894 243.27 925.784 242.988 924.86 242.424C923.936 241.854 923.225 241.062 922.727 240.048C922.235 239.034 921.989 237.858 921.989 236.52C921.989 235.182 922.235 234.006 922.727 232.992C923.225 231.978 923.936 231.189 924.86 230.625C925.784 230.055 926.894 229.77 928.19 229.77C929.684 229.77 930.929 230.145 931.925 230.895C932.921 231.639 933.62 232.644 934.022 233.91L931.835 234.513C931.583 233.667 931.154 233.007 930.548 232.533C929.942 232.053 929.156 231.813 928.19 231.813C927.32 231.813 926.594 232.008 926.012 232.398C925.436 232.788 925.001 233.337 924.707 234.045C924.419 234.747 924.272 235.572 924.266 236.52C924.266 237.468 924.41 238.296 924.698 239.004C924.992 239.706 925.43 240.252 926.012 240.642C926.594 241.032 927.32 241.227 928.19 241.227C929.156 241.227 929.942 240.987 930.548 240.507C931.154 240.027 931.583 239.367 931.835 238.527L934.022 239.13C933.62 240.396 932.921 241.404 931.925 242.154C930.929 242.898 929.684 243.27 928.19 243.27ZM945.083 243.27C943.787 243.27 942.677 242.988 941.753 242.424C940.829 241.854 940.118 241.062 939.62 240.048C939.128 239.034 938.882 237.858 938.882 236.52C938.882 235.182 939.128 234.006 939.62 232.992C940.118 231.978 940.829 231.189 941.753 230.625C942.677 230.055 943.787 229.77 945.083 229.77C946.577 229.77 947.822 230.145 948.818 230.895C949.814 231.639 950.513 232.644 950.915 233.91L948.728 234.513C948.476 233.667 948.047 233.007 947.441 232.533C946.835 232.053 946.049 231.813 945.083 231.813C944.213 231.813 943.487 232.008 942.905 232.398C942.329 232.788 941.894 233.337 941.6 234.045C941.312 234.747 941.165 235.572 941.159 236.52C941.159 237.468 941.303 238.296 941.591 239.004C941.885 239.706 942.323 240.252 942.905 240.642C943.487 241.032 944.213 241.227 945.083 241.227C946.049 241.227 946.835 240.987 947.441 240.507C948.047 240.027 948.476 239.367 948.728 238.527L950.915 239.13C950.513 240.396 949.814 241.404 948.818 242.154C947.822 242.898 946.577 243.27 945.083 243.27ZM951.639 243L955.725 230.04H958.902L962.988 243H960.756L957.048 231.372H957.534L953.871 243H951.639ZM953.916 240.192V238.167H960.72V240.192H953.916ZM966.657 243V232.074H962.463V230.04H973.02V232.074H968.826V243H966.657ZM974.459 243V230.04H982.829V232.074H976.628V235.269H981.749V237.303H976.628V240.966H982.829V243H974.459ZM984.989 243V230.04H990.344C990.47 230.04 990.632 230.046 990.83 230.058C991.028 230.064 991.211 230.082 991.379 230.112C992.129 230.226 992.747 230.475 993.233 230.859C993.725 231.243 994.088 231.729 994.322 232.317C994.562 232.899 994.682 233.547 994.682 234.261C994.682 235.317 994.415 236.226 993.881 236.988C993.347 237.744 992.528 238.212 991.424 238.392L990.497 238.473H987.158V243H984.989ZM992.432 243L989.876 237.726L992.081 237.24L994.889 243H992.432ZM987.158 236.448H990.254C990.374 236.448 990.509 236.442 990.659 236.43C990.809 236.418 990.947 236.394 991.073 236.358C991.433 236.268 991.715 236.109 991.919 235.881C992.129 235.653 992.276 235.395 992.36 235.107C992.45 234.819 992.495 234.537 992.495 234.261C992.495 233.985 992.45 233.703 992.36 233.415C992.276 233.121 992.129 232.86 991.919 232.632C991.715 232.404 991.433 232.245 991.073 232.155C990.947 232.119 990.809 232.098 990.659 232.092C990.509 232.08 990.374 232.074 990.254 232.074H987.158V236.448ZM997.051 243V230.04H999.22V243H997.051ZM1001.92 243V230.04H1004.11L1010.12 239.175V230.04H1012.32V243H1010.12L1004.11 233.865V243H1001.92ZM1020.18 243.27C1019.34 243.27 1018.55 243.123 1017.82 242.829C1017.08 242.529 1016.44 242.091 1015.88 241.515C1015.33 240.939 1014.9 240.234 1014.58 239.4C1014.27 238.56 1014.12 237.6 1014.12 236.52C1014.12 235.104 1014.38 233.895 1014.91 232.893C1015.44 231.885 1016.16 231.114 1017.08 230.58C1018 230.04 1019.03 229.77 1020.18 229.77C1021.78 229.77 1023.04 230.142 1023.97 230.886C1024.91 231.624 1025.54 232.662 1025.87 234L1023.66 234.351C1023.41 233.583 1023.01 232.971 1022.45 232.515C1021.89 232.053 1021.18 231.822 1020.32 231.822C1019.45 231.81 1018.72 231.999 1018.15 232.389C1017.57 232.779 1017.14 233.328 1016.84 234.036C1016.56 234.744 1016.41 235.572 1016.41 236.52C1016.41 237.468 1016.56 238.293 1016.84 238.995C1017.13 239.691 1017.56 240.234 1018.14 240.624C1018.72 241.014 1019.45 241.215 1020.32 241.227C1020.97 241.233 1021.54 241.116 1022.04 240.876C1022.53 240.63 1022.93 240.261 1023.24 239.769C1023.55 239.271 1023.76 238.65 1023.87 237.906H1021.59V236.205H1026.18C1026.19 236.301 1026.2 236.442 1026.2 236.628C1026.21 236.814 1026.21 236.925 1026.21 236.961C1026.21 238.185 1025.97 239.274 1025.48 240.228C1025 241.176 1024.31 241.92 1023.41 242.46C1022.51 243 1021.44 243.27 1020.18 243.27ZM1031.62 243V230.04H1039.43V232.209H1033.79V235.44H1038.35V237.6H1033.79V243H1031.62ZM1039.97 243L1044.06 230.04H1047.23L1051.32 243H1049.09L1045.38 231.372H1045.86L1042.2 243H1039.97ZM1042.25 240.192V238.167H1049.05V240.192H1042.25ZM1058.07 243.27C1056.78 243.27 1055.67 242.988 1054.74 242.424C1053.82 241.854 1053.11 241.062 1052.61 240.048C1052.12 239.034 1051.87 237.858 1051.87 236.52C1051.87 235.182 1052.12 234.006 1052.61 232.992C1053.11 231.978 1053.82 231.189 1054.74 230.625C1055.67 230.055 1056.78 229.77 1058.07 229.77C1059.57 229.77 1060.81 230.145 1061.81 230.895C1062.81 231.639 1063.5 232.644 1063.91 233.91L1061.72 234.513C1061.47 233.667 1061.04 233.007 1060.43 232.533C1059.83 232.053 1059.04 231.813 1058.07 231.813C1057.2 231.813 1056.48 232.008 1055.9 232.398C1055.32 232.788 1054.89 233.337 1054.59 234.045C1054.3 234.747 1054.16 235.572 1054.15 236.52C1054.15 237.468 1054.29 238.296 1054.58 239.004C1054.88 239.706 1055.31 240.252 1055.9 240.642C1056.48 241.032 1057.2 241.227 1058.07 241.227C1059.04 241.227 1059.83 240.987 1060.43 240.507C1061.04 240.027 1061.47 239.367 1061.72 238.527L1063.91 239.13C1063.5 240.396 1062.81 241.404 1061.81 242.154C1060.81 242.898 1059.57 243.27 1058.07 243.27ZM1066.06 243V230.04H1068.23V243H1066.06ZM1071.11 243V230.04H1073.28V240.966H1079V243H1071.11ZM1080.71 243V230.04H1082.87V243H1080.71ZM1088.68 243V232.074H1084.49V230.04H1095.05V232.074H1090.85V243H1088.68ZM1100.18 243V237.69L1095.77 230.04H1098.3L1101.28 235.206L1104.25 230.04H1106.78L1102.38 237.69V243H1100.18Z" fill="#222222"/>
</svg>
