<svg width="39" height="39" viewBox="0 0 39 39" fill="none" xmlns="http://www.w3.org/2000/svg">
<path d="M7.15476 5.9624C5.88968 5.9624 4.67641 6.46495 3.78187 7.3595C2.88732 8.25405 2.38477 9.46732 2.38477 10.7324V11.9249H35.7747V10.7324C35.7747 9.46732 35.2722 8.25405 34.3776 7.3595C33.4831 6.46495 32.2698 5.9624 31.0047 5.9624H7.15476Z" fill="#50C16C"/>
<path fill-rule="evenodd" clip-rule="evenodd" d="M35.7747 15.5026H2.38477V27.4276C2.38477 28.6926 2.88732 29.9059 3.78187 30.8005C4.67641 31.695 5.88968 32.1976 7.15476 32.1976H31.0047C32.2698 32.1976 33.4831 31.695 34.3776 30.8005C35.2722 29.9059 35.7747 28.6926 35.7747 27.4276V15.5026ZM7.15476 21.4651C7.15476 21.1488 7.2804 20.8455 7.50404 20.6218C7.72767 20.3982 8.03099 20.2726 8.34726 20.2726H17.8873C18.2035 20.2726 18.5068 20.3982 18.7305 20.6218C18.9541 20.8455 19.0798 21.1488 19.0798 21.4651C19.0798 21.7813 18.9541 22.0846 18.7305 22.3083C18.5068 22.5319 18.2035 22.6576 17.8873 22.6576H8.34726C8.03099 22.6576 7.72767 22.5319 7.50404 22.3083C7.2804 22.0846 7.15476 21.7813 7.15476 21.4651ZM8.34726 25.0426C8.03099 25.0426 7.72767 25.1682 7.50404 25.3918C7.2804 25.6155 7.15476 25.9188 7.15476 26.2351C7.15476 26.5513 7.2804 26.8546 7.50404 27.0783C7.72767 27.3019 8.03099 27.4276 8.34726 27.4276H13.1173C13.4335 27.4276 13.7368 27.3019 13.9605 27.0783C14.1841 26.8546 14.3098 26.5513 14.3098 26.2351C14.3098 25.9188 14.1841 25.6155 13.9605 25.3918C13.7368 25.1682 13.4335 25.0426 13.1173 25.0426H8.34726Z" fill="#50C16C"/>
</svg>
