<svg width="50" height="50" viewBox="0 0 50 50" fill="none" xmlns="http://www.w3.org/2000/svg">
<path d="M11.7187 3.125C9.56042 3.125 7.8125 4.875 7.8125 7.03125V42.9688C7.8125 45.125 9.5625 46.875 11.7187 46.875H38.2812C40.4375 46.875 42.1875 45.125 42.1875 42.9688V26.5625C42.1875 24.4905 41.3644 22.5034 39.8993 21.0382C38.4341 19.5731 36.447 18.75 34.375 18.75H30.4688C29.4327 18.75 28.4392 18.3385 27.7066 17.6059C26.974 16.8733 26.5625 15.8798 26.5625 14.8438V10.9375C26.5625 8.8655 25.7394 6.87836 24.2743 5.41323C22.8091 3.9481 20.822 3.125 18.75 3.125H11.7187Z" fill="#50C16C"/>
<path d="M27.0225 3.7832C28.7444 5.76854 29.6907 8.30934 29.687 10.9374V14.8436C29.687 15.2749 30.037 15.6249 30.4683 15.6249H34.3745C37.0026 15.6212 39.5434 16.5675 41.5287 18.2895C40.6121 14.8034 38.7861 11.6234 36.2373 9.07463C33.6885 6.52586 30.5085 4.69979 27.0225 3.7832Z" fill="#50C16C"/>
</svg>
