<svg width="42" height="42" viewBox="0 0 42 42" fill="none" xmlns="http://www.w3.org/2000/svg">
<path d="M20.0597 4.80901C20.2219 4.73821 20.397 4.70166 20.574 4.70166C20.7511 4.70166 20.9262 4.73821 21.0884 4.80901C27.4288 7.58036 33.4767 10.9777 39.1423 14.9504C39.3419 15.0904 39.4977 15.2843 39.5913 15.5095C39.6849 15.7347 39.7126 15.9818 39.6711 16.2221C39.6296 16.4624 39.5206 16.686 39.3568 16.8667C39.193 17.0474 38.9813 17.1778 38.7462 17.2427C32.8644 18.8672 27.173 21.1157 21.7691 23.9499L21.7639 23.9533C21.5685 24.0562 21.3747 24.1573 21.181 24.2619C20.9945 24.3616 20.7863 24.4137 20.5749 24.4137C20.3635 24.4137 20.1553 24.3616 19.9688 24.2619C17.6511 23.025 15.2786 21.8934 12.8587 20.8706V20.4866C12.8587 20.262 12.9736 20.0614 13.1536 19.9533C15.7415 18.3851 18.4038 16.9432 21.1313 15.6328C21.4387 15.485 21.6747 15.2211 21.7876 14.8993C21.9005 14.5774 21.8808 14.2239 21.7331 13.9165C21.5853 13.6091 21.3214 13.373 20.9996 13.2602C20.6777 13.1473 20.3242 13.1669 20.0168 13.3147C17.2149 14.6611 14.4799 16.1425 11.8214 17.7536C11.4432 17.9831 11.1169 18.2888 10.8634 18.6513C10.6098 19.0137 10.4345 19.4251 10.3487 19.859C7.74467 18.8571 5.09313 17.9833 2.40359 17.241C2.16852 17.1761 1.95676 17.0457 1.793 16.8649C1.62925 16.6842 1.52025 16.4607 1.47873 16.2204C1.43722 15.9801 1.46489 15.7329 1.55852 15.5078C1.65215 15.2826 1.80788 15.0887 2.00754 14.9487C7.67263 10.9767 13.72 7.57995 20.0597 4.80901Z" fill="#50C16C"/>
<path d="M22.3916 26.5287C26.6029 24.2787 31.0004 22.3961 35.5351 20.9016C35.7648 23.3259 35.9123 25.776 35.9723 28.2466C35.9789 28.5056 35.9072 28.7606 35.7665 28.9781C35.6257 29.1956 35.4226 29.3655 35.1836 29.4656C30.3234 31.4955 25.6699 33.9884 21.2875 36.9101C21.0762 37.0509 20.8281 37.126 20.5742 37.126C20.3204 37.126 20.0722 37.0509 19.861 36.9101C15.4791 33.9885 10.8261 31.4956 5.96654 29.4656C5.72753 29.3659 5.52421 29.1964 5.38318 28.9791C5.24215 28.7619 5.16999 28.5072 5.17614 28.2483C5.23615 25.776 5.3836 23.3277 5.61335 20.8999C7.19242 21.4211 8.75091 21.9869 10.2871 22.5973V24.7747C9.91667 24.9881 9.60528 25.2906 9.38111 25.6546C9.15694 26.0187 9.02707 26.4329 9.00324 26.8597C8.97941 27.2866 9.06238 27.7127 9.24464 28.0994C9.4269 28.4862 9.7027 28.8214 10.0471 29.0747C9.89278 29.7262 9.66646 30.3658 9.36642 30.9778C10.1414 31.343 10.9112 31.7219 11.6742 32.1094C12.1042 31.2346 12.4217 30.3088 12.6189 29.3542C13.0524 29.1614 13.4242 28.8524 13.6931 28.4615C13.962 28.0705 14.1174 27.6127 14.1423 27.1389C14.1671 26.665 14.0604 26.1936 13.8339 25.7766C13.6074 25.3597 13.2699 25.0135 12.8589 24.7764V23.6706C14.8616 24.5455 16.8291 25.4989 18.7568 26.5287C19.316 26.8273 19.9402 26.9836 20.5742 26.9836C21.2082 26.9836 21.8324 26.8273 22.3916 26.5287Z" fill="#50C16C"/>
<path d="M7.65004 33.3678C8.37014 32.6494 8.94108 31.8419 9.36456 30.9761C10.1412 31.343 10.9111 31.7219 11.674 32.1111C11.113 33.2505 10.3681 34.2897 9.46915 35.1869C9.22539 35.4141 8.90298 35.5377 8.56984 35.5318C8.23671 35.526 7.91887 35.391 7.68327 35.1554C7.44767 34.9198 7.31272 34.602 7.30684 34.2688C7.30096 33.9357 7.42462 33.6133 7.65176 33.3695L7.65004 33.3678Z" fill="#50C16C"/>
</svg>
