<svg width="36" height="31" viewBox="0 0 36 31" fill="none" xmlns="http://www.w3.org/2000/svg">
<path fill-rule="evenodd" clip-rule="evenodd" d="M2.57178 0C2.23074 0 1.90367 0.125638 1.66252 0.349275C1.42136 0.572912 1.28589 0.876229 1.28589 1.1925C1.28589 1.50877 1.42136 1.81209 1.66252 2.03572C1.90367 2.25936 2.23074 2.385 2.57178 2.385V28.62H1.28589C0.944849 28.62 0.617779 28.7456 0.376628 28.9693C0.135477 29.1929 0 29.4962 0 29.8125C0 30.1288 0.135477 30.4321 0.376628 30.6557C0.617779 30.8793 0.944849 31.005 1.28589 31.005H23.146V2.385C23.487 2.385 23.8141 2.25936 24.0552 2.03572C24.2964 1.81209 24.4319 1.50877 24.4319 1.1925C24.4319 0.876229 24.2964 0.572912 24.0552 0.349275C23.8141 0.125638 23.487 0 23.146 0H2.57178ZM9.00121 27.4275V23.85C9.00121 23.5337 9.13669 23.2304 9.37784 23.0068C9.61899 22.7831 9.94606 22.6575 10.2871 22.6575H15.4307C15.7717 22.6575 16.0988 22.7831 16.3399 23.0068C16.5811 23.2304 16.7165 23.5337 16.7165 23.85V27.4275C16.7165 27.7438 16.5811 28.0471 16.3399 28.2707C16.0988 28.4943 15.7717 28.62 15.4307 28.62H10.2871C9.94606 28.62 9.61899 28.4943 9.37784 28.2707C9.13669 28.0471 9.00121 27.7438 9.00121 27.4275ZM7.71533 7.155C7.71533 6.83873 7.8508 6.53541 8.09195 6.31177C8.33311 6.08813 8.66018 5.9625 9.00121 5.9625H10.2871C10.6281 5.9625 10.9552 6.08813 11.1964 6.31177C11.4375 6.53541 11.573 6.83873 11.573 7.155C11.573 7.47127 11.4375 7.77458 11.1964 7.99822C10.9552 8.22186 10.6281 8.3475 10.2871 8.3475H9.00121C8.66018 8.3475 8.33311 8.22186 8.09195 7.99822C7.8508 7.77458 7.71533 7.47127 7.71533 7.155ZM9.00121 10.7325C8.66018 10.7325 8.33311 10.8581 8.09195 11.0818C7.8508 11.3054 7.71533 11.6087 7.71533 11.925C7.71533 12.2413 7.8508 12.5446 8.09195 12.7682C8.33311 12.9919 8.66018 13.1175 9.00121 13.1175H10.2871C10.6281 13.1175 10.9552 12.9919 11.1964 12.7682C11.4375 12.5446 11.573 12.2413 11.573 11.925C11.573 11.6087 11.4375 11.3054 11.1964 11.0818C10.9552 10.8581 10.6281 10.7325 10.2871 10.7325H9.00121ZM7.71533 16.695C7.71533 16.3787 7.8508 16.0754 8.09195 15.8518C8.33311 15.6281 8.66018 15.5025 9.00121 15.5025H10.2871C10.6281 15.5025 10.9552 15.6281 11.1964 15.8518C11.4375 16.0754 11.573 16.3787 11.573 16.695C11.573 17.0113 11.4375 17.3146 11.1964 17.5382C10.9552 17.7619 10.6281 17.8875 10.2871 17.8875H9.00121C8.66018 17.8875 8.33311 17.7619 8.09195 17.5382C7.8508 17.3146 7.71533 17.0113 7.71533 16.695ZM15.4307 5.9625C15.0896 5.9625 14.7625 6.08813 14.5214 6.31177C14.2802 6.53541 14.1448 6.83873 14.1448 7.155C14.1448 7.47127 14.2802 7.77458 14.5214 7.99822C14.7625 8.22186 15.0896 8.3475 15.4307 8.3475H16.7165C17.0576 8.3475 17.3847 8.22186 17.6258 7.99822C17.867 7.77458 18.0024 7.47127 18.0024 7.155C18.0024 6.83873 17.867 6.53541 17.6258 6.31177C17.3847 6.08813 17.0576 5.9625 16.7165 5.9625H15.4307ZM14.1448 11.925C14.1448 11.6087 14.2802 11.3054 14.5214 11.0818C14.7625 10.8581 15.0896 10.7325 15.4307 10.7325H16.7165C17.0576 10.7325 17.3847 10.8581 17.6258 11.0818C17.867 11.3054 18.0024 11.6087 18.0024 11.925C18.0024 12.2413 17.867 12.5446 17.6258 12.7682C17.3847 12.9919 17.0576 13.1175 16.7165 13.1175H15.4307C15.0896 13.1175 14.7625 12.9919 14.5214 12.7682C14.2802 12.5446 14.1448 12.2413 14.1448 11.925ZM15.4307 15.5025C15.0896 15.5025 14.7625 15.6281 14.5214 15.8518C14.2802 16.0754 14.1448 16.3787 14.1448 16.695C14.1448 17.0113 14.2802 17.3146 14.5214 17.5382C14.7625 17.7619 15.0896 17.8875 15.4307 17.8875H16.7165C17.0576 17.8875 17.3847 17.7619 17.6258 17.5382C17.867 17.3146 18.0024 17.0113 18.0024 16.695C18.0024 16.3787 17.867 16.0754 17.6258 15.8518C17.3847 15.6281 17.0576 15.5025 16.7165 15.5025H15.4307ZM25.7178 7.155V31.005H34.719C35.06 31.005 35.3871 30.8793 35.6282 30.6557C35.8694 30.4321 36.0049 30.1288 36.0049 29.8125C36.0049 29.4962 35.8694 29.1929 35.6282 28.9693C35.3871 28.7456 35.06 28.62 34.719 28.62H33.4331V9.54C33.7741 9.54 34.1012 9.41436 34.3423 9.19072C34.5835 8.96708 34.719 8.66377 34.719 8.3475C34.719 8.03123 34.5835 7.72791 34.3423 7.50427C34.1012 7.28063 33.7741 7.155 33.4331 7.155H25.7178ZM28.2895 14.31C28.2895 13.9937 28.425 13.6904 28.6662 13.4668C28.9073 13.2431 29.2344 13.1175 29.5754 13.1175H29.5891C29.9302 13.1175 30.2572 13.2431 30.4984 13.4668C30.7395 13.6904 30.875 13.9937 30.875 14.31V14.3227C30.875 14.639 30.7395 14.9423 30.4984 15.1659C30.2572 15.3896 29.9302 15.5152 29.5891 15.5152H29.5754C29.2344 15.5152 28.9073 15.3896 28.6662 15.1659C28.425 14.9423 28.2895 14.639 28.2895 14.3227V14.31ZM29.5754 17.8875C29.2344 17.8875 28.9073 18.0131 28.6662 18.2368C28.425 18.4604 28.2895 18.7637 28.2895 19.08V19.0927C28.2895 19.751 28.8656 20.2852 29.5754 20.2852H29.5891C29.9302 20.2852 30.2572 20.1596 30.4984 19.9359C30.7395 19.7123 30.875 19.409 30.875 19.0927V19.08C30.875 18.7637 30.7395 18.4604 30.4984 18.2368C30.2572 18.0131 29.9302 17.8875 29.5891 17.8875H29.5754ZM28.2895 23.85C28.2895 23.5337 28.425 23.2304 28.6662 23.0068C28.9073 22.7831 29.2344 22.6575 29.5754 22.6575H29.5891C29.9302 22.6575 30.2572 22.7831 30.4984 23.0068C30.7395 23.2304 30.875 23.5337 30.875 23.85V23.8627C30.875 24.179 30.7395 24.4823 30.4984 24.7059C30.2572 24.9296 29.9302 25.0552 29.5891 25.0552H29.5754C29.2344 25.0552 28.9073 24.9296 28.6662 24.7059C28.425 24.4823 28.2895 24.179 28.2895 23.8627V23.85Z" fill="#50C16C"/>
</svg>
