<svg width="39" height="39" viewBox="0 0 39 39" fill="none" xmlns="http://www.w3.org/2000/svg">
<path d="M18.418 3.77777C18.6139 3.64719 18.8441 3.57751 19.0795 3.57751C19.3149 3.57751 19.545 3.64719 19.7409 3.77777L34.0509 13.3178C34.1831 13.4038 34.2969 13.5152 34.3857 13.6455C34.4745 13.7758 34.5366 13.9224 34.5684 14.0769C34.6002 14.2314 34.601 14.3906 34.5708 14.5454C34.5407 14.7002 34.4801 14.8475 34.3926 14.9787C34.3051 15.1099 34.1925 15.2225 34.0612 15.3098C33.9299 15.3972 33.7826 15.4577 33.6278 15.4878C33.473 15.5179 33.3138 15.517 33.1593 15.4851C33.0049 15.4532 32.8583 15.391 32.728 15.3021L19.0795 6.20252L5.43092 15.3021C5.16776 15.4734 4.84766 15.534 4.5401 15.4707C4.23254 15.4074 3.96235 15.2254 3.78818 14.9641C3.614 14.7029 3.5499 14.3834 3.60978 14.0752C3.66967 13.767 3.84871 13.4948 4.10805 13.3178L18.418 3.77777Z" fill="#50C16C"/>
<path fill-rule="evenodd" clip-rule="evenodd" d="M32.1981 16.4277V32.1973H33.3906C33.7069 32.1973 34.0102 32.3229 34.2338 32.5466C34.4575 32.7702 34.5831 33.0735 34.5831 33.3898C34.5831 33.7061 34.4575 34.0094 34.2338 34.233C34.0102 34.4567 33.7069 34.5823 33.3906 34.5823H4.77062C4.45435 34.5823 4.15104 34.4567 3.9274 34.233C3.70376 34.0094 3.57812 33.7061 3.57812 33.3898C3.57812 33.0735 3.70376 32.7702 3.9274 32.5466C4.15104 32.3229 4.45435 32.1973 4.77062 32.1973H5.96312V16.4277C5.96349 16.1437 6.06523 15.8691 6.25004 15.6534C6.43484 15.4377 6.69056 15.295 6.97118 15.2511C10.9771 14.6234 15.0258 14.3087 19.0806 14.3098C23.1987 14.3098 27.2437 14.631 31.1901 15.2511C31.4707 15.295 31.7264 15.4377 31.9112 15.6534C32.096 15.8691 32.1977 16.1437 32.1981 16.4277ZM20.2731 20.2723C20.2731 19.956 20.1475 19.6527 19.9238 19.4291C19.7002 19.2055 19.3969 19.0798 19.0806 19.0798C18.7643 19.0798 18.461 19.2055 18.2374 19.4291C18.0138 19.6527 17.8881 19.956 17.8881 20.2723V31.0048C17.8881 31.3211 18.0138 31.6244 18.2374 31.848C18.461 32.0717 18.7643 32.1973 19.0806 32.1973C19.3969 32.1973 19.7002 32.0717 19.9238 31.848C20.1475 31.6244 20.2731 31.3211 20.2731 31.0048V20.2723ZM25.0431 19.0798C25.3594 19.0798 25.6627 19.2055 25.8863 19.4291C26.11 19.6527 26.2356 19.956 26.2356 20.2723V31.0048C26.2356 31.3211 26.11 31.6244 25.8863 31.848C25.6627 32.0717 25.3594 32.1973 25.0431 32.1973C24.7268 32.1973 24.4235 32.0717 24.1999 31.848C23.9763 31.6244 23.8506 31.3211 23.8506 31.0048V20.2723C23.8506 19.956 23.9763 19.6527 24.1999 19.4291C24.4235 19.2055 24.7268 19.0798 25.0431 19.0798ZM14.3106 20.2723C14.3106 19.956 14.185 19.6527 13.9613 19.4291C13.7377 19.2055 13.4344 19.0798 13.1181 19.0798C12.8018 19.0798 12.4985 19.2055 12.2749 19.4291C12.0513 19.6527 11.9256 19.956 11.9256 20.2723V31.0048C11.9256 31.3211 12.0513 31.6244 12.2749 31.848C12.4985 32.0717 12.8018 32.1973 13.1181 32.1973C13.4344 32.1973 13.7377 32.0717 13.9613 31.848C14.185 31.6244 14.3106 31.3211 14.3106 31.0048V20.2723Z" fill="#50C16C"/>
<path d="M19.0798 12.5212C19.5542 12.5212 20.0091 12.3328 20.3446 11.9973C20.6801 11.6619 20.8685 11.2069 20.8685 10.7325C20.8685 10.2581 20.6801 9.80309 20.3446 9.46764C20.0091 9.13218 19.5542 8.94373 19.0798 8.94373C18.6054 8.94373 18.1504 9.13218 17.8149 9.46764C17.4795 9.80309 17.291 10.2581 17.291 10.7325C17.291 11.2069 17.4795 11.6619 17.8149 11.9973C18.1504 12.3328 18.6054 12.5212 19.0798 12.5212Z" fill="#50C16C"/>
</svg>
