<svg width="20" height="20" viewBox="0 0 20 20" fill="none" xmlns="http://www.w3.org/2000/svg">
<g opacity="0.7">
<path d="M18.3057 15.2743C18.3057 15.5743 18.2391 15.8827 18.0974 16.1827C17.9557 16.4827 17.7724 16.766 17.5307 17.0327C17.1224 17.4827 16.6724 17.8077 16.1641 18.016C15.6641 18.2244 15.1224 18.3327 14.5391 18.3327C13.6891 18.3327 12.7807 18.1327 11.8224 17.7244C10.8641 17.316 9.90573 16.766 8.95573 16.0744C7.9974 15.3744 7.08906 14.5993 6.2224 13.741C5.36406 12.8743 4.58906 11.966 3.8974 11.016C3.21406 10.066 2.66406 9.11602 2.26406 8.17435C1.86406 7.22435 1.66406 6.31602 1.66406 5.44935C1.66406 4.88268 1.76406 4.34102 1.96406 3.84102C2.16406 3.33268 2.48073 2.86602 2.9224 2.44935C3.45573 1.92435 4.03906 1.66602 4.65573 1.66602C4.88906 1.66602 5.1224 1.71602 5.33073 1.81602C5.5474 1.91602 5.73906 2.06602 5.88906 2.28268L7.8224 5.00768C7.9724 5.21602 8.08073 5.40768 8.15573 5.59102C8.23073 5.76602 8.2724 5.94102 8.2724 6.09935C8.2724 6.29935 8.21406 6.49935 8.0974 6.69102C7.98906 6.88268 7.83073 7.08268 7.63073 7.28268L6.9974 7.94102C6.90573 8.03268 6.86406 8.14102 6.86406 8.27435C6.86406 8.34102 6.8724 8.39935 6.88906 8.46602C6.91406 8.53268 6.93906 8.58268 6.95573 8.63268C7.10573 8.90768 7.36406 9.26602 7.73073 9.69935C8.10573 10.1327 8.50573 10.5743 8.93906 11.016C9.38906 11.4577 9.8224 11.866 10.2641 12.241C10.6974 12.6077 11.0557 12.8577 11.3391 13.0077C11.3807 13.0243 11.4307 13.0493 11.4891 13.0743C11.5557 13.0993 11.6224 13.1077 11.6974 13.1077C11.8391 13.1077 11.9474 13.0577 12.0391 12.966L12.6724 12.341C12.8807 12.1327 13.0807 11.9743 13.2724 11.8743C13.4641 11.7577 13.6557 11.6993 13.8641 11.6993C14.0224 11.6993 14.1891 11.7327 14.3724 11.8077C14.5557 11.8827 14.7474 11.991 14.9557 12.1327L17.7141 14.091C17.9307 14.241 18.0807 14.416 18.1724 14.6243C18.2557 14.8327 18.3057 15.041 18.3057 15.2743Z" stroke="#161616" stroke-width="1.2" stroke-miterlimit="10"/>
<path d="M15.4167 7.4987C15.4167 6.9987 15.025 6.23203 14.4417 5.60703C13.9083 5.03203 13.2 4.58203 12.5 4.58203" stroke="#161616" stroke-width="1.2" stroke-linecap="round" stroke-linejoin="round"/>
<path d="M18.3333 7.49935C18.3333 4.27435 15.725 1.66602 12.5 1.66602" stroke="#161616" stroke-width="1.2" stroke-linecap="round" stroke-linejoin="round"/>
</g>
</svg>
