<svg width="71" height="71" viewBox="0 0 71 71" fill="none" xmlns="http://www.w3.org/2000/svg">
<g id="Metamodernist_V2-32" clip-path="url(#clip0_190_2970)">
<g id="Group">
<path id="Vector" d="M35.4116 71.0001C24.9422 71.0001 14.9244 66.607 8.55915 58.6011C7.01803 56.7998 5.66077 54.8494 4.50758 52.7789C-0.0465672 44.9573 -1.21549 35.2537 1.3008 26.1601C2.56113 21.4984 4.76339 17.1435 7.77205 13.3636C10.7807 9.58367 14.5321 6.45862 18.7954 4.18076C23.0587 1.9029 27.7436 0.520442 32.5619 0.118456C37.3802 -0.283531 42.2299 0.303463 46.8125 1.84331C60.5767 6.13874 70.5185 19.5579 70.9845 34.475C71.4293 48.697 62.4111 62.6667 49.0534 68.4472C44.7029 70.1318 40.0777 70.9974 35.4116 71.0001ZM35.5345 0.323835C29.5096 0.340228 23.5874 1.88302 18.3222 4.8078C14.2552 7.09948 10.684 10.1744 7.81558 13.8545C4.94718 17.5345 2.83859 21.7464 1.61199 26.2462C-0.881019 35.2589 0.275834 44.8712 4.7886 52.6183V52.6209C5.93286 54.6747 7.27958 56.6092 8.80871 58.3958C17.8558 69.7755 34.3522 73.7847 48.931 68.1489C62.1632 62.4218 71.1021 48.5782 70.6612 34.4854C70.1987 19.703 60.3508 6.40647 46.7134 2.15237C43.1099 0.945808 39.335 0.328346 35.5345 0.323835Z" fill="#2E9537"/>
<path id="Vector_2" d="M37.8106 68.6603C35.6727 68.6454 33.5406 68.4339 31.4415 68.0284C28.3339 67.4376 25.2998 66.5113 22.3927 65.2658C19.5653 64.0787 16.9227 62.4934 14.5455 60.558C11.2731 57.8537 8.63977 54.4603 6.83418 50.6207C5.89204 48.6573 5.13019 46.6127 4.55796 44.5118C1.83048 34.4015 4.39633 23.3304 11.4241 14.9005C13.5542 12.346 16.0699 10.1386 18.8807 8.35775C21.4661 6.72256 24.2807 5.48075 27.2321 4.67313C31.4026 3.5123 35.7652 3.20613 40.0573 3.77307C44.3494 4.34002 48.4822 5.76834 52.2071 7.97207C52.3735 8.07065 52.5373 8.17266 52.7015 8.27339C52.8308 8.35302 52.9562 8.43222 53.0846 8.5097C54.2868 9.23586 55.4061 9.96504 56.413 10.6761C58.7028 12.2945 60.723 14.2629 62.3994 16.5091C63.8186 18.4033 64.9678 20.485 65.8139 22.6946C66.617 24.8975 67.2473 27.1595 67.6992 29.46C68.2995 32.0233 68.6533 34.6381 68.7556 37.2687C68.8365 39.3127 68.6911 41.3594 68.322 43.3716C67.1298 49.4327 63.6972 55.3332 58.6564 59.9868C53.6769 64.584 47.5133 67.5816 41.3019 68.427C40.1448 68.5838 38.9783 68.6618 37.8106 68.6603ZM35.918 3.83118C33.013 3.83477 30.1213 4.22357 27.3188 4.98736C24.3985 5.78662 21.6135 7.01537 19.0553 8.63324C16.2722 10.3954 13.7813 12.5802 11.6724 15.1089C4.71313 23.4595 2.17012 34.4187 4.87045 44.4274C5.43706 46.5095 6.19201 48.5357 7.12598 50.4812C8.91113 54.2782 11.5148 57.634 14.7507 60.3083C17.1042 62.2244 19.7205 63.7938 22.5198 64.9688C25.4051 66.2053 28.4165 67.1247 31.5009 67.7107C34.7112 68.3668 38.0064 68.5017 41.2596 68.1102C47.4064 67.2734 53.5075 64.305 58.4388 59.7522C63.4295 55.1464 66.8277 49.3066 68.0074 43.3117C68.3722 41.3227 68.5157 39.2995 68.4354 37.279C68.3335 34.6688 67.9821 32.0744 67.3859 29.531C66.9376 27.2469 66.312 25.0011 65.5148 22.8139C64.6796 20.632 63.5449 18.5767 62.1434 16.7067C60.487 14.4867 58.4906 12.5414 56.2276 10.9422C55.2277 10.2354 54.1156 9.51092 52.9187 8.78992C52.7894 8.71158 52.6601 8.63109 52.5308 8.55102C52.3687 8.44987 52.2071 8.34914 52.0429 8.25186C47.1646 5.35519 41.5935 3.82787 35.918 3.83118Z" fill="#2E9537"/>
<path id="Vector_3" d="M34.9123 66.4365C34.6826 66.4365 34.4533 66.4335 34.2227 66.4279C30.3116 66.3117 26.4823 65.282 23.0416 63.4213C21.292 62.477 19.638 61.366 18.1026 60.1038C10.8524 54.1451 6.84737 44.5944 7.38959 34.5521C7.54576 31.6031 8.16462 28.6969 9.22358 25.9397C10.1972 23.398 11.5456 21.0159 13.2243 18.8722C15.6088 15.7939 18.5993 13.236 22.0115 11.356C25.4238 9.47609 29.1854 8.31402 33.0645 7.94145C33.2136 7.92724 33.3632 7.91734 33.5128 7.90701C33.674 7.89625 33.8347 7.88506 33.9951 7.86913C35.0295 7.76582 36.0377 7.675 36.9971 7.58891L37.6868 7.5265C40.2643 7.28595 42.8642 7.52487 45.3546 8.23114C47.5422 8.84791 49.6057 9.83979 51.4531 11.1625C52.7511 12.1256 53.988 13.1685 55.1564 14.2849C55.6098 14.7007 56.0654 15.1187 56.5313 15.5307C56.8583 15.8208 57.1813 16.1053 57.5003 16.3842C59.0374 17.6705 60.4856 19.0591 61.835 20.5406C63.1117 21.9276 64.2054 23.4721 65.0892 25.1365C68.1667 31.3616 67.7516 37.9427 66.8616 42.3668C65.7369 48.2151 62.8342 53.575 58.5489 57.7161C56.5395 59.6041 54.0663 61.1597 50.7596 62.6086C48.058 63.7659 45.2684 64.7063 42.4172 65.4207C39.9696 66.0794 37.4472 66.4208 34.9123 66.4365ZM39.6613 7.75851C39.0212 7.75851 38.376 7.78864 37.7182 7.84804L37.026 7.91046C36.0679 7.99654 35.0623 8.08694 34.0274 8.19025C33.8641 8.2066 33.6994 8.21779 33.5352 8.22899C33.3882 8.23932 33.2417 8.24922 33.0956 8.26299C29.2598 8.63128 25.5403 9.7803 22.1663 11.6392C18.7923 13.4981 15.8354 16.0275 13.4777 19.0715C11.8194 21.1898 10.4872 23.5436 9.52529 26.0551C8.47945 28.7811 7.86858 31.6541 7.71501 34.5693C7.17839 44.5079 11.1395 53.9605 18.3112 59.8546C19.8304 61.1033 21.4668 62.2026 23.1976 63.1372C26.5935 64.9748 30.3733 65.992 34.2339 66.1073C36.9701 66.1623 39.7002 65.8265 42.3413 65.1099C45.1757 64.4001 47.9488 63.4653 50.6341 62.3146C53.9043 60.8808 56.3507 59.3445 58.3321 57.4833C62.5688 53.3874 65.4381 48.0868 66.5491 42.3036C67.4292 37.9281 67.8421 31.4232 64.8035 25.2794C63.9309 23.6396 62.8517 22.1181 61.5924 20.752C60.2524 19.2816 58.8146 17.9034 57.2886 16.6266C56.9694 16.3468 56.646 16.062 56.3184 15.7721C55.8516 15.3589 55.3943 14.9401 54.9392 14.5238C53.7814 13.4148 52.5549 12.3797 51.2669 11.4246C49.4503 10.1234 47.421 9.14751 45.2697 8.54063C43.4446 8.02587 41.5577 7.76272 39.6613 7.75851Z" fill="#2E9537"/>
<path id="Vector_4" d="M40.4676 64.011C38.0443 63.9559 35.641 63.5587 33.3291 62.8311C30.743 62.0701 28.2262 61.0947 25.6634 60.0788C23.3461 59.2124 21.1601 58.0295 19.168 56.5638C16.3097 54.4 14.0507 51.5443 12.6044 48.2665C11.8851 46.622 11.3376 44.9078 10.9704 43.1511C9.26358 35.0777 11.7738 26.0693 17.6844 19.0539C19.3478 17.0746 21.3124 15.3688 23.5062 13.9987C25.5336 12.7303 27.7405 11.7736 30.0529 11.1608C33.3988 10.2502 36.8979 10.0457 40.3273 10.5601C43.7566 11.0745 47.0412 12.2966 49.9716 14.1485C50.0767 14.2152 50.1798 14.2854 50.2828 14.3555C50.4121 14.4416 50.5379 14.5277 50.6707 14.6091C51.6551 15.2074 52.6965 15.8333 53.6658 16.3356C55.7959 17.417 57.658 18.9586 59.1169 20.8484C60.4493 22.5706 61.4012 24.5552 61.9099 26.6715C62.1717 27.8452 62.3622 29.0337 62.4806 30.2304C62.5871 31.1253 62.6961 32.0508 62.8685 32.9672C63.0651 34.0149 63.2995 34.9851 63.5258 35.9235C63.8389 37.1206 64.0857 38.334 64.265 39.5582C64.4775 41.2369 64.6939 42.9419 64.3736 44.7334C63.3151 50.6546 59.3307 55.1145 56.1714 57.8125C52.1377 61.3124 47.1075 63.4622 41.7874 63.9598C41.346 63.9942 40.9038 64.011 40.4676 64.011ZM36.6859 10.618C34.4743 10.6211 32.2724 10.9084 30.1344 11.4728C27.8536 12.0769 25.6767 13.0201 23.6768 14.2707C21.5113 15.6234 19.5722 17.3076 17.9305 19.2618C12.0846 26.2018 9.60063 35.1074 11.2868 43.084C11.649 44.819 12.1896 46.512 12.9001 48.1361C14.3242 51.3636 16.5484 54.1754 19.3628 56.306C21.3319 57.7539 23.4923 58.9226 25.7824 59.7788C28.3383 60.7917 30.8456 61.764 33.4205 62.5221C36.732 63.4919 39.3052 63.8366 41.7633 63.6365C47.0153 63.1452 51.9811 61.0227 55.9627 57.5672C59.0803 54.9032 63.0151 50.504 64.0573 44.6766C64.3689 42.9337 64.1555 41.252 63.9491 39.6258C63.7706 38.4046 63.5244 37.1944 63.2116 36.0005C62.984 35.0579 62.7487 34.0838 62.5509 33.0283C62.3759 32.1011 62.2651 31.1701 62.1582 30.2696C62.0424 29.0856 61.8541 27.9099 61.5944 26.7489C61.0969 24.6778 60.1656 22.7354 58.8618 21.0498C57.4364 19.1916 55.6095 17.6785 53.5171 16.6236C52.54 16.1165 51.4913 15.4872 50.5035 14.8863C50.3668 14.8032 50.2345 14.7141 50.1022 14.6233C50.0022 14.5553 49.9022 14.4872 49.8005 14.4223C45.8811 11.9323 41.331 10.6124 36.6859 10.618Z" fill="#2E9537"/>
<path id="Vector_5" d="M35.4301 62.0562C32.7593 62.0578 30.1231 61.4533 27.7205 60.2884C26.282 59.5755 24.9275 58.7046 23.6823 57.6919C18.1501 53.2433 14.7347 45.6274 14.5447 37.3146C14.485 35.096 14.7793 32.8821 15.4166 30.7559C16.002 28.7797 16.8851 26.9041 18.0355 25.1932C19.711 22.657 21.9085 20.5065 24.4816 18.8851C27.0547 17.2637 29.9443 16.2086 32.9578 15.7901C33.0642 15.7755 33.1703 15.7652 33.2763 15.7548C33.416 15.741 33.5556 15.7277 33.6935 15.704C34.715 15.5318 35.6297 15.2925 36.5137 15.0631L36.8438 14.977C38.7209 14.4936 40.6622 13.9943 43.3281 14.4605C45.3781 14.8535 47.295 15.7587 48.8999 17.0918C49.6457 17.7355 50.3501 18.4256 51.0088 19.1579C51.7004 19.9277 52.4427 20.6504 53.2307 21.3214C54.1943 22.0853 55.209 22.7827 56.2677 23.4086C57.0207 23.8748 57.7332 24.3151 58.3875 24.8166L58.6538 25.0197C59.7952 25.8884 60.9753 26.7846 61.8136 28.1422C64.5183 32.516 64.3446 37.8518 63.7222 41.5584C62.9716 46.2171 60.7476 50.5136 57.3759 53.8192C55.3268 55.7863 52.7898 56.9262 50.5783 57.7823C49.3089 58.2709 47.9921 58.7246 46.7202 59.1641C45.603 59.5515 44.5483 59.913 43.5281 60.2966C41.4999 61.1321 39.3691 61.6933 37.1921 61.9654C36.6067 62.0256 36.0186 62.0559 35.4301 62.0562ZM41.2101 14.5952C39.757 14.6363 38.3158 14.87 36.9244 15.2904L36.5951 15.3765C35.7042 15.6076 34.7849 15.8469 33.7478 16.0221C33.6022 16.0467 33.4552 16.0613 33.3078 16.0759C33.2056 16.0858 33.1035 16.0957 33.0017 16.1095C30.0334 16.5219 27.1872 17.5615 24.6528 19.1589C22.1184 20.7562 19.9541 22.8747 18.304 25.3731C17.1719 27.0569 16.3027 28.9028 15.7265 30.8476C15.099 32.9415 14.8093 35.1219 14.8684 37.3068C15.0563 45.5236 18.4268 53.0504 23.8848 57.4401C25.1113 58.4378 26.4453 59.2957 27.8623 59.9978C30.7489 61.3961 33.9677 61.9661 37.1598 61.6443C39.309 61.375 41.4126 60.8202 43.4147 59.9948C44.4388 59.61 45.4957 59.245 46.615 58.8593C47.8853 58.4211 49.1986 57.9678 50.4623 57.4819C52.6437 56.6378 55.1445 55.5143 57.1526 53.5868C60.4737 50.3291 62.6638 46.0955 63.4024 41.5054C64.0153 37.8535 64.1894 32.6008 61.5378 28.3122C60.7305 27.0076 59.5745 26.1277 58.4564 25.2772L58.1892 25.0736C57.5465 24.5816 56.8418 24.1451 56.0957 23.6832C55.0251 23.0501 53.999 22.3447 53.0247 21.5719C52.2255 20.8919 51.4727 20.1594 50.7714 19.3792C50.1224 18.6568 49.4279 17.9766 48.6921 17.3427C47.1308 16.0449 45.2656 15.1633 43.2708 14.7803C42.5906 14.6587 41.9011 14.5968 41.2101 14.5952Z" fill="#2E9537"/>
<path id="Vector_6" d="M43.3757 59.3022C41.2426 59.3022 39.1918 58.6965 37.2742 58.0229C36.7402 57.8344 36.2035 57.6385 35.6665 57.4427C34.045 56.8508 32.3688 56.2374 30.8072 55.8448L30.577 55.7867C28.6775 55.3081 27.0371 54.8948 25.3414 54.0094C22.729 52.613 20.6087 50.4494 19.2671 47.811C18.6438 46.5416 18.1781 45.2008 17.8805 43.8186C16.0185 35.5489 20.5416 27.7199 22.5726 24.7395C23.6121 23.1952 24.8888 21.824 26.3556 20.6765C27.722 19.5989 29.2491 18.742 30.8813 18.1369C33.3287 17.1904 35.9557 16.7973 38.5734 16.9859C41.1911 17.1745 43.7344 17.9401 46.0204 19.2276C46.1002 19.2728 46.1782 19.3215 46.2558 19.3701C46.3605 19.4355 46.4648 19.4992 46.5747 19.5561C47.454 20.0418 48.3943 20.4079 49.3707 20.6447C51.4128 20.9607 53.2875 21.9583 54.6891 23.4748C56.0511 24.935 56.9453 26.7681 57.2571 28.7392C57.3702 29.5759 57.4261 30.4194 57.4243 31.2638C57.41 32.3343 57.5083 33.4033 57.7174 34.4534C58.0439 35.7223 58.5289 36.9451 59.1609 38.0932C59.4518 38.6705 59.7264 39.2158 59.9462 39.772L60.1005 40.1594C60.5626 41.3108 61.0863 42.6168 60.9901 44.0764C60.7061 48.3942 57.7346 52.0065 55.2912 54.278C52.2996 57.0899 48.4636 58.8392 44.3765 59.2553C44.042 59.2876 43.7076 59.3022 43.3757 59.3022ZM37.3798 17.2712C35.1988 17.2791 33.0366 17.6755 30.9951 18.4421C29.3942 19.0351 27.8962 19.8749 26.5556 20.9309C25.1148 22.0585 23.8609 23.4056 22.8398 24.9229C20.8325 27.8697 16.3616 35.6031 18.196 43.7493C18.4879 45.1062 18.9447 46.4223 19.5563 47.6685C20.8674 50.2465 22.9392 52.3605 25.4919 53.7249C27.153 54.5922 28.6991 54.9818 30.6563 55.4755L30.8865 55.5332C32.464 55.9309 34.1484 56.546 35.7773 57.1405C36.3134 57.3363 36.8492 57.5318 37.3819 57.7199C39.5625 58.4856 41.9167 59.161 44.3476 58.9363C48.3637 58.5267 52.1328 56.8073 55.0722 54.0439C57.4726 51.8141 60.3919 48.2711 60.669 44.0575C60.76 42.6715 60.2725 41.4572 59.8014 40.2825L59.6462 39.8951C59.4307 39.3514 59.1609 38.8129 58.8734 38.2422C58.2315 37.0705 57.738 35.8237 57.4041 34.5304C57.1892 33.4586 57.0881 32.3671 57.1023 31.2741C57.1051 30.4443 57.0505 29.6153 56.939 28.793C56.6384 26.8877 55.7746 25.1155 54.4585 23.7038C53.1012 22.2352 51.2858 21.269 49.3082 20.9628C48.3031 20.721 47.3351 20.3453 46.4303 19.8457C46.3118 19.7863 46.1989 19.7166 46.0855 19.6456C46.0118 19.5995 45.9381 19.5535 45.8618 19.5109C43.2765 18.0431 40.3537 17.2713 37.3798 17.2712Z" fill="#2E9537"/>
<path id="Vector_7" d="M37.3312 58.3428C36.1313 58.3466 34.9384 58.1605 33.7968 57.7914C32.636 57.3969 31.5331 56.8493 30.5176 56.163C26.4704 53.499 23.5351 48.5979 21.7972 41.5958C21.4184 40.1305 21.2671 38.6157 21.3486 37.1045C21.4258 35.68 21.7338 34.2773 22.2606 32.9512C23.0395 30.8801 24.2921 29.0194 25.9185 27.5173C27.5449 26.0152 29.5001 24.9132 31.6284 24.2992C31.6993 24.2801 31.7713 24.2648 31.8439 24.2536C31.9431 24.243 32.0398 24.2154 32.1296 24.1718C32.5011 23.9614 32.8873 23.7781 33.2852 23.6234C33.7804 23.4523 34.2432 23.1991 34.6541 22.8744C35.9605 21.7122 37.2531 20.7458 39.8483 20.7131C41.7604 20.7308 43.6054 21.4188 45.0611 22.657C45.6166 23.1548 46.1344 23.693 46.6101 24.2673C47.273 25.108 48.0574 25.8455 48.9376 26.4557C50.0927 27.1255 51.3674 27.5641 52.6905 27.7471C53.1784 27.8418 53.6388 27.9313 54.0775 28.0553L54.4517 28.159C55.5908 28.4724 56.8817 28.8271 57.8451 29.8321C59.8062 31.8789 60.776 35.1361 60.6437 39.2525C60.5505 42.7412 59.2617 46.0923 56.9925 48.7464C55.484 50.4876 53.4215 51.4152 51.4363 52.2154L51.1195 52.3419C49.2764 53.0788 47.3696 53.8407 45.8722 54.86C45.4942 55.1183 45.1429 55.3671 44.805 55.6081C43.8128 56.3762 42.732 57.0229 41.5858 57.5344C40.2329 58.075 38.7883 58.3495 37.3312 58.3428ZM32.2964 24.4494C32.173 24.514 32.0387 24.5553 31.9003 24.5712C31.839 24.5803 31.7783 24.593 31.7184 24.6091C29.6376 25.2097 27.7261 26.2875 26.1362 27.7566C24.5463 29.2256 23.3221 31.0452 22.561 33.0704C22.0469 34.3642 21.7465 35.7327 21.6714 37.1226C21.5921 38.6017 21.7405 40.0842 22.1115 41.5183C23.8304 48.4391 26.7186 53.2756 30.6961 55.8931C31.6875 56.5644 32.7646 57.1001 33.8985 57.4857C36.3728 58.2779 39.0454 58.19 41.462 57.2369C42.5852 56.7343 43.6443 56.0998 44.6171 55.3469C44.9567 55.1045 45.3098 54.8527 45.6899 54.5949C47.2179 53.5553 49.1381 52.787 50.9988 52.0436L51.3147 51.9175C53.2633 51.1315 55.2883 50.2228 56.7455 48.5363C58.9666 45.9387 60.2278 42.6585 60.3183 39.2439C60.4075 36.4352 60.0097 32.5616 57.6093 30.0568C56.708 29.1163 55.4624 28.7737 54.3637 28.4719L53.987 28.3673C53.5616 28.2468 53.1073 28.1586 52.6267 28.066C51.264 27.8771 49.9515 27.4238 48.7631 26.7316C47.8554 26.1055 47.0466 25.3472 46.3636 24.4821C45.8987 23.9192 45.3921 23.392 44.8481 22.905C43.4505 21.7195 41.6819 21.0592 39.8483 21.0386C37.3695 21.067 36.1256 21.9959 34.8696 23.115C34.4335 23.4643 33.9408 23.7366 33.4128 23.92C33.0284 24.0693 32.6553 24.2463 32.2964 24.4494Z" fill="#2E9537"/>
<path id="Vector_8" d="M45.486 54.9091C43.4133 54.9091 41.5746 53.9229 40.0867 53.1249C38.4229 52.2274 36.6575 51.3329 34.9705 51.1194C34.358 51.0424 33.8011 51.0161 33.2624 50.9903C32.3452 50.985 31.4325 50.8616 30.5469 50.6231C28.2597 49.8653 26.3627 48.2394 25.2657 46.0966C24.815 45.1632 24.5048 44.1684 24.345 43.1446C23.5231 38.3305 25.9794 33.4651 27.7729 29.9131L28.0677 29.3272C28.5811 28.2575 29.2436 27.2656 30.0353 26.3813C30.8023 25.5446 31.7088 24.8473 32.7145 24.3203C34.3109 23.4445 36.1015 22.9817 37.9229 22.9742C39.7443 22.9667 41.5386 23.4147 43.1422 24.2772C43.1973 24.3086 43.2505 24.3431 43.3016 24.3805C43.3626 24.4306 43.4321 24.4692 43.5068 24.4946C43.8676 24.5834 44.2214 24.6985 44.5654 24.839C45.0413 25.0654 45.5627 25.1804 46.0899 25.1751C47.9825 25.0353 49.4562 25.0645 51.1992 26.7213C51.8374 27.3617 52.3404 28.1235 52.6783 28.9616C53.0162 29.7997 53.1822 30.6971 53.1664 31.6004C53.1315 32.2709 53.0418 32.9375 52.8983 33.5934C52.6361 34.6089 52.5775 35.6661 52.7259 36.7042C53.0276 38.203 53.9232 39.2185 54.7129 40.1142C54.9771 40.4155 55.2266 40.6975 55.4456 40.9867L55.618 41.2119C56.3344 42.1485 57.146 43.21 57.1697 44.5801C57.2236 47.486 55.1693 50.0334 53.4362 51.6588C51.3349 53.6295 48.5952 54.7816 45.7154 54.9057C45.6375 54.9079 45.561 54.9091 45.486 54.9091ZM38.0294 23.2971C36.2263 23.3076 34.4528 23.7566 32.8624 24.6052C31.8906 25.1151 31.0147 25.7894 30.2737 26.5982C29.5024 27.4612 28.8569 28.4286 28.3565 29.4719L28.0612 30.0581C26.2876 33.5706 23.8592 38.3808 24.6631 43.0903C24.8174 44.0832 25.1179 45.0478 25.5549 45.9528C26.6107 48.0175 28.4377 49.5843 30.6409 50.3145C31.5014 50.5446 32.3879 50.6635 33.2787 50.6683C33.824 50.6942 34.3873 50.7204 35.0123 50.7975C36.7549 51.0179 38.551 51.927 40.241 52.8391C42.0918 53.8317 43.7788 54.647 45.7024 54.5807C48.504 54.4599 51.169 53.3389 53.2129 51.4216C54.8986 49.8406 56.8968 47.3715 56.8447 44.584C56.8214 43.3198 56.0439 42.3026 55.3577 41.4056L55.1853 41.1791C54.9741 40.8998 54.728 40.6196 54.4681 40.3256C53.6517 39.3993 52.7267 38.3494 52.4069 36.7662C52.2485 35.6869 52.3071 34.5869 52.5793 33.5305C52.7203 32.8921 52.8081 32.243 52.8418 31.5901C52.8573 30.7317 52.7 29.879 52.3794 29.0824C52.0587 28.2859 51.5812 27.5617 50.9751 26.9529C49.3281 25.3882 47.92 25.3602 46.1127 25.495C45.538 25.5048 44.9686 25.3827 44.4486 25.1381C44.1186 25.0038 43.7794 24.8933 43.4335 24.8075C43.3168 24.7743 43.2079 24.7181 43.1133 24.6423C43.0728 24.6122 43.0304 24.5846 42.9866 24.5596C41.4662 23.731 39.7614 23.2969 38.0294 23.2971Z" fill="#2E9537"/>
<path id="Vector_9" d="M38.7091 54.0546C37.9017 54.0582 37.0998 53.9229 36.3385 53.6548C35.5408 53.3576 34.798 52.9304 34.1403 52.3905C31.7485 50.488 30.6615 47.48 29.7008 44.8263C29.3439 43.8388 29.0068 42.9065 28.6293 42.1072C28.2154 41.3044 27.89 40.4593 27.6586 39.5865C27.4648 38.7274 27.4473 37.838 27.6073 36.9719C27.8307 35.5303 28.458 34.1813 29.4168 33.0807C30.3755 31.9801 31.6265 31.1729 33.0252 30.7524C33.0762 30.7381 33.128 30.7269 33.1804 30.7188C33.2402 30.7127 33.2985 30.6964 33.3528 30.6706C33.6275 30.5083 33.9127 30.3645 34.2066 30.2402C34.7196 30.0676 35.1714 29.7502 35.5075 29.3263L35.5626 29.2484C36.5346 27.8658 37.4526 26.5603 39.8681 26.5366C40.73 26.5533 41.5764 26.7682 42.3417 27.1645C43.107 27.5608 43.7706 28.128 44.2808 28.8219C44.6221 29.3316 44.9167 29.8709 45.161 30.4335C45.5873 31.3374 46.0273 32.2728 46.876 32.8991C48.0889 33.7974 49.4923 33.7371 50.7293 33.6833C51.0672 33.6687 51.3849 33.6558 51.6896 33.6601C53.0105 33.6338 54.3132 33.9697 55.4563 34.6312L55.4994 34.669C56.8161 36.3459 57.5024 38.4306 57.439 40.5606C57.3689 42.8383 56.4033 44.9969 54.7511 46.5687C53.3982 47.8433 51.6228 48.13 49.9061 48.4072L49.8311 48.4188C48.1647 48.6835 46.4627 49.0679 45.2985 50.0803C44.8511 50.4858 44.4397 50.929 44.0688 51.4052C43.628 51.9955 43.1026 52.5176 42.5094 52.9548C41.3798 53.6897 40.057 54.0726 38.7091 54.0546ZM39.912 26.8573H39.8689C37.6194 26.8805 36.788 28.0626 35.8251 29.4327L35.7699 29.5114C35.4015 29.9835 34.9038 30.3386 34.3372 30.5337C34.0553 30.6526 33.7817 30.7902 33.5183 30.9457C33.4297 30.9942 33.3325 31.0252 33.2321 31.0369C33.1924 31.0428 33.1531 31.0512 33.1144 31.0619C31.7748 31.4671 30.5772 32.2424 29.6599 33.2981C28.7425 34.3539 28.1427 35.6472 27.9297 37.0288C27.7768 37.8522 27.7929 38.698 27.9771 39.515C28.204 40.3655 28.5219 41.1891 28.9254 41.9716C29.3103 42.7847 29.6499 43.7239 30.0094 44.7187C30.9542 47.3324 32.0248 50.2947 34.345 52.1404C34.9748 52.6579 35.6859 53.0677 36.4497 53.3534C37.4158 53.6933 38.4466 53.8098 39.4644 53.6943C40.4822 53.5788 41.4605 53.2343 42.3257 52.6867C42.8932 52.2653 43.3961 51.7634 43.8184 51.1969C44.2006 50.7066 44.6248 50.2503 45.086 49.8332C46.3114 48.767 48.066 48.3697 49.7793 48.0964L49.8539 48.0843C51.5224 47.8149 53.2482 47.5364 54.5287 46.3298C56.1189 44.8169 57.048 42.7391 57.1149 40.5468C57.1756 38.5022 56.5202 36.5005 55.2615 34.8869C54.1748 34.2625 52.9373 33.9485 51.684 33.979C51.3896 33.9743 51.0763 33.9872 50.744 34.0019C49.4509 34.0582 47.9893 34.1207 46.6842 33.1547C45.77 32.4798 45.3123 31.5074 44.8692 30.5673C44.6331 30.0221 44.3482 29.4993 44.0179 29.0052C43.5433 28.3577 42.9265 27.8274 42.2147 27.4551C41.503 27.0828 40.7153 26.8783 39.912 26.8573Z" fill="#2E9537"/>
<path id="Vector_10" d="M38.5437 51.2289C37.5188 51.2348 36.5108 50.9673 35.624 50.4541C35.0532 50.1092 34.5527 49.6598 34.1486 49.1296C32.9974 47.6575 32.7129 45.7988 32.4375 44.0013C32.2362 42.6858 32.0461 41.444 31.5268 40.463C31.3776 40.1815 31.2225 39.9279 31.0725 39.683C30.8445 39.3334 30.6442 38.9665 30.4733 38.5858C30.2081 37.9246 30.1163 37.2068 30.2065 36.5003C30.4397 34.4449 31.8737 32.1958 34.5521 31.8084C34.5982 31.8015 34.6443 31.7968 34.69 31.7925C34.7357 31.7882 34.7904 31.7826 34.84 31.774L35.037 31.7396C35.8749 31.5949 36.4805 31.4903 37.0688 30.8231L37.2882 30.573C38.4002 29.2998 39.4502 28.0963 41.6979 28.5435C42.4997 28.7232 43.2392 29.1128 43.8405 29.6722C44.4417 30.2316 44.8831 30.9406 45.1194 31.7266C45.2547 32.277 45.3359 32.8393 45.3616 33.4054C45.4405 34.4169 45.515 35.373 46.1603 36.1555C47.0952 37.2923 48.5908 37.3681 49.9101 37.4352C50.2054 37.4503 50.4899 37.4649 50.7541 37.4908C52.1333 37.6255 53.5359 37.8893 54.4389 38.9005C55.3802 39.9542 55.7491 41.5791 55.4505 43.3586C55.3095 44.1826 54.9873 44.9651 54.5072 45.6499C54.0271 46.3346 53.4009 46.9046 52.6738 47.3187C51.2812 48.0875 49.7084 47.7922 48.3205 47.5339L48.0524 47.484C46.7594 47.2429 45.1215 47.0738 43.9147 47.9084C43.4303 48.2717 42.9977 48.6991 42.6285 49.1787C42.2296 49.7068 41.7466 50.166 41.1988 50.538C40.3933 51.0055 39.4753 51.2444 38.5437 51.2289ZM40.795 28.7725C39.2916 28.7725 38.4675 29.7169 37.533 30.7857L37.3123 31.0375C36.6481 31.7895 35.9619 31.9079 35.093 32.0585L34.8965 32.0925C34.8396 32.1024 34.7814 32.1084 34.724 32.114C34.6831 32.1183 34.6417 32.1222 34.6008 32.1282C32.0927 32.4915 30.7492 34.6042 30.5298 36.5364C30.4459 37.1882 30.5299 37.8506 30.7738 38.461C30.938 38.8265 31.1301 39.1789 31.3483 39.5151C31.5009 39.7644 31.6586 40.0218 31.8125 40.3128C32.3573 41.3415 32.5517 42.6101 32.7573 43.9526C33.0263 45.7093 33.3043 47.5253 34.4029 48.9312C34.7828 49.4299 35.2533 49.8527 35.79 50.1773C36.5825 50.6407 37.4815 50.8917 38.3998 50.906C39.3181 50.9204 40.2245 50.6975 41.0311 50.2591C41.5496 49.9056 42.0062 49.4693 42.3828 48.9677C42.7697 48.4656 43.2236 48.0188 43.7319 47.6398C45.0357 46.7359 46.7577 46.9106 48.1128 47.1633L48.3817 47.2132C49.7808 47.475 51.2265 47.7461 52.5195 47.0342C53.2039 46.644 53.7932 46.1073 54.2452 45.4626C54.6972 44.818 55.0006 44.0813 55.1337 43.3057C55.4117 41.6476 55.0625 40.0812 54.1992 39.1153C53.3704 38.1868 52.0394 37.9406 50.7243 37.8119C50.4657 37.7869 50.1856 37.7727 49.8955 37.7576C48.5774 37.6905 46.9374 37.6074 45.912 36.3608C45.2021 35.4999 45.1198 34.4475 45.0405 33.4308C45.0169 32.8855 44.9397 32.3438 44.8099 31.8136C44.5624 30.9398 44.0368 30.1703 43.3125 29.6214C42.5882 29.0725 41.7046 28.774 40.7954 28.7712L40.795 28.7725Z" fill="#2E9537"/>
<path id="Vector_11" d="M40.4568 49.9163C39.8352 49.9195 39.2194 49.7971 38.6465 49.5564C36.9224 48.8165 36.5776 47.3392 36.2423 45.9105C35.9599 44.7053 35.6931 43.5659 34.66 42.8113C34.368 42.6095 34.0601 42.4315 33.7393 42.2793C33.4114 42.1221 33.0959 41.9404 32.7954 41.7356C32.234 41.2866 31.7996 40.6992 31.535 40.0313C31.2705 39.3633 31.1849 38.6381 31.2868 37.927C31.3343 37.3305 31.5461 36.7586 31.8989 36.2748C32.2516 35.7911 32.7315 35.4142 33.2855 35.1859C33.3566 35.1575 33.4273 35.1317 33.4962 35.1076C33.6574 35.0504 33.8113 35.0021 33.9592 34.9561C34.2846 34.8976 34.5944 34.7726 34.8692 34.5891C35.144 34.4056 35.378 34.1674 35.5565 33.8894C35.6531 33.7392 35.7475 33.5881 35.841 33.4388C36.7716 31.9494 37.6513 30.5423 39.8421 30.7984C40.6162 30.9076 41.3395 31.247 41.9178 31.7723C42.4961 32.2977 42.9027 32.9847 43.0847 33.744C43.1729 34.2668 43.2054 34.7975 43.1817 35.3271C43.1726 36.3124 43.1644 37.2426 43.8097 37.9645C44.7579 39.0268 46.3859 38.831 47.8216 38.6571C48.0892 38.6244 48.3474 38.5934 48.5901 38.571C49.9708 38.4019 51.3693 38.6838 52.5762 39.3746C53.0496 39.6667 53.4551 40.0564 53.7656 40.5176C54.0761 40.9788 54.2844 41.5009 54.3765 42.049C54.4608 42.6072 54.3843 43.1779 54.1559 43.6943C53.9274 44.2108 53.5565 44.6516 53.0865 44.9653C51.9348 45.6811 50.6193 45.3131 49.4577 44.9885L49.0793 44.8839C47.4703 44.4535 46.3721 44.6127 45.6238 45.3914C45.2249 45.8587 44.9091 46.3908 44.6902 46.9647C44.4515 47.5851 44.1063 48.1592 43.67 48.6611C42.8075 49.4878 41.652 49.9391 40.4568 49.9163ZM39.3443 31.0915C37.6857 31.0915 36.9513 32.2662 36.1117 33.6097C36.0177 33.7603 35.9224 33.911 35.8255 34.0633C35.6263 34.373 35.3664 34.639 35.0613 34.8454C34.7562 35.0517 34.4123 35.1941 34.0505 35.2639C33.9066 35.3069 33.7562 35.3564 33.5988 35.4119C33.5333 35.4346 33.4665 35.4593 33.3984 35.486C32.899 35.6939 32.4668 36.0358 32.1499 36.4737C31.8329 36.9117 31.6434 37.4287 31.6023 37.9675C31.5071 38.6212 31.5842 39.2884 31.8261 39.9033C32.068 40.5181 32.4663 41.0593 32.9816 41.4735C33.2688 41.668 33.5702 41.8406 33.8833 41.99C34.2193 42.1505 34.5419 42.3376 34.8479 42.5496C35.9776 43.3752 36.2703 44.6261 36.5539 45.8361C36.8849 47.2492 37.1974 48.5836 38.7711 49.259C39.5451 49.5838 40.3965 49.679 41.2234 49.5332C42.0502 49.3874 42.8175 49.0068 43.4334 48.4368C43.8436 47.9616 44.1675 47.4186 44.3907 46.8321C44.625 46.2248 44.9616 45.662 45.3859 45.168C46.4876 44.0222 48.0668 44.2787 49.1586 44.5723L49.5401 44.6777C50.6904 44.9997 51.8796 45.3316 52.9111 44.6919C53.3253 44.4084 53.6517 44.0147 53.8532 43.5554C54.0548 43.0961 54.1235 42.5896 54.0515 42.0933C53.9662 41.5914 53.7744 41.1134 53.489 40.6916C53.2036 40.2697 52.8313 39.9136 52.3969 39.6471C51.2503 38.9944 49.923 38.7299 48.6134 38.893C48.3742 38.914 48.1199 38.9446 47.8556 38.9765C46.4169 39.1508 44.6256 39.3669 43.5636 38.1784C42.8356 37.3636 42.8446 36.3275 42.8537 35.3233C42.8764 34.8167 42.8462 34.3092 42.7636 33.809C42.5966 33.1159 42.2249 32.4891 41.6966 32.0097C41.1683 31.5304 40.5079 31.2209 39.8012 31.1212C39.6496 31.1026 39.497 31.0926 39.3443 31.0915Z" fill="#2E9537"/>
</g>
</g>
<defs>
<clipPath id="clip0_190_2970">
<rect width="71" height="71" fill="white"/>
</clipPath>
</defs>
</svg>
