<svg width="71" height="64" viewBox="0 0 71 64" fill="none" xmlns="http://www.w3.org/2000/svg">
<g id="Metamodernist_V2-09" clip-path="url(#clip0_190_2958)">
<g id="Group">
<path id="Vector" d="M71 31.999C71 49.6449 55.0739 64 35.5 64C15.9261 64 0 49.6449 0 31.999C0 14.3531 15.9261 -0.00201416 35.5 -0.00201416C55.0739 -0.00201416 71 14.3551 71 31.999ZM1.06868 31.999C1.06868 49.4358 16.5146 63.622 35.5 63.622C54.4854 63.622 69.9313 49.4358 69.9313 31.999C69.9313 14.5622 54.4854 0.376957 35.5 0.376957C16.5146 0.376957 1.06868 14.5622 1.06868 31.999Z" fill="#2E9537"/>
<path id="Vector_2" d="M71 31.9991C71 43.1188 55.0739 52.1658 35.5 52.1658C15.9261 52.1658 0 43.1198 0 31.9991C0 20.8784 15.9261 11.8324 35.5 11.8324C55.0739 11.8324 71 20.8799 71 31.9991ZM1.06868 31.9991C1.06868 42.9117 16.5146 51.7888 35.5 51.7888C54.4854 51.7888 69.9313 42.9117 69.9313 31.9991C69.9313 21.0865 54.4854 12.2104 35.5 12.2104C16.5146 12.2104 1.06868 21.0885 1.06868 31.9991Z" fill="#2E9537"/>
<path id="Vector_3" d="M0.53418 31.811V32.189L70.4655 32.189V31.811L0.53418 31.811Z" fill="#2E9537"/>
<path id="Vector_4" d="M71 31.9989C71 46.3001 55.0739 57.9348 35.5 57.9348C15.9261 57.9348 0 46.3011 0 31.9989C0 17.6967 15.9261 6.06295 35.5 6.06295C55.0739 6.06295 71 17.6987 71 31.9989ZM1.06868 31.9989C1.06868 46.0924 16.5146 57.5579 35.5 57.5579C54.4854 57.5579 69.9313 46.0924 69.9313 31.9989C69.9313 17.9053 54.4854 6.44091 35.5 6.44091C16.5146 6.44091 1.06868 17.9074 1.06868 31.9989Z" fill="#2E9537"/>
<path id="Vector_5" d="M71 31.999C71 39.2056 55.0739 45.0701 35.5 45.0701C15.9261 45.0701 0 39.2056 0 31.999C0 24.7925 15.9261 18.9285 35.5 18.9285C55.0739 18.9285 71 24.7925 71 31.999ZM1.06868 31.999C1.06868 38.9995 16.5146 44.6931 35.5 44.6931C54.4854 44.6931 69.9313 38.9995 69.9313 31.999C69.9313 24.9986 54.4854 19.3055 35.5 19.3055C16.5146 19.3055 1.06868 25.0006 1.06868 31.999Z" fill="#2E9537"/>
<path id="Vector_6" d="M34.9658 0.189003L34.9658 63.811H36.0345L36.0345 0.189003H34.9658Z" fill="#2E9537"/>
</g>
</g>
<defs>
<clipPath id="clip0_190_2958">
<rect width="64" height="71" fill="white" transform="matrix(0 -1 1 0 0 64)"/>
</clipPath>
</defs>
</svg>
