<svg width="32" height="32" viewBox="0 0 32 32" fill="none" xmlns="http://www.w3.org/2000/svg">
<path d="M15.9841 5.9727C8.42106 5.9727 2.28906 10.0497 2.28906 15.0787C2.28906 17.9557 4.30206 20.5187 7.43606 22.1867C6.99006 23.6667 6.10006 25.3037 4.38006 26.7527C4.38006 26.7527 8.39606 26.4867 11.2321 23.6097C11.3951 23.6497 11.5641 23.6797 11.7291 23.7157C11.5685 23.2514 11.4851 22.764 11.4821 22.2727C11.4821 18.8797 15.2581 16.2227 20.0821 16.2227C23.5451 16.2227 26.4601 17.5987 27.8321 19.6287C29.0001 18.2887 29.6791 16.7357 29.6791 15.0757C29.6791 10.0477 23.5471 5.9707 15.9841 5.9707V5.9727ZM27.6791 22.2747C27.6791 19.4847 24.2791 17.2217 20.0791 17.2217C15.8841 17.2217 12.4811 19.4857 12.4811 22.2757C12.4811 25.0657 15.8841 27.3287 20.0811 27.3287C21.0091 27.3287 21.8941 27.2127 22.7171 27.0087C24.2901 28.6067 26.5171 28.7537 26.5171 28.7537C25.5641 27.9497 25.0711 27.0407 24.8231 26.2197C26.5611 25.2947 27.6791 23.8717 27.6791 22.2747Z" fill="#003DF5"/>
</svg>
