<svg width="404" height="470" viewBox="0 0 404 470" fill="none" xmlns="http://www.w3.org/2000/svg">
<path opacity="0.2" d="M385.545 215.32C385.545 245.329 389.636 276.264 393.893 305.758C394.343 308.876 394.795 311.976 395.244 315.058C399.046 341.154 402.651 365.889 403.267 387.628C403.956 411.944 400.901 432.397 390.301 446.767C379.725 461.105 361.551 469.5 331.721 469.5C301.917 469.5 266.308 457.716 229.631 438.122C192.964 418.533 155.273 391.161 121.315 360.041C87.3561 328.921 57.1431 294.064 35.4234 259.513C13.6978 224.953 0.5 190.745 0.5 160.911C0.5 101.269 43.4551 61.1721 101.527 35.9604C159.59 10.7528 232.623 0.5 292.423 0.5C322.286 0.5 342.977 6.45426 357.245 17.1857C371.506 27.9112 379.423 43.4626 383.629 62.8124C387.838 82.1724 388.322 105.29 387.748 131.092C387.54 140.456 387.192 150.176 386.834 160.195C386.206 177.756 385.545 196.235 385.545 215.32Z" stroke="white"/>
</svg>
