<svg width="1307" height="987" viewBox="0 0 1307 987" fill="none" xmlns="http://www.w3.org/2000/svg">
<path d="M559.07 461.61C537.331 403.733 554.94 337.249 601.138 276.51C647.332 215.777 722.066 160.855 814.403 126.171C906.739 91.4869 999.15 83.6243 1073.9 98.9262C1148.67 114.23 1205.69 152.679 1227.43 210.556C1249.17 268.432 1231.56 334.916 1185.36 395.656C1139.17 456.389 1064.44 511.311 972.099 545.995C879.763 580.679 787.352 588.541 712.598 573.239C637.836 557.936 580.81 519.486 559.07 461.61Z" fill="#F4F8FF" stroke="#161616"/>
<path d="M70.7964 610.54C51.4663 559.079 70.4387 498.686 116.95 442.598C163.451 386.523 237.413 334.844 327.824 300.884C418.235 266.923 507.93 257.128 579.849 268.721C651.784 280.317 705.826 313.285 725.156 364.745C744.486 416.206 725.513 476.6 679.002 532.687C632.501 588.762 558.539 640.441 468.128 674.402C377.717 708.363 288.022 718.158 216.103 706.565C144.168 694.969 90.1264 662.001 70.7964 610.54Z" stroke="#161616"/>
<path d="M642.515 946.953C591.136 936.307 550.584 897.666 526.582 843.709C502.58 789.753 495.149 720.518 510.009 648.8C524.87 577.082 559.198 516.5 602.663 476.523C646.129 436.545 698.696 417.199 750.075 427.844C801.453 438.49 842.005 477.131 866.008 531.088C890.01 585.044 897.44 654.279 882.58 725.997C867.72 797.715 833.391 858.298 789.926 898.275C746.46 938.252 693.893 957.599 642.515 946.953Z" stroke="#161616"/>
<path d="M125.476 544V515.2H145.236V520.28H130.916V525.76H137.636C137.902 525.76 138.276 525.773 138.756 525.8C139.236 525.813 139.662 525.84 140.036 525.88C141.689 526.053 143.062 526.567 144.156 527.42C145.262 528.26 146.089 529.333 146.636 530.64C147.196 531.933 147.476 533.347 147.476 534.88C147.476 536.413 147.202 537.833 146.656 539.14C146.109 540.433 145.282 541.507 144.176 542.36C143.082 543.2 141.702 543.707 140.036 543.88C139.662 543.92 139.236 543.953 138.756 543.98C138.289 543.993 137.916 544 137.636 544H125.476ZM130.916 538.92H137.396C137.676 538.92 137.982 538.907 138.316 538.88C138.649 538.853 138.956 538.813 139.236 538.76C140.342 538.52 141.076 538.007 141.436 537.22C141.809 536.433 141.996 535.653 141.996 534.88C141.996 534.093 141.809 533.313 141.436 532.54C141.076 531.753 140.342 531.24 139.236 531C138.956 530.933 138.649 530.893 138.316 530.88C137.982 530.853 137.676 530.84 137.396 530.84H130.916V538.92ZM157.491 544.6C155.945 544.6 154.631 544.307 153.551 543.72C152.485 543.12 151.671 542.327 151.111 541.34C150.565 540.34 150.291 539.24 150.291 538.04C150.291 537.04 150.445 536.127 150.751 535.3C151.058 534.473 151.551 533.747 152.231 533.12C152.925 532.48 153.851 531.947 155.011 531.52C155.811 531.227 156.765 530.967 157.871 530.74C158.978 530.513 160.231 530.3 161.631 530.1C163.031 529.887 164.571 529.653 166.251 529.4L164.291 530.48C164.291 529.2 163.985 528.26 163.371 527.66C162.758 527.06 161.731 526.76 160.291 526.76C159.491 526.76 158.658 526.953 157.791 527.34C156.925 527.727 156.318 528.413 155.971 529.4L151.051 527.84C151.598 526.053 152.625 524.6 154.131 523.48C155.638 522.36 157.691 521.8 160.291 521.8C162.198 521.8 163.891 522.093 165.371 522.68C166.851 523.267 167.971 524.28 168.731 525.72C169.158 526.52 169.411 527.32 169.491 528.12C169.571 528.92 169.611 529.813 169.611 530.8V544H164.851V539.56L165.531 540.48C164.478 541.933 163.338 542.987 162.111 543.64C160.898 544.28 159.358 544.6 157.491 544.6ZM158.651 540.32C159.651 540.32 160.491 540.147 161.171 539.8C161.865 539.44 162.411 539.033 162.811 538.58C163.225 538.127 163.505 537.747 163.651 537.44C163.931 536.853 164.091 536.173 164.131 535.4C164.185 534.613 164.211 533.96 164.211 533.44L165.811 533.84C164.198 534.107 162.891 534.333 161.891 534.52C160.891 534.693 160.085 534.853 159.471 535C158.858 535.147 158.318 535.307 157.851 535.48C157.318 535.693 156.885 535.927 156.551 536.18C156.231 536.42 155.991 536.687 155.831 536.98C155.685 537.273 155.611 537.6 155.611 537.96C155.611 538.453 155.731 538.88 155.971 539.24C156.225 539.587 156.578 539.853 157.031 540.04C157.485 540.227 158.025 540.32 158.651 540.32ZM182.452 544.6C180.438 544.6 178.572 544.187 176.852 543.36C175.145 542.52 173.798 541.373 172.812 539.92L177.092 537.04C177.852 537.813 178.665 538.42 179.532 538.86C180.412 539.3 181.372 539.52 182.412 539.52C183.492 539.52 184.332 539.287 184.932 538.82C185.545 538.353 185.852 537.733 185.852 536.96C185.852 536.213 185.605 535.707 185.112 535.44C184.632 535.173 184.018 535.033 183.272 535.02C182.538 535.007 181.798 535 181.052 535H179.772V530.76H181.052C182.172 530.76 183.125 530.667 183.912 530.48C184.698 530.28 185.092 529.733 185.092 528.84C185.092 528.093 184.818 527.573 184.272 527.28C183.725 526.987 183.092 526.84 182.372 526.84C181.412 526.84 180.445 527.047 179.472 527.46C178.498 527.873 177.612 528.36 176.812 528.92L173.812 525.2C175.038 524.173 176.398 523.353 177.892 522.74C179.398 522.113 180.972 521.8 182.612 521.8C183.998 521.8 185.305 522.04 186.532 522.52C187.772 523 188.772 523.727 189.532 524.7C190.305 525.66 190.692 526.867 190.692 528.32C190.692 529.253 190.505 530.167 190.132 531.06C189.758 531.953 189.118 532.84 188.212 533.72L188.172 532C188.838 532.347 189.412 532.793 189.892 533.34C190.385 533.873 190.758 534.493 191.012 535.2C191.278 535.907 191.412 536.68 191.412 537.52C191.412 539.067 190.998 540.367 190.172 541.42C189.345 542.473 188.252 543.267 186.892 543.8C185.532 544.333 184.052 544.6 182.452 544.6ZM201.827 544.6C200.281 544.6 198.967 544.307 197.887 543.72C196.821 543.12 196.007 542.327 195.447 541.34C194.901 540.34 194.627 539.24 194.627 538.04C194.627 537.04 194.781 536.127 195.087 535.3C195.394 534.473 195.887 533.747 196.567 533.12C197.261 532.48 198.187 531.947 199.347 531.52C200.147 531.227 201.101 530.967 202.207 530.74C203.314 530.513 204.567 530.3 205.967 530.1C207.367 529.887 208.907 529.653 210.587 529.4L208.627 530.48C208.627 529.2 208.321 528.26 207.707 527.66C207.094 527.06 206.067 526.76 204.627 526.76C203.827 526.76 202.994 526.953 202.127 527.34C201.261 527.727 200.654 528.413 200.307 529.4L195.387 527.84C195.934 526.053 196.961 524.6 198.467 523.48C199.974 522.36 202.027 521.8 204.627 521.8C206.534 521.8 208.227 522.093 209.707 522.68C211.187 523.267 212.307 524.28 213.067 525.72C213.494 526.52 213.747 527.32 213.827 528.12C213.907 528.92 213.947 529.813 213.947 530.8V544H209.187V539.56L209.867 540.48C208.814 541.933 207.674 542.987 206.447 543.64C205.234 544.28 203.694 544.6 201.827 544.6ZM202.987 540.32C203.987 540.32 204.827 540.147 205.507 539.8C206.201 539.44 206.747 539.033 207.147 538.58C207.561 538.127 207.841 537.747 207.987 537.44C208.267 536.853 208.427 536.173 208.467 535.4C208.521 534.613 208.547 533.96 208.547 533.44L210.147 533.84C208.534 534.107 207.227 534.333 206.227 534.52C205.227 534.693 204.421 534.853 203.807 535C203.194 535.147 202.654 535.307 202.187 535.48C201.654 535.693 201.221 535.927 200.887 536.18C200.567 536.42 200.327 536.687 200.167 536.98C200.021 537.273 199.947 537.6 199.947 537.96C199.947 538.453 200.067 538.88 200.307 539.24C200.561 539.587 200.914 539.853 201.367 540.04C201.821 540.227 202.361 540.32 202.987 540.32ZM217.148 544V539.48C217.934 539.627 218.541 539.62 218.968 539.46C219.394 539.287 219.714 538.953 219.928 538.46C220.154 537.953 220.348 537.267 220.508 536.4C220.721 535.253 220.908 533.913 221.068 532.38C221.241 530.847 221.388 529.227 221.508 527.52C221.628 525.8 221.734 524.093 221.828 522.4H238.148V544H232.708V527.48H226.588C226.534 528.173 226.461 529 226.368 529.96C226.288 530.92 226.194 531.92 226.088 532.96C225.994 533.987 225.888 534.973 225.768 535.92C225.648 536.853 225.521 537.653 225.388 538.32C225.068 540.013 224.594 541.347 223.968 542.32C223.341 543.293 222.481 543.913 221.388 544.18C220.294 544.46 218.881 544.4 217.148 544ZM243.717 544V522.4H249.157V529.28H251.117C251.717 529.28 252.417 529.293 253.217 529.32C254.017 529.347 254.677 529.413 255.197 529.52C256.464 529.8 257.53 530.247 258.397 530.86C259.264 531.473 259.917 532.267 260.357 533.24C260.81 534.2 261.037 535.347 261.037 536.68C261.037 538.6 260.537 540.147 259.537 541.32C258.55 542.48 257.117 543.28 255.237 543.72C254.717 543.84 254.05 543.92 253.237 543.96C252.424 543.987 251.717 544 251.117 544H243.717ZM249.157 539.8H251.717C251.957 539.8 252.224 539.787 252.517 539.76C252.81 539.733 253.104 539.68 253.397 539.6C253.957 539.44 254.45 539.087 254.877 538.54C255.304 537.993 255.517 537.373 255.517 536.68C255.517 535.92 255.297 535.273 254.857 534.74C254.417 534.193 253.904 533.84 253.317 533.68C253.037 533.6 252.757 533.547 252.477 533.52C252.197 533.493 251.944 533.48 251.717 533.48H249.157V539.8ZM263.197 544V522.4H268.637V544H263.197ZM274.186 544L274.226 522.4H279.746V532.8L287.066 522.4H293.786L285.986 533.2L294.306 544H287.226L279.746 533.6V544H274.186ZM304.264 544L304.304 522.4H309.824V532.8L317.144 522.4H323.864L316.064 533.2L324.384 544H317.304L309.824 533.6V544H304.264ZM327.224 535.28V531.08H344.264V535.28H327.224ZM335.704 544.6C333.53 544.6 331.624 544.113 329.984 543.14C328.344 542.167 327.064 540.827 326.144 539.12C325.237 537.4 324.784 535.427 324.784 533.2C324.784 530.947 325.25 528.967 326.184 527.26C327.117 525.54 328.404 524.2 330.044 523.24C331.684 522.28 333.57 521.8 335.704 521.8C337.877 521.8 339.784 522.287 341.424 523.26C343.077 524.233 344.364 525.58 345.284 527.3C346.204 529.007 346.664 530.973 346.664 533.2C346.664 535.44 346.197 537.42 345.264 539.14C344.344 540.847 343.057 542.187 341.404 543.16C339.764 544.12 337.864 544.6 335.704 544.6ZM335.704 539.52C337.45 539.52 338.75 538.933 339.604 537.76C340.47 536.573 340.904 535.053 340.904 533.2C340.904 531.28 340.464 529.747 339.584 528.6C338.717 527.453 337.424 526.88 335.704 526.88C334.517 526.88 333.544 527.147 332.784 527.68C332.024 528.213 331.457 528.953 331.084 529.9C330.724 530.847 330.544 531.947 330.544 533.2C330.544 535.133 330.977 536.673 331.844 537.82C332.724 538.953 334.01 539.52 335.704 539.52ZM351.022 544V522.4H356.462V530.64H365.342V522.4H370.782V544H365.342V535.72H356.462V544H351.022ZM374.774 548.8V539.8C375.921 539.8 376.734 539.4 377.214 538.6C377.708 537.8 378.094 536.373 378.374 534.32C378.534 533.133 378.668 531.887 378.774 530.58C378.894 529.273 378.994 527.933 379.074 526.56C379.154 525.187 379.228 523.8 379.294 522.4H395.974V539.8H398.174V548.8H393.054V544H379.894V548.8H374.774ZM381.734 539.8H390.534V526.6H384.014C383.974 527.333 383.928 528.067 383.874 528.8C383.834 529.533 383.781 530.26 383.714 530.98C383.661 531.7 383.608 532.4 383.554 533.08C383.501 533.747 383.441 534.387 383.374 535C383.254 536.173 383.088 537.127 382.874 537.86C382.661 538.593 382.281 539.24 381.734 539.8ZM407.995 551.2V544L400.155 522.4H405.595L410.715 537.36L415.835 522.4H421.275L413.435 544V551.2H407.995ZM424.85 544V522.4H429.25L436.77 536.4L444.29 522.4H448.69V544H443.49V533.24L437.73 544H435.81L430.05 533.24V544H424.85ZM452.704 548.8V539.8C453.851 539.8 454.664 539.4 455.144 538.6C455.637 537.8 456.024 536.373 456.304 534.32C456.464 533.133 456.597 531.887 456.704 530.58C456.824 529.273 456.924 527.933 457.004 526.56C457.084 525.187 457.157 523.8 457.224 522.4H473.904V539.8H476.104V548.8H470.984V544H457.824V548.8H452.704ZM459.664 539.8H468.464V526.6H461.944C461.904 527.333 461.857 528.067 461.804 528.8C461.764 529.533 461.711 530.26 461.644 530.98C461.591 531.7 461.537 532.4 461.484 533.08C461.431 533.747 461.371 534.387 461.304 535C461.184 536.173 461.017 537.127 460.804 537.86C460.591 538.593 460.211 539.24 459.664 539.8ZM481.325 535.28V531.08H498.365V535.28H481.325ZM489.805 544.6C487.632 544.6 485.725 544.113 484.085 543.14C482.445 542.167 481.165 540.827 480.245 539.12C479.338 537.4 478.885 535.427 478.885 533.2C478.885 530.947 479.352 528.967 480.285 527.26C481.218 525.54 482.505 524.2 484.145 523.24C485.785 522.28 487.672 521.8 489.805 521.8C491.978 521.8 493.885 522.287 495.525 523.26C497.178 524.233 498.465 525.58 499.385 527.3C500.305 529.007 500.765 530.973 500.765 533.2C500.765 535.44 500.298 537.42 499.365 539.14C498.445 540.847 497.158 542.187 495.505 543.16C493.865 544.12 491.965 544.6 489.805 544.6ZM489.805 539.52C491.552 539.52 492.852 538.933 493.705 537.76C494.572 536.573 495.005 535.053 495.005 533.2C495.005 531.28 494.565 529.747 493.685 528.6C492.818 527.453 491.525 526.88 489.805 526.88C488.618 526.88 487.645 527.147 486.885 527.68C486.125 528.213 485.558 528.953 485.185 529.9C484.825 530.847 484.645 531.947 484.645 533.2C484.645 535.133 485.078 536.673 485.945 537.82C486.825 538.953 488.112 539.52 489.805 539.52ZM515.763 544.6C513.617 544.6 511.823 544.1 510.383 543.1C508.943 542.1 507.857 540.74 507.123 539.02C506.403 537.3 506.043 535.36 506.043 533.2C506.043 531.04 506.403 529.1 507.123 527.38C507.843 525.66 508.903 524.3 510.303 523.3C511.703 522.3 513.43 521.8 515.483 521.8C517.55 521.8 519.35 522.293 520.883 523.28C522.417 524.267 523.603 525.62 524.443 527.34C525.297 529.047 525.723 531 525.723 533.2C525.723 535.36 525.303 537.3 524.463 539.02C523.637 540.74 522.477 542.1 520.983 543.1C519.49 544.1 517.75 544.6 515.763 544.6ZM505.123 553.6V522.4H509.923V537.2H510.603V553.6H505.123ZM514.883 539.76C516.057 539.76 517.017 539.467 517.763 538.88C518.51 538.293 519.063 537.507 519.423 536.52C519.783 535.52 519.963 534.413 519.963 533.2C519.963 532 519.777 530.907 519.403 529.92C519.03 528.92 518.45 528.127 517.663 527.54C516.89 526.94 515.897 526.64 514.683 526.64C513.55 526.64 512.63 526.913 511.923 527.46C511.23 528.007 510.723 528.773 510.403 529.76C510.083 530.747 509.923 531.893 509.923 533.2C509.923 534.507 510.083 535.653 510.403 536.64C510.723 537.627 511.243 538.393 511.963 538.94C512.697 539.487 513.67 539.76 514.883 539.76Z" fill="#191A1B"/>
<path d="M882.619 326.991C879.739 326.991 877.252 326.364 875.159 325.111C873.079 323.857 871.472 322.104 870.339 319.851C869.219 317.597 868.659 314.977 868.659 311.991C868.659 309.004 869.219 306.384 870.339 304.131C871.472 301.877 873.079 300.124 875.159 298.871C877.252 297.617 879.739 296.991 882.619 296.991C885.499 296.991 887.979 297.617 890.059 298.871C892.152 300.124 893.759 301.877 894.879 304.131C896.012 306.384 896.579 309.004 896.579 311.991C896.579 314.977 896.012 317.597 894.879 319.851C893.759 322.104 892.152 323.857 890.059 325.111C887.979 326.364 885.499 326.991 882.619 326.991ZM882.619 321.871C884.446 321.897 885.966 321.504 887.179 320.691C888.392 319.877 889.299 318.724 889.899 317.231C890.512 315.737 890.819 313.991 890.819 311.991C890.819 309.991 890.512 308.257 889.899 306.791C889.299 305.324 888.392 304.184 887.179 303.371C885.966 302.557 884.446 302.137 882.619 302.111C880.792 302.084 879.272 302.477 878.059 303.291C876.846 304.104 875.932 305.257 875.319 306.751C874.719 308.244 874.419 309.991 874.419 311.991C874.419 313.991 874.719 315.724 875.319 317.191C875.932 318.657 876.846 319.797 878.059 320.611C879.272 321.424 880.792 321.844 882.619 321.871ZM911.171 326.991C909.025 326.991 907.231 326.491 905.791 325.491C904.351 324.491 903.265 323.131 902.531 321.411C901.811 319.691 901.451 317.751 901.451 315.591C901.451 313.431 901.811 311.491 902.531 309.771C903.251 308.051 904.311 306.691 905.711 305.691C907.111 304.691 908.838 304.191 910.891 304.191C912.958 304.191 914.758 304.684 916.291 305.671C917.825 306.657 919.011 308.011 919.851 309.731C920.705 311.437 921.131 313.391 921.131 315.591C921.131 317.751 920.711 319.691 919.871 321.411C919.045 323.131 917.885 324.491 916.391 325.491C914.898 326.491 913.158 326.991 911.171 326.991ZM900.531 335.991V304.791H905.331V319.591H906.011V335.991H900.531ZM910.291 322.151C911.465 322.151 912.425 321.857 913.171 321.271C913.918 320.684 914.471 319.897 914.831 318.911C915.191 317.911 915.371 316.804 915.371 315.591C915.371 314.391 915.185 313.297 914.811 312.311C914.438 311.311 913.858 310.517 913.071 309.931C912.298 309.331 911.305 309.031 910.091 309.031C908.958 309.031 908.038 309.304 907.331 309.851C906.638 310.397 906.131 311.164 905.811 312.151C905.491 313.137 905.331 314.284 905.331 315.591C905.331 316.897 905.491 318.044 905.811 319.031C906.131 320.017 906.651 320.784 907.371 321.331C908.105 321.877 909.078 322.151 910.291 322.151ZM930.812 326.391V309.591H923.732V304.791H943.332V309.591H936.252V326.391H930.812ZM956.463 326.991C954.29 326.991 952.383 326.504 950.743 325.531C949.103 324.557 947.823 323.217 946.903 321.511C945.997 319.791 945.543 317.817 945.543 315.591C945.543 313.337 946.01 311.357 946.943 309.651C947.877 307.931 949.163 306.591 950.803 305.631C952.443 304.671 954.33 304.191 956.463 304.191C958.637 304.191 960.543 304.677 962.183 305.651C963.837 306.624 965.123 307.971 966.043 309.691C966.963 311.397 967.423 313.364 967.423 315.591C967.423 317.831 966.957 319.811 966.023 321.531C965.103 323.237 963.817 324.577 962.163 325.551C960.523 326.511 958.623 326.991 956.463 326.991ZM956.463 321.911C958.21 321.911 959.51 321.324 960.363 320.151C961.23 318.964 961.663 317.444 961.663 315.591C961.663 313.671 961.223 312.137 960.343 310.991C959.477 309.844 958.183 309.271 956.463 309.271C955.277 309.271 954.303 309.537 953.543 310.071C952.783 310.604 952.217 311.344 951.843 312.291C951.483 313.237 951.303 314.337 951.303 315.591C951.303 317.524 951.737 319.064 952.603 320.211C953.483 321.344 954.77 321.911 956.463 321.911ZM984.181 326.391V319.391C983.421 319.764 982.581 320.051 981.661 320.251C980.755 320.451 979.808 320.551 978.821 320.551C976.581 320.551 974.801 320.044 973.481 319.031C972.175 318.017 971.328 316.551 970.941 314.631C970.835 314.084 970.755 313.517 970.701 312.931C970.661 312.344 970.635 311.811 970.621 311.331C970.621 310.837 970.621 310.457 970.621 310.191V304.791H976.141V310.191C976.141 310.444 976.155 310.857 976.181 311.431C976.208 311.991 976.288 312.551 976.421 313.111C976.661 314.044 977.068 314.717 977.641 315.131C978.228 315.544 979.061 315.751 980.141 315.751C981.061 315.751 981.848 315.631 982.501 315.391C983.168 315.137 983.728 314.831 984.181 314.471V304.791H989.661V326.391H984.181ZM1004.98 326.991C1002.81 326.991 1000.9 326.504 999.259 325.531C997.619 324.557 996.339 323.217 995.419 321.511C994.512 319.791 994.059 317.817 994.059 315.591C994.059 313.337 994.526 311.357 995.459 309.651C996.392 307.931 997.679 306.591 999.319 305.631C1000.96 304.671 1002.85 304.191 1004.98 304.191C1007.15 304.191 1009.06 304.677 1010.7 305.651C1012.35 306.624 1013.64 307.971 1014.56 309.691C1015.48 311.397 1015.94 313.364 1015.94 315.591C1015.94 317.831 1015.47 319.811 1014.54 321.531C1013.62 323.237 1012.33 324.577 1010.68 325.551C1009.04 326.511 1007.14 326.991 1004.98 326.991ZM1004.98 321.911C1006.73 321.911 1008.03 321.324 1008.88 320.151C1009.75 318.964 1010.18 317.444 1010.18 315.591C1010.18 313.671 1009.74 312.137 1008.86 310.991C1007.99 309.844 1006.7 309.271 1004.98 309.271C1003.79 309.271 1002.82 309.537 1002.06 310.071C1001.3 310.604 1000.73 311.344 1000.36 312.291C999.999 313.237 999.819 314.337 999.819 315.591C999.819 317.524 1000.25 319.064 1001.12 320.211C1002 321.344 1003.29 321.911 1004.98 321.911ZM832.348 381.391L832.388 359.791H837.908V370.191L845.228 359.791H851.948L844.148 370.591L852.468 381.391H845.388L837.908 370.991V381.391H832.348ZM855.308 372.671V368.471H872.348V372.671H855.308ZM863.788 381.991C861.614 381.991 859.708 381.504 858.068 380.531C856.428 379.557 855.148 378.217 854.228 376.511C853.321 374.791 852.868 372.817 852.868 370.591C852.868 368.337 853.334 366.357 854.268 364.651C855.201 362.931 856.488 361.591 858.128 360.631C859.768 359.671 861.654 359.191 863.788 359.191C865.961 359.191 867.868 359.677 869.508 360.651C871.161 361.624 872.448 362.971 873.368 364.691C874.288 366.397 874.748 368.364 874.748 370.591C874.748 372.831 874.281 374.811 873.348 376.531C872.428 378.237 871.141 379.577 869.488 380.551C867.848 381.511 865.948 381.991 863.788 381.991ZM863.788 376.911C865.534 376.911 866.834 376.324 867.688 375.151C868.554 373.964 868.988 372.444 868.988 370.591C868.988 368.671 868.548 367.137 867.668 365.991C866.801 364.844 865.508 364.271 863.788 364.271C862.601 364.271 861.628 364.537 860.868 365.071C860.108 365.604 859.541 366.344 859.168 367.291C858.808 368.237 858.628 369.337 858.628 370.591C858.628 372.524 859.061 374.064 859.928 375.211C860.808 376.344 862.094 376.911 863.788 376.911ZM879.106 381.391V359.791H884.546V368.031H893.426V359.791H898.866V381.391H893.426V373.111H884.546V381.391H879.106ZM902.858 386.191V377.191C904.005 377.191 904.818 376.791 905.298 375.991C905.792 375.191 906.178 373.764 906.458 371.711C906.618 370.524 906.752 369.277 906.858 367.971C906.978 366.664 907.078 365.324 907.158 363.951C907.238 362.577 907.312 361.191 907.378 359.791H924.058V377.191H926.258V386.191H921.138V381.391H907.978V386.191H902.858ZM909.818 377.191H918.618V363.991H912.098C912.058 364.724 912.012 365.457 911.958 366.191C911.918 366.924 911.865 367.651 911.798 368.371C911.745 369.091 911.692 369.791 911.638 370.471C911.585 371.137 911.525 371.777 911.458 372.391C911.338 373.564 911.172 374.517 910.958 375.251C910.745 375.984 910.365 376.631 909.818 377.191ZM936.079 388.591V381.391L928.239 359.791H933.679L938.799 374.751L943.919 359.791H949.359L941.519 381.391V388.591H936.079ZM952.934 381.391V359.791H957.334L964.854 373.791L972.374 359.791H976.774V381.391H971.574V370.631L965.814 381.391H963.894L958.134 370.631V381.391H952.934ZM980.788 386.191V377.191C981.935 377.191 982.748 376.791 983.228 375.991C983.721 375.191 984.108 373.764 984.388 371.711C984.548 370.524 984.681 369.277 984.788 367.971C984.908 366.664 985.008 365.324 985.088 363.951C985.168 362.577 985.241 361.191 985.308 359.791H1001.99V377.191H1004.19V386.191H999.068V381.391H985.908V386.191H980.788ZM987.748 377.191H996.548V363.991H990.028C989.988 364.724 989.941 365.457 989.888 366.191C989.848 366.924 989.795 367.651 989.728 368.371C989.675 369.091 989.621 369.791 989.568 370.471C989.515 371.137 989.455 371.777 989.388 372.391C989.268 373.564 989.101 374.517 988.888 375.251C988.675 375.984 988.295 376.631 987.748 377.191ZM1009.41 372.671V368.471H1026.45V372.671H1009.41ZM1017.89 381.991C1015.72 381.991 1013.81 381.504 1012.17 380.531C1010.53 379.557 1009.25 378.217 1008.33 376.511C1007.42 374.791 1006.97 372.817 1006.97 370.591C1006.97 368.337 1007.44 366.357 1008.37 364.651C1009.3 362.931 1010.59 361.591 1012.23 360.631C1013.87 359.671 1015.76 359.191 1017.89 359.191C1020.06 359.191 1021.97 359.677 1023.61 360.651C1025.26 361.624 1026.55 362.971 1027.47 364.691C1028.39 366.397 1028.85 368.364 1028.85 370.591C1028.85 372.831 1028.38 374.811 1027.45 376.531C1026.53 378.237 1025.24 379.577 1023.59 380.551C1021.95 381.511 1020.05 381.991 1017.89 381.991ZM1017.89 376.911C1019.64 376.911 1020.94 376.324 1021.79 375.151C1022.66 373.964 1023.09 372.444 1023.09 370.591C1023.09 368.671 1022.65 367.137 1021.77 365.991C1020.9 364.844 1019.61 364.271 1017.89 364.271C1016.7 364.271 1015.73 364.537 1014.97 365.071C1014.21 365.604 1013.64 366.344 1013.27 367.291C1012.91 368.237 1012.73 369.337 1012.73 370.591C1012.73 372.524 1013.16 374.064 1014.03 375.211C1014.91 376.344 1016.2 376.911 1017.89 376.911ZM1043.85 381.991C1041.7 381.991 1039.91 381.491 1038.47 380.491C1037.03 379.491 1035.94 378.131 1035.21 376.411C1034.49 374.691 1034.13 372.751 1034.13 370.591C1034.13 368.431 1034.49 366.491 1035.21 364.771C1035.93 363.051 1036.99 361.691 1038.39 360.691C1039.79 359.691 1041.51 359.191 1043.57 359.191C1045.63 359.191 1047.43 359.684 1048.97 360.671C1050.5 361.657 1051.69 363.011 1052.53 364.731C1053.38 366.437 1053.81 368.391 1053.81 370.591C1053.81 372.751 1053.39 374.691 1052.55 376.411C1051.72 378.131 1050.56 379.491 1049.07 380.491C1047.57 381.491 1045.83 381.991 1043.85 381.991ZM1033.21 390.991V359.791H1038.01V374.591H1038.69V390.991H1033.21ZM1042.97 377.151C1044.14 377.151 1045.1 376.857 1045.85 376.271C1046.59 375.684 1047.15 374.897 1047.51 373.911C1047.87 372.911 1048.05 371.804 1048.05 370.591C1048.05 369.391 1047.86 368.297 1047.49 367.311C1047.11 366.311 1046.53 365.517 1045.75 364.931C1044.97 364.331 1043.98 364.031 1042.77 364.031C1041.63 364.031 1040.71 364.304 1040.01 364.851C1039.31 365.397 1038.81 366.164 1038.49 367.151C1038.17 368.137 1038.01 369.284 1038.01 370.591C1038.01 371.897 1038.17 373.044 1038.49 374.031C1038.81 375.017 1039.33 375.784 1040.05 376.331C1040.78 376.877 1041.75 377.151 1042.97 377.151Z" fill="#191A1B"/>
<path d="M536.669 731.711V726.271H555.869V731.711H536.669ZM546.029 743.991C543.149 743.991 540.662 743.364 538.569 742.111C536.489 740.857 534.882 739.104 533.749 736.851C532.629 734.597 532.069 731.977 532.069 728.991C532.069 726.004 532.629 723.384 533.749 721.131C534.882 718.877 536.489 717.124 538.569 715.871C540.662 714.617 543.149 713.991 546.029 713.991C548.909 713.991 551.389 714.617 553.469 715.871C555.562 717.124 557.169 718.877 558.289 721.131C559.422 723.384 559.989 726.004 559.989 728.991C559.989 731.977 559.422 734.597 558.289 736.851C557.169 739.104 555.562 740.857 553.469 742.111C551.389 743.364 548.909 743.991 546.029 743.991ZM546.029 738.871C547.856 738.897 549.376 738.504 550.589 737.691C551.802 736.877 552.709 735.724 553.309 734.231C553.922 732.737 554.229 730.991 554.229 728.991C554.229 726.991 553.922 725.257 553.309 723.791C552.709 722.324 551.802 721.184 550.589 720.371C549.376 719.557 547.856 719.137 546.029 719.111C544.202 719.084 542.682 719.477 541.469 720.291C540.256 721.104 539.342 722.257 538.729 723.751C538.129 725.244 537.829 726.991 537.829 728.991C537.829 730.991 538.129 732.724 538.729 734.191C539.342 735.657 540.256 736.797 541.469 737.611C542.682 738.424 544.202 738.844 546.029 738.871ZM575.402 743.991C573.255 743.991 571.462 743.491 570.022 742.491C568.582 741.491 567.495 740.131 566.762 738.411C566.042 736.691 565.682 734.751 565.682 732.591C565.682 730.431 566.042 728.491 566.762 726.771C567.482 725.051 568.542 723.691 569.942 722.691C571.342 721.691 573.069 721.191 575.122 721.191C577.189 721.191 578.989 721.684 580.522 722.671C582.055 723.657 583.242 725.011 584.082 726.731C584.935 728.437 585.362 730.391 585.362 732.591C585.362 734.751 584.942 736.691 584.102 738.411C583.275 740.131 582.115 741.491 580.622 742.491C579.129 743.491 577.389 743.991 575.402 743.991ZM564.762 752.991V721.791H569.562V736.591H570.242V752.991H564.762ZM574.522 739.151C575.695 739.151 576.655 738.857 577.402 738.271C578.149 737.684 578.702 736.897 579.062 735.911C579.422 734.911 579.602 733.804 579.602 732.591C579.602 731.391 579.415 730.297 579.042 729.311C578.669 728.311 578.089 727.517 577.302 726.931C576.529 726.331 575.535 726.031 574.322 726.031C573.189 726.031 572.269 726.304 571.562 726.851C570.869 727.397 570.362 728.164 570.042 729.151C569.722 730.137 569.562 731.284 569.562 732.591C569.562 733.897 569.722 735.044 570.042 736.031C570.362 737.017 570.882 737.784 571.602 738.331C572.335 738.877 573.309 739.151 574.522 739.151ZM589.723 743.391L589.763 721.791H595.283V732.191L602.603 721.791H609.323L601.523 732.591L609.843 743.391H602.763L595.283 732.991V743.391H589.723ZM617.673 750.591V743.391L609.833 721.791H615.273L620.393 736.751L625.513 721.791H630.953L623.113 743.391V750.591H617.673ZM634.528 743.391V721.791H639.968V730.031H648.848V721.791H654.288V743.391H648.848V735.111H639.968V743.391H634.528ZM658.28 748.191V739.191C659.427 739.191 660.24 738.791 660.72 737.991C661.213 737.191 661.6 735.764 661.88 733.711C662.04 732.524 662.173 731.277 662.28 729.971C662.4 728.664 662.5 727.324 662.58 725.951C662.66 724.577 662.733 723.191 662.8 721.791H679.48V739.191H681.68V748.191H676.56V743.391H663.4V748.191H658.28ZM665.24 739.191H674.04V725.991H667.52C667.48 726.724 667.433 727.457 667.38 728.191C667.34 728.924 667.287 729.651 667.22 730.371C667.167 731.091 667.113 731.791 667.06 732.471C667.007 733.137 666.947 733.777 666.88 734.391C666.76 735.564 666.593 736.517 666.38 737.251C666.167 737.984 665.787 738.631 665.24 739.191ZM686.901 734.671V730.471H703.941V734.671H686.901ZM695.381 743.991C693.208 743.991 691.301 743.504 689.661 742.531C688.021 741.557 686.741 740.217 685.821 738.511C684.915 736.791 684.461 734.817 684.461 732.591C684.461 730.337 684.928 728.357 685.861 726.651C686.795 724.931 688.081 723.591 689.721 722.631C691.361 721.671 693.248 721.191 695.381 721.191C697.555 721.191 699.461 721.677 701.101 722.651C702.755 723.624 704.041 724.971 704.961 726.691C705.881 728.397 706.341 730.364 706.341 732.591C706.341 734.831 705.875 736.811 704.941 738.531C704.021 740.237 702.735 741.577 701.081 742.551C699.441 743.511 697.541 743.991 695.381 743.991ZM695.381 738.911C697.128 738.911 698.428 738.324 699.281 737.151C700.148 735.964 700.581 734.444 700.581 732.591C700.581 730.671 700.141 729.137 699.261 727.991C698.395 726.844 697.101 726.271 695.381 726.271C694.195 726.271 693.221 726.537 692.461 727.071C691.701 727.604 691.135 728.344 690.761 729.291C690.401 730.237 690.221 731.337 690.221 732.591C690.221 734.524 690.655 736.064 691.521 737.211C692.401 738.344 693.688 738.911 695.381 738.911ZM715.629 743.391V726.591H708.549V721.791H728.149V726.591H721.069V743.391H715.629ZM737.79 750.591V743.391L729.95 721.791H735.39L740.51 736.751L745.63 721.791H751.07L743.23 743.391V750.591H737.79ZM751.904 743.391V738.871C752.69 739.017 753.297 739.011 753.724 738.851C754.15 738.677 754.47 738.344 754.684 737.851C754.91 737.344 755.104 736.657 755.264 735.791C755.477 734.644 755.664 733.304 755.824 731.771C755.997 730.237 756.144 728.617 756.264 726.911C756.384 725.191 756.49 723.484 756.584 721.791H772.904V743.391H767.464V726.871H761.344C761.29 727.564 761.217 728.391 761.124 729.351C761.044 730.311 760.95 731.311 760.844 732.351C760.75 733.377 760.644 734.364 760.524 735.311C760.404 736.244 760.277 737.044 760.144 737.711C759.824 739.404 759.35 740.737 758.724 741.711C758.097 742.684 757.237 743.304 756.144 743.571C755.05 743.851 753.637 743.791 751.904 743.391ZM778.513 743.391V721.791H794.113V726.871H783.953V743.391H778.513ZM798.776 734.671V730.471H815.816V734.671H798.776ZM807.256 743.991C805.083 743.991 803.176 743.504 801.536 742.531C799.896 741.557 798.616 740.217 797.696 738.511C796.79 736.791 796.336 734.817 796.336 732.591C796.336 730.337 796.803 728.357 797.736 726.651C798.67 724.931 799.956 723.591 801.596 722.631C803.236 721.671 805.123 721.191 807.256 721.191C809.43 721.191 811.336 721.677 812.976 722.651C814.63 723.624 815.916 724.971 816.836 726.691C817.756 728.397 818.216 730.364 818.216 732.591C818.216 734.831 817.75 736.811 816.816 738.531C815.896 740.237 814.61 741.577 812.956 742.551C811.316 743.511 809.416 743.991 807.256 743.991ZM807.256 738.911C809.003 738.911 810.303 738.324 811.156 737.151C812.023 735.964 812.456 734.444 812.456 732.591C812.456 730.671 812.016 729.137 811.136 727.991C810.27 726.844 808.976 726.271 807.256 726.271C806.07 726.271 805.096 726.537 804.336 727.071C803.576 727.604 803.01 728.344 802.636 729.291C802.276 730.237 802.096 731.337 802.096 732.591C802.096 734.524 802.53 736.064 803.396 737.211C804.276 738.344 805.563 738.911 807.256 738.911ZM822.574 743.391V721.791H828.014V730.031H836.894V721.791H842.334V743.391H836.894V735.111H828.014V743.391H822.574ZM577.848 798.391L577.888 776.791H583.408V787.191L590.728 776.791H597.448L589.648 787.591L597.968 798.391H590.888L583.408 787.991V798.391H577.848ZM600.808 789.671V785.471H617.848V789.671H600.808ZM609.288 798.991C607.114 798.991 605.208 798.504 603.568 797.531C601.928 796.557 600.648 795.217 599.728 793.511C598.821 791.791 598.368 789.817 598.368 787.591C598.368 785.337 598.834 783.357 599.768 781.651C600.701 779.931 601.988 778.591 603.628 777.631C605.268 776.671 607.154 776.191 609.288 776.191C611.461 776.191 613.368 776.677 615.008 777.651C616.661 778.624 617.948 779.971 618.868 781.691C619.788 783.397 620.248 785.364 620.248 787.591C620.248 789.831 619.781 791.811 618.848 793.531C617.928 795.237 616.641 796.577 614.988 797.551C613.348 798.511 611.448 798.991 609.288 798.991ZM609.288 793.911C611.034 793.911 612.334 793.324 613.188 792.151C614.054 790.964 614.488 789.444 614.488 787.591C614.488 785.671 614.048 784.137 613.168 782.991C612.301 781.844 611.008 781.271 609.288 781.271C608.101 781.271 607.128 781.537 606.368 782.071C605.608 782.604 605.041 783.344 604.668 784.291C604.308 785.237 604.128 786.337 604.128 787.591C604.128 789.524 604.561 791.064 605.428 792.211C606.308 793.344 607.594 793.911 609.288 793.911ZM624.606 798.391V776.791H630.046V785.031H638.926V776.791H644.366V798.391H638.926V790.111H630.046V798.391H624.606ZM648.358 803.191V794.191C649.505 794.191 650.318 793.791 650.798 792.991C651.292 792.191 651.678 790.764 651.958 788.711C652.118 787.524 652.252 786.277 652.358 784.971C652.478 783.664 652.578 782.324 652.658 780.951C652.738 779.577 652.812 778.191 652.878 776.791H669.558V794.191H671.758V803.191H666.638V798.391H653.478V803.191H648.358ZM655.318 794.191H664.118V780.991H657.598C657.558 781.724 657.512 782.457 657.458 783.191C657.418 783.924 657.365 784.651 657.298 785.371C657.245 786.091 657.192 786.791 657.138 787.471C657.085 788.137 657.025 788.777 656.958 789.391C656.838 790.564 656.672 791.517 656.458 792.251C656.245 792.984 655.865 793.631 655.318 794.191ZM681.579 805.591V798.391L673.739 776.791H679.179L684.299 791.751L689.419 776.791H694.859L687.019 798.391V805.591H681.579ZM698.434 798.391V776.791H702.834L710.354 790.791L717.874 776.791H722.274V798.391H717.074V787.631L711.314 798.391H709.394L703.634 787.631V798.391H698.434ZM726.288 803.191V794.191C727.435 794.191 728.248 793.791 728.728 792.991C729.221 792.191 729.608 790.764 729.888 788.711C730.048 787.524 730.181 786.277 730.288 784.971C730.408 783.664 730.508 782.324 730.588 780.951C730.668 779.577 730.741 778.191 730.808 776.791H747.488V794.191H749.688V803.191H744.568V798.391H731.408V803.191H726.288ZM733.248 794.191H742.048V780.991H735.528C735.488 781.724 735.441 782.457 735.388 783.191C735.348 783.924 735.295 784.651 735.228 785.371C735.175 786.091 735.121 786.791 735.068 787.471C735.015 788.137 734.955 788.777 734.888 789.391C734.768 790.564 734.601 791.517 734.388 792.251C734.175 792.984 733.795 793.631 733.248 794.191ZM754.909 789.671V785.471H771.949V789.671H754.909ZM763.389 798.991C761.216 798.991 759.309 798.504 757.669 797.531C756.029 796.557 754.749 795.217 753.829 793.511C752.922 791.791 752.469 789.817 752.469 787.591C752.469 785.337 752.936 783.357 753.869 781.651C754.802 779.931 756.089 778.591 757.729 777.631C759.369 776.671 761.256 776.191 763.389 776.191C765.562 776.191 767.469 776.677 769.109 777.651C770.762 778.624 772.049 779.971 772.969 781.691C773.889 783.397 774.349 785.364 774.349 787.591C774.349 789.831 773.882 791.811 772.949 793.531C772.029 795.237 770.742 796.577 769.089 797.551C767.449 798.511 765.549 798.991 763.389 798.991ZM763.389 793.911C765.136 793.911 766.436 793.324 767.289 792.151C768.156 790.964 768.589 789.444 768.589 787.591C768.589 785.671 768.149 784.137 767.269 782.991C766.402 781.844 765.109 781.271 763.389 781.271C762.202 781.271 761.229 781.537 760.469 782.071C759.709 782.604 759.142 783.344 758.769 784.291C758.409 785.237 758.229 786.337 758.229 787.591C758.229 789.524 758.662 791.064 759.529 792.211C760.409 793.344 761.696 793.911 763.389 793.911ZM789.347 798.991C787.201 798.991 785.407 798.491 783.967 797.491C782.527 796.491 781.441 795.131 780.707 793.411C779.987 791.691 779.627 789.751 779.627 787.591C779.627 785.431 779.987 783.491 780.707 781.771C781.427 780.051 782.487 778.691 783.887 777.691C785.287 776.691 787.014 776.191 789.067 776.191C791.134 776.191 792.934 776.684 794.467 777.671C796.001 778.657 797.187 780.011 798.027 781.731C798.881 783.437 799.307 785.391 799.307 787.591C799.307 789.751 798.887 791.691 798.047 793.411C797.221 795.131 796.061 796.491 794.567 797.491C793.074 798.491 791.334 798.991 789.347 798.991ZM778.707 807.991V776.791H783.507V791.591H784.187V807.991H778.707ZM788.467 794.151C789.641 794.151 790.601 793.857 791.347 793.271C792.094 792.684 792.647 791.897 793.007 790.911C793.367 789.911 793.547 788.804 793.547 787.591C793.547 786.391 793.361 785.297 792.987 784.311C792.614 783.311 792.034 782.517 791.247 781.931C790.474 781.331 789.481 781.031 788.267 781.031C787.134 781.031 786.214 781.304 785.507 781.851C784.814 782.397 784.307 783.164 783.987 784.151C783.667 785.137 783.507 786.284 783.507 787.591C783.507 788.897 783.667 790.044 783.987 791.031C784.307 792.017 784.827 792.784 785.547 793.331C786.281 793.877 787.254 794.151 788.467 794.151Z" fill="#161616"/>
<rect x="430.58" y="329.391" width="56" height="56" rx="28" fill="#161616"/>
<path d="M453.218 367.781C452.005 367.781 450.921 367.508 449.968 366.962C449.023 366.407 448.274 365.657 447.719 364.713C447.173 363.759 446.9 362.676 446.9 361.463V354.599C446.9 353.385 447.173 352.302 447.719 351.349C448.274 350.395 449.023 349.646 449.968 349.1C450.921 348.554 452.005 348.281 453.218 348.281C454.431 348.281 455.515 348.554 456.468 349.1C457.421 349.646 458.171 350.395 458.717 351.349C459.263 352.302 459.536 353.385 459.536 354.599V361.463C459.536 362.676 459.263 363.759 458.717 364.713C458.171 365.657 457.421 366.407 456.468 366.962C455.515 367.508 454.431 367.781 453.218 367.781ZM453.218 365.558C453.955 365.558 454.622 365.38 455.22 365.025C455.818 364.669 456.295 364.193 456.65 363.595C457.005 362.988 457.183 362.321 457.183 361.593V354.456C457.183 353.719 457.005 353.052 456.65 352.454C456.295 351.856 455.818 351.379 455.22 351.024C454.622 350.668 453.955 350.491 453.218 350.491C452.49 350.491 451.823 350.668 451.216 351.024C450.618 351.379 450.141 351.856 449.786 352.454C449.431 353.052 449.253 353.719 449.253 354.456V361.593C449.253 362.321 449.431 362.988 449.786 363.595C450.141 364.193 450.618 364.669 451.216 365.025C451.823 365.38 452.49 365.558 453.218 365.558ZM466.438 367.391V351.232L462.915 353.364V350.777L466.438 348.671H468.791V367.391H466.438Z" fill="white"/>
<rect x="930.998" y="177.391" width="56" height="56" rx="28" fill="#161616"/>
<path d="M951.136 215.781C949.923 215.781 948.839 215.508 947.886 214.962C946.941 214.407 946.192 213.657 945.637 212.713C945.091 211.759 944.818 210.676 944.818 209.463V202.599C944.818 201.385 945.091 200.302 945.637 199.349C946.192 198.395 946.941 197.646 947.886 197.1C948.839 196.554 949.923 196.281 951.136 196.281C952.349 196.281 953.433 196.554 954.386 197.1C955.339 197.646 956.089 198.395 956.635 199.349C957.181 200.302 957.454 201.385 957.454 202.599V209.463C957.454 210.676 957.181 211.759 956.635 212.713C956.089 213.657 955.339 214.407 954.386 214.962C953.433 215.508 952.349 215.781 951.136 215.781ZM951.136 213.558C951.873 213.558 952.54 213.38 953.138 213.025C953.736 212.669 954.213 212.193 954.568 211.595C954.923 210.988 955.101 210.321 955.101 209.593V202.456C955.101 201.719 954.923 201.052 954.568 200.454C954.213 199.856 953.736 199.379 953.138 199.024C952.54 198.668 951.873 198.491 951.136 198.491C950.408 198.491 949.741 198.668 949.134 199.024C948.536 199.379 948.059 199.856 947.704 200.454C947.349 201.052 947.171 201.719 947.171 202.456V209.593C947.171 210.321 947.349 210.988 947.704 211.595C948.059 212.193 948.536 212.669 949.134 213.025C949.741 213.38 950.408 213.558 951.136 213.558ZM960.573 215.378L960.586 213.298L968.893 205.823C969.587 205.199 970.05 204.609 970.284 204.055C970.527 203.491 970.648 202.915 970.648 202.326C970.648 201.606 970.484 200.956 970.154 200.376C969.825 199.795 969.374 199.336 968.802 198.998C968.239 198.66 967.598 198.491 966.878 198.491C966.133 198.491 965.47 198.668 964.889 199.024C964.309 199.37 963.849 199.834 963.511 200.415C963.182 200.995 963.022 201.628 963.03 202.313H960.664C960.664 201.134 960.937 200.094 961.483 199.193C962.029 198.283 962.77 197.572 963.706 197.061C964.651 196.541 965.721 196.281 966.917 196.281C968.079 196.281 969.119 196.549 970.037 197.087C970.956 197.615 971.68 198.339 972.208 199.258C972.746 200.168 973.014 201.199 973.014 202.352C973.014 203.166 972.91 203.873 972.702 204.471C972.503 205.069 972.191 205.623 971.766 206.135C971.342 206.637 970.809 207.175 970.167 207.747L963.264 213.948L962.965 213.168H973.014V215.378H960.573Z" fill="white"/>
<rect x="659.998" y="601.391" width="56" height="56" rx="28" fill="#161616"/>
<path d="M680.636 639.781C679.423 639.781 678.339 639.508 677.386 638.962C676.441 638.407 675.692 637.657 675.137 636.713C674.591 635.759 674.318 634.676 674.318 633.463V626.599C674.318 625.385 674.591 624.302 675.137 623.349C675.692 622.395 676.441 621.646 677.386 621.1C678.339 620.554 679.423 620.281 680.636 620.281C681.849 620.281 682.933 620.554 683.886 621.1C684.839 621.646 685.589 622.395 686.135 623.349C686.681 624.302 686.954 625.385 686.954 626.599V633.463C686.954 634.676 686.681 635.759 686.135 636.713C685.589 637.657 684.839 638.407 683.886 638.962C682.933 639.508 681.849 639.781 680.636 639.781ZM680.636 637.558C681.373 637.558 682.04 637.38 682.638 637.025C683.236 636.669 683.713 636.193 684.068 635.595C684.423 634.988 684.601 634.321 684.601 633.593V626.456C684.601 625.719 684.423 625.052 684.068 624.454C683.713 623.856 683.236 623.379 682.638 623.024C682.04 622.668 681.373 622.491 680.636 622.491C679.908 622.491 679.241 622.668 678.634 623.024C678.036 623.379 677.559 623.856 677.204 624.454C676.849 625.052 676.671 625.719 676.671 626.456V633.593C676.671 634.321 676.849 634.988 677.204 635.595C677.559 636.193 678.036 636.669 678.634 637.025C679.241 637.38 679.908 637.558 680.636 637.558ZM695.728 639.755C694.801 639.755 693.939 639.586 693.141 639.248C692.344 638.901 691.655 638.416 691.074 637.792C690.502 637.159 690.082 636.409 689.813 635.543L692.036 634.906C692.322 635.772 692.799 636.431 693.466 636.882C694.134 637.332 694.883 637.553 695.715 637.545C696.478 637.527 697.137 637.354 697.691 637.025C698.255 636.687 698.688 636.227 698.991 635.647C699.303 635.066 699.459 634.394 699.459 633.632C699.459 632.47 699.113 631.53 698.419 630.811C697.726 630.083 696.816 629.719 695.689 629.719C695.377 629.719 695.048 629.762 694.701 629.849C694.363 629.935 694.047 630.057 693.752 630.213L692.634 628.38L699.576 622.101L699.875 622.881H690.554V620.671H701.591V622.894L695.676 628.562L695.65 627.743C696.89 627.656 697.973 627.86 698.9 628.354C699.828 628.848 700.547 629.554 701.058 630.473C701.578 631.391 701.838 632.444 701.838 633.632C701.838 634.828 701.57 635.885 701.032 636.804C700.495 637.722 699.767 638.446 698.848 638.975C697.93 639.495 696.89 639.755 695.728 639.755Z" fill="white"/>
</svg>
