<svg width="1307" height="987" viewBox="0 0 1307 987" fill="none" xmlns="http://www.w3.org/2000/svg">
<path d="M559.072 462.22C537.332 404.344 554.942 337.859 601.14 277.12C647.334 216.387 722.068 161.465 814.404 126.781C906.741 92.0972 999.152 84.2346 1073.91 99.5365C1148.67 114.84 1205.69 153.29 1227.43 211.166C1249.17 269.043 1231.56 335.527 1185.37 396.266C1139.17 456.999 1064.44 511.921 972.101 546.605C879.765 581.289 787.354 589.151 712.6 573.85C637.838 558.546 580.812 520.097 559.072 462.22Z" fill="#F4F8FF" stroke="#161616"/>
<path d="M70.7983 611.15C51.4682 559.69 70.4407 499.296 116.952 443.208C163.453 387.134 237.415 335.455 327.826 301.494C418.237 267.533 507.932 257.738 579.851 269.331C651.786 280.927 705.827 313.895 725.158 365.356C744.488 416.817 725.515 477.21 679.004 533.298C632.503 589.373 558.541 641.052 468.13 675.012C377.719 708.973 288.023 718.768 216.105 707.175C144.17 695.579 90.1284 662.611 70.7983 611.15Z" stroke="#161616"/>
<path d="M642.517 947.563C591.138 936.918 550.586 898.277 526.584 844.32C502.582 790.363 495.151 721.129 510.011 649.41C524.871 577.692 559.2 517.11 602.665 477.133C646.131 437.156 698.698 417.809 750.077 428.455C801.455 439.1 842.007 477.741 866.01 531.698C890.012 585.655 897.442 654.889 882.582 726.608C867.722 798.326 833.393 858.908 789.928 898.885C746.462 938.862 693.895 958.209 642.517 947.563Z" stroke="#161616"/>
<path d="M215.558 532V503.2H235.318V508.28H220.998V513.76H227.718C227.984 513.76 228.358 513.773 228.838 513.8C229.318 513.813 229.744 513.84 230.118 513.88C231.771 514.053 233.144 514.567 234.238 515.42C235.344 516.26 236.171 517.333 236.718 518.64C237.278 519.933 237.558 521.347 237.558 522.88C237.558 524.413 237.284 525.833 236.738 527.14C236.191 528.433 235.364 529.507 234.258 530.36C233.164 531.2 231.784 531.707 230.118 531.88C229.744 531.92 229.318 531.953 228.838 531.98C228.371 531.993 227.998 532 227.718 532H215.558ZM220.998 526.92H227.478C227.758 526.92 228.064 526.907 228.398 526.88C228.731 526.853 229.038 526.813 229.318 526.76C230.424 526.52 231.158 526.007 231.518 525.22C231.891 524.433 232.078 523.653 232.078 522.88C232.078 522.093 231.891 521.313 231.518 520.54C231.158 519.753 230.424 519.24 229.318 519C229.038 518.933 228.731 518.893 228.398 518.88C228.064 518.853 227.758 518.84 227.478 518.84H220.998V526.92ZM247.573 532.6C246.027 532.6 244.713 532.307 243.633 531.72C242.567 531.12 241.753 530.327 241.193 529.34C240.647 528.34 240.373 527.24 240.373 526.04C240.373 525.04 240.527 524.127 240.833 523.3C241.14 522.473 241.633 521.747 242.313 521.12C243.007 520.48 243.933 519.947 245.093 519.52C245.893 519.227 246.847 518.967 247.953 518.74C249.06 518.513 250.313 518.3 251.713 518.1C253.113 517.887 254.653 517.653 256.333 517.4L254.373 518.48C254.373 517.2 254.067 516.26 253.453 515.66C252.84 515.06 251.813 514.76 250.373 514.76C249.573 514.76 248.74 514.953 247.873 515.34C247.007 515.727 246.4 516.413 246.053 517.4L241.133 515.84C241.68 514.053 242.707 512.6 244.213 511.48C245.72 510.36 247.773 509.8 250.373 509.8C252.28 509.8 253.973 510.093 255.453 510.68C256.933 511.267 258.053 512.28 258.813 513.72C259.24 514.52 259.493 515.32 259.573 516.12C259.653 516.92 259.693 517.813 259.693 518.8V532H254.933V527.56L255.613 528.48C254.56 529.933 253.42 530.987 252.193 531.64C250.98 532.28 249.44 532.6 247.573 532.6ZM248.733 528.32C249.733 528.32 250.573 528.147 251.253 527.8C251.947 527.44 252.493 527.033 252.893 526.58C253.307 526.127 253.587 525.747 253.733 525.44C254.013 524.853 254.173 524.173 254.213 523.4C254.267 522.613 254.293 521.96 254.293 521.44L255.893 521.84C254.28 522.107 252.973 522.333 251.973 522.52C250.973 522.693 250.167 522.853 249.553 523C248.94 523.147 248.4 523.307 247.933 523.48C247.4 523.693 246.967 523.927 246.633 524.18C246.313 524.42 246.073 524.687 245.913 524.98C245.767 525.273 245.693 525.6 245.693 525.96C245.693 526.453 245.813 526.88 246.053 527.24C246.307 527.587 246.66 527.853 247.113 528.04C247.567 528.227 248.107 528.32 248.733 528.32ZM272.534 532.6C270.52 532.6 268.654 532.187 266.934 531.36C265.227 530.52 263.88 529.373 262.894 527.92L267.174 525.04C267.934 525.813 268.747 526.42 269.614 526.86C270.494 527.3 271.454 527.52 272.494 527.52C273.574 527.52 274.414 527.287 275.014 526.82C275.627 526.353 275.934 525.733 275.934 524.96C275.934 524.213 275.687 523.707 275.194 523.44C274.714 523.173 274.1 523.033 273.354 523.02C272.62 523.007 271.88 523 271.134 523H269.854V518.76H271.134C272.254 518.76 273.207 518.667 273.994 518.48C274.78 518.28 275.174 517.733 275.174 516.84C275.174 516.093 274.9 515.573 274.354 515.28C273.807 514.987 273.174 514.84 272.454 514.84C271.494 514.84 270.527 515.047 269.554 515.46C268.58 515.873 267.694 516.36 266.894 516.92L263.894 513.2C265.12 512.173 266.48 511.353 267.974 510.74C269.48 510.113 271.054 509.8 272.694 509.8C274.08 509.8 275.387 510.04 276.614 510.52C277.854 511 278.854 511.727 279.614 512.7C280.387 513.66 280.774 514.867 280.774 516.32C280.774 517.253 280.587 518.167 280.214 519.06C279.84 519.953 279.2 520.84 278.294 521.72L278.254 520C278.92 520.347 279.494 520.793 279.974 521.34C280.467 521.873 280.84 522.493 281.094 523.2C281.36 523.907 281.494 524.68 281.494 525.52C281.494 527.067 281.08 528.367 280.254 529.42C279.427 530.473 278.334 531.267 276.974 531.8C275.614 532.333 274.134 532.6 272.534 532.6ZM295.629 532.6C293.456 532.6 291.549 532.113 289.909 531.14C288.269 530.167 286.989 528.827 286.069 527.12C285.163 525.4 284.709 523.427 284.709 521.2C284.709 518.947 285.176 516.967 286.109 515.26C287.043 513.54 288.329 512.2 289.969 511.24C291.609 510.28 293.496 509.8 295.629 509.8C297.803 509.8 299.709 510.287 301.349 511.26C303.003 512.233 304.289 513.58 305.209 515.3C306.129 517.007 306.589 518.973 306.589 521.2C306.589 523.44 306.123 525.42 305.189 527.14C304.269 528.847 302.983 530.187 301.329 531.16C299.689 532.12 297.789 532.6 295.629 532.6ZM295.629 527.52C297.376 527.52 298.676 526.933 299.529 525.76C300.396 524.573 300.829 523.053 300.829 521.2C300.829 519.28 300.389 517.747 299.509 516.6C298.643 515.453 297.349 514.88 295.629 514.88C294.443 514.88 293.469 515.147 292.709 515.68C291.949 516.213 291.383 516.953 291.009 517.9C290.649 518.847 290.469 519.947 290.469 521.2C290.469 523.133 290.903 524.673 291.769 525.82C292.649 526.953 293.936 527.52 295.629 527.52ZM310.948 532V510.4H321.068C321.868 510.4 322.568 510.447 323.168 510.54C323.768 510.62 324.268 510.72 324.668 510.84C325.654 511.133 326.554 511.707 327.368 512.56C328.181 513.413 328.588 514.653 328.588 516.28C328.588 517.24 328.434 518.02 328.128 518.62C327.821 519.207 327.414 519.693 326.908 520.08C326.668 520.253 326.428 520.4 326.188 520.52C325.948 520.64 325.708 520.733 325.468 520.8C326.028 520.88 326.534 521.027 326.988 521.24C327.708 521.56 328.334 522.067 328.868 522.76C329.401 523.44 329.668 524.453 329.668 525.8C329.668 527.24 329.314 528.467 328.608 529.48C327.914 530.493 326.868 531.2 325.468 531.6C324.988 531.733 324.421 531.833 323.768 531.9C323.128 531.967 322.454 532 321.748 532H310.948ZM316.468 527.88H321.348C321.628 527.88 321.914 527.853 322.208 527.8C322.514 527.733 322.788 527.653 323.028 527.56C323.414 527.4 323.688 527.127 323.848 526.74C324.021 526.353 324.108 525.96 324.108 525.56C324.108 525 323.981 524.56 323.728 524.24C323.488 523.92 323.214 523.693 322.908 523.56C322.654 523.44 322.374 523.373 322.068 523.36C321.774 523.333 321.534 523.32 321.348 523.32H316.468V527.88ZM316.468 519.12H319.788C320.214 519.12 320.614 519.1 320.988 519.06C321.374 519.007 321.694 518.92 321.948 518.8C322.294 518.64 322.554 518.387 322.728 518.04C322.901 517.68 322.988 517.28 322.988 516.84C322.988 516.373 322.888 515.953 322.688 515.58C322.501 515.193 322.188 514.933 321.748 514.8C321.454 514.693 321.081 514.633 320.628 514.62C320.188 514.607 319.908 514.6 319.788 514.6H316.468V519.12ZM333.643 532V510.4H339.083V517.28H341.043C341.643 517.28 342.343 517.293 343.143 517.32C343.943 517.347 344.603 517.413 345.123 517.52C346.389 517.8 347.456 518.247 348.323 518.86C349.189 519.473 349.843 520.267 350.283 521.24C350.736 522.2 350.963 523.347 350.963 524.68C350.963 526.6 350.463 528.147 349.463 529.32C348.476 530.48 347.043 531.28 345.163 531.72C344.643 531.84 343.976 531.92 343.163 531.96C342.349 531.987 341.643 532 341.043 532H333.643ZM339.083 527.8H341.643C341.883 527.8 342.149 527.787 342.443 527.76C342.736 527.733 343.029 527.68 343.323 527.6C343.883 527.44 344.376 527.087 344.803 526.54C345.229 525.993 345.443 525.373 345.443 524.68C345.443 523.92 345.223 523.273 344.783 522.74C344.343 522.193 343.829 521.84 343.243 521.68C342.963 521.6 342.683 521.547 342.403 521.52C342.123 521.493 341.869 521.48 341.643 521.48H339.083V527.8ZM353.123 532V510.4H358.563V532H353.123ZM374.192 532.6C371.978 532.6 370.025 532.127 368.332 531.18C366.652 530.22 365.332 528.907 364.372 527.24C363.425 525.56 362.952 523.64 362.952 521.48C362.952 519.12 363.418 517.067 364.352 515.32C365.285 513.573 366.572 512.22 368.212 511.26C369.852 510.287 371.738 509.8 373.872 509.8C376.138 509.8 378.065 510.333 379.652 511.4C381.238 512.467 382.412 513.967 383.172 515.9C383.932 517.833 384.198 520.107 383.972 522.72H378.592V520.72C378.592 518.52 378.238 516.94 377.532 515.98C376.838 515.007 375.698 514.52 374.112 514.52C372.258 514.52 370.892 515.087 370.012 516.22C369.145 517.34 368.712 519 368.712 521.2C368.712 523.213 369.145 524.773 370.012 525.88C370.892 526.973 372.178 527.52 373.872 527.52C374.938 527.52 375.852 527.287 376.612 526.82C377.372 526.353 377.952 525.68 378.352 524.8L383.792 526.36C382.978 528.333 381.692 529.867 379.932 530.96C378.185 532.053 376.272 532.6 374.192 532.6ZM367.032 522.72V518.68H381.352V522.72H367.032ZM396.455 532V510.4H401.895V518.64H410.775V510.4H416.215V532H410.775V523.72H401.895V532H396.455ZM427.808 532.6C426.261 532.6 424.948 532.307 423.868 531.72C422.801 531.12 421.988 530.327 421.428 529.34C420.881 528.34 420.608 527.24 420.608 526.04C420.608 525.04 420.761 524.127 421.068 523.3C421.374 522.473 421.868 521.747 422.548 521.12C423.241 520.48 424.168 519.947 425.328 519.52C426.128 519.227 427.081 518.967 428.188 518.74C429.294 518.513 430.548 518.3 431.948 518.1C433.348 517.887 434.888 517.653 436.568 517.4L434.608 518.48C434.608 517.2 434.301 516.26 433.688 515.66C433.074 515.06 432.048 514.76 430.608 514.76C429.808 514.76 428.974 514.953 428.108 515.34C427.241 515.727 426.634 516.413 426.288 517.4L421.368 515.84C421.914 514.053 422.941 512.6 424.448 511.48C425.954 510.36 428.008 509.8 430.608 509.8C432.514 509.8 434.208 510.093 435.688 510.68C437.168 511.267 438.288 512.28 439.048 513.72C439.474 514.52 439.728 515.32 439.808 516.12C439.888 516.92 439.928 517.813 439.928 518.8V532H435.168V527.56L435.848 528.48C434.794 529.933 433.654 530.987 432.428 531.64C431.214 532.28 429.674 532.6 427.808 532.6ZM428.968 528.32C429.968 528.32 430.808 528.147 431.488 527.8C432.181 527.44 432.728 527.033 433.128 526.58C433.541 526.127 433.821 525.747 433.968 525.44C434.248 524.853 434.408 524.173 434.448 523.4C434.501 522.613 434.528 521.96 434.528 521.44L436.128 521.84C434.514 522.107 433.208 522.333 432.208 522.52C431.208 522.693 430.401 522.853 429.788 523C429.174 523.147 428.634 523.307 428.168 523.48C427.634 523.693 427.201 523.927 426.868 524.18C426.548 524.42 426.308 524.687 426.148 524.98C426.001 525.273 425.928 525.6 425.928 525.96C425.928 526.453 426.048 526.88 426.288 527.24C426.541 527.587 426.894 527.853 427.348 528.04C427.801 528.227 428.341 528.32 428.968 528.32ZM445.088 532V510.4H455.208C456.008 510.4 456.708 510.447 457.308 510.54C457.908 510.62 458.408 510.72 458.808 510.84C459.795 511.133 460.695 511.707 461.508 512.56C462.321 513.413 462.728 514.653 462.728 516.28C462.728 517.24 462.575 518.02 462.268 518.62C461.961 519.207 461.555 519.693 461.048 520.08C460.808 520.253 460.568 520.4 460.328 520.52C460.088 520.64 459.848 520.733 459.608 520.8C460.168 520.88 460.675 521.027 461.128 521.24C461.848 521.56 462.475 522.067 463.008 522.76C463.541 523.44 463.808 524.453 463.808 525.8C463.808 527.24 463.455 528.467 462.748 529.48C462.055 530.493 461.008 531.2 459.608 531.6C459.128 531.733 458.561 531.833 457.908 531.9C457.268 531.967 456.595 532 455.888 532H445.088ZM450.608 527.88H455.488C455.768 527.88 456.055 527.853 456.348 527.8C456.655 527.733 456.928 527.653 457.168 527.56C457.555 527.4 457.828 527.127 457.988 526.74C458.161 526.353 458.248 525.96 458.248 525.56C458.248 525 458.121 524.56 457.868 524.24C457.628 523.92 457.355 523.693 457.048 523.56C456.795 523.44 456.515 523.373 456.208 523.36C455.915 523.333 455.675 523.32 455.488 523.32H450.608V527.88ZM450.608 519.12H453.928C454.355 519.12 454.755 519.1 455.128 519.06C455.515 519.007 455.835 518.92 456.088 518.8C456.435 518.64 456.695 518.387 456.868 518.04C457.041 517.68 457.128 517.28 457.128 516.84C457.128 516.373 457.028 515.953 456.828 515.58C456.641 515.193 456.328 514.933 455.888 514.8C455.595 514.693 455.221 514.633 454.768 514.62C454.328 514.607 454.048 514.6 453.928 514.6H450.608V519.12ZM467.783 532V510.4H473.223V517.28H475.183C475.783 517.28 476.483 517.293 477.283 517.32C478.083 517.347 478.743 517.413 479.263 517.52C480.53 517.8 481.597 518.247 482.463 518.86C483.33 519.473 483.983 520.267 484.423 521.24C484.877 522.2 485.103 523.347 485.103 524.68C485.103 526.6 484.603 528.147 483.603 529.32C482.617 530.48 481.183 531.28 479.303 531.72C478.783 531.84 478.117 531.92 477.303 531.96C476.49 531.987 475.783 532 475.183 532H467.783ZM473.223 527.8H475.783C476.023 527.8 476.29 527.787 476.583 527.76C476.877 527.733 477.17 527.68 477.463 527.6C478.023 527.44 478.517 527.087 478.943 526.54C479.37 525.993 479.583 525.373 479.583 524.68C479.583 523.92 479.363 523.273 478.923 522.74C478.483 522.193 477.97 521.84 477.383 521.68C477.103 521.6 476.823 521.547 476.543 521.52C476.263 521.493 476.01 521.48 475.783 521.48H473.223V527.8ZM487.263 532V510.4H492.703V532H487.263ZM498.252 532L498.292 510.4H503.812V520.8L511.132 510.4H517.852L510.052 521.2L518.372 532H511.292L503.812 521.6V532H498.252ZM539.602 510.4V532H534.403V518.8L524.643 532H520.323V510.4H525.523V523.16L535.323 510.4H539.602Z" fill="#191A1B"/>
<path d="M867.953 327.6C865.073 327.6 862.586 326.973 860.493 325.72C858.413 324.467 856.806 322.713 855.673 320.46C854.553 318.207 853.993 315.587 853.993 312.6C853.993 309.613 854.553 306.993 855.673 304.74C856.806 302.487 858.413 300.733 860.493 299.48C862.586 298.227 865.073 297.6 867.953 297.6C871.26 297.6 874.033 298.42 876.273 300.06C878.526 301.7 880.113 303.92 881.033 306.72L875.553 308.24C875.02 306.493 874.12 305.14 872.853 304.18C871.586 303.207 869.953 302.72 867.953 302.72C866.126 302.72 864.6 303.127 863.373 303.94C862.16 304.753 861.246 305.9 860.633 307.38C860.02 308.86 859.713 310.6 859.713 312.6C859.713 314.6 860.02 316.34 860.633 317.82C861.246 319.3 862.16 320.447 863.373 321.26C864.6 322.073 866.126 322.48 867.953 322.48C869.953 322.48 871.586 321.993 872.853 321.02C874.12 320.047 875.02 318.693 875.553 316.96L881.033 318.48C880.113 321.28 878.526 323.5 876.273 325.14C874.033 326.78 871.26 327.6 867.953 327.6ZM896.037 327.6C893.89 327.6 892.097 327.1 890.657 326.1C889.217 325.1 888.13 323.74 887.397 322.02C886.677 320.3 886.317 318.36 886.317 316.2C886.317 314.04 886.677 312.1 887.397 310.38C888.117 308.66 889.177 307.3 890.577 306.3C891.977 305.3 893.703 304.8 895.757 304.8C897.823 304.8 899.623 305.293 901.157 306.28C902.69 307.267 903.877 308.62 904.717 310.34C905.57 312.047 905.997 314 905.997 316.2C905.997 318.36 905.577 320.3 904.737 322.02C903.91 323.74 902.75 325.1 901.257 326.1C899.763 327.1 898.023 327.6 896.037 327.6ZM885.397 336.6V305.4H890.197V320.2H890.877V336.6H885.397ZM895.157 322.76C896.33 322.76 897.29 322.467 898.037 321.88C898.783 321.293 899.337 320.507 899.697 319.52C900.057 318.52 900.237 317.413 900.237 316.2C900.237 315 900.05 313.907 899.677 312.92C899.303 311.92 898.723 311.127 897.937 310.54C897.163 309.94 896.17 309.64 894.957 309.64C893.823 309.64 892.903 309.913 892.197 310.46C891.503 311.007 890.997 311.773 890.677 312.76C890.357 313.747 890.197 314.893 890.197 316.2C890.197 317.507 890.357 318.653 890.677 319.64C890.997 320.627 891.517 321.393 892.237 321.94C892.97 322.487 893.943 322.76 895.157 322.76ZM920.438 327.6C918.224 327.6 916.271 327.127 914.578 326.18C912.898 325.22 911.578 323.907 910.618 322.24C909.671 320.56 909.198 318.64 909.198 316.48C909.198 314.12 909.664 312.067 910.598 310.32C911.531 308.573 912.818 307.22 914.458 306.26C916.098 305.287 917.984 304.8 920.118 304.8C922.384 304.8 924.311 305.333 925.898 306.4C927.484 307.467 928.658 308.967 929.418 310.9C930.178 312.833 930.444 315.107 930.218 317.72H924.838V315.72C924.838 313.52 924.484 311.94 923.778 310.98C923.084 310.007 921.944 309.52 920.358 309.52C918.504 309.52 917.138 310.087 916.258 311.22C915.391 312.34 914.958 314 914.958 316.2C914.958 318.213 915.391 319.773 916.258 320.88C917.138 321.973 918.424 322.52 920.118 322.52C921.184 322.52 922.098 322.287 922.858 321.82C923.618 321.353 924.198 320.68 924.598 319.8L930.038 321.36C929.224 323.333 927.938 324.867 926.178 325.96C924.431 327.053 922.518 327.6 920.438 327.6ZM913.278 317.72V313.68H927.598V317.72H913.278ZM933.134 331.8V322.8C934.28 322.8 935.094 322.4 935.574 321.6C936.067 320.8 936.454 319.373 936.734 317.32C936.894 316.133 937.027 314.887 937.134 313.58C937.254 312.273 937.354 310.933 937.434 309.56C937.514 308.187 937.587 306.8 937.654 305.4H954.334V322.8H956.534V331.8H951.414V327H938.254V331.8H933.134ZM940.094 322.8H948.894V309.6H942.374C942.334 310.333 942.287 311.067 942.234 311.8C942.194 312.533 942.14 313.26 942.074 313.98C942.02 314.7 941.967 315.4 941.914 316.08C941.86 316.747 941.8 317.387 941.734 318C941.614 319.173 941.447 320.127 941.234 320.86C941.02 321.593 940.64 322.24 940.094 322.8ZM960.475 327V305.4H965.915V313.64H974.795V305.4H980.235V327H974.795V318.72H965.915V327H960.475ZM1005.07 305.4V327H999.867V313.8L990.107 327H985.787V305.4H990.987V318.16L1000.79 305.4H1005.07ZM1020.71 327.6C1018.5 327.6 1016.54 327.127 1014.85 326.18C1013.17 325.22 1011.85 323.907 1010.89 322.24C1009.94 320.56 1009.47 318.64 1009.47 316.48C1009.47 314.12 1009.94 312.067 1010.87 310.32C1011.8 308.573 1013.09 307.22 1014.73 306.26C1016.37 305.287 1018.26 304.8 1020.39 304.8C1022.66 304.8 1024.58 305.333 1026.17 306.4C1027.76 307.467 1028.93 308.967 1029.69 310.9C1030.45 312.833 1030.72 315.107 1030.49 317.72H1025.11V315.72C1025.11 313.52 1024.76 311.94 1024.05 310.98C1023.36 310.007 1022.22 309.52 1020.63 309.52C1018.78 309.52 1017.41 310.087 1016.53 311.22C1015.66 312.34 1015.23 314 1015.23 316.2C1015.23 318.213 1015.66 319.773 1016.53 320.88C1017.41 321.973 1018.7 322.52 1020.39 322.52C1021.46 322.52 1022.37 322.287 1023.13 321.82C1023.89 321.353 1024.47 320.68 1024.87 319.8L1030.31 321.36C1029.5 323.333 1028.21 324.867 1026.45 325.96C1024.7 327.053 1022.79 327.6 1020.71 327.6ZM1013.55 317.72V313.68H1027.87V317.72H1013.55ZM870.905 382V360.4H876.345V368.64H885.225V360.4H890.665V382H885.225V373.72H876.345V382H870.905ZM902.257 382.6C900.71 382.6 899.397 382.307 898.317 381.72C897.25 381.12 896.437 380.327 895.877 379.34C895.33 378.34 895.057 377.24 895.057 376.04C895.057 375.04 895.21 374.127 895.517 373.3C895.824 372.473 896.317 371.747 896.997 371.12C897.69 370.48 898.617 369.947 899.777 369.52C900.577 369.227 901.53 368.967 902.637 368.74C903.744 368.513 904.997 368.3 906.397 368.1C907.797 367.887 909.337 367.653 911.017 367.4L909.057 368.48C909.057 367.2 908.75 366.26 908.137 365.66C907.524 365.06 906.497 364.76 905.057 364.76C904.257 364.76 903.424 364.953 902.557 365.34C901.69 365.727 901.084 366.413 900.737 367.4L895.817 365.84C896.364 364.053 897.39 362.6 898.897 361.48C900.404 360.36 902.457 359.8 905.057 359.8C906.964 359.8 908.657 360.093 910.137 360.68C911.617 361.267 912.737 362.28 913.497 363.72C913.924 364.52 914.177 365.32 914.257 366.12C914.337 366.92 914.377 367.813 914.377 368.8V382H909.617V377.56L910.297 378.48C909.244 379.933 908.104 380.987 906.877 381.64C905.664 382.28 904.124 382.6 902.257 382.6ZM903.417 378.32C904.417 378.32 905.257 378.147 905.937 377.8C906.63 377.44 907.177 377.033 907.577 376.58C907.99 376.127 908.27 375.747 908.417 375.44C908.697 374.853 908.857 374.173 908.897 373.4C908.95 372.613 908.977 371.96 908.977 371.44L910.577 371.84C908.964 372.107 907.657 372.333 906.657 372.52C905.657 372.693 904.85 372.853 904.237 373C903.624 373.147 903.084 373.307 902.617 373.48C902.084 373.693 901.65 373.927 901.317 374.18C900.997 374.42 900.757 374.687 900.597 374.98C900.45 375.273 900.377 375.6 900.377 375.96C900.377 376.453 900.497 376.88 900.737 377.24C900.99 377.587 901.344 377.853 901.797 378.04C902.25 378.227 902.79 378.32 903.417 378.32ZM919.537 382V360.4H929.657C930.457 360.4 931.157 360.447 931.757 360.54C932.357 360.62 932.857 360.72 933.257 360.84C934.244 361.133 935.144 361.707 935.957 362.56C936.771 363.413 937.177 364.653 937.177 366.28C937.177 367.24 937.024 368.02 936.717 368.62C936.411 369.207 936.004 369.693 935.497 370.08C935.257 370.253 935.017 370.4 934.777 370.52C934.537 370.64 934.297 370.733 934.057 370.8C934.617 370.88 935.124 371.027 935.577 371.24C936.297 371.56 936.924 372.067 937.457 372.76C937.991 373.44 938.257 374.453 938.257 375.8C938.257 377.24 937.904 378.467 937.197 379.48C936.504 380.493 935.457 381.2 934.057 381.6C933.577 381.733 933.011 381.833 932.357 381.9C931.717 381.967 931.044 382 930.337 382H919.537ZM925.057 377.88H929.937C930.217 377.88 930.504 377.853 930.797 377.8C931.104 377.733 931.377 377.653 931.617 377.56C932.004 377.4 932.277 377.127 932.437 376.74C932.611 376.353 932.697 375.96 932.697 375.56C932.697 375 932.571 374.56 932.317 374.24C932.077 373.92 931.804 373.693 931.497 373.56C931.244 373.44 930.964 373.373 930.657 373.36C930.364 373.333 930.124 373.32 929.937 373.32H925.057V377.88ZM925.057 369.12H928.377C928.804 369.12 929.204 369.1 929.577 369.06C929.964 369.007 930.284 368.92 930.537 368.8C930.884 368.64 931.144 368.387 931.317 368.04C931.491 367.68 931.577 367.28 931.577 366.84C931.577 366.373 931.477 365.953 931.277 365.58C931.091 365.193 930.777 364.933 930.337 364.8C930.044 364.693 929.671 364.633 929.217 364.62C928.777 364.607 928.497 364.6 928.377 364.6H925.057V369.12ZM942.233 382V360.4H947.673V367.28H949.633C950.233 367.28 950.933 367.293 951.733 367.32C952.533 367.347 953.193 367.413 953.713 367.52C954.979 367.8 956.046 368.247 956.913 368.86C957.779 369.473 958.433 370.267 958.873 371.24C959.326 372.2 959.553 373.347 959.553 374.68C959.553 376.6 959.053 378.147 958.053 379.32C957.066 380.48 955.633 381.28 953.753 381.72C953.233 381.84 952.566 381.92 951.753 381.96C950.939 381.987 950.233 382 949.633 382H942.233ZM947.673 377.8H950.233C950.473 377.8 950.739 377.787 951.033 377.76C951.326 377.733 951.619 377.68 951.913 377.6C952.473 377.44 952.966 377.087 953.393 376.54C953.819 375.993 954.033 375.373 954.033 374.68C954.033 373.92 953.813 373.273 953.373 372.74C952.933 372.193 952.419 371.84 951.833 371.68C951.553 371.6 951.273 371.547 950.993 371.52C950.713 371.493 950.459 371.48 950.233 371.48H947.673V377.8ZM961.713 382V360.4H967.153V382H961.713ZM972.701 382L972.741 360.4H978.261V370.8L985.581 360.4H992.301L984.501 371.2L992.821 382H985.741L978.261 371.6V382H972.701ZM1014.05 360.4V382H1008.85V368.8L999.092 382H994.772V360.4H999.972V373.16L1009.77 360.4H1014.05Z" fill="#191A1B"/>
<path d="M552.167 744V715.2H575.927V744H570.487V720.28H557.607V744H552.167ZM592.142 744.6C589.996 744.6 588.202 744.1 586.762 743.1C585.322 742.1 584.236 740.74 583.502 739.02C582.782 737.3 582.422 735.36 582.422 733.2C582.422 731.04 582.782 729.1 583.502 727.38C584.222 725.66 585.282 724.3 586.682 723.3C588.082 722.3 589.809 721.8 591.862 721.8C593.929 721.8 595.729 722.293 597.262 723.28C598.796 724.267 599.982 725.62 600.822 727.34C601.676 729.047 602.102 731 602.102 733.2C602.102 735.36 601.682 737.3 600.842 739.02C600.016 740.74 598.856 742.1 597.362 743.1C595.869 744.1 594.129 744.6 592.142 744.6ZM581.502 753.6V722.4H586.302V737.2H586.982V753.6H581.502ZM591.262 739.76C592.436 739.76 593.396 739.467 594.142 738.88C594.889 738.293 595.442 737.507 595.802 736.52C596.162 735.52 596.342 734.413 596.342 733.2C596.342 732 596.156 730.907 595.782 729.92C595.409 728.92 594.829 728.127 594.042 727.54C593.269 726.94 592.276 726.64 591.062 726.64C589.929 726.64 589.009 726.913 588.302 727.46C587.609 728.007 587.102 728.773 586.782 729.76C586.462 730.747 586.302 731.893 586.302 733.2C586.302 734.507 586.462 735.653 586.782 736.64C587.102 737.627 587.622 738.393 588.342 738.94C589.076 739.487 590.049 739.76 591.262 739.76ZM616.223 744.6C614.05 744.6 612.143 744.113 610.503 743.14C608.863 742.167 607.583 740.827 606.663 739.12C605.756 737.4 605.303 735.427 605.303 733.2C605.303 730.947 605.77 728.967 606.703 727.26C607.636 725.54 608.923 724.2 610.563 723.24C612.203 722.28 614.09 721.8 616.223 721.8C618.396 721.8 620.303 722.287 621.943 723.26C623.596 724.233 624.883 725.58 625.803 727.3C626.723 729.007 627.183 730.973 627.183 733.2C627.183 735.44 626.716 737.42 625.783 739.14C624.863 740.847 623.576 742.187 621.923 743.16C620.283 744.12 618.383 744.6 616.223 744.6ZM616.223 739.52C617.97 739.52 619.27 738.933 620.123 737.76C620.99 736.573 621.423 735.053 621.423 733.2C621.423 731.28 620.983 729.747 620.103 728.6C619.236 727.453 617.943 726.88 616.223 726.88C615.036 726.88 614.063 727.147 613.303 727.68C612.543 728.213 611.976 728.953 611.603 729.9C611.243 730.847 611.063 731.947 611.063 733.2C611.063 735.133 611.496 736.673 612.363 737.82C613.243 738.953 614.53 739.52 616.223 739.52ZM629.981 748.8V739.8C631.128 739.8 631.941 739.4 632.421 738.6C632.915 737.8 633.301 736.373 633.581 734.32C633.741 733.133 633.875 731.887 633.981 730.58C634.101 729.273 634.201 727.933 634.281 726.56C634.361 725.187 634.435 723.8 634.501 722.4H651.181V739.8H653.381V748.8H648.261V744H635.101V748.8H629.981ZM636.941 739.8H645.741V726.6H639.221C639.181 727.333 639.135 728.067 639.081 728.8C639.041 729.533 638.988 730.26 638.921 730.98C638.868 731.7 638.815 732.4 638.761 733.08C638.708 733.747 638.648 734.387 638.581 735C638.461 736.173 638.295 737.127 638.081 737.86C637.868 738.593 637.488 739.24 636.941 739.8ZM657.323 744V722.4H667.443C668.243 722.4 668.943 722.447 669.543 722.54C670.143 722.62 670.643 722.72 671.043 722.84C672.029 723.133 672.929 723.707 673.743 724.56C674.556 725.413 674.963 726.653 674.963 728.28C674.963 729.24 674.809 730.02 674.503 730.62C674.196 731.207 673.789 731.693 673.283 732.08C673.043 732.253 672.803 732.4 672.563 732.52C672.323 732.64 672.083 732.733 671.843 732.8C672.403 732.88 672.909 733.027 673.363 733.24C674.083 733.56 674.709 734.067 675.243 734.76C675.776 735.44 676.043 736.453 676.043 737.8C676.043 739.24 675.689 740.467 674.983 741.48C674.289 742.493 673.243 743.2 671.843 743.6C671.363 743.733 670.796 743.833 670.143 743.9C669.503 743.967 668.829 744 668.123 744H657.323ZM662.843 739.88H667.723C668.003 739.88 668.289 739.853 668.583 739.8C668.889 739.733 669.163 739.653 669.403 739.56C669.789 739.4 670.063 739.127 670.223 738.74C670.396 738.353 670.483 737.96 670.483 737.56C670.483 737 670.356 736.56 670.103 736.24C669.863 735.92 669.589 735.693 669.283 735.56C669.029 735.44 668.749 735.373 668.443 735.36C668.149 735.333 667.909 735.32 667.723 735.32H662.843V739.88ZM662.843 731.12H666.163C666.589 731.12 666.989 731.1 667.363 731.06C667.749 731.007 668.069 730.92 668.323 730.8C668.669 730.64 668.929 730.387 669.103 730.04C669.276 729.68 669.363 729.28 669.363 728.84C669.363 728.373 669.263 727.953 669.063 727.58C668.876 727.193 668.563 726.933 668.123 726.8C667.829 726.693 667.456 726.633 667.003 726.62C666.563 726.607 666.283 726.6 666.163 726.6H662.843V731.12ZM699.298 722.4V744H694.098V730.8L684.338 744H680.018V722.4H685.218V735.16L695.018 722.4H699.298ZM704.862 744V722.4H710.302V730.64H719.182V722.4H724.622V744H719.182V735.72H710.302V744H704.862ZM732.974 753.6L737.134 742.16L737.214 745.52L727.814 722.4H733.454L739.774 738.76H738.494L744.774 722.4H750.214L738.014 753.6H732.974ZM758.307 744V727.2H751.227V722.4H770.827V727.2H763.747V744H758.307ZM774.588 744V722.4H780.028V729.28H781.988C782.588 729.28 783.288 729.293 784.088 729.32C784.888 729.347 785.548 729.413 786.068 729.52C787.335 729.8 788.401 730.247 789.268 730.86C790.135 731.473 790.788 732.267 791.228 733.24C791.681 734.2 791.908 735.347 791.908 736.68C791.908 738.6 791.408 740.147 790.408 741.32C789.421 742.48 787.988 743.28 786.108 743.72C785.588 743.84 784.921 743.92 784.108 743.96C783.295 743.987 782.588 744 781.988 744H774.588ZM780.028 739.8H782.588C782.828 739.8 783.095 739.787 783.388 739.76C783.681 739.733 783.975 739.68 784.268 739.6C784.828 739.44 785.321 739.087 785.748 738.54C786.175 737.993 786.388 737.373 786.388 736.68C786.388 735.92 786.168 735.273 785.728 734.74C785.288 734.193 784.775 733.84 784.188 733.68C783.908 733.6 783.628 733.547 783.348 733.52C783.068 733.493 782.815 733.48 782.588 733.48H780.028V739.8ZM794.068 744V722.4H799.508V744H794.068ZM815.137 744.6C812.924 744.6 810.97 744.127 809.277 743.18C807.597 742.22 806.277 740.907 805.317 739.24C804.37 737.56 803.897 735.64 803.897 733.48C803.897 731.12 804.364 729.067 805.297 727.32C806.23 725.573 807.517 724.22 809.157 723.26C810.797 722.287 812.684 721.8 814.817 721.8C817.084 721.8 819.01 722.333 820.597 723.4C822.184 724.467 823.357 725.967 824.117 727.9C824.877 729.833 825.144 732.107 824.917 734.72H819.537V732.72C819.537 730.52 819.184 728.94 818.477 727.98C817.784 727.007 816.644 726.52 815.057 726.52C813.204 726.52 811.837 727.087 810.957 728.22C810.09 729.34 809.657 731 809.657 733.2C809.657 735.213 810.09 736.773 810.957 737.88C811.837 738.973 813.124 739.52 814.817 739.52C815.884 739.52 816.797 739.287 817.557 738.82C818.317 738.353 818.897 737.68 819.297 736.8L824.737 738.36C823.924 740.333 822.637 741.867 820.877 742.96C819.13 744.053 817.217 744.6 815.137 744.6ZM807.977 734.72V730.68H822.297V734.72H807.977ZM616.405 799V777.4H621.845V785.64H630.725V777.4H636.165V799H630.725V790.72H621.845V799H616.405ZM647.757 799.6C646.21 799.6 644.897 799.307 643.817 798.72C642.75 798.12 641.937 797.327 641.377 796.34C640.83 795.34 640.557 794.24 640.557 793.04C640.557 792.04 640.71 791.127 641.017 790.3C641.324 789.473 641.817 788.747 642.497 788.12C643.19 787.48 644.117 786.947 645.277 786.52C646.077 786.227 647.03 785.967 648.137 785.74C649.244 785.513 650.497 785.3 651.897 785.1C653.297 784.887 654.837 784.653 656.517 784.4L654.557 785.48C654.557 784.2 654.25 783.26 653.637 782.66C653.024 782.06 651.997 781.76 650.557 781.76C649.757 781.76 648.924 781.953 648.057 782.34C647.19 782.727 646.584 783.413 646.237 784.4L641.317 782.84C641.864 781.053 642.89 779.6 644.397 778.48C645.904 777.36 647.957 776.8 650.557 776.8C652.464 776.8 654.157 777.093 655.637 777.68C657.117 778.267 658.237 779.28 658.997 780.72C659.424 781.52 659.677 782.32 659.757 783.12C659.837 783.92 659.877 784.813 659.877 785.8V799H655.117V794.56L655.797 795.48C654.744 796.933 653.604 797.987 652.377 798.64C651.164 799.28 649.624 799.6 647.757 799.6ZM648.917 795.32C649.917 795.32 650.757 795.147 651.437 794.8C652.13 794.44 652.677 794.033 653.077 793.58C653.49 793.127 653.77 792.747 653.917 792.44C654.197 791.853 654.357 791.173 654.397 790.4C654.45 789.613 654.477 788.96 654.477 788.44L656.077 788.84C654.464 789.107 653.157 789.333 652.157 789.52C651.157 789.693 650.35 789.853 649.737 790C649.124 790.147 648.584 790.307 648.117 790.48C647.584 790.693 647.15 790.927 646.817 791.18C646.497 791.42 646.257 791.687 646.097 791.98C645.95 792.273 645.877 792.6 645.877 792.96C645.877 793.453 645.997 793.88 646.237 794.24C646.49 794.587 646.844 794.853 647.297 795.04C647.75 795.227 648.29 795.32 648.917 795.32ZM665.037 799V777.4H675.157C675.957 777.4 676.657 777.447 677.257 777.54C677.857 777.62 678.357 777.72 678.757 777.84C679.744 778.133 680.644 778.707 681.457 779.56C682.271 780.413 682.677 781.653 682.677 783.28C682.677 784.24 682.524 785.02 682.217 785.62C681.911 786.207 681.504 786.693 680.997 787.08C680.757 787.253 680.517 787.4 680.277 787.52C680.037 787.64 679.797 787.733 679.557 787.8C680.117 787.88 680.624 788.027 681.077 788.24C681.797 788.56 682.424 789.067 682.957 789.76C683.491 790.44 683.757 791.453 683.757 792.8C683.757 794.24 683.404 795.467 682.697 796.48C682.004 797.493 680.957 798.2 679.557 798.6C679.077 798.733 678.511 798.833 677.857 798.9C677.217 798.967 676.544 799 675.837 799H665.037ZM670.557 794.88H675.437C675.717 794.88 676.004 794.853 676.297 794.8C676.604 794.733 676.877 794.653 677.117 794.56C677.504 794.4 677.777 794.127 677.937 793.74C678.111 793.353 678.197 792.96 678.197 792.56C678.197 792 678.071 791.56 677.817 791.24C677.577 790.92 677.304 790.693 676.997 790.56C676.744 790.44 676.464 790.373 676.157 790.36C675.864 790.333 675.624 790.32 675.437 790.32H670.557V794.88ZM670.557 786.12H673.877C674.304 786.12 674.704 786.1 675.077 786.06C675.464 786.007 675.784 785.92 676.037 785.8C676.384 785.64 676.644 785.387 676.817 785.04C676.991 784.68 677.077 784.28 677.077 783.84C677.077 783.373 676.977 782.953 676.777 782.58C676.591 782.193 676.277 781.933 675.837 781.8C675.544 781.693 675.171 781.633 674.717 781.62C674.277 781.607 673.997 781.6 673.877 781.6H670.557V786.12ZM687.733 799V777.4H693.173V784.28H695.133C695.733 784.28 696.433 784.293 697.233 784.32C698.033 784.347 698.693 784.413 699.213 784.52C700.479 784.8 701.546 785.247 702.413 785.86C703.279 786.473 703.933 787.267 704.373 788.24C704.826 789.2 705.053 790.347 705.053 791.68C705.053 793.6 704.553 795.147 703.553 796.32C702.566 797.48 701.133 798.28 699.253 798.72C698.733 798.84 698.066 798.92 697.253 798.96C696.439 798.987 695.733 799 695.133 799H687.733ZM693.173 794.8H695.733C695.973 794.8 696.239 794.787 696.533 794.76C696.826 794.733 697.119 794.68 697.413 794.6C697.973 794.44 698.466 794.087 698.893 793.54C699.319 792.993 699.533 792.373 699.533 791.68C699.533 790.92 699.313 790.273 698.873 789.74C698.433 789.193 697.919 788.84 697.333 788.68C697.053 788.6 696.773 788.547 696.493 788.52C696.213 788.493 695.959 788.48 695.733 788.48H693.173V794.8ZM707.213 799V777.4H712.653V799H707.213ZM718.201 799L718.241 777.4H723.761V787.8L731.081 777.4H737.801L730.001 788.2L738.321 799H731.241L723.761 788.6V799H718.201ZM759.552 777.4V799H754.352V785.8L744.592 799H740.272V777.4H745.472V790.16L755.272 777.4H759.552Z" fill="#161616"/>
<rect x="430.582" y="330" width="56" height="56" rx="28" fill="#161616"/>
<path d="M453.22 368.39C452.007 368.39 450.923 368.117 449.97 367.571C449.025 367.016 448.276 366.267 447.721 365.322C447.175 364.369 446.902 363.285 446.902 362.072V355.208C446.902 353.995 447.175 352.911 447.721 351.958C448.276 351.005 449.025 350.255 449.97 349.709C450.923 349.163 452.007 348.89 453.22 348.89C454.433 348.89 455.517 349.163 456.47 349.709C457.423 350.255 458.173 351.005 458.719 351.958C459.265 352.911 459.538 353.995 459.538 355.208V362.072C459.538 363.285 459.265 364.369 458.719 365.322C458.173 366.267 457.423 367.016 456.47 367.571C455.517 368.117 454.433 368.39 453.22 368.39ZM453.22 366.167C453.957 366.167 454.624 365.989 455.222 365.634C455.82 365.279 456.297 364.802 456.652 364.204C457.007 363.597 457.185 362.93 457.185 362.202V355.065C457.185 354.328 457.007 353.661 456.652 353.063C456.297 352.465 455.82 351.988 455.222 351.633C454.624 351.278 453.957 351.1 453.22 351.1C452.492 351.1 451.825 351.278 451.218 351.633C450.62 351.988 450.143 352.465 449.788 353.063C449.433 353.661 449.255 354.328 449.255 355.065V362.202C449.255 362.93 449.433 363.597 449.788 364.204C450.143 364.802 450.62 365.279 451.218 365.634C451.825 365.989 452.492 366.167 453.22 366.167ZM466.44 368V351.841L462.917 353.973V351.386L466.44 349.28H468.793V368H466.44Z" fill="white"/>
<rect x="931" y="178" width="56" height="56" rx="28" fill="#161616"/>
<path d="M951.138 216.39C949.925 216.39 948.841 216.117 947.888 215.571C946.943 215.016 946.194 214.267 945.639 213.322C945.093 212.369 944.82 211.285 944.82 210.072V203.208C944.82 201.995 945.093 200.911 945.639 199.958C946.194 199.005 946.943 198.255 947.888 197.709C948.841 197.163 949.925 196.89 951.138 196.89C952.351 196.89 953.435 197.163 954.388 197.709C955.341 198.255 956.091 199.005 956.637 199.958C957.183 200.911 957.456 201.995 957.456 203.208V210.072C957.456 211.285 957.183 212.369 956.637 213.322C956.091 214.267 955.341 215.016 954.388 215.571C953.435 216.117 952.351 216.39 951.138 216.39ZM951.138 214.167C951.875 214.167 952.542 213.989 953.14 213.634C953.738 213.279 954.215 212.802 954.57 212.204C954.925 211.597 955.103 210.93 955.103 210.202V203.065C955.103 202.328 954.925 201.661 954.57 201.063C954.215 200.465 953.738 199.988 953.14 199.633C952.542 199.278 951.875 199.1 951.138 199.1C950.41 199.1 949.743 199.278 949.136 199.633C948.538 199.988 948.061 200.465 947.706 201.063C947.351 201.661 947.173 202.328 947.173 203.065V210.202C947.173 210.93 947.351 211.597 947.706 212.204C948.061 212.802 948.538 213.279 949.136 213.634C949.743 213.989 950.41 214.167 951.138 214.167ZM960.575 215.987L960.588 213.907L968.895 206.432C969.589 205.808 970.052 205.219 970.286 204.664C970.529 204.101 970.65 203.524 970.65 202.935C970.65 202.216 970.486 201.566 970.156 200.985C969.827 200.404 969.376 199.945 968.804 199.607C968.241 199.269 967.6 199.1 966.88 199.1C966.135 199.1 965.472 199.278 964.891 199.633C964.311 199.98 963.851 200.443 963.513 201.024C963.184 201.605 963.024 202.237 963.032 202.922H960.666C960.666 201.743 960.939 200.703 961.485 199.802C962.031 198.892 962.772 198.181 963.708 197.67C964.653 197.15 965.723 196.89 966.919 196.89C968.081 196.89 969.121 197.159 970.039 197.696C970.958 198.225 971.682 198.948 972.21 199.867C972.748 200.777 973.016 201.808 973.016 202.961C973.016 203.776 972.912 204.482 972.704 205.08C972.505 205.678 972.193 206.233 971.768 206.744C971.344 207.247 970.811 207.784 970.169 208.356L963.266 214.557L962.967 213.777H973.016V215.987H960.575Z" fill="white"/>
<rect x="660" y="602" width="56" height="56" rx="28" fill="#161616"/>
<path d="M680.638 640.39C679.425 640.39 678.341 640.117 677.388 639.571C676.443 639.016 675.694 638.267 675.139 637.322C674.593 636.369 674.32 635.285 674.32 634.072V627.208C674.32 625.995 674.593 624.911 675.139 623.958C675.694 623.005 676.443 622.255 677.388 621.709C678.341 621.163 679.425 620.89 680.638 620.89C681.851 620.89 682.935 621.163 683.888 621.709C684.841 622.255 685.591 623.005 686.137 623.958C686.683 624.911 686.956 625.995 686.956 627.208V634.072C686.956 635.285 686.683 636.369 686.137 637.322C685.591 638.267 684.841 639.016 683.888 639.571C682.935 640.117 681.851 640.39 680.638 640.39ZM680.638 638.167C681.375 638.167 682.042 637.989 682.64 637.634C683.238 637.279 683.715 636.802 684.07 636.204C684.425 635.597 684.603 634.93 684.603 634.202V627.065C684.603 626.328 684.425 625.661 684.07 625.063C683.715 624.465 683.238 623.988 682.64 623.633C682.042 623.278 681.375 623.1 680.638 623.1C679.91 623.1 679.243 623.278 678.636 623.633C678.038 623.988 677.561 624.465 677.206 625.063C676.851 625.661 676.673 626.328 676.673 627.065V634.202C676.673 634.93 676.851 635.597 677.206 636.204C677.561 636.802 678.038 637.279 678.636 637.634C679.243 637.989 679.91 638.167 680.638 638.167ZM695.73 640.364C694.803 640.364 693.941 640.195 693.143 639.857C692.346 639.51 691.657 639.025 691.076 638.401C690.504 637.768 690.084 637.019 689.815 636.152L692.038 635.515C692.324 636.382 692.801 637.04 693.468 637.491C694.136 637.942 694.885 638.163 695.717 638.154C696.48 638.137 697.139 637.963 697.693 637.634C698.257 637.296 698.69 636.837 698.993 636.256C699.305 635.675 699.461 635.004 699.461 634.241C699.461 633.08 699.115 632.139 698.421 631.42C697.728 630.692 696.818 630.328 695.691 630.328C695.379 630.328 695.05 630.371 694.703 630.458C694.365 630.545 694.049 630.666 693.754 630.822L692.636 628.989L699.578 622.71L699.877 623.49H690.556V621.28H701.593V623.503L695.678 629.171L695.652 628.352C696.892 628.265 697.975 628.469 698.902 628.963C699.83 629.457 700.549 630.163 701.06 631.082C701.58 632.001 701.84 633.054 701.84 634.241C701.84 635.437 701.572 636.494 701.034 637.413C700.497 638.332 699.769 639.055 698.85 639.584C697.932 640.104 696.892 640.364 695.73 640.364Z" fill="white"/>
</svg>
