<svg width="1307" height="987" viewBox="0 0 1307 987" fill="none" xmlns="http://www.w3.org/2000/svg">
<path d="M559.069 461.61C537.329 403.733 554.938 337.249 601.136 276.51C647.33 215.777 722.064 160.855 814.401 126.171C906.737 91.4869 999.148 83.6243 1073.9 98.9262C1148.66 114.23 1205.69 152.679 1227.43 210.556C1249.17 268.432 1231.56 334.916 1185.36 395.656C1139.17 456.389 1064.43 511.311 972.097 545.995C879.761 580.679 787.35 588.541 712.596 573.239C637.834 557.936 580.808 519.486 559.069 461.61Z" fill="#F4F8FF" stroke="#161616"/>
<path d="M70.7944 610.54C51.4643 559.079 70.4368 498.686 116.948 442.598C163.449 386.523 237.411 334.844 327.822 300.884C418.233 266.923 507.928 257.127 579.847 268.721C651.782 280.317 705.824 313.285 725.154 364.745C744.484 416.206 725.511 476.6 679 532.687C632.499 588.762 558.537 640.441 468.126 674.402C377.715 708.363 288.02 718.158 216.101 706.565C144.166 694.969 90.1245 662.001 70.7944 610.54Z" stroke="#161616"/>
<path d="M642.513 946.953C591.134 936.307 550.582 897.666 526.58 843.709C502.578 789.753 495.147 720.518 510.007 648.8C524.868 577.082 559.196 516.5 602.661 476.523C646.127 436.545 698.694 417.199 750.073 427.844C801.451 438.49 842.003 477.131 866.006 531.088C890.008 585.044 897.438 654.279 882.578 725.997C867.718 797.715 833.389 858.298 789.924 898.275C746.459 938.252 693.891 957.599 642.513 946.953Z" stroke="#161616"/>
<path d="M270.32 531.391V502.591H281.84C283.893 502.591 285.553 503.004 286.82 503.831C288.086 504.644 289.013 505.671 289.6 506.911C290.186 508.151 290.48 509.404 290.48 510.671C290.48 512.284 290.113 513.624 289.38 514.691C288.66 515.757 287.666 516.471 286.4 516.831V515.831C288.2 516.204 289.546 517.037 290.44 518.331C291.346 519.624 291.8 521.071 291.8 522.671C291.8 524.391 291.48 525.904 290.84 527.211C290.213 528.517 289.253 529.544 287.96 530.291C286.666 531.024 285.04 531.391 283.08 531.391H270.32ZM275.84 526.271H282.52C283.253 526.271 283.906 526.117 284.48 525.811C285.053 525.491 285.5 525.051 285.82 524.491C286.153 523.917 286.32 523.244 286.32 522.471C286.32 521.791 286.18 521.184 285.9 520.651C285.62 520.117 285.193 519.697 284.62 519.391C284.06 519.071 283.36 518.911 282.52 518.911H275.84V526.271ZM275.84 513.831H281.76C282.373 513.831 282.92 513.724 283.4 513.511C283.88 513.297 284.26 512.971 284.54 512.531C284.82 512.077 284.96 511.497 284.96 510.791C284.96 509.911 284.686 509.171 284.14 508.571C283.593 507.971 282.8 507.671 281.76 507.671H275.84V513.831ZM301.788 531.991C300.242 531.991 298.928 531.697 297.848 531.111C296.782 530.511 295.968 529.717 295.408 528.731C294.862 527.731 294.588 526.631 294.588 525.431C294.588 524.431 294.742 523.517 295.048 522.691C295.355 521.864 295.848 521.137 296.528 520.511C297.222 519.871 298.148 519.337 299.308 518.911C300.108 518.617 301.062 518.357 302.168 518.131C303.275 517.904 304.528 517.691 305.928 517.491C307.328 517.277 308.868 517.044 310.548 516.791L308.588 517.871C308.588 516.591 308.282 515.651 307.668 515.051C307.055 514.451 306.028 514.151 304.588 514.151C303.788 514.151 302.955 514.344 302.088 514.731C301.222 515.117 300.615 515.804 300.268 516.791L295.348 515.231C295.895 513.444 296.922 511.991 298.428 510.871C299.935 509.751 301.988 509.191 304.588 509.191C306.495 509.191 308.188 509.484 309.668 510.071C311.148 510.657 312.268 511.671 313.028 513.111C313.455 513.911 313.708 514.711 313.788 515.511C313.868 516.311 313.908 517.204 313.908 518.191V531.391H309.148V526.951L309.828 527.871C308.775 529.324 307.635 530.377 306.408 531.031C305.195 531.671 303.655 531.991 301.788 531.991ZM302.948 527.711C303.948 527.711 304.788 527.537 305.468 527.191C306.162 526.831 306.708 526.424 307.108 525.971C307.522 525.517 307.802 525.137 307.948 524.831C308.228 524.244 308.388 523.564 308.428 522.791C308.482 522.004 308.508 521.351 308.508 520.831L310.108 521.231C308.495 521.497 307.188 521.724 306.188 521.911C305.188 522.084 304.382 522.244 303.768 522.391C303.155 522.537 302.615 522.697 302.148 522.871C301.615 523.084 301.182 523.317 300.848 523.571C300.528 523.811 300.288 524.077 300.128 524.371C299.982 524.664 299.908 524.991 299.908 525.351C299.908 525.844 300.028 526.271 300.268 526.631C300.522 526.977 300.875 527.244 301.328 527.431C301.782 527.617 302.322 527.711 302.948 527.711ZM327.549 531.991C324.829 531.991 322.629 531.377 320.949 530.151C319.282 528.911 318.269 527.164 317.909 524.911L323.469 524.071C323.695 525.084 324.195 525.877 324.969 526.451C325.755 527.024 326.749 527.311 327.949 527.311C328.935 527.311 329.695 527.124 330.229 526.751C330.762 526.364 331.029 525.831 331.029 525.151C331.029 524.724 330.922 524.384 330.709 524.131C330.495 523.864 330.015 523.604 329.269 523.351C328.535 523.097 327.389 522.764 325.829 522.351C324.069 521.897 322.662 521.391 321.609 520.831C320.555 520.271 319.795 519.604 319.329 518.831C318.862 518.044 318.629 517.097 318.629 515.991C318.629 514.604 318.982 513.404 319.689 512.391C320.395 511.364 321.389 510.577 322.669 510.031C323.962 509.471 325.482 509.191 327.229 509.191C328.922 509.191 330.422 509.451 331.729 509.971C333.035 510.491 334.089 511.231 334.889 512.191C335.702 513.151 336.202 514.284 336.389 515.591L330.829 516.591C330.735 515.791 330.389 515.157 329.789 514.691C329.189 514.224 328.375 513.951 327.349 513.871C326.349 513.804 325.542 513.937 324.929 514.271C324.329 514.604 324.029 515.084 324.029 515.711C324.029 516.084 324.155 516.397 324.409 516.651C324.675 516.904 325.215 517.164 326.029 517.431C326.855 517.697 328.109 518.044 329.789 518.471C331.429 518.897 332.742 519.397 333.729 519.971C334.729 520.531 335.455 521.211 335.909 522.011C336.362 522.797 336.589 523.751 336.589 524.871C336.589 527.084 335.789 528.824 334.189 530.091C332.589 531.357 330.375 531.991 327.549 531.991ZM341.384 506.791V501.991H346.824V506.791H341.384ZM341.384 531.391V509.791H346.824V531.391H341.384ZM362.34 531.991C360.1 531.991 358.18 531.491 356.58 530.491C354.98 529.491 353.753 528.131 352.9 526.411C352.046 524.691 351.62 522.751 351.62 520.591C351.62 518.404 352.06 516.451 352.94 514.731C353.833 513.011 355.086 511.657 356.7 510.671C358.313 509.684 360.22 509.191 362.42 509.191C364.966 509.191 367.1 509.837 368.82 511.131C370.553 512.411 371.66 514.164 372.14 516.391L366.7 517.831C366.38 516.711 365.82 515.837 365.02 515.211C364.233 514.584 363.34 514.271 362.34 514.271C361.193 514.271 360.253 514.551 359.52 515.111C358.786 515.657 358.246 516.411 357.9 517.371C357.553 518.317 357.38 519.391 357.38 520.591C357.38 522.471 357.793 523.997 358.62 525.171C359.46 526.331 360.7 526.911 362.34 526.911C363.566 526.911 364.5 526.631 365.14 526.071C365.78 525.511 366.26 524.711 366.58 523.671L372.14 524.831C371.526 527.124 370.366 528.891 368.66 530.131C366.953 531.371 364.846 531.991 362.34 531.991ZM395.028 531.991C392.894 531.991 390.968 531.617 389.248 530.871C387.541 530.111 386.134 529.031 385.028 527.631C383.934 526.217 383.241 524.537 382.948 522.591L388.628 521.751C389.028 523.404 389.854 524.677 391.108 525.571C392.361 526.464 393.788 526.911 395.388 526.911C396.281 526.911 397.148 526.771 397.988 526.491C398.828 526.211 399.514 525.797 400.048 525.251C400.594 524.704 400.868 524.031 400.868 523.231C400.868 522.937 400.821 522.657 400.728 522.391C400.648 522.111 400.508 521.851 400.308 521.611C400.108 521.371 399.821 521.144 399.448 520.931C399.088 520.717 398.628 520.524 398.068 520.351L390.588 518.151C390.028 517.991 389.374 517.764 388.628 517.471C387.894 517.177 387.181 516.757 386.488 516.211C385.794 515.664 385.214 514.944 384.748 514.051C384.294 513.144 384.068 512.004 384.068 510.631C384.068 508.697 384.554 507.091 385.528 505.811C386.501 504.531 387.801 503.577 389.428 502.951C391.054 502.324 392.854 502.017 394.828 502.031C396.814 502.057 398.588 502.397 400.148 503.051C401.708 503.704 403.014 504.657 404.068 505.911C405.121 507.151 405.881 508.671 406.348 510.471L400.468 511.471C400.254 510.537 399.861 509.751 399.288 509.111C398.714 508.471 398.028 507.984 397.228 507.651C396.441 507.317 395.614 507.137 394.748 507.111C393.894 507.084 393.088 507.204 392.328 507.471C391.581 507.724 390.968 508.097 390.488 508.591C390.021 509.084 389.788 509.671 389.788 510.351C389.788 510.977 389.981 511.491 390.368 511.891C390.754 512.277 391.241 512.591 391.828 512.831C392.414 513.071 393.014 513.271 393.628 513.431L398.628 514.791C399.374 514.991 400.201 515.257 401.108 515.591C402.014 515.911 402.881 516.364 403.708 516.951C404.548 517.524 405.234 518.284 405.768 519.231C406.314 520.177 406.588 521.377 406.588 522.831C406.588 524.377 406.261 525.731 405.608 526.891C404.968 528.037 404.101 528.991 403.008 529.751C401.914 530.497 400.674 531.057 399.288 531.431C397.914 531.804 396.494 531.991 395.028 531.991ZM410.944 531.391L410.984 502.591H416.504V520.191L423.824 509.791H430.544L422.744 520.591L431.064 531.391H423.984L416.504 520.991V531.391H410.944ZM433.454 506.791V501.991H438.894V506.791H433.454ZM433.454 531.391V509.791H438.894V531.391H433.454ZM445.29 531.391V501.991H450.73V531.391H445.29ZM457.126 531.391V501.991H462.566V531.391H457.126ZM477.002 531.991C474.282 531.991 472.082 531.377 470.402 530.151C468.735 528.911 467.722 527.164 467.362 524.911L472.922 524.071C473.148 525.084 473.648 525.877 474.422 526.451C475.208 527.024 476.202 527.311 477.402 527.311C478.388 527.311 479.148 527.124 479.682 526.751C480.215 526.364 480.482 525.831 480.482 525.151C480.482 524.724 480.375 524.384 480.162 524.131C479.948 523.864 479.468 523.604 478.722 523.351C477.988 523.097 476.842 522.764 475.282 522.351C473.522 521.897 472.115 521.391 471.062 520.831C470.008 520.271 469.248 519.604 468.782 518.831C468.315 518.044 468.082 517.097 468.082 515.991C468.082 514.604 468.435 513.404 469.142 512.391C469.848 511.364 470.842 510.577 472.122 510.031C473.415 509.471 474.935 509.191 476.682 509.191C478.375 509.191 479.875 509.451 481.182 509.971C482.488 510.491 483.542 511.231 484.342 512.191C485.155 513.151 485.655 514.284 485.842 515.591L480.282 516.591C480.188 515.791 479.842 515.157 479.242 514.691C478.642 514.224 477.828 513.951 476.802 513.871C475.802 513.804 474.995 513.937 474.382 514.271C473.782 514.604 473.482 515.084 473.482 515.711C473.482 516.084 473.608 516.397 473.862 516.651C474.128 516.904 474.668 517.164 475.482 517.431C476.308 517.697 477.562 518.044 479.242 518.471C480.882 518.897 482.195 519.397 483.182 519.971C484.182 520.531 484.908 521.211 485.362 522.011C485.815 522.797 486.042 523.751 486.042 524.871C486.042 527.084 485.242 528.824 483.642 530.091C482.042 531.357 479.828 531.991 477.002 531.991Z" fill="#191A1B"/>
<path d="M862.964 326.391L871.764 297.591H879.884L888.684 326.391H883.084L875.244 300.991H876.284L868.564 326.391H862.964ZM868.244 320.391V315.311H883.444V320.391H868.244ZM896.507 326.391L888.667 304.791H894.107L899.227 319.751L904.347 304.791H909.787L901.947 326.391H896.507ZM922.66 326.991C920.447 326.991 918.494 326.517 916.8 325.571C915.12 324.611 913.8 323.297 912.84 321.631C911.894 319.951 911.42 318.031 911.42 315.871C911.42 313.511 911.887 311.457 912.82 309.711C913.754 307.964 915.04 306.611 916.68 305.651C918.32 304.677 920.207 304.191 922.34 304.191C924.607 304.191 926.534 304.724 928.12 305.791C929.707 306.857 930.88 308.357 931.64 310.291C932.4 312.224 932.667 314.497 932.44 317.111H927.06V315.111C927.06 312.911 926.707 311.331 926 310.371C925.307 309.397 924.167 308.911 922.58 308.911C920.727 308.911 919.36 309.477 918.48 310.611C917.614 311.731 917.18 313.391 917.18 315.591C917.18 317.604 917.614 319.164 918.48 320.271C919.36 321.364 920.647 321.911 922.34 321.911C923.407 321.911 924.32 321.677 925.08 321.211C925.84 320.744 926.42 320.071 926.82 319.191L932.26 320.751C931.447 322.724 930.16 324.257 928.4 325.351C926.654 326.444 924.74 326.991 922.66 326.991ZM915.5 317.111V313.071H929.82V317.111H915.5ZM936.956 326.391V304.791H941.756V310.071L941.236 309.391C941.516 308.644 941.89 307.964 942.356 307.351C942.823 306.737 943.396 306.231 944.076 305.831C944.596 305.511 945.163 305.264 945.776 305.091C946.39 304.904 947.023 304.791 947.676 304.751C948.33 304.697 948.983 304.711 949.636 304.791V309.871C949.036 309.684 948.336 309.624 947.536 309.691C946.75 309.744 946.036 309.924 945.396 310.231C944.756 310.524 944.216 310.917 943.776 311.411C943.336 311.891 943.003 312.464 942.776 313.131C942.55 313.784 942.436 314.524 942.436 315.351V326.391H936.956ZM959.011 326.991C957.464 326.991 956.151 326.697 955.071 326.111C954.004 325.511 953.191 324.717 952.631 323.731C952.084 322.731 951.811 321.631 951.811 320.431C951.811 319.431 951.964 318.517 952.271 317.691C952.578 316.864 953.071 316.137 953.751 315.511C954.444 314.871 955.371 314.337 956.531 313.911C957.331 313.617 958.284 313.357 959.391 313.131C960.498 312.904 961.751 312.691 963.151 312.491C964.551 312.277 966.091 312.044 967.771 311.791L965.811 312.871C965.811 311.591 965.504 310.651 964.891 310.051C964.278 309.451 963.251 309.151 961.811 309.151C961.011 309.151 960.178 309.344 959.311 309.731C958.444 310.117 957.838 310.804 957.491 311.791L952.571 310.231C953.118 308.444 954.144 306.991 955.651 305.871C957.158 304.751 959.211 304.191 961.811 304.191C963.718 304.191 965.411 304.484 966.891 305.071C968.371 305.657 969.491 306.671 970.251 308.111C970.678 308.911 970.931 309.711 971.011 310.511C971.091 311.311 971.131 312.204 971.131 313.191V326.391H966.371V321.951L967.051 322.871C965.998 324.324 964.858 325.377 963.631 326.031C962.418 326.671 960.878 326.991 959.011 326.991ZM960.171 322.711C961.171 322.711 962.011 322.537 962.691 322.191C963.384 321.831 963.931 321.424 964.331 320.971C964.744 320.517 965.024 320.137 965.171 319.831C965.451 319.244 965.611 318.564 965.651 317.791C965.704 317.004 965.731 316.351 965.731 315.831L967.331 316.231C965.718 316.497 964.411 316.724 963.411 316.911C962.411 317.084 961.604 317.244 960.991 317.391C960.378 317.537 959.838 317.697 959.371 317.871C958.838 318.084 958.404 318.317 958.071 318.571C957.751 318.811 957.511 319.077 957.351 319.371C957.204 319.664 957.131 319.991 957.131 320.351C957.131 320.844 957.251 321.271 957.491 321.631C957.744 321.977 958.098 322.244 958.551 322.431C959.004 322.617 959.544 322.711 960.171 322.711ZM985.571 336.591C984.345 336.591 983.178 336.391 982.071 335.991C980.965 335.604 979.971 335.057 979.091 334.351C978.225 333.657 977.518 332.844 976.971 331.911L982.011 329.471C982.358 330.111 982.851 330.597 983.491 330.931C984.145 331.264 984.851 331.431 985.611 331.431C986.425 331.431 987.191 331.291 987.911 331.011C988.631 330.744 989.205 330.337 989.631 329.791C990.071 329.257 990.278 328.591 990.251 327.791V321.511H990.931V304.791H995.691V327.871C995.691 328.404 995.665 328.904 995.611 329.371C995.571 329.851 995.491 330.324 995.371 330.791C995.025 332.111 994.378 333.197 993.431 334.051C992.498 334.904 991.351 335.537 989.991 335.951C988.631 336.377 987.158 336.591 985.571 336.591ZM985.091 326.991C983.105 326.991 981.365 326.491 979.871 325.491C978.378 324.491 977.211 323.131 976.371 321.411C975.545 319.691 975.131 317.751 975.131 315.591C975.131 313.391 975.551 311.437 976.391 309.731C977.245 308.011 978.438 306.657 979.971 305.671C981.505 304.684 983.305 304.191 985.371 304.191C987.425 304.191 989.151 304.691 990.551 305.691C991.951 306.691 993.011 308.051 993.731 309.771C994.451 311.491 994.811 313.431 994.811 315.591C994.811 317.751 994.445 319.691 993.711 321.411C992.991 323.131 991.911 324.491 990.471 325.491C989.031 326.491 987.238 326.991 985.091 326.991ZM985.971 322.151C987.185 322.151 988.151 321.877 988.871 321.331C989.605 320.784 990.131 320.017 990.451 319.031C990.771 318.044 990.931 316.897 990.931 315.591C990.931 314.284 990.771 313.137 990.451 312.151C990.131 311.164 989.618 310.397 988.911 309.851C988.218 309.304 987.305 309.031 986.171 309.031C984.958 309.031 983.958 309.331 983.171 309.931C982.398 310.517 981.825 311.311 981.451 312.311C981.078 313.297 980.891 314.391 980.891 315.591C980.891 316.804 981.071 317.911 981.431 318.911C981.791 319.897 982.345 320.684 983.091 321.271C983.838 321.857 984.798 322.151 985.971 322.151ZM1011.33 326.991C1009.12 326.991 1007.17 326.517 1005.47 325.571C1003.79 324.611 1002.47 323.297 1001.51 321.631C1000.57 319.951 1000.09 318.031 1000.09 315.871C1000.09 313.511 1000.56 311.457 1001.49 309.711C1002.43 307.964 1003.71 306.611 1005.35 305.651C1006.99 304.677 1008.88 304.191 1011.01 304.191C1013.28 304.191 1015.21 304.724 1016.79 305.791C1018.38 306.857 1019.55 308.357 1020.31 310.291C1021.07 312.224 1021.34 314.497 1021.11 317.111H1015.73V315.111C1015.73 312.911 1015.38 311.331 1014.67 310.371C1013.98 309.397 1012.84 308.911 1011.25 308.911C1009.4 308.911 1008.03 309.477 1007.15 310.611C1006.29 311.731 1005.85 313.391 1005.85 315.591C1005.85 317.604 1006.29 319.164 1007.15 320.271C1008.03 321.364 1009.32 321.911 1011.01 321.911C1012.08 321.911 1012.99 321.677 1013.75 321.211C1014.51 320.744 1015.09 320.071 1015.49 319.191L1020.93 320.751C1020.12 322.724 1018.83 324.257 1017.07 325.351C1015.33 326.444 1013.41 326.991 1011.33 326.991ZM1004.17 317.111V313.071H1018.49V317.111H1004.17ZM903.072 381.991C900.352 381.991 898.152 381.377 896.472 380.151C894.805 378.911 893.792 377.164 893.432 374.911L898.992 374.071C899.219 375.084 899.719 375.877 900.492 376.451C901.279 377.024 902.272 377.311 903.472 377.311C904.459 377.311 905.219 377.124 905.752 376.751C906.285 376.364 906.552 375.831 906.552 375.151C906.552 374.724 906.445 374.384 906.232 374.131C906.019 373.864 905.539 373.604 904.792 373.351C904.059 373.097 902.912 372.764 901.352 372.351C899.592 371.897 898.185 371.391 897.132 370.831C896.079 370.271 895.319 369.604 894.852 368.831C894.385 368.044 894.152 367.097 894.152 365.991C894.152 364.604 894.505 363.404 895.212 362.391C895.919 361.364 896.912 360.577 898.192 360.031C899.485 359.471 901.005 359.191 902.752 359.191C904.445 359.191 905.945 359.451 907.252 359.971C908.559 360.491 909.612 361.231 910.412 362.191C911.225 363.151 911.725 364.284 911.912 365.591L906.352 366.591C906.259 365.791 905.912 365.157 905.312 364.691C904.712 364.224 903.899 363.951 902.872 363.871C901.872 363.804 901.065 363.937 900.452 364.271C899.852 364.604 899.552 365.084 899.552 365.711C899.552 366.084 899.679 366.397 899.932 366.651C900.199 366.904 900.739 367.164 901.552 367.431C902.379 367.697 903.632 368.044 905.312 368.471C906.952 368.897 908.265 369.397 909.252 369.971C910.252 370.531 910.979 371.211 911.432 372.011C911.885 372.797 912.112 373.751 912.112 374.871C912.112 377.084 911.312 378.824 909.712 380.091C908.112 381.357 905.899 381.991 903.072 381.991ZM916.467 381.391L916.507 352.591H922.027V370.191L929.347 359.791H936.067L928.267 370.591L936.587 381.391H929.507L922.027 370.991V381.391H916.467ZM938.977 356.791V351.991H944.417V356.791H938.977ZM938.977 381.391V359.791H944.417V381.391H938.977ZM950.813 381.391V351.991H956.253V381.391H950.813ZM962.649 381.391V351.991H968.089V381.391H962.649ZM982.525 381.991C979.805 381.991 977.605 381.377 975.925 380.151C974.258 378.911 973.245 377.164 972.885 374.911L978.445 374.071C978.672 375.084 979.172 375.877 979.945 376.451C980.732 377.024 981.725 377.311 982.925 377.311C983.912 377.311 984.672 377.124 985.205 376.751C985.738 376.364 986.005 375.831 986.005 375.151C986.005 374.724 985.898 374.384 985.685 374.131C985.472 373.864 984.992 373.604 984.245 373.351C983.512 373.097 982.365 372.764 980.805 372.351C979.045 371.897 977.638 371.391 976.585 370.831C975.532 370.271 974.772 369.604 974.305 368.831C973.838 368.044 973.605 367.097 973.605 365.991C973.605 364.604 973.958 363.404 974.665 362.391C975.372 361.364 976.365 360.577 977.645 360.031C978.938 359.471 980.458 359.191 982.205 359.191C983.898 359.191 985.398 359.451 986.705 359.971C988.012 360.491 989.065 361.231 989.865 362.191C990.678 363.151 991.178 364.284 991.365 365.591L985.805 366.591C985.712 365.791 985.365 365.157 984.765 364.691C984.165 364.224 983.352 363.951 982.325 363.871C981.325 363.804 980.518 363.937 979.905 364.271C979.305 364.604 979.005 365.084 979.005 365.711C979.005 366.084 979.132 366.397 979.385 366.651C979.652 366.904 980.192 367.164 981.005 367.431C981.832 367.697 983.085 368.044 984.765 368.471C986.405 368.897 987.718 369.397 988.705 369.971C989.705 370.531 990.432 371.211 990.885 372.011C991.338 372.797 991.565 373.751 991.565 374.871C991.565 377.084 990.765 378.824 989.165 380.091C987.565 381.357 985.352 381.991 982.525 381.991Z" fill="#191A1B"/>
<path d="M534.519 743.391L543.319 714.591H551.439L560.239 743.391H554.639L546.799 717.991H547.839L540.119 743.391H534.519ZM539.799 737.391V732.311H554.999V737.391H539.799ZM572.583 743.991C570.597 743.991 568.857 743.491 567.363 742.491C565.87 741.491 564.703 740.131 563.863 738.411C563.037 736.691 562.623 734.751 562.623 732.591C562.623 730.391 563.043 728.437 563.883 726.731C564.737 725.011 565.93 723.657 567.463 722.671C568.997 721.684 570.797 721.191 572.863 721.191C574.917 721.191 576.643 721.691 578.043 722.691C579.443 723.691 580.503 725.051 581.223 726.771C581.943 728.491 582.303 730.431 582.303 732.591C582.303 734.751 581.937 736.691 581.203 738.411C580.483 740.131 579.403 741.491 577.963 742.491C576.523 743.491 574.73 743.991 572.583 743.991ZM573.463 739.151C574.677 739.151 575.643 738.877 576.363 738.331C577.097 737.784 577.623 737.017 577.943 736.031C578.263 735.044 578.423 733.897 578.423 732.591C578.423 731.284 578.263 730.137 577.943 729.151C577.623 728.164 577.11 727.397 576.403 726.851C575.71 726.304 574.797 726.031 573.663 726.031C572.45 726.031 571.45 726.331 570.663 726.931C569.89 727.517 569.317 728.311 568.943 729.311C568.57 730.297 568.383 731.391 568.383 732.591C568.383 733.804 568.563 734.911 568.923 735.911C569.283 736.897 569.837 737.684 570.583 738.271C571.33 738.857 572.29 739.151 573.463 739.151ZM578.423 743.391V728.591H577.743V714.591H583.223V743.391H578.423ZM594.663 743.391L586.823 721.791H592.263L597.383 736.751L602.503 721.791H607.943L600.103 743.391H594.663ZM616.347 743.991C614.8 743.991 613.487 743.697 612.407 743.111C611.34 742.511 610.527 741.717 609.967 740.731C609.42 739.731 609.147 738.631 609.147 737.431C609.147 736.431 609.3 735.517 609.607 734.691C609.914 733.864 610.407 733.137 611.087 732.511C611.78 731.871 612.707 731.337 613.867 730.911C614.667 730.617 615.62 730.357 616.727 730.131C617.834 729.904 619.087 729.691 620.487 729.491C621.887 729.277 623.427 729.044 625.107 728.791L623.147 729.871C623.147 728.591 622.84 727.651 622.227 727.051C621.614 726.451 620.587 726.151 619.147 726.151C618.347 726.151 617.514 726.344 616.647 726.731C615.78 727.117 615.174 727.804 614.827 728.791L609.907 727.231C610.454 725.444 611.48 723.991 612.987 722.871C614.494 721.751 616.547 721.191 619.147 721.191C621.054 721.191 622.747 721.484 624.227 722.071C625.707 722.657 626.827 723.671 627.587 725.111C628.014 725.911 628.267 726.711 628.347 727.511C628.427 728.311 628.467 729.204 628.467 730.191V743.391H623.707V738.951L624.387 739.871C623.334 741.324 622.194 742.377 620.967 743.031C619.754 743.671 618.214 743.991 616.347 743.991ZM617.507 739.711C618.507 739.711 619.347 739.537 620.027 739.191C620.72 738.831 621.267 738.424 621.667 737.971C622.08 737.517 622.36 737.137 622.507 736.831C622.787 736.244 622.947 735.564 622.987 734.791C623.04 734.004 623.067 733.351 623.067 732.831L624.667 733.231C623.054 733.497 621.747 733.724 620.747 733.911C619.747 734.084 618.94 734.244 618.327 734.391C617.714 734.537 617.174 734.697 616.707 734.871C616.174 735.084 615.74 735.317 615.407 735.571C615.087 735.811 614.847 736.077 614.687 736.371C614.54 736.664 614.467 736.991 614.467 737.351C614.467 737.844 614.587 738.271 614.827 738.631C615.08 738.977 615.434 739.244 615.887 739.431C616.34 739.617 616.88 739.711 617.507 739.711ZM648.387 743.391V733.191C648.387 732.697 648.361 732.071 648.307 731.311C648.254 730.537 648.087 729.764 647.807 728.991C647.527 728.217 647.067 727.571 646.427 727.051C645.801 726.531 644.907 726.271 643.747 726.271C643.281 726.271 642.781 726.344 642.247 726.491C641.714 726.637 641.214 726.924 640.747 727.351C640.281 727.764 639.894 728.377 639.587 729.191C639.294 730.004 639.147 731.084 639.147 732.431L636.027 730.951C636.027 729.244 636.374 727.644 637.067 726.151C637.761 724.657 638.801 723.451 640.187 722.531C641.587 721.611 643.347 721.151 645.467 721.151C647.161 721.151 648.541 721.437 649.607 722.011C650.674 722.584 651.501 723.311 652.087 724.191C652.687 725.071 653.114 725.991 653.367 726.951C653.621 727.897 653.774 728.764 653.827 729.551C653.881 730.337 653.907 730.911 653.907 731.271V743.391H648.387ZM633.627 743.391V721.791H638.467V728.951H639.147V743.391H633.627ZM668.226 743.991C665.986 743.991 664.066 743.491 662.466 742.491C660.866 741.491 659.64 740.131 658.786 738.411C657.933 736.691 657.506 734.751 657.506 732.591C657.506 730.404 657.946 728.451 658.826 726.731C659.72 725.011 660.973 723.657 662.586 722.671C664.2 721.684 666.106 721.191 668.306 721.191C670.853 721.191 672.986 721.837 674.706 723.131C676.44 724.411 677.546 726.164 678.026 728.391L672.586 729.831C672.266 728.711 671.706 727.837 670.906 727.211C670.12 726.584 669.226 726.271 668.226 726.271C667.08 726.271 666.14 726.551 665.406 727.111C664.673 727.657 664.133 728.411 663.786 729.371C663.44 730.317 663.266 731.391 663.266 732.591C663.266 734.471 663.68 735.997 664.506 737.171C665.346 738.331 666.586 738.911 668.226 738.911C669.453 738.911 670.386 738.631 671.026 738.071C671.666 737.511 672.146 736.711 672.466 735.671L678.026 736.831C677.413 739.124 676.253 740.891 674.546 742.131C672.84 743.371 670.733 743.991 668.226 743.991ZM691.481 743.991C689.267 743.991 687.314 743.517 685.621 742.571C683.941 741.611 682.621 740.297 681.661 738.631C680.714 736.951 680.241 735.031 680.241 732.871C680.241 730.511 680.707 728.457 681.641 726.711C682.574 724.964 683.861 723.611 685.501 722.651C687.141 721.677 689.027 721.191 691.161 721.191C693.427 721.191 695.354 721.724 696.941 722.791C698.527 723.857 699.701 725.357 700.461 727.291C701.221 729.224 701.487 731.497 701.261 734.111H695.881V732.111C695.881 729.911 695.527 728.331 694.821 727.371C694.127 726.397 692.987 725.911 691.401 725.911C689.547 725.911 688.181 726.477 687.301 727.611C686.434 728.731 686.001 730.391 686.001 732.591C686.001 734.604 686.434 736.164 687.301 737.271C688.181 738.364 689.467 738.911 691.161 738.911C692.227 738.911 693.141 738.677 693.901 738.211C694.661 737.744 695.241 737.071 695.641 736.191L701.081 737.751C700.267 739.724 698.981 741.257 697.221 742.351C695.474 743.444 693.561 743.991 691.481 743.991ZM684.321 734.111V730.071H698.641V734.111H684.321ZM714.537 743.991C712.55 743.991 710.81 743.491 709.317 742.491C707.823 741.491 706.657 740.131 705.817 738.411C704.99 736.691 704.577 734.751 704.577 732.591C704.577 730.391 704.997 728.437 705.837 726.731C706.69 725.011 707.883 723.657 709.417 722.671C710.95 721.684 712.75 721.191 714.817 721.191C716.87 721.191 718.597 721.691 719.997 722.691C721.397 723.691 722.457 725.051 723.177 726.771C723.897 728.491 724.257 730.431 724.257 732.591C724.257 734.751 723.89 736.691 723.157 738.411C722.437 740.131 721.357 741.491 719.917 742.491C718.477 743.491 716.683 743.991 714.537 743.991ZM715.417 739.151C716.63 739.151 717.597 738.877 718.317 738.331C719.05 737.784 719.577 737.017 719.897 736.031C720.217 735.044 720.377 733.897 720.377 732.591C720.377 731.284 720.217 730.137 719.897 729.151C719.577 728.164 719.063 727.397 718.357 726.851C717.663 726.304 716.75 726.031 715.617 726.031C714.403 726.031 713.403 726.331 712.617 726.931C711.843 727.517 711.27 728.311 710.897 729.311C710.523 730.297 710.337 731.391 710.337 732.591C710.337 733.804 710.517 734.911 710.877 735.911C711.237 736.897 711.79 737.684 712.537 738.271C713.283 738.857 714.243 739.151 715.417 739.151ZM720.377 743.391V728.591H719.697V714.591H725.177V743.391H720.377ZM749.664 743.991C747.531 743.991 745.604 743.617 743.884 742.871C742.178 742.111 740.771 741.031 739.664 739.631C738.571 738.217 737.878 736.537 737.584 734.591L743.264 733.751C743.664 735.404 744.491 736.677 745.744 737.571C746.998 738.464 748.424 738.911 750.024 738.911C750.918 738.911 751.784 738.771 752.624 738.491C753.464 738.211 754.151 737.797 754.684 737.251C755.231 736.704 755.504 736.031 755.504 735.231C755.504 734.937 755.458 734.657 755.364 734.391C755.284 734.111 755.144 733.851 754.944 733.611C754.744 733.371 754.458 733.144 754.084 732.931C753.724 732.717 753.264 732.524 752.704 732.351L745.224 730.151C744.664 729.991 744.011 729.764 743.264 729.471C742.531 729.177 741.818 728.757 741.124 728.211C740.431 727.664 739.851 726.944 739.384 726.051C738.931 725.144 738.704 724.004 738.704 722.631C738.704 720.697 739.191 719.091 740.164 717.811C741.138 716.531 742.438 715.577 744.064 714.951C745.691 714.324 747.491 714.017 749.464 714.031C751.451 714.057 753.224 714.397 754.784 715.051C756.344 715.704 757.651 716.657 758.704 717.911C759.758 719.151 760.518 720.671 760.984 722.471L755.104 723.471C754.891 722.537 754.498 721.751 753.924 721.111C753.351 720.471 752.664 719.984 751.864 719.651C751.078 719.317 750.251 719.137 749.384 719.111C748.531 719.084 747.724 719.204 746.964 719.471C746.218 719.724 745.604 720.097 745.124 720.591C744.658 721.084 744.424 721.671 744.424 722.351C744.424 722.977 744.618 723.491 745.004 723.891C745.391 724.277 745.878 724.591 746.464 724.831C747.051 725.071 747.651 725.271 748.264 725.431L753.264 726.791C754.011 726.991 754.838 727.257 755.744 727.591C756.651 727.911 757.518 728.364 758.344 728.951C759.184 729.524 759.871 730.284 760.404 731.231C760.951 732.177 761.224 733.377 761.224 734.831C761.224 736.377 760.898 737.731 760.244 738.891C759.604 740.037 758.738 740.991 757.644 741.751C756.551 742.497 755.311 743.057 753.924 743.431C752.551 743.804 751.131 743.991 749.664 743.991ZM765.58 743.391L765.62 714.591H771.14V732.191L778.46 721.791H785.18L777.38 732.591L785.7 743.391H778.62L771.14 732.991V743.391H765.58ZM788.091 718.791V713.991H793.531V718.791H788.091ZM788.091 743.391V721.791H793.531V743.391H788.091ZM799.927 743.391V713.991H805.367V743.391H799.927ZM811.763 743.391V713.991H817.203V743.391H811.763ZM831.638 743.991C828.918 743.991 826.718 743.377 825.038 742.151C823.372 740.911 822.358 739.164 821.998 736.911L827.558 736.071C827.785 737.084 828.285 737.877 829.058 738.451C829.845 739.024 830.838 739.311 832.038 739.311C833.025 739.311 833.785 739.124 834.318 738.751C834.852 738.364 835.118 737.831 835.118 737.151C835.118 736.724 835.012 736.384 834.798 736.131C834.585 735.864 834.105 735.604 833.358 735.351C832.625 735.097 831.478 734.764 829.918 734.351C828.158 733.897 826.752 733.391 825.698 732.831C824.645 732.271 823.885 731.604 823.418 730.831C822.952 730.044 822.718 729.097 822.718 727.991C822.718 726.604 823.072 725.404 823.778 724.391C824.485 723.364 825.478 722.577 826.758 722.031C828.052 721.471 829.572 721.191 831.318 721.191C833.012 721.191 834.512 721.451 835.818 721.971C837.125 722.491 838.178 723.231 838.978 724.191C839.792 725.151 840.292 726.284 840.478 727.591L834.918 728.591C834.825 727.791 834.478 727.157 833.878 726.691C833.278 726.224 832.465 725.951 831.438 725.871C830.438 725.804 829.632 725.937 829.018 726.271C828.418 726.604 828.118 727.084 828.118 727.711C828.118 728.084 828.245 728.397 828.498 728.651C828.765 728.904 829.305 729.164 830.118 729.431C830.945 729.697 832.198 730.044 833.878 730.471C835.518 730.897 836.832 731.397 837.818 731.971C838.818 732.531 839.545 733.211 839.998 734.011C840.452 734.797 840.678 735.751 840.678 736.871C840.678 739.084 839.878 740.824 838.278 742.091C836.678 743.357 834.465 743.991 831.638 743.991Z" fill="#161616"/>
<rect x="430.578" y="329.391" width="56" height="56" rx="28" fill="#161616"/>
<path d="M453.216 367.781C452.003 367.781 450.919 367.508 449.966 366.962C449.021 366.407 448.272 365.657 447.717 364.713C447.171 363.759 446.898 362.676 446.898 361.463V354.599C446.898 353.385 447.171 352.302 447.717 351.349C448.272 350.395 449.021 349.646 449.966 349.1C450.919 348.554 452.003 348.281 453.216 348.281C454.429 348.281 455.513 348.554 456.466 349.1C457.419 349.646 458.169 350.395 458.715 351.349C459.261 352.302 459.534 353.385 459.534 354.599V361.463C459.534 362.676 459.261 363.759 458.715 364.713C458.169 365.657 457.419 366.407 456.466 366.962C455.513 367.508 454.429 367.781 453.216 367.781ZM453.216 365.558C453.953 365.558 454.62 365.38 455.218 365.025C455.816 364.669 456.293 364.193 456.648 363.595C457.003 362.988 457.181 362.321 457.181 361.593V354.456C457.181 353.719 457.003 353.052 456.648 352.454C456.293 351.856 455.816 351.379 455.218 351.024C454.62 350.668 453.953 350.491 453.216 350.491C452.488 350.491 451.821 350.668 451.214 351.024C450.616 351.379 450.139 351.856 449.784 352.454C449.429 353.052 449.251 353.719 449.251 354.456V361.593C449.251 362.321 449.429 362.988 449.784 363.595C450.139 364.193 450.616 364.669 451.214 365.025C451.821 365.38 452.488 365.558 453.216 365.558ZM466.437 367.391V351.232L462.914 353.364V350.777L466.437 348.671H468.79V367.391H466.437Z" fill="white"/>
<rect x="930.996" y="177.391" width="56" height="56" rx="28" fill="#161616"/>
<path d="M951.134 215.781C949.921 215.781 948.837 215.508 947.884 214.962C946.939 214.407 946.19 213.657 945.635 212.713C945.089 211.759 944.816 210.676 944.816 209.463V202.599C944.816 201.385 945.089 200.302 945.635 199.349C946.19 198.395 946.939 197.646 947.884 197.1C948.837 196.554 949.921 196.281 951.134 196.281C952.347 196.281 953.431 196.554 954.384 197.1C955.337 197.646 956.087 198.395 956.633 199.349C957.179 200.302 957.452 201.385 957.452 202.599V209.463C957.452 210.676 957.179 211.759 956.633 212.713C956.087 213.657 955.337 214.407 954.384 214.962C953.431 215.508 952.347 215.781 951.134 215.781ZM951.134 213.558C951.871 213.558 952.538 213.38 953.136 213.025C953.734 212.669 954.211 212.193 954.566 211.595C954.921 210.988 955.099 210.321 955.099 209.593V202.456C955.099 201.719 954.921 201.052 954.566 200.454C954.211 199.856 953.734 199.379 953.136 199.024C952.538 198.668 951.871 198.491 951.134 198.491C950.406 198.491 949.739 198.668 949.132 199.024C948.534 199.379 948.057 199.856 947.702 200.454C947.347 201.052 947.169 201.719 947.169 202.456V209.593C947.169 210.321 947.347 210.988 947.702 211.595C948.057 212.193 948.534 212.669 949.132 213.025C949.739 213.38 950.406 213.558 951.134 213.558ZM960.571 215.378L960.584 213.298L968.891 205.823C969.585 205.199 970.048 204.609 970.282 204.055C970.525 203.491 970.646 202.915 970.646 202.326C970.646 201.606 970.482 200.956 970.152 200.376C969.823 199.795 969.372 199.336 968.8 198.998C968.237 198.66 967.596 198.491 966.876 198.491C966.131 198.491 965.468 198.668 964.887 199.024C964.307 199.37 963.847 199.834 963.509 200.415C963.18 200.995 963.02 201.628 963.028 202.313H960.662C960.662 201.134 960.935 200.094 961.481 199.193C962.027 198.283 962.768 197.572 963.704 197.061C964.649 196.541 965.719 196.281 966.915 196.281C968.077 196.281 969.117 196.549 970.035 197.087C970.954 197.615 971.678 198.339 972.206 199.258C972.744 200.168 973.012 201.199 973.012 202.352C973.012 203.166 972.908 203.873 972.7 204.471C972.501 205.069 972.189 205.623 971.764 206.135C971.34 206.637 970.807 207.175 970.165 207.747L963.262 213.948L962.963 213.168H973.012V215.378H960.571Z" fill="white"/>
<rect x="659.996" y="601.391" width="56" height="56" rx="28" fill="#161616"/>
<path d="M680.634 639.781C679.421 639.781 678.337 639.508 677.384 638.962C676.439 638.407 675.69 637.657 675.135 636.713C674.589 635.759 674.316 634.676 674.316 633.463V626.599C674.316 625.385 674.589 624.302 675.135 623.349C675.69 622.395 676.439 621.646 677.384 621.1C678.337 620.554 679.421 620.281 680.634 620.281C681.847 620.281 682.931 620.554 683.884 621.1C684.837 621.646 685.587 622.395 686.133 623.349C686.679 624.302 686.952 625.385 686.952 626.599V633.463C686.952 634.676 686.679 635.759 686.133 636.713C685.587 637.657 684.837 638.407 683.884 638.962C682.931 639.508 681.847 639.781 680.634 639.781ZM680.634 637.558C681.371 637.558 682.038 637.38 682.636 637.025C683.234 636.669 683.711 636.193 684.066 635.595C684.421 634.988 684.599 634.321 684.599 633.593V626.456C684.599 625.719 684.421 625.052 684.066 624.454C683.711 623.856 683.234 623.379 682.636 623.024C682.038 622.668 681.371 622.491 680.634 622.491C679.906 622.491 679.239 622.668 678.632 623.024C678.034 623.379 677.557 623.856 677.202 624.454C676.847 625.052 676.669 625.719 676.669 626.456V633.593C676.669 634.321 676.847 634.988 677.202 635.595C677.557 636.193 678.034 636.669 678.632 637.025C679.239 637.38 679.906 637.558 680.634 637.558ZM695.726 639.755C694.799 639.755 693.937 639.586 693.139 639.248C692.342 638.901 691.653 638.416 691.072 637.792C690.5 637.159 690.08 636.409 689.811 635.543L692.034 634.906C692.32 635.772 692.797 636.431 693.464 636.882C694.132 637.332 694.881 637.553 695.713 637.545C696.476 637.527 697.135 637.354 697.689 637.025C698.253 636.687 698.686 636.227 698.989 635.647C699.301 635.066 699.457 634.394 699.457 633.632C699.457 632.47 699.111 631.53 698.417 630.811C697.724 630.083 696.814 629.719 695.687 629.719C695.375 629.719 695.046 629.762 694.699 629.849C694.361 629.935 694.045 630.057 693.75 630.213L692.632 628.38L699.574 622.101L699.873 622.881H690.552V620.671H701.589V622.894L695.674 628.562L695.648 627.743C696.888 627.656 697.971 627.86 698.898 628.354C699.826 628.848 700.545 629.554 701.056 630.473C701.576 631.391 701.836 632.444 701.836 633.632C701.836 634.828 701.568 635.885 701.03 636.804C700.493 637.722 699.765 638.446 698.846 638.975C697.928 639.495 696.888 639.755 695.726 639.755Z" fill="white"/>
</svg>
