<svg width="1248" height="871" viewBox="0 0 1248 871" fill="none" xmlns="http://www.w3.org/2000/svg">
<path d="M661.146 350.93C645.469 309.195 660.741 260.24 698.314 214.784C735.877 169.34 795.665 127.484 868.783 100.019C941.901 72.554 1014.46 64.6967 1072.65 74.1725C1130.86 83.6507 1174.58 110.445 1190.26 152.18C1205.94 193.915 1190.67 242.87 1153.09 288.326C1115.53 333.77 1055.74 375.625 982.624 403.09C909.506 430.556 836.948 438.413 778.756 428.937C720.548 419.459 676.823 392.665 661.146 350.93Z" fill="#F4F8FF" stroke="#161616"/>
<path d="M70.7964 502.151C51.4663 450.691 70.4387 390.297 116.95 334.209C163.451 278.135 237.413 226.456 327.824 192.495C418.235 158.534 507.93 148.739 579.849 160.332C651.784 171.928 705.826 204.896 725.156 256.357C744.486 307.818 725.513 368.211 679.002 424.299C632.501 480.374 558.539 532.053 468.128 566.013C377.717 599.974 288.022 609.769 216.103 598.176C144.168 586.58 90.1264 553.612 70.7964 502.151Z" stroke="#161616"/>
<path d="M508.441 680.191C491.71 627.808 511.043 569.288 555.993 516.99C600.937 464.7 671.44 418.7 756.857 391.418C842.275 364.135 926.389 360.75 993.323 377.307C1060.27 393.866 1109.94 430.345 1126.67 482.728C1143.4 535.111 1124.07 593.631 1079.12 645.929C1034.18 698.219 963.674 744.219 878.256 771.501C792.838 798.784 708.725 802.169 641.791 785.612C574.848 769.053 525.173 732.574 508.441 680.191Z" stroke="#161616"/>
<path d="M303.052 354.2L302.732 356.48C302.092 356.427 301.572 356.533 301.172 356.8C300.772 357.053 300.492 357.427 300.332 357.92C300.185 358.4 300.159 358.96 300.252 359.6H303.052V365.04H297.612V359.6C297.612 357.68 298.059 356.227 298.952 355.24C299.845 354.24 301.212 353.893 303.052 354.2ZM295.812 354.2L295.492 356.48C294.852 356.427 294.332 356.533 293.932 356.8C293.532 357.053 293.252 357.427 293.092 357.92C292.945 358.4 292.919 358.96 293.012 359.6H295.812V365.04H290.372V359.6C290.372 357.68 290.819 356.227 291.712 355.24C292.605 354.24 293.972 353.893 295.812 354.2ZM306.634 383L316.834 368.4L307.394 354.2H313.834L321.994 367.08V354.2H327.434V367.08L335.594 354.2H342.034L332.594 368.4L342.794 383H336.114L327.434 370.28V383H321.994V370.28L313.314 383H306.634ZM351.988 383.6C350.441 383.6 349.128 383.307 348.048 382.72C346.981 382.12 346.168 381.327 345.608 380.34C345.061 379.34 344.788 378.24 344.788 377.04C344.788 376.04 344.941 375.127 345.248 374.3C345.554 373.473 346.048 372.747 346.728 372.12C347.421 371.48 348.348 370.947 349.508 370.52C350.308 370.227 351.261 369.967 352.368 369.74C353.474 369.513 354.728 369.3 356.128 369.1C357.528 368.887 359.068 368.653 360.748 368.4L358.788 369.48C358.788 368.2 358.481 367.26 357.868 366.66C357.254 366.06 356.228 365.76 354.788 365.76C353.988 365.76 353.154 365.953 352.288 366.34C351.421 366.727 350.814 367.413 350.468 368.4L345.548 366.84C346.094 365.053 347.121 363.6 348.628 362.48C350.134 361.36 352.188 360.8 354.788 360.8C356.694 360.8 358.388 361.093 359.868 361.68C361.348 362.267 362.468 363.28 363.228 364.72C363.654 365.52 363.908 366.32 363.988 367.12C364.068 367.92 364.108 368.813 364.108 369.8V383H359.348V378.56L360.028 379.48C358.974 380.933 357.834 381.987 356.608 382.64C355.394 383.28 353.854 383.6 351.988 383.6ZM353.148 379.32C354.148 379.32 354.988 379.147 355.668 378.8C356.361 378.44 356.908 378.033 357.308 377.58C357.721 377.127 358.001 376.747 358.148 376.44C358.428 375.853 358.588 375.173 358.628 374.4C358.681 373.613 358.708 372.96 358.708 372.44L360.308 372.84C358.694 373.107 357.388 373.333 356.388 373.52C355.388 373.693 354.581 373.853 353.968 374C353.354 374.147 352.814 374.307 352.348 374.48C351.814 374.693 351.381 374.927 351.048 375.18C350.728 375.42 350.488 375.687 350.328 375.98C350.181 376.273 350.108 376.6 350.108 376.96C350.108 377.453 350.228 377.88 350.468 378.24C350.721 378.587 351.074 378.853 351.528 379.04C351.981 379.227 352.521 379.32 353.148 379.32ZM369.268 383V361.4H374.468V378.2H379.908V361.4H385.108V378.2H390.548V361.4H395.748V383H369.268ZM406.619 383V366.2H399.539V361.4H419.139V366.2H412.059V383H406.619ZM428.511 383.6C426.964 383.6 425.651 383.307 424.571 382.72C423.504 382.12 422.691 381.327 422.131 380.34C421.584 379.34 421.311 378.24 421.311 377.04C421.311 376.04 421.464 375.127 421.771 374.3C422.078 373.473 422.571 372.747 423.251 372.12C423.944 371.48 424.871 370.947 426.031 370.52C426.831 370.227 427.784 369.967 428.891 369.74C429.998 369.513 431.251 369.3 432.651 369.1C434.051 368.887 435.591 368.653 437.271 368.4L435.311 369.48C435.311 368.2 435.004 367.26 434.391 366.66C433.778 366.06 432.751 365.76 431.311 365.76C430.511 365.76 429.678 365.953 428.811 366.34C427.944 366.727 427.338 367.413 426.991 368.4L422.071 366.84C422.618 365.053 423.644 363.6 425.151 362.48C426.658 361.36 428.711 360.8 431.311 360.8C433.218 360.8 434.911 361.093 436.391 361.68C437.871 362.267 438.991 363.28 439.751 364.72C440.178 365.52 440.431 366.32 440.511 367.12C440.591 367.92 440.631 368.813 440.631 369.8V383H435.871V378.56L436.551 379.48C435.498 380.933 434.358 381.987 433.131 382.64C431.918 383.28 430.378 383.6 428.511 383.6ZM429.671 379.32C430.671 379.32 431.511 379.147 432.191 378.8C432.884 378.44 433.431 378.033 433.831 377.58C434.244 377.127 434.524 376.747 434.671 376.44C434.951 375.853 435.111 375.173 435.151 374.4C435.204 373.613 435.231 372.96 435.231 372.44L436.831 372.84C435.218 373.107 433.911 373.333 432.911 373.52C431.911 373.693 431.104 373.853 430.491 374C429.878 374.147 429.338 374.307 428.871 374.48C428.338 374.693 427.904 374.927 427.571 375.18C427.251 375.42 427.011 375.687 426.851 375.98C426.704 376.273 426.631 376.6 426.631 376.96C426.631 377.453 426.751 377.88 426.991 378.24C427.244 378.587 427.598 378.853 428.051 379.04C428.504 379.227 429.044 379.32 429.671 379.32ZM456.431 383.6C454.285 383.6 452.491 383.1 451.051 382.1C449.611 381.1 448.525 379.74 447.791 378.02C447.071 376.3 446.711 374.36 446.711 372.2C446.711 370.04 447.071 368.1 447.791 366.38C448.511 364.66 449.571 363.3 450.971 362.3C452.371 361.3 454.098 360.8 456.151 360.8C458.218 360.8 460.018 361.293 461.551 362.28C463.085 363.267 464.271 364.62 465.111 366.34C465.965 368.047 466.391 370 466.391 372.2C466.391 374.36 465.971 376.3 465.131 378.02C464.305 379.74 463.145 381.1 461.651 382.1C460.158 383.1 458.418 383.6 456.431 383.6ZM445.791 392.6V361.4H450.591V376.2H451.271V392.6H445.791ZM455.551 378.76C456.725 378.76 457.685 378.467 458.431 377.88C459.178 377.293 459.731 376.507 460.091 375.52C460.451 374.52 460.631 373.413 460.631 372.2C460.631 371 460.445 369.907 460.071 368.92C459.698 367.92 459.118 367.127 458.331 366.54C457.558 365.94 456.565 365.64 455.351 365.64C454.218 365.64 453.298 365.913 452.591 366.46C451.898 367.007 451.391 367.773 451.071 368.76C450.751 369.747 450.591 370.893 450.591 372.2C450.591 373.507 450.751 374.653 451.071 375.64C451.391 376.627 451.911 377.393 452.631 377.94C453.365 378.487 454.338 378.76 455.551 378.76ZM207.715 438.6C205.475 438.6 203.555 438.1 201.955 437.1C200.355 436.1 199.128 434.74 198.275 433.02C197.421 431.3 196.995 429.36 196.995 427.2C196.995 425.013 197.435 423.06 198.315 421.34C199.208 419.62 200.461 418.267 202.075 417.28C203.688 416.293 205.595 415.8 207.795 415.8C210.341 415.8 212.475 416.447 214.195 417.74C215.928 419.02 217.035 420.773 217.515 423L212.075 424.44C211.755 423.32 211.195 422.447 210.395 421.82C209.608 421.193 208.715 420.88 207.715 420.88C206.568 420.88 205.628 421.16 204.895 421.72C204.161 422.267 203.621 423.02 203.275 423.98C202.928 424.927 202.755 426 202.755 427.2C202.755 429.08 203.168 430.607 203.995 431.78C204.835 432.94 206.075 433.52 207.715 433.52C208.941 433.52 209.875 433.24 210.515 432.68C211.155 432.12 211.635 431.32 211.955 430.28L217.515 431.44C216.901 433.733 215.741 435.5 214.035 436.74C212.328 437.98 210.221 438.6 207.715 438.6ZM227.124 438.6C225.578 438.6 224.264 438.307 223.184 437.72C222.118 437.12 221.304 436.327 220.744 435.34C220.198 434.34 219.924 433.24 219.924 432.04C219.924 431.04 220.078 430.127 220.384 429.3C220.691 428.473 221.184 427.747 221.864 427.12C222.558 426.48 223.484 425.947 224.644 425.52C225.444 425.227 226.398 424.967 227.504 424.74C228.611 424.513 229.864 424.3 231.264 424.1C232.664 423.887 234.204 423.653 235.884 423.4L233.924 424.48C233.924 423.2 233.618 422.26 233.004 421.66C232.391 421.06 231.364 420.76 229.924 420.76C229.124 420.76 228.291 420.953 227.424 421.34C226.558 421.727 225.951 422.413 225.604 423.4L220.684 421.84C221.231 420.053 222.258 418.6 223.764 417.48C225.271 416.36 227.324 415.8 229.924 415.8C231.831 415.8 233.524 416.093 235.004 416.68C236.484 417.267 237.604 418.28 238.364 419.72C238.791 420.52 239.044 421.32 239.124 422.12C239.204 422.92 239.244 423.813 239.244 424.8V438H234.484V433.56L235.164 434.48C234.111 435.933 232.971 436.987 231.744 437.64C230.531 438.28 228.991 438.6 227.124 438.6ZM228.284 434.32C229.284 434.32 230.124 434.147 230.804 433.8C231.498 433.44 232.044 433.033 232.444 432.58C232.858 432.127 233.138 431.747 233.284 431.44C233.564 430.853 233.724 430.173 233.764 429.4C233.818 428.613 233.844 427.96 233.844 427.44L235.444 427.84C233.831 428.107 232.524 428.333 231.524 428.52C230.524 428.693 229.718 428.853 229.104 429C228.491 429.147 227.951 429.307 227.484 429.48C226.951 429.693 226.518 429.927 226.184 430.18C225.864 430.42 225.624 430.687 225.464 430.98C225.318 431.273 225.244 431.6 225.244 431.96C225.244 432.453 225.364 432.88 225.604 433.24C225.858 433.587 226.211 433.853 226.664 434.04C227.118 434.227 227.658 434.32 228.284 434.32ZM244.405 438V416.4H249.845V424.64H258.725V416.4H264.165V438H258.725V429.72H249.845V438H244.405ZM275.757 438.6C274.21 438.6 272.897 438.307 271.817 437.72C270.75 437.12 269.937 436.327 269.377 435.34C268.83 434.34 268.557 433.24 268.557 432.04C268.557 431.04 268.71 430.127 269.017 429.3C269.324 428.473 269.817 427.747 270.497 427.12C271.19 426.48 272.117 425.947 273.277 425.52C274.077 425.227 275.03 424.967 276.137 424.74C277.244 424.513 278.497 424.3 279.897 424.1C281.297 423.887 282.837 423.653 284.517 423.4L282.557 424.48C282.557 423.2 282.25 422.26 281.637 421.66C281.024 421.06 279.997 420.76 278.557 420.76C277.757 420.76 276.924 420.953 276.057 421.34C275.19 421.727 274.584 422.413 274.237 423.4L269.317 421.84C269.864 420.053 270.89 418.6 272.397 417.48C273.904 416.36 275.957 415.8 278.557 415.8C280.464 415.8 282.157 416.093 283.637 416.68C285.117 417.267 286.237 418.28 286.997 419.72C287.424 420.52 287.677 421.32 287.757 422.12C287.837 422.92 287.877 423.813 287.877 424.8V438H283.117V433.56L283.797 434.48C282.744 435.933 281.604 436.987 280.377 437.64C279.164 438.28 277.624 438.6 275.757 438.6ZM276.917 434.32C277.917 434.32 278.757 434.147 279.437 433.8C280.13 433.44 280.677 433.033 281.077 432.58C281.49 432.127 281.77 431.747 281.917 431.44C282.197 430.853 282.357 430.173 282.397 429.4C282.45 428.613 282.477 427.96 282.477 427.44L284.077 427.84C282.464 428.107 281.157 428.333 280.157 428.52C279.157 428.693 278.35 428.853 277.737 429C277.124 429.147 276.584 429.307 276.117 429.48C275.584 429.693 275.15 429.927 274.817 430.18C274.497 430.42 274.257 430.687 274.097 430.98C273.95 431.273 273.877 431.6 273.877 431.96C273.877 432.453 273.997 432.88 274.237 433.24C274.49 433.587 274.844 433.853 275.297 434.04C275.75 434.227 276.29 434.32 276.917 434.32ZM303.677 438.6C301.531 438.6 299.737 438.1 298.297 437.1C296.857 436.1 295.771 434.74 295.037 433.02C294.317 431.3 293.957 429.36 293.957 427.2C293.957 425.04 294.317 423.1 295.037 421.38C295.757 419.66 296.817 418.3 298.217 417.3C299.617 416.3 301.344 415.8 303.397 415.8C305.464 415.8 307.264 416.293 308.797 417.28C310.331 418.267 311.517 419.62 312.357 421.34C313.211 423.047 313.637 425 313.637 427.2C313.637 429.36 313.217 431.3 312.377 433.02C311.551 434.74 310.391 436.1 308.897 437.1C307.404 438.1 305.664 438.6 303.677 438.6ZM293.037 447.6V416.4H297.837V431.2H298.517V447.6H293.037ZM302.797 433.76C303.971 433.76 304.931 433.467 305.677 432.88C306.424 432.293 306.977 431.507 307.337 430.52C307.697 429.52 307.877 428.413 307.877 427.2C307.877 426 307.691 424.907 307.317 423.92C306.944 422.92 306.364 422.127 305.577 421.54C304.804 420.94 303.811 420.64 302.597 420.64C301.464 420.64 300.544 420.913 299.837 421.46C299.144 422.007 298.637 422.773 298.317 423.76C297.997 424.747 297.837 425.893 297.837 427.2C297.837 428.507 297.997 429.653 298.317 430.64C298.637 431.627 299.157 432.393 299.877 432.94C300.611 433.487 301.584 433.76 302.797 433.76ZM337.278 416.4V438H332.078V424.8L322.318 438H317.998V416.4H323.198V429.16L332.998 416.4H337.278ZM342.842 438V416.4H362.122V438H356.682V421.48H348.282V438H342.842ZM373.006 438V421.2H365.926V416.4H385.526V421.2H378.446V438H373.006ZM399.367 438.6C397.154 438.6 395.201 438.127 393.507 437.18C391.827 436.22 390.507 434.907 389.547 433.24C388.601 431.56 388.127 429.64 388.127 427.48C388.127 425.12 388.594 423.067 389.527 421.32C390.461 419.573 391.747 418.22 393.387 417.26C395.027 416.287 396.914 415.8 399.047 415.8C401.314 415.8 403.241 416.333 404.827 417.4C406.414 418.467 407.587 419.967 408.347 421.9C409.107 423.833 409.374 426.107 409.147 428.72H403.767V426.72C403.767 424.52 403.414 422.94 402.707 421.98C402.014 421.007 400.874 420.52 399.287 420.52C397.434 420.52 396.067 421.087 395.187 422.22C394.321 423.34 393.887 425 393.887 427.2C393.887 429.213 394.321 430.773 395.187 431.88C396.067 432.973 397.354 433.52 399.047 433.52C400.114 433.52 401.027 433.287 401.787 432.82C402.547 432.353 403.127 431.68 403.527 430.8L408.967 432.36C408.154 434.333 406.867 435.867 405.107 436.96C403.361 438.053 401.447 438.6 399.367 438.6ZM392.207 428.72V424.68H406.527V428.72H392.207ZM413.623 438V416.4H418.823V433.2H424.263V416.4H429.463V433.2H434.903V416.4H440.103V438H413.623ZM450.975 438V421.2H443.895V416.4H463.495V421.2H456.415V438H450.975ZM486.536 416.4V438H481.336V424.8L471.576 438H467.256V416.4H472.456V429.16L482.256 416.4H486.536ZM502.74 438.6C500.593 438.6 498.8 438.1 497.36 437.1C495.92 436.1 494.833 434.74 494.1 433.02C493.38 431.3 493.02 429.36 493.02 427.2C493.02 425.04 493.38 423.1 494.1 421.38C494.82 419.66 495.88 418.3 497.28 417.3C498.68 416.3 500.407 415.8 502.46 415.8C504.527 415.8 506.327 416.293 507.86 417.28C509.393 418.267 510.58 419.62 511.42 421.34C512.273 423.047 512.7 425 512.7 427.2C512.7 429.36 512.28 431.3 511.44 433.02C510.613 434.74 509.453 436.1 507.96 437.1C506.467 438.1 504.727 438.6 502.74 438.6ZM492.1 447.6V416.4H496.9V431.2H497.58V447.6H492.1ZM501.86 433.76C503.033 433.76 503.993 433.467 504.74 432.88C505.487 432.293 506.04 431.507 506.4 430.52C506.76 429.52 506.94 428.413 506.94 427.2C506.94 426 506.753 424.907 506.38 423.92C506.007 422.92 505.427 422.127 504.64 421.54C503.867 420.94 502.873 420.64 501.66 420.64C500.527 420.64 499.607 420.913 498.9 421.46C498.207 422.007 497.7 422.773 497.38 423.76C497.06 424.747 496.9 425.893 496.9 427.2C496.9 428.507 497.06 429.653 497.38 430.64C497.7 431.627 498.22 432.393 498.94 432.94C499.673 433.487 500.647 433.76 501.86 433.76ZM522.941 445.2V438L515.101 416.4H520.541L525.661 431.36L530.781 416.4H536.221L528.381 438V445.2H522.941ZM545.675 445.2V438L537.835 416.4H543.275L548.395 431.36L553.515 416.4H558.955L551.115 438V445.2H545.675ZM329.581 500.2V493L321.741 471.4H327.181L332.301 486.36L337.421 471.4H342.861L335.021 493V500.2H329.581ZM358.836 493V486C358.076 486.373 357.236 486.66 356.316 486.86C355.409 487.06 354.462 487.16 353.476 487.16C351.236 487.16 349.456 486.653 348.136 485.64C346.829 484.627 345.982 483.16 345.596 481.24C345.489 480.693 345.409 480.127 345.356 479.54C345.316 478.953 345.289 478.42 345.276 477.94C345.276 477.447 345.276 477.067 345.276 476.8V471.4H350.796V476.8C350.796 477.053 350.809 477.467 350.836 478.04C350.862 478.6 350.942 479.16 351.076 479.72C351.316 480.653 351.722 481.327 352.296 481.74C352.882 482.153 353.716 482.36 354.796 482.36C355.716 482.36 356.502 482.24 357.156 482C357.822 481.747 358.382 481.44 358.836 481.08V471.4H364.316V493H358.836ZM375.753 500.2V493L367.913 471.4H373.353L378.473 486.36L383.593 471.4H389.033L381.193 493V500.2H375.753ZM392.608 493V471.4H398.048V479.64H406.928V471.4H412.368V493H406.928V484.72H398.048V493H392.608ZM418.36 475.04L418.68 472.76C419.32 472.813 419.84 472.713 420.24 472.46C420.64 472.193 420.913 471.82 421.06 471.34C421.22 470.847 421.253 470.28 421.16 469.64H418.36V464.2H423.8V469.64C423.8 471.56 423.353 473.013 422.46 474C421.567 474.987 420.2 475.333 418.36 475.04ZM425.6 475.04L425.92 472.76C426.56 472.813 427.08 472.713 427.48 472.46C427.88 472.193 428.153 471.82 428.3 471.34C428.46 470.847 428.493 470.28 428.4 469.64H425.6V464.2H431.04V469.64C431.04 471.56 430.593 473.013 429.7 474C428.807 474.987 427.44 475.333 425.6 475.04Z" fill="#191A1B"/>
<path d="M869.528 247.12L862.448 238.2L869.528 229.28L872.368 231.52L867.048 238.2L872.368 244.88L869.528 247.12ZM860.928 247.12L853.848 238.2L860.928 229.28L863.768 231.52L858.448 238.2L863.768 244.88L860.928 247.12ZM875.15 249L885.35 234.4L875.91 220.2H882.35L890.51 233.08V220.2H895.95V233.08L904.11 220.2H910.55L901.11 234.4L911.31 249H904.63L895.95 236.28V249H890.51V236.28L881.83 249H875.15ZM920.503 249.6C918.956 249.6 917.643 249.307 916.563 248.72C915.496 248.12 914.683 247.327 914.123 246.34C913.576 245.34 913.303 244.24 913.303 243.04C913.303 242.04 913.456 241.127 913.763 240.3C914.07 239.473 914.563 238.747 915.243 238.12C915.936 237.48 916.863 236.947 918.023 236.52C918.823 236.227 919.776 235.967 920.883 235.74C921.99 235.513 923.243 235.3 924.643 235.1C926.043 234.887 927.583 234.653 929.263 234.4L927.303 235.48C927.303 234.2 926.996 233.26 926.383 232.66C925.77 232.06 924.743 231.76 923.303 231.76C922.503 231.76 921.67 231.953 920.803 232.34C919.936 232.727 919.33 233.413 918.983 234.4L914.063 232.84C914.61 231.053 915.636 229.6 917.143 228.48C918.65 227.36 920.703 226.8 923.303 226.8C925.21 226.8 926.903 227.093 928.383 227.68C929.863 228.267 930.983 229.28 931.743 230.72C932.17 231.52 932.423 232.32 932.503 233.12C932.583 233.92 932.623 234.813 932.623 235.8V249H927.863V244.56L928.543 245.48C927.49 246.933 926.35 247.987 925.123 248.64C923.91 249.28 922.37 249.6 920.503 249.6ZM921.663 245.32C922.663 245.32 923.503 245.147 924.183 244.8C924.876 244.44 925.423 244.033 925.823 243.58C926.236 243.127 926.516 242.747 926.663 242.44C926.943 241.853 927.103 241.173 927.143 240.4C927.196 239.613 927.223 238.96 927.223 238.44L928.823 238.84C927.21 239.107 925.903 239.333 924.903 239.52C923.903 239.693 923.096 239.853 922.483 240C921.87 240.147 921.33 240.307 920.863 240.48C920.33 240.693 919.896 240.927 919.563 241.18C919.243 241.42 919.003 241.687 918.843 241.98C918.696 242.273 918.623 242.6 918.623 242.96C918.623 243.453 918.743 243.88 918.983 244.24C919.236 244.587 919.59 244.853 920.043 245.04C920.496 245.227 921.036 245.32 921.663 245.32ZM937.783 249V227.4H942.983V244.2H948.423V227.4H953.623V244.2H959.063V227.4H964.263V249H937.783ZM975.135 249V232.2H968.055V227.4H987.655V232.2H980.575V249H975.135ZM997.027 249.6C995.48 249.6 994.167 249.307 993.087 248.72C992.02 248.12 991.207 247.327 990.647 246.34C990.1 245.34 989.827 244.24 989.827 243.04C989.827 242.04 989.98 241.127 990.287 240.3C990.593 239.473 991.087 238.747 991.767 238.12C992.46 237.48 993.387 236.947 994.547 236.52C995.347 236.227 996.3 235.967 997.407 235.74C998.513 235.513 999.767 235.3 1001.17 235.1C1002.57 234.887 1004.11 234.653 1005.79 234.4L1003.83 235.48C1003.83 234.2 1003.52 233.26 1002.91 232.66C1002.29 232.06 1001.27 231.76 999.827 231.76C999.027 231.76 998.193 231.953 997.327 232.34C996.46 232.727 995.853 233.413 995.507 234.4L990.587 232.84C991.133 231.053 992.16 229.6 993.667 228.48C995.173 227.36 997.227 226.8 999.827 226.8C1001.73 226.8 1003.43 227.093 1004.91 227.68C1006.39 228.267 1007.51 229.28 1008.27 230.72C1008.69 231.52 1008.95 232.32 1009.03 233.12C1009.11 233.92 1009.15 234.813 1009.15 235.8V249H1004.39V244.56L1005.07 245.48C1004.01 246.933 1002.87 247.987 1001.65 248.64C1000.43 249.28 998.893 249.6 997.027 249.6ZM998.187 245.32C999.187 245.32 1000.03 245.147 1000.71 244.8C1001.4 244.44 1001.95 244.033 1002.35 243.58C1002.76 243.127 1003.04 242.747 1003.19 242.44C1003.47 241.853 1003.63 241.173 1003.67 240.4C1003.72 239.613 1003.75 238.96 1003.75 238.44L1005.35 238.84C1003.73 239.107 1002.43 239.333 1001.43 239.52C1000.43 239.693 999.62 239.853 999.007 240C998.393 240.147 997.853 240.307 997.387 240.48C996.853 240.693 996.42 240.927 996.087 241.18C995.767 241.42 995.527 241.687 995.367 241.98C995.22 242.273 995.147 242.6 995.147 242.96C995.147 243.453 995.267 243.88 995.507 244.24C995.76 244.587 996.113 244.853 996.567 245.04C997.02 245.227 997.56 245.32 998.187 245.32ZM1024.95 249.6C1022.8 249.6 1021.01 249.1 1019.57 248.1C1018.13 247.1 1017.04 245.74 1016.31 244.02C1015.59 242.3 1015.23 240.36 1015.23 238.2C1015.23 236.04 1015.59 234.1 1016.31 232.38C1017.03 230.66 1018.09 229.3 1019.49 228.3C1020.89 227.3 1022.61 226.8 1024.67 226.8C1026.73 226.8 1028.53 227.293 1030.07 228.28C1031.6 229.267 1032.79 230.62 1033.63 232.34C1034.48 234.047 1034.91 236 1034.91 238.2C1034.91 240.36 1034.49 242.3 1033.65 244.02C1032.82 245.74 1031.66 247.1 1030.17 248.1C1028.67 249.1 1026.93 249.6 1024.95 249.6ZM1014.31 258.6V227.4H1019.11V242.2H1019.79V258.6H1014.31ZM1024.07 244.76C1025.24 244.76 1026.2 244.467 1026.95 243.88C1027.69 243.293 1028.25 242.507 1028.61 241.52C1028.97 240.52 1029.15 239.413 1029.15 238.2C1029.15 237 1028.96 235.907 1028.59 234.92C1028.21 233.92 1027.63 233.127 1026.85 232.54C1026.07 231.94 1025.08 231.64 1023.87 231.64C1022.73 231.64 1021.81 231.913 1021.11 232.46C1020.41 233.007 1019.91 233.773 1019.59 234.76C1019.27 235.747 1019.11 236.893 1019.11 238.2C1019.11 239.507 1019.27 240.653 1019.59 241.64C1019.91 242.627 1020.43 243.393 1021.15 243.94C1021.88 244.487 1022.85 244.76 1024.07 244.76ZM789.398 304V299.48C790.184 299.627 790.791 299.62 791.218 299.46C791.644 299.287 791.964 298.953 792.178 298.46C792.404 297.953 792.598 297.267 792.758 296.4C792.971 295.253 793.158 293.913 793.318 292.38C793.491 290.847 793.638 289.227 793.758 287.52C793.878 285.8 793.984 284.093 794.078 282.4H810.398V304H804.958V287.48H798.838C798.784 288.173 798.711 289 798.618 289.96C798.538 290.92 798.444 291.92 798.338 292.96C798.244 293.987 798.138 294.973 798.018 295.92C797.898 296.853 797.771 297.653 797.638 298.32C797.318 300.013 796.844 301.347 796.218 302.32C795.591 303.293 794.731 303.913 793.638 304.18C792.544 304.46 791.131 304.4 789.398 304ZM835.247 282.4V304H830.047V290.8L820.287 304H815.967V282.4H821.167V295.16L830.967 282.4H835.247ZM839.251 308.8V299.8C840.397 299.8 841.211 299.4 841.691 298.6C842.184 297.8 842.571 296.373 842.851 294.32C843.011 293.133 843.144 291.887 843.251 290.58C843.371 289.273 843.471 287.933 843.551 286.56C843.631 285.187 843.704 283.8 843.771 282.4H860.451V299.8H862.651V308.8H857.531V304H844.371V308.8H839.251ZM846.211 299.8H855.011V286.6H848.491C848.451 287.333 848.404 288.067 848.351 288.8C848.311 289.533 848.257 290.26 848.191 290.98C848.137 291.7 848.084 292.4 848.031 293.08C847.977 293.747 847.917 294.387 847.851 295C847.731 296.173 847.564 297.127 847.351 297.86C847.137 298.593 846.757 299.24 846.211 299.8ZM876.672 304.6C874.459 304.6 872.505 304.127 870.812 303.18C869.132 302.22 867.812 300.907 866.852 299.24C865.905 297.56 865.432 295.64 865.432 293.48C865.432 291.12 865.899 289.067 866.832 287.32C867.765 285.573 869.052 284.22 870.692 283.26C872.332 282.287 874.219 281.8 876.352 281.8C878.619 281.8 880.545 282.333 882.132 283.4C883.719 284.467 884.892 285.967 885.652 287.9C886.412 289.833 886.679 292.107 886.452 294.72H881.072V292.72C881.072 290.52 880.719 288.94 880.012 287.98C879.319 287.007 878.179 286.52 876.592 286.52C874.739 286.52 873.372 287.087 872.492 288.22C871.625 289.34 871.192 291 871.192 293.2C871.192 295.213 871.625 296.773 872.492 297.88C873.372 298.973 874.659 299.52 876.352 299.52C877.419 299.52 878.332 299.287 879.092 298.82C879.852 298.353 880.432 297.68 880.832 296.8L886.272 298.36C885.459 300.333 884.172 301.867 882.412 302.96C880.665 304.053 878.752 304.6 876.672 304.6ZM869.512 294.72V290.68H883.832V294.72H869.512ZM901.568 304.6C899.421 304.6 897.628 304.1 896.188 303.1C894.748 302.1 893.661 300.74 892.928 299.02C892.208 297.3 891.848 295.36 891.848 293.2C891.848 291.04 892.208 289.1 892.928 287.38C893.648 285.66 894.708 284.3 896.108 283.3C897.508 282.3 899.235 281.8 901.288 281.8C903.355 281.8 905.155 282.293 906.688 283.28C908.221 284.267 909.408 285.62 910.248 287.34C911.101 289.047 911.528 291 911.528 293.2C911.528 295.36 911.108 297.3 910.268 299.02C909.441 300.74 908.281 302.1 906.788 303.1C905.295 304.1 903.555 304.6 901.568 304.6ZM890.928 313.6V282.4H895.728V297.2H896.408V313.6H890.928ZM900.688 299.76C901.861 299.76 902.821 299.467 903.568 298.88C904.315 298.293 904.868 297.507 905.228 296.52C905.588 295.52 905.768 294.413 905.768 293.2C905.768 292 905.581 290.907 905.208 289.92C904.835 288.92 904.255 288.127 903.468 287.54C902.695 286.94 901.701 286.64 900.488 286.64C899.355 286.64 898.435 286.913 897.728 287.46C897.035 288.007 896.528 288.773 896.208 289.76C895.888 290.747 895.728 291.893 895.728 293.2C895.728 294.507 895.888 295.653 896.208 296.64C896.528 297.627 897.048 298.393 897.768 298.94C898.501 299.487 899.475 299.76 900.688 299.76ZM913.929 304V299.48C914.716 299.627 915.322 299.62 915.749 299.46C916.176 299.287 916.496 298.953 916.709 298.46C916.936 297.953 917.129 297.267 917.289 296.4C917.502 295.253 917.689 293.913 917.849 292.38C918.022 290.847 918.169 289.227 918.289 287.52C918.409 285.8 918.516 284.093 918.609 282.4H934.929V304H929.489V287.48H923.369C923.316 288.173 923.242 289 923.149 289.96C923.069 290.92 922.976 291.92 922.869 292.96C922.776 293.987 922.669 294.973 922.549 295.92C922.429 296.853 922.302 297.653 922.169 298.32C921.849 300.013 921.376 301.347 920.749 302.32C920.122 303.293 919.262 303.913 918.169 304.18C917.076 304.46 915.662 304.4 913.929 304ZM959.778 282.4V304H954.578V290.8L944.818 304H940.498V282.4H945.698V295.16L955.498 282.4H959.778ZM965.342 304L965.382 282.4H970.902V292.8L978.222 282.4H984.942L977.142 293.2L985.462 304H978.382L970.902 293.6V304H965.342ZM1001.3 311.2V304L993.46 282.4H998.9L1004.02 297.36L1009.14 282.4H1014.58L1006.74 304V311.2H1001.3ZM1030.55 304V297C1029.79 297.373 1028.95 297.66 1028.03 297.86C1027.13 298.06 1026.18 298.16 1025.19 298.16C1022.95 298.16 1021.17 297.653 1019.85 296.64C1018.55 295.627 1017.7 294.16 1017.31 292.24C1017.21 291.693 1017.13 291.127 1017.07 290.54C1017.03 289.953 1017.01 289.42 1016.99 288.94C1016.99 288.447 1016.99 288.067 1016.99 287.8V282.4H1022.51V287.8C1022.51 288.053 1022.53 288.467 1022.55 289.04C1022.58 289.6 1022.66 290.16 1022.79 290.72C1023.03 291.653 1023.44 292.327 1024.01 292.74C1024.6 293.153 1025.43 293.36 1026.51 293.36C1027.43 293.36 1028.22 293.24 1028.87 293C1029.54 292.747 1030.1 292.44 1030.55 292.08V282.4H1036.03V304H1030.55ZM1047.47 311.2V304L1039.63 282.4H1045.07L1050.19 297.36L1055.31 282.4H1060.75L1052.91 304V311.2H1047.47ZM1064.33 304V282.4H1069.77V290.64H1078.65V282.4H1084.09V304H1078.65V295.72H1069.77V304H1064.33ZM1089.28 282.4V275.2H1094.72V282.4H1089.28ZM1097.12 282.4V275.2H1102.56V282.4H1097.12Z" fill="#191A1B"/>
<path d="M723.052 515.2L722.732 517.48C722.092 517.427 721.572 517.533 721.172 517.8C720.772 518.053 720.492 518.427 720.332 518.92C720.185 519.4 720.159 519.96 720.252 520.6H723.052V526.04H717.612V520.6C717.612 518.68 718.059 517.227 718.952 516.24C719.845 515.24 721.212 514.893 723.052 515.2ZM715.812 515.2L715.492 517.48C714.852 517.427 714.332 517.533 713.932 517.8C713.532 518.053 713.252 518.427 713.092 518.92C712.945 519.4 712.919 519.96 713.012 520.6H715.812V526.04H710.372V520.6C710.372 518.68 710.819 517.227 711.712 516.24C712.605 515.24 713.972 514.893 715.812 515.2ZM726.634 544L736.834 529.4L727.394 515.2H733.834L741.994 528.08V515.2H747.434V528.08L755.594 515.2H762.034L752.594 529.4L762.794 544H756.114L747.434 531.28V544H741.994V531.28L733.314 544H726.634ZM771.988 544.6C770.441 544.6 769.128 544.307 768.048 543.72C766.981 543.12 766.168 542.327 765.608 541.34C765.061 540.34 764.788 539.24 764.788 538.04C764.788 537.04 764.941 536.127 765.248 535.3C765.554 534.473 766.048 533.747 766.728 533.12C767.421 532.48 768.348 531.947 769.508 531.52C770.308 531.227 771.261 530.967 772.368 530.74C773.474 530.513 774.728 530.3 776.128 530.1C777.528 529.887 779.068 529.653 780.748 529.4L778.788 530.48C778.788 529.2 778.481 528.26 777.868 527.66C777.254 527.06 776.228 526.76 774.788 526.76C773.988 526.76 773.154 526.953 772.288 527.34C771.421 527.727 770.814 528.413 770.468 529.4L765.548 527.84C766.094 526.053 767.121 524.6 768.628 523.48C770.134 522.36 772.188 521.8 774.788 521.8C776.694 521.8 778.388 522.093 779.868 522.68C781.348 523.267 782.468 524.28 783.228 525.72C783.654 526.52 783.908 527.32 783.988 528.12C784.068 528.92 784.108 529.813 784.108 530.8V544H779.348V539.56L780.028 540.48C778.974 541.933 777.834 542.987 776.608 543.64C775.394 544.28 773.854 544.6 771.988 544.6ZM773.148 540.32C774.148 540.32 774.988 540.147 775.668 539.8C776.361 539.44 776.908 539.033 777.308 538.58C777.721 538.127 778.001 537.747 778.148 537.44C778.428 536.853 778.588 536.173 778.628 535.4C778.681 534.613 778.708 533.96 778.708 533.44L780.308 533.84C778.694 534.107 777.388 534.333 776.388 534.52C775.388 534.693 774.581 534.853 773.968 535C773.354 535.147 772.814 535.307 772.348 535.48C771.814 535.693 771.381 535.927 771.048 536.18C770.728 536.42 770.488 536.687 770.328 536.98C770.181 537.273 770.108 537.6 770.108 537.96C770.108 538.453 770.228 538.88 770.468 539.24C770.721 539.587 771.074 539.853 771.528 540.04C771.981 540.227 772.521 540.32 773.148 540.32ZM789.268 544V522.4H794.468V539.2H799.908V522.4H805.108V539.2H810.548V522.4H815.748V544H789.268ZM826.619 544V527.2H819.539V522.4H839.139V527.2H832.059V544H826.619ZM848.511 544.6C846.964 544.6 845.651 544.307 844.571 543.72C843.504 543.12 842.691 542.327 842.131 541.34C841.584 540.34 841.311 539.24 841.311 538.04C841.311 537.04 841.464 536.127 841.771 535.3C842.078 534.473 842.571 533.747 843.251 533.12C843.944 532.48 844.871 531.947 846.031 531.52C846.831 531.227 847.784 530.967 848.891 530.74C849.998 530.513 851.251 530.3 852.651 530.1C854.051 529.887 855.591 529.653 857.271 529.4L855.311 530.48C855.311 529.2 855.004 528.26 854.391 527.66C853.778 527.06 852.751 526.76 851.311 526.76C850.511 526.76 849.678 526.953 848.811 527.34C847.944 527.727 847.338 528.413 846.991 529.4L842.071 527.84C842.618 526.053 843.644 524.6 845.151 523.48C846.658 522.36 848.711 521.8 851.311 521.8C853.218 521.8 854.911 522.093 856.391 522.68C857.871 523.267 858.991 524.28 859.751 525.72C860.178 526.52 860.431 527.32 860.511 528.12C860.591 528.92 860.631 529.813 860.631 530.8V544H855.871V539.56L856.551 540.48C855.498 541.933 854.358 542.987 853.131 543.64C851.918 544.28 850.378 544.6 848.511 544.6ZM849.671 540.32C850.671 540.32 851.511 540.147 852.191 539.8C852.884 539.44 853.431 539.033 853.831 538.58C854.244 538.127 854.524 537.747 854.671 537.44C854.951 536.853 855.111 536.173 855.151 535.4C855.204 534.613 855.231 533.96 855.231 533.44L856.831 533.84C855.218 534.107 853.911 534.333 852.911 534.52C851.911 534.693 851.104 534.853 850.491 535C849.878 535.147 849.338 535.307 848.871 535.48C848.338 535.693 847.904 535.927 847.571 536.18C847.251 536.42 847.011 536.687 846.851 536.98C846.704 537.273 846.631 537.6 846.631 537.96C846.631 538.453 846.751 538.88 846.991 539.24C847.244 539.587 847.598 539.853 848.051 540.04C848.504 540.227 849.044 540.32 849.671 540.32ZM876.431 544.6C874.285 544.6 872.491 544.1 871.051 543.1C869.611 542.1 868.525 540.74 867.791 539.02C867.071 537.3 866.711 535.36 866.711 533.2C866.711 531.04 867.071 529.1 867.791 527.38C868.511 525.66 869.571 524.3 870.971 523.3C872.371 522.3 874.098 521.8 876.151 521.8C878.218 521.8 880.018 522.293 881.551 523.28C883.085 524.267 884.271 525.62 885.111 527.34C885.965 529.047 886.391 531 886.391 533.2C886.391 535.36 885.971 537.3 885.131 539.02C884.305 540.74 883.145 542.1 881.651 543.1C880.158 544.1 878.418 544.6 876.431 544.6ZM865.791 553.6V522.4H870.591V537.2H871.271V553.6H865.791ZM875.551 539.76C876.725 539.76 877.685 539.467 878.431 538.88C879.178 538.293 879.731 537.507 880.091 536.52C880.451 535.52 880.631 534.413 880.631 533.2C880.631 532 880.445 530.907 880.071 529.92C879.698 528.92 879.118 528.127 878.331 527.54C877.558 526.94 876.565 526.64 875.351 526.64C874.218 526.64 873.298 526.913 872.591 527.46C871.898 528.007 871.391 528.773 871.071 529.76C870.751 530.747 870.591 531.893 870.591 533.2C870.591 534.507 870.751 535.653 871.071 536.64C871.391 537.627 871.911 538.393 872.631 538.94C873.365 539.487 874.338 539.76 875.551 539.76ZM631.728 599.6C629.234 599.6 627.134 598.98 625.428 597.74C623.721 596.5 622.554 594.733 621.928 592.44L627.488 591.28C627.808 592.32 628.288 593.12 628.928 593.68C629.581 594.24 630.514 594.52 631.728 594.52C633.048 594.52 634.108 594.14 634.908 593.38C635.708 592.607 636.234 591.573 636.488 590.28H630.128V586.08H636.488C636.248 584.893 635.748 583.9 634.988 583.1C634.228 582.287 633.194 581.88 631.888 581.88C630.808 581.88 629.868 582.187 629.068 582.8C628.281 583.4 627.714 584.28 627.368 585.44L621.928 584C622.408 581.773 623.514 580.02 625.248 578.74C626.981 577.447 629.114 576.8 631.648 576.8C633.848 576.8 635.754 577.293 637.368 578.28C638.994 579.267 640.248 580.627 641.128 582.36C642.008 584.08 642.448 586.04 642.448 588.24C642.448 590.387 642.021 592.32 641.168 594.04C640.314 595.747 639.088 597.1 637.488 598.1C635.888 599.1 633.968 599.6 631.728 599.6ZM646.807 599L646.847 577.4H652.367V587.8L659.687 577.4H666.407L658.607 588.2L666.927 599H659.847L652.367 588.6V599H646.807ZM678.247 599.6C676.073 599.6 674.167 599.113 672.527 598.14C670.887 597.167 669.607 595.827 668.687 594.12C667.78 592.4 667.327 590.427 667.327 588.2C667.327 585.947 667.793 583.967 668.727 582.26C669.66 580.54 670.947 579.2 672.587 578.24C674.227 577.28 676.113 576.8 678.247 576.8C680.42 576.8 682.327 577.287 683.967 578.26C685.62 579.233 686.907 580.58 687.827 582.3C688.747 584.007 689.207 585.973 689.207 588.2C689.207 590.44 688.74 592.42 687.807 594.14C686.887 595.847 685.6 597.187 683.947 598.16C682.307 599.12 680.407 599.6 678.247 599.6ZM678.247 594.52C679.993 594.52 681.293 593.933 682.147 592.76C683.013 591.573 683.447 590.053 683.447 588.2C683.447 586.28 683.007 584.747 682.127 583.6C681.26 582.453 679.967 581.88 678.247 581.88C677.06 581.88 676.087 582.147 675.327 582.68C674.567 583.213 674 583.953 673.627 584.9C673.267 585.847 673.087 586.947 673.087 588.2C673.087 590.133 673.52 591.673 674.387 592.82C675.267 593.953 676.553 594.52 678.247 594.52ZM691.605 599V594.48C692.391 594.627 692.998 594.62 693.425 594.46C693.851 594.287 694.171 593.953 694.385 593.46C694.611 592.953 694.805 592.267 694.965 591.4C695.178 590.253 695.365 588.913 695.525 587.38C695.698 585.847 695.845 584.227 695.965 582.52C696.085 580.8 696.191 579.093 696.285 577.4H712.605V599H707.165V582.48H701.045C700.991 583.173 700.918 584 700.825 584.96C700.745 585.92 700.651 586.92 700.545 587.96C700.451 588.987 700.345 589.973 700.225 590.92C700.105 591.853 699.978 592.653 699.845 593.32C699.525 595.013 699.051 596.347 698.425 597.32C697.798 598.293 696.938 598.913 695.845 599.18C694.751 599.46 693.338 599.4 691.605 599ZM727.934 599.6C725.761 599.6 723.854 599.113 722.214 598.14C720.574 597.167 719.294 595.827 718.374 594.12C717.467 592.4 717.014 590.427 717.014 588.2C717.014 585.947 717.481 583.967 718.414 582.26C719.347 580.54 720.634 579.2 722.274 578.24C723.914 577.28 725.801 576.8 727.934 576.8C730.107 576.8 732.014 577.287 733.654 578.26C735.307 579.233 736.594 580.58 737.514 582.3C738.434 584.007 738.894 585.973 738.894 588.2C738.894 590.44 738.427 592.42 737.494 594.14C736.574 595.847 735.287 597.187 733.634 598.16C731.994 599.12 730.094 599.6 727.934 599.6ZM727.934 594.52C729.681 594.52 730.981 593.933 731.834 592.76C732.701 591.573 733.134 590.053 733.134 588.2C733.134 586.28 732.694 584.747 731.814 583.6C730.947 582.453 729.654 581.88 727.934 581.88C726.747 581.88 725.774 582.147 725.014 582.68C724.254 583.213 723.687 583.953 723.314 584.9C722.954 585.847 722.774 586.947 722.774 588.2C722.774 590.133 723.207 591.673 724.074 592.82C724.954 593.953 726.241 594.52 727.934 594.52ZM743.292 599V577.4H758.892V582.48H748.732V599H743.292ZM781.946 577.4V599H776.746V585.8L766.986 599H762.666V577.4H767.866V590.16L777.666 577.4H781.946ZM800.27 599V592.12H796.79C796.337 592.12 795.717 592.113 794.93 592.1C794.157 592.073 793.43 592 792.75 591.88C791.03 591.573 789.617 590.827 788.51 589.64C787.417 588.453 786.87 586.84 786.87 584.8C786.87 582.813 787.397 581.213 788.45 580C789.503 578.787 790.91 578.013 792.67 577.68C793.39 577.533 794.13 577.453 794.89 577.44C795.663 577.413 796.297 577.4 796.79 577.4H805.71V599H800.27ZM786.35 599L791.23 591H796.83L792.03 599H786.35ZM796.19 587.92H800.27V581.6H796.19C795.95 581.6 795.683 581.613 795.39 581.64C795.11 581.667 794.817 581.72 794.51 581.8C794.137 581.907 793.79 582.107 793.47 582.4C793.15 582.68 792.89 583.027 792.69 583.44C792.49 583.84 792.39 584.28 792.39 584.76C792.39 585.52 792.617 586.167 793.07 586.7C793.523 587.22 794.03 587.56 794.59 587.72C794.87 587.8 795.15 587.853 795.43 587.88C795.723 587.907 795.977 587.92 796.19 587.92ZM809.3 599V594.48C810.087 594.627 810.693 594.62 811.12 594.46C811.547 594.287 811.867 593.953 812.08 593.46C812.307 592.953 812.5 592.267 812.66 591.4C812.873 590.253 813.06 588.913 813.22 587.38C813.393 585.847 813.54 584.227 813.66 582.52C813.78 580.8 813.887 579.093 813.98 577.4H830.3V599H824.86V582.48H818.74C818.687 583.173 818.613 584 818.52 584.96C818.44 585.92 818.347 586.92 818.24 587.96C818.147 588.987 818.04 589.973 817.92 590.92C817.8 591.853 817.673 592.653 817.54 593.32C817.22 595.013 816.747 596.347 816.12 597.32C815.493 598.293 814.633 598.913 813.54 599.18C812.447 599.46 811.033 599.4 809.3 599ZM835.869 599V577.4H841.309V584.28H843.269C843.869 584.28 844.569 584.293 845.369 584.32C846.169 584.347 846.829 584.413 847.349 584.52C848.616 584.8 849.683 585.247 850.549 585.86C851.416 586.473 852.069 587.267 852.509 588.24C852.963 589.2 853.189 590.347 853.189 591.68C853.189 593.6 852.689 595.147 851.689 596.32C850.703 597.48 849.269 598.28 847.389 598.72C846.869 598.84 846.203 598.92 845.389 598.96C844.576 598.987 843.869 599 843.269 599H835.869ZM841.309 594.8H843.869C844.109 594.8 844.376 594.787 844.669 594.76C844.963 594.733 845.256 594.68 845.549 594.6C846.109 594.44 846.603 594.087 847.029 593.54C847.456 592.993 847.669 592.373 847.669 591.68C847.669 590.92 847.449 590.273 847.009 589.74C846.569 589.193 846.056 588.84 845.469 588.68C845.189 588.6 844.909 588.547 844.629 588.52C844.349 588.493 844.096 588.48 843.869 588.48H841.309V594.8ZM855.349 599V577.4H860.789V599H855.349ZM866.338 599L866.378 577.4H871.898V587.8L879.218 577.4H885.938L878.138 588.2L886.458 599H879.378L871.898 588.6V599H866.338ZM893.728 599V582.2H886.648V577.4H906.248V582.2H899.168V599H893.728ZM915.62 599.6C914.074 599.6 912.76 599.307 911.68 598.72C910.614 598.12 909.8 597.327 909.24 596.34C908.694 595.34 908.42 594.24 908.42 593.04C908.42 592.04 908.574 591.127 908.88 590.3C909.187 589.473 909.68 588.747 910.36 588.12C911.054 587.48 911.98 586.947 913.14 586.52C913.94 586.227 914.894 585.967 916 585.74C917.107 585.513 918.36 585.3 919.76 585.1C921.16 584.887 922.7 584.653 924.38 584.4L922.42 585.48C922.42 584.2 922.114 583.26 921.5 582.66C920.887 582.06 919.86 581.76 918.42 581.76C917.62 581.76 916.787 581.953 915.92 582.34C915.054 582.727 914.447 583.413 914.1 584.4L909.18 582.84C909.727 581.053 910.754 579.6 912.26 578.48C913.767 577.36 915.82 576.8 918.42 576.8C920.327 576.8 922.02 577.093 923.5 577.68C924.98 578.267 926.1 579.28 926.86 580.72C927.287 581.52 927.54 582.32 927.62 583.12C927.7 583.92 927.74 584.813 927.74 585.8V599H922.98V594.56L923.66 595.48C922.607 596.933 921.467 597.987 920.24 598.64C919.027 599.28 917.487 599.6 915.62 599.6ZM916.78 595.32C917.78 595.32 918.62 595.147 919.3 594.8C919.994 594.44 920.54 594.033 920.94 593.58C921.354 593.127 921.634 592.747 921.78 592.44C922.06 591.853 922.22 591.173 922.26 590.4C922.314 589.613 922.34 588.96 922.34 588.44L923.94 588.84C922.327 589.107 921.02 589.333 920.02 589.52C919.02 589.693 918.214 589.853 917.6 590C916.987 590.147 916.447 590.307 915.98 590.48C915.447 590.693 915.014 590.927 914.68 591.18C914.36 591.42 914.12 591.687 913.96 591.98C913.814 592.273 913.74 592.6 913.74 592.96C913.74 593.453 913.86 593.88 914.1 594.24C914.354 594.587 914.707 594.853 915.16 595.04C915.614 595.227 916.154 595.32 916.78 595.32ZM940.581 599.6C938.567 599.6 936.701 599.187 934.981 598.36C933.274 597.52 931.927 596.373 930.941 594.92L935.221 592.04C935.981 592.813 936.794 593.42 937.661 593.86C938.541 594.3 939.501 594.52 940.541 594.52C941.621 594.52 942.461 594.287 943.061 593.82C943.674 593.353 943.981 592.733 943.981 591.96C943.981 591.213 943.734 590.707 943.241 590.44C942.761 590.173 942.147 590.033 941.401 590.02C940.667 590.007 939.927 590 939.181 590H937.901V585.76H939.181C940.301 585.76 941.254 585.667 942.041 585.48C942.827 585.28 943.221 584.733 943.221 583.84C943.221 583.093 942.947 582.573 942.401 582.28C941.854 581.987 941.221 581.84 940.501 581.84C939.541 581.84 938.574 582.047 937.601 582.46C936.627 582.873 935.741 583.36 934.941 583.92L931.941 580.2C933.167 579.173 934.527 578.353 936.021 577.74C937.527 577.113 939.101 576.8 940.741 576.8C942.127 576.8 943.434 577.04 944.661 577.52C945.901 578 946.901 578.727 947.661 579.7C948.434 580.66 948.821 581.867 948.821 583.32C948.821 584.253 948.634 585.167 948.261 586.06C947.887 586.953 947.247 587.84 946.341 588.72L946.301 587C946.967 587.347 947.541 587.793 948.021 588.34C948.514 588.873 948.887 589.493 949.141 590.2C949.407 590.907 949.541 591.68 949.541 592.52C949.541 594.067 949.127 595.367 948.301 596.42C947.474 597.473 946.381 598.267 945.021 598.8C943.661 599.333 942.181 599.6 940.581 599.6ZM959.956 599.6C958.41 599.6 957.096 599.307 956.016 598.72C954.95 598.12 954.136 597.327 953.576 596.34C953.03 595.34 952.756 594.24 952.756 593.04C952.756 592.04 952.91 591.127 953.216 590.3C953.523 589.473 954.016 588.747 954.696 588.12C955.39 587.48 956.316 586.947 957.476 586.52C958.276 586.227 959.23 585.967 960.336 585.74C961.443 585.513 962.696 585.3 964.096 585.1C965.496 584.887 967.036 584.653 968.716 584.4L966.756 585.48C966.756 584.2 966.45 583.26 965.836 582.66C965.223 582.06 964.196 581.76 962.756 581.76C961.956 581.76 961.123 581.953 960.256 582.34C959.39 582.727 958.783 583.413 958.436 584.4L953.516 582.84C954.063 581.053 955.09 579.6 956.596 578.48C958.103 577.36 960.156 576.8 962.756 576.8C964.663 576.8 966.356 577.093 967.836 577.68C969.316 578.267 970.436 579.28 971.196 580.72C971.623 581.52 971.876 582.32 971.956 583.12C972.036 583.92 972.076 584.813 972.076 585.8V599H967.316V594.56L967.996 595.48C966.943 596.933 965.803 597.987 964.576 598.64C963.363 599.28 961.823 599.6 959.956 599.6ZM961.116 595.32C962.116 595.32 962.956 595.147 963.636 594.8C964.33 594.44 964.876 594.033 965.276 593.58C965.69 593.127 965.97 592.747 966.116 592.44C966.396 591.853 966.556 591.173 966.596 590.4C966.65 589.613 966.676 588.96 966.676 588.44L968.276 588.84C966.663 589.107 965.356 589.333 964.356 589.52C963.356 589.693 962.55 589.853 961.936 590C961.323 590.147 960.783 590.307 960.316 590.48C959.783 590.693 959.35 590.927 959.016 591.18C958.696 591.42 958.456 591.687 958.296 591.98C958.15 592.273 958.076 592.6 958.076 592.96C958.076 593.453 958.196 593.88 958.436 594.24C958.69 594.587 959.043 594.853 959.496 595.04C959.95 595.227 960.49 595.32 961.116 595.32ZM569.056 654L576.576 643.2L569.576 632.4H575.496L582.016 642.8V632.4H586.816V642.8L593.336 632.4H599.256L592.256 643.2L599.776 654H593.496L586.816 643.6V654H582.016V643.6L575.336 654H569.056ZM608.198 654.6C606.652 654.6 605.338 654.307 604.258 653.72C603.192 653.12 602.378 652.327 601.818 651.34C601.272 650.34 600.998 649.24 600.998 648.04C600.998 647.04 601.152 646.127 601.458 645.3C601.765 644.473 602.258 643.747 602.938 643.12C603.632 642.48 604.558 641.947 605.718 641.52C606.518 641.227 607.472 640.967 608.578 640.74C609.685 640.513 610.938 640.3 612.338 640.1C613.738 639.887 615.278 639.653 616.958 639.4L614.998 640.48C614.998 639.2 614.692 638.26 614.078 637.66C613.465 637.06 612.438 636.76 610.998 636.76C610.198 636.76 609.365 636.953 608.498 637.34C607.632 637.727 607.025 638.413 606.678 639.4L601.758 637.84C602.305 636.053 603.332 634.6 604.838 633.48C606.345 632.36 608.398 631.8 610.998 631.8C612.905 631.8 614.598 632.093 616.078 632.68C617.558 633.267 618.678 634.28 619.438 635.72C619.865 636.52 620.118 637.32 620.198 638.12C620.278 638.92 620.318 639.813 620.318 640.8V654H615.558V649.56L616.238 650.48C615.185 651.933 614.045 652.987 612.818 653.64C611.605 654.28 610.065 654.6 608.198 654.6ZM609.358 650.32C610.358 650.32 611.198 650.147 611.878 649.8C612.572 649.44 613.118 649.033 613.518 648.58C613.932 648.127 614.212 647.747 614.358 647.44C614.638 646.853 614.798 646.173 614.838 645.4C614.892 644.613 614.918 643.96 614.918 643.44L616.518 643.84C614.905 644.107 613.598 644.333 612.598 644.52C611.598 644.693 610.792 644.853 610.178 645C609.565 645.147 609.025 645.307 608.558 645.48C608.025 645.693 607.592 645.927 607.258 646.18C606.938 646.42 606.698 646.687 606.538 646.98C606.392 647.273 606.318 647.6 606.318 647.96C606.318 648.453 606.438 648.88 606.678 649.24C606.932 649.587 607.285 649.853 607.738 650.04C608.192 650.227 608.732 650.32 609.358 650.32ZM625.479 654V632.4H630.679V649.2H636.119V632.4H641.319V649.2H646.759V632.4H651.959V654H625.479ZM657.51 654V632.4H662.95V639.28H664.91C665.51 639.28 666.21 639.293 667.01 639.32C667.81 639.347 668.47 639.413 668.99 639.52C670.257 639.8 671.323 640.247 672.19 640.86C673.057 641.473 673.71 642.267 674.15 643.24C674.603 644.2 674.83 645.347 674.83 646.68C674.83 648.6 674.33 650.147 673.33 651.32C672.343 652.48 670.91 653.28 669.03 653.72C668.51 653.84 667.843 653.92 667.03 653.96C666.217 653.987 665.51 654 664.91 654H657.51ZM662.95 649.8H665.51C665.75 649.8 666.017 649.787 666.31 649.76C666.603 649.733 666.897 649.68 667.19 649.6C667.75 649.44 668.243 649.087 668.67 648.54C669.097 647.993 669.31 647.373 669.31 646.68C669.31 645.92 669.09 645.273 668.65 644.74C668.21 644.193 667.697 643.84 667.11 643.68C666.83 643.6 666.55 643.547 666.27 643.52C665.99 643.493 665.737 643.48 665.51 643.48H662.95V649.8ZM676.99 654V632.4H682.43V654H676.99ZM686.019 654V649.48C686.805 649.627 687.412 649.62 687.839 649.46C688.265 649.287 688.585 648.953 688.799 648.46C689.025 647.953 689.219 647.267 689.379 646.4C689.592 645.253 689.779 643.913 689.939 642.38C690.112 640.847 690.259 639.227 690.379 637.52C690.499 635.8 690.605 634.093 690.699 632.4H707.019V654H701.579V637.48H695.459C695.405 638.173 695.332 639 695.239 639.96C695.159 640.92 695.065 641.92 694.959 642.96C694.865 643.987 694.759 644.973 694.639 645.92C694.519 646.853 694.392 647.653 694.259 648.32C693.939 650.013 693.465 651.347 692.839 652.32C692.212 653.293 691.352 653.913 690.259 654.18C689.165 654.46 687.752 654.4 686.019 654ZM725.916 654V637.2H718.836V632.4H738.436V637.2H731.356V654H725.916ZM752.278 654.6C750.064 654.6 748.111 654.127 746.418 653.18C744.738 652.22 743.418 650.907 742.458 649.24C741.511 647.56 741.038 645.64 741.038 643.48C741.038 641.12 741.504 639.067 742.438 637.32C743.371 635.573 744.658 634.22 746.298 633.26C747.938 632.287 749.824 631.8 751.958 631.8C754.224 631.8 756.151 632.333 757.738 633.4C759.324 634.467 760.498 635.967 761.258 637.9C762.018 639.833 762.284 642.107 762.058 644.72H756.678V642.72C756.678 640.52 756.324 638.94 755.618 637.98C754.924 637.007 753.784 636.52 752.198 636.52C750.344 636.52 748.978 637.087 748.098 638.22C747.231 639.34 746.798 641 746.798 643.2C746.798 645.213 747.231 646.773 748.098 647.88C748.978 648.973 750.264 649.52 751.958 649.52C753.024 649.52 753.938 649.287 754.698 648.82C755.458 648.353 756.038 647.68 756.438 646.8L761.878 648.36C761.064 650.333 759.778 651.867 758.018 652.96C756.271 654.053 754.358 654.6 752.278 654.6ZM745.118 644.72V640.68H759.438V644.72H745.118ZM763.392 654L771.112 643.08L763.552 632.4H769.952L774.272 638.8L778.512 632.4H784.912L777.352 643.08L785.112 654H778.712L774.272 647.36L769.792 654H763.392ZM788.291 654V632.4H793.731V640.64H802.611V632.4H808.051V654H802.611V645.72H793.731V654H788.291ZM823.364 654.6C821.19 654.6 819.284 654.113 817.644 653.14C816.004 652.167 814.724 650.827 813.804 649.12C812.897 647.4 812.444 645.427 812.444 643.2C812.444 640.947 812.91 638.967 813.844 637.26C814.777 635.54 816.064 634.2 817.704 633.24C819.344 632.28 821.23 631.8 823.364 631.8C825.537 631.8 827.444 632.287 829.084 633.26C830.737 634.233 832.024 635.58 832.944 637.3C833.864 639.007 834.324 640.973 834.324 643.2C834.324 645.44 833.857 647.42 832.924 649.14C832.004 650.847 830.717 652.187 829.064 653.16C827.424 654.12 825.524 654.6 823.364 654.6ZM823.364 649.52C825.11 649.52 826.41 648.933 827.264 647.76C828.13 646.573 828.564 645.053 828.564 643.2C828.564 641.28 828.124 639.747 827.244 638.6C826.377 637.453 825.084 636.88 823.364 636.88C822.177 636.88 821.204 637.147 820.444 637.68C819.684 638.213 819.117 638.953 818.744 639.9C818.384 640.847 818.204 641.947 818.204 643.2C818.204 645.133 818.637 646.673 819.504 647.82C820.384 648.953 821.67 649.52 823.364 649.52ZM836.722 654V649.48C837.509 649.627 838.115 649.62 838.542 649.46C838.969 649.287 839.289 648.953 839.502 648.46C839.729 647.953 839.922 647.267 840.082 646.4C840.295 645.253 840.482 643.913 840.642 642.38C840.815 640.847 840.962 639.227 841.082 637.52C841.202 635.8 841.309 634.093 841.402 632.4H857.722V654H852.282V637.48H846.162C846.109 638.173 846.035 639 845.942 639.96C845.862 640.92 845.769 641.92 845.662 642.96C845.569 643.987 845.462 644.973 845.342 645.92C845.222 646.853 845.095 647.653 844.962 648.32C844.642 650.013 844.169 651.347 843.542 652.32C842.915 653.293 842.055 653.913 840.962 654.18C839.869 654.46 838.455 654.4 836.722 654ZM873.051 654.6C870.878 654.6 868.971 654.113 867.331 653.14C865.691 652.167 864.411 650.827 863.491 649.12C862.585 647.4 862.131 645.427 862.131 643.2C862.131 640.947 862.598 638.967 863.531 637.26C864.465 635.54 865.751 634.2 867.391 633.24C869.031 632.28 870.918 631.8 873.051 631.8C875.225 631.8 877.131 632.287 878.771 633.26C880.425 634.233 881.711 635.58 882.631 637.3C883.551 639.007 884.011 640.973 884.011 643.2C884.011 645.44 883.545 647.42 882.611 649.14C881.691 650.847 880.405 652.187 878.751 653.16C877.111 654.12 875.211 654.6 873.051 654.6ZM873.051 649.52C874.798 649.52 876.098 648.933 876.951 647.76C877.818 646.573 878.251 645.053 878.251 643.2C878.251 641.28 877.811 639.747 876.931 638.6C876.065 637.453 874.771 636.88 873.051 636.88C871.865 636.88 870.891 637.147 870.131 637.68C869.371 638.213 868.805 638.953 868.431 639.9C868.071 640.847 867.891 641.947 867.891 643.2C867.891 645.133 868.325 646.673 869.191 647.82C870.071 648.953 871.358 649.52 873.051 649.52ZM888.409 654V632.4H904.009V637.48H893.849V654H888.409ZM927.063 632.4V654H921.863V640.8L912.103 654H907.783V632.4H912.983V645.16L922.783 632.4H927.063ZM945.387 654V647.12H941.907C941.454 647.12 940.834 647.113 940.047 647.1C939.274 647.073 938.547 647 937.867 646.88C936.147 646.573 934.734 645.827 933.627 644.64C932.534 643.453 931.987 641.84 931.987 639.8C931.987 637.813 932.514 636.213 933.567 635C934.621 633.787 936.027 633.013 937.787 632.68C938.507 632.533 939.247 632.453 940.007 632.44C940.781 632.413 941.414 632.4 941.907 632.4H950.827V654H945.387ZM931.467 654L936.347 646H941.947L937.147 654H931.467ZM941.307 642.92H945.387V636.6H941.307C941.067 636.6 940.801 636.613 940.507 636.64C940.227 636.667 939.934 636.72 939.627 636.8C939.254 636.907 938.907 637.107 938.587 637.4C938.267 637.68 938.007 638.027 937.807 638.44C937.607 638.84 937.507 639.28 937.507 639.76C937.507 640.52 937.734 641.167 938.187 641.7C938.641 642.22 939.147 642.56 939.707 642.72C939.987 642.8 940.267 642.853 940.547 642.88C940.841 642.907 941.094 642.92 941.307 642.92ZM954.417 654V649.48C955.204 649.627 955.811 649.62 956.237 649.46C956.664 649.287 956.984 648.953 957.197 648.46C957.424 647.953 957.617 647.267 957.777 646.4C957.991 645.253 958.177 643.913 958.337 642.38C958.511 640.847 958.657 639.227 958.777 637.52C958.897 635.8 959.004 634.093 959.097 632.4H975.417V654H969.977V637.48H963.857C963.804 638.173 963.731 639 963.637 639.96C963.557 640.92 963.464 641.92 963.357 642.96C963.264 643.987 963.157 644.973 963.037 645.92C962.917 646.853 962.791 647.653 962.657 648.32C962.337 650.013 961.864 651.347 961.237 652.32C960.611 653.293 959.751 653.913 958.657 654.18C957.564 654.46 956.151 654.4 954.417 654ZM987.027 654.6C985.48 654.6 984.167 654.307 983.087 653.72C982.02 653.12 981.207 652.327 980.647 651.34C980.1 650.34 979.827 649.24 979.827 648.04C979.827 647.04 979.98 646.127 980.287 645.3C980.593 644.473 981.087 643.747 981.767 643.12C982.46 642.48 983.387 641.947 984.547 641.52C985.347 641.227 986.3 640.967 987.407 640.74C988.513 640.513 989.767 640.3 991.167 640.1C992.567 639.887 994.107 639.653 995.787 639.4L993.827 640.48C993.827 639.2 993.52 638.26 992.907 637.66C992.293 637.06 991.267 636.76 989.827 636.76C989.027 636.76 988.193 636.953 987.327 637.34C986.46 637.727 985.853 638.413 985.507 639.4L980.587 637.84C981.133 636.053 982.16 634.6 983.667 633.48C985.173 632.36 987.227 631.8 989.827 631.8C991.733 631.8 993.427 632.093 994.907 632.68C996.387 633.267 997.507 634.28 998.267 635.72C998.693 636.52 998.947 637.32 999.027 638.12C999.107 638.92 999.147 639.813 999.147 640.8V654H994.387V649.56L995.067 650.48C994.013 651.933 992.873 652.987 991.647 653.64C990.433 654.28 988.893 654.6 987.027 654.6ZM988.187 650.32C989.187 650.32 990.027 650.147 990.707 649.8C991.4 649.44 991.947 649.033 992.347 648.58C992.76 648.127 993.04 647.747 993.187 647.44C993.467 646.853 993.627 646.173 993.667 645.4C993.72 644.613 993.747 643.96 993.747 643.44L995.347 643.84C993.733 644.107 992.427 644.333 991.427 644.52C990.427 644.693 989.62 644.853 989.007 645C988.393 645.147 987.853 645.307 987.387 645.48C986.853 645.693 986.42 645.927 986.087 646.18C985.767 646.42 985.527 646.687 985.367 646.98C985.22 647.273 985.147 647.6 985.147 647.96C985.147 648.453 985.267 648.88 985.507 649.24C985.76 649.587 986.113 649.853 986.567 650.04C987.02 650.227 987.56 650.32 988.187 650.32ZM1014.95 654.6C1012.8 654.6 1011.01 654.1 1009.57 653.1C1008.13 652.1 1007.04 650.74 1006.31 649.02C1005.59 647.3 1005.23 645.36 1005.23 643.2C1005.23 641.04 1005.59 639.1 1006.31 637.38C1007.03 635.66 1008.09 634.3 1009.49 633.3C1010.89 632.3 1012.61 631.8 1014.67 631.8C1016.73 631.8 1018.53 632.293 1020.07 633.28C1021.6 634.267 1022.79 635.62 1023.63 637.34C1024.48 639.047 1024.91 641 1024.91 643.2C1024.91 645.36 1024.49 647.3 1023.65 649.02C1022.82 650.74 1021.66 652.1 1020.17 653.1C1018.67 654.1 1016.93 654.6 1014.95 654.6ZM1004.31 663.6V632.4H1009.11V647.2H1009.79V663.6H1004.31ZM1014.07 649.76C1015.24 649.76 1016.2 649.467 1016.95 648.88C1017.69 648.293 1018.25 647.507 1018.61 646.52C1018.97 645.52 1019.15 644.413 1019.15 643.2C1019.15 642 1018.96 640.907 1018.59 639.92C1018.21 638.92 1017.63 638.127 1016.85 637.54C1016.07 636.94 1015.08 636.64 1013.87 636.64C1012.73 636.64 1011.81 636.913 1011.11 637.46C1010.41 638.007 1009.91 638.773 1009.59 639.76C1009.27 640.747 1009.11 641.893 1009.11 643.2C1009.11 644.507 1009.27 645.653 1009.59 646.64C1009.91 647.627 1010.43 648.393 1011.15 648.94C1011.88 649.487 1012.85 649.76 1014.07 649.76ZM749.581 716.2V709L741.741 687.4H747.181L752.301 702.36L757.421 687.4H762.861L755.021 709V716.2H749.581ZM778.836 709V702C778.076 702.373 777.236 702.66 776.316 702.86C775.409 703.06 774.462 703.16 773.476 703.16C771.236 703.16 769.456 702.653 768.136 701.64C766.829 700.627 765.982 699.16 765.596 697.24C765.489 696.693 765.409 696.127 765.356 695.54C765.316 694.953 765.289 694.42 765.276 693.94C765.276 693.447 765.276 693.067 765.276 692.8V687.4H770.796V692.8C770.796 693.053 770.809 693.467 770.836 694.04C770.862 694.6 770.942 695.16 771.076 695.72C771.316 696.653 771.722 697.327 772.296 697.74C772.882 698.153 773.716 698.36 774.796 698.36C775.716 698.36 776.502 698.24 777.156 698C777.822 697.747 778.382 697.44 778.836 697.08V687.4H784.316V709H778.836ZM795.753 716.2V709L787.913 687.4H793.353L798.473 702.36L803.593 687.4H809.033L801.193 709V716.2H795.753ZM812.608 709V687.4H818.048V695.64H826.928V687.4H832.368V709H826.928V700.72H818.048V709H812.608ZM838.36 691.04L838.68 688.76C839.32 688.813 839.84 688.713 840.24 688.46C840.64 688.193 840.913 687.82 841.06 687.34C841.22 686.847 841.253 686.28 841.16 685.64H838.36V680.2H843.8V685.64C843.8 687.56 843.353 689.013 842.46 690C841.567 690.987 840.2 691.333 838.36 691.04ZM845.6 691.04L845.92 688.76C846.56 688.813 847.08 688.713 847.48 688.46C847.88 688.193 848.153 687.82 848.3 687.34C848.46 686.847 848.493 686.28 848.4 685.64H845.6V680.2H851.04V685.64C851.04 687.56 850.593 689.013 849.7 690C848.807 690.987 847.44 691.333 845.6 691.04Z" fill="#161616"/>
<rect x="430.582" y="221" width="56" height="56" rx="28" fill="#161616"/>
<path d="M453.22 259.39C452.007 259.39 450.923 259.117 449.97 258.571C449.025 258.016 448.276 257.267 447.721 256.322C447.175 255.369 446.902 254.285 446.902 253.072V246.208C446.902 244.995 447.175 243.911 447.721 242.958C448.276 242.005 449.025 241.255 449.97 240.709C450.923 240.163 452.007 239.89 453.22 239.89C454.433 239.89 455.517 240.163 456.47 240.709C457.423 241.255 458.173 242.005 458.719 242.958C459.265 243.911 459.538 244.995 459.538 246.208V253.072C459.538 254.285 459.265 255.369 458.719 256.322C458.173 257.267 457.423 258.016 456.47 258.571C455.517 259.117 454.433 259.39 453.22 259.39ZM453.22 257.167C453.957 257.167 454.624 256.989 455.222 256.634C455.82 256.279 456.297 255.802 456.652 255.204C457.007 254.597 457.185 253.93 457.185 253.202V246.065C457.185 245.328 457.007 244.661 456.652 244.063C456.297 243.465 455.82 242.988 455.222 242.633C454.624 242.278 453.957 242.1 453.22 242.1C452.492 242.1 451.825 242.278 451.218 242.633C450.62 242.988 450.143 243.465 449.788 244.063C449.433 244.661 449.255 245.328 449.255 246.065V253.202C449.255 253.93 449.433 254.597 449.788 255.204C450.143 255.802 450.62 256.279 451.218 256.634C451.825 256.989 452.492 257.167 453.22 257.167ZM466.44 259V242.841L462.917 244.973V242.386L466.44 240.28H468.793V259H466.44Z" fill="white"/>
<rect x="967.582" y="115" width="56" height="56" rx="28" fill="#161616"/>
<path d="M987.72 153.39C986.507 153.39 985.423 153.117 984.47 152.571C983.525 152.016 982.776 151.267 982.221 150.322C981.675 149.369 981.402 148.285 981.402 147.072V140.208C981.402 138.995 981.675 137.911 982.221 136.958C982.776 136.005 983.525 135.255 984.47 134.709C985.423 134.163 986.507 133.89 987.72 133.89C988.933 133.89 990.017 134.163 990.97 134.709C991.923 135.255 992.673 136.005 993.219 136.958C993.765 137.911 994.038 138.995 994.038 140.208V147.072C994.038 148.285 993.765 149.369 993.219 150.322C992.673 151.267 991.923 152.016 990.97 152.571C990.017 153.117 988.933 153.39 987.72 153.39ZM987.72 151.167C988.457 151.167 989.124 150.989 989.722 150.634C990.32 150.279 990.797 149.802 991.152 149.204C991.507 148.597 991.685 147.93 991.685 147.202V140.065C991.685 139.328 991.507 138.661 991.152 138.063C990.797 137.465 990.32 136.988 989.722 136.633C989.124 136.278 988.457 136.1 987.72 136.1C986.992 136.1 986.325 136.278 985.718 136.633C985.12 136.988 984.643 137.465 984.288 138.063C983.933 138.661 983.755 139.328 983.755 140.065V147.202C983.755 147.93 983.933 148.597 984.288 149.204C984.643 149.802 985.12 150.279 985.718 150.634C986.325 150.989 986.992 151.167 987.72 151.167ZM997.157 152.987L997.17 150.907L1005.48 143.432C1006.17 142.808 1006.63 142.219 1006.87 141.664C1007.11 141.101 1007.23 140.524 1007.23 139.935C1007.23 139.216 1007.07 138.566 1006.74 137.985C1006.41 137.404 1005.96 136.945 1005.39 136.607C1004.82 136.269 1004.18 136.1 1003.46 136.1C1002.72 136.1 1002.05 136.278 1001.47 136.633C1000.89 136.98 1000.43 137.443 1000.1 138.024C999.766 138.605 999.606 139.237 999.614 139.922H997.248C997.248 138.743 997.521 137.703 998.067 136.802C998.613 135.892 999.354 135.181 1000.29 134.67C1001.24 134.15 1002.31 133.89 1003.5 133.89C1004.66 133.89 1005.7 134.159 1006.62 134.696C1007.54 135.225 1008.26 135.948 1008.79 136.867C1009.33 137.777 1009.6 138.808 1009.6 139.961C1009.6 140.776 1009.49 141.482 1009.29 142.08C1009.09 142.678 1008.78 143.233 1008.35 143.744C1007.93 144.247 1007.39 144.784 1006.75 145.356L999.848 151.557L999.549 150.777H1009.6V152.987H997.157Z" fill="white"/>
<rect x="949.582" y="430" width="56" height="56" rx="28" fill="#161616"/>
<path d="M970.22 468.39C969.007 468.39 967.923 468.117 966.97 467.571C966.025 467.016 965.276 466.267 964.721 465.322C964.175 464.369 963.902 463.285 963.902 462.072V455.208C963.902 453.995 964.175 452.911 964.721 451.958C965.276 451.005 966.025 450.255 966.97 449.709C967.923 449.163 969.007 448.89 970.22 448.89C971.433 448.89 972.517 449.163 973.47 449.709C974.423 450.255 975.173 451.005 975.719 451.958C976.265 452.911 976.538 453.995 976.538 455.208V462.072C976.538 463.285 976.265 464.369 975.719 465.322C975.173 466.267 974.423 467.016 973.47 467.571C972.517 468.117 971.433 468.39 970.22 468.39ZM970.22 466.167C970.957 466.167 971.624 465.989 972.222 465.634C972.82 465.279 973.297 464.802 973.652 464.204C974.007 463.597 974.185 462.93 974.185 462.202V455.065C974.185 454.328 974.007 453.661 973.652 453.063C973.297 452.465 972.82 451.988 972.222 451.633C971.624 451.278 970.957 451.1 970.22 451.1C969.492 451.1 968.825 451.278 968.218 451.633C967.62 451.988 967.143 452.465 966.788 453.063C966.433 453.661 966.255 454.328 966.255 455.065V462.202C966.255 462.93 966.433 463.597 966.788 464.204C967.143 464.802 967.62 465.279 968.218 465.634C968.825 465.989 969.492 466.167 970.22 466.167ZM985.312 468.364C984.385 468.364 983.523 468.195 982.725 467.857C981.928 467.51 981.239 467.025 980.658 466.401C980.086 465.768 979.666 465.019 979.397 464.152L981.62 463.515C981.906 464.382 982.383 465.04 983.05 465.491C983.718 465.942 984.467 466.163 985.299 466.154C986.062 466.137 986.721 465.963 987.275 465.634C987.839 465.296 988.272 464.837 988.575 464.256C988.887 463.675 989.043 463.004 989.043 462.241C989.043 461.08 988.697 460.139 988.003 459.42C987.31 458.692 986.4 458.328 985.273 458.328C984.961 458.328 984.632 458.371 984.285 458.458C983.947 458.545 983.631 458.666 983.336 458.822L982.218 456.989L989.16 450.71L989.459 451.49H980.138V449.28H991.175V451.503L985.26 457.171L985.234 456.352C986.474 456.265 987.557 456.469 988.484 456.963C989.412 457.457 990.131 458.163 990.642 459.082C991.162 460.001 991.422 461.054 991.422 462.241C991.422 463.437 991.154 464.494 990.616 465.413C990.079 466.332 989.351 467.055 988.432 467.584C987.514 468.104 986.474 468.364 985.312 468.364Z" fill="white"/>
</svg>
