<svg width="1248" height="871" viewBox="0 0 1248 871" fill="none" xmlns="http://www.w3.org/2000/svg">
<path d="M661.146 350.93C645.469 309.195 660.741 260.24 698.314 214.784C735.877 169.34 795.665 127.484 868.783 100.019C941.901 72.554 1014.46 64.6967 1072.65 74.1725C1130.86 83.6507 1174.58 110.445 1190.26 152.18C1205.94 193.915 1190.67 242.87 1153.09 288.326C1115.53 333.77 1055.74 375.625 982.624 403.09C909.506 430.556 836.948 438.413 778.756 428.937C720.548 419.459 676.823 392.665 661.146 350.93Z" fill="#F4F8FF" stroke="#161616"/>
<path d="M70.7964 502.151C51.4663 450.691 70.4387 390.297 116.95 334.209C163.451 278.135 237.413 226.456 327.824 192.495C418.235 158.534 507.93 148.739 579.849 160.332C651.784 171.928 705.826 204.896 725.156 256.357C744.486 307.818 725.513 368.211 679.002 424.299C632.501 480.374 558.539 532.053 468.128 566.013C377.717 599.974 288.022 609.769 216.103 598.176C144.168 586.58 90.1264 553.612 70.7964 502.151Z" stroke="#161616"/>
<path d="M508.441 680.191C491.71 627.808 511.043 569.288 555.993 516.99C600.937 464.7 671.44 418.7 756.857 391.418C842.275 364.135 926.389 360.75 993.323 377.307C1060.27 393.866 1109.94 430.345 1126.67 482.728C1143.4 535.111 1124.07 593.631 1079.12 645.929C1034.18 698.219 963.674 744.219 878.256 771.501C792.838 798.784 708.725 802.169 641.791 785.612C574.848 769.053 525.173 732.574 508.441 680.191Z" stroke="#161616"/>
<path d="M293.97 354.2L293.65 356.48C293.01 356.427 292.49 356.533 292.09 356.8C291.69 357.053 291.41 357.427 291.25 357.92C291.103 358.4 291.077 358.96 291.17 359.6H293.97V365.04H288.53V359.6C288.53 357.68 288.977 356.227 289.87 355.24C290.763 354.24 292.13 353.893 293.97 354.2ZM286.73 354.2L286.41 356.48C285.77 356.427 285.25 356.533 284.85 356.8C284.45 357.053 284.17 357.427 284.01 357.92C283.863 358.4 283.837 358.96 283.93 359.6H286.73V365.04H281.29V359.6C281.29 357.68 281.737 356.227 282.63 355.24C283.523 354.24 284.89 353.893 286.73 354.2ZM306.992 383V371.28L297.152 354.2H303.512L309.752 365.04L315.992 354.2H322.352L312.512 371.28V383H306.992ZM331.665 383.6C329.491 383.6 327.585 383.113 325.945 382.14C324.305 381.167 323.025 379.827 322.105 378.12C321.198 376.4 320.745 374.427 320.745 372.2C320.745 369.947 321.211 367.967 322.145 366.26C323.078 364.54 324.365 363.2 326.005 362.24C327.645 361.28 329.531 360.8 331.665 360.8C333.838 360.8 335.745 361.287 337.385 362.26C339.038 363.233 340.325 364.58 341.245 366.3C342.165 368.007 342.625 369.973 342.625 372.2C342.625 374.44 342.158 376.42 341.225 378.14C340.305 379.847 339.018 381.187 337.365 382.16C335.725 383.12 333.825 383.6 331.665 383.6ZM331.665 378.52C333.411 378.52 334.711 377.933 335.565 376.76C336.431 375.573 336.865 374.053 336.865 372.2C336.865 370.28 336.425 368.747 335.545 367.6C334.678 366.453 333.385 365.88 331.665 365.88C330.478 365.88 329.505 366.147 328.745 366.68C327.985 367.213 327.418 367.953 327.045 368.9C326.685 369.847 326.505 370.947 326.505 372.2C326.505 374.133 326.938 375.673 327.805 376.82C328.685 377.953 329.971 378.52 331.665 378.52ZM355.063 383.64C353.369 383.64 351.989 383.353 350.923 382.78C349.856 382.207 349.023 381.48 348.423 380.6C347.836 379.72 347.416 378.807 347.163 377.86C346.909 376.9 346.756 376.027 346.703 375.24C346.649 374.453 346.623 373.88 346.623 373.52V361.4H352.143V371.6C352.143 372.093 352.169 372.727 352.223 373.5C352.276 374.26 352.443 375.027 352.723 375.8C353.003 376.573 353.456 377.22 354.083 377.74C354.723 378.26 355.623 378.52 356.783 378.52C357.249 378.52 357.749 378.447 358.283 378.3C358.816 378.153 359.316 377.873 359.783 377.46C360.249 377.033 360.629 376.413 360.923 375.6C361.229 374.773 361.383 373.693 361.383 372.36L364.503 373.84C364.503 375.547 364.156 377.147 363.463 378.64C362.769 380.133 361.723 381.34 360.323 382.26C358.936 383.18 357.183 383.64 355.063 383.64ZM362.063 383V375.84H361.383V361.4H366.863V383H362.063ZM385.412 383C383.919 383.28 382.452 383.4 381.012 383.36C379.586 383.333 378.306 383.087 377.172 382.62C376.052 382.14 375.199 381.373 374.612 380.32C374.079 379.333 373.799 378.333 373.772 377.32C373.746 376.293 373.732 375.133 373.732 373.84V355.4H379.172V373.52C379.172 374.36 379.179 375.12 379.192 375.8C379.219 376.467 379.359 377 379.612 377.4C380.092 378.16 380.859 378.573 381.912 378.64C382.966 378.707 384.132 378.653 385.412 378.48V383ZM370.052 365.6V361.4H385.412V365.6H370.052ZM404.946 383V372.8C404.946 372.307 404.919 371.68 404.866 370.92C404.812 370.147 404.646 369.373 404.366 368.6C404.086 367.827 403.626 367.18 402.986 366.66C402.359 366.14 401.466 365.88 400.306 365.88C399.839 365.88 399.339 365.953 398.806 366.1C398.272 366.247 397.772 366.533 397.306 366.96C396.839 367.373 396.452 367.987 396.146 368.8C395.852 369.613 395.706 370.693 395.706 372.04L392.586 370.56C392.586 368.853 392.932 367.253 393.626 365.76C394.319 364.267 395.359 363.06 396.746 362.14C398.146 361.22 399.906 360.76 402.026 360.76C403.719 360.76 405.099 361.047 406.166 361.62C407.232 362.193 408.059 362.92 408.646 363.8C409.246 364.68 409.672 365.6 409.926 366.56C410.179 367.507 410.332 368.373 410.386 369.16C410.439 369.947 410.466 370.52 410.466 370.88V383H404.946ZM390.186 383V354.2H395.026V369H395.706V383H390.186ZM425.463 383V361.48C425.463 360.933 425.477 360.313 425.503 359.62C425.53 358.927 425.637 358.227 425.823 357.52C426.023 356.813 426.383 356.173 426.903 355.6C427.57 354.853 428.29 354.347 429.063 354.08C429.85 353.8 430.61 353.653 431.343 353.64C432.077 353.613 432.703 353.6 433.223 353.6H435.903V358H433.423C432.57 358 431.937 358.22 431.523 358.66C431.11 359.087 430.903 359.6 430.903 360.2V383H425.463ZM422.063 365.6V361.4H435.903V365.6H422.063ZM448.032 383.6C445.858 383.6 443.952 383.113 442.312 382.14C440.672 381.167 439.392 379.827 438.472 378.12C437.565 376.4 437.112 374.427 437.112 372.2C437.112 369.947 437.578 367.967 438.512 366.26C439.445 364.54 440.732 363.2 442.372 362.24C444.012 361.28 445.898 360.8 448.032 360.8C450.205 360.8 452.112 361.287 453.752 362.26C455.405 363.233 456.692 364.58 457.612 366.3C458.532 368.007 458.992 369.973 458.992 372.2C458.992 374.44 458.525 376.42 457.592 378.14C456.672 379.847 455.385 381.187 453.732 382.16C452.092 383.12 450.192 383.6 448.032 383.6ZM448.032 378.52C449.778 378.52 451.078 377.933 451.932 376.76C452.798 375.573 453.232 374.053 453.232 372.2C453.232 370.28 452.792 368.747 451.912 367.6C451.045 366.453 449.752 365.88 448.032 365.88C446.845 365.88 445.872 366.147 445.112 366.68C444.352 367.213 443.785 367.953 443.412 368.9C443.052 369.847 442.872 370.947 442.872 372.2C442.872 374.133 443.305 375.673 444.172 376.82C445.052 377.953 446.338 378.52 448.032 378.52ZM463.39 383V361.4H468.19V366.68L467.67 366C467.95 365.253 468.323 364.573 468.79 363.96C469.257 363.347 469.83 362.84 470.51 362.44C471.03 362.12 471.597 361.873 472.21 361.7C472.823 361.513 473.457 361.4 474.11 361.36C474.763 361.307 475.417 361.32 476.07 361.4V366.48C475.47 366.293 474.77 366.233 473.97 366.3C473.183 366.353 472.47 366.533 471.83 366.84C471.19 367.133 470.65 367.527 470.21 368.02C469.77 368.5 469.437 369.073 469.21 369.74C468.983 370.393 468.87 371.133 468.87 371.96V383H463.39ZM248.986 438.6C246.999 438.6 245.259 438.1 243.766 437.1C242.272 436.1 241.106 434.74 240.266 433.02C239.439 431.3 239.026 429.36 239.026 427.2C239.026 425 239.446 423.047 240.286 421.34C241.139 419.62 242.332 418.267 243.866 417.28C245.399 416.293 247.199 415.8 249.266 415.8C251.319 415.8 253.046 416.3 254.446 417.3C255.846 418.3 256.906 419.66 257.626 421.38C258.346 423.1 258.706 425.04 258.706 427.2C258.706 429.36 258.339 431.3 257.606 433.02C256.886 434.74 255.806 436.1 254.366 437.1C252.926 438.1 251.132 438.6 248.986 438.6ZM249.866 433.76C251.079 433.76 252.046 433.487 252.766 432.94C253.499 432.393 254.026 431.627 254.346 430.64C254.666 429.653 254.826 428.507 254.826 427.2C254.826 425.893 254.666 424.747 254.346 423.76C254.026 422.773 253.512 422.007 252.806 421.46C252.112 420.913 251.199 420.64 250.066 420.64C248.852 420.64 247.852 420.94 247.066 421.54C246.292 422.127 245.719 422.92 245.346 423.92C244.972 424.907 244.786 426 244.786 427.2C244.786 428.413 244.966 429.52 245.326 430.52C245.686 431.507 246.239 432.293 246.986 432.88C247.732 433.467 248.692 433.76 249.866 433.76ZM254.826 438V423.2H254.146V409.2H259.626V438H254.826ZM265.626 413.4V408.6H271.066V413.4H265.626ZM265.626 438V416.4H271.066V438H265.626ZM286.302 448.2C285.075 448.2 283.908 448 282.802 447.6C281.695 447.213 280.702 446.667 279.822 445.96C278.955 445.267 278.248 444.453 277.702 443.52L282.742 441.08C283.088 441.72 283.582 442.207 284.222 442.54C284.875 442.873 285.582 443.04 286.342 443.04C287.155 443.04 287.922 442.9 288.642 442.62C289.362 442.353 289.935 441.947 290.362 441.4C290.802 440.867 291.008 440.2 290.982 439.4V433.12H291.662V416.4H296.422V439.48C296.422 440.013 296.395 440.513 296.342 440.98C296.302 441.46 296.222 441.933 296.102 442.4C295.755 443.72 295.108 444.807 294.162 445.66C293.228 446.513 292.082 447.147 290.722 447.56C289.362 447.987 287.888 448.2 286.302 448.2ZM285.822 438.6C283.835 438.6 282.095 438.1 280.602 437.1C279.108 436.1 277.942 434.74 277.102 433.02C276.275 431.3 275.862 429.36 275.862 427.2C275.862 425 276.282 423.047 277.122 421.34C277.975 419.62 279.168 418.267 280.702 417.28C282.235 416.293 284.035 415.8 286.102 415.8C288.155 415.8 289.882 416.3 291.282 417.3C292.682 418.3 293.742 419.66 294.462 421.38C295.182 423.1 295.542 425.04 295.542 427.2C295.542 429.36 295.175 431.3 294.442 433.02C293.722 434.74 292.642 436.1 291.202 437.1C289.762 438.1 287.968 438.6 285.822 438.6ZM286.702 433.76C287.915 433.76 288.882 433.487 289.602 432.94C290.335 432.393 290.862 431.627 291.182 430.64C291.502 429.653 291.662 428.507 291.662 427.2C291.662 425.893 291.502 424.747 291.182 423.76C290.862 422.773 290.348 422.007 289.642 421.46C288.948 420.913 288.035 420.64 286.902 420.64C285.688 420.64 284.688 420.94 283.902 421.54C283.128 422.127 282.555 422.92 282.182 423.92C281.808 424.907 281.622 426 281.622 427.2C281.622 428.413 281.802 429.52 282.162 430.52C282.522 431.507 283.075 432.293 283.822 432.88C284.568 433.467 285.528 433.76 286.702 433.76ZM302.423 413.4V408.6H307.863V413.4H302.423ZM302.423 438V416.4H307.863V438H302.423ZM326.819 438C325.325 438.28 323.859 438.4 322.419 438.36C320.992 438.333 319.712 438.087 318.579 437.62C317.459 437.14 316.605 436.373 316.019 435.32C315.485 434.333 315.205 433.333 315.179 432.32C315.152 431.293 315.139 430.133 315.139 428.84V410.4H320.579V428.52C320.579 429.36 320.585 430.12 320.599 430.8C320.625 431.467 320.765 432 321.019 432.4C321.499 433.16 322.265 433.573 323.319 433.64C324.372 433.707 325.539 433.653 326.819 433.48V438ZM311.459 420.6V416.4H326.819V420.6H311.459ZM337.632 438.6C336.085 438.6 334.772 438.307 333.692 437.72C332.625 437.12 331.812 436.327 331.252 435.34C330.705 434.34 330.432 433.24 330.432 432.04C330.432 431.04 330.585 430.127 330.892 429.3C331.199 428.473 331.692 427.747 332.372 427.12C333.065 426.48 333.992 425.947 335.152 425.52C335.952 425.227 336.905 424.967 338.012 424.74C339.119 424.513 340.372 424.3 341.772 424.1C343.172 423.887 344.712 423.653 346.392 423.4L344.432 424.48C344.432 423.2 344.125 422.26 343.512 421.66C342.899 421.06 341.872 420.76 340.432 420.76C339.632 420.76 338.799 420.953 337.932 421.34C337.065 421.727 336.459 422.413 336.112 423.4L331.192 421.84C331.739 420.053 332.765 418.6 334.272 417.48C335.779 416.36 337.832 415.8 340.432 415.8C342.339 415.8 344.032 416.093 345.512 416.68C346.992 417.267 348.112 418.28 348.872 419.72C349.299 420.52 349.552 421.32 349.632 422.12C349.712 422.92 349.752 423.813 349.752 424.8V438H344.992V433.56L345.672 434.48C344.619 435.933 343.479 436.987 342.252 437.64C341.039 438.28 339.499 438.6 337.632 438.6ZM338.792 434.32C339.792 434.32 340.632 434.147 341.312 433.8C342.005 433.44 342.552 433.033 342.952 432.58C343.365 432.127 343.645 431.747 343.792 431.44C344.072 430.853 344.232 430.173 344.272 429.4C344.325 428.613 344.352 427.96 344.352 427.44L345.952 427.84C344.339 428.107 343.032 428.333 342.032 428.52C341.032 428.693 340.225 428.853 339.612 429C338.999 429.147 338.459 429.307 337.992 429.48C337.459 429.693 337.025 429.927 336.692 430.18C336.372 430.42 336.132 430.687 335.972 430.98C335.825 431.273 335.752 431.6 335.752 431.96C335.752 432.453 335.872 432.88 336.112 433.24C336.365 433.587 336.719 433.853 337.172 434.04C337.625 434.227 338.165 434.32 338.792 434.32ZM355.352 438V408.6H360.792V438H355.352ZM367.188 413.4V408.6H372.628V413.4H367.188ZM367.188 438V416.4H372.628V438H367.188ZM376.624 438V437.32L387.224 421.12H377.824V416.4H395.624V417.08L385.064 433.28H395.224V438H376.624ZM404.82 438.6C403.273 438.6 401.96 438.307 400.88 437.72C399.813 437.12 399 436.327 398.44 435.34C397.893 434.34 397.62 433.24 397.62 432.04C397.62 431.04 397.773 430.127 398.08 429.3C398.386 428.473 398.88 427.747 399.56 427.12C400.253 426.48 401.18 425.947 402.34 425.52C403.14 425.227 404.093 424.967 405.2 424.74C406.306 424.513 407.56 424.3 408.96 424.1C410.36 423.887 411.9 423.653 413.58 423.4L411.62 424.48C411.62 423.2 411.313 422.26 410.7 421.66C410.086 421.06 409.06 420.76 407.62 420.76C406.82 420.76 405.986 420.953 405.12 421.34C404.253 421.727 403.646 422.413 403.3 423.4L398.38 421.84C398.926 420.053 399.953 418.6 401.46 417.48C402.966 416.36 405.02 415.8 407.62 415.8C409.526 415.8 411.22 416.093 412.7 416.68C414.18 417.267 415.3 418.28 416.06 419.72C416.486 420.52 416.74 421.32 416.82 422.12C416.9 422.92 416.94 423.813 416.94 424.8V438H412.18V433.56L412.86 434.48C411.806 435.933 410.666 436.987 409.44 437.64C408.226 438.28 406.686 438.6 404.82 438.6ZM405.98 434.32C406.98 434.32 407.82 434.147 408.5 433.8C409.193 433.44 409.74 433.033 410.14 432.58C410.553 432.127 410.833 431.747 410.98 431.44C411.26 430.853 411.42 430.173 411.46 429.4C411.513 428.613 411.54 427.96 411.54 427.44L413.14 427.84C411.526 428.107 410.22 428.333 409.22 428.52C408.22 428.693 407.413 428.853 406.8 429C406.186 429.147 405.646 429.307 405.18 429.48C404.646 429.693 404.213 429.927 403.88 430.18C403.56 430.42 403.32 430.687 403.16 430.98C403.013 431.273 402.94 431.6 402.94 431.96C402.94 432.453 403.06 432.88 403.3 433.24C403.553 433.587 403.906 433.853 404.36 434.04C404.813 434.227 405.353 434.32 405.98 434.32ZM435.1 438C433.607 438.28 432.14 438.4 430.7 438.36C429.273 438.333 427.993 438.087 426.86 437.62C425.74 437.14 424.887 436.373 424.3 435.32C423.767 434.333 423.487 433.333 423.46 432.32C423.433 431.293 423.42 430.133 423.42 428.84V410.4H428.86V428.52C428.86 429.36 428.867 430.12 428.88 430.8C428.907 431.467 429.047 432 429.3 432.4C429.78 433.16 430.547 433.573 431.6 433.64C432.653 433.707 433.82 433.653 435.1 433.48V438ZM419.74 420.6V416.4H435.1V420.6H419.74ZM440.313 413.4V408.6H445.753V413.4H440.313ZM440.313 438V416.4H445.753V438H440.313ZM461.469 438.6C459.296 438.6 457.389 438.113 455.749 437.14C454.109 436.167 452.829 434.827 451.909 433.12C451.003 431.4 450.549 429.427 450.549 427.2C450.549 424.947 451.016 422.967 451.949 421.26C452.883 419.54 454.169 418.2 455.809 417.24C457.449 416.28 459.336 415.8 461.469 415.8C463.643 415.8 465.549 416.287 467.189 417.26C468.843 418.233 470.129 419.58 471.049 421.3C471.969 423.007 472.429 424.973 472.429 427.2C472.429 429.44 471.963 431.42 471.029 433.14C470.109 434.847 468.823 436.187 467.169 437.16C465.529 438.12 463.629 438.6 461.469 438.6ZM461.469 433.52C463.216 433.52 464.516 432.933 465.369 431.76C466.236 430.573 466.669 429.053 466.669 427.2C466.669 425.28 466.229 423.747 465.349 422.6C464.483 421.453 463.189 420.88 461.469 420.88C460.283 420.88 459.309 421.147 458.549 421.68C457.789 422.213 457.223 422.953 456.849 423.9C456.489 424.847 456.309 425.947 456.309 427.2C456.309 429.133 456.743 430.673 457.609 431.82C458.489 432.953 459.776 433.52 461.469 433.52ZM491.547 438V427.8C491.547 427.307 491.521 426.68 491.467 425.92C491.414 425.147 491.247 424.373 490.967 423.6C490.687 422.827 490.227 422.18 489.587 421.66C488.961 421.14 488.067 420.88 486.907 420.88C486.441 420.88 485.941 420.953 485.407 421.1C484.874 421.247 484.374 421.533 483.907 421.96C483.441 422.373 483.054 422.987 482.747 423.8C482.454 424.613 482.307 425.693 482.307 427.04L479.187 425.56C479.187 423.853 479.534 422.253 480.227 420.76C480.921 419.267 481.961 418.06 483.347 417.14C484.747 416.22 486.507 415.76 488.627 415.76C490.321 415.76 491.701 416.047 492.767 416.62C493.834 417.193 494.661 417.92 495.247 418.8C495.847 419.68 496.274 420.6 496.527 421.56C496.781 422.507 496.934 423.373 496.987 424.16C497.041 424.947 497.067 425.52 497.067 425.88V438H491.547ZM476.787 438V416.4H481.627V423.56H482.307V438H476.787ZM501.876 420.04L502.196 417.76C502.836 417.813 503.356 417.713 503.756 417.46C504.156 417.193 504.429 416.82 504.576 416.34C504.736 415.847 504.769 415.28 504.676 414.64H501.876V409.2H507.316V414.64C507.316 416.56 506.869 418.013 505.976 419C505.082 419.987 503.716 420.333 501.876 420.04ZM509.116 420.04L509.436 417.76C510.076 417.813 510.596 417.713 510.996 417.46C511.396 417.193 511.669 416.82 511.816 416.34C511.976 415.847 512.009 415.28 511.916 414.64H509.116V409.2H514.556V414.64C514.556 416.56 514.109 418.013 513.216 419C512.322 419.987 510.956 420.333 509.116 420.04Z" fill="#191A1B"/>
<path d="M878.283 227.4V220.2H883.723V227.4H878.283ZM886.123 227.4V220.2H891.563V227.4H886.123ZM905.41 249V237.28L895.57 220.2H901.93L908.17 231.04L914.41 220.2H920.77L910.93 237.28V249H905.41ZM930.083 249.6C927.909 249.6 926.003 249.113 924.363 248.14C922.723 247.167 921.443 245.827 920.523 244.12C919.616 242.4 919.163 240.427 919.163 238.2C919.163 235.947 919.629 233.967 920.563 232.26C921.496 230.54 922.783 229.2 924.423 228.24C926.063 227.28 927.949 226.8 930.083 226.8C932.256 226.8 934.163 227.287 935.803 228.26C937.456 229.233 938.743 230.58 939.663 232.3C940.583 234.007 941.043 235.973 941.043 238.2C941.043 240.44 940.576 242.42 939.643 244.14C938.723 245.847 937.436 247.187 935.783 248.16C934.143 249.12 932.243 249.6 930.083 249.6ZM930.083 244.52C931.829 244.52 933.129 243.933 933.983 242.76C934.849 241.573 935.283 240.053 935.283 238.2C935.283 236.28 934.843 234.747 933.963 233.6C933.096 232.453 931.803 231.88 930.083 231.88C928.896 231.88 927.923 232.147 927.163 232.68C926.403 233.213 925.836 233.953 925.463 234.9C925.103 235.847 924.923 236.947 924.923 238.2C924.923 240.133 925.356 241.673 926.223 242.82C927.103 243.953 928.389 244.52 930.083 244.52ZM953.481 249.64C951.787 249.64 950.407 249.353 949.341 248.78C948.274 248.207 947.441 247.48 946.841 246.6C946.254 245.72 945.834 244.807 945.581 243.86C945.327 242.9 945.174 242.027 945.121 241.24C945.067 240.453 945.041 239.88 945.041 239.52V227.4H950.561V237.6C950.561 238.093 950.587 238.727 950.641 239.5C950.694 240.26 950.861 241.027 951.141 241.8C951.421 242.573 951.874 243.22 952.501 243.74C953.141 244.26 954.041 244.52 955.201 244.52C955.667 244.52 956.167 244.447 956.701 244.3C957.234 244.153 957.734 243.873 958.201 243.46C958.667 243.033 959.047 242.413 959.341 241.6C959.647 240.773 959.801 239.693 959.801 238.36L962.921 239.84C962.921 241.547 962.574 243.147 961.881 244.64C961.187 246.133 960.141 247.34 958.741 248.26C957.354 249.18 955.601 249.64 953.481 249.64ZM960.481 249V241.84H959.801V227.4H965.281V249H960.481ZM983.83 249C982.337 249.28 980.87 249.4 979.43 249.36C978.004 249.333 976.724 249.087 975.59 248.62C974.47 248.14 973.617 247.373 973.03 246.32C972.497 245.333 972.217 244.333 972.19 243.32C972.164 242.293 972.15 241.133 972.15 239.84V221.4H977.59V239.52C977.59 240.36 977.597 241.12 977.61 241.8C977.637 242.467 977.777 243 978.03 243.4C978.51 244.16 979.277 244.573 980.33 244.64C981.384 244.707 982.55 244.653 983.83 244.48V249ZM968.47 231.6V227.4H983.83V231.6H968.47ZM1003.36 249V238.8C1003.36 238.307 1003.34 237.68 1003.28 236.92C1003.23 236.147 1003.06 235.373 1002.78 234.6C1002.5 233.827 1002.04 233.18 1001.4 232.66C1000.78 232.14 999.884 231.88 998.724 231.88C998.257 231.88 997.757 231.953 997.224 232.1C996.69 232.247 996.19 232.533 995.724 232.96C995.257 233.373 994.87 233.987 994.564 234.8C994.27 235.613 994.124 236.693 994.124 238.04L991.004 236.56C991.004 234.853 991.35 233.253 992.044 231.76C992.737 230.267 993.777 229.06 995.164 228.14C996.564 227.22 998.324 226.76 1000.44 226.76C1002.14 226.76 1003.52 227.047 1004.58 227.62C1005.65 228.193 1006.48 228.92 1007.06 229.8C1007.66 230.68 1008.09 231.6 1008.34 232.56C1008.6 233.507 1008.75 234.373 1008.8 235.16C1008.86 235.947 1008.88 236.52 1008.88 236.88V249H1003.36ZM988.604 249V220.2H993.444V235H994.124V249H988.604ZM806.713 304V282.48C806.713 281.933 806.727 281.313 806.753 280.62C806.78 279.927 806.887 279.227 807.073 278.52C807.273 277.813 807.633 277.173 808.153 276.6C808.82 275.853 809.54 275.347 810.313 275.08C811.1 274.8 811.86 274.653 812.593 274.64C813.327 274.613 813.953 274.6 814.473 274.6H817.153V279H814.673C813.82 279 813.187 279.22 812.773 279.66C812.36 280.087 812.153 280.6 812.153 281.2V304H806.713ZM803.313 286.6V282.4H817.153V286.6H803.313ZM829.282 304.6C827.108 304.6 825.202 304.113 823.562 303.14C821.922 302.167 820.642 300.827 819.722 299.12C818.815 297.4 818.362 295.427 818.362 293.2C818.362 290.947 818.828 288.967 819.762 287.26C820.695 285.54 821.982 284.2 823.622 283.24C825.262 282.28 827.148 281.8 829.282 281.8C831.455 281.8 833.362 282.287 835.002 283.26C836.655 284.233 837.942 285.58 838.862 287.3C839.782 289.007 840.242 290.973 840.242 293.2C840.242 295.44 839.775 297.42 838.842 299.14C837.922 300.847 836.635 302.187 834.982 303.16C833.342 304.12 831.442 304.6 829.282 304.6ZM829.282 299.52C831.028 299.52 832.328 298.933 833.182 297.76C834.048 296.573 834.482 295.053 834.482 293.2C834.482 291.28 834.042 289.747 833.162 288.6C832.295 287.453 831.002 286.88 829.282 286.88C828.095 286.88 827.122 287.147 826.362 287.68C825.602 288.213 825.035 288.953 824.662 289.9C824.302 290.847 824.122 291.947 824.122 293.2C824.122 295.133 824.555 296.673 825.422 297.82C826.302 298.953 827.588 299.52 829.282 299.52ZM844.64 304V282.4H849.44V287.68L848.92 287C849.2 286.253 849.573 285.573 850.04 284.96C850.507 284.347 851.08 283.84 851.76 283.44C852.28 283.12 852.847 282.873 853.46 282.7C854.073 282.513 854.707 282.4 855.36 282.36C856.013 282.307 856.667 282.32 857.32 282.4V287.48C856.72 287.293 856.02 287.233 855.22 287.3C854.433 287.353 853.72 287.533 853.08 287.84C852.44 288.133 851.9 288.527 851.46 289.02C851.02 289.5 850.687 290.073 850.46 290.74C850.233 291.393 850.12 292.133 850.12 292.96V304H844.64ZM869.532 304V274.6H874.972V304H869.532ZM891.008 304.6C888.795 304.6 886.841 304.127 885.148 303.18C883.468 302.22 882.148 300.907 881.188 299.24C880.241 297.56 879.768 295.64 879.768 293.48C879.768 291.12 880.235 289.067 881.168 287.32C882.101 285.573 883.388 284.22 885.028 283.26C886.668 282.287 888.555 281.8 890.688 281.8C892.955 281.8 894.881 282.333 896.468 283.4C898.055 284.467 899.228 285.967 899.988 287.9C900.748 289.833 901.015 292.107 900.788 294.72H895.408V292.72C895.408 290.52 895.055 288.94 894.348 287.98C893.655 287.007 892.515 286.52 890.928 286.52C889.075 286.52 887.708 287.087 886.828 288.22C885.961 289.34 885.528 291 885.528 293.2C885.528 295.213 885.961 296.773 886.828 297.88C887.708 298.973 888.995 299.52 890.688 299.52C891.755 299.52 892.668 299.287 893.428 298.82C894.188 298.353 894.768 297.68 895.168 296.8L900.608 298.36C899.795 300.333 898.508 301.867 896.748 302.96C895.001 304.053 893.088 304.6 891.008 304.6ZM883.848 294.72V290.68H898.168V294.72H883.848ZM910.913 304.6C909.367 304.6 908.053 304.307 906.973 303.72C905.907 303.12 905.093 302.327 904.533 301.34C903.987 300.34 903.713 299.24 903.713 298.04C903.713 297.04 903.867 296.127 904.173 295.3C904.48 294.473 904.973 293.747 905.653 293.12C906.347 292.48 907.273 291.947 908.433 291.52C909.233 291.227 910.187 290.967 911.293 290.74C912.4 290.513 913.653 290.3 915.053 290.1C916.453 289.887 917.993 289.653 919.673 289.4L917.713 290.48C917.713 289.2 917.407 288.26 916.793 287.66C916.18 287.06 915.153 286.76 913.713 286.76C912.913 286.76 912.08 286.953 911.213 287.34C910.347 287.727 909.74 288.413 909.393 289.4L904.473 287.84C905.02 286.053 906.047 284.6 907.553 283.48C909.06 282.36 911.113 281.8 913.713 281.8C915.62 281.8 917.313 282.093 918.793 282.68C920.273 283.267 921.393 284.28 922.153 285.72C922.58 286.52 922.833 287.32 922.913 288.12C922.993 288.92 923.033 289.813 923.033 290.8V304H918.273V299.56L918.953 300.48C917.9 301.933 916.76 302.987 915.533 303.64C914.32 304.28 912.78 304.6 910.913 304.6ZM912.073 300.32C913.073 300.32 913.913 300.147 914.593 299.8C915.287 299.44 915.833 299.033 916.233 298.58C916.647 298.127 916.927 297.747 917.073 297.44C917.353 296.853 917.513 296.173 917.553 295.4C917.607 294.613 917.633 293.96 917.633 293.44L919.233 293.84C917.62 294.107 916.313 294.333 915.313 294.52C914.313 294.693 913.507 294.853 912.893 295C912.28 295.147 911.74 295.307 911.273 295.48C910.74 295.693 910.307 295.927 909.973 296.18C909.653 296.42 909.413 296.687 909.253 296.98C909.107 297.273 909.033 297.6 909.033 297.96C909.033 298.453 909.153 298.88 909.393 299.24C909.647 299.587 910 299.853 910.453 300.04C910.907 300.227 911.447 300.32 912.073 300.32ZM936.994 304.6C935.007 304.6 933.267 304.1 931.774 303.1C930.28 302.1 929.114 300.74 928.274 299.02C927.447 297.3 927.034 295.36 927.034 293.2C927.034 291 927.454 289.047 928.294 287.34C929.147 285.62 930.34 284.267 931.874 283.28C933.407 282.293 935.207 281.8 937.274 281.8C939.327 281.8 941.054 282.3 942.454 283.3C943.854 284.3 944.914 285.66 945.634 287.38C946.354 289.1 946.714 291.04 946.714 293.2C946.714 295.36 946.347 297.3 945.614 299.02C944.894 300.74 943.814 302.1 942.374 303.1C940.934 304.1 939.14 304.6 936.994 304.6ZM937.874 299.76C939.087 299.76 940.054 299.487 940.774 298.94C941.507 298.393 942.034 297.627 942.354 296.64C942.674 295.653 942.834 294.507 942.834 293.2C942.834 291.893 942.674 290.747 942.354 289.76C942.034 288.773 941.52 288.007 940.814 287.46C940.12 286.913 939.207 286.64 938.074 286.64C936.86 286.64 935.86 286.94 935.074 287.54C934.3 288.127 933.727 288.92 933.354 289.92C932.98 290.907 932.794 292 932.794 293.2C932.794 294.413 932.974 295.52 933.334 296.52C933.694 297.507 934.247 298.293 934.994 298.88C935.74 299.467 936.7 299.76 937.874 299.76ZM942.834 304V289.2H942.154V275.2H947.634V304H942.834ZM963.274 304.6C961.06 304.6 959.107 304.127 957.414 303.18C955.734 302.22 954.414 300.907 953.454 299.24C952.507 297.56 952.034 295.64 952.034 293.48C952.034 291.12 952.5 289.067 953.434 287.32C954.367 285.573 955.654 284.22 957.294 283.26C958.934 282.287 960.82 281.8 962.954 281.8C965.22 281.8 967.147 282.333 968.734 283.4C970.32 284.467 971.494 285.967 972.254 287.9C973.014 289.833 973.28 292.107 973.054 294.72H967.674V292.72C967.674 290.52 967.32 288.94 966.614 287.98C965.92 287.007 964.78 286.52 963.194 286.52C961.34 286.52 959.974 287.087 959.094 288.22C958.227 289.34 957.794 291 957.794 293.2C957.794 295.213 958.227 296.773 959.094 297.88C959.974 298.973 961.26 299.52 962.954 299.52C964.02 299.52 964.934 299.287 965.694 298.82C966.454 298.353 967.034 297.68 967.434 296.8L972.874 298.36C972.06 300.333 970.774 301.867 969.014 302.96C967.267 304.053 965.354 304.6 963.274 304.6ZM956.114 294.72V290.68H970.434V294.72H956.114ZM977.57 304V282.4H982.37V287.68L981.85 287C982.13 286.253 982.503 285.573 982.97 284.96C983.436 284.347 984.01 283.84 984.69 283.44C985.21 283.12 985.776 282.873 986.39 282.7C987.003 282.513 987.636 282.4 988.29 282.36C988.943 282.307 989.596 282.32 990.25 282.4V287.48C989.65 287.293 988.95 287.233 988.15 287.3C987.363 287.353 986.65 287.533 986.01 287.84C985.37 288.133 984.83 288.527 984.39 289.02C983.95 289.5 983.616 290.073 983.39 290.74C983.163 291.393 983.05 292.133 983.05 292.96V304H977.57ZM1001.71 304.6C998.993 304.6 996.793 303.987 995.113 302.76C993.446 301.52 992.433 299.773 992.073 297.52L997.633 296.68C997.859 297.693 998.359 298.487 999.133 299.06C999.919 299.633 1000.91 299.92 1002.11 299.92C1003.1 299.92 1003.86 299.733 1004.39 299.36C1004.93 298.973 1005.19 298.44 1005.19 297.76C1005.19 297.333 1005.09 296.993 1004.87 296.74C1004.66 296.473 1004.18 296.213 1003.43 295.96C1002.7 295.707 1001.55 295.373 999.993 294.96C998.233 294.507 996.826 294 995.773 293.44C994.719 292.88 993.959 292.213 993.493 291.44C993.026 290.653 992.793 289.707 992.793 288.6C992.793 287.213 993.146 286.013 993.853 285C994.559 283.973 995.553 283.187 996.833 282.64C998.126 282.08 999.646 281.8 1001.39 281.8C1003.09 281.8 1004.59 282.06 1005.89 282.58C1007.2 283.1 1008.25 283.84 1009.05 284.8C1009.87 285.76 1010.37 286.893 1010.55 288.2L1004.99 289.2C1004.9 288.4 1004.55 287.767 1003.95 287.3C1003.35 286.833 1002.54 286.56 1001.51 286.48C1000.51 286.413 999.706 286.547 999.093 286.88C998.493 287.213 998.193 287.693 998.193 288.32C998.193 288.693 998.319 289.007 998.573 289.26C998.839 289.513 999.379 289.773 1000.19 290.04C1001.02 290.307 1002.27 290.653 1003.95 291.08C1005.59 291.507 1006.91 292.007 1007.89 292.58C1008.89 293.14 1009.62 293.82 1010.07 294.62C1010.53 295.407 1010.75 296.36 1010.75 297.48C1010.75 299.693 1009.95 301.433 1008.35 302.7C1006.75 303.967 1004.54 304.6 1001.71 304.6ZM1029.87 304V293.8C1029.87 293.307 1029.84 292.68 1029.79 291.92C1029.73 291.147 1029.57 290.373 1029.29 289.6C1029.01 288.827 1028.55 288.18 1027.91 287.66C1027.28 287.14 1026.39 286.88 1025.23 286.88C1024.76 286.88 1024.26 286.953 1023.73 287.1C1023.19 287.247 1022.69 287.533 1022.23 287.96C1021.76 288.373 1021.37 288.987 1021.07 289.8C1020.77 290.613 1020.63 291.693 1020.63 293.04L1017.51 291.56C1017.51 289.853 1017.85 288.253 1018.55 286.76C1019.24 285.267 1020.28 284.06 1021.67 283.14C1023.07 282.22 1024.83 281.76 1026.95 281.76C1028.64 281.76 1030.02 282.047 1031.09 282.62C1032.15 283.193 1032.98 283.92 1033.57 284.8C1034.17 285.68 1034.59 286.6 1034.85 287.56C1035.1 288.507 1035.25 289.373 1035.31 290.16C1035.36 290.947 1035.39 291.52 1035.39 291.88V304H1029.87ZM1015.11 304V275.2H1019.95V290H1020.63V304H1015.11ZM1040.98 279.4V274.6H1046.42V279.4H1040.98ZM1040.98 304V282.4H1046.42V304H1040.98ZM1063.01 304.6C1060.87 304.6 1059.07 304.1 1057.63 303.1C1056.19 302.1 1055.11 300.74 1054.37 299.02C1053.65 297.3 1053.29 295.36 1053.29 293.2C1053.29 291.04 1053.65 289.1 1054.37 287.38C1055.09 285.66 1056.15 284.3 1057.55 283.3C1058.95 282.3 1060.68 281.8 1062.73 281.8C1064.8 281.8 1066.6 282.293 1068.13 283.28C1069.67 284.267 1070.85 285.62 1071.69 287.34C1072.55 289.047 1072.97 291 1072.97 293.2C1072.97 295.36 1072.55 297.3 1071.71 299.02C1070.89 300.74 1069.73 302.1 1068.23 303.1C1066.74 304.1 1065 304.6 1063.01 304.6ZM1052.37 313.6V282.4H1057.17V297.2H1057.85V313.6H1052.37ZM1062.13 299.76C1063.31 299.76 1064.27 299.467 1065.01 298.88C1065.76 298.293 1066.31 297.507 1066.67 296.52C1067.03 295.52 1067.21 294.413 1067.21 293.2C1067.21 292 1067.03 290.907 1066.65 289.92C1066.28 288.92 1065.7 288.127 1064.91 287.54C1064.14 286.94 1063.15 286.64 1061.93 286.64C1060.8 286.64 1059.88 286.913 1059.17 287.46C1058.48 288.007 1057.97 288.773 1057.65 289.76C1057.33 290.747 1057.17 291.893 1057.17 293.2C1057.17 294.507 1057.33 295.653 1057.65 296.64C1057.97 297.627 1058.49 298.393 1059.21 298.94C1059.95 299.487 1060.92 299.76 1062.13 299.76ZM1075.76 282.4V275.2H1081.2V282.4H1075.76ZM1083.6 282.4V275.2H1089.04V282.4H1083.6Z" fill="#191A1B"/>
<path d="M713.97 515.2L713.65 517.48C713.01 517.427 712.49 517.533 712.09 517.8C711.69 518.053 711.41 518.427 711.25 518.92C711.103 519.4 711.077 519.96 711.17 520.6H713.97V526.04H708.53V520.6C708.53 518.68 708.977 517.227 709.87 516.24C710.763 515.24 712.13 514.893 713.97 515.2ZM706.73 515.2L706.41 517.48C705.77 517.427 705.25 517.533 704.85 517.8C704.45 518.053 704.17 518.427 704.01 518.92C703.863 519.4 703.837 519.96 703.93 520.6H706.73V526.04H701.29V520.6C701.29 518.68 701.737 517.227 702.63 516.24C703.523 515.24 704.89 514.893 706.73 515.2ZM726.992 544V532.28L717.152 515.2H723.512L729.752 526.04L735.992 515.2H742.352L732.512 532.28V544H726.992ZM751.665 544.6C749.491 544.6 747.585 544.113 745.945 543.14C744.305 542.167 743.025 540.827 742.105 539.12C741.198 537.4 740.745 535.427 740.745 533.2C740.745 530.947 741.211 528.967 742.145 527.26C743.078 525.54 744.365 524.2 746.005 523.24C747.645 522.28 749.531 521.8 751.665 521.8C753.838 521.8 755.745 522.287 757.385 523.26C759.038 524.233 760.325 525.58 761.245 527.3C762.165 529.007 762.625 530.973 762.625 533.2C762.625 535.44 762.158 537.42 761.225 539.14C760.305 540.847 759.018 542.187 757.365 543.16C755.725 544.12 753.825 544.6 751.665 544.6ZM751.665 539.52C753.411 539.52 754.711 538.933 755.565 537.76C756.431 536.573 756.865 535.053 756.865 533.2C756.865 531.28 756.425 529.747 755.545 528.6C754.678 527.453 753.385 526.88 751.665 526.88C750.478 526.88 749.505 527.147 748.745 527.68C747.985 528.213 747.418 528.953 747.045 529.9C746.685 530.847 746.505 531.947 746.505 533.2C746.505 535.133 746.938 536.673 747.805 537.82C748.685 538.953 749.971 539.52 751.665 539.52ZM775.063 544.64C773.369 544.64 771.989 544.353 770.923 543.78C769.856 543.207 769.023 542.48 768.423 541.6C767.836 540.72 767.416 539.807 767.163 538.86C766.909 537.9 766.756 537.027 766.703 536.24C766.649 535.453 766.623 534.88 766.623 534.52V522.4H772.143V532.6C772.143 533.093 772.169 533.727 772.223 534.5C772.276 535.26 772.443 536.027 772.723 536.8C773.003 537.573 773.456 538.22 774.083 538.74C774.723 539.26 775.623 539.52 776.783 539.52C777.249 539.52 777.749 539.447 778.283 539.3C778.816 539.153 779.316 538.873 779.783 538.46C780.249 538.033 780.629 537.413 780.923 536.6C781.229 535.773 781.383 534.693 781.383 533.36L784.503 534.84C784.503 536.547 784.156 538.147 783.463 539.64C782.769 541.133 781.723 542.34 780.323 543.26C778.936 544.18 777.183 544.64 775.063 544.64ZM782.063 544V536.84H781.383V522.4H786.863V544H782.063ZM805.412 544C803.919 544.28 802.452 544.4 801.012 544.36C799.586 544.333 798.306 544.087 797.172 543.62C796.052 543.14 795.199 542.373 794.612 541.32C794.079 540.333 793.799 539.333 793.772 538.32C793.746 537.293 793.732 536.133 793.732 534.84V516.4H799.172V534.52C799.172 535.36 799.179 536.12 799.192 536.8C799.219 537.467 799.359 538 799.612 538.4C800.092 539.16 800.859 539.573 801.912 539.64C802.966 539.707 804.132 539.653 805.412 539.48V544ZM790.052 526.6V522.4H805.412V526.6H790.052ZM824.946 544V533.8C824.946 533.307 824.919 532.68 824.866 531.92C824.812 531.147 824.646 530.373 824.366 529.6C824.086 528.827 823.626 528.18 822.986 527.66C822.359 527.14 821.466 526.88 820.306 526.88C819.839 526.88 819.339 526.953 818.806 527.1C818.272 527.247 817.772 527.533 817.306 527.96C816.839 528.373 816.452 528.987 816.146 529.8C815.852 530.613 815.706 531.693 815.706 533.04L812.586 531.56C812.586 529.853 812.932 528.253 813.626 526.76C814.319 525.267 815.359 524.06 816.746 523.14C818.146 522.22 819.906 521.76 822.026 521.76C823.719 521.76 825.099 522.047 826.166 522.62C827.232 523.193 828.059 523.92 828.646 524.8C829.246 525.68 829.672 526.6 829.926 527.56C830.179 528.507 830.332 529.373 830.386 530.16C830.439 530.947 830.466 531.52 830.466 531.88V544H824.946ZM810.186 544V515.2H815.026V530H815.706V544H810.186ZM845.463 544V522.48C845.463 521.933 845.477 521.313 845.503 520.62C845.53 519.927 845.637 519.227 845.823 518.52C846.023 517.813 846.383 517.173 846.903 516.6C847.57 515.853 848.29 515.347 849.063 515.08C849.85 514.8 850.61 514.653 851.343 514.64C852.077 514.613 852.703 514.6 853.223 514.6H855.903V519H853.423C852.57 519 851.937 519.22 851.523 519.66C851.11 520.087 850.903 520.6 850.903 521.2V544H845.463ZM842.063 526.6V522.4H855.903V526.6H842.063ZM868.032 544.6C865.858 544.6 863.952 544.113 862.312 543.14C860.672 542.167 859.392 540.827 858.472 539.12C857.565 537.4 857.112 535.427 857.112 533.2C857.112 530.947 857.578 528.967 858.512 527.26C859.445 525.54 860.732 524.2 862.372 523.24C864.012 522.28 865.898 521.8 868.032 521.8C870.205 521.8 872.112 522.287 873.752 523.26C875.405 524.233 876.692 525.58 877.612 527.3C878.532 529.007 878.992 530.973 878.992 533.2C878.992 535.44 878.525 537.42 877.592 539.14C876.672 540.847 875.385 542.187 873.732 543.16C872.092 544.12 870.192 544.6 868.032 544.6ZM868.032 539.52C869.778 539.52 871.078 538.933 871.932 537.76C872.798 536.573 873.232 535.053 873.232 533.2C873.232 531.28 872.792 529.747 871.912 528.6C871.045 527.453 869.752 526.88 868.032 526.88C866.845 526.88 865.872 527.147 865.112 527.68C864.352 528.213 863.785 528.953 863.412 529.9C863.052 530.847 862.872 531.947 862.872 533.2C862.872 535.133 863.305 536.673 864.172 537.82C865.052 538.953 866.338 539.52 868.032 539.52ZM883.39 544V522.4H888.19V527.68L887.67 527C887.95 526.253 888.323 525.573 888.79 524.96C889.257 524.347 889.83 523.84 890.51 523.44C891.03 523.12 891.597 522.873 892.21 522.7C892.823 522.513 893.457 522.4 894.11 522.36C894.763 522.307 895.417 522.32 896.07 522.4V527.48C895.47 527.293 894.77 527.233 893.97 527.3C893.183 527.353 892.47 527.533 891.83 527.84C891.19 528.133 890.65 528.527 890.21 529.02C889.77 529.5 889.437 530.073 889.21 530.74C888.983 531.393 888.87 532.133 888.87 532.96V544H883.39ZM648.742 599.6C646.529 599.6 644.576 599.127 642.882 598.18C641.202 597.22 639.882 595.907 638.922 594.24C637.976 592.56 637.502 590.64 637.502 588.48C637.502 586.12 637.969 584.067 638.902 582.32C639.836 580.573 641.122 579.22 642.762 578.26C644.402 577.287 646.289 576.8 648.422 576.8C650.689 576.8 652.616 577.333 654.202 578.4C655.789 579.467 656.962 580.967 657.722 582.9C658.482 584.833 658.749 587.107 658.522 589.72H653.142V587.72C653.142 585.52 652.789 583.94 652.082 582.98C651.389 582.007 650.249 581.52 648.662 581.52C646.809 581.52 645.442 582.087 644.562 583.22C643.696 584.34 643.262 586 643.262 588.2C643.262 590.213 643.696 591.773 644.562 592.88C645.442 593.973 646.729 594.52 648.422 594.52C649.489 594.52 650.402 594.287 651.162 593.82C651.922 593.353 652.502 592.68 652.902 591.8L658.342 593.36C657.529 595.333 656.242 596.867 654.482 597.96C652.736 599.053 650.822 599.6 648.742 599.6ZM641.582 589.72V585.68H655.902V589.72H641.582ZM677.172 599V588.8C677.172 588.307 677.146 587.68 677.092 586.92C677.039 586.147 676.872 585.373 676.592 584.6C676.312 583.827 675.852 583.18 675.212 582.66C674.586 582.14 673.692 581.88 672.532 581.88C672.066 581.88 671.566 581.953 671.032 582.1C670.499 582.247 669.999 582.533 669.532 582.96C669.066 583.373 668.679 583.987 668.372 584.8C668.079 585.613 667.932 586.693 667.932 588.04L664.812 586.56C664.812 584.853 665.159 583.253 665.852 581.76C666.546 580.267 667.586 579.06 668.972 578.14C670.372 577.22 672.132 576.76 674.252 576.76C675.946 576.76 677.326 577.047 678.392 577.62C679.459 578.193 680.286 578.92 680.872 579.8C681.472 580.68 681.899 581.6 682.152 582.56C682.406 583.507 682.559 584.373 682.612 585.16C682.666 585.947 682.692 586.52 682.692 586.88V599H677.172ZM662.412 599V577.4H667.252V584.56H667.932V599H662.412ZM693.722 599L685.882 577.4H691.322L696.442 592.36L701.562 577.4H707.002L699.162 599H693.722ZM711.016 574.4V569.6H716.456V574.4H711.016ZM711.016 599V577.4H716.456V599H711.016ZM722.452 599V577.4H727.252V582.68L726.732 582C727.012 581.253 727.386 580.573 727.852 579.96C728.319 579.347 728.892 578.84 729.572 578.44C730.092 578.12 730.659 577.873 731.272 577.7C731.886 577.513 732.519 577.4 733.172 577.36C733.826 577.307 734.479 577.32 735.132 577.4V582.48C734.532 582.293 733.832 582.233 733.032 582.3C732.246 582.353 731.532 582.533 730.892 582.84C730.252 583.133 729.712 583.527 729.272 584.02C728.832 584.5 728.499 585.073 728.272 585.74C728.046 586.393 727.932 587.133 727.932 587.96V599H722.452ZM748.266 599.6C746.093 599.6 744.186 599.113 742.546 598.14C740.906 597.167 739.626 595.827 738.706 594.12C737.799 592.4 737.346 590.427 737.346 588.2C737.346 585.947 737.813 583.967 738.746 582.26C739.679 580.54 740.966 579.2 742.606 578.24C744.246 577.28 746.133 576.8 748.266 576.8C750.439 576.8 752.346 577.287 753.986 578.26C755.639 579.233 756.926 580.58 757.846 582.3C758.766 584.007 759.226 585.973 759.226 588.2C759.226 590.44 758.759 592.42 757.826 594.14C756.906 595.847 755.619 597.187 753.966 598.16C752.326 599.12 750.426 599.6 748.266 599.6ZM748.266 594.52C750.013 594.52 751.313 593.933 752.166 592.76C753.033 591.573 753.466 590.053 753.466 588.2C753.466 586.28 753.026 584.747 752.146 583.6C751.279 582.453 749.986 581.88 748.266 581.88C747.079 581.88 746.106 582.147 745.346 582.68C744.586 583.213 744.019 583.953 743.646 584.9C743.286 585.847 743.106 586.947 743.106 588.2C743.106 590.133 743.539 591.673 744.406 592.82C745.286 593.953 746.573 594.52 748.266 594.52ZM778.344 599V588.8C778.344 588.307 778.318 587.68 778.264 586.92C778.211 586.147 778.044 585.373 777.764 584.6C777.484 583.827 777.024 583.18 776.384 582.66C775.758 582.14 774.864 581.88 773.704 581.88C773.238 581.88 772.738 581.953 772.204 582.1C771.671 582.247 771.171 582.533 770.704 582.96C770.238 583.373 769.851 583.987 769.544 584.8C769.251 585.613 769.104 586.693 769.104 588.04L765.984 586.56C765.984 584.853 766.331 583.253 767.024 581.76C767.718 580.267 768.758 579.06 770.144 578.14C771.544 577.22 773.304 576.76 775.424 576.76C777.118 576.76 778.498 577.047 779.564 577.62C780.631 578.193 781.458 578.92 782.044 579.8C782.644 580.68 783.071 581.6 783.324 582.56C783.578 583.507 783.731 584.373 783.784 585.16C783.838 585.947 783.864 586.52 783.864 586.88V599H778.344ZM763.584 599V577.4H768.424V584.56H769.104V599H763.584ZM815.054 599V586.24C815.054 584.813 814.714 583.707 814.034 582.92C813.367 582.12 812.441 581.72 811.254 581.72C810.494 581.72 809.834 581.9 809.274 582.26C808.714 582.607 808.274 583.1 807.954 583.74C807.647 584.367 807.494 585.093 807.494 585.92L805.214 584.4C805.214 582.92 805.561 581.613 806.254 580.48C806.961 579.347 807.901 578.467 809.074 577.84C810.261 577.2 811.574 576.88 813.014 576.88C815.481 576.88 817.341 577.613 818.594 579.08C819.861 580.533 820.494 582.44 820.494 584.8V599H815.054ZM789.014 599V577.4H793.814V584.56H794.494V599H789.014ZM802.054 599V586.24C802.054 584.813 801.714 583.707 801.034 582.92C800.367 582.12 799.441 581.72 798.254 581.72C797.121 581.72 796.207 582.113 795.514 582.9C794.834 583.673 794.494 584.68 794.494 585.92L792.214 584.32C792.214 582.907 792.567 581.64 793.274 580.52C793.981 579.4 794.927 578.513 796.114 577.86C797.314 577.207 798.654 576.88 800.134 576.88C801.827 576.88 803.214 577.24 804.294 577.96C805.387 578.68 806.194 579.64 806.714 580.84C807.234 582.04 807.494 583.36 807.494 584.8V599H802.054ZM835.344 599.6C833.131 599.6 831.177 599.127 829.484 598.18C827.804 597.22 826.484 595.907 825.524 594.24C824.577 592.56 824.104 590.64 824.104 588.48C824.104 586.12 824.571 584.067 825.504 582.32C826.437 580.573 827.724 579.22 829.364 578.26C831.004 577.287 832.891 576.8 835.024 576.8C837.291 576.8 839.217 577.333 840.804 578.4C842.391 579.467 843.564 580.967 844.324 582.9C845.084 584.833 845.351 587.107 845.124 589.72H839.744V587.72C839.744 585.52 839.391 583.94 838.684 582.98C837.991 582.007 836.851 581.52 835.264 581.52C833.411 581.52 832.044 582.087 831.164 583.22C830.297 584.34 829.864 586 829.864 588.2C829.864 590.213 830.297 591.773 831.164 592.88C832.044 593.973 833.331 594.52 835.024 594.52C836.091 594.52 837.004 594.287 837.764 593.82C838.524 593.353 839.104 592.68 839.504 591.8L844.944 593.36C844.131 595.333 842.844 596.867 841.084 597.96C839.337 599.053 837.424 599.6 835.344 599.6ZM828.184 589.72V585.68H842.504V589.72H828.184ZM863.774 599V588.8C863.774 588.307 863.747 587.68 863.694 586.92C863.641 586.147 863.474 585.373 863.194 584.6C862.914 583.827 862.454 583.18 861.814 582.66C861.187 582.14 860.294 581.88 859.134 581.88C858.667 581.88 858.167 581.953 857.634 582.1C857.101 582.247 856.601 582.533 856.134 582.96C855.667 583.373 855.281 583.987 854.974 584.8C854.681 585.613 854.534 586.693 854.534 588.04L851.414 586.56C851.414 584.853 851.761 583.253 852.454 581.76C853.147 580.267 854.187 579.06 855.574 578.14C856.974 577.22 858.734 576.76 860.854 576.76C862.547 576.76 863.927 577.047 864.994 577.62C866.061 578.193 866.887 578.92 867.474 579.8C868.074 580.68 868.501 581.6 868.754 582.56C869.007 583.507 869.161 584.373 869.214 585.16C869.267 585.947 869.294 586.52 869.294 586.88V599H863.774ZM849.014 599V577.4H853.854V584.56H854.534V599H849.014ZM887.444 599C885.95 599.28 884.484 599.4 883.044 599.36C881.617 599.333 880.337 599.087 879.204 598.62C878.084 598.14 877.23 597.373 876.644 596.32C876.11 595.333 875.83 594.333 875.804 593.32C875.777 592.293 875.764 591.133 875.764 589.84V571.4H881.204V589.52C881.204 590.36 881.21 591.12 881.224 591.8C881.25 592.467 881.39 593 881.644 593.4C882.124 594.16 882.89 594.573 883.944 594.64C884.997 594.707 886.164 594.653 887.444 594.48V599ZM872.084 581.6V577.4H887.444V581.6H872.084ZM898.257 599.6C896.71 599.6 895.397 599.307 894.317 598.72C893.25 598.12 892.437 597.327 891.877 596.34C891.33 595.34 891.057 594.24 891.057 593.04C891.057 592.04 891.21 591.127 891.517 590.3C891.824 589.473 892.317 588.747 892.997 588.12C893.69 587.48 894.617 586.947 895.777 586.52C896.577 586.227 897.53 585.967 898.637 585.74C899.744 585.513 900.997 585.3 902.397 585.1C903.797 584.887 905.337 584.653 907.017 584.4L905.057 585.48C905.057 584.2 904.75 583.26 904.137 582.66C903.524 582.06 902.497 581.76 901.057 581.76C900.257 581.76 899.424 581.953 898.557 582.34C897.69 582.727 897.084 583.413 896.737 584.4L891.817 582.84C892.364 581.053 893.39 579.6 894.897 578.48C896.404 577.36 898.457 576.8 901.057 576.8C902.964 576.8 904.657 577.093 906.137 577.68C907.617 578.267 908.737 579.28 909.497 580.72C909.924 581.52 910.177 582.32 910.257 583.12C910.337 583.92 910.377 584.813 910.377 585.8V599H905.617V594.56L906.297 595.48C905.244 596.933 904.104 597.987 902.877 598.64C901.664 599.28 900.124 599.6 898.257 599.6ZM899.417 595.32C900.417 595.32 901.257 595.147 901.937 594.8C902.63 594.44 903.177 594.033 903.577 593.58C903.99 593.127 904.27 592.747 904.417 592.44C904.697 591.853 904.857 591.173 904.897 590.4C904.95 589.613 904.977 588.96 904.977 588.44L906.577 588.84C904.964 589.107 903.657 589.333 902.657 589.52C901.657 589.693 900.85 589.853 900.237 590C899.624 590.147 899.084 590.307 898.617 590.48C898.084 590.693 897.65 590.927 897.317 591.18C896.997 591.42 896.757 591.687 896.597 591.98C896.45 592.273 896.377 592.6 896.377 592.96C896.377 593.453 896.497 593.88 896.737 594.24C896.99 594.587 897.344 594.853 897.797 595.04C898.25 595.227 898.79 595.32 899.417 595.32ZM915.977 599V569.6H921.417V599H915.977ZM927.813 599V569.6H933.253V599H927.813ZM942.009 608.6L946.169 597.16L946.249 600.52L936.849 577.4H942.489L948.809 593.76H947.529L953.809 577.4H959.249L947.049 608.6H942.009ZM664.799 654V632.48C664.799 631.933 664.813 631.313 664.839 630.62C664.866 629.927 664.973 629.227 665.159 628.52C665.359 627.813 665.719 627.173 666.239 626.6C666.906 625.853 667.626 625.347 668.399 625.08C669.186 624.8 669.946 624.653 670.679 624.64C671.413 624.613 672.039 624.6 672.559 624.6H675.239V629H672.759C671.906 629 671.273 629.22 670.859 629.66C670.446 630.087 670.239 630.6 670.239 631.2V654H664.799ZM661.399 636.6V632.4H675.239V636.6H661.399ZM678.429 654V632.4H683.229V637.68L682.709 637C682.989 636.253 683.362 635.573 683.829 634.96C684.296 634.347 684.869 633.84 685.549 633.44C686.069 633.12 686.636 632.873 687.249 632.7C687.862 632.513 688.496 632.4 689.149 632.36C689.802 632.307 690.456 632.32 691.109 632.4V637.48C690.509 637.293 689.809 637.233 689.009 637.3C688.222 637.353 687.509 637.533 686.869 637.84C686.229 638.133 685.689 638.527 685.249 639.02C684.809 639.5 684.476 640.073 684.249 640.74C684.022 641.393 683.909 642.133 683.909 642.96V654H678.429ZM695.313 629.4V624.6H700.753V629.4H695.313ZM695.313 654V632.4H700.753V654H695.313ZM716.789 654.6C714.576 654.6 712.623 654.127 710.929 653.18C709.249 652.22 707.929 650.907 706.969 649.24C706.023 647.56 705.549 645.64 705.549 643.48C705.549 641.12 706.016 639.067 706.949 637.32C707.883 635.573 709.169 634.22 710.809 633.26C712.449 632.287 714.336 631.8 716.469 631.8C718.736 631.8 720.663 632.333 722.249 633.4C723.836 634.467 725.009 635.967 725.769 637.9C726.529 639.833 726.796 642.107 726.569 644.72H721.189V642.72C721.189 640.52 720.836 638.94 720.129 637.98C719.436 637.007 718.296 636.52 716.709 636.52C714.856 636.52 713.489 637.087 712.609 638.22C711.743 639.34 711.309 641 711.309 643.2C711.309 645.213 711.743 646.773 712.609 647.88C713.489 648.973 714.776 649.52 716.469 649.52C717.536 649.52 718.449 649.287 719.209 648.82C719.969 648.353 720.549 647.68 720.949 646.8L726.389 648.36C725.576 650.333 724.289 651.867 722.529 652.96C720.783 654.053 718.869 654.6 716.789 654.6ZM709.629 644.72V640.68H723.949V644.72H709.629ZM745.219 654V643.8C745.219 643.307 745.193 642.68 745.139 641.92C745.086 641.147 744.919 640.373 744.639 639.6C744.359 638.827 743.899 638.18 743.259 637.66C742.633 637.14 741.739 636.88 740.579 636.88C740.113 636.88 739.613 636.953 739.079 637.1C738.546 637.247 738.046 637.533 737.579 637.96C737.113 638.373 736.726 638.987 736.419 639.8C736.126 640.613 735.979 641.693 735.979 643.04L732.859 641.56C732.859 639.853 733.206 638.253 733.899 636.76C734.593 635.267 735.633 634.06 737.019 633.14C738.419 632.22 740.179 631.76 742.299 631.76C743.993 631.76 745.373 632.047 746.439 632.62C747.506 633.193 748.333 633.92 748.919 634.8C749.519 635.68 749.946 636.6 750.199 637.56C750.453 638.507 750.606 639.373 750.659 640.16C750.713 640.947 750.739 641.52 750.739 641.88V654H745.219ZM730.459 654V632.4H735.299V639.56H735.979V654H730.459ZM764.298 654.6C762.312 654.6 760.572 654.1 759.078 653.1C757.585 652.1 756.418 650.74 755.578 649.02C754.752 647.3 754.338 645.36 754.338 643.2C754.338 641 754.758 639.047 755.598 637.34C756.452 635.62 757.645 634.267 759.178 633.28C760.712 632.293 762.512 631.8 764.578 631.8C766.632 631.8 768.358 632.3 769.758 633.3C771.158 634.3 772.218 635.66 772.938 637.38C773.658 639.1 774.018 641.04 774.018 643.2C774.018 645.36 773.652 647.3 772.918 649.02C772.198 650.74 771.118 652.1 769.678 653.1C768.238 654.1 766.445 654.6 764.298 654.6ZM765.178 649.76C766.392 649.76 767.358 649.487 768.078 648.94C768.812 648.393 769.338 647.627 769.658 646.64C769.978 645.653 770.138 644.507 770.138 643.2C770.138 641.893 769.978 640.747 769.658 639.76C769.338 638.773 768.825 638.007 768.118 637.46C767.425 636.913 766.512 636.64 765.378 636.64C764.165 636.64 763.165 636.94 762.378 637.54C761.605 638.127 761.032 638.92 760.658 639.92C760.285 640.907 760.098 642 760.098 643.2C760.098 644.413 760.278 645.52 760.638 646.52C760.998 647.507 761.552 648.293 762.298 648.88C763.045 649.467 764.005 649.76 765.178 649.76ZM770.138 654V639.2H769.458V625.2H774.938V654H770.138ZM780.938 654V624.6H786.378V654H780.938ZM795.134 663.6L799.294 652.16L799.374 655.52L789.974 632.4H795.614L801.934 648.76H800.654L806.934 632.4H812.374L800.174 663.6H795.134ZM832.435 664.2C831.208 664.2 830.041 664 828.935 663.6C827.828 663.213 826.835 662.667 825.955 661.96C825.088 661.267 824.381 660.453 823.835 659.52L828.875 657.08C829.221 657.72 829.715 658.207 830.355 658.54C831.008 658.873 831.715 659.04 832.475 659.04C833.288 659.04 834.055 658.9 834.775 658.62C835.495 658.353 836.068 657.947 836.495 657.4C836.935 656.867 837.141 656.2 837.115 655.4V649.12H837.795V632.4H842.555V655.48C842.555 656.013 842.528 656.513 842.475 656.98C842.435 657.46 842.355 657.933 842.235 658.4C841.888 659.72 841.241 660.807 840.295 661.66C839.361 662.513 838.215 663.147 836.855 663.56C835.495 663.987 834.021 664.2 832.435 664.2ZM831.955 654.6C829.968 654.6 828.228 654.1 826.735 653.1C825.241 652.1 824.075 650.74 823.235 649.02C822.408 647.3 821.995 645.36 821.995 643.2C821.995 641 822.415 639.047 823.255 637.34C824.108 635.62 825.301 634.267 826.835 633.28C828.368 632.293 830.168 631.8 832.235 631.8C834.288 631.8 836.015 632.3 837.415 633.3C838.815 634.3 839.875 635.66 840.595 637.38C841.315 639.1 841.675 641.04 841.675 643.2C841.675 645.36 841.308 647.3 840.575 649.02C839.855 650.74 838.775 652.1 837.335 653.1C835.895 654.1 834.101 654.6 831.955 654.6ZM832.835 649.76C834.048 649.76 835.015 649.487 835.735 648.94C836.468 648.393 836.995 647.627 837.315 646.64C837.635 645.653 837.795 644.507 837.795 643.2C837.795 641.893 837.635 640.747 837.315 639.76C836.995 638.773 836.481 638.007 835.775 637.46C835.081 636.913 834.168 636.64 833.035 636.64C831.821 636.64 830.821 636.94 830.035 637.54C829.261 638.127 828.688 638.92 828.315 639.92C827.941 640.907 827.755 642 827.755 643.2C827.755 644.413 827.935 645.52 828.295 646.52C828.655 647.507 829.208 648.293 829.955 648.88C830.701 649.467 831.661 649.76 832.835 649.76ZM848.155 654V632.4H852.955V637.68L852.435 637C852.715 636.253 853.089 635.573 853.555 634.96C854.022 634.347 854.595 633.84 855.275 633.44C855.795 633.12 856.362 632.873 856.975 632.7C857.589 632.513 858.222 632.4 858.875 632.36C859.529 632.307 860.182 632.32 860.835 632.4V637.48C860.235 637.293 859.535 637.233 858.735 637.3C857.949 637.353 857.235 637.533 856.595 637.84C855.955 638.133 855.415 638.527 854.975 639.02C854.535 639.5 854.202 640.073 853.975 640.74C853.749 641.393 853.635 642.133 853.635 642.96V654H848.155ZM874.289 654.6C872.076 654.6 870.123 654.127 868.429 653.18C866.749 652.22 865.429 650.907 864.469 649.24C863.523 647.56 863.049 645.64 863.049 643.48C863.049 641.12 863.516 639.067 864.449 637.32C865.383 635.573 866.669 634.22 868.309 633.26C869.949 632.287 871.836 631.8 873.969 631.8C876.236 631.8 878.163 632.333 879.749 633.4C881.336 634.467 882.509 635.967 883.269 637.9C884.029 639.833 884.296 642.107 884.069 644.72H878.689V642.72C878.689 640.52 878.336 638.94 877.629 637.98C876.936 637.007 875.796 636.52 874.209 636.52C872.356 636.52 870.989 637.087 870.109 638.22C869.243 639.34 868.809 641 868.809 643.2C868.809 645.213 869.243 646.773 870.109 647.88C870.989 648.973 872.276 649.52 873.969 649.52C875.036 649.52 875.949 649.287 876.709 648.82C877.469 648.353 878.049 647.68 878.449 646.8L883.889 648.36C883.076 650.333 881.789 651.867 880.029 652.96C878.283 654.053 876.369 654.6 874.289 654.6ZM867.129 644.72V640.68H881.449V644.72H867.129ZM898.625 654.6C896.412 654.6 894.458 654.127 892.765 653.18C891.085 652.22 889.765 650.907 888.805 649.24C887.858 647.56 887.385 645.64 887.385 643.48C887.385 641.12 887.852 639.067 888.785 637.32C889.718 635.573 891.005 634.22 892.645 633.26C894.285 632.287 896.172 631.8 898.305 631.8C900.572 631.8 902.498 632.333 904.085 633.4C905.672 634.467 906.845 635.967 907.605 637.9C908.365 639.833 908.632 642.107 908.405 644.72H903.025V642.72C903.025 640.52 902.672 638.94 901.965 637.98C901.272 637.007 900.132 636.52 898.545 636.52C896.692 636.52 895.325 637.087 894.445 638.22C893.578 639.34 893.145 641 893.145 643.2C893.145 645.213 893.578 646.773 894.445 647.88C895.325 648.973 896.612 649.52 898.305 649.52C899.372 649.52 900.285 649.287 901.045 648.82C901.805 648.353 902.385 647.68 902.785 646.8L908.225 648.36C907.412 650.333 906.125 651.867 904.365 652.96C902.618 654.053 900.705 654.6 898.625 654.6ZM891.465 644.72V640.68H905.785V644.72H891.465ZM927.055 654V643.8C927.055 643.307 927.028 642.68 926.975 641.92C926.922 641.147 926.755 640.373 926.475 639.6C926.195 638.827 925.735 638.18 925.095 637.66C924.468 637.14 923.575 636.88 922.415 636.88C921.948 636.88 921.448 636.953 920.915 637.1C920.382 637.247 919.882 637.533 919.415 637.96C918.948 638.373 918.562 638.987 918.255 639.8C917.962 640.613 917.815 641.693 917.815 643.04L914.695 641.56C914.695 639.853 915.042 638.253 915.735 636.76C916.428 635.267 917.468 634.06 918.855 633.14C920.255 632.22 922.015 631.76 924.135 631.76C925.828 631.76 927.208 632.047 928.275 632.62C929.342 633.193 930.168 633.92 930.755 634.8C931.355 635.68 931.782 636.6 932.035 637.56C932.288 638.507 932.442 639.373 932.495 640.16C932.548 640.947 932.575 641.52 932.575 641.88V654H927.055ZM912.295 654V632.4H917.135V639.56H917.815V654H912.295ZM674.553 709C673.06 709.28 671.593 709.4 670.153 709.36C668.726 709.333 667.446 709.087 666.313 708.62C665.193 708.14 664.34 707.373 663.753 706.32C663.22 705.333 662.94 704.333 662.913 703.32C662.886 702.293 662.873 701.133 662.873 699.84V681.4H668.313V699.52C668.313 700.36 668.32 701.12 668.333 701.8C668.36 702.467 668.5 703 668.753 703.4C669.233 704.16 670 704.573 671.053 704.64C672.106 704.707 673.273 704.653 674.553 704.48V709ZM659.193 691.6V687.4H674.553V691.6H659.193ZM688.235 709.6C686.021 709.6 684.068 709.127 682.375 708.18C680.695 707.22 679.375 705.907 678.415 704.24C677.468 702.56 676.995 700.64 676.995 698.48C676.995 696.12 677.461 694.067 678.395 692.32C679.328 690.573 680.615 689.22 682.255 688.26C683.895 687.287 685.781 686.8 687.915 686.8C690.181 686.8 692.108 687.333 693.695 688.4C695.281 689.467 696.455 690.967 697.215 692.9C697.975 694.833 698.241 697.107 698.015 699.72H692.635V697.72C692.635 695.52 692.281 693.94 691.575 692.98C690.881 692.007 689.741 691.52 688.155 691.52C686.301 691.52 684.935 692.087 684.055 693.22C683.188 694.34 682.755 696 682.755 698.2C682.755 700.213 683.188 701.773 684.055 702.88C684.935 703.973 686.221 704.52 687.915 704.52C688.981 704.52 689.895 704.287 690.655 703.82C691.415 703.353 691.995 702.68 692.395 701.8L697.835 703.36C697.021 705.333 695.735 706.867 693.975 707.96C692.228 709.053 690.315 709.6 688.235 709.6ZM681.075 699.72V695.68H695.395V699.72H681.075ZM712.05 709.6C709.81 709.6 707.89 709.1 706.29 708.1C704.69 707.1 703.464 705.74 702.61 704.02C701.757 702.3 701.33 700.36 701.33 698.2C701.33 696.013 701.77 694.06 702.65 692.34C703.544 690.62 704.797 689.267 706.41 688.28C708.024 687.293 709.93 686.8 712.13 686.8C714.677 686.8 716.81 687.447 718.53 688.74C720.264 690.02 721.37 691.773 721.85 694L716.41 695.44C716.09 694.32 715.53 693.447 714.73 692.82C713.944 692.193 713.05 691.88 712.05 691.88C710.904 691.88 709.964 692.16 709.23 692.72C708.497 693.267 707.957 694.02 707.61 694.98C707.264 695.927 707.09 697 707.09 698.2C707.09 700.08 707.504 701.607 708.33 702.78C709.17 703.94 710.41 704.52 712.05 704.52C713.277 704.52 714.21 704.24 714.85 703.68C715.49 703.12 715.97 702.32 716.29 701.28L721.85 702.44C721.237 704.733 720.077 706.5 718.37 707.74C716.664 708.98 714.557 709.6 712.05 709.6ZM740.571 709V698.8C740.571 698.307 740.544 697.68 740.491 696.92C740.437 696.147 740.271 695.373 739.991 694.6C739.711 693.827 739.251 693.18 738.611 692.66C737.984 692.14 737.091 691.88 735.931 691.88C735.464 691.88 734.964 691.953 734.431 692.1C733.897 692.247 733.397 692.533 732.931 692.96C732.464 693.373 732.077 693.987 731.771 694.8C731.477 695.613 731.331 696.693 731.331 698.04L728.211 696.56C728.211 694.853 728.557 693.253 729.251 691.76C729.944 690.267 730.984 689.06 732.371 688.14C733.771 687.22 735.531 686.76 737.651 686.76C739.344 686.76 740.724 687.047 741.791 687.62C742.857 688.193 743.684 688.92 744.271 689.8C744.871 690.68 745.297 691.6 745.551 692.56C745.804 693.507 745.957 694.373 746.011 695.16C746.064 695.947 746.091 696.52 746.091 696.88V709H740.571ZM725.811 709V680.2H730.651V695H731.331V709H725.811ZM766 709V698.8C766 698.307 765.974 697.68 765.92 696.92C765.867 696.147 765.7 695.373 765.42 694.6C765.14 693.827 764.68 693.18 764.04 692.66C763.414 692.14 762.52 691.88 761.36 691.88C760.894 691.88 760.394 691.953 759.86 692.1C759.327 692.247 758.827 692.533 758.36 692.96C757.894 693.373 757.507 693.987 757.2 694.8C756.907 695.613 756.76 696.693 756.76 698.04L753.64 696.56C753.64 694.853 753.987 693.253 754.68 691.76C755.374 690.267 756.414 689.06 757.8 688.14C759.2 687.22 760.96 686.76 763.08 686.76C764.774 686.76 766.154 687.047 767.22 687.62C768.287 688.193 769.114 688.92 769.7 689.8C770.3 690.68 770.727 691.6 770.98 692.56C771.234 693.507 771.387 694.373 771.44 695.16C771.494 695.947 771.52 696.52 771.52 696.88V709H766ZM751.24 709V687.4H756.08V694.56H756.76V709H751.24ZM786.04 709.6C783.866 709.6 781.96 709.113 780.32 708.14C778.68 707.167 777.4 705.827 776.48 704.12C775.573 702.4 775.12 700.427 775.12 698.2C775.12 695.947 775.586 693.967 776.52 692.26C777.453 690.54 778.74 689.2 780.38 688.24C782.02 687.28 783.906 686.8 786.04 686.8C788.213 686.8 790.12 687.287 791.76 688.26C793.413 689.233 794.7 690.58 795.62 692.3C796.54 694.007 797 695.973 797 698.2C797 700.44 796.533 702.42 795.6 704.14C794.68 705.847 793.393 707.187 791.74 708.16C790.1 709.12 788.2 709.6 786.04 709.6ZM786.04 704.52C787.786 704.52 789.086 703.933 789.94 702.76C790.806 701.573 791.24 700.053 791.24 698.2C791.24 696.28 790.8 694.747 789.92 693.6C789.053 692.453 787.76 691.88 786.04 691.88C784.853 691.88 783.88 692.147 783.12 692.68C782.36 693.213 781.793 693.953 781.42 694.9C781.06 695.847 780.88 696.947 780.88 698.2C780.88 700.133 781.313 701.673 782.18 702.82C783.06 703.953 784.346 704.52 786.04 704.52ZM801.798 709V679.6H807.238V709H801.798ZM822.954 709.6C820.78 709.6 818.874 709.113 817.234 708.14C815.594 707.167 814.314 705.827 813.394 704.12C812.487 702.4 812.034 700.427 812.034 698.2C812.034 695.947 812.5 693.967 813.434 692.26C814.367 690.54 815.654 689.2 817.294 688.24C818.934 687.28 820.82 686.8 822.954 686.8C825.127 686.8 827.034 687.287 828.674 688.26C830.327 689.233 831.614 690.58 832.534 692.3C833.454 694.007 833.914 695.973 833.914 698.2C833.914 700.44 833.447 702.42 832.514 704.14C831.594 705.847 830.307 707.187 828.654 708.16C827.014 709.12 825.114 709.6 822.954 709.6ZM822.954 704.52C824.7 704.52 826 703.933 826.854 702.76C827.72 701.573 828.154 700.053 828.154 698.2C828.154 696.28 827.714 694.747 826.834 693.6C825.967 692.453 824.674 691.88 822.954 691.88C821.767 691.88 820.794 692.147 820.034 692.68C819.274 693.213 818.707 693.953 818.334 694.9C817.974 695.847 817.794 696.947 817.794 698.2C817.794 700.133 818.227 701.673 819.094 702.82C819.974 703.953 821.26 704.52 822.954 704.52ZM847.552 719.2C846.325 719.2 845.158 719 844.052 718.6C842.945 718.213 841.952 717.667 841.072 716.96C840.205 716.267 839.498 715.453 838.952 714.52L843.992 712.08C844.338 712.72 844.832 713.207 845.472 713.54C846.125 713.873 846.832 714.04 847.592 714.04C848.405 714.04 849.172 713.9 849.892 713.62C850.612 713.353 851.185 712.947 851.612 712.4C852.052 711.867 852.258 711.2 852.232 710.4V704.12H852.912V687.4H857.672V710.48C857.672 711.013 857.645 711.513 857.592 711.98C857.552 712.46 857.472 712.933 857.352 713.4C857.005 714.72 856.358 715.807 855.412 716.66C854.478 717.513 853.332 718.147 851.972 718.56C850.612 718.987 849.138 719.2 847.552 719.2ZM847.072 709.6C845.085 709.6 843.345 709.1 841.852 708.1C840.358 707.1 839.192 705.74 838.352 704.02C837.525 702.3 837.112 700.36 837.112 698.2C837.112 696 837.532 694.047 838.372 692.34C839.225 690.62 840.418 689.267 841.952 688.28C843.485 687.293 845.285 686.8 847.352 686.8C849.405 686.8 851.132 687.3 852.532 688.3C853.932 689.3 854.992 690.66 855.712 692.38C856.432 694.1 856.792 696.04 856.792 698.2C856.792 700.36 856.425 702.3 855.692 704.02C854.972 705.74 853.892 707.1 852.452 708.1C851.012 709.1 849.218 709.6 847.072 709.6ZM847.952 704.76C849.165 704.76 850.132 704.487 850.852 703.94C851.585 703.393 852.112 702.627 852.432 701.64C852.752 700.653 852.912 699.507 852.912 698.2C852.912 696.893 852.752 695.747 852.432 694.76C852.112 693.773 851.598 693.007 850.892 692.46C850.198 691.913 849.285 691.64 848.152 691.64C846.938 691.64 845.938 691.94 845.152 692.54C844.378 693.127 843.805 693.92 843.432 694.92C843.058 695.907 842.872 697 842.872 698.2C842.872 699.413 843.052 700.52 843.412 701.52C843.772 702.507 844.325 703.293 845.072 703.88C845.818 704.467 846.778 704.76 847.952 704.76ZM863.673 684.4V679.6H869.113V684.4H863.673ZM863.673 709V687.4H869.113V709H863.673ZM885.149 709.6C882.935 709.6 880.982 709.127 879.289 708.18C877.609 707.22 876.289 705.907 875.329 704.24C874.382 702.56 873.909 700.64 873.909 698.48C873.909 696.12 874.375 694.067 875.309 692.32C876.242 690.573 877.529 689.22 879.169 688.26C880.809 687.287 882.695 686.8 884.829 686.8C887.095 686.8 889.022 687.333 890.609 688.4C892.195 689.467 893.369 690.967 894.129 692.9C894.889 694.833 895.155 697.107 894.929 699.72H889.549V697.72C889.549 695.52 889.195 693.94 888.489 692.98C887.795 692.007 886.655 691.52 885.069 691.52C883.215 691.52 881.849 692.087 880.969 693.22C880.102 694.34 879.669 696 879.669 698.2C879.669 700.213 880.102 701.773 880.969 702.88C881.849 703.973 883.135 704.52 884.829 704.52C885.895 704.52 886.809 704.287 887.569 703.82C888.329 703.353 888.909 702.68 889.309 701.8L894.749 703.36C893.935 705.333 892.649 706.867 890.889 707.96C889.142 709.053 887.229 709.6 885.149 709.6ZM877.989 699.72V695.68H892.309V699.72H877.989ZM907.885 709.6C905.165 709.6 902.965 708.987 901.285 707.76C899.618 706.52 898.605 704.773 898.245 702.52L903.805 701.68C904.031 702.693 904.531 703.487 905.305 704.06C906.091 704.633 907.085 704.92 908.285 704.92C909.271 704.92 910.031 704.733 910.565 704.36C911.098 703.973 911.365 703.44 911.365 702.76C911.365 702.333 911.258 701.993 911.045 701.74C910.831 701.473 910.351 701.213 909.605 700.96C908.871 700.707 907.725 700.373 906.165 699.96C904.405 699.507 902.998 699 901.945 698.44C900.891 697.88 900.131 697.213 899.665 696.44C899.198 695.653 898.965 694.707 898.965 693.6C898.965 692.213 899.318 691.013 900.025 690C900.731 688.973 901.725 688.187 903.005 687.64C904.298 687.08 905.818 686.8 907.565 686.8C909.258 686.8 910.758 687.06 912.065 687.58C913.371 688.1 914.425 688.84 915.225 689.8C916.038 690.76 916.538 691.893 916.725 693.2L911.165 694.2C911.071 693.4 910.725 692.767 910.125 692.3C909.525 691.833 908.711 691.56 907.685 691.48C906.685 691.413 905.878 691.547 905.265 691.88C904.665 692.213 904.365 692.693 904.365 693.32C904.365 693.693 904.491 694.007 904.745 694.26C905.011 694.513 905.551 694.773 906.365 695.04C907.191 695.307 908.445 695.653 910.125 696.08C911.765 696.507 913.078 697.007 914.065 697.58C915.065 698.14 915.791 698.82 916.245 699.62C916.698 700.407 916.925 701.36 916.925 702.48C916.925 704.693 916.125 706.433 914.525 707.7C912.925 708.967 910.711 709.6 907.885 709.6ZM920.509 691.04L920.829 688.76C921.469 688.813 921.989 688.713 922.389 688.46C922.789 688.193 923.062 687.82 923.209 687.34C923.369 686.847 923.402 686.28 923.309 685.64H920.509V680.2H925.949V685.64C925.949 687.56 925.502 689.013 924.609 690C923.715 690.987 922.349 691.333 920.509 691.04ZM927.749 691.04L928.069 688.76C928.709 688.813 929.229 688.713 929.629 688.46C930.029 688.193 930.302 687.82 930.449 687.34C930.609 686.847 930.642 686.28 930.549 685.64H927.749V680.2H933.189V685.64C933.189 687.56 932.742 689.013 931.849 690C930.955 690.987 929.589 691.333 927.749 691.04Z" fill="#161616"/>
<rect x="430.582" y="221" width="56" height="56" rx="28" fill="#161616"/>
<path d="M453.22 259.39C452.007 259.39 450.923 259.117 449.97 258.571C449.025 258.016 448.276 257.267 447.721 256.322C447.175 255.369 446.902 254.285 446.902 253.072V246.208C446.902 244.995 447.175 243.911 447.721 242.958C448.276 242.005 449.025 241.255 449.97 240.709C450.923 240.163 452.007 239.89 453.22 239.89C454.433 239.89 455.517 240.163 456.47 240.709C457.423 241.255 458.173 242.005 458.719 242.958C459.265 243.911 459.538 244.995 459.538 246.208V253.072C459.538 254.285 459.265 255.369 458.719 256.322C458.173 257.267 457.423 258.016 456.47 258.571C455.517 259.117 454.433 259.39 453.22 259.39ZM453.22 257.167C453.957 257.167 454.624 256.989 455.222 256.634C455.82 256.279 456.297 255.802 456.652 255.204C457.007 254.597 457.185 253.93 457.185 253.202V246.065C457.185 245.328 457.007 244.661 456.652 244.063C456.297 243.465 455.82 242.988 455.222 242.633C454.624 242.278 453.957 242.1 453.22 242.1C452.492 242.1 451.825 242.278 451.218 242.633C450.62 242.988 450.143 243.465 449.788 244.063C449.433 244.661 449.255 245.328 449.255 246.065V253.202C449.255 253.93 449.433 254.597 449.788 255.204C450.143 255.802 450.62 256.279 451.218 256.634C451.825 256.989 452.492 257.167 453.22 257.167ZM466.44 259V242.841L462.917 244.973V242.386L466.44 240.28H468.793V259H466.44Z" fill="white"/>
<rect x="967.582" y="115" width="56" height="56" rx="28" fill="#161616"/>
<path d="M987.72 153.39C986.507 153.39 985.423 153.117 984.47 152.571C983.525 152.016 982.776 151.267 982.221 150.322C981.675 149.369 981.402 148.285 981.402 147.072V140.208C981.402 138.995 981.675 137.911 982.221 136.958C982.776 136.005 983.525 135.255 984.47 134.709C985.423 134.163 986.507 133.89 987.72 133.89C988.933 133.89 990.017 134.163 990.97 134.709C991.923 135.255 992.673 136.005 993.219 136.958C993.765 137.911 994.038 138.995 994.038 140.208V147.072C994.038 148.285 993.765 149.369 993.219 150.322C992.673 151.267 991.923 152.016 990.97 152.571C990.017 153.117 988.933 153.39 987.72 153.39ZM987.72 151.167C988.457 151.167 989.124 150.989 989.722 150.634C990.32 150.279 990.797 149.802 991.152 149.204C991.507 148.597 991.685 147.93 991.685 147.202V140.065C991.685 139.328 991.507 138.661 991.152 138.063C990.797 137.465 990.32 136.988 989.722 136.633C989.124 136.278 988.457 136.1 987.72 136.1C986.992 136.1 986.325 136.278 985.718 136.633C985.12 136.988 984.643 137.465 984.288 138.063C983.933 138.661 983.755 139.328 983.755 140.065V147.202C983.755 147.93 983.933 148.597 984.288 149.204C984.643 149.802 985.12 150.279 985.718 150.634C986.325 150.989 986.992 151.167 987.72 151.167ZM997.157 152.987L997.17 150.907L1005.48 143.432C1006.17 142.808 1006.63 142.219 1006.87 141.664C1007.11 141.101 1007.23 140.524 1007.23 139.935C1007.23 139.216 1007.07 138.566 1006.74 137.985C1006.41 137.404 1005.96 136.945 1005.39 136.607C1004.82 136.269 1004.18 136.1 1003.46 136.1C1002.72 136.1 1002.05 136.278 1001.47 136.633C1000.89 136.98 1000.43 137.443 1000.1 138.024C999.766 138.605 999.606 139.237 999.614 139.922H997.248C997.248 138.743 997.521 137.703 998.067 136.802C998.613 135.892 999.354 135.181 1000.29 134.67C1001.24 134.15 1002.31 133.89 1003.5 133.89C1004.66 133.89 1005.7 134.159 1006.62 134.696C1007.54 135.225 1008.26 135.948 1008.79 136.867C1009.33 137.777 1009.6 138.808 1009.6 139.961C1009.6 140.776 1009.49 141.482 1009.29 142.08C1009.09 142.678 1008.78 143.233 1008.35 143.744C1007.93 144.247 1007.39 144.784 1006.75 145.356L999.848 151.557L999.549 150.777H1009.6V152.987H997.157Z" fill="white"/>
<rect x="949.582" y="430" width="56" height="56" rx="28" fill="#161616"/>
<path d="M970.22 468.39C969.007 468.39 967.923 468.117 966.97 467.571C966.025 467.016 965.276 466.267 964.721 465.322C964.175 464.369 963.902 463.285 963.902 462.072V455.208C963.902 453.995 964.175 452.911 964.721 451.958C965.276 451.005 966.025 450.255 966.97 449.709C967.923 449.163 969.007 448.89 970.22 448.89C971.433 448.89 972.517 449.163 973.47 449.709C974.423 450.255 975.173 451.005 975.719 451.958C976.265 452.911 976.538 453.995 976.538 455.208V462.072C976.538 463.285 976.265 464.369 975.719 465.322C975.173 466.267 974.423 467.016 973.47 467.571C972.517 468.117 971.433 468.39 970.22 468.39ZM970.22 466.167C970.957 466.167 971.624 465.989 972.222 465.634C972.82 465.279 973.297 464.802 973.652 464.204C974.007 463.597 974.185 462.93 974.185 462.202V455.065C974.185 454.328 974.007 453.661 973.652 453.063C973.297 452.465 972.82 451.988 972.222 451.633C971.624 451.278 970.957 451.1 970.22 451.1C969.492 451.1 968.825 451.278 968.218 451.633C967.62 451.988 967.143 452.465 966.788 453.063C966.433 453.661 966.255 454.328 966.255 455.065V462.202C966.255 462.93 966.433 463.597 966.788 464.204C967.143 464.802 967.62 465.279 968.218 465.634C968.825 465.989 969.492 466.167 970.22 466.167ZM985.312 468.364C984.385 468.364 983.523 468.195 982.725 467.857C981.928 467.51 981.239 467.025 980.658 466.401C980.086 465.768 979.666 465.019 979.397 464.152L981.62 463.515C981.906 464.382 982.383 465.04 983.05 465.491C983.718 465.942 984.467 466.163 985.299 466.154C986.062 466.137 986.721 465.963 987.275 465.634C987.839 465.296 988.272 464.837 988.575 464.256C988.887 463.675 989.043 463.004 989.043 462.241C989.043 461.08 988.697 460.139 988.003 459.42C987.31 458.692 986.4 458.328 985.273 458.328C984.961 458.328 984.632 458.371 984.285 458.458C983.947 458.545 983.631 458.666 983.336 458.822L982.218 456.989L989.16 450.71L989.459 451.49H980.138V449.28H991.175V451.503L985.26 457.171L985.234 456.352C986.474 456.265 987.557 456.469 988.484 456.963C989.412 457.457 990.131 458.163 990.642 459.082C991.162 460.001 991.422 461.054 991.422 462.241C991.422 463.437 991.154 464.494 990.616 465.413C990.079 466.332 989.351 467.055 988.432 467.584C987.514 468.104 986.474 468.364 985.312 468.364Z" fill="white"/>
</svg>
