<svg width="592" height="128" viewBox="0 0 592 128" fill="none" xmlns="http://www.w3.org/2000/svg">
<rect x="48" y="16" width="34" height="34" rx="17" fill="#161616"/>
<path d="M61.508 39.24C60.7613 39.24 60.0947 39.072 59.508 38.736C58.9267 38.3947 58.4653 37.9333 58.124 37.352C57.788 36.7653 57.62 36.0987 57.62 35.352V31.128C57.62 30.3813 57.788 29.7147 58.124 29.128C58.4653 28.5413 58.9267 28.08 59.508 27.744C60.0947 27.408 60.7613 27.24 61.508 27.24C62.2547 27.24 62.9213 27.408 63.508 27.744C64.0947 28.08 64.556 28.5413 64.892 29.128C65.228 29.7147 65.396 30.3813 65.396 31.128V35.352C65.396 36.0987 65.228 36.7653 64.892 37.352C64.556 37.9333 64.0947 38.3947 63.508 38.736C62.9213 39.072 62.2547 39.24 61.508 39.24ZM61.508 37.872C61.9613 37.872 62.372 37.7627 62.74 37.544C63.108 37.3253 63.4013 37.032 63.62 36.664C63.8387 36.2907 63.948 35.88 63.948 35.432V31.04C63.948 30.5867 63.8387 30.176 63.62 29.808C63.4013 29.44 63.108 29.1467 62.74 28.928C62.372 28.7093 61.9613 28.6 61.508 28.6C61.06 28.6 60.6493 28.7093 60.276 28.928C59.908 29.1467 59.6147 29.44 59.396 29.808C59.1773 30.176 59.068 30.5867 59.068 31.04V35.432C59.068 35.88 59.1773 36.2907 59.396 36.664C59.6147 37.032 59.908 37.3253 60.276 37.544C60.6493 37.7627 61.06 37.872 61.508 37.872ZM69.6436 39V29.056L67.4756 30.368V28.776L69.6436 27.48H71.0916V39H69.6436Z" fill="white"/>
<rect x="163.602" y="16" width="34" height="34" rx="17" fill="#161616"/>
<path d="M175.61 39.24C174.863 39.24 174.196 39.072 173.61 38.736C173.028 38.3947 172.567 37.9333 172.226 37.352C171.89 36.7653 171.722 36.0987 171.722 35.352V31.128C171.722 30.3813 171.89 29.7147 172.226 29.128C172.567 28.5413 173.028 28.08 173.61 27.744C174.196 27.408 174.863 27.24 175.61 27.24C176.356 27.24 177.023 27.408 177.61 27.744C178.196 28.08 178.658 28.5413 178.994 29.128C179.33 29.7147 179.498 30.3813 179.498 31.128V35.352C179.498 36.0987 179.33 36.7653 178.994 37.352C178.658 37.9333 178.196 38.3947 177.61 38.736C177.023 39.072 176.356 39.24 175.61 39.24ZM175.61 37.872C176.063 37.872 176.474 37.7627 176.842 37.544C177.21 37.3253 177.503 37.032 177.722 36.664C177.94 36.2907 178.05 35.88 178.05 35.432V31.04C178.05 30.5867 177.94 30.176 177.722 29.808C177.503 29.44 177.21 29.1467 176.842 28.928C176.474 28.7093 176.063 28.6 175.61 28.6C175.162 28.6 174.751 28.7093 174.378 28.928C174.01 29.1467 173.716 29.44 173.498 29.808C173.279 30.176 173.17 30.5867 173.17 31.04V35.432C173.17 35.88 173.279 36.2907 173.498 36.664C173.716 37.032 174.01 37.3253 174.378 37.544C174.751 37.7627 175.162 37.872 175.61 37.872ZM181.417 38.992L181.425 37.712L186.537 33.112C186.964 32.728 187.249 32.3653 187.393 32.024C187.543 31.6773 187.617 31.3227 187.617 30.96C187.617 30.5173 187.516 30.1173 187.313 29.76C187.111 29.4027 186.833 29.12 186.481 28.912C186.135 28.704 185.74 28.6 185.297 28.6C184.839 28.6 184.431 28.7093 184.073 28.928C183.716 29.1413 183.433 29.4267 183.225 29.784C183.023 30.1413 182.924 30.5307 182.929 30.952H181.473C181.473 30.2267 181.641 29.5867 181.977 29.032C182.313 28.472 182.769 28.0347 183.345 27.72C183.927 27.4 184.585 27.24 185.321 27.24C186.036 27.24 186.676 27.4053 187.241 27.736C187.807 28.0613 188.252 28.5067 188.577 29.072C188.908 29.632 189.073 30.2667 189.073 30.976C189.073 31.4773 189.009 31.912 188.881 32.28C188.759 32.648 188.567 32.9893 188.305 33.304C188.044 33.6133 187.716 33.944 187.321 34.296L183.073 38.112L182.889 37.632H189.073V38.992H181.417Z" fill="white"/>
<rect x="279.992" y="16" width="34" height="34" rx="17" fill="#161616"/>
<path d="M292 39.24C291.254 39.24 290.587 39.072 290 38.736C289.419 38.3947 288.958 37.9333 288.616 37.352C288.28 36.7653 288.112 36.0987 288.112 35.352V31.128C288.112 30.3813 288.28 29.7147 288.616 29.128C288.958 28.5413 289.419 28.08 290 27.744C290.587 27.408 291.254 27.24 292 27.24C292.747 27.24 293.414 27.408 294 27.744C294.587 28.08 295.048 28.5413 295.384 29.128C295.72 29.7147 295.888 30.3813 295.888 31.128V35.352C295.888 36.0987 295.72 36.7653 295.384 37.352C295.048 37.9333 294.587 38.3947 294 38.736C293.414 39.072 292.747 39.24 292 39.24ZM292 37.872C292.454 37.872 292.864 37.7627 293.232 37.544C293.6 37.3253 293.894 37.032 294.112 36.664C294.331 36.2907 294.44 35.88 294.44 35.432V31.04C294.44 30.5867 294.331 30.176 294.112 29.808C293.894 29.44 293.6 29.1467 293.232 28.928C292.864 28.7093 292.454 28.6 292 28.6C291.552 28.6 291.142 28.7093 290.768 28.928C290.4 29.1467 290.107 29.44 289.888 29.808C289.67 30.176 289.56 30.5867 289.56 31.04V35.432C289.56 35.88 289.67 36.2907 289.888 36.664C290.107 37.032 290.4 37.3253 290.768 37.544C291.142 37.7627 291.552 37.872 292 37.872ZM301.288 39.224C300.717 39.224 300.186 39.12 299.696 38.912C299.205 38.6987 298.781 38.4 298.424 38.016C298.072 37.6267 297.813 37.1653 297.648 36.632L299.016 36.24C299.192 36.7733 299.485 37.1787 299.896 37.456C300.306 37.7333 300.768 37.8693 301.28 37.864C301.749 37.8533 302.154 37.7467 302.496 37.544C302.842 37.336 303.109 37.0533 303.296 36.696C303.488 36.3387 303.584 35.9253 303.584 35.456C303.584 34.7413 303.37 34.1627 302.944 33.72C302.517 33.272 301.957 33.048 301.264 33.048C301.072 33.048 300.869 33.0747 300.656 33.128C300.448 33.1813 300.253 33.256 300.072 33.352L299.384 32.224L303.656 28.36L303.84 28.84H298.104V27.48H304.896V28.848L301.256 32.336L301.24 31.832C302.002 31.7787 302.669 31.904 303.24 32.208C303.81 32.512 304.253 32.9467 304.568 33.512C304.888 34.0773 305.048 34.7253 305.048 35.456C305.048 36.192 304.882 36.8427 304.552 37.408C304.221 37.9733 303.773 38.4187 303.208 38.744C302.642 39.064 302.002 39.224 301.288 39.224Z" fill="white"/>
<rect x="395.279" y="16" width="34" height="34" rx="17" fill="#161616"/>
<path d="M407.287 39.24C406.541 39.24 405.874 39.072 405.287 38.736C404.706 38.3947 404.245 37.9333 403.903 37.352C403.567 36.7653 403.399 36.0987 403.399 35.352V31.128C403.399 30.3813 403.567 29.7147 403.903 29.128C404.245 28.5413 404.706 28.08 405.287 27.744C405.874 27.408 406.541 27.24 407.287 27.24C408.034 27.24 408.701 27.408 409.287 27.744C409.874 28.08 410.335 28.5413 410.671 29.128C411.007 29.7147 411.175 30.3813 411.175 31.128V35.352C411.175 36.0987 411.007 36.7653 410.671 37.352C410.335 37.9333 409.874 38.3947 409.287 38.736C408.701 39.072 408.034 39.24 407.287 39.24ZM407.287 37.872C407.741 37.872 408.151 37.7627 408.519 37.544C408.887 37.3253 409.181 37.032 409.399 36.664C409.618 36.2907 409.727 35.88 409.727 35.432V31.04C409.727 30.5867 409.618 30.176 409.399 29.808C409.181 29.44 408.887 29.1467 408.519 28.928C408.151 28.7093 407.741 28.6 407.287 28.6C406.839 28.6 406.429 28.7093 406.055 28.928C405.687 29.1467 405.394 29.44 405.175 29.808C404.957 30.176 404.847 30.5867 404.847 31.04V35.432C404.847 35.88 404.957 36.2907 405.175 36.664C405.394 37.032 405.687 37.3253 406.055 37.544C406.429 37.7627 406.839 37.872 407.287 37.872ZM418.391 39V36.88H413.095V35.528L416.895 27.48H418.511L414.711 35.528H418.391V32.288H419.831V35.528H421.031V36.88H419.831V39H418.391Z" fill="white"/>
<rect x="511.67" y="16" width="34" height="34" rx="17" fill="#161616"/>
<path d="M523.678 39.24C522.931 39.24 522.265 39.072 521.678 38.736C521.097 38.3947 520.635 37.9333 520.294 37.352C519.958 36.7653 519.79 36.0987 519.79 35.352V31.128C519.79 30.3813 519.958 29.7147 520.294 29.128C520.635 28.5413 521.097 28.08 521.678 27.744C522.265 27.408 522.931 27.24 523.678 27.24C524.425 27.24 525.091 27.408 525.678 27.744C526.265 28.08 526.726 28.5413 527.062 29.128C527.398 29.7147 527.566 30.3813 527.566 31.128V35.352C527.566 36.0987 527.398 36.7653 527.062 37.352C526.726 37.9333 526.265 38.3947 525.678 38.736C525.091 39.072 524.425 39.24 523.678 39.24ZM523.678 37.872C524.131 37.872 524.542 37.7627 524.91 37.544C525.278 37.3253 525.571 37.032 525.79 36.664C526.009 36.2907 526.118 35.88 526.118 35.432V31.04C526.118 30.5867 526.009 30.176 525.79 29.808C525.571 29.44 525.278 29.1467 524.91 28.928C524.542 28.7093 524.131 28.6 523.678 28.6C523.23 28.6 522.819 28.7093 522.446 28.928C522.078 29.1467 521.785 29.44 521.566 29.808C521.347 30.176 521.238 30.5867 521.238 31.04V35.432C521.238 35.88 521.347 36.2907 521.566 36.664C521.785 37.032 522.078 37.3253 522.446 37.544C522.819 37.7627 523.23 37.872 523.678 37.872ZM533.214 39.24C532.622 39.24 532.07 39.1173 531.558 38.872C531.051 38.6267 530.616 38.2907 530.254 37.864C529.896 37.432 529.64 36.936 529.486 36.376L530.854 36.008C530.95 36.3867 531.12 36.7147 531.366 36.992C531.611 37.264 531.896 37.4773 532.222 37.632C532.552 37.7813 532.896 37.856 533.254 37.856C533.723 37.856 534.144 37.744 534.518 37.52C534.896 37.2907 535.195 36.9893 535.414 36.616C535.632 36.2373 535.742 35.824 535.742 35.376C535.742 34.912 535.627 34.4933 535.398 34.12C535.174 33.7413 534.872 33.4427 534.494 33.224C534.115 33.0053 533.702 32.896 533.254 32.896C532.747 32.896 532.312 33.0027 531.95 33.216C531.592 33.424 531.31 33.68 531.102 33.984L529.838 33.504L530.19 27.48H536.374V28.832H530.878L531.51 28.24L531.214 33.064L530.902 32.656C531.222 32.3147 531.603 32.0507 532.046 31.864C532.494 31.6773 532.95 31.584 533.414 31.584C534.128 31.584 534.768 31.752 535.334 32.088C535.899 32.4187 536.347 32.872 536.678 33.448C537.008 34.0187 537.174 34.6613 537.174 35.376C537.174 36.0853 536.992 36.7333 536.63 37.32C536.267 37.9013 535.784 38.368 535.182 38.72C534.584 39.0667 533.928 39.24 533.214 39.24Z" fill="white"/>
<path d="M43.7165 80V71.502H40.4545V69.92H48.6655V71.502H45.4035V80H43.7165ZM57.8767 80H56.1687V72.895L51.4927 80H49.7847V69.92H51.4927V77.025L56.1687 69.92H57.8767V80ZM59.8335 80V69.92H61.3525L64.8385 77.06L68.3245 69.92H69.8435V80H68.2685V73.539L65.1745 80H64.5025L61.4155 73.539V80H59.8335ZM73.1401 80L74.4701 77.284L70.9911 69.92H72.8951L75.3521 75.506L77.8861 69.92H79.6851L74.9391 80H73.1401ZM80.7241 80V69.92H84.8891C84.9871 69.92 85.1131 69.9247 85.2671 69.934C85.4211 69.9387 85.5635 69.9527 85.6941 69.976C86.2775 70.0647 86.7581 70.2583 87.1361 70.557C87.5188 70.8557 87.8011 71.2337 87.9831 71.691C88.1698 72.1437 88.2631 72.6477 88.2631 73.203C88.2631 73.7537 88.1698 74.2577 87.9831 74.715C87.7965 75.1677 87.5118 75.5433 87.1291 75.842C86.7511 76.1407 86.2728 76.3343 85.6941 76.423C85.5635 76.4417 85.4188 76.4557 85.2601 76.465C85.1061 76.4743 84.9825 76.479 84.8891 76.479H82.4111V80H80.7241ZM82.4111 74.904H84.8191C84.9125 74.904 85.0175 74.8993 85.1341 74.89C85.2508 74.8807 85.3581 74.862 85.4561 74.834C85.7361 74.764 85.9555 74.6403 86.1141 74.463C86.2775 74.2857 86.3918 74.085 86.4571 73.861C86.5271 73.637 86.5621 73.4177 86.5621 73.203C86.5621 72.9883 86.5271 72.769 86.4571 72.545C86.3918 72.3163 86.2775 72.1133 86.1141 71.936C85.9555 71.7587 85.7361 71.635 85.4561 71.565C85.3581 71.537 85.2508 71.5207 85.1341 71.516C85.0175 71.5067 84.9125 71.502 84.8191 71.502H82.4111V74.904ZM32.3295 99.21C31.5782 99.21 30.9062 99.0933 30.3135 98.86C29.7209 98.622 29.2192 98.2673 28.8085 97.796C28.3979 97.32 28.0899 96.7297 27.8845 96.025L29.5365 95.612C29.7232 96.2093 30.0522 96.6947 30.5235 97.068C30.9949 97.4413 31.5619 97.6257 32.2245 97.621C32.6865 97.6117 33.1229 97.5207 33.5335 97.348C33.9489 97.1753 34.2872 96.9093 34.5485 96.55C34.7585 96.284 34.9125 95.9993 35.0105 95.696C35.1085 95.388 35.1762 95.0707 35.2135 94.744H31.6435V93.162H35.2275C35.1529 92.5927 34.9895 92.0933 34.7375 91.664C34.4855 91.23 34.1472 90.894 33.7225 90.656C33.3025 90.4133 32.8032 90.2967 32.2245 90.306C31.5339 90.3107 30.9505 90.502 30.4745 90.88C29.9985 91.258 29.6742 91.769 29.5015 92.413L27.8145 92.175C28.0665 91.0737 28.5845 90.222 29.3685 89.62C30.1525 89.0133 31.1395 88.71 32.3295 88.71C33.3049 88.71 34.1425 88.9317 34.8425 89.375C35.5472 89.8137 36.0885 90.4273 36.4665 91.216C36.8492 92.0047 37.0429 92.9193 37.0475 93.96C37.0522 94.94 36.8679 95.8267 36.4945 96.62C36.1212 97.4133 35.5799 98.0433 34.8705 98.51C34.1659 98.9767 33.3189 99.21 32.3295 99.21ZM37.4773 99V97.586C37.7013 97.6 37.8903 97.5837 38.0443 97.537C38.1983 97.4857 38.3266 97.39 38.4293 97.25C38.5366 97.1053 38.6299 96.9023 38.7093 96.641C38.7886 96.375 38.8656 96.0413 38.9403 95.64C39.0476 95.066 39.1363 94.4687 39.2063 93.848C39.2809 93.2227 39.3439 92.609 39.3953 92.007C39.4466 91.4003 39.4863 90.831 39.5143 90.299C39.5423 89.767 39.5656 89.3073 39.5843 88.92H46.3323V99H44.6453V90.502H41.1453C41.1219 90.8147 41.0939 91.1927 41.0613 91.636C41.0333 92.0747 40.9936 92.5507 40.9423 93.064C40.8956 93.5773 40.8349 94.1093 40.7603 94.66C40.6903 95.2107 40.6039 95.752 40.5013 96.284C40.4079 96.7693 40.2959 97.2057 40.1653 97.593C40.0346 97.9757 39.8596 98.293 39.6403 98.545C39.4256 98.7923 39.1433 98.958 38.7933 99.042C38.4479 99.126 38.0093 99.112 37.4773 99ZM48.2945 99V88.92H54.8045V90.502H49.9815V92.987H53.9645V94.569H49.9815V97.418H54.8045V99H48.2945ZM58.9059 99V90.502H55.6439V88.92H63.8549V90.502H60.5929V99H58.9059ZM64.9741 99V88.92H71.4841V90.502H66.6611V92.987H70.6441V94.569H66.6611V97.418H71.4841V99H64.9741ZM73.1636 99V88.92H74.8506V93.162H79.6246V88.92H81.3046V99H79.6246V94.744H74.8506V99H73.1636ZM87.5301 99.21C86.5221 99.21 85.6588 98.9907 84.9401 98.552C84.2214 98.1087 83.6684 97.4927 83.2811 96.704C82.8984 95.9153 82.7071 95.0007 82.7071 93.96C82.7071 92.9193 82.8984 92.0047 83.2811 91.216C83.6684 90.4273 84.2214 89.8137 84.9401 89.375C85.6588 88.9317 86.5221 88.71 87.5301 88.71C88.5381 88.71 89.4014 88.9317 90.1201 89.375C90.8434 89.8137 91.3964 90.4273 91.7791 91.216C92.1664 92.0047 92.3601 92.9193 92.3601 93.96C92.3601 95.0007 92.1664 95.9153 91.7791 96.704C91.3964 97.4927 90.8434 98.1087 90.1201 98.552C89.4014 98.9907 88.5381 99.21 87.5301 99.21ZM87.5301 97.621C88.2068 97.6257 88.7691 97.4763 89.2171 97.173C89.6698 96.8697 90.0081 96.4427 90.2321 95.892C90.4608 95.3413 90.5751 94.6973 90.5751 93.96C90.5751 93.2227 90.4608 92.5833 90.2321 92.042C90.0081 91.496 89.6698 91.0713 89.2171 90.768C88.7691 90.4647 88.2068 90.3083 87.5301 90.299C86.8534 90.2943 86.2911 90.4437 85.8431 90.747C85.3951 91.0503 85.0568 91.4773 84.8281 92.028C84.6041 92.5787 84.4921 93.2227 84.4921 93.96C84.4921 94.6973 84.6041 95.339 84.8281 95.885C85.0521 96.4263 85.3881 96.8487 85.8361 97.152C86.2888 97.4553 86.8534 97.6117 87.5301 97.621ZM93.7534 99V88.92H97.7504C98.4318 88.92 98.9894 89.0577 99.4234 89.333C99.8621 89.6037 100.186 89.9513 100.396 90.376C100.611 90.8007 100.718 91.2393 100.718 91.692C100.718 92.2473 100.585 92.7187 100.319 93.106C100.058 93.4933 99.7011 93.7547 99.2484 93.89V93.54C99.8831 93.6847 100.364 93.9857 100.69 94.443C101.022 94.9003 101.187 95.4207 101.187 96.004C101.187 96.6013 101.073 97.124 100.844 97.572C100.616 98.02 100.275 98.37 99.8224 98.622C99.3744 98.874 98.8191 99 98.1564 99H93.7534ZM95.4614 97.411H97.9464C98.2404 97.411 98.5041 97.3527 98.7374 97.236C98.9708 97.1147 99.1528 96.9467 99.2834 96.732C99.4188 96.5127 99.4864 96.2537 99.4864 95.955C99.4864 95.6843 99.4281 95.4417 99.3114 95.227C99.1948 95.0123 99.0244 94.842 98.8004 94.716C98.5764 94.5853 98.3081 94.52 97.9954 94.52H95.4614V97.411ZM95.4614 92.945H97.7294C97.9721 92.945 98.1891 92.8983 98.3804 92.805C98.5718 92.7117 98.7234 92.574 98.8354 92.392C98.9474 92.21 99.0034 91.986 99.0034 91.72C99.0034 91.37 98.8914 91.0783 98.6674 90.845C98.4434 90.6117 98.1308 90.495 97.7294 90.495H95.4614V92.945Z" fill="#222222"/>
<path d="M151.404 80L154.582 69.92H157.053L160.231 80H158.495L155.611 70.956H155.989L153.14 80H151.404ZM153.175 77.816V76.241H158.467V77.816H153.175ZM161.497 80V69.92H163.205V77.025L167.881 69.92H169.589V80H167.881V72.895L163.205 80H161.497ZM165.536 69.066C165.144 69.066 164.787 68.9703 164.465 68.779C164.147 68.5877 163.893 68.3333 163.702 68.016C163.51 67.694 163.415 67.337 163.415 66.945H164.731C164.731 67.169 164.808 67.3603 164.962 67.519C165.12 67.673 165.312 67.75 165.536 67.75C165.76 67.75 165.949 67.673 166.103 67.519C166.261 67.3603 166.341 67.169 166.341 66.945H167.657C167.657 67.337 167.561 67.694 167.37 68.016C167.178 68.3333 166.922 68.5877 166.6 68.779C166.278 68.9703 165.923 69.066 165.536 69.066ZM171.545 80V69.92H179.714V80H178.027V71.502H173.232V80H171.545ZM181.676 80V69.92H188.186V71.502H183.363V73.987H187.346V75.569H183.363V78.418H188.186V80H181.676ZM189.866 80V69.92H194.031C194.129 69.92 194.255 69.9247 194.409 69.934C194.563 69.9387 194.705 69.9527 194.836 69.976C195.419 70.0647 195.9 70.2583 196.278 70.557C196.66 70.8557 196.943 71.2337 197.125 71.691C197.311 72.1437 197.405 72.6477 197.405 73.203C197.405 73.7537 197.311 74.2577 197.125 74.715C196.938 75.1677 196.653 75.5433 196.271 75.842C195.893 76.1407 195.414 76.3343 194.836 76.423C194.705 76.4417 194.56 76.4557 194.402 76.465C194.248 76.4743 194.124 76.479 194.031 76.479H191.553V80H189.866ZM191.553 74.904H193.961C194.054 74.904 194.159 74.8993 194.276 74.89C194.392 74.8807 194.5 74.862 194.598 74.834C194.878 74.764 195.097 74.6403 195.256 74.463C195.419 74.2857 195.533 74.085 195.599 73.861C195.669 73.637 195.704 73.4177 195.704 73.203C195.704 72.9883 195.669 72.769 195.599 72.545C195.533 72.3163 195.419 72.1133 195.256 71.936C195.097 71.7587 194.878 71.635 194.598 71.565C194.5 71.537 194.392 71.5207 194.276 71.516C194.159 71.5067 194.054 71.502 193.961 71.502H191.553V74.904ZM206.899 80H205.191V72.895L200.515 80H198.807V69.92H200.515V77.025L205.191 69.92H206.899V80ZM131.388 99L134.566 88.92H137.037L140.215 99H138.479L135.595 89.956H135.973L133.124 99H131.388ZM133.159 96.816V95.241H138.451V96.816H133.159ZM141.481 99V88.92H148.222V90.502H143.168V92.672H145.646C145.739 92.672 145.863 92.6767 146.017 92.686C146.176 92.6907 146.32 92.7 146.451 92.714C147.016 92.7793 147.487 92.959 147.865 93.253C148.248 93.547 148.535 93.918 148.726 94.366C148.922 94.814 149.02 95.304 149.02 95.836C149.02 96.368 148.924 96.8603 148.733 97.313C148.542 97.761 148.255 98.132 147.872 98.426C147.494 98.7153 147.02 98.8927 146.451 98.958C146.32 98.972 146.178 98.9837 146.024 98.993C145.87 98.9977 145.744 99 145.646 99H141.481ZM143.168 97.418H145.576C145.669 97.418 145.774 97.4133 145.891 97.404C146.008 97.3947 146.115 97.3807 146.213 97.362C146.633 97.2733 146.922 97.0773 147.081 96.774C147.24 96.4707 147.319 96.158 147.319 95.836C147.319 95.5093 147.24 95.1967 147.081 94.898C146.922 94.5947 146.633 94.3987 146.213 94.31C146.115 94.2867 146.008 94.2727 145.891 94.268C145.774 94.2587 145.669 94.254 145.576 94.254H143.168V97.418ZM149.186 100.68V97.418C149.513 97.418 149.786 97.3363 150.005 97.173C150.224 97.0097 150.399 96.7833 150.53 96.494C150.665 96.2047 150.77 95.8687 150.845 95.486C150.92 95.0987 150.978 94.688 151.02 94.254C151.071 93.68 151.116 93.1177 151.153 92.567C151.19 92.0117 151.225 91.4377 151.258 90.845C151.295 90.2477 151.337 89.6013 151.384 88.906L157.957 88.92V97.418H158.713V100.68H157.033V99H150.873V100.68H149.186ZM151.811 97.418H156.27V90.502L152.924 90.488C152.891 90.978 152.863 91.4353 152.84 91.86C152.821 92.28 152.796 92.707 152.763 93.141C152.735 93.575 152.695 94.0487 152.644 94.562C152.597 95.066 152.546 95.486 152.49 95.822C152.439 96.158 152.362 96.4497 152.259 96.697C152.156 96.9397 152.007 97.18 151.811 97.418ZM160.238 99V88.92H161.925V92.441H164.403C164.497 92.441 164.623 92.4457 164.781 92.455C164.94 92.4597 165.085 92.4737 165.215 92.497C165.794 92.5857 166.272 92.7793 166.65 93.078C167.033 93.3767 167.315 93.7547 167.497 94.212C167.684 94.6647 167.777 95.1663 167.777 95.717C167.777 96.2723 167.684 96.7787 167.497 97.236C167.315 97.6887 167.033 98.0643 166.65 98.363C166.272 98.6617 165.794 98.8553 165.215 98.944C165.085 98.9627 164.94 98.9767 164.781 98.986C164.627 98.9953 164.501 99 164.403 99H160.238ZM161.925 97.418H164.333C164.431 97.418 164.536 97.4133 164.648 97.404C164.765 97.3947 164.875 97.3783 164.977 97.355C165.253 97.285 165.47 97.1613 165.628 96.984C165.792 96.8067 165.906 96.606 165.971 96.382C166.041 96.1533 166.076 95.9317 166.076 95.717C166.076 95.5023 166.041 95.283 165.971 95.059C165.906 94.835 165.792 94.6343 165.628 94.457C165.47 94.2797 165.253 94.156 164.977 94.086C164.875 94.058 164.765 94.0393 164.648 94.03C164.536 94.0207 164.431 94.016 164.333 94.016H161.925V97.418ZM168.785 99V88.92H170.472V99H168.785ZM171.72 99V97.586C171.944 97.6 172.133 97.5837 172.287 97.537C172.441 97.4857 172.57 97.39 172.672 97.25C172.78 97.1053 172.873 96.9023 172.952 96.641C173.032 96.375 173.109 96.0413 173.183 95.64C173.291 95.066 173.379 94.4687 173.449 93.848C173.524 93.2227 173.587 92.609 173.638 92.007C173.69 91.4003 173.729 90.831 173.757 90.299C173.785 89.767 173.809 89.3073 173.827 88.92H180.575V99H178.888V90.502H175.388C175.365 90.8147 175.337 91.1927 175.304 91.636C175.276 92.0747 175.237 92.5507 175.185 93.064C175.139 93.5773 175.078 94.1093 175.003 94.66C174.933 95.2107 174.847 95.752 174.744 96.284C174.651 96.7693 174.539 97.2057 174.408 97.593C174.278 97.9757 174.103 98.293 173.883 98.545C173.669 98.7923 173.386 98.958 173.036 99.042C172.691 99.126 172.252 99.112 171.72 99ZM181.999 100.68V97.418C182.325 97.418 182.598 97.3363 182.818 97.173C183.037 97.0097 183.212 96.7833 183.343 96.494C183.478 96.2047 183.583 95.8687 183.658 95.486C183.732 95.0987 183.791 94.688 183.833 94.254C183.884 93.68 183.928 93.1177 183.966 92.567C184.003 92.0117 184.038 91.4377 184.071 90.845C184.108 90.2477 184.15 89.6013 184.197 88.906L190.77 88.92V97.418H191.526V100.68H189.846V99H183.686V100.68H181.999ZM184.624 97.418H189.083V90.502L185.737 90.488C185.704 90.978 185.676 91.4353 185.653 91.86C185.634 92.28 185.608 92.707 185.576 93.141C185.548 93.575 185.508 94.0487 185.457 94.562C185.41 95.066 185.359 95.486 185.303 95.822C185.251 96.158 185.174 96.4497 185.072 96.697C184.969 96.9397 184.82 97.18 184.624 97.418ZM192.365 99L195.543 88.92H198.014L201.192 99H199.456L196.572 89.956H196.95L194.101 99H192.365ZM194.136 96.816V95.241H199.428V96.816H194.136ZM202.458 99V88.92H208.968V90.502H204.145V92.987H208.128V94.569H204.145V97.418H208.968V99H202.458ZM210.647 99V88.92H214.644C215.325 88.92 215.883 89.0577 216.317 89.333C216.756 89.6037 217.08 89.9513 217.29 90.376C217.505 90.8007 217.612 91.2393 217.612 91.692C217.612 92.2473 217.479 92.7187 217.213 93.106C216.952 93.4933 216.595 93.7547 216.142 93.89V93.54C216.777 93.6847 217.257 93.9857 217.584 94.443C217.915 94.9003 218.081 95.4207 218.081 96.004C218.081 96.6013 217.967 97.124 217.738 97.572C217.509 98.02 217.169 98.37 216.716 98.622C216.268 98.874 215.713 99 215.05 99H210.647ZM212.355 97.411H214.84C215.134 97.411 215.398 97.3527 215.631 97.236C215.864 97.1147 216.046 96.9467 216.177 96.732C216.312 96.5127 216.38 96.2537 216.38 95.955C216.38 95.6843 216.322 95.4417 216.205 95.227C216.088 95.0123 215.918 94.842 215.694 94.716C215.47 94.5853 215.202 94.52 214.889 94.52H212.355V97.411ZM212.355 92.945H214.623C214.866 92.945 215.083 92.8983 215.274 92.805C215.465 92.7117 215.617 92.574 215.729 92.392C215.841 92.21 215.897 91.986 215.897 91.72C215.897 91.37 215.785 91.0783 215.561 90.845C215.337 90.6117 215.024 90.495 214.623 90.495H212.355V92.945ZM218.779 99L221.957 88.92H224.428L227.606 99H225.87L222.986 89.956H223.364L220.515 99H218.779ZM220.55 96.816V95.241H225.842V96.816H220.55Z" fill="#222222"/>
<path d="M272.705 79V68.92H279.446V70.502H274.392V72.672H276.87C276.963 72.672 277.087 72.6767 277.241 72.686C277.399 72.6907 277.544 72.7 277.675 72.714C278.239 72.7793 278.711 72.959 279.089 73.253C279.471 73.547 279.758 73.918 279.95 74.366C280.146 74.814 280.244 75.304 280.244 75.836C280.244 76.368 280.148 76.8603 279.957 77.313C279.765 77.761 279.478 78.132 279.096 78.426C278.718 78.7153 278.244 78.8927 277.675 78.958C277.544 78.972 277.402 78.9837 277.248 78.993C277.094 78.9977 276.968 79 276.87 79H272.705ZM274.392 77.418H276.8C276.893 77.418 276.998 77.4133 277.115 77.404C277.231 77.3947 277.339 77.3807 277.437 77.362C277.857 77.2733 278.146 77.0773 278.305 76.774C278.463 76.4707 278.543 76.158 278.543 75.836C278.543 75.5093 278.463 75.1967 278.305 74.898C278.146 74.5947 277.857 74.3987 277.437 74.31C277.339 74.2867 277.231 74.2727 277.115 74.268C276.998 74.2587 276.893 74.254 276.8 74.254H274.392V77.418ZM285.909 79.21C284.901 79.21 284.038 78.9907 283.319 78.552C282.6 78.1087 282.047 77.4927 281.66 76.704C281.277 75.9153 281.086 75.0007 281.086 73.96C281.086 72.9193 281.277 72.0047 281.66 71.216C282.047 70.4273 282.6 69.8137 283.319 69.375C284.038 68.9317 284.901 68.71 285.909 68.71C286.917 68.71 287.78 68.9317 288.499 69.375C289.222 69.8137 289.775 70.4273 290.158 71.216C290.545 72.0047 290.739 72.9193 290.739 73.96C290.739 75.0007 290.545 75.9153 290.158 76.704C289.775 77.4927 289.222 78.1087 288.499 78.552C287.78 78.9907 286.917 79.21 285.909 79.21ZM285.909 77.621C286.586 77.6257 287.148 77.4763 287.596 77.173C288.049 76.8697 288.387 76.4427 288.611 75.892C288.84 75.3413 288.954 74.6973 288.954 73.96C288.954 73.2227 288.84 72.5833 288.611 72.042C288.387 71.496 288.049 71.0713 287.596 70.768C287.148 70.4647 286.586 70.3083 285.909 70.299C285.232 70.2943 284.67 70.4437 284.222 70.747C283.774 71.0503 283.436 71.4773 283.207 72.028C282.983 72.5787 282.871 73.2227 282.871 73.96C282.871 74.6973 282.983 75.339 283.207 75.885C283.431 76.4263 283.767 76.8487 284.215 77.152C284.668 77.4553 285.232 77.6117 285.909 77.621ZM291.159 79V77.586C291.383 77.6 291.572 77.5837 291.726 77.537C291.88 77.4857 292.008 77.39 292.111 77.25C292.218 77.1053 292.312 76.9023 292.391 76.641C292.47 76.375 292.547 76.0413 292.622 75.64C292.729 75.066 292.818 74.4687 292.888 73.848C292.963 73.2227 293.026 72.609 293.077 72.007C293.128 71.4003 293.168 70.831 293.196 70.299C293.224 69.767 293.247 69.3073 293.266 68.92H300.014V79H298.327V70.502H294.827C294.804 70.8147 294.776 71.1927 294.743 71.636C294.715 72.0747 294.675 72.5507 294.624 73.064C294.577 73.5773 294.517 74.1093 294.442 74.66C294.372 75.2107 294.286 75.752 294.183 76.284C294.09 76.7693 293.978 77.2057 293.847 77.593C293.716 77.9757 293.541 78.293 293.322 78.545C293.107 78.7923 292.825 78.958 292.475 79.042C292.13 79.126 291.691 79.112 291.159 79ZM306.239 79.21C305.231 79.21 304.368 78.9907 303.649 78.552C302.93 78.1087 302.377 77.4927 301.99 76.704C301.607 75.9153 301.416 75.0007 301.416 73.96C301.416 72.9193 301.607 72.0047 301.99 71.216C302.377 70.4273 302.93 69.8137 303.649 69.375C304.368 68.9317 305.231 68.71 306.239 68.71C307.247 68.71 308.11 68.9317 308.829 69.375C309.552 69.8137 310.105 70.4273 310.488 71.216C310.875 72.0047 311.069 72.9193 311.069 73.96C311.069 75.0007 310.875 75.9153 310.488 76.704C310.105 77.4927 309.552 78.1087 308.829 78.552C308.11 78.9907 307.247 79.21 306.239 79.21ZM306.239 77.621C306.916 77.6257 307.478 77.4763 307.926 77.173C308.379 76.8697 308.717 76.4427 308.941 75.892C309.17 75.3413 309.284 74.6973 309.284 73.96C309.284 73.2227 309.17 72.5833 308.941 72.042C308.717 71.496 308.379 71.0713 307.926 70.768C307.478 70.4647 306.916 70.3083 306.239 70.299C305.562 70.2943 305 70.4437 304.552 70.747C304.104 71.0503 303.766 71.4773 303.537 72.028C303.313 72.5787 303.201 73.2227 303.201 73.96C303.201 74.6973 303.313 75.339 303.537 75.885C303.761 76.4263 304.097 76.8487 304.545 77.152C304.998 77.4553 305.562 77.6117 306.239 77.621ZM314.611 79V70.502H311.349V68.92H319.56V70.502H316.298V79H314.611ZM252.689 98V87.92H254.376V92.596L258.401 87.92H260.473L256.14 92.862L260.767 98H258.625L254.376 93.296V98H252.689ZM261.053 98L264.231 87.92H266.702L269.88 98H268.144L265.26 88.956H265.638L262.789 98H261.053ZM262.824 95.816V94.241H268.116V95.816H262.824ZM270.884 98V96.586C271.108 96.6 271.297 96.5837 271.451 96.537C271.605 96.4857 271.733 96.39 271.836 96.25C271.943 96.1053 272.036 95.9023 272.116 95.641C272.195 95.375 272.272 95.0413 272.347 94.64C272.454 94.066 272.543 93.4687 272.613 92.848C272.687 92.2227 272.75 91.609 272.802 91.007C272.853 90.4003 272.893 89.831 272.921 89.299C272.949 88.767 272.972 88.3073 272.991 87.92H279.739V98H278.052V89.502H274.552C274.528 89.8147 274.5 90.1927 274.468 90.636C274.44 91.0747 274.4 91.5507 274.349 92.064C274.302 92.5773 274.241 93.1093 274.167 93.66C274.097 94.2107 274.01 94.752 273.908 95.284C273.814 95.7693 273.702 96.2057 273.572 96.593C273.441 96.9757 273.266 97.293 273.047 97.545C272.832 97.7923 272.55 97.958 272.2 98.042C271.854 98.126 271.416 98.112 270.884 98ZM289.793 98H288.085V90.895L283.409 98H281.701V87.92H283.409V95.025L288.085 87.92H289.793V98ZM291.05 98V96.586C291.274 96.6 291.463 96.5837 291.617 96.537C291.771 96.4857 291.899 96.39 292.002 96.25C292.109 96.1053 292.202 95.9023 292.282 95.641C292.361 95.375 292.438 95.0413 292.513 94.64C292.62 94.066 292.709 93.4687 292.779 92.848C292.853 92.2227 292.916 91.609 292.968 91.007C293.019 90.4003 293.059 89.831 293.087 89.299C293.115 88.767 293.138 88.3073 293.157 87.92H299.905V98H298.218V89.502H294.718C294.694 89.8147 294.666 90.1927 294.634 90.636C294.606 91.0747 294.566 91.5507 294.515 92.064C294.468 92.5773 294.407 93.1093 294.333 93.66C294.263 94.2107 294.176 94.752 294.074 95.284C293.98 95.7693 293.868 96.2057 293.738 96.593C293.607 96.9757 293.432 97.293 293.213 97.545C292.998 97.7923 292.716 97.958 292.366 98.042C292.02 98.126 291.582 98.112 291.05 98ZM305.999 98L307.329 95.284L303.85 87.92H305.754L308.211 93.506L310.745 87.92H312.544L307.798 98H305.999ZM314.64 98L315.97 95.284L312.491 87.92H314.395L316.852 93.506L319.386 87.92H321.185L316.439 98H314.64ZM320.54 98V96.586C320.764 96.6 320.953 96.5837 321.107 96.537C321.261 96.4857 321.389 96.39 321.492 96.25C321.599 96.1053 321.692 95.9023 321.772 95.641C321.851 95.375 321.928 95.0413 322.003 94.64C322.11 94.066 322.199 93.4687 322.269 92.848C322.343 92.2227 322.406 91.609 322.458 91.007C322.509 90.4003 322.549 89.831 322.577 89.299C322.605 88.767 322.628 88.3073 322.647 87.92H329.395V98H327.708V89.502H324.208C324.184 89.8147 324.156 90.1927 324.124 90.636C324.096 91.0747 324.056 91.5507 324.005 92.064C323.958 92.5773 323.897 93.1093 323.823 93.66C323.753 94.2107 323.666 94.752 323.564 95.284C323.47 95.7693 323.358 96.2057 323.228 96.593C323.097 96.9757 322.922 97.293 322.703 97.545C322.488 97.7923 322.206 97.958 321.856 98.042C321.51 98.126 321.072 98.112 320.54 98ZM332.687 98L334.017 95.284L330.538 87.92H332.442L334.899 93.506L337.433 87.92H339.232L334.486 98H332.687Z" fill="#222222"/>
<path d="M377.596 80H375.888V72.895L371.212 80H369.504V69.92H371.212V77.025L375.888 69.92H377.596V80ZM379.553 80V69.92H381.072L384.558 77.06L388.044 69.92H389.563V80H387.988V73.539L384.894 80H384.222L381.135 73.539V80H379.553ZM390.83 80L394.008 69.92H396.479L399.657 80H397.921L395.037 70.956H395.415L392.566 80H390.83ZM392.601 77.816V76.241H397.893V77.816H392.601ZM400.922 80V69.92H402.609V74.162H407.383V69.92H409.063V80H407.383V75.744H402.609V80H400.922ZM411.026 80V69.92H412.713V74.596L416.738 69.92H418.81L414.477 74.862L419.104 80H416.962L412.713 75.296V80H411.026ZM421.42 80L422.75 77.284L419.271 69.92H421.175L423.632 75.506L426.166 69.92H427.965L423.219 80H421.42ZM427.32 80V78.586C427.544 78.6 427.733 78.5837 427.887 78.537C428.041 78.4857 428.169 78.39 428.272 78.25C428.379 78.1053 428.473 77.9023 428.552 77.641C428.631 77.375 428.708 77.0413 428.783 76.64C428.89 76.066 428.979 75.4687 429.049 74.848C429.124 74.2227 429.187 73.609 429.238 73.007C429.289 72.4003 429.329 71.831 429.357 71.299C429.385 70.767 429.408 70.3073 429.427 69.92H436.175V80H434.488V71.502H430.988C430.965 71.8147 430.937 72.1927 430.904 72.636C430.876 73.0747 430.836 73.5507 430.785 74.064C430.738 74.5773 430.678 75.1093 430.603 75.66C430.533 76.2107 430.447 76.752 430.344 77.284C430.251 77.7693 430.139 78.2057 430.008 78.593C429.877 78.9757 429.702 79.293 429.483 79.545C429.268 79.7923 428.986 79.958 428.636 80.042C428.291 80.126 427.852 80.112 427.32 80ZM442.4 80.21C441.392 80.21 440.529 79.9907 439.81 79.552C439.092 79.1087 438.539 78.4927 438.151 77.704C437.769 76.9153 437.577 76.0007 437.577 74.96C437.577 73.9193 437.769 73.0047 438.151 72.216C438.539 71.4273 439.092 70.8137 439.81 70.375C440.529 69.9317 441.392 69.71 442.4 69.71C443.408 69.71 444.272 69.9317 444.99 70.375C445.714 70.8137 446.267 71.4273 446.649 72.216C447.037 73.0047 447.23 73.9193 447.23 74.96C447.23 76.0007 447.037 76.9153 446.649 77.704C446.267 78.4927 445.714 79.1087 444.99 79.552C444.272 79.9907 443.408 80.21 442.4 80.21ZM442.4 78.621C443.077 78.6257 443.639 78.4763 444.087 78.173C444.54 77.8697 444.878 77.4427 445.102 76.892C445.331 76.3413 445.445 75.6973 445.445 74.96C445.445 74.2227 445.331 73.5833 445.102 73.042C444.878 72.496 444.54 72.0713 444.087 71.768C443.639 71.4647 443.077 71.3083 442.4 71.299C441.724 71.2943 441.161 71.4437 440.713 71.747C440.265 72.0503 439.927 72.4773 439.698 73.028C439.474 73.5787 439.362 74.2227 439.362 74.96C439.362 75.6973 439.474 76.339 439.698 76.885C439.922 77.4263 440.258 77.8487 440.706 78.152C441.159 78.4553 441.724 78.6117 442.4 78.621ZM448.624 80V69.92H452.621C453.302 69.92 453.86 70.0577 454.294 70.333C454.732 70.6037 455.057 70.9513 455.267 71.376C455.481 71.8007 455.589 72.2393 455.589 72.692C455.589 73.2473 455.456 73.7187 455.19 74.106C454.928 74.4933 454.571 74.7547 454.119 74.89V74.54C454.753 74.6847 455.234 74.9857 455.561 75.443C455.892 75.9003 456.058 76.4207 456.058 77.004C456.058 77.6013 455.943 78.124 455.715 78.572C455.486 79.02 455.145 79.37 454.693 79.622C454.245 79.874 453.689 80 453.027 80H448.624ZM450.332 78.411H452.817C453.111 78.411 453.374 78.3527 453.608 78.236C453.841 78.1147 454.023 77.9467 454.154 77.732C454.289 77.5127 454.357 77.2537 454.357 76.955C454.357 76.6843 454.298 76.4417 454.182 76.227C454.065 76.0123 453.895 75.842 453.671 75.716C453.447 75.5853 453.178 75.52 452.866 75.52H450.332V78.411ZM450.332 73.945H452.6C452.842 73.945 453.059 73.8983 453.251 73.805C453.442 73.7117 453.594 73.574 453.706 73.392C453.818 73.21 453.874 72.986 453.874 72.72C453.874 72.37 453.762 72.0783 453.538 71.845C453.314 71.6117 453.001 71.495 452.6 71.495H450.332V73.945ZM384.229 99V88.92H390.97V90.502H385.916V92.672H388.394C388.487 92.672 388.611 92.6767 388.765 92.686C388.924 92.6907 389.068 92.7 389.199 92.714C389.764 92.7793 390.235 92.959 390.613 93.253C390.996 93.547 391.283 93.918 391.474 94.366C391.67 94.814 391.768 95.304 391.768 95.836C391.768 96.368 391.672 96.8603 391.481 97.313C391.29 97.761 391.003 98.132 390.62 98.426C390.242 98.7153 389.768 98.8927 389.199 98.958C389.068 98.972 388.926 98.9837 388.772 98.993C388.618 98.9977 388.492 99 388.394 99H384.229ZM385.916 97.418H388.324C388.417 97.418 388.522 97.4133 388.639 97.404C388.756 97.3947 388.863 97.3807 388.961 97.362C389.381 97.2733 389.67 97.0773 389.829 96.774C389.988 96.4707 390.067 96.158 390.067 95.836C390.067 95.5093 389.988 95.1967 389.829 94.898C389.67 94.5947 389.381 94.3987 388.961 94.31C388.863 94.2867 388.756 94.2727 388.639 94.268C388.522 94.2587 388.417 94.254 388.324 94.254H385.916V97.418ZM393.17 99V88.92H399.68V90.502H394.857V92.987H398.84V94.569H394.857V97.418H399.68V99H393.17ZM401.36 99V88.92H403.047V93.596L407.072 88.92H409.144L404.811 93.862L409.438 99H407.296L403.047 94.296V99H401.36ZM409.584 99L413.378 93.862L409.878 88.92H411.894L415.009 93.477V88.92H416.696V93.477L419.811 88.92H421.827L418.327 93.862L422.121 99H420.042L416.696 94.415V99H415.009V94.415L411.67 99H409.584ZM422.535 99L425.713 88.92H428.184L431.362 99H429.626L426.742 89.956H427.12L424.271 99H422.535ZM424.306 96.816V95.241H429.598V96.816H424.306ZM432.627 99V88.92H434.314V93.162H439.088V88.92H440.768V99H439.088V94.744H434.314V99H432.627Z" fill="#222222"/>
<path d="M493.187 79V68.92H494.874V73.596L498.899 68.92H500.971L496.638 73.862L501.265 79H499.123L494.874 74.296V79H493.187ZM501.552 79L504.73 68.92H507.201L510.379 79H508.643L505.759 69.956H506.137L503.288 79H501.552ZM503.323 76.816V75.241H508.615V76.816H503.323ZM515.634 79.21C514.626 79.21 513.762 78.9907 513.044 78.552C512.325 78.1087 511.772 77.4927 511.385 76.704C511.002 75.9153 510.811 75.0007 510.811 73.96C510.811 72.9193 511.002 72.0047 511.385 71.216C511.772 70.4273 512.325 69.8137 513.044 69.375C513.762 68.9317 514.626 68.71 515.634 68.71C516.796 68.71 517.764 69.0017 518.539 69.585C519.313 70.1637 519.857 70.9453 520.17 71.93L518.469 72.399C518.273 71.741 517.939 71.2277 517.468 70.859C516.996 70.4857 516.385 70.299 515.634 70.299C514.957 70.299 514.392 70.4507 513.94 70.754C513.492 71.0573 513.153 71.4843 512.925 72.035C512.701 72.581 512.586 73.2227 512.582 73.96C512.582 74.6973 512.694 75.3413 512.918 75.892C513.146 76.438 513.487 76.8627 513.94 77.166C514.392 77.4693 514.957 77.621 515.634 77.621C516.385 77.621 516.996 77.4343 517.468 77.061C517.939 76.6877 518.273 76.1743 518.469 75.521L520.17 75.99C519.857 76.9747 519.313 77.7587 518.539 78.342C517.764 78.9207 516.796 79.21 515.634 79.21ZM521.693 79V68.92H523.38V72.441H525.858C525.951 72.441 526.077 72.4457 526.236 72.455C526.394 72.4597 526.539 72.4737 526.67 72.497C527.248 72.5857 527.727 72.7793 528.105 73.078C528.487 73.3767 528.77 73.7547 528.952 74.212C529.138 74.6647 529.232 75.1663 529.232 75.717C529.232 76.2723 529.138 76.7787 528.952 77.236C528.77 77.6887 528.487 78.0643 528.105 78.363C527.727 78.6617 527.248 78.8553 526.67 78.944C526.539 78.9627 526.394 78.9767 526.236 78.986C526.082 78.9953 525.956 79 525.858 79H521.693ZM523.38 77.418H525.788C525.886 77.418 525.991 77.4133 526.103 77.404C526.219 77.3947 526.329 77.3783 526.432 77.355C526.707 77.285 526.924 77.1613 527.083 76.984C527.246 76.8067 527.36 76.606 527.426 76.382C527.496 76.1533 527.531 75.9317 527.531 75.717C527.531 75.5023 527.496 75.283 527.426 75.059C527.36 74.835 527.246 74.6343 527.083 74.457C526.924 74.2797 526.707 74.156 526.432 74.086C526.329 74.058 526.219 74.0393 526.103 74.03C525.991 74.0207 525.886 74.016 525.788 74.016H523.38V77.418ZM530.24 79V68.92H531.927V79H530.24ZM533.875 79V68.92H535.394L538.88 76.06L542.366 68.92H543.885V79H542.31V72.539L539.216 79H538.544L535.457 72.539V79H533.875ZM550.114 79.21C549.106 79.21 548.243 78.9907 547.524 78.552C546.806 78.1087 546.253 77.4927 545.865 76.704C545.483 75.9153 545.291 75.0007 545.291 73.96C545.291 72.9193 545.483 72.0047 545.865 71.216C546.253 70.4273 546.806 69.8137 547.524 69.375C548.243 68.9317 549.106 68.71 550.114 68.71C551.122 68.71 551.986 68.9317 552.704 69.375C553.428 69.8137 553.981 70.4273 554.363 71.216C554.751 72.0047 554.944 72.9193 554.944 73.96C554.944 75.0007 554.751 75.9153 554.363 76.704C553.981 77.4927 553.428 78.1087 552.704 78.552C551.986 78.9907 551.122 79.21 550.114 79.21ZM550.114 77.621C550.791 77.6257 551.353 77.4763 551.801 77.173C552.254 76.8697 552.592 76.4427 552.816 75.892C553.045 75.3413 553.159 74.6973 553.159 73.96C553.159 73.2227 553.045 72.5833 552.816 72.042C552.592 71.496 552.254 71.0713 551.801 70.768C551.353 70.4647 550.791 70.3083 550.114 70.299C549.438 70.2943 548.875 70.4437 548.427 70.747C547.979 71.0503 547.641 71.4773 547.412 72.028C547.188 72.5787 547.076 73.2227 547.076 73.96C547.076 74.6973 547.188 75.339 547.412 75.885C547.636 76.4263 547.972 76.8487 548.42 77.152C548.873 77.4553 549.438 77.6117 550.114 77.621ZM556.338 79V68.92H560.335C561.016 68.92 561.574 69.0577 562.008 69.333C562.446 69.6037 562.771 69.9513 562.981 70.376C563.195 70.8007 563.303 71.2393 563.303 71.692C563.303 72.2473 563.17 72.7187 562.904 73.106C562.642 73.4933 562.285 73.7547 561.833 73.89V73.54C562.467 73.6847 562.948 73.9857 563.275 74.443C563.606 74.9003 563.772 75.4207 563.772 76.004C563.772 76.6013 563.657 77.124 563.429 77.572C563.2 78.02 562.859 78.37 562.407 78.622C561.959 78.874 561.403 79 560.741 79H556.338ZM558.046 77.411H560.531C560.825 77.411 561.088 77.3527 561.322 77.236C561.555 77.1147 561.737 76.9467 561.868 76.732C562.003 76.5127 562.071 76.2537 562.071 75.955C562.071 75.6843 562.012 75.4417 561.896 75.227C561.779 75.0123 561.609 74.842 561.385 74.716C561.161 74.5853 560.892 74.52 560.58 74.52H558.046V77.411ZM558.046 72.945H560.314C560.556 72.945 560.773 72.8983 560.965 72.805C561.156 72.7117 561.308 72.574 561.42 72.392C561.532 72.21 561.588 71.986 561.588 71.72C561.588 71.37 561.476 71.0783 561.252 70.845C561.028 70.6117 560.715 70.495 560.314 70.495H558.046V72.945ZM499.237 98V87.92H500.756L504.242 95.06L507.728 87.92H509.247V98H507.672V91.539L504.578 98H503.906L500.819 91.539V98H499.237ZM519.306 98H517.598V90.895L512.922 98H511.214V87.92H512.922V95.025L517.598 87.92H519.306V98ZM521.262 98V87.92H525.427C525.525 87.92 525.651 87.9247 525.805 87.934C525.959 87.9387 526.102 87.9527 526.232 87.976C526.816 88.0647 527.296 88.2583 527.674 88.557C528.057 88.8557 528.339 89.2337 528.521 89.691C528.708 90.1437 528.801 90.6477 528.801 91.203C528.801 91.7537 528.708 92.2577 528.521 92.715C528.335 93.1677 528.05 93.5433 527.667 93.842C527.289 94.1407 526.811 94.3343 526.232 94.423C526.102 94.4417 525.957 94.4557 525.798 94.465C525.644 94.4743 525.521 94.479 525.427 94.479H522.949V98H521.262ZM522.949 92.904H525.357C525.451 92.904 525.556 92.8993 525.672 92.89C525.789 92.8807 525.896 92.862 525.994 92.834C526.274 92.764 526.494 92.6403 526.652 92.463C526.816 92.2857 526.93 92.085 526.995 91.861C527.065 91.637 527.1 91.4177 527.1 91.203C527.1 90.9883 527.065 90.769 526.995 90.545C526.93 90.3163 526.816 90.1133 526.652 89.936C526.494 89.7587 526.274 89.635 525.994 89.565C525.896 89.537 525.789 89.5207 525.672 89.516C525.556 89.5067 525.451 89.502 525.357 89.502H522.949V92.904ZM528.806 98V96.586C529.03 96.6 529.219 96.5837 529.373 96.537C529.527 96.4857 529.656 96.39 529.758 96.25C529.866 96.1053 529.959 95.9023 530.038 95.641C530.118 95.375 530.195 95.0413 530.269 94.64C530.377 94.066 530.465 93.4687 530.535 92.848C530.61 92.2227 530.673 91.609 530.724 91.007C530.776 90.4003 530.815 89.831 530.843 89.299C530.871 88.767 530.895 88.3073 530.913 87.92H537.661V98H535.974V89.502H532.474C532.451 89.8147 532.423 90.1927 532.39 90.636C532.362 91.0747 532.323 91.5507 532.271 92.064C532.225 92.5773 532.164 93.1093 532.089 93.66C532.019 94.2107 531.933 94.752 531.83 95.284C531.737 95.7693 531.625 96.2057 531.494 96.593C531.364 96.9757 531.189 97.293 530.969 97.545C530.755 97.7923 530.472 97.958 530.122 98.042C529.777 98.126 529.338 98.112 528.806 98ZM538.924 98L542.102 87.92H544.573L547.751 98H546.015L543.131 88.956H543.509L540.66 98H538.924ZM540.695 95.816V94.241H545.987V95.816H540.695ZM549.016 98V87.92H550.703V92.162H555.477V87.92H557.157V98H555.477V93.744H550.703V98H549.016Z" fill="#222222"/>
<circle opacity="0.7" cx="64" cy="64" r="63.7242" stroke="#161616" stroke-width="0.551612"/>
<circle opacity="0.7" cx="180" cy="64" r="63.7242" stroke="#161616" stroke-width="0.551612"/>
<circle opacity="0.7" cx="296" cy="64" r="63.7242" stroke="#161616" stroke-width="0.551612"/>
<circle opacity="0.7" cx="412" cy="64" r="63.7242" stroke="#161616" stroke-width="0.551612"/>
<circle opacity="0.7" cx="528" cy="64" r="63.7242" stroke="#161616" stroke-width="0.551612"/>
</svg>
