<svg width="89" height="88" viewBox="0 0 89 88" fill="none" xmlns="http://www.w3.org/2000/svg">
<path d="M15.5906 34.2119C18.0272 37.8735 21.208 40.9812 24.9253 43.3319C28.6426 45.683 32.8136 47.2243 37.1659 47.8558C41.5186 48.4874 45.9555 48.1949 50.1878 46.9977C54.4202 45.8004 58.3528 43.7251 61.7295 40.9071C65.0359 45.268 67.7555 50.0445 69.8182 55.1139C72.457 61.6463 74.2877 68.4767 75.268 75.4533C67.1939 83.3514 56.392 87.8424 45.0982 87.9959C33.8044 88.1492 22.8841 83.9535 14.5982 76.2776C6.31235 68.6017 1.29586 58.0332 0.586776 46.7609C-0.121996 35.4883 3.53171 24.3746 10.7907 15.7215C18.0503 7.06806 28.359 1.53781 39.5828 0.275693C50.8073 -0.986421 62.0869 2.11616 71.0869 8.94082C80.0863 15.7658 86.1171 25.7905 87.9297 36.9387C89.7423 48.0869 87.1981 59.5058 80.8242 68.8306C79.1386 63.3526 76.9239 58.0522 74.2107 53.0037C71.2012 47.3858 67.3921 42.2344 62.902 37.7108C60.2221 34.0926 56.7934 31.0951 52.8498 28.9219C48.9061 26.7487 44.5404 25.4518 40.0501 25.1188C35.5597 24.7858 31.0507 25.4246 26.83 26.9925C22.609 28.5598 18.7758 31.0191 15.591 34.2024V34.2119H15.5906Z" fill="#A4BA27"/>
</svg>
