<svg width="478" height="405" viewBox="0 0 478 405" fill="none" xmlns="http://www.w3.org/2000/svg">
<g opacity="0.1">
<path d="M380.46 338.401L379.133 337.243C395.139 322.769 402.376 322.455 423.861 321.512L427.32 321.363C429.769 321.247 432.088 321.165 434.276 321.082C458.248 320.155 467.223 319.808 472.16 298.982C477.863 275.045 476.872 232.118 472.403 208.579C469.056 190.813 455.387 181.02 440.914 170.648C430.443 163.154 419.616 155.396 413.09 144.346C398.748 120.062 416.1 80.808 431.415 46.1523C438.371 30.4373 444.934 15.5825 447.496 4.16846L449.366 4.48276C446.767 16.0622 440.185 30.9501 433.191 46.7643C418.026 81.0726 400.824 119.963 414.792 143.585C421.13 154.321 431.808 161.98 442.129 169.374C456.228 179.465 470.813 189.92 474.291 208.298C478.779 231.986 479.77 275.194 474.03 299.279C468.775 321.363 458.715 321.76 434.388 322.703L427.451 322.984L423.991 323.133C403.011 324.076 395.962 324.39 380.46 338.401Z" fill="#161616"/>
<path d="M373.11 339.857L371.801 338.683C388.069 324.357 394.95 323.795 417.725 322.141L422.98 321.777C447.288 320.122 455.403 319.543 460.377 299.197C466.66 274.003 468.175 231.374 463.631 208.083C460.116 189.887 446.035 180.077 431.132 169.639C420.193 161.997 408.899 154.073 402.186 142.626C388.013 118.474 405.627 80.5268 421.147 47.0456C428.627 30.9667 435.639 15.7976 438.238 4.03613L440.108 4.35043C437.49 16.3104 430.403 31.5622 422.923 47.7073C407.534 80.7914 390.107 118.425 403.869 141.898C410.414 153.031 421.558 160.839 432.329 168.365C446.858 178.539 461.873 189.059 465.519 207.818C470.082 231.341 468.549 274.218 462.247 299.561C456.881 321.065 447.662 321.744 422.98 323.431L417.931 323.795C395.043 325.515 388.892 325.962 373.11 339.857Z" fill="#161616"/>
<path d="M368.755 343.364L367.371 342.239C381.844 328.162 387.846 326.905 408.509 324.308H409.126C435.528 320.999 441.045 320.288 446.411 299.991C453.76 272.349 460.678 231.457 456.078 207.206C452.507 188.332 437.38 178.092 421.28 167.24C409.537 159.317 397.402 151.128 390.315 139.268C375.991 115.249 394.541 78.8561 410.883 46.7479C418.999 30.8344 426.647 15.8142 429.451 3.95349L431.321 4.28433C428.479 16.327 420.775 31.4299 412.622 47.4261C396.429 79.1869 378.067 115.249 392.054 138.49C398.935 150.07 410.902 158.109 422.477 165.934C438.128 176.488 454.265 187.438 458.004 206.942C462.66 231.424 455.686 272.581 448.318 300.371C442.709 321.777 436.276 322.571 409.462 325.945H408.845C388.22 328.526 382.835 329.651 368.755 343.364Z" fill="#161616"/>
<path d="M366.903 348.343L365.164 347.715C371.653 333.538 384.873 329.833 397.625 326.21C410.715 322.554 423 319.097 429.226 305.351C433.06 296.898 434.686 286.344 436.238 276.121C437.202 268.809 438.638 261.551 440.539 254.384C441.268 251.903 442.072 249.422 442.877 246.808C447.159 233.277 451.572 219.282 448.58 205.883C444.242 186.463 427.805 175.578 410.415 164.048C395.849 154.404 380.796 144.429 373.896 129.045C363.163 105.059 381.152 75.6967 398.542 47.2939C408.246 31.4466 417.427 16.4594 420.756 3.54004L422.626 3.90397C419.222 17.1376 410.004 32.1248 400.187 48.0879C383.003 76.2095 365.239 105.175 375.635 128.433C382.33 143.321 397.177 153.246 411.537 162.725C428.366 173.924 445.943 185.52 450.412 205.552C453.497 219.348 449.01 233.541 444.69 247.255C443.886 249.802 443.082 252.317 442.353 254.798C440.468 261.887 439.051 269.068 438.108 276.303C436.519 286.608 434.892 297.278 430.965 305.913C424.402 320.387 411.088 324.109 398.205 327.749C385.321 331.388 373.055 334.878 366.903 348.343Z" fill="#161616"/>
<path d="M366.714 354.729L364.844 354.365C368.023 342.173 375.634 338.6 384.441 334.514C387.888 332.955 391.234 331.227 394.463 329.337C405.421 322.72 406.337 320.288 409.74 311.355C410.264 309.999 410.844 308.477 411.517 306.773C414.677 298.899 417.126 290.43 419.333 282.241C421.819 272.674 424.941 263.245 428.682 254.004C429.748 251.539 430.889 249.041 432.048 246.461C438.331 232.615 444.838 218.339 441.902 204.047C437.62 183.27 419.314 171.723 399.923 159.482C383.861 149.309 367.275 138.904 359.796 122.709C348.838 99.0044 368.565 71.4287 387.62 44.7298C398.315 29.7261 408.413 15.6323 412.265 3.25879L414.135 3.68888C410.208 16.3767 400.054 30.6194 389.284 45.6893C370.473 72.0243 351.007 99.2525 361.609 122.163C368.865 137.862 385.226 148.184 401.064 158.175C419.894 170.053 439.378 182.343 443.81 203.782C446.839 218.505 440.238 233.045 433.843 247.106C432.684 249.653 431.543 252.168 430.496 254.632C426.787 263.834 423.709 273.225 421.278 282.754C418.978 291.025 416.584 299.495 413.424 307.435C412.751 309.089 412.171 310.644 411.648 312C408.263 320.884 407.123 323.861 395.641 330.809C392.364 332.743 388.961 334.505 385.451 336.086C376.625 340.023 369.706 343.281 366.714 354.729Z" fill="#161616"/>
<path d="M367.742 362.007L365.872 361.875C366.807 351.106 373.539 341.214 380.027 331.652C385.113 324.175 390.386 316.434 392.911 308.262C396.164 297.84 403.326 284.937 410.918 271.29C424.007 247.585 438.966 220.721 435.469 201.813C431.318 179.564 409.908 166.645 389.208 154.139C371.519 143.453 353.213 132.419 345.135 115.513C333.916 91.8912 355.532 66.3172 376.512 41.6033C388.292 27.7245 399.418 14.6231 403.868 2.69629L405.645 3.22564C401.082 15.4006 389.881 28.6012 378.008 42.5958C357.345 66.9458 335.973 92.1228 346.855 114.868C354.727 131.41 372.791 142.229 390.255 152.783C411.292 165.47 433.038 178.605 437.32 201.532C440.948 220.969 425.877 248.082 412.582 272.002C405.102 285.583 397.922 298.469 394.724 308.692C392.107 317.079 386.796 324.92 381.635 332.496C374.96 342.372 368.639 351.635 367.742 362.007Z" fill="#161616"/>
<path d="M367.558 369.831C367.071 351.37 368.698 323.282 373.466 305.235C377.356 290.446 388.93 275.889 401.197 260.472C417.016 240.621 433.359 220.01 431.227 199.266C428.853 176.206 403.927 161.401 379.824 147.109C362.509 136.82 344.595 126.2 335.751 112.668C318.398 86.2008 342.127 62.4959 365.089 39.6182C377.393 27.3771 390.09 14.8051 395.55 2.18347L397.289 2.76245C391.679 15.5991 378.889 28.3696 366.492 40.71C344.053 63.1411 320.68 86.3496 337.359 111.841C345.998 125.075 362.939 135 380.853 145.736C405.329 160.243 430.629 175.263 433.097 199.117C435.285 220.407 418.736 241.217 402.712 261.365C390.576 276.633 379.095 291.141 375.28 305.532C370.549 323.464 368.941 351.37 369.428 369.732L367.558 369.831Z" fill="#161616"/>
<path d="M371.206 377.772H369.336C369.449 366.903 365.166 356.614 361.034 346.673C355.817 334.084 350.413 321.082 353.76 306.74C357.762 289.685 373.656 273.49 389.026 257.858C407.875 238.669 427.359 218.819 425.601 197.066C423.638 172.964 395.907 156.968 369.075 141.501C349.254 130.054 330.499 119.252 321.243 105.356C302.824 77.7477 328.33 56.9709 353.031 36.8722C366.662 25.7559 380.761 14.2757 387.306 1.7699L389.007 2.46467C382.239 15.2517 368.009 26.8477 354.19 38.0798C328.965 58.6251 305.143 78.0455 322.795 104.496C331.845 118.061 350.394 128.764 370.047 140.095C397.254 155.793 425.377 172.005 427.396 196.934C429.266 219.381 409.483 239.48 390.373 258.917C375.17 274.4 359.426 290.347 355.537 307.054C352.302 320.933 357.406 333.141 362.736 346.077C366.98 356.168 371.318 366.589 371.206 377.772Z" fill="#161616"/>
<path d="M370.681 385.613C367.633 376.465 360.939 367.218 353.852 357.491C342.314 341.561 330.385 325.069 334.461 308.179C338.893 289.834 357.984 273.126 376.459 256.899C398.448 237.627 421.205 217.71 419.765 194.833C418.905 180.954 399.626 166.992 386.874 157.762L382.386 154.453C375.467 149.292 366.978 144.115 358.078 138.606C339.154 127.027 317.688 113.942 306.992 98.1607C287.508 69.4767 314.678 51.3631 340.931 33.8616C355.89 23.9364 371.354 13.5645 378.964 1.20752L380.61 2.00155C372.812 14.6728 357.18 25.1605 342.053 35.185C315.276 53.0339 289.995 69.9234 308.582 97.3171C319.09 112.784 340.37 125.786 359.069 137.25C368.1 142.775 376.627 147.986 383.602 153.18L388.071 156.488C401.16 165.901 420.737 180.127 421.729 194.75C423.206 218.372 400.15 238.553 377.861 258.073C359.592 274.053 340.706 290.595 336.387 308.46C332.46 324.688 344.184 340.883 355.516 356.532C362.659 366.457 369.428 375.754 372.551 385.116L370.681 385.613Z" fill="#161616"/>
<path d="M371.019 392.544C366.325 382.288 356.059 372.528 345.027 362.205C329.283 347.318 312.996 331.967 314.38 314.581C316.25 291.587 340.184 273.424 363.333 255.856C388.109 237.081 413.708 217.661 410.641 192.996C407.238 165.553 377.339 149.888 348.43 134.735C323.037 121.502 296.784 107.689 287.958 85.8864C279.282 64.3817 284.779 57.1528 306.919 44.6635C313.445 40.9912 319.653 37.9474 325.618 35.0029C343.064 26.4507 358.135 19.0729 370.495 0.942749L372.084 1.7864C359.556 20.297 344.279 27.7906 326.59 36.5248C320.606 39.4527 314.417 42.4799 307.891 46.1357C286.369 58.2611 281.358 64.8945 289.679 85.3901C298.28 106.63 324.253 120.228 349.347 133.362C378.648 148.713 408.959 164.594 412.455 192.914C415.634 218.537 389.643 238.239 364.53 257.296C341.661 274.549 318.007 292.398 316.231 314.697C314.903 331.371 330.91 346.474 346.373 361.014C357.443 371.453 367.896 381.328 372.72 391.865L371.019 392.544Z" fill="#161616"/>
<path d="M369.688 398.333C359.198 379.244 348.932 371.601 334.74 361.014C330.233 357.706 325.11 353.852 319.519 349.303C309.552 341.214 296.407 328.923 297.23 315.739C298.744 291.67 325.446 273.176 351.269 255.311C378.495 236.502 406.768 216.883 403.72 191.26C400.317 162.84 368.734 146.596 338.18 130.881C311.422 117.134 283.767 102.908 274.604 80.4441C269.275 76.6063 266.339 72.4046 265.89 67.9714C265.404 63.1741 267.76 58.0461 273.052 52.6864L273.258 52.5376L294.612 40.3957C301.717 37.0873 308.374 34.3413 314.825 31.7772C332.963 24.5153 348.652 18.2624 361.928 0.512695L363.499 1.42251C349.904 19.6188 334.01 25.9214 315.592 33.2826C309.178 35.8466 302.503 38.4933 295.566 41.8183L274.38 53.8609C269.537 58.8236 267.312 63.5215 267.742 67.8225C268.153 71.8422 270.939 75.713 275.988 79.3027L276.194 79.435V79.6666C285.113 101.684 312.563 115.811 339.115 129.458C370.081 145.372 402.074 161.831 405.571 191.078C408.731 217.628 380.103 237.395 352.429 256.601C326.942 274.251 300.577 292.514 299.1 315.838C298.314 328.311 311.104 340.221 320.79 348.079C326.4 352.611 331.449 356.35 335.936 359.757C350.316 370.46 360.712 378.202 371.371 397.606L369.688 398.333Z" fill="#161616"/>
<path d="M366.192 402.519C354.243 382.519 342.332 374.596 325.877 363.661C320.455 360.055 314.321 355.986 307.683 351.089C299.119 344.787 281.28 331.636 282.141 316.599C283.562 291.786 312.264 273.06 340.107 254.98C369.277 235.989 399.457 216.337 396.353 190.052C392.894 160.938 360.04 144.263 328.252 128.135C300.391 114.008 271.576 99.3848 262.114 76.3085C256.635 72.4708 253.625 68.2691 253.157 63.8358C252.671 59.0551 255.158 53.9105 260.525 48.6005L260.749 48.4186L283.001 37.2196C290.48 34.0931 297.586 31.7441 304.392 29.4779C323.091 23.2746 339.153 17.8984 353.103 0.264526L354.636 1.20743C340.35 19.2879 323.989 24.7303 305.065 30.9832C298.278 33.2329 291.266 35.5654 283.861 38.6422L261.815 49.7419C256.878 54.7046 254.597 59.3529 255.027 63.6373C255.439 67.657 258.281 71.5279 263.479 75.1175L263.685 75.2498L263.778 75.4814C272.922 98.111 301.531 112.618 329.224 126.646C361.405 142.99 394.67 159.879 398.242 189.837C401.477 217.065 370.848 236.998 341.248 256.27C313.816 274.119 285.469 292.663 284.104 316.632C283.3 330.842 300.634 343.629 308.973 349.716C315.574 354.563 321.689 358.632 327.093 362.222C343.118 372.875 355.777 381.295 367.95 401.642L366.192 402.519Z" fill="#161616"/>
<path d="M359.945 404.735C347.623 384.041 334.085 375.687 316.938 365.034C310.861 361.279 303.961 357.011 296.575 351.801C286.141 344.506 268.695 332.314 269.611 316.963C271.144 291.654 301.007 272.878 329.878 254.715C360.151 235.692 391.453 216.007 388.218 189.324C384.647 159.813 351.045 142.907 318.527 126.564C289.974 112.205 260.467 97.3667 250.838 73.8935C245.359 70.0392 242.33 65.8375 241.881 61.3877C241.376 56.5905 243.844 51.4624 249.211 46.0863L249.472 45.9043L272.266 35.2677C280.176 32.2736 287.506 30.1728 294.612 28.1216C313.497 22.6792 329.821 17.9813 343.995 0L345.529 0.942899C331 19.3708 314.395 24.1018 295.191 29.6765C288.123 31.7112 280.83 33.812 273.052 36.74L250.482 47.2773C245.564 52.2399 243.283 56.9213 243.732 61.2223C244.162 65.2586 247.004 69.1294 252.203 72.719L252.427 72.8679L252.52 73.0995C261.87 96.1096 291.115 110.849 319.462 125.108C352.372 141.65 386.404 158.788 390.069 189.126C393.435 216.784 361.666 236.75 330.962 256.055C302.446 273.987 272.996 292.448 271.481 317.046C270.621 331.52 287.581 343.397 297.659 350.477C305.008 355.622 311.571 359.675 317.929 363.612C335.282 374.331 348.988 382.784 361.535 403.842L359.945 404.735Z" fill="#161616"/>
<path d="M350.45 405C338.127 384.521 324.533 375.936 307.33 365.067C301.029 361.081 294.521 356.978 287.266 351.834C276.215 343.993 259.536 332.132 260.359 317.095C261.761 291.753 291.66 272.928 320.569 254.715C350.842 235.659 382.144 215.957 378.984 189.258C375.469 159.664 341.736 142.94 309.088 126.63C280.516 112.437 250.897 97.5487 241.248 74.1416C235.807 70.2873 232.815 66.069 232.348 61.6027C231.843 56.7889 234.217 51.6774 239.547 46.2682L239.808 46.0862L262.715 35.4331C270.718 32.439 278.141 30.3381 285.321 28.3034C304.301 22.9438 320.681 18.3782 334.761 0.181885L336.313 1.12478C321.859 19.7016 305.198 24.4326 285.826 29.8915C278.683 31.9096 271.316 33.9939 263.388 36.9384L240.706 47.4757C235.844 52.4384 233.619 57.1363 234.068 61.4538C234.498 65.5066 237.322 69.394 242.482 73.0333L242.707 73.1822V73.3972C252.056 96.4238 281.451 111.064 309.873 125.207C342.933 141.65 377.095 158.655 380.704 189.109C383.977 216.751 352.226 236.75 321.522 256.088C292.969 274.053 263.444 292.646 262.097 317.195C261.312 331.388 277.561 342.918 288.276 350.56C295.475 355.688 301.963 359.791 308.246 363.794C325.655 374.778 339.399 383.462 351.927 404.289L350.45 405Z" fill="#161616"/>
<path d="M338.351 405C326.514 385.149 313.743 376.035 297.568 364.455C291.959 360.469 286.349 356.366 279.954 351.403C270.175 343.744 253.776 330.891 254.505 316.665C255.758 291.653 284.741 272.696 312.771 254.384C342.184 235.162 372.607 215.279 369.484 188.861C366.006 159.466 332.442 143.271 299.981 127.655C271.502 113.909 242.014 99.699 232.384 76.507C226.943 72.6527 223.932 68.451 223.465 63.9846C222.96 59.1874 225.335 54.0594 230.664 48.6666L230.907 48.4847L253.85 37.3849C261.741 34.2585 269.127 31.9922 276.289 29.7921C295.437 23.9197 311.967 18.8412 326.028 0.727661L327.561 1.67056C313.163 20.2142 296.353 25.3754 276.906 31.4463C269.801 33.6299 262.452 35.8796 254.692 38.9399L231.973 49.9569C227.13 54.9196 224.886 59.6175 225.353 63.9184C225.821 68.2194 228.607 71.8421 233.768 75.4979L233.974 75.6468L234.067 75.8784C243.416 98.6072 272.624 112.701 300.897 126.348C333.769 142.212 367.783 158.638 371.354 188.894C374.589 216.238 343.736 236.403 313.893 255.906C286.218 274.003 257.59 292.712 256.394 316.93C255.72 330.445 271.67 342.967 281.207 350.444C287.508 355.407 293.23 359.459 298.765 363.43C315.089 375.141 328.01 384.372 340.033 404.487L338.351 405Z" fill="#161616"/>
<path d="M323.951 404.967C317.967 393.851 305.065 382.768 291.415 371.023C271.033 353.505 249.96 335.374 251.119 315.706C252.559 291.29 279.915 272.233 306.374 253.789C334.422 234.286 363.293 214.088 359.946 188.15C356.206 159.218 323.035 143.982 290.947 129.243C262.731 116.291 233.561 102.892 223.819 80.1299C218.396 76.3418 215.404 72.1566 214.918 67.7233C214.413 62.9261 216.788 57.7981 222.154 52.3557L222.379 52.1738L245.378 40.3462C253.176 37.0377 260.543 34.4903 267.649 32.0751C287.002 25.4583 303.719 19.7678 317.724 1.38953L319.258 2.31589C304.934 21.1242 287.974 26.914 268.322 33.6301C261.235 36.0452 253.924 38.5927 246.257 41.9011L223.463 53.646C218.564 58.6086 216.32 63.3562 216.788 67.6737C217.218 71.6934 220.041 75.5312 225.184 79.0712L225.389 79.2201V79.4351C234.739 101.734 263.722 115.017 291.714 127.87C324.25 142.758 357.889 158.258 361.723 188.067C365.163 214.948 335.825 235.411 307.496 255.195C281.318 273.391 254.354 292.233 252.951 315.888C251.829 334.812 272.604 352.661 292.686 369.931C306.467 381.775 319.482 392.974 325.596 404.355L323.951 404.967Z" fill="#161616"/>
<path d="M307.775 404.901C303.045 394.032 292.816 382.668 281.821 370.642C265.161 352.297 247.939 333.34 249.734 314.498C251.959 291.157 276.922 272.001 301.062 253.474C328.4 232.499 354.223 212.698 350.465 187.306C346.276 159.019 313.628 145.041 282.046 131.509C254.166 119.566 225.351 107.209 215.496 85.0097C210.111 81.2877 207.119 77.1687 206.633 72.7685C206.091 67.9548 208.503 62.744 213.944 57.2851L214.15 57.1362L237.206 44.3326C244.947 40.743 252.258 37.9309 259.345 35.218C278.942 27.6913 295.845 21.2068 309.832 2.36536L311.403 3.27517C297.154 22.5302 279.989 29.1139 260.131 36.7233C253.081 39.4362 245.789 42.2318 238.178 45.7718L215.272 58.5092C210.298 63.5876 208.017 68.3518 208.503 72.6693C208.933 76.6394 211.757 80.4109 216.843 83.9013L217.067 84.0337L217.161 84.2487C226.641 105.985 255.232 118.226 282.85 130.07C314.918 143.866 347.997 157.977 352.316 187.124C356.205 213.36 328.793 234.385 302.297 254.732C278.437 273.027 253.68 291.968 251.604 314.63C249.865 332.827 266.844 351.519 283.28 369.616C294.293 381.742 304.69 393.205 309.458 404.355L307.775 404.901Z" fill="#161616"/>
<path d="M290.31 404.818C287 393.851 279.67 382.238 271.91 369.947C259.943 350.99 247.602 331.388 249.827 313.059C252.519 291.108 274.808 271.853 296.35 253.226C321.537 231.54 345.322 210.928 341.096 186.429C336.272 158.986 304.278 146.431 273.313 134.305C245.732 123.536 217.366 112.437 207.38 90.9318C202.014 87.3091 199.041 83.2728 198.536 78.9223C197.975 74.092 200.406 68.8316 206.015 63.2735L206.202 63.1411L229.333 49.2458C236.981 45.3253 244.292 42.1823 251.323 39.1551C271.181 30.5863 288.328 23.2085 302.202 3.72192L303.773 4.6152C289.618 24.4657 272.247 31.9758 252.145 40.6439C245.133 43.6711 237.859 46.7975 230.324 50.5691L207.343 64.3818C202.257 69.5429 199.863 74.307 200.443 78.6907C200.892 82.6112 203.697 86.3166 208.764 89.6912L208.97 89.8235L209.063 90.0386C218.674 111.113 246.816 122.147 274.042 132.8C305.456 145.124 337.936 157.845 342.91 186.181C347.36 211.54 322.117 233.343 297.715 254.434C276.398 272.845 254.371 291.885 251.734 313.258C249.546 331.073 261.775 350.428 273.593 369.153C281.409 381.543 288.814 393.255 292.18 404.404L290.31 404.818Z" fill="#161616"/>
<path d="M272.064 404.719C270.381 393.718 266.286 382.056 261.967 369.699C255.086 350.047 247.961 329.733 250.841 311.487C254.02 291.405 273.28 272.183 291.829 253.59C313.8 231.622 336.501 208.926 331.583 185.437C325.973 158.969 294.709 147.952 264.454 137.316C237.34 127.804 209.33 117.961 199.27 97.0026C188.368 74.3069 200.018 66.3998 221.559 54.3571C229.038 50.1554 236.331 46.6651 243.343 43.2905C263.481 33.5968 280.853 25.2265 294.652 5.01208L296.261 5.87227C282.199 26.4176 264.603 34.9202 244.24 44.7131C237.247 48.0215 230.029 51.5781 222.55 55.7467C199.55 68.5999 191.154 75.8784 200.99 96.341C210.825 116.804 238.388 126.381 265.127 135.761C295.868 146.563 327.656 157.729 333.415 185.122C338.501 209.39 315.483 232.4 293.231 254.599C274.832 273.027 255.834 292.067 252.692 311.653C249.869 329.535 256.918 349.7 263.743 369.153C268.1 381.56 272.214 393.288 273.915 404.437L272.064 404.719Z" fill="#161616"/>
<path d="M255.345 404.603H253.475C253.475 394.099 252.633 383.28 251.736 371.8C250.109 350.924 248.426 329.32 252.259 309.85C255.737 292.084 271.706 273.143 287.151 254.831C307.084 231.176 327.69 206.726 322.137 184.395C315.798 158.887 285.225 149.491 255.681 140.393C229.073 132.221 201.567 123.751 191.301 103.553C180.175 81.6848 192.61 72.6694 213.833 59.75C221.313 55.234 228.493 51.3797 235.468 47.6577C255.868 36.773 273.501 27.3937 287.245 6.40173L288.853 7.22884C274.866 28.5847 257.065 38.0798 236.496 49.0638C229.54 52.7858 222.341 56.6235 214.955 61.123C193.919 73.91 182.531 82.1645 193.059 102.875C202.988 122.428 230.12 130.765 256.336 138.838C286.385 148.085 317.462 157.63 324.025 184.047C329.766 207.107 308.879 231.87 288.703 255.823C273.389 274.02 257.551 292.762 254.148 310.131C250.408 329.403 252.035 350.907 253.662 371.701C254.503 383.181 255.345 394.049 255.345 404.603Z" fill="#161616"/>
<path d="M236.89 404.719L235.021 404.504C238.592 380.121 243.753 355.374 248.727 331.437C250.335 323.696 251.943 315.97 253.495 308.278C256.711 292.299 269.258 274.648 282.534 255.956C300.41 230.795 318.904 204.791 312.696 183.402C305.59 158.887 275.728 151.029 246.876 143.436C220.697 136.572 193.771 129.475 183.3 110.071C171.332 87.9378 186.665 77.8636 206.075 65.1097C213.442 60.2628 220.622 56.0777 227.578 52.0249C248.241 39.9657 266.079 29.5442 279.786 7.80786L281.412 8.60188C267.519 30.6856 249.475 41.2064 228.626 53.3813C221.688 57.4341 214.527 61.6524 207.215 66.4165C185.805 80.4773 174.231 89.41 185.001 109.327C195.117 128.069 221.707 135.066 247.418 141.832C276.794 149.557 307.254 157.547 314.528 182.972C320.923 205.039 302.224 231.374 284.142 256.816C270.96 275.376 258.506 292.894 255.346 308.56C253.794 316.252 252.186 323.993 250.578 331.719C245.604 355.605 240.462 380.418 236.89 404.719Z" fill="#161616"/>
<path d="M219.032 404.802L217.162 404.405C221.519 388.673 228.25 373.636 234.758 359.079C242.237 342.339 249.978 325.036 254.017 306.757C259.141 283.598 269.351 264.657 280.196 244.542C281.804 241.548 283.431 238.521 285.076 235.427C286.516 232.714 288.199 229.803 289.975 226.709C297.904 213.029 307.758 195.991 303.27 182.426C295.473 158.837 266.284 152.419 238.049 146.216C212.431 140.591 185.954 134.785 175.239 116.126C163.01 94.8524 178.568 83.9181 198.239 70.0889C205.531 64.9609 212.693 60.4614 219.612 56.0943C240.517 42.8606 258.561 31.5293 272.249 9.08167L273.894 9.85915C260.001 32.6542 240.91 44.6968 220.696 57.4507C213.796 61.8013 206.653 66.2842 199.398 71.3957C180.381 84.7452 165.366 95.299 176.959 115.381C187.281 133.362 213.347 139.086 238.553 144.611C267.294 150.93 297.025 157.448 305.121 181.963C309.815 196.156 299.774 213.509 291.696 227.47C289.919 230.531 288.236 233.442 286.815 236.138C285.17 239.232 283.543 242.259 281.935 245.253C270.716 266.129 261.048 284.177 255.981 307.087C251.886 325.499 244.107 342.885 236.59 359.691C230.064 374.182 223.295 389.169 219.032 404.802Z" fill="#161616"/>
<path d="M202.222 404.868L200.465 404.338C206.467 388.59 216.06 374.298 225.334 360.469C236.834 343.364 248.708 325.73 253.383 305.466C259.516 279.181 268.248 258.569 279.019 234.335C280.272 231.506 281.767 228.463 283.357 225.237C290.107 211.54 298.522 194.502 293.772 181.533C285.414 158.705 256.786 153.577 229.093 148.614C203.943 144.098 177.914 139.433 166.994 121.468C154.522 100.956 170.603 88.9963 189.227 75.1506L190.162 74.4723C197.398 69.0962 204.522 64.2989 211.404 59.6672C232.515 45.474 250.671 33.1998 264.415 10.1732L266.079 10.9342C252.223 34.3081 232.945 47.3268 212.526 60.9905C205.663 65.6058 198.557 70.3864 191.377 75.7295L190.442 76.4243C171.743 90.3527 156.878 101.353 168.639 120.674C179.148 137.961 204.728 142.56 229.467 146.993C257.683 152.038 286.854 157.266 295.549 181.02C300.522 194.584 291.958 211.954 285.077 225.899C283.488 229.108 282.011 232.135 280.758 234.931C270.025 259.066 261.33 279.594 255.215 305.764C250.447 326.243 238.48 344.059 226.905 361.279C217.686 375.075 208.169 389.285 202.222 404.868Z" fill="#161616"/>
<path d="M186.963 404.917L185.242 404.305C192.535 388.127 204.577 374.099 216.208 360.535C230.812 343.513 245.92 325.929 251.006 304.424C256.535 280.445 263.64 256.772 272.286 233.525C273.408 230.531 274.773 227.288 276.231 223.864C281.99 210.233 289.171 193.261 284.309 180.855C275.577 158.539 247.398 154.387 220.135 150.533C195.34 146.96 169.648 143.254 158.578 125.819C145.9 105.969 162.486 93.0823 180.044 79.5012L181.914 78.0621C189.076 72.4874 196.181 67.4586 203.044 62.6117C223.426 48.187 242.685 34.4902 256.354 11.1162L258.019 11.8771C244.163 35.6481 224.753 49.3781 204.203 63.902C197.359 68.7489 190.273 73.8273 183.148 79.3027L181.278 80.7419C163.589 94.4553 148.312 106.299 160.242 125.025C170.9 141.766 196.088 145.405 220.452 148.912C248.258 152.932 276.998 157.084 286.085 180.342C291.172 193.327 283.86 210.597 278.008 224.476C276.549 227.884 275.184 231.093 274.081 234.087C265.452 257.273 258.365 280.886 252.858 304.805C247.603 326.624 232.438 344.373 217.685 361.527C206.129 375.009 194.162 388.954 186.963 404.917Z" fill="#161616"/>
<path d="M173.745 404.934L172.025 404.289C180.065 387.399 193.958 373.438 207.384 359.939C224.699 342.52 241.042 326.061 246.296 303.696L248.353 294.896C253.215 273.937 257.815 254.153 264.565 232.946C265.594 229.72 266.884 226.229 268.305 222.557C273.522 208.43 279.524 192.417 274.812 180.242C266.304 158.06 238.256 154.784 211.049 151.608C186.479 148.746 161.048 145.785 149.866 128.78C137.058 109.31 153.4 96.2748 170.697 82.4621L173.221 80.444C180.346 74.737 187.432 69.5428 194.276 64.514C214.845 49.5103 234.123 35.3172 247.811 11.662L249.475 12.4229C235.601 36.3428 216.116 50.6848 195.473 65.8042C188.629 70.7669 181.561 75.9942 174.474 81.6847L171.95 83.7028C155.233 97.0357 139.432 109.641 151.474 127.953C162.208 144.247 187.171 147.158 211.311 149.97C239.023 153.279 267.688 156.587 276.551 179.746C281.394 192.434 275.354 208.728 270.044 223.103C268.679 226.775 267.389 230.233 266.304 233.425C259.591 254.566 255.085 274.334 250.13 295.26L248.073 304.077C242.744 326.822 225.447 344.208 208.805 361.014C195.454 374.43 181.673 388.292 173.745 404.934Z" fill="#161616"/>
<path d="M162.99 404.917L161.27 404.305C169.367 386.307 184.345 372.296 198.855 358.732C216.75 341.975 233.672 326.16 238.74 303.514C239.662 299.434 240.56 295.381 241.432 291.356C245.845 271.505 250.015 252.598 255.625 232.813C256.616 229.323 257.943 225.502 259.364 221.432C264.207 207.454 269.705 191.657 265.18 180.077C256.466 157.795 228.642 154.966 201.753 152.22C177.351 149.722 152.126 147.158 140.814 130.17C127.93 110.782 144.759 97.1351 161.102 83.918L164.094 81.5028C171.181 75.7131 178.267 70.4196 185.111 65.3081C205.68 49.957 225.015 35.5323 238.758 11.8937L240.422 12.6546C226.511 36.5249 206.989 51.115 186.308 66.5653C179.483 71.6768 172.415 76.9537 165.365 82.7104L162.373 85.1421C145.881 98.4915 130.324 111.097 142.403 129.243C153.248 145.521 177.931 148.052 201.94 150.483C229.428 153.295 257.831 156.19 266.919 179.465C271.65 191.574 266.077 207.702 261.141 221.929C259.738 225.965 258.429 229.77 257.401 233.21C251.791 252.962 247.64 271.77 243.227 291.67C242.342 295.695 241.445 299.748 240.535 303.829C235.355 326.987 217.46 343.678 200.164 359.873C185.897 373.322 170.938 387.217 162.99 404.917Z" fill="#161616"/>
<path d="M154.318 403.147L152.579 402.535C160.694 384.339 175.859 370.344 190.519 356.829C208.451 340.287 225.392 324.672 230.535 301.959C232.274 294.234 233.956 286.426 235.565 278.883C238.799 263.83 242.128 248.264 246.204 232.813C247.139 229.224 248.448 225.303 249.813 221.151C254.301 207.554 259.368 192.169 254.955 180.822C246.429 158.87 219.184 155.496 192.838 152.22C168.978 149.259 144.221 146.199 133.113 129.442C120.286 110.203 136.348 97.1186 153.364 83.2564L155.982 81.0066C162.845 75.3823 169.688 70.2212 176.308 65.2255C196.521 49.9571 215.575 35.549 229.394 12.1915L231.039 12.969C217.165 36.6573 197.924 51.2309 177.579 66.5488C170.979 71.5115 164.154 76.6891 157.31 82.2969L154.636 84.4805C138.181 97.863 122.661 110.501 134.74 128.598C145.455 144.661 169.688 147.671 193.099 150.583C220.007 153.891 247.812 157.381 256.676 180.276C261.275 192.12 256.115 207.785 251.552 221.631C250.187 225.783 248.897 229.687 247.962 233.21C243.904 248.628 240.482 264.161 237.341 279.197C235.733 286.757 234.069 294.565 232.311 302.356C227.057 325.515 209.143 342.057 191.809 358.037C177.336 371.37 162.302 385.232 154.318 403.147Z" fill="#161616"/>
<path d="M146.819 398.267L145.098 397.655C153.27 379.459 168.678 365.729 183.562 352.429C201.775 336.168 218.978 320.801 224.026 298.088C225.653 290.694 228.514 281.116 231.506 270.976C240.556 240.638 251.813 202.872 244.071 182.36C235.956 160.855 209.871 156.538 184.628 152.369C161.796 148.597 138.18 144.693 127.465 128.135C114.974 108.814 130.812 95.7785 147.567 81.9659L149.549 80.3116C156.112 74.8858 162.638 69.9067 168.902 65.1095C188.405 50.2216 206.823 36.1608 220.156 13.2831L221.82 14.044C208.319 37.2029 189.77 51.363 170.136 66.3667C163.853 71.1473 157.365 76.1099 150.839 81.5192L148.838 83.1734C132.009 97.0853 117.331 109.111 129.092 127.308C139.376 143.188 162.563 147.026 184.983 150.731C210.731 154.983 237.34 159.383 245.848 181.814C253.757 202.806 242.426 240.836 233.32 271.389C230.29 281.497 227.448 291.041 225.84 298.386C220.698 321.545 202.485 337.855 184.871 353.587C170.136 366.788 154.859 380.418 146.819 398.267Z" fill="#161616"/>
<path d="M140.293 390.856L138.573 390.211C147.155 372.412 162.545 358.781 177.41 345.548C196.913 328.294 215.331 311.984 219.37 287.204C220.605 279.694 223.11 269.884 225.728 259.512C232.254 233.789 240.388 201.78 234.722 183.419C228.402 162.956 202.429 156.571 177.317 150.334C158.468 145.686 138.984 140.889 128.176 130.103C110.038 112.006 121.912 98.872 140.648 82.2638C148.315 75.4815 155.981 69.4933 163.405 63.687C181.393 49.6593 198.39 36.3925 210.975 14.8217L212.639 15.5826C199.886 37.4347 182.721 50.7842 164.639 64.9276C157.253 70.7174 149.68 76.6891 141.957 83.4382C123.389 99.9803 112.488 111.957 129.578 129.012C140.012 139.433 159.235 144.164 177.822 148.746C203.439 155.049 229.935 161.567 236.517 182.939C242.314 201.698 234.124 233.922 227.542 259.827C224.924 270.165 222.437 279.942 221.222 287.402C217.089 312.712 197.605 329.982 178.738 346.673C163.984 359.84 148.726 373.355 140.293 390.856Z" fill="#161616"/>
<path d="M134.496 381.51L132.775 380.849C141.358 363.711 157.084 350.56 172.342 337.839C192.687 320.85 211.89 304.755 215.163 280.256C215.892 274.648 217.033 267.833 218.341 260.621C222.642 235.808 228.028 204.791 222.661 186.297C216.827 166.132 193.21 158.407 170.304 150.93C153.008 145.256 135.132 139.351 125.034 128.168C108.205 109.459 119.817 96.2915 136.702 81.0232C143.864 74.5387 150.988 68.8978 157.888 63.4224C174.549 50.1887 190.274 37.6994 201.737 16.9722L203.42 17.7C191.845 38.6919 175.989 51.2308 159.197 64.6299C152.316 70.0888 145.229 75.7297 138.105 82.1646C121.874 96.8374 110.711 109.476 126.567 127.126C136.328 138.011 153.961 143.767 171.015 149.359C194.313 156.984 218.398 164.858 224.475 185.867C229.916 204.692 224.475 235.824 220.174 260.852C218.94 268.048 217.762 274.863 217.014 280.438C213.667 305.582 193.379 322.521 173.633 339.063C158.543 351.652 142.892 364.687 134.496 381.51Z" fill="#161616"/>
<path d="M129.184 370.824L127.52 370.113C136.664 353.422 152.483 340.932 167.797 328.857C187.076 313.654 205.195 299.279 210.805 277.411C215.685 258.139 215.423 209.588 208.71 189.969C201.997 170.35 181.746 161.616 162.131 153.163C144.629 145.603 126.604 137.795 117.722 122.362C108.84 106.928 119.835 93.016 130.25 82.4291C138.112 74.5904 146.538 67.2083 155.475 60.3288C169.723 48.9644 182.027 39.1384 192.648 19.2714L194.331 19.9661C183.56 40.1475 171.125 50.0727 156.727 61.5695C147.847 68.3934 139.477 75.7205 131.671 83.5043C121.648 93.7108 111.102 107.275 119.404 121.551C127.95 136.439 145.751 144.181 162.973 151.625C182.943 160.243 203.605 169.159 210.524 189.44C217.293 209.29 217.555 258.271 212.656 277.725C207.046 300.123 188.572 314.647 169.05 330.048C153.866 342.074 138.178 354.447 129.184 370.824Z" fill="#161616"/>
<path d="M124.191 359.393L122.527 358.616C134.868 338.203 146.106 328.311 166.619 313.853L172.565 309.701C192.311 295.971 205.344 286.906 208 264.409C210.15 246.212 203.194 211.689 197.584 192.963C191.657 173.262 174.529 163.37 156.447 152.882C142.984 145.091 129.072 137.051 120.414 124.645C105.96 103.967 120.134 90.0219 135.149 75.2664L136.271 74.1581C141.88 68.633 146.929 64.2328 151.81 59.8823C164.319 48.8487 174.248 40.131 183.598 21.8354L185.299 22.5137C175.8 41.1731 165.815 49.9901 153.156 61.1395C148.294 65.4239 143.264 69.8571 137.711 75.3326L136.57 76.4574C121.405 91.3453 108.316 104.232 122.041 123.867C130.474 135.943 144.218 143.9 157.569 151.575C175.202 161.765 193.433 172.319 199.529 192.633C205.139 211.474 212.188 246.279 210.019 264.657C207.27 287.816 193.975 297.096 173.855 311.074L167.928 315.226C147.471 329.452 136.364 339.245 124.191 359.393Z" fill="#161616"/>
<path d="M119.234 347.781L117.607 346.97C130.398 326.855 141.411 317.691 162.84 303.498C165.252 301.844 167.683 300.338 170.058 298.816C188.308 287.055 204.071 276.915 204.669 256.138C205.006 244.79 198.443 229.67 192.665 216.222C189.561 209.042 186.644 202.277 184.886 196.487C179.127 177.546 164.897 166.198 149.807 154.205C138.214 144.975 126.228 135.43 118.673 122.163C104.93 98.0614 126.452 77.053 147.245 56.7393C158.67 45.5899 169.459 35.0526 174.359 24.2837L176.098 24.8958C171.068 35.9459 160.185 46.5824 148.629 57.8476C128.247 77.6981 107.174 98.3426 120.338 121.419C127.724 134.404 139.597 143.85 151.06 152.965C165.682 164.544 180.791 176.636 186.588 196.057C188.327 201.764 191.225 208.496 194.31 215.626C200.163 229.158 206.782 244.509 206.446 256.187C205.829 277.692 189.71 288.147 171.068 300.156C168.693 301.678 166.281 303.216 163.868 304.821C142.757 318.865 131.875 327.93 119.234 347.781Z" fill="#161616"/>
<path d="M114.132 336.615L112.543 335.738C127.614 314.233 140.741 305.301 162.656 291.405C164.526 290.198 166.639 288.924 168.864 287.584C183.112 278.982 202.615 267.221 202.802 251.589C202.915 241.812 194.369 230.745 186.104 220.043C180.27 212.483 174.754 205.353 172.305 198.819C166.695 183.832 155.476 170.83 144.705 158.275C133.074 144.76 121.051 130.782 116.227 114.471C109.42 91.3122 124.622 75.5972 140.741 58.8897C150.277 48.9644 160.15 38.7249 165.218 26.7153L166.975 27.2943C161.796 39.5685 151.811 49.9404 142.162 59.9649C126.38 76.3416 111.477 91.8085 118.04 114.058C122.771 130.037 134.14 143.271 146.201 157.266C157.102 169.937 168.359 183.055 174.081 198.29C176.456 204.609 181.878 211.656 187.638 219.1C196.071 230.018 204.784 241.316 204.672 251.605C204.467 268.147 184.496 280.157 169.93 288.941C167.705 290.28 165.61 291.554 163.74 292.745C142.031 306.508 129.017 315.342 114.132 336.615Z" fill="#161616"/>
<path d="M108.69 326.342L106.988 325.664C112.301 315.111 119.983 305.623 129.568 297.777C139.154 289.931 150.443 283.891 162.748 280.024C185.393 272.944 197.341 259.281 198.276 239.381C195.957 231.291 188.328 226.594 180.25 221.598C172.173 216.602 164.151 211.673 160.037 203.021V202.756C158.848 185.6 151.535 169.22 139.15 155.975C125.969 141.334 116.356 124.437 110.915 106.349C108.652 86.9121 121.704 72.7024 134.326 58.956C142.89 49.6758 151.697 40.098 155.979 28.9155L157.849 29.4614C153.361 40.9251 144.479 50.6022 135.878 59.965C122.92 74.0754 110.672 87.3918 112.841 106.018C118.222 123.846 127.707 140.499 140.702 154.933C153.25 168.421 160.659 185.072 161.869 202.508C165.796 210.647 173.706 215.527 181.354 220.241C189.768 225.436 197.715 230.332 200.165 239.099V239.215V239.331C199.211 260.042 186.832 274.251 163.365 281.579C151.302 285.378 140.235 291.305 130.837 298.999C121.439 306.693 113.904 315.996 108.69 326.342Z" fill="#161616"/>
<path d="M102.593 317.807L100.91 317.095C112.503 295.475 131.595 280.504 157.643 272.581C180.567 266.096 192.684 252.73 193.675 232.88C190.422 224.774 182.157 222.723 173.406 220.539C164.243 218.256 153.865 215.659 148.274 205.651L148.162 205.32C147.565 187.956 141.757 171.045 131.333 156.323C120.221 140.214 112.391 122.504 108.203 104C106.669 85.4399 117.01 73.0995 127.967 60.0313C135.353 51.2143 142.926 42.0831 146.853 30.8014L148.723 31.2811C144.778 42.8606 137.036 52.0745 129.538 61.0569C118.805 73.8605 108.651 85.9693 110.129 103.802C114.269 122.059 121.983 139.537 132.923 155.446C143.499 170.354 149.404 187.481 150.032 205.072C155.286 214.352 164.748 216.652 173.911 218.984C183.073 221.317 191.974 223.5 195.508 232.532V232.681V232.846C194.535 253.508 181.988 267.403 158.203 274.202C132.698 281.91 113.981 296.6 102.593 317.807Z" fill="#161616"/>
<path d="M95.6377 311.471L93.9922 310.71C107.399 288.08 128.398 272.564 156.372 264.624C181.035 257.792 190.703 244.773 185.935 224.923C176.163 220.35 164.813 219.17 154.109 221.614H153.959H153.81C147.471 221.217 142.927 219.53 140.291 216.569C137.654 213.608 137.037 209.869 137.953 204.99C136.483 192.097 133.036 179.442 127.706 167.373C118.268 148.639 110.618 129.239 104.838 109.376C101.547 87.8715 110.989 74.9852 120.993 61.3049C127.276 52.7196 133.783 43.8199 137.617 32.2405L139.486 32.7037C135.56 44.5147 128.996 53.5136 122.658 62.2148C112.841 75.6304 103.585 88.3016 106.763 109.062C112.517 128.812 120.129 148.101 129.52 166.728C134.938 178.987 138.442 191.843 139.935 204.94V205.072C139.075 209.588 139.73 213.095 141.805 215.51C143.881 217.925 148.125 219.547 153.847 219.927C165.114 217.43 177.03 218.776 187.225 223.699L187.599 223.881V224.245C192.76 244.988 182.4 259.099 156.858 266.195C129.445 274.003 108.82 289.238 95.6377 311.471Z" fill="#161616"/>
<path d="M87.6338 307.914L85.9883 307.154C99.4702 284.458 120.619 269.107 148.873 261.63C173.705 255.013 183.503 242.044 178.791 222.078C167.816 218.193 155.594 218.086 144.534 221.78H144.254C137.485 221.978 132.661 220.655 129.874 217.826C127.088 214.998 126.453 211.209 127.425 206.114C125.776 193.113 122.688 180.287 118.206 167.82C110.213 148.316 103.637 128.381 98.5165 108.136C95.7491 87.1934 104.257 74.6048 113.251 61.2885C118.861 52.9016 124.751 44.2501 128.36 32.9022L130.23 33.3489C126.49 44.9283 120.619 53.6625 114.915 62.1321C106.071 75.2003 97.7311 87.5573 100.424 107.871C105.533 128.023 112.078 147.869 120.02 167.29C124.56 179.908 127.691 192.89 129.37 206.048V206.28C128.453 210.961 129.127 214.551 131.352 216.734C133.577 218.918 138.027 220.291 144.123 220.043C155.736 216.2 168.563 216.389 180.025 220.572L180.492 220.738L180.605 221.168C185.728 242.077 175.275 256.171 149.49 263.069C121.647 270.596 100.873 285.632 87.6338 307.914Z" fill="#161616"/>
<path d="M78.7158 307.534L77.0703 306.773C90.4774 284.177 111.514 268.941 139.581 261.497C164.151 254.881 174.024 241.845 169.704 221.896C158.499 218.082 146.093 218.082 134.887 221.896H134.607C127.819 222.144 122.957 220.853 120.115 218.041C117.273 215.229 116.562 211.424 117.46 206.313C115.483 193.344 112.453 180.518 108.391 167.935C101.398 148.349 95.3017 128.234 90.44 108.136C87.8034 87.3092 96.0496 74.274 104.726 60.4613C109.924 52.1903 115.291 43.7538 118.862 33.0015L120.732 33.4812C116.992 44.399 111.682 52.9678 106.446 61.2719C97.8821 74.8364 89.8042 87.64 92.3473 107.871C97.2464 127.821 103.267 147.903 110.261 167.423C114.356 180.131 117.412 193.084 119.405 206.181V206.412C118.563 211.11 119.292 214.683 121.574 216.9C123.855 219.117 128.324 220.423 134.457 220.208C146.228 216.251 159.252 216.357 170.939 220.506L171.406 220.671L171.518 221.102C176.23 242.011 165.703 256.121 140.198 263.052C112.542 270.397 91.8798 285.368 78.7158 307.534Z" fill="#161616"/>
<path d="M71.3126 308.957L69.6484 308.196C75.6521 297.555 84.0602 288.117 94.3524 280.465C104.645 272.814 116.602 267.113 129.485 263.714C152.989 256.849 162.47 244.062 158.468 224.608C147.861 220.062 135.772 219 124.361 221.614H124.23H124.193C117.63 221.416 112.974 219.811 110.075 216.867C107.177 213.922 106.485 210.25 107.233 205.138C104.971 192.5 102.166 179.746 98.9309 167.257C93.1716 148.101 88.0855 128.499 83.8222 109.029C81.5222 88.6656 88.9083 74.2905 96.7057 58.8898C101.359 50.2893 105.241 41.3788 108.318 32.2405L110.188 32.6871C107.101 41.9089 103.187 50.8978 98.4821 59.568C90.7782 74.671 83.523 88.9468 85.7482 108.781C89.9928 128.152 95.0976 147.721 100.819 166.86C104.092 179.449 106.897 192.285 109.178 205.006V205.238C108.486 209.836 109.29 213.393 111.571 215.792C113.853 218.19 118.265 219.762 124.193 219.96C136.102 217.274 148.705 218.448 159.721 223.269L160.151 223.451V223.864C164.526 244.211 154.392 258.139 130.008 265.219C117.361 268.565 105.625 274.174 95.5282 281.698C85.4316 289.221 77.1894 298.499 71.3126 308.957Z" fill="#161616"/>
<path d="M65.6087 311.62L63.9258 310.908C69.1863 300.712 76.8049 291.604 86.2901 284.173C95.7753 276.742 106.916 271.153 118.994 267.767C141.04 260.554 149.754 247.916 145.64 229.124C135.925 223.424 124.302 220.827 112.692 221.763H112.449C100.314 219.91 94.835 213.823 96.1626 203.716C84.8311 183.187 81.5214 143.585 79.3336 117.349C79.1466 114.951 78.941 112.668 78.754 110.534C77.0337 90.6835 82.6807 74.1415 88.6457 56.6068C91.4318 48.4185 94.2553 39.9655 96.4431 31.0493L98.313 31.3802C96.1626 40.3625 93.283 48.8651 90.4782 57.0866C84.5506 74.4888 78.9597 90.9151 80.6613 110.402C80.8482 112.536 81.0352 114.818 81.2409 117.234C83.4474 143.436 86.7571 183.021 98.0699 203.252L98.1821 203.468V203.716C96.8732 213.045 101.66 218.422 112.786 220.258C124.905 219.306 137.026 222.068 147.117 228.082L147.454 228.264V228.595C151.904 248.23 142.554 261.977 119.686 269.487C107.844 272.777 96.9136 278.226 87.5992 285.483C78.2849 292.74 70.7936 301.644 65.6087 311.62Z" fill="#161616"/>
<path d="M61.2703 315.259L59.5312 314.631C63.758 305.008 70.3135 296.32 78.7378 289.175C87.1622 282.031 97.2515 276.604 108.298 273.275C128.474 265.534 136.141 253.011 131.653 235.03C122.925 227.901 111.895 223.366 100.108 222.061H99.9208C88.5706 218.455 83.4471 211.573 84.6812 201.615C76.4537 183.204 76.0049 154.453 75.631 131.328C75.5188 124.545 75.4253 118.094 75.1448 112.47C74.0977 91.5604 77.37 70.7835 80.5301 50.7014C81.6333 43.7041 82.7739 36.4752 83.7276 29.3125L85.5975 29.511C84.6438 36.6737 83.5032 43.9192 82.4 51.0157C79.3146 70.9159 75.9676 91.6266 77.0147 112.437C77.2952 118.11 77.3887 124.529 77.5009 131.344C77.8748 154.404 78.3236 183.104 86.495 201.234V201.433V201.631C85.2796 210.945 89.8234 217.115 100.407 220.506C112.635 221.872 124.066 226.612 133.074 234.054L133.298 234.236V234.484C138.085 253.226 129.858 266.824 108.878 274.88C98.097 278.137 88.251 283.439 80.0278 290.413C71.8047 297.388 65.4029 305.868 61.2703 315.259Z" fill="#161616"/>
<path d="M57.9402 319.593L56.0703 319.13C58.6023 310.653 63.3916 302.836 70.0377 296.332C76.6838 289.828 84.9936 284.826 94.2721 281.745C111.325 274.615 119.497 262.622 118.581 246.163C116.038 235.559 106.726 230.398 96.8712 224.923C86.6055 219.232 75.9846 213.343 72.1887 200.722C66.6913 182.525 68.692 159.664 70.6367 137.564C71.5717 127.06 72.5066 117.134 72.5066 108.202C72.5066 95.5635 71.983 82.76 71.4782 70.3865C70.8985 56.2595 70.3001 41.6529 70.4871 27.2281H72.357C72.17 41.6198 72.7684 56.2099 73.348 70.2376C73.8529 82.6442 74.3765 95.4477 74.3765 108.119C74.3765 117.118 73.4789 127.076 72.5066 137.614C70.6367 159.565 68.5798 182.277 73.9838 200.209C77.5927 212.185 87.9145 217.909 97.8623 223.368C107.81 228.827 117.72 234.385 120.432 245.799C121.479 263.135 112.952 275.575 95.0948 283.118C86.0525 286.121 77.9579 291.002 71.4922 297.349C65.0264 303.697 60.3787 311.325 57.9402 319.593Z" fill="#161616"/>
<path d="M55.2488 324.407L53.3789 324.109C56.7447 307.749 66.9917 295.888 83.858 288.891C98.4805 281.215 104.932 269.619 102.912 254.483C100.706 242.573 91.6929 235.311 82.2125 227.636C72.3582 219.662 62.1674 211.424 59.7739 197.496C56.8569 180.954 60.9893 163.32 65.0096 146.215C67.7583 134.471 70.6192 122.329 71.0119 110.931C71.6103 93.5785 67.5152 76.6063 63.5324 60.1965C60.4591 48.5574 58.149 36.7708 56.6138 24.8957L58.4837 24.7468C60.0037 36.556 62.3013 48.2767 65.3649 59.8491C69.3477 76.3912 73.4615 93.4296 72.8444 110.981C72.433 122.56 69.5721 134.735 66.8047 146.563C62.8218 163.502 58.7081 181.003 61.5877 197.215C63.9438 210.581 73.8916 218.62 83.5215 226.395C92.8709 233.938 102.482 241.729 104.801 254.235C106.914 270.132 100.163 282.258 84.7743 290.33C77.0032 293.346 70.2208 298.052 65.0584 304.01C59.896 309.968 56.5214 316.985 55.2488 324.407Z" fill="#161616"/>
<path d="M52.7799 329.634L51.0035 329.121C54.5189 319.411 61.8114 311.123 68.8796 303.117C79.7062 290.81 89.9345 279.181 87.0736 263.135C84.7923 250.282 76.06 240.605 67.6081 231.242C58.0717 220.671 48.2174 209.737 47.2076 194.138C46.1979 178.539 52.5181 163.965 58.6139 149.855C63.6439 138.275 68.8422 126.216 69.8332 113.793C71.4226 94.604 63.2512 75.746 55.3416 57.6324C50.3677 46.1688 45.2069 34.3081 42.5703 22.497L44.4402 22.1827C47.0393 33.7622 52.1628 45.6394 57.118 57.0369C65.1024 75.3821 73.3486 94.3559 71.7218 113.925C70.6747 126.58 65.439 138.738 60.3529 150.45C54.3319 164.395 48.0865 178.836 49.1336 194.039C50.1807 209.241 59.792 219.844 69.1414 230.2C77.7429 239.728 86.6435 249.587 88.9996 262.87C91.9914 279.644 81.0339 292.083 70.4316 304.126C63.3821 312.033 56.2018 320.205 52.7799 329.634Z" fill="#161616"/>
<path d="M50.333 334.58L48.4631 334.299C50.4265 324.639 55.363 316.516 60.1125 308.675C66.1522 298.75 71.8554 289.354 71.7619 277.246C71.6497 261.646 62.6555 248.346 53.9606 235.477C44.8168 221.962 35.3552 207.984 35.9535 191.177C36.4771 176.091 44.312 163.701 51.8663 151.708C57.8873 142.13 64.1327 132.254 66.6384 121.039C71.5936 99.2029 58.7475 77.1854 46.3875 55.9288C39.5063 44.1012 32.3821 31.8766 28.6797 20.0821L30.5496 19.6355C34.1772 31.215 40.9461 42.8771 48.1078 55.1844C60.636 76.6892 73.6131 98.9217 68.5644 121.353C65.9839 132.816 59.6637 142.858 53.6053 152.485C45.8078 164.859 38.4592 176.537 37.9356 191.21C37.356 207.521 46.668 221.3 55.6808 234.617C64.5067 247.668 73.6318 261.167 73.744 277.212C73.8375 289.735 67.7603 299.743 61.8702 309.436C57.0833 317.195 52.2403 325.184 50.333 334.58Z" fill="#161616"/>
<path d="M45.6572 339.262C44.8344 329.204 47.9571 320.304 50.9677 311.702C53.8286 303.531 56.783 295.16 56.3716 285.649C55.6798 269.867 47.6954 255.062 39.9727 240.737C31.0534 224.195 21.8348 207.107 23.9852 188.53C25.7616 173.212 35.5785 162.443 45.0775 152.022C52.8563 143.486 60.9155 134.669 64.5056 123.354C71.4803 101.403 53.9782 77.0363 37.0744 53.348C28.0429 40.7264 19.4975 28.8161 15.1406 17.7991L16.8983 17.2532C21.1991 28.0882 29.6697 39.9324 38.6451 52.4713C55.792 76.4077 73.4998 101.155 66.3007 123.801C62.561 135.38 54.427 144.396 46.536 153.064C36.7752 163.766 27.5567 173.874 25.8364 188.695C23.7421 206.892 32.4558 222.954 41.6743 239.976C49.4717 254.45 57.5497 269.404 58.2415 285.533C58.6529 295.26 55.6611 303.845 52.744 312.133C49.6587 320.999 46.723 329.353 47.5271 339.096L45.6572 339.262Z" fill="#161616"/>
<path d="M41.9179 343.48C41.0764 334.567 40.914 325.614 41.4317 316.682C42.075 306.656 41.7497 296.601 40.4594 286.625C38.4212 274.053 32.4189 260.637 26.0613 246.427C16.7118 225.667 7.15672 204.212 10.5412 184.974C13.2899 169.275 25.6499 160.276 37.5985 151.575C46.2373 145.289 55.1754 138.788 60.3924 129.789C73.0328 108.02 48.4999 77.6981 26.9588 51.0323C16.3192 37.9971 6.39007 25.7394 1.90234 15.7811L3.64132 15.1855C8.01686 24.9454 17.9086 37.1535 28.3799 50.0728C50.3324 77.1688 75.2206 107.97 62.0379 130.55C56.6339 139.847 47.565 146.447 38.7765 152.849C26.5475 161.748 15.0102 170.152 12.355 185.222C9.064 204.03 18.5817 225.27 27.7816 245.815C34.1766 260.124 40.235 273.623 42.2919 286.393C43.5964 296.463 43.9279 306.612 43.2829 316.731C42.7646 325.586 42.927 334.462 43.7691 343.298L41.9179 343.48Z" fill="#161616"/>
<path d="M37.1115 346.821C36.0082 336.268 33.6709 325.565 31.4083 315.226C29.7628 307.699 28.0425 299.925 26.8271 292.233C24.9572 280.041 19.3475 266.146 13.7379 251.423C4.38845 227.553 -5.37234 202.872 -0.82852 182.774C2.91125 166.43 16.7858 158.688 30.249 151.195C39.9724 145.785 50.0137 140.211 56.1843 131.344C68.376 114.008 55.6047 99.1698 43.2634 84.8113C41.5244 82.7766 39.7854 80.775 38.1586 78.7734C33.2782 72.8348 28.5848 67.4586 24.041 62.2313C10.8396 47.1449 -0.566741 34.1097 -10.4023 14.0773L-8.68204 13.4321C1.06007 33.2826 12.3916 46.2186 25.5182 61.2222C30.062 66.433 34.7741 71.8257 39.6732 77.7643C41.3 79.7328 43.0203 81.7344 44.7593 83.7526C56.8949 97.863 70.6385 113.859 57.8485 132.171C51.4535 141.286 41.2252 146.976 31.3335 152.468C17.5899 160.111 4.61286 167.356 1.07877 182.989C-3.35286 202.641 6.25836 227.106 15.5704 250.811C21.3857 265.616 26.7897 279.578 28.8279 291.935C30.0433 299.577 31.7449 307.352 33.3904 314.846C35.9018 325.34 37.8115 335.941 39.1123 346.606L37.1115 346.821Z" fill="#161616"/>
<path d="M30.8293 349.071C30.2496 339.262 26.5472 330.379 22.6205 320.95C19.3482 313.076 15.945 304.92 14.5239 296.137C12.654 284.325 7.62401 270.347 2.31354 255.542C-7.0359 229.24 -16.8341 202.062 -11.6545 181.285C-7.39119 164.246 7.62399 157.547 22.1343 151.062C32.6992 146.348 43.6193 141.484 50.4444 132.651C63.6832 115.447 49.3038 99.7488 36.6072 85.9196C34.5504 83.6864 32.6244 81.569 30.8106 79.4681C25.3505 73.1491 20.0961 67.4917 15.0287 62.0162C0.873699 46.781 -11.3367 33.63 -21.8828 13.0516L-20.1812 12.3734C-9.74724 32.7367 2.40701 45.8215 16.4686 60.9741C21.5546 66.4495 26.8277 72.1235 32.2878 78.4591C34.1577 80.5434 36.0276 82.6442 38.047 84.8774C51.1362 99.1698 66.0954 115.364 51.9777 133.577C44.8908 142.775 33.765 147.737 22.9945 152.535C8.20367 159.151 -5.76438 165.355 -9.82204 181.649C-14.9081 201.979 -5.24081 228.943 4.08992 255.029C9.4191 269.917 14.4491 283.962 16.3751 295.905C17.7588 304.523 21.1246 312.596 24.3782 320.404C28.1179 329.502 32.1008 338.914 32.6992 348.972L30.8293 349.071Z" fill="#161616"/>
<path d="M24.6015 349.964H22.7316C22.7316 343.232 20.2446 339.295 17.552 335.077C16.1335 332.95 14.8839 330.739 13.8122 328.46C8.93181 317.575 6.23917 311.587 3.90181 298.039C1.91973 286.592 -2.69889 272.911 -7.59799 258.42C-16.536 231.953 -26.6521 202.177 -21.5099 180.673C-17.2092 162.84 -1.61436 156.835 13.4756 151.029C24.5266 146.778 35.9143 142.394 43.0946 133.379C56.7261 116.208 41.7296 100.295 28.4908 86.1842C26.4153 83.9676 24.4332 81.8833 22.6194 79.8155C16.7666 73.1987 11.1196 67.3262 5.6782 61.6192C-8.85082 46.5328 -21.379 33.4977 -32 12.5388L-30.2984 11.8606C-19.7896 32.6044 -7.33619 45.5568 7.09933 60.544C12.5594 66.2344 18.2065 72.1234 24.0966 78.7403C25.9665 80.7749 27.8364 82.8592 29.9306 85.0593C42.9076 98.872 59.0635 116.059 44.6279 134.256C37.1484 143.651 25.5177 148.151 14.2236 152.452C-1.10947 158.357 -15.5824 163.915 -19.6775 180.921C-24.7261 201.913 -14.6661 231.606 -5.80289 257.808C-0.885086 272.349 3.75223 286.079 5.75301 297.642C8.07167 311.008 10.5586 316.582 15.5512 327.699C16.6196 329.932 17.8695 332.093 19.291 334.167C22.0023 338.65 24.6576 342.785 24.6015 349.964Z" fill="#161616"/>
</g>
</svg>
