<svg width="269" height="202" viewBox="0 0 269 202" fill="none" xmlns="http://www.w3.org/2000/svg">
<rect x="91" y="0.5" width="87" height="87" rx="43.5" fill="white"/>
<rect x="91" y="0.5" width="87" height="87" rx="43.5" stroke="#A0A0A0"/>
<path d="M133.497 25.4113L118.898 33.84C118.28 34.1972 117.898 34.8575 117.898 35.572V52.4293C117.898 53.1438 118.28 53.8041 118.898 54.1613L133.497 62.59C134.116 62.9472 134.878 62.9472 135.497 62.59L150.096 54.1613C150.715 53.8041 151.096 53.1438 151.096 52.4293V35.572C151.096 34.8575 150.715 34.1972 150.096 33.84L135.497 25.4113C134.878 25.0541 134.116 25.0541 133.497 25.4113Z" stroke="#161616" stroke-opacity="0.5" stroke-width="2"/>
<path d="M15.7624 118V107.2H22.5874V108.467H17.0974V118H15.7624ZM26.0386 118.225C25.2336 118.225 24.5386 118.043 23.9536 117.677C23.3736 117.312 22.9261 116.807 22.6111 116.162C22.2961 115.517 22.1386 114.777 22.1386 113.942C22.1386 113.092 22.2986 112.347 22.6186 111.707C22.9386 111.067 23.3911 110.57 23.9761 110.215C24.5611 109.855 25.2486 109.675 26.0386 109.675C26.8486 109.675 27.5461 109.857 28.1311 110.222C28.7161 110.582 29.1636 111.085 29.4736 111.73C29.7886 112.37 29.9461 113.107 29.9461 113.942C29.9461 114.787 29.7886 115.532 29.4736 116.177C29.1586 116.817 28.7086 117.32 28.1236 117.685C27.5386 118.045 26.8436 118.225 26.0386 118.225ZM26.0386 116.957C26.8786 116.957 27.5036 116.677 27.9136 116.117C28.3236 115.557 28.5286 114.832 28.5286 113.942C28.5286 113.027 28.3211 112.3 27.9061 111.76C27.4911 111.215 26.8686 110.942 26.0386 110.942C25.4736 110.942 25.0086 111.07 24.6436 111.325C24.2786 111.58 24.0061 111.932 23.8261 112.382C23.6461 112.832 23.5561 113.352 23.5561 113.942C23.5561 114.852 23.7661 115.582 24.1861 116.132C24.6061 116.682 25.2236 116.957 26.0386 116.957ZM35.0099 118.225C34.1899 118.225 33.4924 118.043 32.9174 117.677C32.3474 117.307 31.9124 116.8 31.6124 116.155C31.3124 115.51 31.1574 114.775 31.1474 113.95C31.1574 113.105 31.3149 112.362 31.6199 111.722C31.9299 111.077 32.3724 110.575 32.9474 110.215C33.5224 109.855 34.2149 109.675 35.0249 109.675C35.8799 109.675 36.6149 109.885 37.2299 110.305C37.8499 110.725 38.2649 111.3 38.4749 112.03L37.1549 112.427C36.9849 111.957 36.7074 111.592 36.3224 111.332C35.9424 111.072 35.5049 110.942 35.0099 110.942C34.4549 110.942 33.9974 111.072 33.6374 111.332C33.2774 111.587 33.0099 111.942 32.8349 112.397C32.6599 112.847 32.5699 113.365 32.5649 113.95C32.5749 114.85 32.7824 115.577 33.1874 116.132C33.5974 116.682 34.2049 116.957 35.0099 116.957C35.5399 116.957 35.9799 116.837 36.3299 116.597C36.6799 116.352 36.9449 116 37.1249 115.54L38.4749 115.892C38.1949 116.647 37.7574 117.225 37.1624 117.625C36.5674 118.025 35.8499 118.225 35.0099 118.225ZM40.8376 121.6L42.4051 117.34L42.4276 118.6L38.8876 109.9H40.2901L43.0651 116.898H42.5851L45.1876 109.9H46.5451L42.1351 121.6H40.8376ZM46.8909 119.8V116.898C47.3459 116.898 47.6709 116.75 47.8659 116.455C48.0609 116.155 48.2184 115.662 48.3384 114.977C48.4184 114.547 48.4834 114.087 48.5334 113.597C48.5834 113.107 48.6259 112.562 48.6609 111.962C48.7009 111.357 48.7384 110.67 48.7734 109.9H54.3534V116.898H55.1409V119.8H53.8659V118H48.1659V119.8H46.8909ZM48.9459 116.898H53.0184V111.002H49.9809C49.9659 111.357 49.9459 111.73 49.9209 112.12C49.8959 112.505 49.8659 112.89 49.8309 113.275C49.8009 113.66 49.7634 114.025 49.7184 114.37C49.6784 114.71 49.6309 115.015 49.5759 115.285C49.5109 115.66 49.4359 115.977 49.3509 116.237C49.2659 116.497 49.1309 116.717 48.9459 116.898ZM58.9487 118.225C58.3437 118.225 57.8362 118.115 57.4262 117.895C57.0212 117.67 56.7137 117.375 56.5037 117.01C56.2987 116.645 56.1962 116.245 56.1962 115.81C56.1962 115.385 56.2762 115.017 56.4362 114.707C56.6012 114.392 56.8312 114.132 57.1262 113.927C57.4212 113.717 57.7737 113.552 58.1837 113.432C58.5687 113.327 58.9987 113.237 59.4737 113.162C59.9537 113.082 60.4387 113.01 60.9287 112.945C61.4187 112.88 61.8762 112.817 62.3012 112.757L61.8212 113.035C61.8362 112.315 61.6912 111.782 61.3862 111.437C61.0862 111.092 60.5662 110.92 59.8262 110.92C59.3362 110.92 58.9062 111.032 58.5362 111.257C58.1712 111.477 57.9137 111.837 57.7637 112.337L56.4962 111.955C56.6912 111.245 57.0687 110.687 57.6287 110.282C58.1887 109.877 58.9262 109.675 59.8412 109.675C60.5762 109.675 61.2062 109.807 61.7312 110.072C62.2612 110.332 62.6412 110.727 62.8712 111.257C62.9862 111.507 63.0587 111.78 63.0887 112.075C63.1187 112.365 63.1337 112.67 63.1337 112.99V118H61.9487V116.057L62.2262 116.237C61.9212 116.892 61.4937 117.387 60.9437 117.722C60.3987 118.058 59.7337 118.225 58.9487 118.225ZM59.1512 117.107C59.6312 117.107 60.0462 117.022 60.3962 116.852C60.7512 116.677 61.0362 116.45 61.2512 116.17C61.4662 115.885 61.6062 115.575 61.6712 115.24C61.7462 114.99 61.7862 114.712 61.7912 114.407C61.8012 114.097 61.8062 113.86 61.8062 113.695L62.2712 113.897C61.8362 113.957 61.4087 114.015 60.9887 114.07C60.5687 114.125 60.1712 114.185 59.7962 114.25C59.4212 114.31 59.0837 114.382 58.7837 114.467C58.5637 114.537 58.3562 114.627 58.1612 114.737C57.9712 114.847 57.8162 114.99 57.6962 115.165C57.5812 115.335 57.5237 115.547 57.5237 115.802C57.5237 116.022 57.5787 116.232 57.6887 116.432C57.8037 116.632 57.9787 116.795 58.2137 116.92C58.4537 117.045 58.7662 117.107 59.1512 117.107ZM68.8037 118.225C68.0437 118.225 67.4037 118.038 66.8837 117.662C66.3637 117.282 65.9687 116.77 65.6987 116.125C65.4337 115.475 65.3012 114.747 65.3012 113.942C65.3012 113.127 65.4337 112.397 65.6987 111.752C65.9687 111.107 66.3637 110.6 66.8837 110.23C67.4087 109.86 68.0512 109.675 68.8112 109.675C69.5612 109.675 70.2062 109.862 70.7462 110.237C71.2912 110.607 71.7087 111.115 71.9987 111.76C72.2887 112.405 72.4337 113.132 72.4337 113.942C72.4337 114.752 72.2887 115.48 71.9987 116.125C71.7087 116.77 71.2912 117.282 70.7462 117.662C70.2062 118.038 69.5587 118.225 68.8037 118.225ZM65.0762 121.6V109.9H66.2687V115.862H66.4187V121.6H65.0762ZM68.6387 117.002C69.1737 117.002 69.6162 116.867 69.9662 116.597C70.3162 116.327 70.5787 115.962 70.7537 115.502C70.9287 115.037 71.0162 114.517 71.0162 113.942C71.0162 113.372 70.9287 112.857 70.7537 112.397C70.5837 111.937 70.3187 111.572 69.9587 111.302C69.6037 111.032 69.1512 110.897 68.6012 110.897C68.0762 110.897 67.6412 111.027 67.2962 111.287C66.9512 111.542 66.6937 111.9 66.5237 112.36C66.3537 112.815 66.2687 113.342 66.2687 113.942C66.2687 114.532 66.3512 115.06 66.5162 115.525C66.6862 115.985 66.9462 116.347 67.2962 116.612C67.6462 116.872 68.0937 117.002 68.6387 117.002ZM77.4903 118.225C76.6703 118.225 75.9728 118.043 75.3978 117.677C74.8278 117.307 74.3928 116.8 74.0928 116.155C73.7928 115.51 73.6378 114.775 73.6278 113.95C73.6378 113.105 73.7953 112.362 74.1003 111.722C74.4103 111.077 74.8528 110.575 75.4278 110.215C76.0028 109.855 76.6953 109.675 77.5053 109.675C78.3603 109.675 79.0953 109.885 79.7103 110.305C80.3303 110.725 80.7453 111.3 80.9553 112.03L79.6353 112.427C79.4653 111.957 79.1878 111.592 78.8028 111.332C78.4228 111.072 77.9853 110.942 77.4903 110.942C76.9353 110.942 76.4778 111.072 76.1178 111.332C75.7578 111.587 75.4903 111.942 75.3153 112.397C75.1403 112.847 75.0503 113.365 75.0453 113.95C75.0553 114.85 75.2628 115.577 75.6678 116.132C76.0778 116.682 76.6853 116.957 77.4903 116.957C78.0203 116.957 78.4603 116.837 78.8103 116.597C79.1603 116.352 79.4253 116 79.6053 115.54L80.9553 115.892C80.6753 116.647 80.2378 117.225 79.6428 117.625C79.0478 118.025 78.3303 118.225 77.4903 118.225ZM84.4846 118V111.115H81.6646V109.9H88.6396V111.115H85.8196V118H84.4846ZM90.0518 118V109.9H93.5018C93.7068 109.9 93.9268 109.912 94.1618 109.937C94.4018 109.957 94.6193 109.995 94.8143 110.05C95.2493 110.165 95.6068 110.402 95.8868 110.762C96.1718 111.117 96.3143 111.567 96.3143 112.112C96.3143 112.417 96.2668 112.682 96.1718 112.907C96.0818 113.132 95.9518 113.327 95.7818 113.492C95.7068 113.567 95.6243 113.635 95.5343 113.695C95.4443 113.755 95.3543 113.802 95.2643 113.837C95.4393 113.867 95.6168 113.935 95.7968 114.04C96.0818 114.195 96.3043 114.412 96.4643 114.692C96.6293 114.972 96.7118 115.33 96.7118 115.765C96.7118 116.315 96.5793 116.77 96.3143 117.13C96.0493 117.485 95.6843 117.73 95.2193 117.865C95.0243 117.92 94.8093 117.957 94.5743 117.977C94.3393 117.992 94.1118 118 93.8918 118H90.0518ZM91.4018 116.912H93.8168C93.9218 116.912 94.0468 116.902 94.1918 116.882C94.3418 116.862 94.4743 116.837 94.5893 116.807C94.8493 116.732 95.0368 116.592 95.1518 116.387C95.2718 116.182 95.3318 115.96 95.3318 115.72C95.3318 115.4 95.2418 115.14 95.0618 114.94C94.8868 114.74 94.6543 114.615 94.3643 114.565C94.2593 114.535 94.1443 114.517 94.0193 114.512C93.8993 114.507 93.7918 114.505 93.6968 114.505H91.4018V116.912ZM91.4018 113.402H93.4118C93.5518 113.402 93.6993 113.395 93.8543 113.38C94.0093 113.36 94.1443 113.327 94.2593 113.282C94.4893 113.197 94.6568 113.057 94.7618 112.862C94.8718 112.662 94.9268 112.445 94.9268 112.21C94.9268 111.95 94.8668 111.722 94.7468 111.527C94.6318 111.327 94.4543 111.19 94.2143 111.115C94.0543 111.055 93.8743 111.022 93.6743 111.017C93.4793 111.007 93.3543 111.002 93.2993 111.002H91.4018V113.402ZM101.728 118.225C100.933 118.225 100.238 118.05 99.6435 117.7C99.0535 117.345 98.5935 116.852 98.2635 116.222C97.9335 115.587 97.7685 114.847 97.7685 114.002C97.7685 113.117 97.931 112.352 98.256 111.707C98.581 111.057 99.0335 110.557 99.6135 110.207C100.198 109.852 100.883 109.675 101.668 109.675C102.483 109.675 103.176 109.862 103.746 110.237C104.321 110.612 104.751 111.147 105.036 111.842C105.326 112.537 105.451 113.365 105.411 114.325H104.061V113.845C104.046 112.85 103.843 112.107 103.453 111.617C103.063 111.122 102.483 110.875 101.713 110.875C100.888 110.875 100.261 111.14 99.831 111.67C99.401 112.2 99.186 112.96 99.186 113.95C99.186 114.905 99.401 115.645 99.831 116.17C100.261 116.695 100.873 116.957 101.668 116.957C102.203 116.957 102.668 116.835 103.063 116.59C103.458 116.345 103.768 115.992 103.993 115.532L105.276 115.975C104.961 116.69 104.486 117.245 103.851 117.64C103.221 118.03 102.513 118.225 101.728 118.225ZM98.736 114.325V113.252H104.721V114.325H98.736ZM107.073 118V109.9H108.408V113.312H112.668V109.9H114.003V118H112.668V114.58H108.408V118H107.073ZM116.097 118V109.9H117.432V113.312H121.692V109.9H123.027V118H121.692V114.58H117.432V118H116.097ZM125.128 118L125.12 109.9H126.463V112.832H127.7C127.935 112.832 128.175 112.837 128.42 112.847C128.665 112.857 128.878 112.88 129.058 112.915C129.478 113 129.845 113.142 130.16 113.342C130.475 113.542 130.72 113.812 130.895 114.152C131.07 114.492 131.158 114.915 131.158 115.42C131.158 116.12 130.975 116.675 130.61 117.085C130.25 117.49 129.778 117.76 129.193 117.895C128.993 117.94 128.763 117.97 128.503 117.985C128.248 117.995 128.005 118 127.775 118H125.128ZM126.463 116.898H127.798C127.948 116.898 128.115 116.892 128.3 116.882C128.485 116.872 128.65 116.847 128.795 116.807C129.05 116.732 129.278 116.585 129.478 116.365C129.683 116.145 129.785 115.83 129.785 115.42C129.785 115.005 129.685 114.685 129.485 114.46C129.29 114.235 129.033 114.087 128.713 114.017C128.568 113.982 128.415 113.96 128.255 113.95C128.095 113.94 127.943 113.935 127.798 113.935H126.463V116.898ZM132.088 118V109.9H133.423V118H132.088ZM135.521 118V109.9H136.668L139.743 116.185L142.818 109.9H143.966V118H142.676V112.682L140.096 118H139.391L136.811 112.682V118H135.521ZM149.056 118V109.9H155.693V118H154.358V111.167H150.391V118H149.056ZM161.514 118.225C160.754 118.225 160.114 118.038 159.594 117.662C159.074 117.282 158.679 116.77 158.409 116.125C158.144 115.475 158.011 114.747 158.011 113.942C158.011 113.127 158.144 112.397 158.409 111.752C158.679 111.107 159.074 110.6 159.594 110.23C160.119 109.86 160.761 109.675 161.521 109.675C162.271 109.675 162.916 109.862 163.456 110.237C164.001 110.607 164.419 111.115 164.709 111.76C164.999 112.405 165.144 113.132 165.144 113.942C165.144 114.752 164.999 115.48 164.709 116.125C164.419 116.77 164.001 117.282 163.456 117.662C162.916 118.038 162.269 118.225 161.514 118.225ZM157.786 121.6V109.9H158.979V115.862H159.129V121.6H157.786ZM161.349 117.002C161.884 117.002 162.326 116.867 162.676 116.597C163.026 116.327 163.289 115.962 163.464 115.502C163.639 115.037 163.726 114.517 163.726 113.942C163.726 113.372 163.639 112.857 163.464 112.397C163.294 111.937 163.029 111.572 162.669 111.302C162.314 111.032 161.861 110.897 161.311 110.897C160.786 110.897 160.351 111.027 160.006 111.287C159.661 111.542 159.404 111.9 159.234 112.36C159.064 112.815 158.979 113.342 158.979 113.942C158.979 114.532 159.061 115.06 159.226 115.525C159.396 115.985 159.656 116.347 160.006 116.612C160.356 116.872 160.804 117.002 161.349 117.002ZM170.298 118.225C169.503 118.225 168.808 118.05 168.213 117.7C167.623 117.345 167.163 116.852 166.833 116.222C166.503 115.587 166.338 114.847 166.338 114.002C166.338 113.117 166.5 112.352 166.825 111.707C167.15 111.057 167.603 110.557 168.183 110.207C168.768 109.852 169.453 109.675 170.238 109.675C171.053 109.675 171.745 109.862 172.315 110.237C172.89 110.612 173.32 111.147 173.605 111.842C173.895 112.537 174.02 113.365 173.98 114.325H172.63V113.845C172.615 112.85 172.413 112.107 172.023 111.617C171.633 111.122 171.053 110.875 170.283 110.875C169.458 110.875 168.83 111.14 168.4 111.67C167.97 112.2 167.755 112.96 167.755 113.95C167.755 114.905 167.97 115.645 168.4 116.17C168.83 116.695 169.443 116.957 170.238 116.957C170.773 116.957 171.238 116.835 171.633 116.59C172.028 116.345 172.338 115.992 172.563 115.532L173.845 115.975C173.53 116.69 173.055 117.245 172.42 117.64C171.79 118.03 171.083 118.225 170.298 118.225ZM167.305 114.325V113.252H173.29V114.325H167.305ZM175.05 119.8V116.898C175.505 116.898 175.83 116.75 176.025 116.455C176.22 116.155 176.378 115.662 176.498 114.977C176.578 114.547 176.643 114.087 176.693 113.597C176.743 113.107 176.785 112.562 176.82 111.962C176.86 111.357 176.898 110.67 176.933 109.9H182.513V116.898H183.3V119.8H182.025V118H176.325V119.8H175.05ZM177.105 116.898H181.178V111.002H178.14C178.125 111.357 178.105 111.73 178.08 112.12C178.055 112.505 178.025 112.89 177.99 113.275C177.96 113.66 177.923 114.025 177.878 114.37C177.838 114.71 177.79 115.015 177.735 115.285C177.67 115.66 177.595 115.977 177.51 116.237C177.425 116.497 177.29 116.717 177.105 116.898ZM184.798 118V109.9H191.435V118H190.1V111.167H186.133V118H184.798ZM197.256 118.225C196.496 118.225 195.856 118.038 195.336 117.662C194.816 117.282 194.421 116.77 194.151 116.125C193.886 115.475 193.753 114.747 193.753 113.942C193.753 113.127 193.886 112.397 194.151 111.752C194.421 111.107 194.816 110.6 195.336 110.23C195.861 109.86 196.503 109.675 197.263 109.675C198.013 109.675 198.658 109.862 199.198 110.237C199.743 110.607 200.161 111.115 200.451 111.76C200.741 112.405 200.886 113.132 200.886 113.942C200.886 114.752 200.741 115.48 200.451 116.125C200.161 116.77 199.743 117.282 199.198 117.662C198.658 118.038 198.011 118.225 197.256 118.225ZM193.528 121.6V109.9H194.721V115.862H194.871V121.6H193.528ZM197.091 117.002C197.626 117.002 198.068 116.867 198.418 116.597C198.768 116.327 199.031 115.962 199.206 115.502C199.381 115.037 199.468 114.517 199.468 113.942C199.468 113.372 199.381 112.857 199.206 112.397C199.036 111.937 198.771 111.572 198.411 111.302C198.056 111.032 197.603 110.897 197.053 110.897C196.528 110.897 196.093 111.027 195.748 111.287C195.403 111.542 195.146 111.9 194.976 112.36C194.806 112.815 194.721 113.342 194.721 113.942C194.721 114.532 194.803 115.06 194.968 115.525C195.138 115.985 195.398 116.347 195.748 116.612C196.098 116.872 196.546 117.002 197.091 117.002ZM209.16 109.9V118H207.87V112.03L203.625 118H202.522V109.9H203.812V115.787L208.065 109.9H209.16ZM216.263 118V115.067H214.515C214.31 115.067 214.083 115.06 213.833 115.045C213.588 115.025 213.358 114.997 213.143 114.962C212.558 114.852 212.063 114.595 211.658 114.19C211.258 113.785 211.058 113.225 211.058 112.51C211.058 111.815 211.245 111.257 211.62 110.837C212 110.412 212.468 110.137 213.023 110.012C213.273 109.952 213.525 109.92 213.78 109.915C214.04 109.905 214.26 109.9 214.44 109.9H217.598L217.605 118H216.263ZM210.81 118L212.963 114.7H214.403L212.25 118H210.81ZM214.418 113.965H216.263V111.002H214.418C214.303 111.002 214.15 111.007 213.96 111.017C213.775 111.027 213.598 111.057 213.428 111.107C213.268 111.152 213.11 111.235 212.955 111.355C212.805 111.475 212.68 111.63 212.58 111.82C212.48 112.01 212.43 112.235 212.43 112.495C212.43 112.87 212.535 113.175 212.745 113.41C212.955 113.64 213.21 113.795 213.51 113.875C213.675 113.915 213.838 113.94 213.998 113.95C214.163 113.96 214.303 113.965 214.418 113.965ZM221.858 118V111.115H219.038V109.9H226.013V111.115H223.193V118H221.858ZM234.062 109.9V118H232.772V112.03L228.527 118H227.425V109.9H228.715V115.787L232.967 109.9H234.062ZM239.673 118.225C238.878 118.225 238.183 118.05 237.588 117.7C236.998 117.345 236.538 116.852 236.208 116.222C235.878 115.587 235.713 114.847 235.713 114.002C235.713 113.117 235.875 112.352 236.2 111.707C236.525 111.057 236.978 110.557 237.558 110.207C238.143 109.852 238.828 109.675 239.613 109.675C240.428 109.675 241.12 109.862 241.69 110.237C242.265 110.612 242.695 111.147 242.98 111.842C243.27 112.537 243.395 113.365 243.355 114.325H242.005V113.845C241.99 112.85 241.788 112.107 241.398 111.617C241.008 111.122 240.428 110.875 239.658 110.875C238.833 110.875 238.205 111.14 237.775 111.67C237.345 112.2 237.13 112.96 237.13 113.95C237.13 114.905 237.345 115.645 237.775 116.17C238.205 116.695 238.818 116.957 239.613 116.957C240.148 116.957 240.613 116.835 241.008 116.59C241.403 116.345 241.713 115.992 241.938 115.532L243.22 115.975C242.905 116.69 242.43 117.245 241.795 117.64C241.165 118.03 240.458 118.225 239.673 118.225ZM236.68 114.325V113.252H242.665V114.325H236.68ZM244.798 118V109.9H245.945L249.02 116.185L252.095 109.9H253.243V118H251.953V112.682L249.373 118H248.668L246.088 112.682V118H244.798ZM4.77256 129.9V127.2H6.10756V129.9H4.77256ZM7.29256 129.9V127.2H8.62756V129.9H7.29256ZM19.5549 139.5V138H11.1774V127.2H12.5124V136.785H18.3924V127.35H19.7274V136.785H20.8899V139.5H19.5549ZM25.6005 138.225C24.8055 138.225 24.1105 138.05 23.5155 137.7C22.9255 137.345 22.4655 136.852 22.1355 136.222C21.8055 135.587 21.6405 134.847 21.6405 134.002C21.6405 133.117 21.803 132.352 22.128 131.707C22.453 131.057 22.9055 130.557 23.4855 130.207C24.0705 129.852 24.7555 129.675 25.5405 129.675C26.3555 129.675 27.048 129.862 27.618 130.237C28.193 130.612 28.623 131.147 28.908 131.842C29.198 132.537 29.323 133.365 29.283 134.325H27.933V133.845C27.918 132.85 27.7155 132.107 27.3255 131.617C26.9355 131.122 26.3555 130.875 25.5855 130.875C24.7605 130.875 24.133 131.14 23.703 131.67C23.273 132.2 23.058 132.96 23.058 133.95C23.058 134.905 23.273 135.645 23.703 136.17C24.133 136.695 24.7455 136.957 25.5405 136.957C26.0755 136.957 26.5405 136.835 26.9355 136.59C27.3305 136.345 27.6405 135.992 27.8655 135.532L29.148 135.975C28.833 136.69 28.358 137.245 27.723 137.64C27.093 138.03 26.3855 138.225 25.6005 138.225ZM22.608 134.325V133.252H28.593V134.325H22.608ZM30.9453 138V129.9H32.2803V133.312H36.5403V129.9H37.8753V138H36.5403V134.58H32.2803V138H30.9453ZM42.1213 138V131.115H39.3013V129.9H46.2763V131.115H43.4563V138H42.1213ZM51.416 138.225C50.656 138.225 50.016 138.038 49.496 137.662C48.976 137.282 48.581 136.77 48.311 136.125C48.046 135.475 47.9135 134.747 47.9135 133.942C47.9135 133.127 48.046 132.397 48.311 131.752C48.581 131.107 48.976 130.6 49.496 130.23C50.021 129.86 50.6635 129.675 51.4235 129.675C52.1735 129.675 52.8185 129.862 53.3585 130.237C53.9035 130.607 54.321 131.115 54.611 131.76C54.901 132.405 55.046 133.132 55.046 133.942C55.046 134.752 54.901 135.48 54.611 136.125C54.321 136.77 53.9035 137.282 53.3585 137.662C52.8185 138.038 52.171 138.225 51.416 138.225ZM47.6885 141.6V129.9H48.881V135.862H49.031V141.6H47.6885ZM51.251 137.002C51.786 137.002 52.2285 136.867 52.5785 136.597C52.9285 136.327 53.191 135.962 53.366 135.502C53.541 135.037 53.6285 134.517 53.6285 133.942C53.6285 133.372 53.541 132.857 53.366 132.397C53.196 131.937 52.931 131.572 52.571 131.302C52.216 131.032 51.7635 130.897 51.2135 130.897C50.6885 130.897 50.2535 131.027 49.9085 131.287C49.5635 131.542 49.306 131.9 49.136 132.36C48.966 132.815 48.881 133.342 48.881 133.942C48.881 134.532 48.9635 135.06 49.1285 135.525C49.2985 135.985 49.5585 136.347 49.9085 136.612C50.2585 136.872 50.706 137.002 51.251 137.002ZM66.5931 139.5V138H59.6856V129.9H61.0206V136.732H64.9881V129.9H66.3231V136.785H67.9281V139.5H66.5931ZM75.7567 129.9V138H74.4667V132.03L70.2217 138H69.1192V129.9H70.4092V135.787L74.6617 129.9H75.7567ZM81.6821 141.375V138.15C80.8921 138.275 80.1721 138.19 79.5221 137.895C78.8771 137.595 78.3621 137.112 77.9771 136.447C77.5971 135.777 77.4071 134.947 77.4071 133.957C77.4071 132.962 77.5971 132.13 77.9771 131.46C78.3621 130.79 78.8771 130.307 79.5221 130.012C80.1721 129.712 80.8921 129.625 81.6821 129.75V127.282H82.8971V129.75C83.6871 129.625 84.4046 129.712 85.0496 130.012C85.6996 130.307 86.2146 130.79 86.5946 131.46C86.9796 132.13 87.1721 132.962 87.1721 133.957C87.1721 134.947 86.9796 135.777 86.5946 136.447C86.2146 137.112 85.6996 137.595 85.0496 137.895C84.4046 138.19 83.6871 138.275 82.8971 138.15V141.375H81.6821ZM81.6821 136.927V130.98C81.2771 130.91 80.8996 130.922 80.5496 131.017C80.1996 131.107 79.8921 131.277 79.6271 131.527C79.3621 131.777 79.1546 132.105 79.0046 132.51C78.8546 132.915 78.7796 133.397 78.7796 133.957C78.7796 134.512 78.8546 134.992 79.0046 135.397C79.1596 135.802 79.3696 136.13 79.6346 136.38C79.9046 136.625 80.2146 136.795 80.5646 136.89C80.9146 136.98 81.2871 136.992 81.6821 136.927ZM82.8971 136.927C83.2921 136.992 83.6646 136.98 84.0146 136.89C84.3646 136.8 84.6746 136.632 84.9446 136.387C85.2146 136.137 85.4246 135.81 85.5746 135.405C85.7246 135 85.7996 134.517 85.7996 133.957C85.7996 133.392 85.7246 132.907 85.5746 132.502C85.4296 132.097 85.2246 131.77 84.9596 131.52C84.6946 131.27 84.3846 131.1 84.0296 131.01C83.6796 130.92 83.3021 130.91 82.8971 130.98V136.927ZM92.5488 138.225C91.7888 138.225 91.1488 138.038 90.6288 137.662C90.1088 137.282 89.7138 136.77 89.4438 136.125C89.1788 135.475 89.0463 134.747 89.0463 133.942C89.0463 133.127 89.1788 132.397 89.4438 131.752C89.7138 131.107 90.1088 130.6 90.6288 130.23C91.1538 129.86 91.7963 129.675 92.5563 129.675C93.3063 129.675 93.9513 129.862 94.4913 130.237C95.0363 130.607 95.4538 131.115 95.7438 131.76C96.0338 132.405 96.1788 133.132 96.1788 133.942C96.1788 134.752 96.0338 135.48 95.7438 136.125C95.4538 136.77 95.0363 137.282 94.4913 137.662C93.9513 138.038 93.3038 138.225 92.5488 138.225ZM88.8213 141.6V129.9H90.0138V135.862H90.1638V141.6H88.8213ZM92.3838 137.002C92.9188 137.002 93.3613 136.867 93.7113 136.597C94.0613 136.327 94.3238 135.962 94.4988 135.502C94.6738 135.037 94.7613 134.517 94.7613 133.942C94.7613 133.372 94.6738 132.857 94.4988 132.397C94.3288 131.937 94.0638 131.572 93.7038 131.302C93.3488 131.032 92.8963 130.897 92.3463 130.897C91.8213 130.897 91.3863 131.027 91.0413 131.287C90.6963 131.542 90.4388 131.9 90.2688 132.36C90.0988 132.815 90.0138 133.342 90.0138 133.942C90.0138 134.532 90.0963 135.06 90.2613 135.525C90.4313 135.985 90.6913 136.347 91.0413 136.612C91.3913 136.872 91.8388 137.002 92.3838 137.002ZM101.273 138.225C100.468 138.225 99.7729 138.043 99.1879 137.677C98.6079 137.312 98.1604 136.807 97.8454 136.162C97.5304 135.517 97.3729 134.777 97.3729 133.942C97.3729 133.092 97.5329 132.347 97.8529 131.707C98.1729 131.067 98.6254 130.57 99.2104 130.215C99.7954 129.855 100.483 129.675 101.273 129.675C102.083 129.675 102.78 129.857 103.365 130.222C103.95 130.582 104.398 131.085 104.708 131.73C105.023 132.37 105.18 133.107 105.18 133.942C105.18 134.787 105.023 135.532 104.708 136.177C104.393 136.817 103.943 137.32 103.358 137.685C102.773 138.045 102.078 138.225 101.273 138.225ZM101.273 136.957C102.113 136.957 102.738 136.677 103.148 136.117C103.558 135.557 103.763 134.832 103.763 133.942C103.763 133.027 103.555 132.3 103.14 131.76C102.725 131.215 102.103 130.942 101.273 130.942C100.708 130.942 100.243 131.07 99.8779 131.325C99.5129 131.58 99.2404 131.932 99.0604 132.382C98.8804 132.832 98.7904 133.352 98.7904 133.942C98.7904 134.852 99.0004 135.582 99.4204 136.132C99.8404 136.682 100.458 136.957 101.273 136.957ZM106.824 138V129.9H110.274C110.479 129.9 110.699 129.912 110.934 129.937C111.174 129.957 111.392 129.995 111.587 130.05C112.022 130.165 112.379 130.402 112.659 130.762C112.944 131.117 113.087 131.567 113.087 132.112C113.087 132.417 113.039 132.682 112.944 132.907C112.854 133.132 112.724 133.327 112.554 133.492C112.479 133.567 112.397 133.635 112.307 133.695C112.217 133.755 112.127 133.802 112.037 133.837C112.212 133.867 112.389 133.935 112.569 134.04C112.854 134.195 113.077 134.412 113.237 134.692C113.402 134.972 113.484 135.33 113.484 135.765C113.484 136.315 113.352 136.77 113.087 137.13C112.822 137.485 112.457 137.73 111.992 137.865C111.797 137.92 111.582 137.957 111.347 137.977C111.112 137.992 110.884 138 110.664 138H106.824ZM108.174 136.912H110.589C110.694 136.912 110.819 136.902 110.964 136.882C111.114 136.862 111.247 136.837 111.362 136.807C111.622 136.732 111.809 136.592 111.924 136.387C112.044 136.182 112.104 135.96 112.104 135.72C112.104 135.4 112.014 135.14 111.834 134.94C111.659 134.74 111.427 134.615 111.137 134.565C111.032 134.535 110.917 134.517 110.792 134.512C110.672 134.507 110.564 134.505 110.469 134.505H108.174V136.912ZM108.174 133.402H110.184C110.324 133.402 110.472 133.395 110.627 133.38C110.782 133.36 110.917 133.327 111.032 133.282C111.262 133.197 111.429 133.057 111.534 132.862C111.644 132.662 111.699 132.445 111.699 132.21C111.699 131.95 111.639 131.722 111.519 131.527C111.404 131.327 111.227 131.19 110.987 131.115C110.827 131.055 110.647 131.022 110.447 131.017C110.252 131.007 110.127 131.002 110.072 131.002H108.174V133.402ZM121.621 129.9V138H120.331V132.03L116.086 138H114.983V129.9H116.273V135.787L120.526 129.9H121.621ZM126.624 138.225C125.824 138.225 125.116 138.053 124.501 137.707C123.886 137.357 123.401 136.877 123.046 136.267L124.111 135.577C124.406 136.022 124.759 136.365 125.169 136.605C125.579 136.84 126.046 136.957 126.571 136.957C127.121 136.957 127.559 136.832 127.884 136.582C128.209 136.327 128.371 135.985 128.371 135.555C128.371 135.235 128.291 134.99 128.131 134.82C127.971 134.65 127.741 134.532 127.441 134.467C127.141 134.402 126.784 134.37 126.369 134.37H125.529V133.267H126.361C126.886 133.267 127.314 133.182 127.644 133.012C127.974 132.842 128.139 132.552 128.139 132.142C128.139 131.722 127.984 131.417 127.674 131.227C127.369 131.032 127.004 130.935 126.579 130.935C126.129 130.935 125.699 131.03 125.289 131.22C124.879 131.405 124.526 131.64 124.231 131.925L123.421 131.017C123.841 130.587 124.324 130.257 124.869 130.027C125.419 129.792 126.016 129.675 126.661 129.675C127.181 129.675 127.656 129.767 128.086 129.952C128.521 130.132 128.866 130.4 129.121 130.755C129.381 131.105 129.511 131.532 129.511 132.037C129.511 132.467 129.411 132.85 129.211 133.185C129.011 133.52 128.716 133.812 128.326 134.062L128.274 133.59C128.604 133.67 128.876 133.817 129.091 134.032C129.311 134.242 129.474 134.492 129.579 134.782C129.684 135.072 129.736 135.375 129.736 135.69C129.736 136.22 129.596 136.675 129.316 137.055C129.041 137.43 128.669 137.72 128.199 137.925C127.729 138.125 127.204 138.225 126.624 138.225ZM133.685 138.225C133.08 138.225 132.573 138.115 132.163 137.895C131.758 137.67 131.45 137.375 131.24 137.01C131.035 136.645 130.933 136.245 130.933 135.81C130.933 135.385 131.013 135.017 131.173 134.707C131.338 134.392 131.568 134.132 131.863 133.927C132.158 133.717 132.51 133.552 132.92 133.432C133.305 133.327 133.735 133.237 134.21 133.162C134.69 133.082 135.175 133.01 135.665 132.945C136.155 132.88 136.613 132.817 137.038 132.757L136.558 133.035C136.573 132.315 136.428 131.782 136.123 131.437C135.823 131.092 135.303 130.92 134.563 130.92C134.073 130.92 133.643 131.032 133.273 131.257C132.908 131.477 132.65 131.837 132.5 132.337L131.233 131.955C131.428 131.245 131.805 130.687 132.365 130.282C132.925 129.877 133.663 129.675 134.578 129.675C135.313 129.675 135.943 129.807 136.468 130.072C136.998 130.332 137.378 130.727 137.608 131.257C137.723 131.507 137.795 131.78 137.825 132.075C137.855 132.365 137.87 132.67 137.87 132.99V138H136.685V136.057L136.963 136.237C136.658 136.892 136.23 137.387 135.68 137.722C135.135 138.058 134.47 138.225 133.685 138.225ZM133.888 137.107C134.368 137.107 134.783 137.022 135.133 136.852C135.488 136.677 135.773 136.45 135.988 136.17C136.203 135.885 136.343 135.575 136.408 135.24C136.483 134.99 136.523 134.712 136.528 134.407C136.538 134.097 136.543 133.86 136.543 133.695L137.008 133.897C136.573 133.957 136.145 134.015 135.725 134.07C135.305 134.125 134.908 134.185 134.533 134.25C134.158 134.31 133.82 134.382 133.52 134.467C133.3 134.537 133.093 134.627 132.898 134.737C132.708 134.847 132.553 134.99 132.433 135.165C132.318 135.335 132.26 135.547 132.26 135.802C132.26 136.022 132.315 136.232 132.425 136.432C132.54 136.632 132.715 136.795 132.95 136.92C133.19 137.045 133.503 137.107 133.888 137.107ZM146.72 139.5V138H139.813V129.9H141.148V136.732H145.115V129.9H146.45V136.785H148.055V139.5H146.72ZM155.884 129.9V138H154.594V132.03L150.349 138H149.246V129.9H150.536V135.787L154.789 129.9H155.884ZM164.614 129.9V138H163.324V132.03L159.079 138H157.977V129.9H159.267V135.787L163.519 129.9H164.614ZM176.347 129.9V138H175.057V132.03L170.812 138H169.71V129.9H171V135.787L175.252 129.9H176.347ZM181.443 138V129.9H182.591L185.666 136.185L188.741 129.9H189.888V138H188.598V132.682L186.018 138H185.313L182.733 132.682V138H181.443ZM194.286 138.225C193.681 138.225 193.173 138.115 192.763 137.895C192.358 137.67 192.051 137.375 191.841 137.01C191.636 136.645 191.533 136.245 191.533 135.81C191.533 135.385 191.613 135.017 191.773 134.707C191.938 134.392 192.168 134.132 192.463 133.927C192.758 133.717 193.111 133.552 193.521 133.432C193.906 133.327 194.336 133.237 194.811 133.162C195.291 133.082 195.776 133.01 196.266 132.945C196.756 132.88 197.213 132.817 197.638 132.757L197.158 133.035C197.173 132.315 197.028 131.782 196.723 131.437C196.423 131.092 195.903 130.92 195.163 130.92C194.673 130.92 194.243 131.032 193.873 131.257C193.508 131.477 193.251 131.837 193.101 132.337L191.833 131.955C192.028 131.245 192.406 130.687 192.966 130.282C193.526 129.877 194.263 129.675 195.178 129.675C195.913 129.675 196.543 129.807 197.068 130.072C197.598 130.332 197.978 130.727 198.208 131.257C198.323 131.507 198.396 131.78 198.426 132.075C198.456 132.365 198.471 132.67 198.471 132.99V138H197.286V136.057L197.563 136.237C197.258 136.892 196.831 137.387 196.281 137.722C195.736 138.058 195.071 138.225 194.286 138.225ZM194.488 137.107C194.968 137.107 195.383 137.022 195.733 136.852C196.088 136.677 196.373 136.45 196.588 136.17C196.803 135.885 196.943 135.575 197.008 135.24C197.083 134.99 197.123 134.712 197.128 134.407C197.138 134.097 197.143 133.86 197.143 133.695L197.608 133.897C197.173 133.957 196.746 134.015 196.326 134.07C195.906 134.125 195.508 134.185 195.133 134.25C194.758 134.31 194.421 134.382 194.121 134.467C193.901 134.537 193.693 134.627 193.498 134.737C193.308 134.847 193.153 134.99 193.033 135.165C192.918 135.335 192.861 135.547 192.861 135.802C192.861 136.022 192.916 136.232 193.026 136.432C193.141 136.632 193.316 136.795 193.551 136.92C193.791 137.045 194.103 137.107 194.488 137.107ZM204.141 138.225C203.381 138.225 202.741 138.038 202.221 137.662C201.701 137.282 201.306 136.77 201.036 136.125C200.771 135.475 200.638 134.747 200.638 133.942C200.638 133.127 200.771 132.397 201.036 131.752C201.306 131.107 201.701 130.6 202.221 130.23C202.746 129.86 203.388 129.675 204.148 129.675C204.898 129.675 205.543 129.862 206.083 130.237C206.628 130.607 207.046 131.115 207.336 131.76C207.626 132.405 207.771 133.132 207.771 133.942C207.771 134.752 207.626 135.48 207.336 136.125C207.046 136.77 206.628 137.282 206.083 137.662C205.543 138.038 204.896 138.225 204.141 138.225ZM200.413 141.6V129.9H201.606V135.862H201.756V141.6H200.413ZM203.976 137.002C204.511 137.002 204.953 136.867 205.303 136.597C205.653 136.327 205.916 135.962 206.091 135.502C206.266 135.037 206.353 134.517 206.353 133.942C206.353 133.372 206.266 132.857 206.091 132.397C205.921 131.937 205.656 131.572 205.296 131.302C204.941 131.032 204.488 130.897 203.938 130.897C203.413 130.897 202.978 131.027 202.633 131.287C202.288 131.542 202.031 131.9 201.861 132.36C201.691 132.815 201.606 133.342 201.606 133.942C201.606 134.532 201.688 135.06 201.853 135.525C202.023 135.985 202.283 136.347 202.633 136.612C202.983 136.872 203.431 137.002 203.976 137.002ZM209.407 138L209.415 129.9H210.765V133.8L214.162 129.9H215.895L212.317 133.95L216.315 138H214.447L210.765 134.1V138H209.407ZM220.278 138.225C219.483 138.225 218.788 138.05 218.193 137.7C217.603 137.345 217.143 136.852 216.813 136.222C216.483 135.587 216.318 134.847 216.318 134.002C216.318 133.117 216.481 132.352 216.806 131.707C217.131 131.057 217.583 130.557 218.163 130.207C218.748 129.852 219.433 129.675 220.218 129.675C221.033 129.675 221.726 129.862 222.296 130.237C222.871 130.612 223.301 131.147 223.586 131.842C223.876 132.537 224.001 133.365 223.961 134.325H222.611V133.845C222.596 132.85 222.393 132.107 222.003 131.617C221.613 131.122 221.033 130.875 220.263 130.875C219.438 130.875 218.811 131.14 218.381 131.67C217.951 132.2 217.736 132.96 217.736 133.95C217.736 134.905 217.951 135.645 218.381 136.17C218.811 136.695 219.423 136.957 220.218 136.957C220.753 136.957 221.218 136.835 221.613 136.59C222.008 136.345 222.318 135.992 222.543 135.532L223.826 135.975C223.511 136.69 223.036 137.245 222.401 137.64C221.771 138.03 221.063 138.225 220.278 138.225ZM217.286 134.325V133.252H223.271V134.325H217.286ZM227.629 138V131.115H224.809V129.9H231.784V131.115H228.964V138H227.629ZM239.834 129.9V138H238.544V132.03L234.299 138H233.196V129.9H234.486V135.787L238.739 129.9H239.834ZM241.927 138V129.9H243.262V133.312H247.522V129.9H248.857V138H247.522V134.58H243.262V138H241.927ZM250.958 138V129.9H256.583V131.167H252.293V138H250.958ZM260.042 138.225C259.437 138.225 258.93 138.115 258.52 137.895C258.115 137.67 257.807 137.375 257.597 137.01C257.392 136.645 257.29 136.245 257.29 135.81C257.29 135.385 257.37 135.017 257.53 134.707C257.695 134.392 257.925 134.132 258.22 133.927C258.515 133.717 258.867 133.552 259.277 133.432C259.662 133.327 260.092 133.237 260.567 133.162C261.047 133.082 261.532 133.01 262.022 132.945C262.512 132.88 262.97 132.817 263.395 132.757L262.915 133.035C262.93 132.315 262.785 131.782 262.48 131.437C262.18 131.092 261.66 130.92 260.92 130.92C260.43 130.92 260 131.032 259.63 131.257C259.265 131.477 259.007 131.837 258.857 132.337L257.59 131.955C257.785 131.245 258.162 130.687 258.722 130.282C259.282 129.877 260.02 129.675 260.935 129.675C261.67 129.675 262.3 129.807 262.825 130.072C263.355 130.332 263.735 130.727 263.965 131.257C264.08 131.507 264.152 131.78 264.182 132.075C264.212 132.365 264.227 132.67 264.227 132.99V138H263.042V136.057L263.32 136.237C263.015 136.892 262.587 137.387 262.037 137.722C261.492 138.058 260.827 138.225 260.042 138.225ZM260.245 137.107C260.725 137.107 261.14 137.022 261.49 136.852C261.845 136.677 262.13 136.45 262.345 136.17C262.56 135.885 262.7 135.575 262.765 135.24C262.84 134.99 262.88 134.712 262.885 134.407C262.895 134.097 262.9 133.86 262.9 133.695L263.365 133.897C262.93 133.957 262.502 134.015 262.082 134.07C261.662 134.125 261.265 134.185 260.89 134.25C260.515 134.31 260.177 134.382 259.877 134.467C259.657 134.537 259.45 134.627 259.255 134.737C259.065 134.847 258.91 134.99 258.79 135.165C258.675 135.335 258.617 135.547 258.617 135.802C258.617 136.022 258.672 136.232 258.782 136.432C258.897 136.632 259.072 136.795 259.307 136.92C259.547 137.045 259.86 137.107 260.245 137.107ZM19.2818 149.9V147.2H20.6168V149.9H19.2818ZM21.8018 149.9V147.2H23.1368V149.9H21.8018ZM24.9367 158L28.5517 147.2H30.4117L34.0267 158H32.6392L29.2567 147.98H29.6767L26.3242 158H24.9367ZM26.6767 155.472V154.22H32.2867V155.472H26.6767ZM35.3693 158V149.9H40.9943V151.167H36.7043V158H35.3693ZM46.1352 158.225C45.3752 158.225 44.7352 158.038 44.2152 157.662C43.6952 157.282 43.3002 156.77 43.0302 156.125C42.7652 155.475 42.6327 154.747 42.6327 153.942C42.6327 153.127 42.7652 152.397 43.0302 151.752C43.3002 151.107 43.6952 150.6 44.2152 150.23C44.7402 149.86 45.3827 149.675 46.1427 149.675C46.8927 149.675 47.5377 149.862 48.0777 150.237C48.6227 150.607 49.0402 151.115 49.3302 151.76C49.6202 152.405 49.7652 153.132 49.7652 153.942C49.7652 154.752 49.6202 155.48 49.3302 156.125C49.0402 156.77 48.6227 157.282 48.0777 157.662C47.5377 158.038 46.8902 158.225 46.1352 158.225ZM42.4077 161.6V149.9H43.6002V155.862H43.7502V161.6H42.4077ZM45.9702 157.002C46.5052 157.002 46.9477 156.867 47.2977 156.597C47.6477 156.327 47.9102 155.962 48.0852 155.502C48.2602 155.037 48.3477 154.517 48.3477 153.942C48.3477 153.372 48.2602 152.857 48.0852 152.397C47.9152 151.937 47.6502 151.572 47.2902 151.302C46.9352 151.032 46.4827 150.897 45.9327 150.897C45.4077 150.897 44.9727 151.027 44.6277 151.287C44.2827 151.542 44.0252 151.9 43.8552 152.36C43.6852 152.815 43.6002 153.342 43.6002 153.942C43.6002 154.532 43.6827 155.06 43.8477 155.525C44.0177 155.985 44.2777 156.347 44.6277 156.612C44.9777 156.872 45.4252 157.002 45.9702 157.002ZM54.8594 158.225C54.0544 158.225 53.3594 158.043 52.7744 157.677C52.1944 157.312 51.7469 156.807 51.4319 156.162C51.1169 155.517 50.9594 154.777 50.9594 153.942C50.9594 153.092 51.1194 152.347 51.4394 151.707C51.7594 151.067 52.2119 150.57 52.7969 150.215C53.3819 149.855 54.0694 149.675 54.8594 149.675C55.6694 149.675 56.3669 149.857 56.9519 150.222C57.5369 150.582 57.9844 151.085 58.2944 151.73C58.6094 152.37 58.7669 153.107 58.7669 153.942C58.7669 154.787 58.6094 155.532 58.2944 156.177C57.9794 156.817 57.5294 157.32 56.9444 157.685C56.3594 158.045 55.6644 158.225 54.8594 158.225ZM54.8594 156.957C55.6994 156.957 56.3244 156.677 56.7344 156.117C57.1444 155.557 57.3494 154.832 57.3494 153.942C57.3494 153.027 57.1419 152.3 56.7269 151.76C56.3119 151.215 55.6894 150.942 54.8594 150.942C54.2944 150.942 53.8294 151.07 53.4644 151.325C53.0994 151.58 52.8269 151.932 52.6469 152.382C52.4669 152.832 52.3769 153.352 52.3769 153.942C52.3769 154.852 52.5869 155.582 53.0069 156.132C53.4269 156.682 54.0444 156.957 54.8594 156.957ZM64.8582 158.225C63.7832 158.225 62.8707 157.987 62.1207 157.512C61.3707 157.037 60.7982 156.377 60.4032 155.532C60.0132 154.687 59.8182 153.71 59.8182 152.6C59.8182 151.49 60.0132 150.512 60.4032 149.667C60.7982 148.822 61.3707 148.162 62.1207 147.687C62.8707 147.212 63.7832 146.975 64.8582 146.975C66.1082 146.975 67.1357 147.292 67.9407 147.927C68.7507 148.562 69.3082 149.417 69.6132 150.492L68.2557 150.852C68.0357 150.047 67.6432 149.412 67.0782 148.947C66.5132 148.482 65.7732 148.25 64.8582 148.25C64.0532 148.25 63.3832 148.432 62.8482 148.797C62.3132 149.162 61.9107 149.672 61.6407 150.327C61.3707 150.977 61.2332 151.735 61.2282 152.6C61.2232 153.46 61.3557 154.217 61.6257 154.872C61.8957 155.522 62.3007 156.032 62.8407 156.402C63.3807 156.767 64.0532 156.95 64.8582 156.95C65.7732 156.95 66.5132 156.717 67.0782 156.252C67.6432 155.782 68.0357 155.147 68.2557 154.347L69.6132 154.707C69.3082 155.777 68.7507 156.632 67.9407 157.272C67.1357 157.907 66.1082 158.225 64.8582 158.225ZM71.2505 158V149.9H72.398L75.473 156.185L78.548 149.9H79.6955V158H78.4055V152.682L75.8255 158H75.1205L72.5405 152.682V158H71.2505ZM84.0927 158.225C83.4877 158.225 82.9802 158.115 82.5702 157.895C82.1652 157.67 81.8577 157.375 81.6477 157.01C81.4427 156.645 81.3402 156.245 81.3402 155.81C81.3402 155.385 81.4202 155.017 81.5802 154.707C81.7452 154.392 81.9752 154.132 82.2702 153.927C82.5652 153.717 82.9177 153.552 83.3277 153.432C83.7127 153.327 84.1427 153.237 84.6177 153.162C85.0977 153.082 85.5827 153.01 86.0727 152.945C86.5627 152.88 87.0202 152.817 87.4452 152.757L86.9652 153.035C86.9802 152.315 86.8352 151.782 86.5302 151.437C86.2302 151.092 85.7102 150.92 84.9702 150.92C84.4802 150.92 84.0502 151.032 83.6802 151.257C83.3152 151.477 83.0577 151.837 82.9077 152.337L81.6402 151.955C81.8352 151.245 82.2127 150.687 82.7727 150.282C83.3327 149.877 84.0702 149.675 84.9852 149.675C85.7202 149.675 86.3502 149.807 86.8752 150.072C87.4052 150.332 87.7852 150.727 88.0152 151.257C88.1302 151.507 88.2027 151.78 88.2327 152.075C88.2627 152.365 88.2777 152.67 88.2777 152.99V158H87.0927V156.057L87.3702 156.237C87.0652 156.892 86.6377 157.387 86.0877 157.722C85.5427 158.058 84.8777 158.225 84.0927 158.225ZM84.2952 157.107C84.7752 157.107 85.1902 157.022 85.5402 156.852C85.8952 156.677 86.1802 156.45 86.3952 156.17C86.6102 155.885 86.7502 155.575 86.8152 155.24C86.8902 154.99 86.9302 154.712 86.9352 154.407C86.9452 154.097 86.9502 153.86 86.9502 153.695L87.4152 153.897C86.9802 153.957 86.5527 154.015 86.1327 154.07C85.7127 154.125 85.3152 154.185 84.9402 154.25C84.5652 154.31 84.2277 154.382 83.9277 154.467C83.7077 154.537 83.5002 154.627 83.3052 154.737C83.1152 154.847 82.9602 154.99 82.8402 155.165C82.7252 155.335 82.6677 155.547 82.6677 155.802C82.6677 156.022 82.7227 156.232 82.8327 156.432C82.9477 156.632 83.1227 156.795 83.3577 156.92C83.5977 157.045 83.9102 157.107 84.2952 157.107ZM93.9477 158.225C93.1877 158.225 92.5477 158.038 92.0277 157.662C91.5077 157.282 91.1127 156.77 90.8427 156.125C90.5777 155.475 90.4452 154.747 90.4452 153.942C90.4452 153.127 90.5777 152.397 90.8427 151.752C91.1127 151.107 91.5077 150.6 92.0277 150.23C92.5527 149.86 93.1952 149.675 93.9552 149.675C94.7052 149.675 95.3502 149.862 95.8902 150.237C96.4352 150.607 96.8527 151.115 97.1427 151.76C97.4327 152.405 97.5777 153.132 97.5777 153.942C97.5777 154.752 97.4327 155.48 97.1427 156.125C96.8527 156.77 96.4352 157.282 95.8902 157.662C95.3502 158.038 94.7027 158.225 93.9477 158.225ZM90.2202 161.6V149.9H91.4127V155.862H91.5627V161.6H90.2202ZM93.7827 157.002C94.3177 157.002 94.7602 156.867 95.1102 156.597C95.4602 156.327 95.7227 155.962 95.8977 155.502C96.0727 155.037 96.1602 154.517 96.1602 153.942C96.1602 153.372 96.0727 152.857 95.8977 152.397C95.7277 151.937 95.4627 151.572 95.1027 151.302C94.7477 151.032 94.2952 150.897 93.7452 150.897C93.2202 150.897 92.7852 151.027 92.4402 151.287C92.0952 151.542 91.8377 151.9 91.6677 152.36C91.4977 152.815 91.4127 153.342 91.4127 153.942C91.4127 154.532 91.4952 155.06 91.6602 155.525C91.8302 155.985 92.0902 156.347 92.4402 156.612C92.7902 156.872 93.2377 157.002 93.7827 157.002ZM101.367 158V151.115H98.5469V149.9H105.522V151.115H102.702V158H101.367ZM106.792 149.9V147.2H108.127V149.9H106.792ZM109.312 149.9V147.2H110.647V149.9H109.312ZM116.192 158V149.9H122.829V158H121.494V151.167H117.527V158H116.192ZM128.65 158.225C127.89 158.225 127.25 158.038 126.73 157.662C126.21 157.282 125.815 156.77 125.545 156.125C125.28 155.475 125.147 154.747 125.147 153.942C125.147 153.127 125.28 152.397 125.545 151.752C125.815 151.107 126.21 150.6 126.73 150.23C127.255 149.86 127.897 149.675 128.657 149.675C129.407 149.675 130.052 149.862 130.592 150.237C131.137 150.607 131.555 151.115 131.845 151.76C132.135 152.405 132.28 153.132 132.28 153.942C132.28 154.752 132.135 155.48 131.845 156.125C131.555 156.77 131.137 157.282 130.592 157.662C130.052 158.038 129.405 158.225 128.65 158.225ZM124.922 161.6V149.9H126.115V155.862H126.265V161.6H124.922ZM128.485 157.002C129.02 157.002 129.462 156.867 129.812 156.597C130.162 156.327 130.425 155.962 130.6 155.502C130.775 155.037 130.862 154.517 130.862 153.942C130.862 153.372 130.775 152.857 130.6 152.397C130.43 151.937 130.165 151.572 129.805 151.302C129.45 151.032 128.997 150.897 128.447 150.897C127.922 150.897 127.487 151.027 127.142 151.287C126.797 151.542 126.54 151.9 126.37 152.36C126.2 152.815 126.115 153.342 126.115 153.942C126.115 154.532 126.197 155.06 126.362 155.525C126.532 155.985 126.792 156.347 127.142 156.612C127.492 156.872 127.94 157.002 128.485 157.002ZM140.554 149.9V158H139.264V152.03L135.019 158H133.917V149.9H135.207V155.787L139.459 149.9H140.554ZM145.657 158V147.2H146.872L150.952 155.802L155.01 147.2H156.24V157.992H154.972V150.132L151.305 158H150.592L146.925 150.132V158H145.657ZM164.973 149.9V158H163.683V152.03L159.438 158H158.335V149.9H159.625V155.787L163.878 149.9H164.973ZM167.066 158V149.9H168.401V153.312H172.661V149.9H173.996V158H172.661V154.58H168.401V158H167.066ZM182.727 149.9V158H181.437V152.03L177.192 158H176.089V149.9H177.379V155.787L181.632 149.9H182.727ZM188.24 158.225C187.42 158.225 186.722 158.043 186.147 157.677C185.577 157.307 185.142 156.8 184.842 156.155C184.542 155.51 184.387 154.775 184.377 153.95C184.387 153.105 184.545 152.362 184.85 151.722C185.16 151.077 185.602 150.575 186.177 150.215C186.752 149.855 187.445 149.675 188.255 149.675C189.11 149.675 189.845 149.885 190.46 150.305C191.08 150.725 191.495 151.3 191.705 152.03L190.385 152.427C190.215 151.957 189.937 151.592 189.552 151.332C189.172 151.072 188.735 150.942 188.24 150.942C187.685 150.942 187.227 151.072 186.867 151.332C186.507 151.587 186.24 151.942 186.065 152.397C185.89 152.847 185.8 153.365 185.795 153.95C185.805 154.85 186.012 155.577 186.417 156.132C186.827 156.682 187.435 156.957 188.24 156.957C188.77 156.957 189.21 156.837 189.56 156.597C189.91 156.352 190.175 156 190.355 155.54L191.705 155.892C191.425 156.647 190.987 157.225 190.392 157.625C189.797 158.025 189.08 158.225 188.24 158.225ZM195.234 158V151.115H192.414V149.9H199.389V151.115H196.569V158H195.234ZM204.319 158.225C203.524 158.225 202.829 158.05 202.234 157.7C201.644 157.345 201.184 156.852 200.854 156.222C200.524 155.587 200.359 154.847 200.359 154.002C200.359 153.117 200.521 152.352 200.846 151.707C201.171 151.057 201.624 150.557 202.204 150.207C202.789 149.852 203.474 149.675 204.259 149.675C205.074 149.675 205.766 149.862 206.336 150.237C206.911 150.612 207.341 151.147 207.626 151.842C207.916 152.537 208.041 153.365 208.001 154.325H206.651V153.845C206.636 152.85 206.434 152.107 206.044 151.617C205.654 151.122 205.074 150.875 204.304 150.875C203.479 150.875 202.851 151.14 202.421 151.67C201.991 152.2 201.776 152.96 201.776 153.95C201.776 154.905 201.991 155.645 202.421 156.17C202.851 156.695 203.464 156.957 204.259 156.957C204.794 156.957 205.259 156.835 205.654 156.59C206.049 156.345 206.359 155.992 206.584 155.532L207.866 155.975C207.551 156.69 207.076 157.245 206.441 157.64C205.811 158.03 205.104 158.225 204.319 158.225ZM201.326 154.325V153.252H207.311V154.325H201.326ZM213.391 158.225C212.631 158.225 211.991 158.038 211.471 157.662C210.951 157.282 210.556 156.77 210.286 156.125C210.021 155.475 209.889 154.747 209.889 153.942C209.889 153.127 210.021 152.397 210.286 151.752C210.556 151.107 210.951 150.6 211.471 150.23C211.996 149.86 212.639 149.675 213.399 149.675C214.149 149.675 214.794 149.862 215.334 150.237C215.879 150.607 216.296 151.115 216.586 151.76C216.876 152.405 217.021 153.132 217.021 153.942C217.021 154.752 216.876 155.48 216.586 156.125C216.296 156.77 215.879 157.282 215.334 157.662C214.794 158.038 214.146 158.225 213.391 158.225ZM209.664 161.6V149.9H210.856V155.862H211.006V161.6H209.664ZM213.226 157.002C213.761 157.002 214.204 156.867 214.554 156.597C214.904 156.327 215.166 155.962 215.341 155.502C215.516 155.037 215.604 154.517 215.604 153.942C215.604 153.372 215.516 152.857 215.341 152.397C215.171 151.937 214.906 151.572 214.546 151.302C214.191 151.032 213.739 150.897 213.189 150.897C212.664 150.897 212.229 151.027 211.884 151.287C211.539 151.542 211.281 151.9 211.111 152.36C210.941 152.815 210.856 153.342 210.856 153.942C210.856 154.532 210.939 155.06 211.104 155.525C211.274 155.985 211.534 156.347 211.884 156.612C212.234 156.872 212.681 157.002 213.226 157.002ZM222.078 158.225C221.258 158.225 220.56 158.043 219.985 157.677C219.415 157.307 218.98 156.8 218.68 156.155C218.38 155.51 218.225 154.775 218.215 153.95C218.225 153.105 218.383 152.362 218.688 151.722C218.998 151.077 219.44 150.575 220.015 150.215C220.59 149.855 221.283 149.675 222.093 149.675C222.948 149.675 223.683 149.885 224.298 150.305C224.918 150.725 225.333 151.3 225.543 152.03L224.223 152.427C224.053 151.957 223.775 151.592 223.39 151.332C223.01 151.072 222.573 150.942 222.078 150.942C221.523 150.942 221.065 151.072 220.705 151.332C220.345 151.587 220.078 151.942 219.903 152.397C219.728 152.847 219.638 153.365 219.633 153.95C219.643 154.85 219.85 155.577 220.255 156.132C220.665 156.682 221.273 156.957 222.078 156.957C222.608 156.957 223.048 156.837 223.398 156.597C223.748 156.352 224.013 156 224.193 155.54L225.543 155.892C225.263 156.647 224.825 157.225 224.23 157.625C223.635 158.025 222.918 158.225 222.078 158.225ZM229.072 158V151.115H226.252V149.9H233.227V151.115H230.407V158H229.072ZM234.639 158V149.9H238.089C238.294 149.9 238.514 149.912 238.749 149.937C238.989 149.957 239.207 149.995 239.402 150.05C239.837 150.165 240.194 150.402 240.474 150.762C240.759 151.117 240.902 151.567 240.902 152.112C240.902 152.417 240.854 152.682 240.759 152.907C240.669 153.132 240.539 153.327 240.369 153.492C240.294 153.567 240.212 153.635 240.122 153.695C240.032 153.755 239.942 153.802 239.852 153.837C240.027 153.867 240.204 153.935 240.384 154.04C240.669 154.195 240.892 154.412 241.052 154.692C241.217 154.972 241.299 155.33 241.299 155.765C241.299 156.315 241.167 156.77 240.902 157.13C240.637 157.485 240.272 157.73 239.807 157.865C239.612 157.92 239.397 157.957 239.162 157.977C238.927 157.992 238.699 158 238.479 158H234.639ZM235.989 156.912H238.404C238.509 156.912 238.634 156.902 238.779 156.882C238.929 156.862 239.062 156.837 239.177 156.807C239.437 156.732 239.624 156.592 239.739 156.387C239.859 156.182 239.919 155.96 239.919 155.72C239.919 155.4 239.829 155.14 239.649 154.94C239.474 154.74 239.242 154.615 238.952 154.565C238.847 154.535 238.732 154.517 238.607 154.512C238.487 154.507 238.379 154.505 238.284 154.505H235.989V156.912ZM235.989 153.402H237.999C238.139 153.402 238.287 153.395 238.442 153.38C238.597 153.36 238.732 153.327 238.847 153.282C239.077 153.197 239.244 153.057 239.349 152.862C239.459 152.662 239.514 152.445 239.514 152.21C239.514 151.95 239.454 151.722 239.334 151.527C239.219 151.327 239.042 151.19 238.802 151.115C238.642 151.055 238.462 151.022 238.262 151.017C238.067 151.007 237.942 151.002 237.887 151.002H235.989V153.402ZM246.316 158.225C245.521 158.225 244.826 158.05 244.231 157.7C243.641 157.345 243.181 156.852 242.851 156.222C242.521 155.587 242.356 154.847 242.356 154.002C242.356 153.117 242.518 152.352 242.843 151.707C243.168 151.057 243.621 150.557 244.201 150.207C244.786 149.852 245.471 149.675 246.256 149.675C247.071 149.675 247.763 149.862 248.333 150.237C248.908 150.612 249.338 151.147 249.623 151.842C249.913 152.537 250.038 153.365 249.998 154.325H248.648V153.845C248.633 152.85 248.431 152.107 248.041 151.617C247.651 151.122 247.071 150.875 246.301 150.875C245.476 150.875 244.848 151.14 244.418 151.67C243.988 152.2 243.773 152.96 243.773 153.95C243.773 154.905 243.988 155.645 244.418 156.17C244.848 156.695 245.461 156.957 246.256 156.957C246.791 156.957 247.256 156.835 247.651 156.59C248.046 156.345 248.356 155.992 248.581 155.532L249.863 155.975C249.548 156.69 249.073 157.245 248.438 157.64C247.808 158.03 247.101 158.225 246.316 158.225ZM243.323 154.325V153.252H249.308V154.325H243.323ZM17.7687 178.225C16.9487 178.225 16.2512 178.043 15.6762 177.677C15.1062 177.307 14.6712 176.8 14.3712 176.155C14.0712 175.51 13.9162 174.775 13.9062 173.95C13.9162 173.105 14.0737 172.362 14.3787 171.722C14.6887 171.077 15.1312 170.575 15.7062 170.215C16.2812 169.855 16.9737 169.675 17.7837 169.675C18.6387 169.675 19.3737 169.885 19.9887 170.305C20.6087 170.725 21.0237 171.3 21.2337 172.03L19.9137 172.427C19.7437 171.957 19.4662 171.592 19.0812 171.332C18.7012 171.072 18.2637 170.942 17.7687 170.942C17.2137 170.942 16.7562 171.072 16.3962 171.332C16.0362 171.587 15.7687 171.942 15.5937 172.397C15.4187 172.847 15.3287 173.365 15.3237 173.95C15.3337 174.85 15.5412 175.577 15.9462 176.132C16.3562 176.682 16.9637 176.957 17.7687 176.957C18.2987 176.957 18.7387 176.837 19.0887 176.597C19.4387 176.352 19.7037 176 19.8837 175.54L21.2337 175.892C20.9537 176.647 20.5162 177.225 19.9212 177.625C19.3262 178.025 18.6087 178.225 17.7687 178.225ZM26.2744 178.225C25.4794 178.225 24.7844 178.05 24.1894 177.7C23.5994 177.345 23.1394 176.852 22.8094 176.222C22.4794 175.587 22.3144 174.847 22.3144 174.002C22.3144 173.117 22.4769 172.352 22.8019 171.707C23.1269 171.057 23.5794 170.557 24.1594 170.207C24.7444 169.852 25.4294 169.675 26.2144 169.675C27.0294 169.675 27.7219 169.862 28.2919 170.237C28.8669 170.612 29.2969 171.147 29.5819 171.842C29.8719 172.537 29.9969 173.365 29.9569 174.325H28.6069V173.845C28.5919 172.85 28.3894 172.107 27.9994 171.617C27.6094 171.122 27.0294 170.875 26.2594 170.875C25.4344 170.875 24.8069 171.14 24.3769 171.67C23.9469 172.2 23.7319 172.96 23.7319 173.95C23.7319 174.905 23.9469 175.645 24.3769 176.17C24.8069 176.695 25.4194 176.957 26.2144 176.957C26.7494 176.957 27.2144 176.835 27.6094 176.59C28.0044 176.345 28.3144 175.992 28.5394 175.532L29.8219 175.975C29.5069 176.69 29.0319 177.245 28.3969 177.64C27.7669 178.03 27.0594 178.225 26.2744 178.225ZM23.2819 174.325V173.252H29.2669V174.325H23.2819ZM30.8767 178V176.852C31.1767 176.907 31.4042 176.897 31.5592 176.822C31.7192 176.742 31.8367 176.605 31.9117 176.41C31.9917 176.21 32.0567 175.96 32.1067 175.66C32.1917 175.185 32.2642 174.655 32.3242 174.07C32.3892 173.485 32.4467 172.845 32.4967 172.15C32.5517 171.45 32.6017 170.7 32.6467 169.9H38.3092V178H36.9742V171.167H33.8617C33.8317 171.627 33.7942 172.1 33.7492 172.585C33.7092 173.07 33.6667 173.542 33.6217 174.002C33.5767 174.457 33.5267 174.882 33.4717 175.277C33.4217 175.667 33.3667 176.005 33.3067 176.29C33.2117 176.78 33.0792 177.172 32.9092 177.467C32.7392 177.757 32.4942 177.945 32.1742 178.03C31.8542 178.12 31.4217 178.11 30.8767 178ZM40.4157 178L40.4082 169.9H41.7507V172.832H43.4982C43.7332 172.832 43.9732 172.837 44.2182 172.847C44.4632 172.857 44.6757 172.88 44.8557 172.915C45.2757 172.995 45.6432 173.135 45.9582 173.335C46.2732 173.535 46.5182 173.807 46.6932 174.152C46.8682 174.492 46.9557 174.915 46.9557 175.42C46.9557 176.12 46.7732 176.675 46.4082 177.085C46.0482 177.49 45.5757 177.76 44.9907 177.895C44.7907 177.94 44.5607 177.97 44.3007 177.985C44.0457 177.995 43.8032 178 43.5732 178H40.4157ZM41.7507 176.898H43.5957C43.7457 176.898 43.9132 176.892 44.0982 176.882C44.2832 176.872 44.4482 176.847 44.5932 176.807C44.8482 176.732 45.0757 176.585 45.2757 176.365C45.4807 176.145 45.5832 175.83 45.5832 175.42C45.5832 175.005 45.4832 174.685 45.2832 174.46C45.0882 174.235 44.8307 174.087 44.5107 174.017C44.3657 173.982 44.2132 173.96 44.0532 173.95C43.8932 173.94 43.7407 173.935 43.5957 173.935H41.7507V176.898ZM52.0167 178.225C51.1967 178.225 50.4992 178.043 49.9242 177.677C49.3542 177.307 48.9192 176.8 48.6192 176.155C48.3192 175.51 48.1642 174.775 48.1542 173.95C48.1642 173.105 48.3217 172.362 48.6267 171.722C48.9367 171.077 49.3792 170.575 49.9542 170.215C50.5292 169.855 51.2217 169.675 52.0317 169.675C52.8867 169.675 53.6217 169.885 54.2367 170.305C54.8567 170.725 55.2717 171.3 55.4817 172.03L54.1617 172.427C53.9917 171.957 53.7142 171.592 53.3292 171.332C52.9492 171.072 52.5117 170.942 52.0167 170.942C51.4617 170.942 51.0042 171.072 50.6442 171.332C50.2842 171.587 50.0167 171.942 49.8417 172.397C49.6667 172.847 49.5767 173.365 49.5717 173.95C49.5817 174.85 49.7892 175.577 50.1942 176.132C50.6042 176.682 51.2117 176.957 52.0167 176.957C52.5467 176.957 52.9867 176.837 53.3367 176.597C53.6867 176.352 53.9517 176 54.1317 175.54L55.4817 175.892C55.2017 176.647 54.7642 177.225 54.1692 177.625C53.5742 178.025 52.8567 178.225 52.0167 178.225ZM57.0049 178L57.0124 169.9H58.3624V173.8L61.7599 169.9H63.4924L59.9149 173.95L63.9124 178H62.0449L58.3624 174.1V178H57.0049ZM67.9624 178.225C67.1574 178.225 66.4624 178.043 65.8774 177.677C65.2974 177.312 64.8499 176.807 64.5349 176.162C64.2199 175.517 64.0624 174.777 64.0624 173.942C64.0624 173.092 64.2224 172.347 64.5424 171.707C64.8624 171.067 65.3149 170.57 65.8999 170.215C66.4849 169.855 67.1724 169.675 67.9624 169.675C68.7724 169.675 69.4699 169.857 70.0549 170.222C70.6399 170.582 71.0874 171.085 71.3974 171.73C71.7124 172.37 71.8699 173.107 71.8699 173.942C71.8699 174.787 71.7124 175.532 71.3974 176.177C71.0824 176.817 70.6324 177.32 70.0474 177.685C69.4624 178.045 68.7674 178.225 67.9624 178.225ZM67.9624 176.957C68.8024 176.957 69.4274 176.677 69.8374 176.117C70.2474 175.557 70.4524 174.832 70.4524 173.942C70.4524 173.027 70.2449 172.3 69.8299 171.76C69.4149 171.215 68.7924 170.942 67.9624 170.942C67.3974 170.942 66.9324 171.07 66.5674 171.325C66.2024 171.58 65.9299 171.932 65.7499 172.382C65.5699 172.832 65.4799 173.352 65.4799 173.942C65.4799 174.852 65.6899 175.582 66.1099 176.132C66.5299 176.682 67.1474 176.957 67.9624 176.957ZM73.5212 178V169.9H79.1462V171.167H74.8562V178H73.5212ZM83.8706 178.225C83.0656 178.225 82.3706 178.043 81.7856 177.677C81.2056 177.312 80.7581 176.807 80.4431 176.162C80.1281 175.517 79.9706 174.777 79.9706 173.942C79.9706 173.092 80.1306 172.347 80.4506 171.707C80.7706 171.067 81.2231 170.57 81.8081 170.215C82.3931 169.855 83.0806 169.675 83.8706 169.675C84.6806 169.675 85.3781 169.857 85.9631 170.222C86.5481 170.582 86.9956 171.085 87.3056 171.73C87.6206 172.37 87.7781 173.107 87.7781 173.942C87.7781 174.787 87.6206 175.532 87.3056 176.177C86.9906 176.817 86.5406 177.32 85.9556 177.685C85.3706 178.045 84.6756 178.225 83.8706 178.225ZM83.8706 176.957C84.7106 176.957 85.3356 176.677 85.7456 176.117C86.1556 175.557 86.3606 174.832 86.3606 173.942C86.3606 173.027 86.1531 172.3 85.7381 171.76C85.3231 171.215 84.7006 170.942 83.8706 170.942C83.3056 170.942 82.8406 171.07 82.4756 171.325C82.1106 171.58 81.8381 171.932 81.6581 172.382C81.4781 172.832 81.3881 173.352 81.3881 173.942C81.3881 174.852 81.5981 175.582 82.0181 176.132C82.4381 176.682 83.0556 176.957 83.8706 176.957ZM91.5323 178L94.6298 173.905L91.5998 169.9H93.1898L95.4098 172.87L97.6073 169.9H99.1973L96.1673 173.905L99.2723 178H97.6748L95.4098 174.94L93.1298 178H91.5323ZM103.631 178.225C102.826 178.225 102.131 178.043 101.546 177.677C100.966 177.312 100.519 176.807 100.204 176.162C99.8888 175.517 99.7313 174.777 99.7313 173.942C99.7313 173.092 99.8913 172.347 100.211 171.707C100.531 171.067 100.984 170.57 101.569 170.215C102.154 169.855 102.841 169.675 103.631 169.675C104.441 169.675 105.139 169.857 105.724 170.222C106.309 170.582 106.756 171.085 107.066 171.73C107.381 172.37 107.539 173.107 107.539 173.942C107.539 174.787 107.381 175.532 107.066 176.177C106.751 176.817 106.301 177.32 105.716 177.685C105.131 178.045 104.436 178.225 103.631 178.225ZM103.631 176.957C104.471 176.957 105.096 176.677 105.506 176.117C105.916 175.557 106.121 174.832 106.121 173.942C106.121 173.027 105.914 172.3 105.499 171.76C105.084 171.215 104.461 170.942 103.631 170.942C103.066 170.942 102.601 171.07 102.236 171.325C101.871 171.58 101.599 171.932 101.419 172.382C101.239 172.832 101.149 173.352 101.149 173.942C101.149 174.852 101.359 175.582 101.779 176.132C102.199 176.682 102.816 176.957 103.631 176.957ZM111.902 178.225C111.102 178.225 110.395 178.053 109.78 177.707C109.165 177.357 108.68 176.877 108.325 176.267L109.39 175.577C109.685 176.022 110.037 176.365 110.447 176.605C110.857 176.84 111.325 176.957 111.85 176.957C112.4 176.957 112.837 176.832 113.162 176.582C113.487 176.327 113.65 175.985 113.65 175.555C113.65 175.235 113.57 174.99 113.41 174.82C113.25 174.65 113.02 174.532 112.72 174.467C112.42 174.402 112.062 174.37 111.647 174.37H110.807V173.267H111.64C112.165 173.267 112.592 173.182 112.922 173.012C113.252 172.842 113.417 172.552 113.417 172.142C113.417 171.722 113.262 171.417 112.952 171.227C112.647 171.032 112.282 170.935 111.857 170.935C111.407 170.935 110.977 171.03 110.567 171.22C110.157 171.405 109.805 171.64 109.51 171.925L108.7 171.017C109.12 170.587 109.602 170.257 110.147 170.027C110.697 169.792 111.295 169.675 111.94 169.675C112.46 169.675 112.935 169.767 113.365 169.952C113.8 170.132 114.145 170.4 114.4 170.755C114.66 171.105 114.79 171.532 114.79 172.037C114.79 172.467 114.69 172.85 114.49 173.185C114.29 173.52 113.995 173.812 113.605 174.062L113.552 173.59C113.882 173.67 114.155 173.817 114.37 174.032C114.59 174.242 114.752 174.492 114.857 174.782C114.962 175.072 115.015 175.375 115.015 175.69C115.015 176.22 114.875 176.675 114.595 177.055C114.32 177.43 113.947 177.72 113.477 177.925C113.007 178.125 112.482 178.225 111.902 178.225ZM121.663 178V175.067H119.916C119.711 175.067 119.483 175.06 119.233 175.045C118.988 175.025 118.758 174.997 118.543 174.962C117.958 174.852 117.463 174.595 117.058 174.19C116.658 173.785 116.458 173.225 116.458 172.51C116.458 171.815 116.646 171.257 117.021 170.837C117.401 170.412 117.868 170.137 118.423 170.012C118.673 169.952 118.926 169.92 119.181 169.915C119.441 169.905 119.661 169.9 119.841 169.9H122.998L123.006 178H121.663ZM116.211 178L118.363 174.7H119.803L117.651 178H116.211ZM119.818 173.965H121.663V171.002H119.818C119.703 171.002 119.551 171.007 119.361 171.017C119.176 171.027 118.998 171.057 118.828 171.107C118.668 171.152 118.511 171.235 118.356 171.355C118.206 171.475 118.081 171.63 117.981 171.82C117.881 172.01 117.831 172.235 117.831 172.495C117.831 172.87 117.936 173.175 118.146 173.41C118.356 173.64 118.611 173.795 118.911 173.875C119.076 173.915 119.238 173.94 119.398 173.95C119.563 173.96 119.703 173.965 119.818 173.965ZM128.6 168.955C128.225 168.955 127.883 168.862 127.573 168.677C127.263 168.492 127.015 168.247 126.83 167.942C126.645 167.632 126.553 167.287 126.553 166.907H127.633C127.633 167.172 127.728 167.4 127.918 167.59C128.108 167.78 128.335 167.875 128.6 167.875C128.87 167.875 129.098 167.78 129.283 167.59C129.473 167.4 129.568 167.172 129.568 166.907H130.648C130.648 167.287 130.555 167.632 130.37 167.942C130.19 168.247 129.943 168.492 129.628 168.677C129.318 168.862 128.975 168.955 128.6 168.955ZM131.743 169.9V178H130.453V172.03L126.208 178H125.105V169.9H126.395V175.787L130.648 169.9H131.743ZM137.256 178.225C136.436 178.225 135.738 178.043 135.163 177.677C134.593 177.307 134.158 176.8 133.858 176.155C133.558 175.51 133.403 174.775 133.393 173.95C133.403 173.105 133.561 172.362 133.866 171.722C134.176 171.077 134.618 170.575 135.193 170.215C135.768 169.855 136.461 169.675 137.271 169.675C138.126 169.675 138.861 169.885 139.476 170.305C140.096 170.725 140.511 171.3 140.721 172.03L139.401 172.427C139.231 171.957 138.953 171.592 138.568 171.332C138.188 171.072 137.751 170.942 137.256 170.942C136.701 170.942 136.243 171.072 135.883 171.332C135.523 171.587 135.256 171.942 135.081 172.397C134.906 172.847 134.816 173.365 134.811 173.95C134.821 174.85 135.028 175.577 135.433 176.132C135.843 176.682 136.451 176.957 137.256 176.957C137.786 176.957 138.226 176.837 138.576 176.597C138.926 176.352 139.191 176 139.371 175.54L140.721 175.892C140.441 176.647 140.003 177.225 139.408 177.625C138.813 178.025 138.096 178.225 137.256 178.225ZM144.25 178V171.115H141.43V169.9H148.405V171.115H145.585V178H144.25ZM149.817 178V169.9H153.267C153.472 169.9 153.692 169.912 153.927 169.937C154.167 169.957 154.385 169.995 154.58 170.05C155.015 170.165 155.372 170.402 155.652 170.762C155.937 171.117 156.08 171.567 156.08 172.112C156.08 172.417 156.032 172.682 155.937 172.907C155.847 173.132 155.717 173.327 155.547 173.492C155.472 173.567 155.39 173.635 155.3 173.695C155.21 173.755 155.12 173.802 155.03 173.837C155.205 173.867 155.382 173.935 155.562 174.04C155.847 174.195 156.07 174.412 156.23 174.692C156.395 174.972 156.477 175.33 156.477 175.765C156.477 176.315 156.345 176.77 156.08 177.13C155.815 177.485 155.45 177.73 154.985 177.865C154.79 177.92 154.575 177.957 154.34 177.977C154.105 177.992 153.877 178 153.657 178H149.817ZM151.167 176.912H153.582C153.687 176.912 153.812 176.902 153.957 176.882C154.107 176.862 154.24 176.837 154.355 176.807C154.615 176.732 154.802 176.592 154.917 176.387C155.037 176.182 155.097 175.96 155.097 175.72C155.097 175.4 155.007 175.14 154.827 174.94C154.652 174.74 154.42 174.615 154.13 174.565C154.025 174.535 153.91 174.517 153.785 174.512C153.665 174.507 153.557 174.505 153.462 174.505H151.167V176.912ZM151.167 173.402H153.177C153.317 173.402 153.465 173.395 153.62 173.38C153.775 173.36 153.91 173.327 154.025 173.282C154.255 173.197 154.422 173.057 154.527 172.862C154.637 172.662 154.692 172.445 154.692 172.21C154.692 171.95 154.632 171.722 154.512 171.527C154.397 171.327 154.22 171.19 153.98 171.115C153.82 171.055 153.64 171.022 153.44 171.017C153.245 171.007 153.12 171.002 153.065 171.002H151.167V173.402ZM160.287 178.225C159.682 178.225 159.174 178.115 158.764 177.895C158.359 177.67 158.052 177.375 157.842 177.01C157.637 176.645 157.534 176.245 157.534 175.81C157.534 175.385 157.614 175.017 157.774 174.707C157.939 174.392 158.169 174.132 158.464 173.927C158.759 173.717 159.112 173.552 159.522 173.432C159.907 173.327 160.337 173.237 160.812 173.162C161.292 173.082 161.777 173.01 162.267 172.945C162.757 172.88 163.214 172.817 163.639 172.757L163.159 173.035C163.174 172.315 163.029 171.782 162.724 171.437C162.424 171.092 161.904 170.92 161.164 170.92C160.674 170.92 160.244 171.032 159.874 171.257C159.509 171.477 159.252 171.837 159.102 172.337L157.834 171.955C158.029 171.245 158.407 170.687 158.967 170.282C159.527 169.877 160.264 169.675 161.179 169.675C161.914 169.675 162.544 169.807 163.069 170.072C163.599 170.332 163.979 170.727 164.209 171.257C164.324 171.507 164.397 171.78 164.427 172.075C164.457 172.365 164.472 172.67 164.472 172.99V178H163.287V176.057L163.564 176.237C163.259 176.892 162.832 177.387 162.282 177.722C161.737 178.058 161.072 178.225 160.287 178.225ZM160.489 177.107C160.969 177.107 161.384 177.022 161.734 176.852C162.089 176.677 162.374 176.45 162.589 176.17C162.804 175.885 162.944 175.575 163.009 175.24C163.084 174.99 163.124 174.712 163.129 174.407C163.139 174.097 163.144 173.86 163.144 173.695L163.609 173.897C163.174 173.957 162.747 174.015 162.327 174.07C161.907 174.125 161.509 174.185 161.134 174.25C160.759 174.31 160.422 174.382 160.122 174.467C159.902 174.537 159.694 174.627 159.499 174.737C159.309 174.847 159.154 174.99 159.034 175.165C158.919 175.335 158.862 175.547 158.862 175.802C158.862 176.022 158.917 176.232 159.027 176.432C159.142 176.632 159.317 176.795 159.552 176.92C159.792 177.045 160.104 177.107 160.489 177.107ZM169.425 178V167.2H170.76V172.27L175.485 167.2H177.165L172.26 172.442L177.547 178H175.822L170.76 172.72V178H169.425ZM178.594 178L178.587 169.9H179.929V172.832H181.167C181.402 172.832 181.642 172.837 181.887 172.847C182.132 172.857 182.344 172.88 182.524 172.915C182.944 173 183.312 173.142 183.627 173.342C183.942 173.542 184.187 173.812 184.362 174.152C184.537 174.492 184.624 174.915 184.624 175.42C184.624 176.12 184.442 176.675 184.077 177.085C183.717 177.49 183.244 177.76 182.659 177.895C182.459 177.94 182.229 177.97 181.969 177.985C181.714 177.995 181.472 178 181.242 178H178.594ZM179.929 176.898H181.264C181.414 176.898 181.582 176.892 181.767 176.882C181.952 176.872 182.117 176.847 182.262 176.807C182.517 176.732 182.744 176.585 182.944 176.365C183.149 176.145 183.252 175.83 183.252 175.42C183.252 175.005 183.152 174.685 182.952 174.46C182.757 174.235 182.499 174.087 182.179 174.017C182.034 173.982 181.882 173.96 181.722 173.95C181.562 173.94 181.409 173.935 181.264 173.935H179.929V176.898ZM185.554 178V169.9H186.889V178H185.554ZM192.715 178.225C191.955 178.225 191.315 178.038 190.795 177.662C190.275 177.282 189.88 176.77 189.61 176.125C189.345 175.475 189.212 174.747 189.212 173.942C189.212 173.127 189.345 172.397 189.61 171.752C189.88 171.107 190.275 170.6 190.795 170.23C191.32 169.86 191.962 169.675 192.722 169.675C193.472 169.675 194.117 169.862 194.657 170.237C195.202 170.607 195.62 171.115 195.91 171.76C196.2 172.405 196.345 173.132 196.345 173.942C196.345 174.752 196.2 175.48 195.91 176.125C195.62 176.77 195.202 177.282 194.657 177.662C194.117 178.038 193.47 178.225 192.715 178.225ZM188.987 181.6V169.9H190.18V175.862H190.33V181.6H188.987ZM192.55 177.002C193.085 177.002 193.527 176.867 193.877 176.597C194.227 176.327 194.49 175.962 194.665 175.502C194.84 175.037 194.927 174.517 194.927 173.942C194.927 173.372 194.84 172.857 194.665 172.397C194.495 171.937 194.23 171.572 193.87 171.302C193.515 171.032 193.062 170.897 192.512 170.897C191.987 170.897 191.552 171.027 191.207 171.287C190.862 171.542 190.605 171.9 190.435 172.36C190.265 172.815 190.18 173.342 190.18 173.942C190.18 174.532 190.262 175.06 190.427 175.525C190.597 175.985 190.857 176.347 191.207 176.612C191.557 176.872 192.005 177.002 192.55 177.002ZM197.989 178V169.9H203.614V171.167H199.324V178H197.989ZM205.035 178L205.027 169.9H206.37V172.832H207.607C207.842 172.832 208.082 172.837 208.327 172.847C208.572 172.857 208.785 172.88 208.965 172.915C209.385 173 209.752 173.142 210.067 173.342C210.382 173.542 210.627 173.812 210.802 174.152C210.977 174.492 211.065 174.915 211.065 175.42C211.065 176.12 210.882 176.675 210.517 177.085C210.157 177.49 209.685 177.76 209.1 177.895C208.9 177.94 208.67 177.97 208.41 177.985C208.155 177.995 207.912 178 207.682 178H205.035ZM206.37 176.898H207.705C207.855 176.898 208.022 176.892 208.207 176.882C208.392 176.872 208.557 176.847 208.702 176.807C208.957 176.732 209.185 176.585 209.385 176.365C209.59 176.145 209.692 175.83 209.692 175.42C209.692 175.005 209.592 174.685 209.392 174.46C209.197 174.235 208.94 174.087 208.62 174.017C208.475 173.982 208.322 173.96 208.162 173.95C208.002 173.94 207.85 173.935 207.705 173.935H206.37V176.898ZM211.995 178V169.9H213.33V178H211.995ZM218.338 178.225C217.538 178.225 216.83 178.053 216.215 177.707C215.6 177.357 215.115 176.877 214.76 176.267L215.825 175.577C216.12 176.022 216.473 176.365 216.883 176.605C217.293 176.84 217.76 176.957 218.285 176.957C218.835 176.957 219.273 176.832 219.598 176.582C219.923 176.327 220.085 175.985 220.085 175.555C220.085 175.235 220.005 174.99 219.845 174.82C219.685 174.65 219.455 174.532 219.155 174.467C218.855 174.402 218.498 174.37 218.083 174.37H217.243V173.267H218.075C218.6 173.267 219.028 173.182 219.358 173.012C219.688 172.842 219.853 172.552 219.853 172.142C219.853 171.722 219.698 171.417 219.388 171.227C219.083 171.032 218.718 170.935 218.293 170.935C217.843 170.935 217.413 171.03 217.003 171.22C216.593 171.405 216.24 171.64 215.945 171.925L215.135 171.017C215.555 170.587 216.038 170.257 216.583 170.027C217.133 169.792 217.73 169.675 218.375 169.675C218.895 169.675 219.37 169.767 219.8 169.952C220.235 170.132 220.58 170.4 220.835 170.755C221.095 171.105 221.225 171.532 221.225 172.037C221.225 172.467 221.125 172.85 220.925 173.185C220.725 173.52 220.43 173.812 220.04 174.062L219.988 173.59C220.318 173.67 220.59 173.817 220.805 174.032C221.025 174.242 221.188 174.492 221.293 174.782C221.398 175.072 221.45 175.375 221.45 175.69C221.45 176.22 221.31 176.675 221.03 177.055C220.755 177.43 220.383 177.72 219.913 177.925C219.443 178.125 218.918 178.225 218.338 178.225ZM226.509 178.225C225.689 178.225 224.991 178.043 224.416 177.677C223.846 177.307 223.411 176.8 223.111 176.155C222.811 175.51 222.656 174.775 222.646 173.95C222.656 173.105 222.814 172.362 223.119 171.722C223.429 171.077 223.871 170.575 224.446 170.215C225.021 169.855 225.714 169.675 226.524 169.675C227.379 169.675 228.114 169.885 228.729 170.305C229.349 170.725 229.764 171.3 229.974 172.03L228.654 172.427C228.484 171.957 228.206 171.592 227.821 171.332C227.441 171.072 227.004 170.942 226.509 170.942C225.954 170.942 225.496 171.072 225.136 171.332C224.776 171.587 224.509 171.942 224.334 172.397C224.159 172.847 224.069 173.365 224.064 173.95C224.074 174.85 224.281 175.577 224.686 176.132C225.096 176.682 225.704 176.957 226.509 176.957C227.039 176.957 227.479 176.837 227.829 176.597C228.179 176.352 228.444 176 228.624 175.54L229.974 175.892C229.694 176.647 229.256 177.225 228.661 177.625C228.066 178.025 227.349 178.225 226.509 178.225ZM231.497 178L231.505 169.9H232.855V173.8L236.252 169.9H237.985L234.407 173.95L238.405 178H236.537L232.855 174.1V178H231.497ZM242.455 178.225C241.65 178.225 240.955 178.043 240.37 177.677C239.79 177.312 239.342 176.807 239.027 176.162C238.712 175.517 238.555 174.777 238.555 173.942C238.555 173.092 238.715 172.347 239.035 171.707C239.355 171.067 239.807 170.57 240.392 170.215C240.977 169.855 241.665 169.675 242.455 169.675C243.265 169.675 243.962 169.857 244.547 170.222C245.132 170.582 245.58 171.085 245.89 171.73C246.205 172.37 246.362 173.107 246.362 173.942C246.362 174.787 246.205 175.532 245.89 176.177C245.575 176.817 245.125 177.32 244.54 177.685C243.955 178.045 243.26 178.225 242.455 178.225ZM242.455 176.957C243.295 176.957 243.92 176.677 244.33 176.117C244.74 175.557 244.945 174.832 244.945 173.942C244.945 173.027 244.737 172.3 244.322 171.76C243.907 171.215 243.285 170.942 242.455 170.942C241.89 170.942 241.425 171.07 241.06 171.325C240.695 171.58 240.422 171.932 240.242 172.382C240.062 172.832 239.972 173.352 239.972 173.942C239.972 174.852 240.182 175.582 240.602 176.132C241.022 176.682 241.64 176.957 242.455 176.957ZM251.501 168.955C251.126 168.955 250.783 168.862 250.473 168.677C250.163 168.492 249.916 168.247 249.731 167.942C249.546 167.632 249.453 167.287 249.453 166.907H250.533C250.533 167.172 250.628 167.4 250.818 167.59C251.008 167.78 251.236 167.875 251.501 167.875C251.771 167.875 251.998 167.78 252.183 167.59C252.373 167.4 252.468 167.172 252.468 166.907H253.548C253.548 167.287 253.456 167.632 253.271 167.942C253.091 168.247 252.843 168.492 252.528 168.677C252.218 168.862 251.876 168.955 251.501 168.955ZM254.643 169.9V178H253.353V172.03L249.108 178H248.006V169.9H249.296V175.787L253.548 169.9H254.643ZM92.5349 198V187.2H96.8024C96.9074 187.2 97.0324 187.205 97.1774 187.215C97.3224 187.22 97.4624 187.235 97.5974 187.26C98.1824 187.35 98.6724 187.55 99.0674 187.86C99.4674 188.17 99.7674 188.562 99.9674 189.037C100.167 189.507 100.267 190.03 100.267 190.605C100.267 191.175 100.165 191.697 99.9599 192.172C99.7599 192.642 99.4599 193.035 99.0599 193.35C98.6649 193.66 98.1774 193.86 97.5974 193.95C97.4624 193.97 97.3224 193.985 97.1774 193.995C97.0324 194.005 96.9074 194.01 96.8024 194.01H93.8699V198H92.5349ZM93.8699 192.742H96.7574C96.8524 192.742 96.9599 192.737 97.0799 192.727C97.2049 192.717 97.3224 192.7 97.4324 192.675C97.7774 192.595 98.0574 192.45 98.2724 192.24C98.4924 192.025 98.6524 191.775 98.7524 191.49C98.8524 191.2 98.9024 190.905 98.9024 190.605C98.9024 190.305 98.8524 190.012 98.7524 189.727C98.6524 189.437 98.4924 189.185 98.2724 188.97C98.0574 188.755 97.7774 188.61 97.4324 188.535C97.3224 188.505 97.2049 188.487 97.0799 188.482C96.9599 188.472 96.8524 188.467 96.7574 188.467H93.8699V192.742ZM105.273 198.225C104.478 198.225 103.783 198.05 103.188 197.7C102.598 197.345 102.138 196.852 101.808 196.222C101.478 195.587 101.313 194.847 101.313 194.002C101.313 193.117 101.476 192.352 101.801 191.707C102.126 191.057 102.578 190.557 103.158 190.207C103.743 189.852 104.428 189.675 105.213 189.675C106.028 189.675 106.721 189.862 107.291 190.237C107.866 190.612 108.296 191.147 108.581 191.842C108.871 192.537 108.996 193.365 108.956 194.325H107.606V193.845C107.591 192.85 107.388 192.107 106.998 191.617C106.608 191.122 106.028 190.875 105.258 190.875C104.433 190.875 103.806 191.14 103.376 191.67C102.946 192.2 102.731 192.96 102.731 193.95C102.731 194.905 102.946 195.645 103.376 196.17C103.806 196.695 104.418 196.957 105.213 196.957C105.748 196.957 106.213 196.835 106.608 196.59C107.003 196.345 107.313 195.992 107.538 195.532L108.821 195.975C108.506 196.69 108.031 197.245 107.396 197.64C106.766 198.03 106.058 198.225 105.273 198.225ZM102.281 194.325V193.252H108.266V194.325H102.281ZM114.038 198.225C113.218 198.225 112.521 198.043 111.946 197.677C111.376 197.307 110.941 196.8 110.641 196.155C110.341 195.51 110.186 194.775 110.176 193.95C110.186 193.105 110.343 192.362 110.648 191.722C110.958 191.077 111.401 190.575 111.976 190.215C112.551 189.855 113.243 189.675 114.053 189.675C114.908 189.675 115.643 189.885 116.258 190.305C116.878 190.725 117.293 191.3 117.503 192.03L116.183 192.427C116.013 191.957 115.736 191.592 115.351 191.332C114.971 191.072 114.533 190.942 114.038 190.942C113.483 190.942 113.026 191.072 112.666 191.332C112.306 191.587 112.038 191.942 111.863 192.397C111.688 192.847 111.598 193.365 111.593 193.95C111.603 194.85 111.811 195.577 112.216 196.132C112.626 196.682 113.233 196.957 114.038 196.957C114.568 196.957 115.008 196.837 115.358 196.597C115.708 196.352 115.973 196 116.153 195.54L117.503 195.892C117.223 196.647 116.786 197.225 116.191 197.625C115.596 198.025 114.878 198.225 114.038 198.225ZM119.026 198V189.9H125.664V198H124.329V191.167H120.361V198H119.026ZM128.889 201.6L130.457 197.34L130.479 198.6L126.939 189.9H128.342L131.117 196.898H130.637L133.239 189.9H134.597L130.187 201.6H128.889ZM139.128 198.233C138.363 198.228 137.711 198.063 137.171 197.737C136.631 197.407 136.211 196.925 135.911 196.29C135.611 195.655 135.443 194.877 135.408 193.957C135.388 193.532 135.393 193.065 135.423 192.555C135.458 192.045 135.513 191.555 135.588 191.085C135.668 190.615 135.768 190.227 135.888 189.922C136.023 189.557 136.213 189.22 136.458 188.91C136.708 188.595 136.988 188.335 137.298 188.13C137.613 187.915 137.966 187.747 138.356 187.627C138.746 187.507 139.153 187.415 139.578 187.35C140.008 187.28 140.438 187.22 140.868 187.17C141.298 187.115 141.708 187.05 142.098 186.975L142.233 188.175C141.958 188.235 141.633 188.287 141.258 188.332C140.883 188.372 140.493 188.42 140.088 188.475C139.688 188.53 139.303 188.607 138.933 188.707C138.568 188.802 138.253 188.935 137.988 189.105C137.598 189.34 137.298 189.692 137.088 190.162C136.883 190.627 136.758 191.15 136.713 191.73C137.023 191.25 137.426 190.897 137.921 190.672C138.416 190.447 138.943 190.335 139.503 190.335C140.228 190.335 140.853 190.505 141.378 190.845C141.903 191.18 142.306 191.642 142.586 192.232C142.871 192.822 143.013 193.495 143.013 194.25C143.013 195.05 142.853 195.75 142.533 196.35C142.213 196.95 141.761 197.415 141.176 197.745C140.596 198.075 139.913 198.238 139.128 198.233ZM139.211 196.965C139.996 196.965 140.591 196.722 140.996 196.237C141.401 195.747 141.603 195.097 141.603 194.287C141.603 193.457 141.393 192.805 140.973 192.33C140.553 191.85 139.963 191.61 139.203 191.61C138.433 191.61 137.843 191.85 137.433 192.33C137.028 192.805 136.826 193.457 136.826 194.287C136.826 195.122 137.031 195.777 137.441 196.252C137.851 196.727 138.441 196.965 139.211 196.965ZM143.919 198V196.852C144.219 196.907 144.446 196.897 144.601 196.822C144.761 196.742 144.879 196.605 144.954 196.41C145.034 196.21 145.099 195.96 145.149 195.66C145.234 195.185 145.306 194.655 145.366 194.07C145.431 193.485 145.489 192.845 145.539 192.15C145.594 191.45 145.644 190.7 145.689 189.9H151.351V198H150.016V191.167H146.904C146.874 191.627 146.836 192.1 146.791 192.585C146.751 193.07 146.709 193.542 146.664 194.002C146.619 194.457 146.569 194.882 146.514 195.277C146.464 195.667 146.409 196.005 146.349 196.29C146.254 196.78 146.121 197.172 145.951 197.467C145.781 197.757 145.536 197.945 145.216 198.03C144.896 198.12 144.464 198.11 143.919 198ZM160.088 189.9V198H158.798V192.03L154.553 198H153.45V189.9H154.74V195.787L158.993 189.9H160.088ZM162.181 198L162.188 189.9H163.538V193.8L166.936 189.9H168.668L165.091 193.95L169.088 198H167.221L163.538 194.1V198H162.181ZM176.465 189.9V198H175.175V192.03L170.93 198H169.827V189.9H171.117V195.787L175.37 189.9H176.465Z" fill="#161616"/>
</svg>
