<svg width="508" height="508" viewBox="0 0 508 508" fill="none" xmlns="http://www.w3.org/2000/svg">
<path fill-rule="evenodd" clip-rule="evenodd" d="M230.579 196.799C225.499 195.249 183.919 200.736 178.204 204.063C172.134 228.701 183.284 328.269 185.316 337.134L243.33 335.635C243.889 321.868 240.587 239.115 234.389 208.635C232.357 198.551 230.833 197.358 230.579 196.799ZM232.459 196.138C242.187 211.378 245.006 322.376 244.117 336.067C244.114 336.117 244.101 336.166 244.079 336.211C244.057 336.256 244.026 336.296 243.988 336.329C243.95 336.362 243.906 336.387 243.859 336.404C243.811 336.42 243.761 336.426 243.711 336.423L184.808 338.607C183.919 338.607 183.767 337.87 182.649 330.022C179.271 306.324 170.534 226.517 176.325 203.403C176.476 202.956 176.783 202.577 177.188 202.336C181.938 199.212 227.76 192.532 231.824 195.224C231.993 195.317 232.139 195.447 232.249 195.606C232.359 195.765 232.431 195.947 232.459 196.138ZM271.778 242.138C265.149 260.273 262.812 315.315 263.726 334.34L319.378 335.153C321.232 321.894 325.067 253.238 318.362 240.792C317.219 238.912 273.835 239.75 271.778 242.138ZM320.241 240.131C327.023 253.72 323.315 321.919 320.876 336.118C320.84 336.313 320.736 336.489 320.583 336.614C320.429 336.74 320.236 336.807 320.038 336.804L263.447 335.127C262.888 335.127 262.786 334.594 262.634 329.158C262.101 309.092 263.218 260.197 270.076 241.3C270.457 240.258 272.286 239.877 273.454 239.649C282.294 237.871 310.513 237.109 317.828 238.506C318.793 238.76 320.038 239.115 320.19 240.131H320.241ZM480.058 218.44C473.937 216.636 438.859 217.525 433.525 219.862C426.337 239.801 424.635 317.296 425.27 338.531C443.557 340.286 461.954 340.575 480.287 339.394C481.836 328.117 485.849 250.494 481.887 225.298C481.647 222.929 481.03 220.613 480.058 218.44ZM481.988 217.881C488.897 232.029 484.02 326.644 481.684 340.233C481.652 340.398 481.568 340.549 481.445 340.663C481.322 340.777 481.165 340.849 480.998 340.868C462.284 341.931 443.514 341.404 424.889 339.293C423.213 338.785 423.365 242.138 431.798 219.049C432.179 217.982 434.008 217.627 435.176 217.398C443.914 215.62 472.184 214.858 479.55 216.255C480.668 216.433 482.039 216.839 482.09 217.881H481.988ZM407.236 191.516C402.156 189.331 357.325 190.22 350.874 193.116C342.238 216.611 340.714 314.274 341.882 338.632L406.55 339.267C408.608 324.84 414.043 230.428 409.497 199.999C409.31 197.05 408.542 194.167 407.236 191.516ZM409.217 191.058C417.777 208.051 410.411 325.678 407.922 340.131C407.892 340.306 407.803 340.465 407.668 340.581C407.534 340.697 407.363 340.762 407.185 340.766L341.603 339.42C341.018 339.42 340.917 338.81 340.688 330.25C340.053 304.723 340.358 215.95 349.146 192.303C349.344 191.868 349.698 191.524 350.137 191.338C355.522 188.62 404.671 186.842 408.557 190.068C408.74 190.166 408.895 190.308 409.01 190.481C409.126 190.654 409.197 190.852 409.217 191.058Z" fill="#4953A0"/>
<path fill-rule="evenodd" clip-rule="evenodd" d="M195.097 215.367C191.616 214.731 188.029 215.002 184.683 216.154C184.684 219.225 184.931 222.291 185.42 225.323C188.742 225.231 192.046 224.788 195.275 224.003C195.458 222.903 195.543 221.79 195.529 220.675C195.569 219.081 195.509 217.486 195.351 215.9C195.326 215.494 195.351 215.494 195.097 215.367ZM183.972 215.9C183.972 215.9 183.566 220.98 183.693 223.926C183.82 226.466 183.82 227.305 189.433 226.695C191.809 226.48 194.152 225.994 196.418 225.247C196.901 224.942 197.002 224.257 197.104 223.444C197.282 221.971 197.561 215.316 196.494 214.274C194.259 212.192 183.997 214.732 183.972 215.9ZM359.181 208.839C358.927 211.881 358.927 214.94 359.181 217.983H360.477C363.305 218.016 366.133 217.838 368.935 217.449C369.495 214.733 369.784 211.968 369.798 209.194C368.427 208.28 360.68 208.001 359.181 208.839ZM358.394 208.559C358.394 208.559 357.479 213.639 357.327 216.51C357.175 219.38 357.327 219.989 362.839 219.913C365.248 219.943 367.652 219.687 370.002 219.151C370.51 218.872 370.713 218.237 370.891 217.348C371.221 215.849 372.135 209.245 371.145 208.077C369.113 205.74 358.572 207.239 358.394 208.559ZM387.07 208.737C386.817 211.78 386.817 214.838 387.07 217.881C387.502 217.911 387.934 217.911 388.366 217.881C391.195 217.915 394.022 217.736 396.824 217.348C397.398 214.634 397.687 211.867 397.688 209.093C396.24 208.051 388.62 207.899 387.07 208.737ZM386.308 208.483C385.811 211.113 385.446 213.767 385.216 216.433C385.216 218.973 385.216 219.888 390.728 219.837C393.136 219.843 395.538 219.587 397.891 219.075C398.424 218.796 398.602 218.161 398.78 217.246C399.11 215.748 400.024 209.144 399.034 207.975C397.002 205.74 386.461 207.162 386.308 208.483ZM386.791 235.763C386.55 238.806 386.55 241.863 386.791 244.907H388.086C390.914 244.945 393.741 244.775 396.545 244.399C397.116 241.684 397.405 238.918 397.408 236.144C396.062 235.077 388.391 234.925 386.791 235.763ZM386.029 235.483C385.531 238.113 385.167 240.767 384.937 243.434C384.81 245.974 384.937 246.913 390.449 246.837C392.857 246.857 395.261 246.601 397.611 246.075C398.145 245.796 398.323 245.161 398.5 244.272C398.831 242.773 399.745 236.169 398.754 235.001C396.722 232.613 386.08 234.163 386.08 235.483H386.029ZM385.318 265.049C385.16 268.099 385.245 271.156 385.572 274.193H386.867C389.695 274.122 392.514 273.842 395.3 273.355C395.773 270.613 395.952 267.829 395.833 265.049C394.538 263.982 386.893 264.16 385.318 265.049ZM384.53 264.795C384.53 264.795 383.819 269.875 383.768 272.796C383.718 275.717 383.768 276.25 389.407 275.971C391.818 275.897 394.213 275.548 396.545 274.93C397.053 274.625 397.205 273.99 397.357 273.075C397.637 271.577 398.272 264.922 397.357 263.804C395.122 261.62 384.657 263.474 384.53 264.795ZM358.14 294.107C357.97 297.156 358.055 300.215 358.394 303.251H359.689C362.516 303.167 365.334 302.886 368.122 302.412C368.57 299.668 368.748 296.886 368.655 294.107C367.284 293.04 359.613 293.192 358.14 294.107ZM357.352 293.853C356.962 296.505 356.708 299.175 356.59 301.854C356.59 304.394 356.59 305.308 362.229 305.029C364.632 304.956 367.019 304.607 369.341 303.987C369.849 303.682 370.027 303.047 370.179 302.133C370.433 300.634 371.094 293.98 370.179 292.862C367.868 290.576 357.378 292.532 357.276 293.853H357.352ZM358.318 321.234C358.16 324.284 358.245 327.341 358.572 330.378C359.003 330.403 359.436 330.403 359.867 330.378C362.696 330.303 365.515 330.014 368.3 329.514C368.749 326.778 368.927 324.005 368.833 321.234C367.538 320.192 359.892 320.345 358.318 321.234ZM357.53 321.005C357.53 321.005 356.819 326.085 356.768 328.981C356.717 331.876 356.768 332.461 362.407 332.181C364.817 332.095 367.21 331.745 369.544 331.14C370.052 330.835 370.205 330.175 370.357 329.286C370.637 327.787 371.272 321.132 370.357 320.015C368.122 317.703 357.657 319.659 357.53 321.005ZM384.937 293.091C384.779 296.14 384.864 299.198 385.191 302.235C385.622 302.26 386.055 302.26 386.486 302.235C389.315 302.16 392.134 301.871 394.919 301.371C395.393 298.638 395.572 295.862 395.452 293.091C394.157 292.1 386.512 292.1 384.937 293.091ZM384.149 292.862C384.149 292.862 383.438 297.942 383.387 300.838C383.337 303.733 383.387 304.317 389.026 304.038C391.436 303.951 393.829 303.602 396.164 302.997C396.672 302.692 396.824 302.057 396.976 301.142C397.256 299.644 397.891 292.989 396.976 291.871C394.741 289.56 384.276 291.541 384.149 292.862ZM383.768 322.402C383.43 325.438 383.345 328.496 383.514 331.546H384.81C387.635 331.631 390.462 331.504 393.268 331.165C393.883 328.455 394.215 325.689 394.259 322.91C393.014 321.843 385.369 321.589 383.768 322.402ZM382.981 322.123C382.981 322.123 381.99 327.203 381.787 330.048C381.584 332.892 381.635 333.502 387.248 333.527C389.652 333.588 392.055 333.375 394.411 332.892C394.944 332.613 395.122 331.978 395.351 331.089C395.681 329.59 396.697 322.986 395.732 321.818C393.7 319.405 383.184 320.802 382.981 322.123ZM358.902 235.153C358.661 238.196 358.661 241.254 358.902 244.297H360.197C363.025 244.335 365.852 244.165 368.655 243.789C369.227 241.075 369.516 238.308 369.519 235.534C368.3 234.467 360.502 234.315 358.902 235.153ZM358.14 234.874C358.14 234.874 357.2 239.954 357.048 242.824C356.895 245.694 357.048 246.304 362.559 246.228C364.969 246.26 367.374 246.004 369.722 245.466C370.256 245.186 370.433 244.551 370.637 243.662C370.941 242.164 371.856 235.56 370.891 234.391C368.833 232.004 358.292 233.68 358.14 234.874ZM357.149 264.617C357.151 267.671 357.397 270.721 357.886 273.736C358.317 273.768 358.75 273.768 359.181 273.736C362.005 273.522 364.807 273.089 367.563 272.44C367.831 269.687 367.831 266.914 367.563 264.16C366.319 263.093 358.673 263.652 357.149 264.617ZM356.362 264.414C356.362 264.414 355.905 269.494 356.006 272.44C356.108 275.387 356.235 275.895 361.823 275.336C364.214 275.127 366.574 274.65 368.859 273.913C369.367 273.583 369.494 272.948 369.595 272.034C369.798 270.51 370.103 263.855 369.011 262.788C366.776 260.604 356.413 263.093 356.362 264.414ZM276.707 254.229C276.466 257.28 276.466 260.346 276.707 263.398H278.003C280.834 263.39 283.661 263.178 286.461 262.763C286.978 260.034 287.225 257.26 287.198 254.483C286.156 253.467 278.358 253.34 276.707 254.229ZM275.945 253.975C275.945 253.975 275.082 259.055 274.955 261.95C274.828 264.846 274.955 265.405 280.517 265.278C282.93 265.261 285.333 264.971 287.68 264.414C288.188 264.135 288.366 263.474 288.544 262.611C288.849 261.112 289.687 254.457 288.671 253.314C286.588 250.977 276.098 252.679 275.945 254V253.975ZM301.295 253.314C301.053 256.357 301.053 259.415 301.295 262.458H302.615C305.438 262.463 308.258 262.251 311.048 261.823C311.587 259.097 311.842 256.322 311.81 253.543C310.743 252.552 302.946 252.425 301.295 253.314ZM300.507 253.035C300.507 253.035 299.669 258.115 299.542 261.01C299.542 263.55 299.542 264.49 305.105 264.338C307.51 264.335 309.906 264.045 312.242 263.474C312.775 263.195 312.953 262.534 313.131 261.671C313.436 260.172 314.249 253.517 313.131 252.374C311.175 250.038 300.66 251.739 300.507 253.035ZM301.371 280.314C301.142 283.358 301.142 286.415 301.371 289.458H302.692C305.515 289.465 308.334 289.252 311.124 288.823C311.662 286.105 311.917 283.339 311.886 280.568C310.82 279.552 303.022 279.4 301.371 280.314ZM300.583 280.06C300.583 280.06 299.745 285.14 299.618 288.011C299.491 290.881 299.618 291.49 305.181 291.338C307.584 291.331 309.979 291.05 312.318 290.5C312.852 290.195 313.029 289.56 313.207 288.671C313.512 287.198 314.325 280.543 313.207 279.4C311.251 277.038 300.761 278.74 300.583 280.06ZM275.361 281.356C275.12 284.399 275.12 287.456 275.361 290.5H276.657C279.488 290.506 282.316 290.293 285.115 289.865C285.631 287.144 285.878 284.379 285.851 281.61C284.81 280.594 277.012 280.467 275.361 281.356ZM274.599 281.102C274.599 281.102 273.736 286.182 273.609 289.052C273.482 291.922 273.609 292.532 279.171 292.379C281.583 292.371 283.986 292.09 286.334 291.541C286.842 291.236 287.02 290.601 287.198 289.712C287.502 288.214 288.341 281.584 287.325 280.441C285.242 278.079 274.752 279.781 274.599 281.102ZM275.844 309.626C275.602 312.669 275.602 315.727 275.844 318.77H277.139C279.971 318.776 282.798 318.563 285.597 318.135C286.115 315.406 286.361 312.632 286.334 309.855C285.293 308.864 277.495 308.737 275.844 309.626ZM275.082 309.347C275.082 309.347 274.218 314.427 274.091 317.322C274.091 319.862 274.091 320.802 279.654 320.65C282.059 320.647 284.455 320.357 286.791 319.786C287.325 319.507 287.502 318.846 287.68 317.983C287.985 316.484 288.823 309.829 287.68 308.686C285.724 306.349 275.234 308.051 275.082 309.347ZM299.974 308.229C299.732 311.281 299.732 314.347 299.974 317.398C300.405 317.424 300.838 317.424 301.269 317.398C304.099 317.395 306.926 317.191 309.727 316.789C310.244 314.059 310.49 311.286 310.464 308.508C309.423 307.467 301.625 307.34 299.974 308.229ZM299.212 307.975C299.212 307.975 298.348 313.055 298.221 315.951C298.094 318.846 298.221 319.405 303.784 319.278C306.188 319.263 308.583 318.973 310.921 318.414C311.455 318.135 311.632 317.475 311.81 316.586C312.115 315.112 312.953 308.458 311.81 307.315C309.88 304.978 299.364 306.68 299.212 307.975ZM440.512 232.766C440.271 235.817 440.271 238.883 440.512 241.935C443.775 242.007 447.037 241.803 450.266 241.325C450.798 238.598 451.054 235.824 451.028 233.045C450.037 232.029 442.163 231.877 440.512 232.766ZM439.725 232.512C439.267 235.152 438.945 237.814 438.759 240.487C438.759 243.027 438.759 243.942 444.322 243.815C446.726 243.8 449.121 243.51 451.459 242.951C451.993 242.672 452.145 242.011 452.323 241.122C452.628 239.624 453.466 232.994 452.475 231.851C450.393 229.489 439.877 231.14 439.725 232.512ZM439.191 259.893C438.937 262.935 438.937 265.994 439.191 269.037C442.454 269.122 445.718 268.918 448.945 268.427C449.457 265.706 449.703 262.941 449.681 260.172C448.742 259.08 440.842 259.08 439.191 259.893ZM438.429 259.639C438.429 259.639 437.566 264.719 437.439 267.589C437.312 270.459 437.439 271.069 443.001 270.916C445.405 270.911 447.799 270.63 450.139 270.078C450.672 269.773 450.85 269.138 451.028 268.249C451.332 266.751 452.171 260.121 451.155 258.978C449.097 256.54 438.556 258.318 438.429 259.639ZM438.023 286.41C437.781 289.462 437.781 292.528 438.023 295.58C441.294 295.653 444.565 295.449 447.802 294.97C448.313 292.24 448.56 289.467 448.538 286.69C447.573 285.674 439.674 285.521 438.023 286.41ZM437.235 286.156C437.235 286.156 436.397 291.236 436.27 294.132C436.143 297.028 436.27 297.586 441.833 297.459C444.237 297.446 446.632 297.156 448.97 296.596C449.504 296.316 449.681 295.656 449.859 294.792C450.164 293.294 451.002 286.639 449.859 285.496C447.929 283.159 437.388 284.861 437.235 286.156ZM437.845 311.175C437.591 314.227 437.591 317.294 437.845 320.345C441.108 320.417 444.37 320.213 447.599 319.735C448.123 317.007 448.37 314.233 448.335 311.455C447.395 310.439 439.42 310.286 437.845 311.175ZM437.083 310.921C437.083 310.921 436.219 316.001 436.092 318.897C435.965 321.793 436.092 322.351 441.655 322.224C444.059 322.211 446.454 321.921 448.792 321.361C449.326 321.081 449.504 320.421 449.681 319.557C449.986 318.033 450.824 311.404 449.808 310.261C447.751 307.924 437.21 309.626 437.083 310.921ZM461.492 310.871C461.238 313.913 461.238 316.972 461.492 320.015C464.755 320.087 468.018 319.883 471.246 319.405C471.758 316.684 472.005 313.919 471.983 311.15C471.043 310.134 463.143 309.88 461.492 310.871ZM460.73 310.617C460.73 310.617 459.867 315.697 459.74 318.567C459.613 321.437 459.74 322.047 465.302 321.894C467.706 321.889 470.101 321.608 472.44 321.056C472.973 320.751 473.151 320.116 473.329 319.227C473.634 317.729 474.472 311.099 473.456 309.956C471.398 307.594 460.857 309.296 460.73 310.617ZM462.077 284.988C461.835 288.031 461.835 291.089 462.077 294.132C465.339 294.204 468.602 294 471.83 293.522C472.363 290.804 472.618 288.038 472.592 285.267C471.602 284.251 463.728 284.099 462.077 284.988ZM461.289 284.734C460.833 287.366 460.511 290.019 460.324 292.684C460.324 295.224 460.324 296.164 465.887 296.012C468.29 296.005 470.685 295.724 473.024 295.173C473.557 294.869 473.71 294.234 473.888 293.345C474.192 291.846 475.031 285.216 474.04 284.074C471.957 281.711 461.442 283.413 461.289 284.734ZM464.82 258.851C464.578 261.895 464.578 264.952 464.82 267.995C468.082 268.068 471.345 267.864 474.573 267.386C475.107 264.659 475.362 261.884 475.335 259.105C474.446 258.089 466.572 257.937 464.82 258.851ZM464.032 258.572C463.577 261.213 463.255 263.874 463.067 266.548C463.067 269.088 463.067 270.027 468.63 269.875C471.033 269.868 473.428 269.587 475.767 269.037C476.301 268.732 476.453 268.072 476.631 267.208C476.936 265.709 477.774 259.08 476.783 257.937C474.802 255.575 464.286 257.277 464.134 258.572H464.032ZM465.074 231.851C464.832 234.894 464.832 237.952 465.074 240.995C468.336 241.068 471.599 240.864 474.827 240.386C475.352 237.657 475.599 234.883 475.564 232.105C474.624 231.14 466.725 230.937 465.074 231.851ZM464.312 231.572C464.312 231.572 463.448 236.652 463.321 239.547C463.194 242.443 463.321 243.002 468.884 242.875C471.296 242.86 473.699 242.57 476.047 242.011C476.555 241.732 476.732 241.071 476.91 240.208C477.215 238.709 478.053 232.054 477.037 230.911C474.98 228.6 464.439 230.276 464.312 231.572ZM187.02 242.24C186.936 245.321 187.097 248.404 187.503 251.46C190.824 251.445 194.135 251.088 197.383 250.393C197.602 249.298 197.713 248.183 197.713 247.066C197.819 245.374 197.819 243.677 197.713 241.986C197.637 240.97 188.874 241.021 187.02 242.24ZM186.309 242.037C186.309 242.037 185.775 247.117 185.852 250.038C185.928 252.959 185.852 253.416 191.49 252.958C193.876 252.805 196.237 252.379 198.526 251.689C199.009 251.384 199.136 250.647 199.237 249.911C199.466 248.437 199.898 241.783 198.882 240.716C196.697 238.506 186.36 240.792 186.309 242.037ZM197.84 270.154C194.506 269.94 191.169 270.533 188.112 271.882C188.349 274.938 188.833 277.971 189.56 280.949C192.858 280.592 196.109 279.894 199.263 278.867C199.368 277.76 199.368 276.646 199.263 275.539C199.191 273.979 199.013 272.426 198.729 270.891C198.653 270.281 198.653 270.231 197.84 270.154ZM187.376 271.755C187.376 271.755 187.376 276.835 187.757 279.756C188.061 282.296 188.188 283.108 193.675 282.067C196.027 281.66 198.326 280.996 200.533 280.086C200.99 279.73 201.041 279.044 201.066 278.232C201.066 276.758 200.888 270.078 199.745 269.138C197.358 267.157 187.35 270.51 187.376 271.78V271.755ZM201.625 299.72C198.273 299.395 194.893 299.883 191.77 301.142C191.894 304.209 192.276 307.259 192.913 310.261C196.225 310.005 199.502 309.409 202.692 308.483C202.784 307.376 202.784 306.263 202.692 305.156C202.661 303.549 202.534 301.946 202.311 300.355C202.387 300.177 202.489 299.949 201.625 299.72ZM191.033 301.015C191.033 301.015 190.881 306.095 191.16 309.016C191.389 311.556 191.44 312.395 197.002 311.556C199.37 311.225 201.695 310.637 203.936 309.804C204.368 309.474 204.444 308.762 204.521 307.95C204.521 306.476 204.521 299.796 203.479 298.831C201.142 296.799 191.033 299.847 191.033 301.092V301.015ZM212.471 213.36C212.493 216.414 212.748 219.463 213.233 222.479C216.494 222.289 219.732 221.813 222.91 221.056C223.19 218.295 223.19 215.512 222.91 212.75C221.818 211.861 214.046 212.395 212.471 213.36ZM211.683 213.157C211.683 213.157 211.252 218.237 211.379 221.183C211.506 224.13 211.582 224.638 217.195 224.053C219.587 223.836 221.947 223.35 224.231 222.606C224.739 222.275 224.841 221.59 224.968 220.701C225.145 219.202 225.425 212.522 224.307 211.455C222.047 209.321 211.734 211.912 211.683 213.208V213.157ZM224.282 239.471C221.136 238.996 217.923 239.239 214.884 240.182C214.819 243.24 214.998 246.297 215.417 249.326H216.713C219.541 249.183 222.353 248.81 225.12 248.209C225.476 245.685 225.57 243.132 225.399 240.589C225.349 239.827 225.679 239.725 224.282 239.471ZM214.122 239.979C214.122 239.979 213.563 245.059 213.614 247.98C213.665 250.901 213.766 251.435 219.354 250.977C221.758 250.834 224.137 250.407 226.441 249.707C226.949 249.403 227.076 248.742 227.228 247.853C227.431 246.329 227.889 239.649 226.822 238.582C224.561 236.347 214.147 238.76 214.071 239.979H214.122ZM225.501 268.3C222.323 268.009 219.12 268.434 216.128 269.545C216.259 272.599 216.624 275.639 217.221 278.638C220.465 278.317 223.677 277.722 226.822 276.86C227.039 274.322 226.988 271.767 226.669 269.24C226.568 268.58 226.898 268.453 225.501 268.3ZM215.341 269.392C215.341 269.392 215.062 274.472 215.341 277.419C215.62 280.365 215.671 280.873 221.259 279.959C223.646 279.665 225.99 279.094 228.244 278.257C228.727 277.927 228.828 277.266 228.905 276.352C229.032 274.828 229.082 268.148 227.965 267.132C225.526 265.125 215.341 268.097 215.341 269.392ZM218.77 296.799C218.528 299.851 218.528 302.917 218.77 305.968C221.873 306.044 224.977 305.831 228.041 305.333H228.524C229.026 302.611 229.256 299.846 229.209 297.078C228.143 295.935 220.396 295.91 218.77 296.799ZM217.983 296.545C217.983 296.545 217.17 301.625 217.068 304.521C216.967 307.416 217.068 308 222.656 307.823C225.062 307.785 227.456 307.478 229.794 306.908C230.327 306.603 230.479 305.968 230.657 305.079C230.962 303.581 231.724 296.926 230.657 295.783C228.6 293.421 218.135 295.275 217.983 296.545Z" fill="#4953A0"/>
<path fill-rule="evenodd" clip-rule="evenodd" d="M494.791 154.254C483.666 147.904 395.553 98.2216 390.168 95.58C388.971 94.9114 387.69 94.4073 386.358 94.0814C384.123 94.0814 358.418 107.645 288.797 144.145C280.948 136.347 221.69 80.213 208.279 67.6654C211.198 63.5053 213.627 59.0222 215.518 54.305C215.564 54.0565 215.527 53.7996 215.413 53.5744C215.298 53.3492 215.111 53.1684 214.883 53.0604C210.311 49.9362 174.522 43.5608 168.502 47.8026C167.055 48.8186 164.997 53.5938 163.422 55.7528C160.882 59.2072 165.15 71.958 166.47 76.0728C165.954 77.4703 165.735 78.9601 165.827 80.447C165.919 81.9339 166.32 83.3854 167.004 84.7088C167.477 86.0638 167.867 87.4464 168.172 88.849C167.232 88.6458 166.293 88.3664 165.81 88.849C159.028 97.2564 107.136 142.189 91.1085 150.596C91.1935 148.228 91.0745 145.857 90.7529 143.51C90.7529 143.027 90.3211 142.926 89.9401 142.773C90.4227 140.944 90.9307 138.989 91.3879 137.338C93.9279 136.906 95.6805 136.017 98.2967 135.483C99.6875 135.16 100.984 134.516 102.082 133.603C103.18 132.691 104.049 131.534 104.621 130.226C105.561 127.914 104.799 126.009 105.155 123.647C105.155 123.088 107.263 121.92 106.171 119.583C105.741 118.457 105.064 117.441 104.19 116.611C103.544 116.11 102.925 115.576 102.335 115.011C103.834 114.452 104.875 113.639 104.367 112.065C102.816 109.326 101.121 106.672 99.2873 104.114C98.5542 102.998 98.0532 101.745 97.8141 100.431C97.0013 97.4088 97.9665 97.8914 97.6109 95.3514C98.9428 94.6538 99.9993 93.5257 100.608 92.151C100.673 92.0072 100.706 91.8514 100.706 91.6938C100.706 91.5362 100.673 91.3804 100.608 91.2366C101.092 91.0647 101.552 90.8344 101.98 90.5508C103.936 89.2554 103.275 87.6552 101.599 86.0804C105.028 82.9054 97.4077 75.5648 81.8375 78.4604C80.3368 78.9498 78.869 79.5352 77.4433 80.213C75.9274 79.647 74.3076 79.4132 72.6935 79.5272C69.4347 79.8632 66.2705 80.8202 63.3717 82.3466C61.1873 83.515 58.0631 87.198 58.5965 89.8142C57.7657 89.9501 56.9708 90.2525 56.2597 90.7032C52.0433 93.802 50.1129 99.5932 53.7197 103.403C53.5259 103.817 53.381 104.251 53.2879 104.699C52.7679 106.268 52.628 107.938 52.8797 109.572C53.1314 111.206 53.7675 112.757 54.7357 114.097C56.0673 115.739 57.726 117.086 59.6063 118.052C61.4866 119.018 63.5474 119.583 65.6577 119.71C65.5703 120.033 65.5276 120.366 65.5307 120.701C65.5307 121.971 64.8957 124.841 66.5213 125.781L67.1055 125.984C66.4451 128.524 65.7339 131.242 65.1497 133.604C62.9399 132.791 62.6097 132.537 62.2541 132.969C61.0895 134.19 60.152 135.609 59.4855 137.16C51.5353 134.874 28.9293 163.195 20.3187 194.818C15.0101 214.655 9.32053 272.466 15.2387 277.901C16.1411 278.728 17.1388 279.444 18.2105 280.035C16.7627 297.967 23.0619 316.839 32.0027 332.435C40.6387 347.624 59.1553 466.471 66.0387 472.44C66.8097 472.915 67.6779 473.21 68.5787 473.303C67.5715 477.726 67.8089 482.342 69.2645 486.638C69.5439 487.502 70.7885 487.934 71.8045 488.213C78.0783 490.067 97.0013 491.134 103.555 489.153C104.875 488.747 106.374 488.01 106.323 486.613C105.993 477.85 90.2703 478.993 87.7303 477.952C87.7815 476.558 87.96 475.172 88.2637 473.811C89.2265 473.789 90.1824 473.644 91.1085 473.38C98.9063 469.951 116.051 338.963 118.185 283.87C120.833 283.29 123.306 282.089 125.399 280.365C129.894 280.365 136.676 278.206 138.556 274.066C138.809 273.324 138.865 272.528 138.718 271.758C138.571 270.987 138.226 270.268 137.718 269.672C149.605 262.814 157.758 252.654 158.266 238.938C158.451 232.484 157.339 226.058 154.997 220.042C152.654 214.025 149.127 208.54 144.626 203.911C136.798 196.497 126.651 192.012 115.899 191.211C115.112 188.315 114.299 185.521 113.359 182.931C124.369 179.832 134.343 173.832 142.239 165.557C160.882 146.278 176.427 123.215 182.447 97.2056C184.657 95.1482 187.527 92.278 190.372 89.0776C203.885 101.778 275.487 169.494 282.269 176.327C282.828 176.86 283.59 176.327 284.301 176.073C285.85 175.361 381.507 125.806 383.132 125.12C396.518 128.321 466.8 170.84 482.954 179.832C483.075 179.882 483.205 179.908 483.335 179.908C483.466 179.908 483.596 179.882 483.716 179.832C484.301 179.654 483.716 180.594 492.098 165.252C493.445 164.135 495.019 156.87 495.324 155.092C495.314 154.918 495.26 154.75 495.167 154.603C495.073 154.457 494.944 154.336 494.791 154.254ZM168.172 84.1754C166.267 78.7398 166.978 75.006 172.566 73.8376C173.89 73.4748 175.258 73.2953 176.63 73.3042C177.316 73.5074 178.815 74.1932 178.713 74.4472C178.658 74.5782 178.56 74.686 178.434 74.752C177.084 75.5134 175.629 76.0699 174.116 76.403C173.759 76.4276 173.408 76.5046 173.074 76.6316C171.909 76.8488 170.796 77.2886 169.798 77.927C168.553 79.07 169.163 81.2036 170.357 82.372C172.338 84.3278 175.437 82.9308 177.977 81.9402C180.517 80.9496 184.073 79.4002 184.936 80.3146C185.8 81.229 181.456 83.4388 180.415 85.3946C179.628 86.8678 180.415 89.7888 180.059 92.4304C177.189 91.4398 172.211 89.738 169.264 88.8998C168.995 87.3045 168.631 85.7268 168.172 84.1754ZM183.412 78.181C176.757 80.1876 174.141 82.245 172.135 81.5338C171.764 81.3599 171.446 81.093 171.21 80.7591C170.974 80.4251 170.829 80.0357 170.788 79.6288C170.585 78.5874 172.414 78.3842 173.659 77.8C174.903 77.2158 176.199 77.8 178.561 76.4284C179.233 76.1085 179.759 75.5458 180.034 74.8536C181.924 74.0685 183.879 73.4482 185.876 72.9994L190.067 74.2186L187.806 76.7586L183.412 78.181ZM101.421 167.335C101.269 165.506 100.227 164.795 98.8809 165.303C97.5347 165.811 95.2487 167.564 95.1979 167.284C95.1471 167.005 95.1979 167.284 95.3503 167.284C93.9787 166.294 57.7583 140.919 55.8787 139.446C56.2428 138.83 56.8072 138.358 57.4775 138.108C58.1479 137.859 58.8836 137.847 59.5617 138.074C69.657 141.469 79.2703 146.156 88.1621 152.019C103.58 162.179 107.847 169.138 113.334 188.671C111.352 186.131 109.397 183.439 107.365 181.051C103.428 176.377 102.285 176.276 101.599 174.625C101.311 172.206 101.252 169.765 101.421 167.335ZM96.3409 100.812C96.6032 102.279 97.1559 103.678 97.9665 104.927C99.5413 107.467 102.615 111.658 102.843 112.547C103.072 113.436 101.446 113.411 100.303 113.995C97.6109 113.36 95.9853 115.138 93.9025 115.316C92.5563 115.316 91.3625 115.113 90.1941 115.138C88.2129 115.138 89.2543 115.595 86.9937 115.595C85.4951 115.595 83.5393 115.443 83.0821 115.595C82.1931 115.595 80.7707 116.256 79.5261 116.433C78.3029 116.608 78.1102 116.292 77.8387 115.847C77.8339 115.839 77.8291 115.832 77.8243 115.824C76.1479 112.928 73.8111 102.184 72.5411 101.066L71.1187 99.8726C69.8957 98.9632 69.0037 97.6787 68.5787 96.215C68.5787 95.453 68.9089 94.7926 70.1535 94.4878C73.3539 93.7004 76.1733 95.0974 79.3483 95.7324C84.4283 96.7992 91.2609 97.8406 96.1885 95.9102C96.3663 97.8152 95.5281 97.6882 96.3155 100.812H96.3409ZM66.8769 106.248C68.0453 106.4 69.4169 106.908 69.7217 108.051C69.7217 109.296 69.7217 112.242 69.5693 113.639C67.5119 113.639 65.5561 111.099 64.4893 109.067C63.4225 107.035 65.0989 105.994 66.8515 106.248H66.8769ZM70.0773 120.65L70.6361 120.37C70.4838 123.035 70.4838 125.707 70.6361 128.371C71.3727 132.308 71.9061 134.036 76.6813 135.737C80.8147 137.317 85.2517 137.942 89.6607 137.566L88.4415 142.087C87.5271 141.706 72.4903 135.991 66.6991 133.832C67.4357 130.53 68.1723 127.279 70.0519 120.65H70.0773ZM62.9399 133.934C63.7019 134.264 88.7209 143.891 89.4829 144.094C89.9653 146.607 90.2372 149.156 90.2957 151.714C81.0216 145.661 70.9745 140.886 60.4253 137.515C61.0737 136.205 61.9126 134.998 62.9145 133.934H62.9399ZM87.3747 473.761C86.9953 475.096 86.7486 476.466 86.6381 477.85C80.822 478.307 74.979 478.307 69.1629 477.85C69.114 476.315 69.1734 474.779 69.3407 473.253C75.3212 473.89 81.3424 474.06 87.3493 473.761H87.3747ZM136.829 273.101C135.508 276.022 131.012 277.723 127.862 278.308C123.011 279.247 118.566 277.241 114.172 274.853L122.935 267.233C123.385 267.74 123.878 268.207 124.408 268.63C125.576 269.468 126.694 268.91 127.735 267.919C129.691 266.065 130.275 263.55 132.104 264.211C132.316 264.288 132.5 264.426 132.635 264.606C132.77 264.786 132.851 265.002 132.866 265.227C131.825 267.233 128.726 270.942 131.622 272.186C132.47 272.392 133.357 272.382 134.2 272.155C135.043 271.929 135.816 271.494 136.448 270.891C136.692 271.222 136.852 271.608 136.914 272.015C136.976 272.422 136.938 272.838 136.803 273.228L136.829 273.101ZM77.9513 256.54C81.1927 260.011 85.191 262.688 89.6353 264.363C98.1189 269.672 105.866 273.863 109.371 275.691C86.5111 275.031 64.9211 266.268 62.5589 243.179C67.1828 248.185 72.3448 252.666 77.9513 256.54ZM99.0587 219.43C101.929 216.662 106.679 215.9 110.514 215.468C110.336 221.92 110.514 226.136 110.87 232.715L108.609 232.232C105.959 228.256 102.79 224.651 99.1857 221.513C99.0587 221.132 99.0587 220.421 99.0587 219.43ZM112.572 234.874C118.414 236.067 126.77 237.744 128.396 243.154C130.021 248.564 125.856 252.044 120.776 253.974C111.759 234.823 113.08 242.265 112.673 234.874H112.572ZM121.487 255.397C127.481 253.238 131.85 248.818 130.047 242.697C128.243 236.575 119.379 234.442 112.597 233.07C112.267 226.949 111.886 220.04 111.632 215.29C122.376 214.477 124.535 218.084 125.068 217.17C125.115 217.089 125.127 216.993 125.104 216.902C125.08 216.812 125.022 216.735 124.941 216.687C120.81 214.615 116.184 213.736 111.581 214.147C111.581 212.014 111.403 210.515 111.403 210.058C111.403 209.963 111.366 209.873 111.299 209.806C111.232 209.74 111.142 209.702 111.048 209.702C110.953 209.702 110.863 209.74 110.796 209.806C110.729 209.873 110.692 209.963 110.692 210.058C110.692 211.226 110.692 212.598 110.54 214.223C106.54 214.228 102.616 215.316 99.1857 217.373C99.1857 213.944 99.3889 208.788 99.1857 202.692C111.556 199.72 126.44 201.981 135.914 211.15C139.386 214.641 142.121 218.794 143.958 223.362C145.795 227.93 146.696 232.821 146.608 237.744C146.15 250.215 136.727 258.877 125.119 263.576C124.687 262.28 123.417 259.258 121.589 255.397H121.487ZM157.479 238.76C156.92 254 146.15 264.515 132.536 270.738C132.206 270.738 132.155 270.561 132.231 270.256C132.485 268.732 134.593 266.42 134.517 265.328C134.479 264.793 134.29 264.279 133.972 263.847C133.654 263.415 133.221 263.081 132.722 262.884C132.222 262.688 131.678 262.636 131.15 262.736C130.623 262.836 130.135 263.083 129.742 263.449C128.828 264.211 127.202 267.843 125.653 268.097C125.068 268.097 124.408 267.487 123.621 266.776C125.5 265.176 125.551 265.201 125.627 264.846C137.667 259.766 147.014 250.901 147.497 237.744C147.633 232.696 146.765 227.671 144.942 222.962C143.119 218.253 140.379 213.953 136.879 210.312C127.253 200.66 112.114 198.12 99.2619 201.015C99.2619 198.196 99.1095 195.935 98.9571 193.395C113.969 190.551 131.977 193.548 143.61 204.8C148.089 209.235 151.626 214.529 154.009 220.365C156.393 226.2 157.573 232.457 157.479 238.76ZM99.0587 191.567C98.7793 187.096 98.3221 182.423 97.6363 177.749C97.6363 177.655 97.5989 177.564 97.5322 177.498C97.4655 177.431 97.375 177.393 97.2807 177.393C97.1864 177.393 97.096 177.431 97.0293 177.498C96.9626 177.564 96.9251 177.655 96.9251 177.749C99.9477 200.863 96.9251 221.208 98.3221 222.351C108.482 230.708 118.871 252.12 123.875 264.261L111.784 274.726C98.2713 267.767 68.6041 250.749 60.6793 237.642C55.7163 229.724 51.9343 221.125 49.4525 212.115C45.0837 195.377 48.3095 183.845 46.6585 183.921C46.6105 183.921 46.563 183.931 46.5192 183.95C46.4755 183.97 46.4365 183.999 46.4051 184.035C46.3736 184.071 46.3505 184.114 46.3372 184.16C46.324 184.206 46.3209 184.255 46.3283 184.302C46.5315 189.941 45.0329 199.161 48.3095 212.42C50.9148 222.455 55.1447 231.996 60.8317 240.665C61.7715 261.925 77.1893 272.923 98.4491 276.225C104.238 277.106 110.104 277.379 115.95 277.038C122.63 280.822 124.256 279.4 122.63 280.314C107.39 288.62 30.0977 290.474 15.8229 277.292C10.3873 272.491 16.0261 215.9 21.7665 195.199C27.0497 176.098 41.7563 148.615 55.2945 139.954C64.9973 147.574 92.8865 167.36 94.3343 168.681C95.7821 170.002 98.0427 166.979 99.4143 166.878C99.9985 166.878 98.9317 172.923 99.7445 175.209C100.557 177.495 101.929 177.546 105.815 182.169C108.127 184.886 110.286 187.934 112.572 190.805C107.984 190.504 103.376 190.777 98.8555 191.617L99.0587 191.567ZM141.477 164.592C133.796 172.799 124.063 178.806 113.283 181.991C111.542 175.898 108.878 170.107 105.383 164.82C101.373 159.889 96.6267 155.606 91.3117 152.12V151.333C107.847 143.332 158.495 100.33 167.182 90.0936C171.974 91.3198 176.69 92.8295 181.304 94.6148C175.411 121.31 160.019 144.78 141.274 164.643L141.477 164.592ZM483.234 177.571C468.603 169.265 396.645 125.958 383.463 123.139C382.554 123.267 381.687 123.597 380.923 124.104C377.748 125.654 284.707 174.244 283.387 174.904C276.224 168.072 203.986 100.457 190.499 87.96H189.915C187.465 90.7281 185.015 93.2363 182.953 95.348C182.877 95.4259 182.801 95.5032 182.726 95.58C183.006 94.183 183.336 93.8782 180.898 92.8876C181.482 90.1952 180.898 87.1472 181.482 86.1312C182.345 84.7088 185.343 83.3626 186.308 81.7878C186.581 81.4021 186.701 80.9285 186.645 80.459C186.589 79.9896 186.36 79.5579 186.003 79.2478C188.543 78.4604 188.543 78.5112 188.746 78.2572C188.949 78.0032 191.489 74.9298 191.845 74.4218C191.925 74.3211 191.98 74.2028 192.006 74.0765C192.032 73.9503 192.027 73.8198 191.992 73.6958C191.958 73.5717 191.894 73.4577 191.806 73.3631C191.719 73.2686 191.61 73.1961 191.489 73.1518C189.519 72.6 187.517 72.1674 185.495 71.8564C179.551 73.7868 180.415 74.0662 180.161 73.7868C179.41 72.7477 178.294 72.0309 177.037 71.7802C175.375 71.6436 173.703 71.8246 172.109 72.3136C170.251 72.6317 168.538 73.5193 167.207 74.8536C166.14 71.5262 162.33 59.258 164.337 56.4386C166.343 53.6192 179.297 54.8384 182.828 55.2448C191.527 56.1396 200.123 57.8402 208.507 60.3248C209.232 60.544 209.924 60.8601 210.565 61.2646C209.727 63.8046 202.945 72.212 201.167 74.2694C201.038 74.4021 200.966 74.5798 200.966 74.7647C200.966 74.9496 201.038 75.1273 201.167 75.26C290.956 160.35 284.987 156.692 286.536 156.235C290.346 154.991 376.503 108.534 383.869 106.248C390.93 108.28 483.716 161.036 489.99 164.668L483.234 177.571Z" fill="#161616"/>
<path d="M99.0587 191.567C98.7793 187.096 98.3221 182.423 97.6363 177.749C97.6363 177.655 97.5989 177.564 97.5322 177.498C97.4655 177.431 97.375 177.393 97.2807 177.393C97.1864 177.393 97.096 177.431 97.0293 177.498C96.9626 177.564 96.9251 177.655 96.9251 177.749C99.9477 200.863 96.9251 221.208 98.3221 222.351C108.482 230.708 118.871 252.12 123.875 264.261L111.784 274.726C98.2713 267.767 68.6041 250.749 60.6793 237.642C55.7163 229.724 51.9343 221.125 49.4525 212.115C45.0837 195.377 48.3095 183.845 46.6585 183.921C46.6105 183.921 46.563 183.931 46.5192 183.95C46.4755 183.97 46.4365 183.999 46.4051 184.035C46.3736 184.071 46.3505 184.114 46.3372 184.16C46.324 184.206 46.3209 184.255 46.3283 184.302C46.5315 189.941 45.0329 199.161 48.3095 212.42C50.9148 222.455 55.1447 231.996 60.8317 240.665C61.7715 261.925 77.1893 272.923 98.4491 276.225C104.238 277.106 110.104 277.379 115.95 277.038C122.63 280.822 124.256 279.4 122.63 280.314C107.39 288.62 30.0977 290.474 15.8229 277.292C10.3873 272.491 16.0261 215.9 21.7665 195.199C27.0497 176.098 41.7563 148.615 55.2945 139.954C64.9973 147.574 92.8865 167.36 94.3343 168.681C95.7821 170.002 98.0427 166.979 99.4143 166.878C99.9985 166.878 98.9317 172.923 99.7445 175.209C100.557 177.495 101.929 177.546 105.815 182.169C108.127 184.886 110.286 187.934 112.572 190.805C107.984 190.504 103.376 190.777 98.8555 191.617L99.0587 191.567Z" fill="white"/>
<path d="M141.477 164.592C133.796 172.799 124.063 178.806 113.283 181.991C111.542 175.898 108.878 170.107 105.383 164.82C101.373 159.889 96.6267 155.606 91.3117 152.12V151.333C107.847 143.332 158.495 100.33 167.182 90.0936C171.974 91.3198 176.69 92.8295 181.304 94.6148C175.411 121.31 160.019 144.78 141.274 164.643L141.477 164.592Z" fill="white"/>
<path d="M483.234 177.571C468.603 169.265 396.645 125.958 383.463 123.139C382.554 123.267 381.687 123.597 380.923 124.104C377.748 125.654 284.707 174.244 283.387 174.904C276.224 168.072 203.986 100.457 190.499 87.96H189.915C187.465 90.7281 185.015 93.2363 182.953 95.348L182.726 95.58C183.006 94.183 183.336 93.8782 180.898 92.8876C181.482 90.1952 180.898 87.1472 181.482 86.1312C182.345 84.7088 185.343 83.3626 186.308 81.7878C186.581 81.4021 186.701 80.9285 186.645 80.459C186.589 79.9896 186.36 79.5579 186.003 79.2478C188.543 78.4604 188.543 78.5112 188.746 78.2572C188.949 78.0032 191.489 74.9298 191.845 74.4218C191.925 74.3211 191.98 74.2028 192.006 74.0765C192.032 73.9503 192.027 73.8198 191.992 73.6958C191.958 73.5717 191.894 73.4577 191.806 73.3631C191.719 73.2686 191.61 73.1961 191.489 73.1518C189.519 72.6 187.517 72.1674 185.495 71.8564C179.551 73.7868 180.415 74.0662 180.161 73.7868C179.41 72.7477 178.294 72.0309 177.037 71.7802C175.375 71.6436 173.703 71.8246 172.109 72.3136C170.251 72.6317 168.538 73.5193 167.207 74.8536C166.14 71.5262 162.33 59.258 164.337 56.4386C166.343 53.6192 179.297 54.8384 182.828 55.2448C191.527 56.1396 200.123 57.8402 208.507 60.3248C209.232 60.544 209.924 60.8601 210.565 61.2646C209.727 63.8046 202.945 72.212 201.167 74.2694C201.038 74.4021 200.966 74.5798 200.966 74.7647C200.966 74.9496 201.038 75.1273 201.167 75.26C290.956 160.35 284.987 156.692 286.536 156.235C290.346 154.991 376.503 108.534 383.869 106.248C390.93 108.28 483.716 161.036 489.99 164.668L483.234 177.571Z" fill="white"/>
<path d="M96.3409 100.812C96.6032 102.279 97.1559 103.678 97.9665 104.927C99.5413 107.467 102.615 111.658 102.843 112.547C103.072 113.436 101.446 113.411 100.303 113.995C97.6109 113.36 95.9853 115.138 93.9025 115.316C92.5563 115.316 91.3625 115.113 90.1941 115.138C88.2129 115.138 89.2543 115.595 86.9937 115.595C85.4951 115.595 83.5393 115.443 83.0821 115.595C82.1931 115.595 80.7707 116.256 79.5261 116.433C78.3029 116.608 78.1102 116.292 77.8387 115.847L77.8243 115.824C76.1479 112.928 73.8111 102.184 72.5411 101.066L71.1187 99.8726C69.8957 98.9632 69.0037 97.6787 68.5787 96.215C68.5787 95.453 68.9089 94.7926 70.1535 94.4878C73.3539 93.7004 76.1733 95.0974 79.3483 95.7324C84.4283 96.7992 91.2609 97.8406 96.1885 95.9102C96.3663 97.8152 95.5281 97.6882 96.3155 100.812H96.3409Z" fill="white"/>
<path fill-rule="evenodd" clip-rule="evenodd" d="M337.615 99.847C342.908 94.5747 346.856 88.1081 349.128 80.9915C351.4 73.8749 351.929 66.3167 350.671 58.953C348.131 42.8494 337.056 29.2096 325.271 23.6216C318.55 20.7509 311.449 18.8687 304.189 18.0336C298.535 17.6657 292.86 18.2496 287.399 19.7608C271.905 25.5012 262.99 31.8512 255.751 46.6848C252.846 54.4291 251.525 62.6776 251.865 70.9418C257.656 113.665 310.158 126.441 337.615 99.847ZM257.224 47.396C264.108 32.8164 272.794 26.5426 287.704 20.726C292.992 19.2102 298.491 18.5668 303.986 18.821C311.154 19.6735 318.147 21.6359 324.712 24.6376C335.939 30.1748 346.454 43.459 348.893 59.2324C350.053 66.3044 349.506 73.5513 347.296 80.3688C345.087 87.1864 341.28 93.377 336.193 98.4246C309.878 123.901 259.358 111.76 253.668 70.7132C253.342 62.7843 254.549 54.867 257.224 47.396Z" fill="#161616"/>
<path fill-rule="evenodd" clip-rule="evenodd" d="M331.42 93.9801C335.801 89.5933 339.067 84.2208 340.945 78.3124C342.824 72.4039 343.259 66.1316 342.215 60.0203C341.2 53.8428 338.772 47.9833 335.119 42.8989C331.467 37.8145 326.689 33.6426 321.158 30.7087C315.601 28.3491 309.732 26.8008 303.734 26.1113C299.057 25.7963 294.361 26.2685 289.84 27.5083C277.14 32.2073 269.673 37.4651 263.653 49.8349C261.228 56.2627 260.123 63.1129 260.402 69.9771C265.177 105.486 308.662 116.129 331.42 93.9801ZM265.101 50.5715C270.79 38.4811 277.953 33.3249 290.221 28.5497C294.565 27.2841 299.087 26.7434 303.607 26.9495C309.512 27.6645 315.27 29.2926 320.676 31.7755C325.944 34.7028 330.471 38.7981 333.909 43.7471C337.348 48.6961 339.607 54.3672 340.513 60.3251C341.479 66.1385 341.048 72.0982 339.255 77.7118C337.461 83.3255 334.358 88.4317 330.201 92.6085C308.357 113.741 267.006 103.404 262.332 69.7485C262.016 63.2378 262.956 56.727 265.101 50.5715Z" fill="#161616"/>
<path fill-rule="evenodd" clip-rule="evenodd" d="M301.6 64.3383C302.413 82.4739 302.565 83.3121 303.124 90.1701C300.907 90.1476 298.694 89.9949 296.495 89.7129C293.595 89.5482 290.791 88.6193 288.367 87.0205C287.611 86.5598 286.968 85.9347 286.487 85.1917C286.157 84.6075 284.48 85.1917 287.833 87.7317C290.339 89.5047 293.262 90.5985 296.317 90.9067C298.612 91.2815 300.927 91.519 303.251 91.6179C303.454 94.1579 303.683 96.4439 303.734 97.3075C303.756 97.3949 303.807 97.4724 303.878 97.5277C303.949 97.583 304.037 97.6131 304.127 97.6131C304.217 97.6131 304.305 97.583 304.376 97.5277C304.448 97.4724 304.499 97.3949 304.521 97.3075V91.6433C314.3 91.3385 323.673 84.6075 321.234 74.4475C319.405 66.8275 311.074 64.6685 303.454 62.7889C303.099 55.1689 302.718 46.7361 302.464 41.0465C304.628 40.8117 306.813 40.8543 308.966 41.1735C314.732 42.0625 315.367 44.1961 315.926 43.3833C315.963 43.3499 315.994 43.3088 316.014 43.2629C316.035 43.2169 316.046 43.167 316.046 43.1166C316.046 43.0661 316.035 43.0162 316.014 42.9703C315.994 42.9243 315.963 42.8832 315.926 42.8499C311.922 40.3584 307.207 39.26 302.514 39.7257C302.514 37.1857 302.311 35.2553 302.337 34.6457C302.337 34.5379 302.294 34.4345 302.218 34.3583C302.141 34.2821 302.038 34.2393 301.93 34.2393C301.822 34.2393 301.719 34.2821 301.643 34.3583C301.567 34.4345 301.524 34.5379 301.524 34.6457C301.524 36.0935 301.524 37.8461 301.346 39.7257C297.773 39.8398 294.283 40.8345 291.186 42.6213C286.741 45.5677 283.718 52.5273 287.198 57.3025C290.043 61.4173 296.799 63.1445 301.6 64.3383ZM319.38 74.9301C321.564 83.6677 313.081 89.6113 304.521 90.1701C304.292 77.4701 304.369 80.0101 303.683 64.7701C310.134 66.4719 317.678 68.5801 319.253 74.9301H319.38ZM288.138 49.5301C290.221 43.7643 295.123 41.9101 301.346 41.2751C301.143 49.4285 301.625 62.1285 301.651 62.4079C293.218 60.2235 285.09 57.5311 288.011 49.4285L288.138 49.5301ZM88.9004 97.8663C85.7508 98.1457 84.4046 100.584 84.938 100.889C85.4714 101.194 86.7668 99.8221 89.0528 99.6189C90.4979 99.4949 91.951 99.4949 93.3962 99.6189C94.7932 99.4157 92.0246 97.5869 88.9004 97.8663ZM93.32 103.073C93.3256 102.84 93.2561 102.61 93.1218 102.419C92.9874 102.228 92.7952 102.085 92.5735 102.011C92.3517 101.937 92.1121 101.936 91.8899 102.008C91.6676 102.081 91.4745 102.223 91.3388 102.413C90.8054 103.2 91.542 104.394 91.6944 105.283C91.6944 105.573 91.8094 105.851 92.0143 106.055C92.2191 106.26 92.4969 106.375 92.7866 106.375C93.0762 106.375 93.354 106.26 93.5589 106.055C93.7637 105.851 93.8788 105.573 93.8788 105.283C93.7555 104.532 93.5686 103.793 93.32 103.073Z" fill="#161616"/>
</svg>
