<svg width="1070" height="230" viewBox="0 0 1070 230" fill="none" xmlns="http://www.w3.org/2000/svg">
<rect x="88" y="30" width="56" height="56" rx="28" fill="#161616"/>
<path d="M110.638 68.39C109.425 68.39 108.341 68.117 107.388 67.571C106.443 67.0163 105.694 66.2667 105.139 65.322C104.593 64.3687 104.32 63.2853 104.32 62.072V55.208C104.32 53.9947 104.593 52.9113 105.139 51.958C105.694 51.0047 106.443 50.255 107.388 49.709C108.341 49.163 109.425 48.89 110.638 48.89C111.851 48.89 112.935 49.163 113.888 49.709C114.841 50.255 115.591 51.0047 116.137 51.958C116.683 52.9113 116.956 53.9947 116.956 55.208V62.072C116.956 63.2853 116.683 64.3687 116.137 65.322C115.591 66.2667 114.841 67.0163 113.888 67.571C112.935 68.117 111.851 68.39 110.638 68.39ZM110.638 66.167C111.375 66.167 112.042 65.9893 112.64 65.634C113.238 65.2787 113.715 64.802 114.07 64.204C114.425 63.5973 114.603 62.93 114.603 62.202V55.065C114.603 54.3283 114.425 53.661 114.07 53.063C113.715 52.465 113.238 51.9883 112.64 51.633C112.042 51.2777 111.375 51.1 110.638 51.1C109.91 51.1 109.243 51.2777 108.636 51.633C108.038 51.9883 107.561 52.465 107.206 53.063C106.851 53.661 106.673 54.3283 106.673 55.065V62.202C106.673 62.93 106.851 63.5973 107.206 64.204C107.561 64.802 108.038 65.2787 108.636 65.634C109.243 65.9893 109.91 66.167 110.638 66.167ZM123.858 68V51.841L120.335 53.973V51.386L123.858 49.28H126.211V68H123.858Z" fill="white"/>
<rect x="297" y="30" width="56" height="56" rx="28" fill="#161616"/>
<path d="M317.138 68.39C315.925 68.39 314.841 68.117 313.888 67.571C312.943 67.0163 312.194 66.2667 311.639 65.322C311.093 64.3687 310.82 63.2853 310.82 62.072V55.208C310.82 53.9947 311.093 52.9113 311.639 51.958C312.194 51.0047 312.943 50.255 313.888 49.709C314.841 49.163 315.925 48.89 317.138 48.89C318.351 48.89 319.435 49.163 320.388 49.709C321.341 50.255 322.091 51.0047 322.637 51.958C323.183 52.9113 323.456 53.9947 323.456 55.208V62.072C323.456 63.2853 323.183 64.3687 322.637 65.322C322.091 66.2667 321.341 67.0163 320.388 67.571C319.435 68.117 318.351 68.39 317.138 68.39ZM317.138 66.167C317.875 66.167 318.542 65.9893 319.14 65.634C319.738 65.2787 320.215 64.802 320.57 64.204C320.925 63.5973 321.103 62.93 321.103 62.202V55.065C321.103 54.3283 320.925 53.661 320.57 53.063C320.215 52.465 319.738 51.9883 319.14 51.633C318.542 51.2777 317.875 51.1 317.138 51.1C316.41 51.1 315.743 51.2777 315.136 51.633C314.538 51.9883 314.061 52.465 313.706 53.063C313.351 53.661 313.173 54.3283 313.173 55.065V62.202C313.173 62.93 313.351 63.5973 313.706 64.204C314.061 64.802 314.538 65.2787 315.136 65.634C315.743 65.9893 316.41 66.167 317.138 66.167ZM326.575 67.987L326.588 65.907L334.895 58.432C335.589 57.808 336.052 57.2187 336.286 56.664C336.529 56.1007 336.65 55.5243 336.65 54.935C336.65 54.2157 336.486 53.5657 336.156 52.985C335.827 52.4043 335.376 51.945 334.804 51.607C334.241 51.269 333.6 51.1 332.88 51.1C332.135 51.1 331.472 51.2777 330.891 51.633C330.311 51.9797 329.851 52.4433 329.513 53.024C329.184 53.6047 329.024 54.2373 329.032 54.922H326.666C326.666 53.7433 326.939 52.7033 327.485 51.802C328.031 50.892 328.772 50.1813 329.708 49.67C330.653 49.15 331.723 48.89 332.919 48.89C334.081 48.89 335.121 49.1587 336.039 49.696C336.958 50.2247 337.682 50.9483 338.21 51.867C338.748 52.777 339.016 53.8083 339.016 54.961C339.016 55.7757 338.912 56.482 338.704 57.08C338.505 57.678 338.193 58.2327 337.768 58.744C337.344 59.2467 336.811 59.784 336.169 60.356L329.266 66.557L328.967 65.777H339.016V67.987H326.575Z" fill="white"/>
<rect x="508" y="30" width="56" height="56" rx="28" fill="#161616"/>
<path d="M528.638 68.39C527.425 68.39 526.341 68.117 525.388 67.571C524.443 67.0163 523.694 66.2667 523.139 65.322C522.593 64.3687 522.32 63.2853 522.32 62.072V55.208C522.32 53.9947 522.593 52.9113 523.139 51.958C523.694 51.0047 524.443 50.255 525.388 49.709C526.341 49.163 527.425 48.89 528.638 48.89C529.851 48.89 530.935 49.163 531.888 49.709C532.841 50.255 533.591 51.0047 534.137 51.958C534.683 52.9113 534.956 53.9947 534.956 55.208V62.072C534.956 63.2853 534.683 64.3687 534.137 65.322C533.591 66.2667 532.841 67.0163 531.888 67.571C530.935 68.117 529.851 68.39 528.638 68.39ZM528.638 66.167C529.375 66.167 530.042 65.9893 530.64 65.634C531.238 65.2787 531.715 64.802 532.07 64.204C532.425 63.5973 532.603 62.93 532.603 62.202V55.065C532.603 54.3283 532.425 53.661 532.07 53.063C531.715 52.465 531.238 51.9883 530.64 51.633C530.042 51.2777 529.375 51.1 528.638 51.1C527.91 51.1 527.243 51.2777 526.636 51.633C526.038 51.9883 525.561 52.465 525.206 53.063C524.851 53.661 524.673 54.3283 524.673 55.065V62.202C524.673 62.93 524.851 63.5973 525.206 64.204C525.561 64.802 526.038 65.2787 526.636 65.634C527.243 65.9893 527.91 66.167 528.638 66.167ZM543.73 68.364C542.803 68.364 541.941 68.195 541.143 67.857C540.346 67.5103 539.657 67.025 539.076 66.401C538.504 65.7683 538.084 65.0187 537.815 64.152L540.038 63.515C540.324 64.3817 540.801 65.0403 541.468 65.491C542.136 65.9417 542.885 66.1627 543.717 66.154C544.48 66.1367 545.139 65.9633 545.693 65.634C546.257 65.296 546.69 64.8367 546.993 64.256C547.305 63.6753 547.461 63.0037 547.461 62.241C547.461 61.0797 547.115 60.1393 546.421 59.42C545.728 58.692 544.818 58.328 543.691 58.328C543.379 58.328 543.05 58.3713 542.703 58.458C542.365 58.5447 542.049 58.666 541.754 58.822L540.636 56.989L547.578 50.71L547.877 51.49H538.556V49.28H549.593V51.503L543.678 57.171L543.652 56.352C544.892 56.2653 545.975 56.469 546.902 56.963C547.83 57.457 548.549 58.1633 549.06 59.082C549.58 60.0007 549.84 61.0537 549.84 62.241C549.84 63.437 549.572 64.4943 549.034 65.413C548.497 66.3317 547.769 67.0553 546.85 67.584C545.932 68.104 544.892 68.364 543.73 68.364Z" fill="white"/>
<rect x="717" y="30" width="56" height="56" rx="28" fill="#161616"/>
<path d="M737.138 68.39C735.925 68.39 734.841 68.117 733.888 67.571C732.943 67.0163 732.194 66.2667 731.639 65.322C731.093 64.3687 730.82 63.2853 730.82 62.072V55.208C730.82 53.9947 731.093 52.9113 731.639 51.958C732.194 51.0047 732.943 50.255 733.888 49.709C734.841 49.163 735.925 48.89 737.138 48.89C738.351 48.89 739.435 49.163 740.388 49.709C741.341 50.255 742.091 51.0047 742.637 51.958C743.183 52.9113 743.456 53.9947 743.456 55.208V62.072C743.456 63.2853 743.183 64.3687 742.637 65.322C742.091 66.2667 741.341 67.0163 740.388 67.571C739.435 68.117 738.351 68.39 737.138 68.39ZM737.138 66.167C737.875 66.167 738.542 65.9893 739.14 65.634C739.738 65.2787 740.215 64.802 740.57 64.204C740.925 63.5973 741.103 62.93 741.103 62.202V55.065C741.103 54.3283 740.925 53.661 740.57 53.063C740.215 52.465 739.738 51.9883 739.14 51.633C738.542 51.2777 737.875 51.1 737.138 51.1C736.41 51.1 735.743 51.2777 735.136 51.633C734.538 51.9883 734.061 52.465 733.706 53.063C733.351 53.661 733.173 54.3283 733.173 55.065V62.202C733.173 62.93 733.351 63.5973 733.706 64.204C734.061 64.802 734.538 65.2787 735.136 65.634C735.743 65.9893 736.41 66.167 737.138 66.167ZM755.181 68V64.555H746.575V62.358L752.75 49.28H755.376L749.201 62.358H755.181V57.093H757.521V62.358H759.471V64.555H757.521V68H755.181Z" fill="white"/>
<rect x="928" y="30" width="56" height="56" rx="28" fill="#161616"/>
<path d="M948.138 68.39C946.925 68.39 945.841 68.117 944.888 67.571C943.943 67.0163 943.194 66.2667 942.639 65.322C942.093 64.3687 941.82 63.2853 941.82 62.072V55.208C941.82 53.9947 942.093 52.9113 942.639 51.958C943.194 51.0047 943.943 50.255 944.888 49.709C945.841 49.163 946.925 48.89 948.138 48.89C949.351 48.89 950.435 49.163 951.388 49.709C952.341 50.255 953.091 51.0047 953.637 51.958C954.183 52.9113 954.456 53.9947 954.456 55.208V62.072C954.456 63.2853 954.183 64.3687 953.637 65.322C953.091 66.2667 952.341 67.0163 951.388 67.571C950.435 68.117 949.351 68.39 948.138 68.39ZM948.138 66.167C948.875 66.167 949.542 65.9893 950.14 65.634C950.738 65.2787 951.215 64.802 951.57 64.204C951.925 63.5973 952.103 62.93 952.103 62.202V55.065C952.103 54.3283 951.925 53.661 951.57 53.063C951.215 52.465 950.738 51.9883 950.14 51.633C949.542 51.2777 948.875 51.1 948.138 51.1C947.41 51.1 946.743 51.2777 946.136 51.633C945.538 51.9883 945.061 52.465 944.706 53.063C944.351 53.661 944.173 54.3283 944.173 55.065V62.202C944.173 62.93 944.351 63.5973 944.706 64.204C945.061 64.802 945.538 65.2787 946.136 65.634C946.743 65.9893 947.41 66.167 948.138 66.167ZM963.633 68.39C962.671 68.39 961.774 68.1907 960.942 67.792C960.119 67.3933 959.413 66.8473 958.823 66.154C958.243 65.452 957.827 64.646 957.575 63.736L959.798 63.138C959.954 63.7533 960.232 64.2863 960.63 64.737C961.029 65.179 961.493 65.5257 962.021 65.777C962.559 66.0197 963.118 66.141 963.698 66.141C964.461 66.141 965.146 65.959 965.752 65.595C966.368 65.2223 966.853 64.7327 967.208 64.126C967.564 63.5107 967.741 62.839 967.741 62.111C967.741 61.357 967.555 60.6767 967.182 60.07C966.818 59.4547 966.329 58.9693 965.713 58.614C965.098 58.2587 964.426 58.081 963.698 58.081C962.875 58.081 962.169 58.2543 961.579 58.601C960.999 58.939 960.539 59.355 960.201 59.849L958.147 59.069L958.719 49.28H968.768V51.477H959.837L960.864 50.515L960.383 58.354L959.876 57.691C960.396 57.1363 961.016 56.7073 961.735 56.404C962.463 56.1007 963.204 55.949 963.958 55.949C965.12 55.949 966.16 56.222 967.078 56.768C967.997 57.3053 968.725 58.042 969.262 58.978C969.8 59.9053 970.068 60.9497 970.068 62.111C970.068 63.2637 969.774 64.3167 969.184 65.27C968.595 66.2147 967.811 66.973 966.831 67.545C965.861 68.1083 964.795 68.39 963.633 68.39Z" fill="white"/>
<path d="M85.8092 139V126.86H81.1492V124.6H92.8792V126.86H88.2192V139H85.8092ZM106.038 139H103.598V128.85L96.9181 139H94.4781V124.6H96.9181V134.75L103.598 124.6H106.038V139ZM108.834 139V124.6H111.004L115.984 134.8L120.964 124.6H123.134V139H120.884V129.77L116.464 139H115.504L111.094 129.77V139H108.834ZM127.843 139L129.743 135.12L124.773 124.6H127.493L131.003 132.58L134.623 124.6H137.193L130.413 139H127.843ZM138.677 139V124.6H144.627C144.767 124.6 144.947 124.607 145.167 124.62C145.387 124.627 145.591 124.647 145.777 124.68C146.611 124.807 147.297 125.083 147.837 125.51C148.384 125.937 148.787 126.477 149.047 127.13C149.314 127.777 149.447 128.497 149.447 129.29C149.447 130.077 149.314 130.797 149.047 131.45C148.781 132.097 148.374 132.633 147.827 133.06C147.287 133.487 146.604 133.763 145.777 133.89C145.591 133.917 145.384 133.937 145.157 133.95C144.937 133.963 144.761 133.97 144.627 133.97H141.087V139H138.677ZM141.087 131.72H144.527C144.661 131.72 144.811 131.713 144.977 131.7C145.144 131.687 145.297 131.66 145.437 131.62C145.837 131.52 146.151 131.343 146.377 131.09C146.611 130.837 146.774 130.55 146.867 130.23C146.967 129.91 147.017 129.597 147.017 129.29C147.017 128.983 146.967 128.67 146.867 128.35C146.774 128.023 146.611 127.733 146.377 127.48C146.151 127.227 145.837 127.05 145.437 126.95C145.297 126.91 145.144 126.887 144.977 126.88C144.811 126.867 144.661 126.86 144.527 126.86H141.087V131.72ZM69.5422 166.3C68.4689 166.3 67.5089 166.133 66.6622 165.8C65.8155 165.46 65.0989 164.953 64.5122 164.28C63.9255 163.6 63.4855 162.757 63.1922 161.75L65.5522 161.16C65.8189 162.013 66.2889 162.707 66.9622 163.24C67.6355 163.773 68.4455 164.037 69.3922 164.03C70.0522 164.017 70.6755 163.887 71.2622 163.64C71.8555 163.393 72.3389 163.013 72.7122 162.5C73.0122 162.12 73.2322 161.713 73.3722 161.28C73.5122 160.84 73.6089 160.387 73.6622 159.92H68.5622V157.66H73.6822C73.5755 156.847 73.3422 156.133 72.9822 155.52C72.6222 154.9 72.1389 154.42 71.5322 154.08C70.9322 153.733 70.2189 153.567 69.3922 153.58C68.4055 153.587 67.5722 153.86 66.8922 154.4C66.2122 154.94 65.7489 155.67 65.5022 156.59L63.0922 156.25C63.4522 154.677 64.1922 153.46 65.3122 152.6C66.4322 151.733 67.8422 151.3 69.5422 151.3C70.9355 151.3 72.1322 151.617 73.1322 152.25C74.1389 152.877 74.9122 153.753 75.4522 154.88C75.9989 156.007 76.2755 157.313 76.2822 158.8C76.2889 160.2 76.0255 161.467 75.4922 162.6C74.9589 163.733 74.1855 164.633 73.1722 165.3C72.1655 165.967 70.9555 166.3 69.5422 166.3ZM76.8961 166V163.98C77.2161 164 77.4861 163.977 77.7061 163.91C77.9261 163.837 78.1094 163.7 78.2561 163.5C78.4094 163.293 78.5428 163.003 78.6561 162.63C78.7694 162.25 78.8794 161.773 78.9861 161.2C79.1394 160.38 79.2661 159.527 79.3661 158.64C79.4728 157.747 79.5628 156.87 79.6361 156.01C79.7094 155.143 79.7661 154.33 79.8061 153.57C79.8461 152.81 79.8794 152.153 79.9061 151.6H89.5461V166H87.1361V153.86H82.1361C82.1028 154.307 82.0628 154.847 82.0161 155.48C81.9761 156.107 81.9194 156.787 81.8461 157.52C81.7794 158.253 81.6928 159.013 81.5861 159.8C81.4861 160.587 81.3628 161.36 81.2161 162.12C81.0828 162.813 80.9228 163.437 80.7361 163.99C80.5494 164.537 80.2994 164.99 79.9861 165.35C79.6794 165.703 79.2761 165.94 78.7761 166.06C78.2828 166.18 77.6561 166.16 76.8961 166ZM92.3492 166V151.6H101.649V153.86H94.7592V157.41H100.449V159.67H94.7592V163.74H101.649V166H92.3492ZM107.508 166V153.86H102.848V151.6H114.578V153.86H109.918V166H107.508ZM116.177 166V151.6H125.477V153.86H118.587V157.41H124.277V159.67H118.587V163.74H125.477V166H116.177ZM127.877 166V151.6H130.287V157.66H137.107V151.6H139.507V166H137.107V159.92H130.287V166H127.877ZM148.4 166.3C146.96 166.3 145.727 165.987 144.7 165.36C143.673 164.727 142.883 163.847 142.33 162.72C141.783 161.593 141.51 160.287 141.51 158.8C141.51 157.313 141.783 156.007 142.33 154.88C142.883 153.753 143.673 152.877 144.7 152.25C145.727 151.617 146.96 151.3 148.4 151.3C149.84 151.3 151.073 151.617 152.1 152.25C153.133 152.877 153.923 153.753 154.47 154.88C155.023 156.007 155.3 157.313 155.3 158.8C155.3 160.287 155.023 161.593 154.47 162.72C153.923 163.847 153.133 164.727 152.1 165.36C151.073 165.987 149.84 166.3 148.4 166.3ZM148.4 164.03C149.367 164.037 150.17 163.823 150.81 163.39C151.457 162.957 151.94 162.347 152.26 161.56C152.587 160.773 152.75 159.853 152.75 158.8C152.75 157.747 152.587 156.833 152.26 156.06C151.94 155.28 151.457 154.673 150.81 154.24C150.17 153.807 149.367 153.583 148.4 153.57C147.433 153.563 146.63 153.777 145.99 154.21C145.35 154.643 144.867 155.253 144.54 156.04C144.22 156.827 144.06 157.747 144.06 158.8C144.06 159.853 144.22 160.77 144.54 161.55C144.86 162.323 145.34 162.927 145.98 163.36C146.627 163.793 147.433 164.017 148.4 164.03ZM157.291 166V151.6H163.001C163.974 151.6 164.771 151.797 165.391 152.19C166.017 152.577 166.481 153.073 166.781 153.68C167.087 154.287 167.241 154.913 167.241 155.56C167.241 156.353 167.051 157.027 166.671 157.58C166.297 158.133 165.787 158.507 165.141 158.7V158.2C166.047 158.407 166.734 158.837 167.201 159.49C167.674 160.143 167.911 160.887 167.911 161.72C167.911 162.573 167.747 163.32 167.421 163.96C167.094 164.6 166.607 165.1 165.961 165.46C165.321 165.82 164.527 166 163.581 166H157.291ZM159.731 163.73H163.281C163.701 163.73 164.077 163.647 164.411 163.48C164.744 163.307 165.004 163.067 165.191 162.76C165.384 162.447 165.481 162.077 165.481 161.65C165.481 161.263 165.397 160.917 165.231 160.61C165.064 160.303 164.821 160.06 164.501 159.88C164.181 159.693 163.797 159.6 163.351 159.6H159.731V163.73ZM159.731 157.35H162.971C163.317 157.35 163.627 157.283 163.901 157.15C164.174 157.017 164.391 156.82 164.551 156.56C164.711 156.3 164.791 155.98 164.791 155.6C164.791 155.1 164.631 154.683 164.311 154.35C163.991 154.017 163.544 153.85 162.971 153.85H159.731V157.35Z" fill="#222222"/>
<path d="M284.363 139L288.903 124.6H292.433L296.973 139H294.493L290.373 126.08H290.913L286.843 139H284.363ZM286.893 135.88V133.63H294.453V135.88H286.893ZM298.781 139V124.6H301.221V134.75L307.901 124.6H310.341V139H307.901V128.85L301.221 139H298.781ZM304.551 123.38C303.991 123.38 303.481 123.243 303.021 122.97C302.568 122.697 302.204 122.333 301.931 121.88C301.658 121.42 301.521 120.91 301.521 120.35H303.401C303.401 120.67 303.511 120.943 303.731 121.17C303.958 121.39 304.231 121.5 304.551 121.5C304.871 121.5 305.141 121.39 305.361 121.17C305.588 120.943 305.701 120.67 305.701 120.35H307.581C307.581 120.91 307.444 121.42 307.171 121.88C306.898 122.333 306.531 122.697 306.071 122.97C305.611 123.243 305.104 123.38 304.551 123.38ZM313.136 139V124.6H324.806V139H322.396V126.86H315.546V139H313.136ZM327.609 139V124.6H336.909V126.86H330.019V130.41H335.709V132.67H330.019V136.74H336.909V139H327.609ZM339.308 139V124.6H345.258C345.398 124.6 345.578 124.607 345.798 124.62C346.018 124.627 346.222 124.647 346.408 124.68C347.242 124.807 347.928 125.083 348.468 125.51C349.015 125.937 349.418 126.477 349.678 127.13C349.945 127.777 350.078 128.497 350.078 129.29C350.078 130.077 349.945 130.797 349.678 131.45C349.412 132.097 349.005 132.633 348.458 133.06C347.918 133.487 347.235 133.763 346.408 133.89C346.222 133.917 346.015 133.937 345.788 133.95C345.568 133.963 345.392 133.97 345.258 133.97H341.718V139H339.308ZM341.718 131.72H345.158C345.292 131.72 345.442 131.713 345.608 131.7C345.775 131.687 345.928 131.66 346.068 131.62C346.468 131.52 346.782 131.343 347.008 131.09C347.242 130.837 347.405 130.55 347.498 130.23C347.598 129.91 347.648 129.597 347.648 129.29C347.648 128.983 347.598 128.67 347.498 128.35C347.405 128.023 347.242 127.733 347.008 127.48C346.782 127.227 346.468 127.05 346.068 126.95C345.928 126.91 345.775 126.887 345.608 126.88C345.442 126.867 345.292 126.86 345.158 126.86H341.718V131.72ZM363.642 139H361.202V128.85L354.522 139H352.082V124.6H354.522V134.75L361.202 124.6H363.642V139ZM255.769 166L260.309 151.6H263.839L268.379 166H265.899L261.779 153.08H262.319L258.249 166H255.769ZM258.299 162.88V160.63H265.859V162.88H258.299ZM270.187 166V151.6H279.817V153.86H272.597V156.96H276.137C276.27 156.96 276.447 156.967 276.667 156.98C276.894 156.987 277.1 157 277.287 157.02C278.094 157.113 278.767 157.37 279.307 157.79C279.854 158.21 280.264 158.74 280.537 159.38C280.817 160.02 280.957 160.72 280.957 161.48C280.957 162.24 280.82 162.943 280.547 163.59C280.274 164.23 279.864 164.76 279.317 165.18C278.777 165.593 278.1 165.847 277.287 165.94C277.1 165.96 276.897 165.977 276.677 165.99C276.457 165.997 276.277 166 276.137 166H270.187ZM272.597 163.74H276.037C276.17 163.74 276.32 163.733 276.487 163.72C276.654 163.707 276.807 163.687 276.947 163.66C277.547 163.533 277.96 163.253 278.187 162.82C278.414 162.387 278.527 161.94 278.527 161.48C278.527 161.013 278.414 160.567 278.187 160.14C277.96 159.707 277.547 159.427 276.947 159.3C276.807 159.267 276.654 159.247 276.487 159.24C276.32 159.227 276.17 159.22 276.037 159.22H272.597V163.74ZM281.194 168.4V163.74C281.661 163.74 282.051 163.623 282.364 163.39C282.678 163.157 282.928 162.833 283.114 162.42C283.308 162.007 283.458 161.527 283.564 160.98C283.671 160.427 283.754 159.84 283.814 159.22C283.888 158.4 283.951 157.597 284.004 156.81C284.058 156.017 284.108 155.197 284.154 154.35C284.208 153.497 284.268 152.573 284.334 151.58L293.724 151.6V163.74H294.804V168.4H292.404V166H283.604V168.4H281.194ZM284.944 163.74H291.314V153.86L286.534 153.84C286.488 154.54 286.448 155.193 286.414 155.8C286.388 156.4 286.351 157.01 286.304 157.63C286.264 158.25 286.208 158.927 286.134 159.66C286.068 160.38 285.994 160.98 285.914 161.46C285.841 161.94 285.731 162.357 285.584 162.71C285.438 163.057 285.224 163.4 284.944 163.74ZM296.984 166V151.6H299.394V156.63H302.934C303.067 156.63 303.247 156.637 303.474 156.65C303.7 156.657 303.907 156.677 304.094 156.71C304.92 156.837 305.604 157.113 306.144 157.54C306.69 157.967 307.094 158.507 307.354 159.16C307.62 159.807 307.754 160.523 307.754 161.31C307.754 162.103 307.62 162.827 307.354 163.48C307.094 164.127 306.69 164.663 306.144 165.09C305.604 165.517 304.92 165.793 304.094 165.92C303.907 165.947 303.7 165.967 303.474 165.98C303.254 165.993 303.074 166 302.934 166H296.984ZM299.394 163.74H302.834C302.974 163.74 303.124 163.733 303.284 163.72C303.45 163.707 303.607 163.683 303.754 163.65C304.147 163.55 304.457 163.373 304.684 163.12C304.917 162.867 305.08 162.58 305.174 162.26C305.274 161.933 305.324 161.617 305.324 161.31C305.324 161.003 305.274 160.69 305.174 160.37C305.08 160.05 304.917 159.763 304.684 159.51C304.457 159.257 304.147 159.08 303.754 158.98C303.607 158.94 303.45 158.913 303.284 158.9C303.124 158.887 302.974 158.88 302.834 158.88H299.394V163.74ZM309.194 166V151.6H311.604V166H309.194ZM313.386 166V163.98C313.706 164 313.976 163.977 314.196 163.91C314.416 163.837 314.6 163.7 314.746 163.5C314.9 163.293 315.033 163.003 315.146 162.63C315.26 162.25 315.37 161.773 315.476 161.2C315.63 160.38 315.756 159.527 315.856 158.64C315.963 157.747 316.053 156.87 316.126 156.01C316.2 155.143 316.256 154.33 316.296 153.57C316.336 152.81 316.37 152.153 316.396 151.6H326.036V166H323.626V153.86H318.626C318.593 154.307 318.553 154.847 318.506 155.48C318.466 156.107 318.41 156.787 318.336 157.52C318.27 158.253 318.183 159.013 318.076 159.8C317.976 160.587 317.853 161.36 317.706 162.12C317.573 162.813 317.413 163.437 317.226 163.99C317.04 164.537 316.79 164.99 316.476 165.35C316.17 165.703 315.766 165.94 315.266 166.06C314.773 166.18 314.146 166.16 313.386 166ZM328.069 168.4V163.74C328.536 163.74 328.926 163.623 329.239 163.39C329.553 163.157 329.803 162.833 329.989 162.42C330.183 162.007 330.333 161.527 330.439 160.98C330.546 160.427 330.629 159.84 330.689 159.22C330.763 158.4 330.826 157.597 330.879 156.81C330.933 156.017 330.983 155.197 331.029 154.35C331.083 153.497 331.143 152.573 331.209 151.58L340.599 151.6V163.74H341.679V168.4H339.279V166H330.479V168.4H328.069ZM331.819 163.74H338.189V153.86L333.409 153.84C333.363 154.54 333.323 155.193 333.289 155.8C333.263 156.4 333.226 157.01 333.179 157.63C333.139 158.25 333.083 158.927 333.009 159.66C332.943 160.38 332.869 160.98 332.789 161.46C332.716 161.94 332.606 162.357 332.459 162.71C332.313 163.057 332.099 163.4 331.819 163.74ZM342.879 166L347.419 151.6H350.949L355.489 166H353.009L348.889 153.08H349.429L345.359 166H342.879ZM345.409 162.88V160.63H352.969V162.88H345.409ZM357.296 166V151.6H366.596V153.86H359.706V157.41H365.396V159.67H359.706V163.74H366.596V166H357.296ZM368.996 166V151.6H374.706C375.679 151.6 376.476 151.797 377.096 152.19C377.722 152.577 378.186 153.073 378.486 153.68C378.792 154.287 378.946 154.913 378.946 155.56C378.946 156.353 378.756 157.027 378.376 157.58C378.002 158.133 377.492 158.507 376.846 158.7V158.2C377.752 158.407 378.439 158.837 378.906 159.49C379.379 160.143 379.616 160.887 379.616 161.72C379.616 162.573 379.452 163.32 379.126 163.96C378.799 164.6 378.312 165.1 377.666 165.46C377.026 165.82 376.232 166 375.286 166H368.996ZM371.436 163.73H374.986C375.406 163.73 375.782 163.647 376.116 163.48C376.449 163.307 376.709 163.067 376.896 162.76C377.089 162.447 377.186 162.077 377.186 161.65C377.186 161.263 377.102 160.917 376.936 160.61C376.769 160.303 376.526 160.06 376.206 159.88C375.886 159.693 375.502 159.6 375.056 159.6H371.436V163.73ZM371.436 157.35H374.676C375.022 157.35 375.332 157.283 375.606 157.15C375.879 157.017 376.096 156.82 376.256 156.56C376.416 156.3 376.496 155.98 376.496 155.6C376.496 155.1 376.336 154.683 376.016 154.35C375.696 154.017 375.249 153.85 374.676 153.85H371.436V157.35ZM380.613 166L385.153 151.6H388.683L393.223 166H390.743L386.623 153.08H387.163L383.093 166H380.613ZM383.143 162.88V160.63H390.703V162.88H383.143Z" fill="#222222"/>
<path d="M465.806 139V124.6H475.436V126.86H468.216V129.96H471.756C471.89 129.96 472.066 129.967 472.286 129.98C472.513 129.987 472.72 130 472.906 130.02C473.713 130.113 474.386 130.37 474.926 130.79C475.473 131.21 475.883 131.74 476.156 132.38C476.436 133.02 476.576 133.72 476.576 134.48C476.576 135.24 476.44 135.943 476.166 136.59C475.893 137.23 475.483 137.76 474.936 138.18C474.396 138.593 473.72 138.847 472.906 138.94C472.72 138.96 472.516 138.977 472.296 138.99C472.076 138.997 471.896 139 471.756 139H465.806ZM468.216 136.74H471.656C471.79 136.74 471.94 136.733 472.106 136.72C472.273 136.707 472.426 136.687 472.566 136.66C473.166 136.533 473.58 136.253 473.806 135.82C474.033 135.387 474.146 134.94 474.146 134.48C474.146 134.013 474.033 133.567 473.806 133.14C473.58 132.707 473.166 132.427 472.566 132.3C472.426 132.267 472.273 132.247 472.106 132.24C471.94 132.227 471.79 132.22 471.656 132.22H468.216V136.74ZM484.67 139.3C483.23 139.3 481.996 138.987 480.97 138.36C479.943 137.727 479.153 136.847 478.6 135.72C478.053 134.593 477.78 133.287 477.78 131.8C477.78 130.313 478.053 129.007 478.6 127.88C479.153 126.753 479.943 125.877 480.97 125.25C481.996 124.617 483.23 124.3 484.67 124.3C486.11 124.3 487.343 124.617 488.37 125.25C489.403 125.877 490.193 126.753 490.74 127.88C491.293 129.007 491.57 130.313 491.57 131.8C491.57 133.287 491.293 134.593 490.74 135.72C490.193 136.847 489.403 137.727 488.37 138.36C487.343 138.987 486.11 139.3 484.67 139.3ZM484.67 137.03C485.636 137.037 486.44 136.823 487.08 136.39C487.726 135.957 488.21 135.347 488.53 134.56C488.856 133.773 489.02 132.853 489.02 131.8C489.02 130.747 488.856 129.833 488.53 129.06C488.21 128.28 487.726 127.673 487.08 127.24C486.44 126.807 485.636 126.583 484.67 126.57C483.703 126.563 482.9 126.777 482.26 127.21C481.62 127.643 481.136 128.253 480.81 129.04C480.49 129.827 480.33 130.747 480.33 131.8C480.33 132.853 480.49 133.77 480.81 134.55C481.13 135.323 481.61 135.927 482.25 136.36C482.896 136.793 483.703 137.017 484.67 137.03ZM492.17 139V136.98C492.49 137 492.76 136.977 492.98 136.91C493.2 136.837 493.383 136.7 493.53 136.5C493.683 136.293 493.816 136.003 493.93 135.63C494.043 135.25 494.153 134.773 494.26 134.2C494.413 133.38 494.54 132.527 494.64 131.64C494.746 130.747 494.836 129.87 494.91 129.01C494.983 128.143 495.04 127.33 495.08 126.57C495.12 125.81 495.153 125.153 495.18 124.6H504.82V139H502.41V126.86H497.41C497.376 127.307 497.336 127.847 497.29 128.48C497.25 129.107 497.193 129.787 497.12 130.52C497.053 131.253 496.966 132.013 496.86 132.8C496.76 133.587 496.636 134.36 496.49 135.12C496.356 135.813 496.196 136.437 496.01 136.99C495.823 137.537 495.573 137.99 495.26 138.35C494.953 138.703 494.55 138.94 494.05 139.06C493.556 139.18 492.93 139.16 492.17 139ZM513.713 139.3C512.273 139.3 511.039 138.987 510.013 138.36C508.986 137.727 508.196 136.847 507.643 135.72C507.096 134.593 506.823 133.287 506.823 131.8C506.823 130.313 507.096 129.007 507.643 127.88C508.196 126.753 508.986 125.877 510.013 125.25C511.039 124.617 512.273 124.3 513.713 124.3C515.153 124.3 516.386 124.617 517.413 125.25C518.446 125.877 519.236 126.753 519.783 127.88C520.336 129.007 520.613 130.313 520.613 131.8C520.613 133.287 520.336 134.593 519.783 135.72C519.236 136.847 518.446 137.727 517.413 138.36C516.386 138.987 515.153 139.3 513.713 139.3ZM513.713 137.03C514.679 137.037 515.483 136.823 516.123 136.39C516.769 135.957 517.253 135.347 517.573 134.56C517.899 133.773 518.063 132.853 518.063 131.8C518.063 130.747 517.899 129.833 517.573 129.06C517.253 128.28 516.769 127.673 516.123 127.24C515.483 126.807 514.679 126.583 513.713 126.57C512.746 126.563 511.943 126.777 511.303 127.21C510.663 127.643 510.179 128.253 509.853 129.04C509.533 129.827 509.373 130.747 509.373 131.8C509.373 132.853 509.533 133.77 509.853 134.55C510.173 135.323 510.653 135.927 511.293 136.36C511.939 136.793 512.746 137.017 513.713 137.03ZM525.673 139V126.86H521.013V124.6H532.743V126.86H528.083V139H525.673ZM537.74 139V124.6H540.15V131.28L545.9 124.6H548.86L542.67 131.66L549.28 139H546.22L540.15 132.28V139H537.74ZM549.689 139L554.229 124.6H557.759L562.299 139H559.819L555.699 126.08H556.239L552.169 139H549.689ZM552.219 135.88V133.63H559.779V135.88H552.219ZM563.732 139V136.98C564.052 137 564.322 136.977 564.542 136.91C564.762 136.837 564.945 136.7 565.092 136.5C565.245 136.293 565.379 136.003 565.492 135.63C565.605 135.25 565.715 134.773 565.822 134.2C565.975 133.38 566.102 132.527 566.202 131.64C566.309 130.747 566.399 129.87 566.472 129.01C566.545 128.143 566.602 127.33 566.642 126.57C566.682 125.81 566.715 125.153 566.742 124.6H576.382V139H573.972V126.86H568.972C568.939 127.307 568.899 127.847 568.852 128.48C568.812 129.107 568.755 129.787 568.682 130.52C568.615 131.253 568.529 132.013 568.422 132.8C568.322 133.587 568.199 134.36 568.052 135.12C567.919 135.813 567.759 136.437 567.572 136.99C567.385 137.537 567.135 137.99 566.822 138.35C566.515 138.703 566.112 138.94 565.612 139.06C565.119 139.18 564.492 139.16 563.732 139ZM590.745 139H588.305V128.85L581.625 139H579.185V124.6H581.625V134.75L588.305 124.6H590.745V139ZM592.541 139V136.98C592.861 137 593.131 136.977 593.351 136.91C593.571 136.837 593.754 136.7 593.901 136.5C594.054 136.293 594.187 136.003 594.301 135.63C594.414 135.25 594.524 134.773 594.631 134.2C594.784 133.38 594.911 132.527 595.011 131.64C595.117 130.747 595.207 129.87 595.281 129.01C595.354 128.143 595.411 127.33 595.451 126.57C595.491 125.81 595.524 125.153 595.551 124.6H605.191V139H602.781V126.86H597.781C597.747 127.307 597.707 127.847 597.661 128.48C597.621 129.107 597.564 129.787 597.491 130.52C597.424 131.253 597.337 132.013 597.231 132.8C597.131 133.587 597.007 134.36 596.861 135.12C596.727 135.813 596.567 136.437 596.381 136.99C596.194 137.537 595.944 137.99 595.631 138.35C595.324 138.703 594.921 138.94 594.421 139.06C593.927 139.18 593.301 139.16 592.541 139ZM513.37 166L515.27 162.12L510.3 151.6H513.02L516.53 159.58L520.15 151.6H522.72L515.94 166H513.37ZM525.714 166L527.614 162.12L522.644 151.6H525.364L528.874 159.58L532.494 151.6H535.064L528.284 166H525.714ZM534.142 166V163.98C534.462 164 534.732 163.977 534.952 163.91C535.172 163.837 535.356 163.7 535.502 163.5C535.656 163.293 535.789 163.003 535.902 162.63C536.016 162.25 536.126 161.773 536.232 161.2C536.386 160.38 536.512 159.527 536.612 158.64C536.719 157.747 536.809 156.87 536.882 156.01C536.956 155.143 537.012 154.33 537.052 153.57C537.092 152.81 537.126 152.153 537.152 151.6H546.792V166H544.382V153.86H539.382C539.349 154.307 539.309 154.847 539.262 155.48C539.222 156.107 539.166 156.787 539.092 157.52C539.026 158.253 538.939 159.013 538.832 159.8C538.732 160.587 538.609 161.36 538.462 162.12C538.329 162.813 538.169 163.437 537.982 163.99C537.796 164.537 537.546 164.99 537.232 165.35C536.926 165.703 536.522 165.94 536.022 166.06C535.529 166.18 534.902 166.16 534.142 166ZM551.495 166L553.395 162.12L548.425 151.6H551.145L554.655 159.58L558.275 151.6H560.845L554.065 166H551.495Z" fill="#222222"/>
<path d="M694.638 139H692.198V128.85L685.518 139H683.078V124.6H685.518V134.75L692.198 124.6H694.638V139ZM697.433 139V124.6H699.603L704.583 134.8L709.563 124.6H711.733V139H709.483V129.77L705.063 139H704.103L699.693 129.77V139H697.433ZM713.543 139L718.083 124.6H721.613L726.153 139H723.673L719.553 126.08H720.093L716.023 139H713.543ZM716.073 135.88V133.63H723.633V135.88H716.073ZM727.961 139V124.6H730.371V130.66H737.191V124.6H739.591V139H737.191V132.92H730.371V139H727.961ZM742.394 139V124.6H744.804V131.28L750.554 124.6H753.514L747.324 131.66L753.934 139H750.874L744.804 132.28V139H742.394ZM757.243 139L759.143 135.12L754.173 124.6H756.893L760.403 132.58L764.023 124.6H766.593L759.813 139H757.243ZM765.671 139V136.98C765.991 137 766.261 136.977 766.481 136.91C766.701 136.837 766.885 136.7 767.031 136.5C767.185 136.293 767.318 136.003 767.431 135.63C767.545 135.25 767.655 134.773 767.761 134.2C767.915 133.38 768.041 132.527 768.141 131.64C768.248 130.747 768.338 129.87 768.411 129.01C768.485 128.143 768.541 127.33 768.581 126.57C768.621 125.81 768.655 125.153 768.681 124.6H778.321V139H775.911V126.86H770.911C770.878 127.307 770.838 127.847 770.791 128.48C770.751 129.107 770.695 129.787 770.621 130.52C770.555 131.253 770.468 132.013 770.361 132.8C770.261 133.587 770.138 134.36 769.991 135.12C769.858 135.813 769.698 136.437 769.511 136.99C769.325 137.537 769.075 137.99 768.761 138.35C768.455 138.703 768.051 138.94 767.551 139.06C767.058 139.18 766.431 139.16 765.671 139ZM787.215 139.3C785.775 139.3 784.541 138.987 783.515 138.36C782.488 137.727 781.698 136.847 781.145 135.72C780.598 134.593 780.325 133.287 780.325 131.8C780.325 130.313 780.598 129.007 781.145 127.88C781.698 126.753 782.488 125.877 783.515 125.25C784.541 124.617 785.775 124.3 787.215 124.3C788.655 124.3 789.888 124.617 790.915 125.25C791.948 125.877 792.738 126.753 793.285 127.88C793.838 129.007 794.115 130.313 794.115 131.8C794.115 133.287 793.838 134.593 793.285 135.72C792.738 136.847 791.948 137.727 790.915 138.36C789.888 138.987 788.655 139.3 787.215 139.3ZM787.215 137.03C788.181 137.037 788.985 136.823 789.625 136.39C790.271 135.957 790.755 135.347 791.075 134.56C791.401 133.773 791.565 132.853 791.565 131.8C791.565 130.747 791.401 129.833 791.075 129.06C790.755 128.28 790.271 127.673 789.625 127.24C788.985 126.807 788.181 126.583 787.215 126.57C786.248 126.563 785.445 126.777 784.805 127.21C784.165 127.643 783.681 128.253 783.355 129.04C783.035 129.827 782.875 130.747 782.875 131.8C782.875 132.853 783.035 133.77 783.355 134.55C783.675 135.323 784.155 135.927 784.795 136.36C785.441 136.793 786.248 137.017 787.215 137.03ZM796.105 139V124.6H801.815C802.788 124.6 803.585 124.797 804.205 125.19C804.832 125.577 805.295 126.073 805.595 126.68C805.902 127.287 806.055 127.913 806.055 128.56C806.055 129.353 805.865 130.027 805.485 130.58C805.112 131.133 804.602 131.507 803.955 131.7V131.2C804.862 131.407 805.548 131.837 806.015 132.49C806.488 133.143 806.725 133.887 806.725 134.72C806.725 135.573 806.562 136.32 806.235 136.96C805.908 137.6 805.422 138.1 804.775 138.46C804.135 138.82 803.342 139 802.395 139H796.105ZM798.545 136.73H802.095C802.515 136.73 802.892 136.647 803.225 136.48C803.558 136.307 803.818 136.067 804.005 135.76C804.198 135.447 804.295 135.077 804.295 134.65C804.295 134.263 804.212 133.917 804.045 133.61C803.878 133.303 803.635 133.06 803.315 132.88C802.995 132.693 802.612 132.6 802.165 132.6H798.545V136.73ZM798.545 130.35H801.785C802.132 130.35 802.442 130.283 802.715 130.15C802.988 130.017 803.205 129.82 803.365 129.56C803.525 129.3 803.605 128.98 803.605 128.6C803.605 128.1 803.445 127.683 803.125 127.35C802.805 127.017 802.358 126.85 801.785 126.85H798.545V130.35ZM704.113 166V151.6H713.743V153.86H706.523V156.96H710.063C710.196 156.96 710.373 156.967 710.593 156.98C710.82 156.987 711.026 157 711.213 157.02C712.02 157.113 712.693 157.37 713.233 157.79C713.78 158.21 714.19 158.74 714.463 159.38C714.743 160.02 714.883 160.72 714.883 161.48C714.883 162.24 714.746 162.943 714.473 163.59C714.2 164.23 713.79 164.76 713.243 165.18C712.703 165.593 712.026 165.847 711.213 165.94C711.026 165.96 710.823 165.977 710.603 165.99C710.383 165.997 710.203 166 710.063 166H704.113ZM706.523 163.74H709.963C710.096 163.74 710.246 163.733 710.413 163.72C710.58 163.707 710.733 163.687 710.873 163.66C711.473 163.533 711.886 163.253 712.113 162.82C712.34 162.387 712.453 161.94 712.453 161.48C712.453 161.013 712.34 160.567 712.113 160.14C711.886 159.707 711.473 159.427 710.873 159.3C710.733 159.267 710.58 159.247 710.413 159.24C710.246 159.227 710.096 159.22 709.963 159.22H706.523V163.74ZM716.886 166V151.6H726.186V153.86H719.296V157.41H724.986V159.67H719.296V163.74H726.186V166H716.886ZM728.586 166V151.6H730.996V158.28L736.746 151.6H739.706L733.516 158.66L740.126 166H737.066L730.996 159.28V166H728.586ZM740.335 166L745.755 158.66L740.755 151.6H743.635L748.085 158.11V151.6H750.495V158.11L754.945 151.6H757.825L752.825 158.66L758.245 166H755.275L750.495 159.45V166H748.085V159.45L743.315 166H740.335ZM758.836 166L763.376 151.6H766.906L771.446 166H768.966L764.846 153.08H765.386L761.316 166H758.836ZM761.366 162.88V160.63H768.926V162.88H761.366ZM773.254 166V151.6H775.664V157.66H782.484V151.6H784.884V166H782.484V159.92H775.664V166H773.254Z" fill="#222222"/>
<path d="M905.484 139V124.6H907.894V131.28L913.644 124.6H916.604L910.414 131.66L917.024 139H913.964L907.894 132.28V139H905.484ZM917.433 139L921.973 124.6H925.503L930.043 139H927.563L923.443 126.08H923.983L919.913 139H917.433ZM919.963 135.88V133.63H927.523V135.88H919.963ZM937.551 139.3C936.111 139.3 934.877 138.987 933.851 138.36C932.824 137.727 932.034 136.847 931.481 135.72C930.934 134.593 930.661 133.287 930.661 131.8C930.661 130.313 930.934 129.007 931.481 127.88C932.034 126.753 932.824 125.877 933.851 125.25C934.877 124.617 936.111 124.3 937.551 124.3C939.211 124.3 940.594 124.717 941.701 125.55C942.807 126.377 943.584 127.493 944.031 128.9L941.601 129.57C941.321 128.63 940.844 127.897 940.171 127.37C939.497 126.837 938.624 126.57 937.551 126.57C936.584 126.57 935.777 126.787 935.131 127.22C934.491 127.653 934.007 128.263 933.681 129.05C933.361 129.83 933.197 130.747 933.191 131.8C933.191 132.853 933.351 133.773 933.671 134.56C933.997 135.34 934.484 135.947 935.131 136.38C935.777 136.813 936.584 137.03 937.551 137.03C938.624 137.03 939.497 136.763 940.171 136.23C940.844 135.697 941.321 134.963 941.601 134.03L944.031 134.7C943.584 136.107 942.807 137.227 941.701 138.06C940.594 138.887 939.211 139.3 937.551 139.3ZM946.206 139V124.6H948.616V129.63H952.156C952.29 129.63 952.47 129.637 952.696 129.65C952.923 129.657 953.13 129.677 953.316 129.71C954.143 129.837 954.826 130.113 955.366 130.54C955.913 130.967 956.316 131.507 956.576 132.16C956.843 132.807 956.976 133.523 956.976 134.31C956.976 135.103 956.843 135.827 956.576 136.48C956.316 137.127 955.913 137.663 955.366 138.09C954.826 138.517 954.143 138.793 953.316 138.92C953.13 138.947 952.923 138.967 952.696 138.98C952.476 138.993 952.296 139 952.156 139H946.206ZM948.616 136.74H952.056C952.196 136.74 952.346 136.733 952.506 136.72C952.673 136.707 952.83 136.683 952.976 136.65C953.37 136.55 953.68 136.373 953.906 136.12C954.14 135.867 954.303 135.58 954.396 135.26C954.496 134.933 954.546 134.617 954.546 134.31C954.546 134.003 954.496 133.69 954.396 133.37C954.303 133.05 954.14 132.763 953.906 132.51C953.68 132.257 953.37 132.08 952.976 131.98C952.83 131.94 952.673 131.913 952.506 131.9C952.346 131.887 952.196 131.88 952.056 131.88H948.616V136.74ZM958.416 139V124.6H960.826V139H958.416ZM963.609 139V124.6H965.779L970.759 134.8L975.739 124.6H977.909V139H975.659V129.77L971.239 139H970.279L965.869 129.77V139H963.609ZM986.808 139.3C985.368 139.3 984.135 138.987 983.108 138.36C982.082 137.727 981.292 136.847 980.738 135.72C980.192 134.593 979.918 133.287 979.918 131.8C979.918 130.313 980.192 129.007 980.738 127.88C981.292 126.753 982.082 125.877 983.108 125.25C984.135 124.617 985.368 124.3 986.808 124.3C988.248 124.3 989.482 124.617 990.508 125.25C991.542 125.877 992.332 126.753 992.878 127.88C993.432 129.007 993.708 130.313 993.708 131.8C993.708 133.287 993.432 134.593 992.878 135.72C992.332 136.847 991.542 137.727 990.508 138.36C989.482 138.987 988.248 139.3 986.808 139.3ZM986.808 137.03C987.775 137.037 988.578 136.823 989.218 136.39C989.865 135.957 990.348 135.347 990.668 134.56C990.995 133.773 991.158 132.853 991.158 131.8C991.158 130.747 990.995 129.833 990.668 129.06C990.348 128.28 989.865 127.673 989.218 127.24C988.578 126.807 987.775 126.583 986.808 126.57C985.842 126.563 985.038 126.777 984.398 127.21C983.758 127.643 983.275 128.253 982.948 129.04C982.628 129.827 982.468 130.747 982.468 131.8C982.468 132.853 982.628 133.77 982.948 134.55C983.268 135.323 983.748 135.927 984.388 136.36C985.035 136.793 985.842 137.017 986.808 137.03ZM995.699 139V124.6H1001.41C1002.38 124.6 1003.18 124.797 1003.8 125.19C1004.43 125.577 1004.89 126.073 1005.19 126.68C1005.5 127.287 1005.65 127.913 1005.65 128.56C1005.65 129.353 1005.46 130.027 1005.08 130.58C1004.71 131.133 1004.2 131.507 1003.55 131.7V131.2C1004.46 131.407 1005.14 131.837 1005.61 132.49C1006.08 133.143 1006.32 133.887 1006.32 134.72C1006.32 135.573 1006.16 136.32 1005.83 136.96C1005.5 137.6 1005.02 138.1 1004.37 138.46C1003.73 138.82 1002.94 139 1001.99 139H995.699ZM998.139 136.73H1001.69C1002.11 136.73 1002.49 136.647 1002.82 136.48C1003.15 136.307 1003.41 136.067 1003.6 135.76C1003.79 135.447 1003.89 135.077 1003.89 134.65C1003.89 134.263 1003.81 133.917 1003.64 133.61C1003.47 133.303 1003.23 133.06 1002.91 132.88C1002.59 132.693 1002.21 132.6 1001.76 132.6H998.139V136.73ZM998.139 130.35H1001.38C1001.73 130.35 1002.04 130.283 1002.31 130.15C1002.58 130.017 1002.8 129.82 1002.96 129.56C1003.12 129.3 1003.2 128.98 1003.2 128.6C1003.2 128.1 1003.04 127.683 1002.72 127.35C1002.4 127.017 1001.95 126.85 1001.38 126.85H998.139V130.35ZM914.127 166V151.6H916.297L921.277 161.8L926.257 151.6H928.427V166H926.177V156.77L921.757 166H920.797L916.387 156.77V166H914.127ZM942.796 166H940.356V155.85L933.676 166H931.236V151.6H933.676V161.75L940.356 151.6H942.796V166ZM945.591 166V151.6H951.541C951.681 151.6 951.861 151.607 952.081 151.62C952.301 151.627 952.505 151.647 952.691 151.68C953.525 151.807 954.211 152.083 954.751 152.51C955.298 152.937 955.701 153.477 955.961 154.13C956.228 154.777 956.361 155.497 956.361 156.29C956.361 157.077 956.228 157.797 955.961 158.45C955.695 159.097 955.288 159.633 954.741 160.06C954.201 160.487 953.518 160.763 952.691 160.89C952.505 160.917 952.298 160.937 952.071 160.95C951.851 160.963 951.675 160.97 951.541 160.97H948.001V166H945.591ZM948.001 158.72H951.441C951.575 158.72 951.725 158.713 951.891 158.7C952.058 158.687 952.211 158.66 952.351 158.62C952.751 158.52 953.065 158.343 953.291 158.09C953.525 157.837 953.688 157.55 953.781 157.23C953.881 156.91 953.931 156.597 953.931 156.29C953.931 155.983 953.881 155.67 953.781 155.35C953.688 155.023 953.525 154.733 953.291 154.48C953.065 154.227 952.751 154.05 952.351 153.95C952.211 153.91 952.058 153.887 951.891 153.88C951.725 153.867 951.575 153.86 951.441 153.86H948.001V158.72ZM956.369 166V163.98C956.689 164 956.959 163.977 957.179 163.91C957.399 163.837 957.582 163.7 957.729 163.5C957.882 163.293 958.015 163.003 958.129 162.63C958.242 162.25 958.352 161.773 958.459 161.2C958.612 160.38 958.739 159.527 958.839 158.64C958.945 157.747 959.035 156.87 959.109 156.01C959.182 155.143 959.239 154.33 959.279 153.57C959.319 152.81 959.352 152.153 959.379 151.6H969.019V166H966.609V153.86H961.609C961.575 154.307 961.535 154.847 961.489 155.48C961.449 156.107 961.392 156.787 961.319 157.52C961.252 158.253 961.165 159.013 961.059 159.8C960.959 160.587 960.835 161.36 960.689 162.12C960.555 162.813 960.395 163.437 960.209 163.99C960.022 164.537 959.772 164.99 959.459 165.35C959.152 165.703 958.749 165.94 958.249 166.06C957.755 166.18 957.129 166.16 956.369 166ZM970.822 166L975.362 151.6H978.892L983.432 166H980.952L976.832 153.08H977.372L973.302 166H970.822ZM973.352 162.88V160.63H980.912V162.88H973.352ZM985.24 166V151.6H987.65V157.66H994.47V151.6H996.87V166H994.47V159.92H987.65V166H985.24Z" fill="#222222"/>
<circle opacity="0.7" cx="115" cy="115" r="114.5" stroke="#161616"/>
<circle opacity="0.7" cx="325" cy="115" r="114.5" stroke="#161616"/>
<circle opacity="0.7" cx="535" cy="115" r="114.5" stroke="#161616"/>
<circle opacity="0.7" cx="745" cy="115" r="114.5" stroke="#161616"/>
<circle opacity="0.7" cx="955" cy="115" r="114.5" stroke="#161616"/>
</svg>
