<svg width="286" height="405" viewBox="0 0 286 405" fill="none" xmlns="http://www.w3.org/2000/svg">
<g opacity="0.1">
<path d="M188.46 338.401L187.133 337.243C203.139 322.769 210.376 322.455 231.861 321.512L235.32 321.363C237.769 321.247 240.088 321.165 242.276 321.082C266.248 320.155 275.223 319.808 280.16 298.982C285.863 275.045 284.872 232.118 280.403 208.579C277.056 190.813 263.387 181.02 248.914 170.648C238.443 163.154 227.616 155.396 221.09 144.346C206.748 120.062 224.1 80.808 239.415 46.1523C246.371 30.4373 252.934 15.5825 255.496 4.16846L257.366 4.48276C254.767 16.0622 248.185 30.9501 241.191 46.7643C226.026 81.0726 208.824 119.963 222.792 143.585C229.13 154.321 239.808 161.98 250.129 169.374C264.228 179.465 278.813 189.92 282.291 208.298C286.779 231.986 287.77 275.194 282.03 299.279C276.775 321.363 266.715 321.76 242.388 322.703L235.451 322.984L231.991 323.133C211.011 324.076 203.962 324.39 188.46 338.401Z" fill="#161616"/>
<path d="M181.11 339.857L179.801 338.683C196.069 324.357 202.95 323.795 225.725 322.141L230.98 321.777C255.288 320.122 263.403 319.543 268.377 299.197C274.66 274.003 276.175 231.374 271.631 208.083C268.116 189.887 254.035 180.077 239.132 169.639C228.193 161.997 216.899 154.073 210.186 142.626C196.013 118.474 213.627 80.5268 229.147 47.0456C236.627 30.9667 243.639 15.7976 246.238 4.03613L248.108 4.35043C245.49 16.3104 238.403 31.5622 230.923 47.7073C215.534 80.7914 198.107 118.425 211.869 141.898C218.414 153.031 229.558 160.839 240.329 168.365C254.858 178.539 269.873 189.059 273.519 207.818C278.082 231.341 276.549 274.218 270.247 299.561C264.881 321.065 255.662 321.744 230.98 323.431L225.931 323.795C203.043 325.515 196.892 325.962 181.11 339.857Z" fill="#161616"/>
<path d="M176.755 343.364L175.371 342.239C189.844 328.162 195.846 326.905 216.509 324.308H217.126C243.528 320.999 249.045 320.288 254.411 299.991C261.76 272.349 268.678 231.457 264.078 207.206C260.507 188.332 245.38 178.092 229.28 167.241C217.537 159.317 205.402 151.129 198.315 139.268C183.991 115.249 202.541 78.8562 218.883 46.748C226.999 30.8345 234.647 15.8143 237.451 3.95361L239.321 4.28446C236.479 16.3271 228.775 31.43 220.622 47.4262C204.429 79.187 186.067 115.249 200.054 138.49C206.935 150.07 218.902 158.109 230.477 165.934C246.128 176.488 262.265 187.439 266.004 206.942C270.66 231.424 263.686 272.581 256.318 300.371C250.709 321.777 244.276 322.571 217.462 325.945H216.845C196.22 328.526 190.835 329.651 176.755 343.364Z" fill="#161616"/>
<path d="M174.903 348.343L173.164 347.715C179.653 333.538 192.873 329.833 205.625 326.21C218.715 322.554 231 319.097 237.226 305.351C241.06 296.898 242.686 286.344 244.238 276.121C245.202 268.809 246.638 261.551 248.539 254.384C249.268 251.903 250.072 249.422 250.877 246.808C255.159 233.277 259.572 219.282 256.58 205.883C252.242 186.463 235.805 175.578 218.415 164.048C203.849 154.404 188.796 144.429 181.896 129.045C171.163 105.059 189.152 75.6967 206.542 47.2939C216.246 31.4466 225.427 16.4594 228.756 3.54004L230.626 3.90397C227.222 17.1376 218.004 32.1248 208.187 48.0879C191.003 76.2095 173.239 105.175 183.635 128.433C190.33 143.321 205.177 153.246 219.537 162.725C236.366 173.924 253.943 185.52 258.412 205.552C261.497 219.348 257.01 233.541 252.69 247.255C251.886 249.802 251.082 252.317 250.353 254.798C248.468 261.887 247.051 269.068 246.108 276.303C244.519 286.608 242.892 297.278 238.965 305.913C232.402 320.387 219.088 324.109 206.205 327.749C193.321 331.388 181.055 334.878 174.903 348.343Z" fill="#161616"/>
<path d="M174.714 354.729L172.844 354.365C176.023 342.173 183.634 338.6 192.441 334.514C195.888 332.955 199.234 331.227 202.463 329.337C213.421 322.72 214.337 320.288 217.74 311.355C218.264 309.999 218.844 308.477 219.517 306.773C222.677 298.899 225.126 290.43 227.333 282.241C229.819 272.674 232.941 263.245 236.682 254.004C237.748 251.539 238.889 249.041 240.048 246.461C246.331 232.615 252.838 218.339 249.902 204.047C245.62 183.27 227.314 171.723 207.923 159.482C191.861 149.309 175.275 138.904 167.796 122.709C156.838 99.0044 176.565 71.4287 195.62 44.7298C206.315 29.7261 216.413 15.6323 220.265 3.25879L222.135 3.68888C218.208 16.3767 208.054 30.6194 197.284 45.6893C178.473 72.0243 159.007 99.2525 169.609 122.163C176.865 137.862 193.226 148.184 209.064 158.175C227.894 170.053 247.378 182.343 251.81 203.782C254.839 218.505 248.238 233.045 241.843 247.106C240.684 249.653 239.543 252.168 238.496 254.632C234.787 263.834 231.709 273.225 229.278 282.754C226.978 291.025 224.584 299.495 221.424 307.435C220.751 309.089 220.171 310.644 219.648 312C216.263 320.884 215.123 323.861 203.641 330.809C200.364 332.743 196.961 334.505 193.451 336.086C184.625 340.023 177.706 343.281 174.714 354.729Z" fill="#161616"/>
<path d="M175.742 362.007L173.872 361.875C174.807 351.106 181.539 341.214 188.027 331.652C193.113 324.175 198.386 316.434 200.911 308.262C204.164 297.84 211.326 284.937 218.918 271.29C232.007 247.585 246.966 220.721 243.469 201.813C239.318 179.564 217.908 166.645 197.208 154.139C179.519 143.453 161.213 132.419 153.135 115.513C141.916 91.8912 163.532 66.3172 184.512 41.6033C196.292 27.7245 207.418 14.6231 211.868 2.69629L213.645 3.22564C209.082 15.4006 197.881 28.6012 186.008 42.5958C165.345 66.9458 143.973 92.1228 154.855 114.868C162.727 131.41 180.791 142.229 198.255 152.783C219.292 165.47 241.038 178.605 245.32 201.532C248.948 220.969 233.877 248.082 220.582 272.002C213.102 285.583 205.922 298.469 202.724 308.692C200.107 317.079 194.796 324.92 189.635 332.496C182.96 342.372 176.639 351.635 175.742 362.007Z" fill="#161616"/>
<path d="M175.558 369.832C175.071 351.371 176.698 323.282 181.466 305.235C185.356 290.446 196.93 275.889 209.197 260.472C225.016 240.621 241.359 220.01 239.227 199.266C236.853 176.206 211.927 161.401 187.824 147.109C170.509 136.82 152.595 126.2 143.751 112.668C126.398 86.2009 150.127 62.4961 173.089 39.6184C185.393 27.3772 198.09 14.8052 203.55 2.18359L205.289 2.76257C199.679 15.5992 186.889 28.3697 174.492 40.7101C152.053 63.1412 128.68 86.3497 145.359 111.841C153.998 125.075 170.939 135 188.853 145.736C213.329 160.243 238.629 175.263 241.097 199.117C243.285 220.407 226.736 241.217 210.712 261.365C198.576 276.633 187.095 291.141 183.28 305.532C178.549 323.464 176.941 351.371 177.428 369.732L175.558 369.832Z" fill="#161616"/>
<path d="M179.206 377.772H177.336C177.449 366.904 173.166 356.614 169.034 346.673C163.817 334.084 158.413 321.082 161.76 306.74C165.762 289.685 181.656 273.49 197.026 257.858C215.875 238.669 235.359 218.819 233.601 197.066C231.638 172.964 203.907 156.968 177.075 141.501C157.254 130.054 138.499 119.252 129.243 105.357C110.824 77.7479 136.33 56.971 161.031 36.8723C174.662 25.7561 188.761 14.2758 195.306 1.77002L197.007 2.46479C190.239 15.2518 176.009 26.8478 162.19 38.0799C136.965 58.6252 113.143 78.0456 130.795 104.496C139.845 118.061 158.394 128.764 178.047 140.095C205.254 155.793 233.377 172.005 235.396 196.934C237.266 219.381 217.483 239.48 198.373 258.917C183.17 274.4 167.426 290.347 163.537 307.054C160.302 320.933 165.406 333.141 170.736 346.077C174.98 356.168 179.318 366.589 179.206 377.772Z" fill="#161616"/>
<path d="M178.681 385.613C175.633 376.465 168.939 367.218 161.852 357.491C150.314 341.561 138.385 325.069 142.461 308.179C146.893 289.834 165.984 273.126 184.459 256.899C206.448 237.627 229.205 217.71 227.765 194.833C226.905 180.954 207.626 166.992 194.874 157.762L190.386 154.453C183.467 149.292 174.978 144.115 166.078 138.606C147.154 127.027 125.688 113.942 114.992 98.1607C95.5081 69.4767 122.678 51.3631 148.931 33.8616C163.89 23.9364 179.354 13.5645 186.964 1.20752L188.61 2.00155C180.812 14.6728 165.18 25.1605 150.053 35.185C123.276 53.0339 97.995 69.9234 116.582 97.3171C127.09 112.784 148.37 125.786 167.069 137.25C176.1 142.775 184.627 147.986 191.602 153.18L196.071 156.488C209.16 165.901 228.737 180.127 229.729 194.75C231.206 218.372 208.15 238.553 185.861 258.073C167.592 274.053 148.706 290.595 144.387 308.46C140.46 324.688 152.184 340.883 163.516 356.532C170.659 366.457 177.428 375.754 180.551 385.116L178.681 385.613Z" fill="#161616"/>
<path d="M179.019 392.544C174.325 382.288 164.059 372.528 153.027 362.206C137.283 347.318 120.996 331.967 122.38 314.581C124.25 291.587 148.184 273.424 171.333 255.857C196.109 237.081 221.708 217.661 218.641 192.997C215.238 165.553 185.339 149.888 156.43 134.735C131.037 121.502 104.784 107.689 95.9582 85.8865C87.2819 64.3818 92.7794 57.1529 114.919 44.6636C121.445 40.9913 127.653 37.9475 133.618 35.003C151.064 26.4508 166.135 19.073 178.495 0.942871L180.084 1.78652C167.556 20.2971 152.279 27.7907 134.59 36.5249C128.606 39.4529 122.417 42.4801 115.891 46.1359C94.3688 58.2612 89.3575 64.8946 97.6785 85.3903C106.28 106.63 132.253 120.228 157.347 133.362C186.648 148.713 216.959 164.594 220.455 192.914C223.634 218.538 197.643 238.239 172.53 257.296C149.661 274.549 126.007 292.398 124.231 314.697C122.903 331.371 138.91 346.474 154.373 361.015C165.443 371.453 175.896 381.328 180.72 391.866L179.019 392.544Z" fill="#161616"/>
<path d="M177.688 398.333C167.198 379.244 156.932 371.601 142.74 361.014C138.233 357.706 133.11 353.852 127.519 349.303C117.552 341.214 104.407 328.923 105.23 315.739C106.744 291.67 133.446 273.176 159.269 255.311C186.495 236.502 214.768 216.883 211.72 191.26C208.317 162.84 176.734 146.596 146.18 130.881C119.422 117.134 91.7666 102.908 82.6041 80.4441C77.2749 76.6063 74.3392 72.4046 73.8904 67.9714C73.4043 63.1741 75.7603 58.0461 81.0521 52.6864L81.2578 52.5376L102.612 40.3957C109.717 37.0873 116.374 34.3413 122.825 31.7772C140.963 24.5153 156.652 18.2624 169.928 0.512695L171.499 1.42251C157.904 19.6188 142.01 25.9214 123.592 33.2826C117.178 35.8466 110.503 38.4933 103.566 41.8183L82.3797 53.8609C77.5367 58.8236 75.3115 63.5215 75.7416 67.8225C76.153 71.8422 78.9391 75.713 83.9878 79.3027L84.1935 79.435V79.6666C93.1129 101.684 120.563 115.811 147.115 129.458C178.081 145.372 210.074 161.831 213.571 191.078C216.731 217.628 188.103 237.395 160.429 256.601C134.942 274.251 108.577 292.514 107.1 315.838C106.314 328.311 119.104 340.221 128.79 348.079C134.4 352.611 139.449 356.35 143.936 359.757C158.316 370.46 168.712 378.202 179.371 397.606L177.688 398.333Z" fill="#161616"/>
<path d="M174.192 402.519C162.243 382.519 150.332 374.596 133.877 363.661C128.455 360.055 122.321 355.986 115.683 351.089C107.119 344.787 89.2804 331.636 90.1406 316.599C91.5617 291.786 120.264 273.06 148.107 254.98C177.277 235.989 207.457 216.337 204.353 190.052C200.894 160.938 168.04 144.264 136.252 128.135C108.391 114.008 79.5757 99.3849 70.1141 76.3087C64.6353 72.4709 61.6248 68.2692 61.1573 63.8359C60.6712 59.0553 63.1581 53.9107 68.5247 48.6007L68.7491 48.4187L91.0007 37.2197C98.4803 34.0932 105.586 31.7443 112.392 29.478C131.091 23.2747 147.153 17.8985 161.103 0.264648L162.636 1.20755C148.35 19.2881 131.989 24.7304 113.065 30.9833C106.278 33.233 99.2656 35.5655 91.8609 38.6423L69.8149 49.742C64.8784 54.7047 62.5971 59.353 63.0272 63.6374C63.4386 67.6571 66.2808 71.528 71.4791 75.1176L71.6848 75.25L71.7783 75.4816C80.922 98.1111 109.531 112.619 137.224 126.646C169.405 142.99 202.67 159.879 206.242 189.837C209.477 217.065 178.848 236.999 149.248 256.27C121.816 274.119 93.4689 292.663 92.1039 316.632C91.2999 330.842 108.634 343.629 116.973 349.716C123.574 354.563 129.689 358.633 135.093 362.222C151.118 372.875 163.777 381.295 175.95 401.642L174.192 402.519Z" fill="#161616"/>
<path d="M167.945 404.735C155.623 384.041 142.085 375.687 124.938 365.034C118.861 361.279 111.961 357.011 104.575 351.801C94.141 344.506 76.6949 332.314 77.6111 316.963C79.1444 291.654 109.007 272.878 137.878 254.715C168.151 235.692 199.453 216.007 196.218 189.324C192.647 159.813 159.045 142.907 126.527 126.564C97.9742 112.205 68.4674 97.3667 58.8375 73.8935C53.3588 70.0392 50.3295 65.8375 49.8808 61.3877C49.3759 56.5905 51.8441 51.4624 57.2107 46.0863L57.4725 45.9043L80.2664 35.2677C88.176 32.2736 95.506 30.1728 102.612 28.1216C121.497 22.6792 137.821 17.9813 151.995 0L153.529 0.942899C139 19.3708 122.395 24.1018 103.191 29.6765C96.1231 31.7112 88.8305 33.812 81.0517 36.74L58.4822 47.2773C53.5644 52.2399 51.2831 56.9213 51.7319 61.2223C52.162 65.2586 55.0042 69.1294 60.2025 72.719L60.4269 72.8679L60.5204 73.0995C69.8698 96.1096 99.1148 110.849 127.462 125.108C160.372 141.65 194.404 158.788 198.069 189.126C201.435 216.784 169.666 236.75 138.962 256.055C110.446 273.987 80.9956 292.448 79.481 317.046C78.6209 331.52 95.5808 343.397 105.659 350.477C113.008 355.622 119.571 359.675 125.929 363.612C143.282 374.331 156.988 382.784 169.535 403.842L167.945 404.735Z" fill="#161616"/>
<path d="M158.45 405C146.127 384.521 132.533 375.936 115.33 365.068C109.029 361.081 102.521 356.979 95.2661 351.834C84.2151 343.993 67.5358 332.132 68.3585 317.096C69.7609 291.753 99.6604 272.928 128.569 254.715C158.842 235.659 190.144 215.957 186.984 189.258C183.469 159.664 149.736 142.94 117.088 126.63C88.5159 112.437 58.8969 97.5489 49.2483 74.1418C43.8069 70.2875 40.8151 66.0693 40.3476 61.6029C39.8427 56.7892 42.2175 51.6777 47.5467 46.2684L47.8084 46.0864L70.7145 35.4333C78.7176 32.4392 86.1411 30.3384 93.3215 28.3037C112.301 22.9441 128.681 18.3784 142.761 0.182129L144.313 1.12503C129.859 19.7018 113.198 24.4328 93.8263 29.8917C86.6834 31.9099 79.316 33.9942 71.3877 36.9387L48.706 47.476C43.8443 52.4386 41.6191 57.1366 42.0679 61.4541C42.498 65.5069 45.3215 69.3943 50.4824 73.0335L50.7068 73.1824V73.3975C60.0562 96.424 89.4508 111.064 117.873 125.207C150.933 141.65 185.095 158.655 188.704 189.109C191.977 216.751 160.226 236.751 129.522 256.088C100.969 274.053 71.4438 292.646 70.0975 317.195C69.3121 331.388 85.5614 342.918 96.2759 350.56C103.475 355.688 109.963 359.791 116.246 363.794C133.655 374.778 147.399 383.462 159.927 404.289L158.45 405Z" fill="#161616"/>
<path d="M146.351 405C134.514 385.149 121.743 376.034 105.568 364.455C99.9587 360.468 94.349 356.366 87.954 351.403C78.1745 343.744 61.7756 330.891 62.5049 316.665C63.7577 291.653 92.741 272.696 120.771 254.384C150.184 235.162 180.607 215.278 177.484 188.861C174.006 159.465 140.442 143.271 107.981 127.655C79.5022 113.909 50.0141 99.6989 40.3841 76.5069C34.9428 72.6525 31.9322 68.4509 31.4648 63.9845C30.9599 59.1873 33.3347 54.0592 38.6638 48.6665L38.9069 48.4845L61.8504 37.3848C69.7414 34.2584 77.1274 31.9921 84.2891 29.792C103.437 23.9195 119.967 18.8411 134.028 0.727539L135.561 1.67044C121.163 20.2141 104.353 25.3753 84.9062 31.4462C77.8006 33.6298 70.4519 35.8795 62.6919 38.9398L39.9728 49.9568C35.1298 54.9194 32.8859 59.6174 33.3534 63.9183C33.8208 68.2193 36.607 71.842 41.7679 75.4978L41.9736 75.6467L42.067 75.8783C51.4165 98.6071 80.6241 112.701 108.897 126.348C141.769 142.212 175.783 158.638 179.354 188.894C182.589 216.238 151.736 236.403 121.893 255.906C94.2182 274.003 65.5902 292.712 64.3935 316.93C63.7203 330.444 79.6705 342.967 89.2069 350.444C95.5084 355.406 101.23 359.459 106.765 363.429C123.089 375.141 136.01 384.372 148.033 404.487L146.351 405Z" fill="#161616"/>
<path d="M131.951 404.967C125.967 393.851 113.065 382.768 99.4149 371.023C79.0331 353.505 57.9596 335.375 59.1189 315.706C60.5587 291.29 87.9151 272.233 114.374 253.789C142.422 234.286 171.293 214.088 167.946 188.15C164.206 159.218 131.035 143.983 98.9474 129.244C70.7309 116.291 41.5606 102.892 31.8185 80.13C26.3959 76.3419 23.404 72.1567 22.9179 67.7234C22.413 62.9262 24.7878 57.7982 30.1543 52.3558L30.3787 52.1739L53.3783 40.3463C61.1757 37.0379 68.5431 34.4904 75.6487 32.0752C95.002 25.4584 111.719 19.7679 125.724 1.38965L127.258 2.31601C112.934 21.1244 95.9743 26.9141 76.3218 33.6302C69.2349 36.0453 61.9237 38.5928 54.2572 41.9012L31.4632 53.6461C26.5641 58.6087 24.3203 63.3563 24.7878 67.6738C25.2178 71.6936 28.0413 75.5313 33.1835 79.0713L33.3892 79.2202V79.4353C42.7387 101.734 71.7219 115.017 99.7141 127.871C132.25 142.758 165.889 158.258 169.723 188.067C173.163 214.948 143.825 235.411 115.496 255.195C89.3175 273.391 62.3537 292.233 60.9513 315.888C59.8294 334.812 80.6038 352.661 100.686 369.931C114.467 381.775 127.482 392.974 133.596 404.355L131.951 404.967Z" fill="#161616"/>
<path d="M115.775 404.901C111.045 394.032 100.816 382.668 89.8213 370.642C73.1606 352.297 55.939 333.339 57.7341 314.498C59.9593 291.157 84.9222 272.001 109.062 253.474C136.4 232.499 162.223 212.698 158.465 187.306C154.276 159.019 121.628 145.041 90.0457 131.509C62.1657 119.566 33.3508 107.209 23.4965 85.0095C18.1112 81.2876 15.1194 77.1686 14.6332 72.7684C14.0909 67.9546 16.5031 62.7439 21.9444 57.285L22.1501 57.1361L45.2058 44.3325C52.9472 40.7429 60.2584 37.9307 67.3453 35.2178C86.9417 27.6912 103.845 21.2067 117.832 2.36523L119.403 3.27505C105.154 22.53 87.9889 29.1138 68.1307 36.7232C61.0812 39.4361 53.7886 42.2317 46.1782 45.7717L23.2721 58.5091C18.2982 63.5875 16.0169 68.3516 16.5031 72.6691C16.9331 76.6392 19.7567 80.4108 24.8428 83.9012L25.0672 84.0335L25.1607 84.2486C34.641 105.985 63.2316 118.226 90.8498 130.07C122.918 143.866 155.997 157.977 160.316 187.124C164.205 213.36 136.793 234.385 110.297 254.731C86.4368 273.027 61.6796 291.968 59.604 314.63C57.865 332.827 74.8435 351.519 91.2798 369.616C102.293 381.742 112.69 393.205 117.458 404.355L115.775 404.901Z" fill="#161616"/>
<path d="M98.3098 404.818C95.0001 393.851 87.6702 382.238 79.9101 369.948C67.9428 350.99 55.6016 331.388 57.8268 313.059C60.5194 291.108 82.8085 271.853 104.35 253.227C129.537 231.54 153.322 210.928 149.096 186.43C144.272 158.986 112.278 146.431 81.3125 134.305C53.7317 123.537 25.3655 112.437 15.3803 90.9321C10.0138 87.3094 7.04063 83.2731 6.53576 78.9225C5.9748 74.0922 8.40565 68.8318 14.0153 63.2737L14.2023 63.1414L37.3328 49.246C44.9806 45.3255 52.2919 42.1825 59.3227 39.1553C79.1808 30.5865 96.3278 23.2088 110.202 3.72217L111.773 4.61544C97.618 24.466 80.2467 31.9761 60.1454 40.6441C53.1333 43.6713 45.8595 46.7978 38.3238 50.5694L15.3429 64.382C10.2569 69.5432 7.86339 74.3073 8.44306 78.6909C8.89183 82.6114 11.6967 86.3168 16.764 89.6914L16.9697 89.8238L17.0632 90.0388C26.6744 111.113 54.8163 122.147 82.0418 132.8C113.456 145.124 145.936 157.845 150.91 186.181C155.36 211.54 130.117 233.343 105.715 254.434C84.3978 272.845 62.3706 291.885 59.734 313.258C57.5463 331.074 69.7753 350.428 81.593 369.154C89.4091 381.544 96.8139 393.255 100.18 404.405L98.3098 404.818Z" fill="#161616"/>
<path d="M80.0642 404.719C78.3813 393.718 74.2862 382.056 69.9668 369.699C63.0856 350.047 55.9614 329.733 58.841 311.488C62.0198 291.405 81.2796 272.184 99.8289 253.59C121.8 231.622 144.501 208.927 139.583 185.437C133.973 158.969 102.709 147.952 72.4538 137.316C45.3404 127.804 17.3295 117.962 7.26953 97.0028C-3.63191 74.307 8.01751 66.3999 29.5586 54.3573C37.0381 50.1556 44.3307 46.6652 51.3428 43.2906C71.4814 33.5969 88.8527 25.2266 102.652 5.01221L104.261 5.8724C90.199 26.4177 72.6034 34.9203 52.2403 44.7132C45.247 48.0216 38.0292 51.5782 30.5496 55.7468C7.55004 68.6 -0.845752 75.8785 8.98985 96.3411C18.8255 116.804 46.3876 126.382 73.1269 135.761C103.868 146.563 135.656 157.729 141.415 185.122C146.501 209.39 123.483 232.4 101.231 254.599C82.8316 273.027 63.8336 292.067 60.6922 311.653C57.8687 329.535 64.9181 349.7 71.7432 369.153C76.1001 381.56 80.2138 393.288 81.9154 404.438L80.0642 404.719Z" fill="#161616"/>
<path d="M63.3446 404.603H61.4747C61.4747 394.099 60.6332 383.28 59.7356 371.8C58.1088 350.924 56.4259 329.32 60.2592 309.85C63.7372 292.084 79.706 273.143 95.1513 254.831C115.084 231.176 135.69 206.727 130.137 184.395C123.798 158.887 93.2253 149.491 63.6811 140.393C37.0727 132.221 9.56661 123.751 -0.699069 103.554C-11.8249 81.6849 0.609857 72.6695 21.8331 59.7501C29.3126 55.2341 36.493 51.3798 43.4677 47.6578C63.8681 36.7731 81.5012 27.3938 95.2448 6.40186L96.8529 7.22896C82.8661 28.5848 65.0648 38.08 44.4961 49.0639C37.5401 52.7859 30.341 56.6237 22.955 61.1231C1.91876 73.9101 -9.46883 82.1646 1.05863 102.875C10.9877 122.428 38.1198 130.765 64.3356 138.838C94.3847 148.085 125.462 157.63 132.025 184.047C137.766 207.107 116.879 231.871 96.7033 255.824C81.389 274.02 65.551 292.762 62.1478 310.131C58.408 329.403 60.0348 350.908 61.6616 371.701C62.5031 383.181 63.3446 394.049 63.3446 404.603Z" fill="#161616"/>
<path d="M44.8904 404.719L43.0205 404.504C46.592 380.121 51.7529 355.374 56.7268 331.438C58.3349 323.696 59.943 315.971 61.495 308.279C64.7112 292.299 77.2582 274.649 90.5344 255.956C108.41 230.796 126.904 204.791 120.696 183.402C113.59 158.887 83.728 151.03 54.8756 143.437C28.6972 136.572 1.77087 129.475 -8.70049 110.071C-20.6678 87.938 -5.33471 77.8639 14.0747 65.1099C21.4421 60.2631 28.6224 56.0779 35.5784 52.0251C56.2406 39.9659 74.0794 29.5444 87.7856 7.80811L89.4124 8.60213C75.5192 30.6858 57.4748 41.2066 36.6256 53.3816C29.6883 57.4344 22.5266 61.6526 15.2153 66.4167C-6.19486 80.4775 -17.7694 89.4103 -6.99889 109.327C3.1172 128.069 29.707 135.066 55.4179 141.832C84.7938 149.557 115.254 157.547 122.528 182.972C128.923 205.039 110.224 231.374 92.1425 256.816C78.9598 275.376 66.5064 292.895 63.3463 308.56C61.7943 316.252 60.1861 323.994 58.578 331.719C53.6041 355.606 48.4619 380.419 44.8904 404.719Z" fill="#161616"/>
<path d="M27.0319 404.801L25.162 404.404C29.5188 388.673 36.2504 373.636 42.7576 359.079C50.2372 342.339 57.9785 325.036 62.0174 306.757C67.1409 283.598 77.3505 264.657 88.1958 244.542C89.8039 241.548 91.4308 238.52 93.0763 235.427C94.5161 232.714 96.199 229.803 97.9754 226.709C105.904 213.029 115.758 195.991 111.27 182.426C103.473 158.837 74.2839 152.419 46.0486 146.215C20.4312 140.591 -6.04642 134.785 -16.7609 116.125C-28.9899 94.8523 -13.4325 83.918 6.23874 70.0888C13.5313 64.9607 20.6929 60.4613 27.6115 56.0942C48.5169 42.8605 66.5613 31.5292 80.2488 9.08154L81.8943 9.85902C68.0011 32.654 48.9095 44.6967 28.6961 57.4506C21.7962 61.8012 14.6532 66.2841 7.39806 71.3956C-11.6187 84.7451 -26.6339 95.2989 -15.0406 115.381C-4.71881 133.362 21.3474 139.086 46.5535 144.611C75.2936 150.93 105.025 157.448 113.121 181.963C117.815 196.156 107.774 213.509 99.6956 227.47C97.9192 230.531 96.2364 233.442 94.8153 236.138C93.1698 239.232 91.5429 242.259 89.9348 245.253C78.7155 266.129 69.0482 284.177 63.9809 307.087C59.8858 325.499 52.107 342.884 44.5901 359.691C38.0642 374.182 31.2952 389.169 27.0319 404.801Z" fill="#161616"/>
<path d="M10.2225 404.868L8.46478 404.338C14.4671 388.59 24.0596 374.298 33.3343 360.469C44.8341 343.364 56.7079 325.73 61.3826 305.466C67.5158 279.181 76.2482 258.569 87.0187 234.335C88.2715 231.507 89.7674 228.463 91.3568 225.237C98.1071 211.54 106.522 194.502 101.772 181.533C93.4137 158.705 64.7858 153.577 37.0928 148.614C11.9428 144.098 -14.086 139.433 -25.0062 121.469C-37.4783 100.956 -21.3973 88.9964 -2.77323 75.1507L-1.83829 74.4725C5.39817 69.0963 12.5224 64.2991 19.4036 59.6673C40.5146 45.4742 58.6712 33.1999 72.4149 10.1733L74.0791 10.9343C60.2233 34.3083 40.9447 47.3269 20.5256 60.9907C13.6631 65.6059 6.55749 70.3866 -0.622871 75.7296L-1.55782 76.4244C-20.2567 90.3529 -35.1223 101.353 -23.3607 120.675C-12.8519 137.961 12.7281 142.56 37.4667 146.993C65.6833 152.038 94.8536 157.266 103.549 181.02C108.522 194.585 99.9584 211.954 93.0772 225.899C91.4878 229.108 90.0106 232.135 88.7577 234.931C78.0246 259.066 69.3296 279.594 63.2151 305.764C58.4469 326.243 46.4796 344.059 34.905 361.279C25.6864 375.075 16.1687 389.285 10.2225 404.868Z" fill="#161616"/>
<path d="M-5.03718 404.917L-6.7575 404.305C0.535057 388.127 12.5771 374.099 24.2078 360.535C38.8117 343.513 53.9203 325.929 59.0064 304.424C64.535 280.445 71.6402 256.772 80.2858 233.525C81.4077 230.531 82.7727 227.288 84.2312 223.864C89.9904 210.233 97.1708 193.261 92.3091 180.855C83.5767 158.539 55.3975 154.387 28.1346 150.533C3.33989 146.96 -22.3523 143.254 -33.4221 125.819C-46.0999 105.969 -29.514 93.0823 -11.9558 79.5012L-10.0859 78.0621C-2.92423 72.4874 4.18134 67.4586 11.0438 62.6117C31.4256 48.187 50.6854 34.4902 64.3543 11.1162L66.0185 11.8771C52.1627 35.6481 32.7532 49.3781 12.2031 63.902C5.35936 68.7489 -1.7275 73.8273 -8.85176 79.3027L-10.7217 80.7419C-28.4108 94.4553 -43.6878 106.299 -31.7579 125.025C-21.0995 141.766 4.08784 145.405 28.4525 148.912C56.2577 152.932 84.9978 157.084 94.0855 180.342C99.1716 193.327 91.8604 210.597 86.0076 224.476C84.5491 227.884 83.1841 231.093 82.0808 234.087C73.4517 257.273 66.3651 280.886 60.8576 304.805C55.6032 326.624 40.4384 344.373 25.685 361.527C14.1291 375.009 2.16188 388.954 -5.03718 404.917Z" fill="#161616"/>
<path d="M-18.2552 404.934L-19.9755 404.289C-11.9349 387.399 1.95832 373.438 15.3841 359.939C32.6993 342.52 49.042 326.061 54.2964 303.696L56.3533 294.896C61.215 273.937 65.8149 254.153 72.5652 232.946C73.5937 229.72 74.8839 226.23 76.305 222.557C81.522 208.43 87.5243 192.418 82.8122 180.243C74.3042 158.06 46.2559 154.784 19.0491 151.608C-5.52124 148.746 -30.9517 145.785 -42.1336 128.78C-54.9423 109.31 -38.5995 96.2749 -21.3031 82.4622L-18.7787 80.4441C-11.6545 74.7371 -4.5676 69.5429 2.27618 64.5141C22.8449 49.5104 42.1234 35.3173 55.811 11.6621L57.4752 12.423C43.6007 36.3429 24.1165 50.6849 3.47291 65.8044C-3.37087 70.767 -10.439 75.9943 -17.5259 81.6848L-20.0503 83.7029C-36.767 97.0358 -52.5676 109.641 -40.5255 127.953C-29.7924 144.247 -4.82938 147.158 19.3109 149.971C47.0226 153.279 75.688 156.587 84.5512 179.746C89.3942 192.434 83.3545 208.728 78.044 223.103C76.679 226.775 75.3887 230.233 74.3042 233.425C67.5913 254.566 63.0849 274.334 58.1297 295.26L56.0728 304.077C50.7437 326.822 33.4472 344.208 16.8052 361.015C3.45422 374.43 -10.3268 388.292 -18.2552 404.934Z" fill="#161616"/>
<path d="M-29.0095 404.918L-30.7298 404.306C-22.6332 386.308 -7.65542 372.297 6.8549 358.732C24.7497 341.975 41.6722 326.161 46.7396 303.515C47.6621 299.434 48.5596 295.381 49.4323 291.356C53.8452 271.506 58.015 252.598 63.6247 232.814C64.6157 229.323 65.9433 225.502 67.3645 221.433C72.2075 207.455 77.7049 191.657 73.1798 180.078C64.4661 157.795 36.6422 154.967 9.75323 152.221C-14.6488 149.723 -39.8735 147.159 -51.1864 130.17C-64.0699 110.783 -47.2409 97.1355 -30.8981 83.9183L-27.9063 81.5032C-20.8194 75.7134 -13.7325 70.42 -6.88874 65.3085C13.68 49.9574 33.0146 35.5327 46.7583 11.894L48.4225 12.655C34.5105 36.5252 14.9889 51.1153 -5.69202 66.5657C-12.5171 71.6772 -19.5853 76.9541 -26.6347 82.7107L-29.6266 85.1424C-46.119 98.4919 -61.6764 111.097 -49.5969 129.244C-38.7516 145.521 -14.0691 148.052 9.94023 150.484C37.4276 153.296 65.8311 156.191 74.9188 179.465C79.6496 191.574 74.0773 207.703 69.1408 221.929C67.7384 225.965 66.4295 229.77 65.401 233.211C59.7914 252.962 55.6403 271.77 51.2273 291.67C50.3422 295.696 49.4447 299.749 48.5347 303.829C43.3551 326.988 25.4603 343.679 8.16385 359.874C-6.10339 373.322 -21.0625 387.218 -29.0095 404.918Z" fill="#161616"/>
<path d="M-37.682 403.147L-39.421 402.535C-31.3057 384.339 -16.1409 370.344 -1.48102 356.829C16.4512 340.287 33.3923 324.672 38.5345 301.959C40.2735 294.234 41.9564 286.426 43.5645 278.883C46.7994 263.83 50.1278 248.264 54.2042 232.813C55.1391 229.224 56.4481 225.303 57.8131 221.151C62.3008 207.554 67.3682 192.169 62.9553 180.821C54.4286 158.87 27.1843 155.496 0.837646 152.22C-23.0221 149.259 -47.7794 146.199 -58.8865 129.442C-71.714 110.203 -55.6516 97.1185 -38.6357 83.2562L-36.0178 81.0065C-29.1553 75.3822 -22.3116 70.2211 -15.6922 65.2253C4.5213 49.957 23.5754 35.5488 37.3939 12.1914L39.0394 12.9689C25.1649 36.6572 5.92373 51.2307 -14.4206 66.5487C-21.0213 71.5114 -27.8464 76.689 -34.6902 82.2968L-37.3642 84.4803C-53.8192 97.8629 -69.3392 110.501 -57.2597 128.598C-46.5453 144.66 -22.3116 147.671 1.09943 150.583C28.0071 153.891 55.8123 157.381 64.6756 180.276C69.2755 192.12 64.1146 207.785 59.552 221.631C58.187 225.783 56.8968 229.687 55.9619 233.21C51.9042 248.628 48.4824 264.161 45.341 279.197C43.7328 286.757 42.0686 294.565 40.311 302.356C35.0566 325.515 17.1431 342.057 -0.190796 358.037C-14.6637 371.37 -29.6976 385.232 -37.682 403.147Z" fill="#161616"/>
<path d="M-45.1813 398.267L-46.9017 397.655C-38.7303 379.459 -23.3224 365.729 -8.43808 352.429C9.77461 336.168 26.9776 320.801 32.0263 298.088C33.6531 290.694 36.514 281.116 39.5058 270.976C48.5561 240.638 59.8127 202.872 52.0714 182.36C43.9561 160.855 17.8712 156.538 -7.37223 152.369C-30.2035 148.598 -53.8202 144.694 -64.5347 128.135C-77.0255 108.814 -61.1876 95.7786 -44.4334 81.966L-42.4513 80.3118C-35.888 74.886 -29.3621 69.9068 -23.098 65.1096C-3.59507 50.2217 14.8233 36.1609 28.1556 13.2832L29.8198 14.0441C16.3192 37.2031 -2.23005 51.3631 -21.8639 66.3668C-28.1467 71.1474 -34.6352 76.1101 -41.1611 81.5193L-43.1619 83.1735C-59.9909 97.0854 -74.6695 109.112 -62.9079 127.308C-52.6235 143.188 -29.4369 147.026 -7.01698 150.731C18.7314 154.983 45.3398 159.383 53.8478 181.814C61.7574 202.806 50.4259 240.836 41.3196 271.389C38.2904 281.497 35.4482 291.042 33.84 298.386C28.6979 321.545 10.4852 337.856 -7.12917 353.587C-21.8639 366.788 -37.1408 380.418 -45.1813 398.267Z" fill="#161616"/>
<path d="M-51.7071 390.857L-53.4274 390.211C-44.8446 372.412 -29.4554 358.781 -14.5898 345.548C4.91307 328.294 23.3314 311.984 27.3704 287.204C28.6045 279.694 31.1102 269.884 33.728 259.512C40.2539 233.789 48.3879 201.78 42.7221 183.419C36.4019 162.956 10.4292 156.571 -14.6833 150.335C-33.5318 145.686 -53.016 140.889 -63.824 130.104C-81.9619 112.007 -70.0881 98.8721 -51.3518 82.2639C-43.6853 75.4816 -36.0188 69.4934 -28.5953 63.6871C-10.607 49.6594 6.39027 36.3927 18.9746 14.8218L20.6388 15.5827C7.88618 37.4348 -9.27937 50.7843 -27.3612 64.9278C-34.7472 70.7175 -42.3203 76.6892 -50.0429 83.4384C-68.6109 99.9805 -79.5123 111.957 -62.4215 129.012C-51.9876 139.433 -32.7652 144.164 -14.1785 148.747C11.4389 155.049 37.9353 161.567 44.5173 182.939C50.3139 201.698 42.1238 233.922 35.5418 259.827C32.924 270.165 30.437 279.942 29.2216 287.402C25.0891 312.712 5.60491 329.982 -13.2622 346.673C-28.0156 359.84 -43.2739 373.355 -51.7071 390.857Z" fill="#161616"/>
<path d="M-57.5042 381.51L-59.2245 380.849C-50.6417 363.711 -34.916 350.56 -19.6577 337.839C0.686646 320.85 19.8904 304.755 23.1627 280.256C23.8919 274.648 25.0326 267.833 26.3415 260.621C30.6422 235.808 36.0275 204.791 30.6609 186.297C24.8269 166.132 1.21022 158.407 -21.6959 150.93C-38.9923 145.256 -56.8685 139.351 -66.9658 128.168C-83.7948 109.459 -72.1828 96.2915 -55.2977 81.0232C-48.1361 74.5387 -41.0118 68.8978 -34.1119 63.4224C-17.4512 50.1887 -1.72551 37.6994 9.7369 16.9722L11.4198 17.7C-0.154816 38.6919 -16.0114 51.2308 -32.803 64.6299C-39.6842 70.0888 -46.7711 75.7297 -53.8953 82.1646C-70.1259 96.8374 -81.2892 109.476 -65.4325 127.126C-55.6717 138.011 -38.0387 143.767 -20.9853 149.359C2.31344 156.984 26.3976 164.858 32.4747 185.867C37.9161 204.692 32.4747 235.824 28.174 260.852C26.9398 268.048 25.7618 274.863 25.0139 280.438C21.6668 305.582 1.37851 322.521 -18.3675 339.063C-33.4575 351.652 -49.1084 364.687 -57.5042 381.51Z" fill="#161616"/>
<path d="M-62.816 370.824L-64.4802 370.112C-55.3365 353.421 -39.5172 340.932 -24.2029 328.856C-4.92434 313.654 13.1949 299.279 18.8045 277.41C23.6849 258.139 23.4231 209.588 16.7102 189.969C9.99733 170.35 -10.2535 161.616 -29.8687 153.163C-47.3708 145.603 -65.3965 137.795 -74.2785 122.361C-83.1604 106.928 -72.1655 93.0156 -61.7502 82.4287C-53.8876 74.59 -45.4619 67.208 -36.5254 60.3285C-22.2769 48.9641 -9.97305 39.138 0.647903 19.271L2.33079 19.9658C-8.43976 40.1471 -20.8745 50.0724 -35.2726 61.5691C-44.1528 68.3931 -52.5226 75.7201 -60.3291 83.5039C-70.3517 93.7104 -80.8978 107.275 -72.5955 121.551C-64.0502 136.439 -46.2488 144.18 -29.0272 151.624C-9.05679 160.243 11.6054 169.159 18.524 189.439C25.293 209.29 25.5548 258.271 20.6557 277.725C15.046 300.123 -3.42844 314.647 -22.9501 330.047C-38.1335 342.073 -53.8219 354.447 -62.816 370.824Z" fill="#161616"/>
<path d="M-67.8087 359.393L-69.4729 358.616C-57.1317 338.203 -45.8936 328.311 -25.381 313.853L-19.4348 309.701C0.311249 295.971 13.3444 286.906 15.9996 264.409C18.15 246.212 11.194 211.689 5.58433 192.963C-0.343208 173.262 -17.4714 163.37 -35.5532 152.882C-49.0164 145.091 -62.9283 137.051 -71.5859 124.645C-86.0401 103.967 -71.8664 90.0219 -56.8512 75.2664L-55.7292 74.1581C-50.1196 68.633 -45.0709 64.2328 -40.1905 59.8823C-27.6809 48.8487 -17.7518 40.131 -8.40241 21.8354L-6.70084 22.5137C-16.1999 41.1731 -26.185 49.9901 -38.8442 61.1395C-43.7059 65.4239 -48.7359 69.8571 -54.2894 75.3326L-55.4301 76.4574C-70.5949 91.3453 -83.684 104.232 -69.9591 123.867C-61.5259 135.943 -47.7822 143.9 -34.4312 151.575C-16.7982 161.765 1.43317 172.319 7.529 192.633C13.1387 211.474 20.1881 246.279 18.0191 264.657C15.2703 287.816 1.97545 297.096 -18.1445 311.074L-24.0721 315.226C-44.5286 329.452 -55.6357 339.245 -67.8087 359.393Z" fill="#161616"/>
<path d="M-72.7657 347.781L-74.3925 346.97C-61.6025 326.855 -50.5889 317.691 -29.16 303.498C-26.7478 301.844 -24.3169 300.338 -21.9422 298.816C-3.69209 287.055 12.071 276.915 12.6694 256.138C13.006 244.79 6.44269 229.67 0.664734 216.222C-2.43928 209.042 -5.35628 202.277 -7.11397 196.487C-12.8732 177.546 -27.1031 166.198 -42.1931 154.205C-53.7864 144.975 -65.7723 135.43 -73.3267 122.163C-87.0703 98.0614 -65.5479 77.053 -44.7548 56.7393C-33.3298 45.5899 -22.5405 35.0526 -17.6414 24.2837L-15.9025 24.8958C-20.9325 35.9459 -31.8152 46.5824 -43.3711 57.8476C-63.7528 77.6981 -84.8265 98.3426 -71.6625 121.419C-64.2764 134.404 -52.4026 143.85 -40.9402 152.965C-26.3177 164.544 -11.209 176.636 -5.4124 196.057C-3.6734 201.764 -0.77507 208.496 2.31024 215.626C8.16299 229.158 14.7824 244.509 14.4458 256.187C13.8288 277.692 -2.28967 288.147 -20.9324 300.156C-23.3072 301.678 -25.7194 303.216 -28.1315 304.821C-49.2425 318.865 -60.1253 327.93 -72.7657 347.781Z" fill="#161616"/>
<path d="M-77.8676 336.615L-79.457 335.738C-64.3857 314.233 -51.2591 305.301 -29.3441 291.405C-27.4742 290.198 -25.3612 288.924 -23.1361 287.584C-8.88754 278.982 10.6154 267.221 10.8024 251.589C10.9146 241.812 2.36919 230.745 -5.89571 220.043C-11.7298 212.483 -17.2459 205.353 -19.6955 198.819C-25.3051 183.832 -36.5244 170.83 -47.295 158.275C-58.9257 144.76 -70.949 130.782 -75.7734 114.471C-82.5797 91.3122 -67.3776 75.5972 -51.2591 58.8897C-41.7227 48.9644 -31.8497 38.7249 -26.7823 26.7153L-25.0246 27.2943C-30.2042 39.5685 -40.1894 49.9404 -49.838 59.9649C-65.6199 76.3416 -80.5229 91.8085 -73.9596 114.058C-69.2287 130.037 -57.8598 143.271 -45.7991 157.266C-34.8976 169.937 -23.6409 183.055 -17.9191 198.29C-15.5443 204.609 -10.1217 211.656 -4.36242 219.1C4.07077 230.018 12.7844 241.316 12.6722 251.605C12.4666 268.147 -7.5038 280.157 -22.0702 288.941C-24.2954 290.28 -26.3897 291.554 -28.2596 292.745C-49.9689 306.508 -62.9834 315.342 -77.8676 336.615Z" fill="#161616"/>
<path d="M-83.3101 326.342L-85.0117 325.664C-79.6993 315.111 -72.017 305.623 -62.4315 297.777C-52.846 289.931 -41.5574 283.891 -29.2517 280.024C-6.6074 272.944 5.34117 259.281 6.27612 239.381C3.95746 231.291 -3.67168 226.594 -11.7496 221.598C-19.8275 216.602 -27.8493 211.673 -31.9631 203.021V202.756C-33.152 185.6 -40.4653 169.22 -52.8497 155.975C-66.031 141.334 -75.6444 124.437 -81.085 106.349C-83.3475 86.9121 -70.2957 72.7024 -57.674 58.956C-49.1099 49.6758 -40.3027 40.098 -36.0207 28.9155L-34.1508 29.4614C-38.6385 40.9251 -47.5205 50.6022 -56.122 59.965C-69.0803 74.0754 -81.3281 87.3918 -79.159 106.018C-73.7783 123.846 -64.293 140.499 -51.2977 154.933C-38.7496 168.421 -31.3411 185.072 -30.1306 202.508C-26.2038 210.647 -18.2942 215.527 -10.6463 220.241C-2.23184 225.436 5.71516 230.332 8.16472 239.099V239.215V239.331C7.21107 260.042 -5.16759 274.251 -28.6347 281.579C-40.6984 285.378 -51.7647 291.305 -61.1629 298.999C-70.5612 306.693 -78.0958 315.996 -83.3101 326.342Z" fill="#161616"/>
<path d="M-89.407 317.807L-91.0898 317.095C-79.4965 295.475 -60.405 280.504 -34.3575 272.581C-11.4327 266.096 0.684189 252.73 1.67522 232.879C-1.57838 224.774 -9.84327 222.723 -18.5943 220.539C-27.7568 218.256 -38.1347 215.659 -43.7256 205.651L-43.8378 205.32C-44.4347 187.956 -50.243 171.045 -60.6668 156.323C-71.7795 140.214 -79.6085 122.504 -83.7973 104C-85.3306 85.4398 -74.9901 73.0994 -64.0326 60.0311C-56.6465 51.2142 -49.0735 42.083 -45.1467 30.8013L-43.2769 31.281C-47.2223 42.8605 -54.9636 52.0744 -62.4619 61.0568C-73.195 73.8603 -83.3485 85.9691 -81.8713 103.802C-77.7307 122.059 -70.0168 139.537 -59.0774 155.446C-48.5014 170.353 -42.5964 187.481 -41.9679 205.072C-36.7135 214.352 -27.2519 216.652 -18.0895 218.984C-8.92704 221.317 -0.0263748 223.5 3.50771 232.532V232.681V232.846C2.53537 253.507 -10.0116 267.403 -33.7965 274.202C-59.3018 281.91 -78.0193 296.6 -89.407 317.807Z" fill="#161616"/>
<path d="M-96.3623 311.471L-98.0078 310.71C-84.6007 288.081 -63.6019 272.564 -35.6284 264.624C-10.9646 257.792 -1.29729 244.774 -6.0655 224.923C-15.8372 220.35 -27.1871 219.17 -37.891 221.615H-38.0406H-38.1902C-44.5291 221.218 -49.0729 219.53 -51.7094 216.569C-54.346 213.608 -54.963 209.87 -54.0468 204.99C-55.5171 192.098 -58.9644 179.443 -64.2938 167.373C-73.7322 148.639 -81.3818 129.239 -87.1625 109.377C-90.4535 87.8718 -81.0106 74.9855 -71.0067 61.3052C-64.7239 52.7198 -58.2167 43.8202 -54.3834 32.2407L-52.5135 32.7039C-56.4403 44.515 -63.0036 53.5139 -69.3425 62.215C-79.1594 75.6306 -88.4153 88.3019 -85.2365 109.062C-79.4835 128.812 -71.8714 148.102 -62.48 166.728C-57.0616 178.987 -53.5576 191.843 -52.0647 204.94V205.072C-52.9249 209.588 -52.2704 213.095 -50.1948 215.511C-48.1193 217.926 -43.8746 219.547 -38.1528 219.927C-26.8864 217.43 -14.9704 218.777 -4.77527 223.699L-4.4013 223.881V224.245C0.75959 244.989 -9.59959 259.099 -35.1422 266.196C-62.5548 274.003 -83.1796 289.239 -96.3623 311.471Z" fill="#161616"/>
</g>
</svg>
