<svg width="89" height="88" viewBox="0 0 89 88" fill="none" xmlns="http://www.w3.org/2000/svg">
<rect x="1" y="0.5" width="87" height="87" rx="43.5" fill="white"/>
<rect x="1" y="0.5" width="87" height="87" rx="43.5" stroke="#A0A0A0"/>
<path d="M43.4973 25.4113L28.8984 33.84C28.2796 34.1972 27.8984 34.8575 27.8984 35.572V52.4293C27.8984 53.1438 28.2796 53.8041 28.8984 54.1613L43.4973 62.59C44.1161 62.9472 44.8785 62.9472 45.4973 62.59L60.0961 54.1613C60.7149 53.8041 61.0961 53.1438 61.0961 52.4293V35.572C61.0961 34.8575 60.7149 34.1972 60.0961 33.84L45.4973 25.4113C44.8785 25.0541 44.1161 25.0541 43.4973 25.4113Z" stroke="#161616" stroke-opacity="0.5" stroke-width="2"/>
</svg>
