<svg width="149" height="88" viewBox="0 0 149 88" fill="none" xmlns="http://www.w3.org/2000/svg">
<g clip-path="url(#clip0_3761_7046)">
<path fill-rule="evenodd" clip-rule="evenodd" d="M75.7464 0.467365C66.7297 1.60298 56.0217 6.60641 49.9444 12.5236C48.0318 14.3859 46.2891 17.1438 45.4638 19.6145C44.2729 23.18 44.5367 27.9642 46.169 32.4055C47.6429 36.4155 50.7261 41.246 54.5792 45.5815C61.9856 53.9152 68.4965 58.3068 75.4948 59.6886C79.8303 60.5445 84.4531 59.498 87.938 56.8714C95.3149 51.3115 101.168 41.4444 103.445 30.7293C104.37 26.3796 104.369 19.0608 103.445 15.5039C101.278 7.17017 95.7738 2.29721 86.7171 0.695327C84.5663 0.315111 78.0336 0.17906 75.7464 0.467365ZM70.6951 6.66759C65.2783 8.69495 59.5821 16.3873 57.3249 24.723C56.3925 28.1661 56.1504 34.2233 56.8392 36.8753C58.3604 42.7325 62.1852 46.2184 68.3798 47.3929C72.3322 48.1421 77.831 47.6753 82.1481 46.2237C85.4631 45.1093 89.7477 42.8862 91.7567 41.2382C92.1531 40.913 92.9431 40.2805 93.5124 39.833C94.929 38.7186 96.8368 35.9311 97.4275 34.1124C98.1734 31.8166 97.8976 27.8792 96.8057 25.2339C95.7407 22.6537 94.9388 21.2943 92.8074 18.4576C89.1669 13.6123 83.7079 8.98744 79.5795 7.25147C76.7532 6.06277 72.9743 5.81441 70.6951 6.66759ZM80.0223 21.3206C76.3805 22.6883 74.2692 25.4985 74.0201 29.3096C73.835 32.1415 74.5786 34.1918 76.4855 36.1082C78.4492 38.0816 79.9342 38.6851 82.835 38.6884C84.8646 38.6909 85.4219 38.5806 86.7863 37.9073C93.2989 34.6935 93.3562 25.1912 86.8833 21.86C85.1781 20.9823 81.6597 20.7057 80.0223 21.3206ZM41.9712 77.0927C38.9211 78.1485 37.6563 81.0829 38.7991 84.4535C39.66 86.9926 42.2917 88.2076 46.2702 87.9025C49.8048 87.6315 49.6305 87.7765 49.5252 85.1918L49.4345 82.9706H47.9268H46.419V84.3674V85.7642H45.4193C43.4768 85.7642 42.2492 84.5096 42.2492 82.5244C42.2492 79.666 44.8306 78.1186 48.2954 78.8999C49.1966 79.1033 49.1988 79.1011 49.1988 77.999C49.1988 76.9852 49.1274 76.8801 48.3301 76.7198C46.6208 76.3762 43.5148 76.5583 41.9712 77.0927ZM50.8664 76.9173C50.8664 77.045 51.279 77.8621 51.783 78.7332C53.6997 82.0456 54.7482 84.8957 54.7552 86.8118L54.7585 87.7198H56.7044H58.6503V86.5065C58.6503 84.8926 59.3783 82.8504 61.136 79.5349L62.5871 76.798L60.696 76.881L58.8046 76.9642L58.0754 78.7228C57.3263 80.5303 56.8381 81.2427 56.5487 80.9516C56.4578 80.8605 56.0378 79.9261 55.615 78.8751L54.8461 76.9642L52.856 76.8245C51.7616 76.7477 50.8662 76.7893 50.8664 76.9173ZM63.7366 77.0106C63.6682 77.1897 63.6532 77.6925 63.7027 78.1281L63.793 78.9198L66.5034 78.9997C67.9942 79.0438 69.2137 79.1952 69.2137 79.3369C69.2137 79.4782 67.9036 80.7622 66.3024 82.19L63.3908 84.7864L63.3836 86.2531L63.376 87.7198H68.5188H73.6615V86.6023V85.4849H70.7427C69.1373 85.4849 67.8238 85.3706 67.8238 85.2309C67.8238 84.984 69.8003 83.022 72.2021 80.884C73.3137 79.8945 73.3835 79.7445 73.3835 78.3412V76.85L68.6219 76.7675C65.1868 76.7078 63.8258 76.7757 63.7366 77.0106ZM98.7961 76.8014C98.7324 76.8653 98.6802 77.457 98.6802 78.116V79.3142L100.696 79.3964L102.711 79.4785L102.788 83.5991L102.865 87.7198H104.664H106.464V83.5293V79.3388H108.41H110.356V78.0118V76.6849H104.634C101.487 76.6849 98.8597 76.7374 98.7961 76.8014ZM126.548 76.7645L123.699 76.8441V82.2819V87.7198H125.228H126.757V83.5293C126.757 80.8544 126.86 79.3388 127.042 79.3388C127.425 79.3388 127.692 80.1051 128.745 84.221L129.639 87.7198L132.576 87.7201H135.513V82.3423V76.9642L134.123 76.8187C133.359 76.7388 132.64 76.7148 132.525 76.7653C132.41 76.8162 132.316 78.6728 132.316 80.8918C132.316 83.1108 132.207 84.9261 132.073 84.9261C131.853 84.9261 130.363 79.928 129.922 77.7115C129.823 77.2173 129.665 76.784 129.57 76.7488C129.475 76.7136 128.115 76.7206 126.548 76.7645ZM137.32 78.0118V79.3388H139.266H141.212V83.5293V87.7198H143.019H144.826V83.5293V79.3388H146.903H148.981L149.066 83.4595C149.146 87.3804 149.153 87.3161 149.212 82.1325L149.273 76.6849H143.296H137.32L137.32 78.0118ZM0.273438 82.2722V87.7198H1.94135H3.60926V85.3452C3.60926 83.631 3.706 82.9709 3.95674 82.972C4.30061 82.9734 6.94508 86.9392 6.94508 87.4533C6.94508 87.6013 7.99503 87.7198 9.30934 87.7198H11.6736L9.85586 85.1357C8.85595 83.7145 7.9664 82.3945 7.87883 82.2026C7.74234 81.9031 8.20963 81.1315 10.8013 77.3771C11.1707 76.8419 11.1185 76.8245 9.13338 76.8282L7.08407 76.8318L5.73001 78.9234C3.96869 81.6441 3.60926 81.6436 3.60926 78.9198V76.8245H1.94135H0.273438V82.2722ZM13.8841 79.4321C15.5829 82.599 16.3966 84.8901 16.3966 86.5065V87.7198H18.3425H20.2884V86.8007C20.2884 84.7141 22.0336 80.3395 23.9669 77.5799L24.514 76.7988L22.5175 76.8815L20.5208 76.9642L19.6957 78.9106C19.2417 79.9811 18.8173 80.9105 18.7522 80.9759C18.4631 81.2662 17.8707 80.3607 17.2391 78.6633L16.5547 76.8245H14.5202H12.4853L13.8841 79.4321ZM25.8481 82.2534V87.7198H27.655H29.4619V85.6245C29.4619 83.5908 29.4816 83.5293 30.1388 83.5293C31.0817 83.5293 32.2676 84.0201 32.6965 84.5878C32.895 84.8507 33.1402 85.6628 33.2414 86.3928L33.4254 87.7198H35.0574H36.6895L36.6884 86.3928C36.6873 84.9993 35.9317 83.3689 35.1464 83.0661C34.7911 82.9292 34.82 82.8298 35.3165 82.4803C36.2814 81.8012 36.7559 80.3451 36.4207 79.0936C35.8869 77.102 35.5442 76.9754 30.4065 76.8757L25.8481 76.7868V82.2534ZM75.8854 82.2722V87.7198H77.8313H79.7772V86.0436V84.3674H81.7506C85.0177 84.3674 86.7285 83.0695 86.7218 80.596C86.7176 79.1483 86.2484 78.2507 85.0834 77.4615C84.2091 76.8695 83.8513 76.8245 80.014 76.8245H75.8854V82.2722ZM89.9283 78.1515C89.6601 78.8815 89.1528 80.1699 88.8006 81.015C88.4486 81.8601 87.7642 83.5572 87.2797 84.7864C86.7955 86.0157 86.3343 87.1786 86.2551 87.3706C86.148 87.6307 86.6109 87.7198 88.0653 87.7198H90.0195L90.3406 86.742L90.6617 85.7642H92.9904H95.319L95.5017 86.742L95.6843 87.7198H97.5991C98.6524 87.7198 99.5141 87.6212 99.5141 87.5008C99.5141 87.3804 98.6385 85.0541 97.5682 82.3314C96.498 79.6084 95.6223 77.2556 95.6223 77.1028C95.6223 76.938 94.5615 76.8245 93.0193 76.8245H90.4162L89.9283 78.1515ZM112.023 82.2722V87.7198H116.906H121.788L121.701 86.8118L121.614 85.9039L118.626 85.8246L115.637 85.7452V84.509V83.2726L117.931 83.1913L120.224 83.1103L120.311 82.2023L120.398 81.2944H118.018H115.637V80.0372V78.7801H118.556H121.475V77.8023V76.8245H116.749H112.023V82.2722ZM29.4619 80.1769V81.8531H30.8087C32.1822 81.8531 32.7774 81.4793 33.1696 80.3708C33.4835 79.4838 32.1984 78.5007 30.7253 78.5007H29.4619V80.1769ZM79.8467 78.6857C79.6193 78.7779 79.4992 79.4467 79.4992 80.6192V82.4118H80.8366C82.8928 82.4118 83.9241 81.1413 83.1096 79.612C82.7244 78.8885 80.7376 78.3245 79.8467 78.6857ZM92.0399 81.3173C91.6911 82.4057 91.465 83.3555 91.5373 83.4285C91.6099 83.5011 92.2882 83.522 93.0448 83.4751L94.4206 83.3896L93.844 81.3642C93.5269 80.2501 93.1338 79.3388 92.9706 79.3388C92.8074 79.3388 92.3885 80.2292 92.0399 81.3173Z" fill="#0076C0"/>
<path fill-rule="evenodd" clip-rule="evenodd" d="M80.0297 21.3233C76.3878 22.6911 74.2765 25.5012 74.0275 29.3123C73.8423 32.1442 74.5859 34.1945 76.4929 36.1109C78.4566 38.0844 79.9416 38.6878 82.8424 38.6912C84.8719 38.6937 85.4293 38.5833 86.7936 37.9101C93.3063 34.6962 93.3635 25.1939 86.8906 21.8628C85.1855 20.985 81.667 20.7084 80.0297 21.3233Z" fill="#4FBCEC"/>
</g>
<defs>
<clipPath id="clip0_3761_7046">
<rect width="149" height="88" fill="white"/>
</clipPath>
</defs>
</svg>
