<svg width="26" height="26" viewBox="0 0 26 26" fill="none" xmlns="http://www.w3.org/2000/svg">
<path d="M18.7824 5.91484C18.5253 5.91484 18.2739 5.99108 18.0602 6.13393C17.8464 6.27677 17.6797 6.4798 17.5814 6.71735C17.483 6.95489 17.4572 7.21628 17.5074 7.46845C17.5575 7.72063 17.6813 7.95227 17.8632 8.13408C18.045 8.31588 18.2766 8.4397 18.5288 8.48986C18.781 8.54002 19.0423 8.51427 19.2799 8.41588C19.5174 8.31749 19.7205 8.15086 19.8633 7.93708C20.0061 7.72329 20.0824 7.47195 20.0824 7.21484C20.0824 6.87006 19.9454 6.5394 19.7016 6.2956C19.4578 6.0518 19.1272 5.91484 18.7824 5.91484ZM23.7657 8.5365C23.7447 7.63766 23.5763 6.74836 23.2674 5.904C22.9919 5.18156 22.5632 4.52739 22.0107 3.9865C21.4743 3.43122 20.8186 3.0052 20.0932 2.74067C19.2511 2.42234 18.3608 2.25015 17.4607 2.2315C16.3124 2.1665 15.9441 2.1665 12.9974 2.1665C10.0507 2.1665 9.6824 2.1665 8.53406 2.2315C7.63398 2.25015 6.74368 2.42234 5.90156 2.74067C5.17755 3.00787 4.52241 3.43353 3.98406 3.9865C3.42877 4.52295 3.00275 5.17865 2.73823 5.904C2.4199 6.74613 2.24771 7.63642 2.22906 8.5365C2.16406 9.68484 2.16406 10.0532 2.16406 12.9998C2.16406 15.9465 2.16406 16.3148 2.22906 17.4632C2.24771 18.3633 2.4199 19.2535 2.73823 20.0957C3.00275 20.821 3.42877 21.4767 3.98406 22.0132C4.52241 22.5661 5.17755 22.9918 5.90156 23.259C6.74368 23.5773 7.63398 23.7495 8.53406 23.7682C9.6824 23.8332 10.0507 23.8332 12.9974 23.8332C15.9441 23.8332 16.3124 23.8332 17.4607 23.7682C18.3608 23.7495 19.2511 23.5773 20.0932 23.259C20.8186 22.9945 21.4743 22.5685 22.0107 22.0132C22.5657 21.4743 22.9948 20.8195 23.2674 20.0957C23.5763 19.2513 23.7447 18.362 23.7657 17.4632C23.7657 16.3148 23.8307 15.9465 23.8307 12.9998C23.8307 10.0532 23.8307 9.68484 23.7657 8.5365ZM21.8157 17.3332C21.8078 18.0208 21.6833 18.7022 21.4474 19.3482C21.2744 19.8196 20.9966 20.2456 20.6349 20.594C20.2835 20.9521 19.8584 21.2293 19.3891 21.4065C18.7431 21.6424 18.0617 21.7669 17.3741 21.7748C16.2907 21.829 15.8899 21.8398 13.0407 21.8398C10.1916 21.8398 9.79073 21.8398 8.7074 21.7748C7.99336 21.7882 7.28237 21.6783 6.60573 21.4498C6.15699 21.2636 5.75136 20.987 5.41406 20.6373C5.05449 20.2893 4.78014 19.863 4.6124 19.3915C4.34791 18.7362 4.20121 18.0394 4.17906 17.3332C4.17906 16.2498 4.11406 15.849 4.11406 12.9998C4.11406 10.1507 4.11406 9.74984 4.17906 8.6665C4.18392 7.96348 4.31226 7.26678 4.55823 6.60817C4.74895 6.15091 5.04168 5.7433 5.41406 5.4165C5.74319 5.04402 6.14996 4.74819 6.60573 4.54984C7.26608 4.31155 7.96206 4.18701 8.66406 4.1815C9.7474 4.1815 10.1482 4.1165 12.9974 4.1165C15.8466 4.1165 16.2474 4.1165 17.3307 4.1815C18.0184 4.18939 18.6997 4.31394 19.3457 4.54984C19.838 4.73254 20.2799 5.02959 20.6349 5.4165C20.9899 5.74928 21.2673 6.15613 21.4474 6.60817C21.6882 7.26785 21.8128 7.96426 21.8157 8.6665C21.8699 9.74984 21.8807 10.1507 21.8807 12.9998C21.8807 15.849 21.8699 16.2498 21.8157 17.3332ZM12.9974 7.44234C11.8987 7.44448 10.8253 7.77224 9.91277 8.38421C9.00027 8.99617 8.28964 9.86488 7.87067 10.8806C7.45169 11.8963 7.34318 13.0133 7.55884 14.0907C7.7745 15.168 8.30465 16.1572 9.08231 16.9334C9.85997 17.7095 10.8502 18.2378 11.928 18.4513C13.0057 18.6649 14.1226 18.5542 15.1375 18.1333C16.1524 17.7123 17.0197 17 17.6299 16.0863C18.2401 15.1726 18.5657 14.0985 18.5657 12.9998C18.5672 12.2687 18.424 11.5445 18.1446 10.8689C17.8651 10.1933 17.4548 9.57955 16.9373 9.06306C16.4198 8.54657 15.8053 8.13749 15.1292 7.85934C14.453 7.5812 13.7285 7.43948 12.9974 7.44234ZM12.9974 16.6073C12.2839 16.6073 11.5864 16.3958 10.9932 15.9994C10.3999 15.603 9.93754 15.0396 9.6645 14.3804C9.39146 13.7212 9.32002 12.9958 9.45921 12.296C9.59841 11.5963 9.94199 10.9535 10.4465 10.4489C10.951 9.94443 11.5938 9.60085 12.2936 9.46165C12.9934 9.32246 13.7187 9.3939 14.3779 9.66694C15.0371 9.93998 15.6005 10.4024 15.9969 10.9956C16.3933 11.5889 16.6049 12.2863 16.6049 12.9998C16.6049 13.4736 16.5116 13.9427 16.3303 14.3804C16.149 14.818 15.8833 15.2157 15.5483 15.5507C15.2133 15.8857 14.8156 16.1514 14.3779 16.3327C13.9402 16.514 13.4711 16.6073 12.9974 16.6073Z" fill="#161616"/>
</svg>
