<svg width="49" height="50" viewBox="0 0 49 50" fill="none" xmlns="http://www.w3.org/2000/svg">
<g clip-path="url(#clip0_137_15868)">
<path d="M8.51337 35.6757C12.1266 23.5028 3.77023 16.3457 3.77023 16.3457C8.5542 28.4285 1.75844 38.9517 0.730135 40.4384L0.59668 40.5132C0.59668 40.5132 0.627056 40.5092 0.685816 40.5023C0.632533 40.5786 0.603148 40.6182 0.603148 40.6182L0.812295 40.4889C2.6 40.309 15.1548 39.4413 23.4987 49.4413C23.4987 49.4413 21.1677 38.6822 8.70708 35.9701L8.51337 35.6757Z" fill="#5CB130"/>
<path d="M11.935 30.3681C12.8956 28.6862 15.0448 28.098 16.7349 29.0539C18.425 30.0098 19.0161 32.1485 18.0555 33.8304C17.095 35.5123 14.9457 36.1005 13.2556 35.1446C11.5655 34.1882 10.9744 32.0499 11.935 30.3681Z" fill="#5CB130"/>
<path d="M40.5 35.6757C36.8867 23.5028 45.2431 16.3457 45.2431 16.3457C40.4591 28.4285 47.2549 38.9517 48.2832 40.4384L48.4167 40.5132C48.4167 40.5132 48.3863 40.5092 48.3275 40.5023C48.3808 40.5786 48.4102 40.6182 48.4102 40.6182L48.201 40.4889C46.4133 40.309 33.8586 39.4413 25.5146 49.4413C25.5146 49.4413 27.8456 38.6822 40.3063 35.9701L40.5 35.6757Z" fill="#FFDF00"/>
<path d="M37.078 30.3681C36.1174 28.6862 33.9682 28.098 32.2781 29.0539C30.588 30.0098 29.9969 32.1485 30.9575 33.8304C31.9181 35.5123 34.0673 36.1005 35.7574 35.1446C37.4475 34.1882 38.0386 32.0499 37.078 30.3681Z" fill="#FFDF00"/>
<path d="M24.0294 9.29088C15.304 18.5496 4.87305 14.9955 4.87305 14.9955C17.7669 12.9916 23.4527 1.83548 24.2216 0.200695L24.2191 0.0480674C24.2191 0.0480674 24.231 0.0763147 24.2549 0.129833C24.2938 0.045591 24.3132 0 24.3132 0L24.3067 0.244797C25.0547 1.87017 30.6523 13.0872 43.5417 15.1923C43.5417 15.1923 33.0356 18.6323 24.3829 9.30723L24.0294 9.29088Z" fill="#2D2E83"/>
<path d="M21.1588 14.9135C20.1867 16.5889 20.7634 18.7312 22.447 19.6985C24.1306 20.6657 26.2833 20.0919 27.2554 18.4165C28.2274 16.7411 27.6508 14.5988 25.9671 13.6316C24.2835 12.6643 22.1308 13.2381 21.1588 14.9135Z" fill="#4953A0"/>
<path d="M7.91669 36.2158C11.5299 24.0428 3.17355 16.8857 3.17355 16.8857C7.95752 28.9685 1.16176 39.4918 0.133455 40.9784L0 41.0532C0 41.0532 0.030378 41.0493 0.0891382 41.0423C0.0358556 41.1186 0.00647383 41.1583 0.00647383 41.1583L0.215621 41.029C2.00332 40.8491 14.5581 39.9814 22.902 49.9814C22.902 49.9814 20.571 39.2222 8.1104 36.5101L7.91669 36.2158Z" fill="#2E9537"/>
<path d="M41.042 36.2158C37.4287 24.0428 45.7851 16.8857 45.7851 16.8857C41.0011 28.9685 47.7969 39.4918 48.8252 40.9784L48.9587 41.0532C48.9587 41.0532 48.9283 41.0493 48.8695 41.0423C48.9228 41.1186 48.9522 41.1583 48.9522 41.1583L48.743 41.029C46.9553 40.8491 34.4006 39.9814 26.0566 49.9814C26.0566 49.9814 28.3876 39.2222 40.8483 36.5101L41.042 36.2158Z" fill="#FFCC03"/>
<path d="M23.9932 10.0438C15.2678 19.3025 4.83691 15.748 4.83691 15.748C17.7308 13.744 23.4166 2.58792 24.1854 0.95313L24.183 0.800509C24.183 0.800509 24.1949 0.82875 24.2188 0.882268C24.2576 0.798026 24.2771 0.752441 24.2771 0.752441L24.2706 0.997238C25.0185 2.62261 30.6162 13.8397 43.5056 15.9447C43.5056 15.9447 32.9995 19.3847 24.3468 10.0597L23.9932 10.0438Z" fill="#4953A0"/>
</g>
<defs>
<clipPath id="clip0_137_15868">
<rect width="49" height="50" fill="white"/>
</clipPath>
</defs>
</svg>
