<svg width="48" height="48" viewBox="0 0 48 48" fill="none" xmlns="http://www.w3.org/2000/svg">
<path d="M24.3201 21.74C24.1201 21.72 23.8801 21.72 23.6601 21.74C18.9001 21.58 15.1201 17.68 15.1201 12.88C15.1201 7.98 19.0801 4 24.0001 4C28.9001 4 32.8801 7.98 32.8801 12.88C32.8601 17.68 29.0801 21.58 24.3201 21.74Z" stroke="#292D32" stroke-width="2" stroke-linecap="round" stroke-linejoin="round"/>
<path d="M14.3199 29.12C9.47994 32.36 9.47994 37.64 14.3199 40.86C19.8199 44.54 28.8399 44.54 34.3399 40.86C39.1799 37.62 39.1799 32.34 34.3399 29.12C28.8599 25.46 19.8399 25.46 14.3199 29.12Z" stroke="#292D32" stroke-width="2" stroke-linecap="round" stroke-linejoin="round"/>
</svg>
