<svg width="1249" height="871" viewBox="0 0 1249 871" fill="none" xmlns="http://www.w3.org/2000/svg">
<path d="M661.564 350.93C645.887 309.195 661.159 260.24 698.732 214.784C736.295 169.34 796.083 127.484 869.201 100.019C942.319 72.554 1014.88 64.6967 1073.07 74.1725C1131.28 83.6507 1175 110.445 1190.68 152.18C1206.36 193.915 1191.08 242.87 1153.51 288.326C1115.95 333.77 1056.16 375.625 983.042 403.09C909.924 430.556 837.366 438.413 779.174 428.937C720.966 419.459 677.241 392.665 661.564 350.93Z" fill="#F4F8FF" stroke="#161616"/>
<path d="M71.2143 502.151C51.8842 450.691 70.8567 390.297 117.368 334.209C163.869 278.135 237.831 226.456 328.242 192.495C418.653 158.534 508.348 148.739 580.267 160.332C652.202 171.928 706.243 204.896 725.574 256.357C744.904 307.818 725.931 368.211 679.42 424.299C632.919 480.374 558.957 532.052 468.546 566.013C378.135 599.974 288.439 609.769 216.521 598.176C144.586 586.58 90.5444 553.612 71.2143 502.151Z" stroke="#161616"/>
<path d="M508.859 680.191C492.128 627.808 511.461 569.288 556.411 516.99C601.355 464.7 671.858 418.7 757.275 391.418C842.693 364.135 926.807 360.75 993.741 377.307C1060.68 393.866 1110.36 430.345 1127.09 482.728C1143.82 535.111 1124.49 593.631 1079.54 645.929C1034.59 698.219 964.092 744.219 878.674 771.501C793.256 798.784 709.142 802.169 642.209 785.612C575.266 769.053 525.591 732.574 508.859 680.191Z" stroke="#161616"/>
<path d="M251.556 354.2L251.236 356.48C250.596 356.427 250.076 356.533 249.676 356.8C249.276 357.053 248.996 357.427 248.836 357.92C248.689 358.4 248.662 358.96 248.756 359.6H251.556V365.04H246.116V359.6C246.116 357.68 246.562 356.227 247.456 355.24C248.349 354.24 249.716 353.893 251.556 354.2ZM244.316 354.2L243.996 356.48C243.356 356.427 242.836 356.533 242.436 356.8C242.036 357.053 241.756 357.427 241.596 357.92C241.449 358.4 241.422 358.96 241.516 359.6H244.316V365.04H238.876V359.6C238.876 357.68 239.322 356.227 240.216 355.24C241.109 354.24 242.476 353.893 244.316 354.2ZM257.538 383V354.2H262.418L271.938 373.32L281.458 354.2H286.338V383H281.258V365.8L272.898 383H270.978L262.618 365.8V383H257.538ZM301.672 383.6C299.499 383.6 297.592 383.113 295.952 382.14C294.312 381.167 293.032 379.827 292.112 378.12C291.206 376.4 290.752 374.427 290.752 372.2C290.752 369.947 291.219 367.967 292.152 366.26C293.086 364.54 294.372 363.2 296.012 362.24C297.652 361.28 299.539 360.8 301.672 360.8C303.846 360.8 305.752 361.287 307.392 362.26C309.046 363.233 310.332 364.58 311.252 366.3C312.172 368.007 312.632 369.973 312.632 372.2C312.632 374.44 312.166 376.42 311.232 378.14C310.312 379.847 309.026 381.187 307.372 382.16C305.732 383.12 303.832 383.6 301.672 383.6ZM301.672 378.52C303.419 378.52 304.719 377.933 305.572 376.76C306.439 375.573 306.872 374.053 306.872 372.2C306.872 370.28 306.432 368.747 305.552 367.6C304.686 366.453 303.392 365.88 301.672 365.88C300.486 365.88 299.512 366.147 298.752 366.68C297.992 367.213 297.426 367.953 297.052 368.9C296.692 369.847 296.512 370.947 296.512 372.2C296.512 374.133 296.946 375.673 297.812 376.82C298.692 377.953 299.979 378.52 301.672 378.52ZM315.03 383V378.48C315.817 378.627 316.424 378.62 316.85 378.46C317.277 378.287 317.597 377.953 317.81 377.46C318.037 376.953 318.23 376.267 318.39 375.4C318.604 374.253 318.79 372.913 318.95 371.38C319.124 369.847 319.27 368.227 319.39 366.52C319.51 364.8 319.617 363.093 319.71 361.4H336.03V383H330.59V366.48H324.47C324.417 367.173 324.344 368 324.25 368.96C324.17 369.92 324.077 370.92 323.97 371.96C323.877 372.987 323.77 373.973 323.65 374.92C323.53 375.853 323.404 376.653 323.27 377.32C322.95 379.013 322.477 380.347 321.85 381.32C321.224 382.293 320.364 382.913 319.27 383.18C318.177 383.46 316.764 383.4 315.03 383ZM351.36 383.6C349.187 383.6 347.28 383.113 345.64 382.14C344 381.167 342.72 379.827 341.8 378.12C340.893 376.4 340.44 374.427 340.44 372.2C340.44 369.947 340.907 367.967 341.84 366.26C342.773 364.54 344.06 363.2 345.7 362.24C347.34 361.28 349.227 360.8 351.36 360.8C353.533 360.8 355.44 361.287 357.08 362.26C358.733 363.233 360.02 364.58 360.94 366.3C361.86 368.007 362.32 369.973 362.32 372.2C362.32 374.44 361.853 376.42 360.92 378.14C360 379.847 358.713 381.187 357.06 382.16C355.42 383.12 353.52 383.6 351.36 383.6ZM351.36 378.52C353.107 378.52 354.407 377.933 355.26 376.76C356.127 375.573 356.56 374.053 356.56 372.2C356.56 370.28 356.12 368.747 355.24 367.6C354.373 366.453 353.08 365.88 351.36 365.88C350.173 365.88 349.2 366.147 348.44 366.68C347.68 367.213 347.113 367.953 346.74 368.9C346.38 369.847 346.2 370.947 346.2 372.2C346.2 374.133 346.633 375.673 347.5 376.82C348.38 377.953 349.667 378.52 351.36 378.52ZM365.118 387.8V378.8C366.265 378.8 367.078 378.4 367.558 377.6C368.051 376.8 368.438 375.373 368.718 373.32C368.878 372.133 369.011 370.887 369.118 369.58C369.238 368.273 369.338 366.933 369.418 365.56C369.498 364.187 369.571 362.8 369.638 361.4H386.318V378.8H388.518V387.8H383.398V383H370.238V387.8H365.118ZM372.078 378.8H380.878V365.6H374.358C374.318 366.333 374.271 367.067 374.218 367.8C374.178 368.533 374.125 369.26 374.058 369.98C374.005 370.7 373.951 371.4 373.898 372.08C373.845 372.747 373.785 373.387 373.718 374C373.598 375.173 373.431 376.127 373.218 376.86C373.005 377.593 372.625 378.24 372.078 378.8ZM402.539 383.6C400.326 383.6 398.373 383.127 396.679 382.18C394.999 381.22 393.679 379.907 392.719 378.24C391.773 376.56 391.299 374.64 391.299 372.48C391.299 370.12 391.766 368.067 392.699 366.32C393.633 364.573 394.919 363.22 396.559 362.26C398.199 361.287 400.086 360.8 402.219 360.8C404.486 360.8 406.413 361.333 407.999 362.4C409.586 363.467 410.759 364.967 411.519 366.9C412.279 368.833 412.546 371.107 412.319 373.72H406.939V371.72C406.939 369.52 406.586 367.94 405.879 366.98C405.186 366.007 404.046 365.52 402.459 365.52C400.606 365.52 399.239 366.087 398.359 367.22C397.493 368.34 397.059 370 397.059 372.2C397.059 374.213 397.493 375.773 398.359 376.88C399.239 377.973 400.526 378.52 402.219 378.52C403.286 378.52 404.199 378.287 404.959 377.82C405.719 377.353 406.299 376.68 406.699 375.8L412.139 377.36C411.326 379.333 410.039 380.867 408.279 381.96C406.533 383.053 404.619 383.6 402.539 383.6ZM395.379 373.72V369.68H409.699V373.72H395.379ZM413.654 383L421.174 372.2L414.174 361.4H420.094L426.614 371.8V361.4H431.414V371.8L437.934 361.4H443.854L436.854 372.2L444.374 383H438.094L431.414 372.6V383H426.614V372.6L419.934 383H413.654ZM447.537 383V361.4H452.977V368.28H456.457C457.057 368.28 457.757 368.293 458.557 368.32C459.357 368.347 460.017 368.413 460.537 368.52C461.804 368.8 462.871 369.247 463.737 369.86C464.604 370.473 465.257 371.267 465.697 372.24C466.151 373.2 466.377 374.347 466.377 375.68C466.377 377.6 465.877 379.147 464.877 380.32C463.891 381.48 462.457 382.28 460.577 382.72C460.057 382.84 459.391 382.92 458.577 382.96C457.764 382.987 457.057 383 456.457 383H447.537ZM452.977 378.8H457.057C457.297 378.8 457.564 378.787 457.857 378.76C458.151 378.733 458.444 378.68 458.737 378.6C459.297 378.44 459.791 378.087 460.217 377.54C460.644 376.993 460.857 376.373 460.857 375.68C460.857 374.92 460.637 374.273 460.197 373.74C459.757 373.193 459.244 372.84 458.657 372.68C458.377 372.6 458.097 372.547 457.817 372.52C457.537 372.493 457.284 372.48 457.057 372.48H452.977V378.8ZM486.428 383.6C484.415 383.6 482.548 383.187 480.828 382.36C479.122 381.52 477.775 380.373 476.788 378.92L481.068 376.04C481.828 376.813 482.642 377.42 483.508 377.86C484.388 378.3 485.348 378.52 486.388 378.52C487.468 378.52 488.308 378.287 488.908 377.82C489.522 377.353 489.828 376.733 489.828 375.96C489.828 375.213 489.582 374.707 489.088 374.44C488.608 374.173 487.995 374.033 487.248 374.02C486.515 374.007 485.775 374 485.028 374H483.748V369.76H485.028C486.148 369.76 487.102 369.667 487.888 369.48C488.675 369.28 489.068 368.733 489.068 367.84C489.068 367.093 488.795 366.573 488.248 366.28C487.702 365.987 487.068 365.84 486.348 365.84C485.388 365.84 484.422 366.047 483.448 366.46C482.475 366.873 481.588 367.36 480.788 367.92L477.788 364.2C479.015 363.173 480.375 362.353 481.868 361.74C483.375 361.113 484.948 360.8 486.588 360.8C487.975 360.8 489.282 361.04 490.508 361.52C491.748 362 492.748 362.727 493.508 363.7C494.282 364.66 494.668 365.867 494.668 367.32C494.668 368.253 494.482 369.167 494.108 370.06C493.735 370.953 493.095 371.84 492.188 372.72L492.148 371C492.815 371.347 493.388 371.793 493.868 372.34C494.362 372.873 494.735 373.493 494.988 374.2C495.255 374.907 495.388 375.68 495.388 376.52C495.388 378.067 494.975 379.367 494.148 380.42C493.322 381.473 492.228 382.267 490.868 382.8C489.508 383.333 488.028 383.6 486.428 383.6ZM505.804 383.6C504.257 383.6 502.944 383.307 501.864 382.72C500.797 382.12 499.984 381.327 499.424 380.34C498.877 379.34 498.604 378.24 498.604 377.04C498.604 376.04 498.757 375.127 499.064 374.3C499.371 373.473 499.864 372.747 500.544 372.12C501.237 371.48 502.164 370.947 503.324 370.52C504.124 370.227 505.077 369.967 506.184 369.74C507.291 369.513 508.544 369.3 509.944 369.1C511.344 368.887 512.884 368.653 514.564 368.4L512.604 369.48C512.604 368.2 512.297 367.26 511.684 366.66C511.071 366.06 510.044 365.76 508.604 365.76C507.804 365.76 506.971 365.953 506.104 366.34C505.237 366.727 504.631 367.413 504.284 368.4L499.364 366.84C499.911 365.053 500.937 363.6 502.444 362.48C503.951 361.36 506.004 360.8 508.604 360.8C510.511 360.8 512.204 361.093 513.684 361.68C515.164 362.267 516.284 363.28 517.044 364.72C517.471 365.52 517.724 366.32 517.804 367.12C517.884 367.92 517.924 368.813 517.924 369.8V383H513.164V378.56L513.844 379.48C512.791 380.933 511.651 381.987 510.424 382.64C509.211 383.28 507.671 383.6 505.804 383.6ZM506.964 379.32C507.964 379.32 508.804 379.147 509.484 378.8C510.177 378.44 510.724 378.033 511.124 377.58C511.537 377.127 511.817 376.747 511.964 376.44C512.244 375.853 512.404 375.173 512.444 374.4C512.497 373.613 512.524 372.96 512.524 372.44L514.124 372.84C512.511 373.107 511.204 373.333 510.204 373.52C509.204 373.693 508.397 373.853 507.784 374C507.171 374.147 506.631 374.307 506.164 374.48C505.631 374.693 505.197 374.927 504.864 375.18C504.544 375.42 504.304 375.687 504.144 375.98C503.997 376.273 503.924 376.6 503.924 376.96C503.924 377.453 504.044 377.88 504.284 378.24C504.537 378.587 504.891 378.853 505.344 379.04C505.797 379.227 506.337 379.32 506.964 379.32ZM234.736 442.8V438H216.776V416.4H222.216V432.92H230.616V416.4H236.056V433.2H240.176V442.8H234.736ZM262.618 416.4V438H257.418V424.8L247.658 438H243.338V416.4H248.538V429.16L258.338 416.4H262.618ZM278.302 447V438.36C276.195 438.693 274.289 438.473 272.582 437.7C270.875 436.913 269.522 435.633 268.522 433.86C267.522 432.087 267.022 429.867 267.022 427.2C267.022 424.533 267.522 422.313 268.522 420.54C269.522 418.753 270.875 417.473 272.582 416.7C274.289 415.927 276.195 415.707 278.302 416.04V409.6H283.102V416.04C285.209 415.707 287.115 415.927 288.822 416.7C290.529 417.473 291.882 418.753 292.882 420.54C293.882 422.313 294.382 424.533 294.382 427.2C294.382 429.867 293.882 432.087 292.882 433.86C291.882 435.633 290.529 436.913 288.822 437.7C287.115 438.473 285.209 438.693 283.102 438.36V447H278.302ZM278.302 433.52V420.92C277.222 420.733 276.309 420.767 275.562 421.02C274.829 421.26 274.242 421.673 273.802 422.26C273.362 422.833 273.042 423.547 272.842 424.4C272.642 425.24 272.542 426.173 272.542 427.2C272.542 428.227 272.649 429.167 272.862 430.02C273.075 430.86 273.409 431.573 273.862 432.16C274.329 432.747 274.929 433.167 275.662 433.42C276.395 433.66 277.275 433.693 278.302 433.52ZM283.102 433.52C284.129 433.693 285.009 433.66 285.742 433.42C286.475 433.18 287.069 432.773 287.522 432.2C287.989 431.627 288.329 430.913 288.542 430.06C288.755 429.207 288.862 428.253 288.862 427.2C288.862 426.133 288.762 425.18 288.562 424.34C288.362 423.487 288.042 422.773 287.602 422.2C287.162 421.627 286.569 421.227 285.822 421C285.089 420.76 284.182 420.733 283.102 420.92V433.52ZM309.369 438.6C307.222 438.6 305.429 438.1 303.989 437.1C302.549 436.1 301.462 434.74 300.729 433.02C300.009 431.3 299.649 429.36 299.649 427.2C299.649 425.04 300.009 423.1 300.729 421.38C301.449 419.66 302.509 418.3 303.909 417.3C305.309 416.3 307.035 415.8 309.089 415.8C311.155 415.8 312.955 416.293 314.489 417.28C316.022 418.267 317.209 419.62 318.049 421.34C318.902 423.047 319.329 425 319.329 427.2C319.329 429.36 318.909 431.3 318.069 433.02C317.242 434.74 316.082 436.1 314.589 437.1C313.095 438.1 311.355 438.6 309.369 438.6ZM298.729 447.6V416.4H303.529V431.2H304.209V447.6H298.729ZM308.489 433.76C309.662 433.76 310.622 433.467 311.369 432.88C312.115 432.293 312.669 431.507 313.029 430.52C313.389 429.52 313.569 428.413 313.569 427.2C313.569 426 313.382 424.907 313.009 423.92C312.635 422.92 312.055 422.127 311.269 421.54C310.495 420.94 309.502 420.64 308.289 420.64C307.155 420.64 306.235 420.913 305.529 421.46C304.835 422.007 304.329 422.773 304.009 423.76C303.689 424.747 303.529 425.893 303.529 427.2C303.529 428.507 303.689 429.653 304.009 430.64C304.329 431.627 304.849 432.393 305.569 432.94C306.302 433.487 307.275 433.76 308.489 433.76ZM333.45 438.6C331.276 438.6 329.37 438.113 327.73 437.14C326.09 436.167 324.81 434.827 323.89 433.12C322.983 431.4 322.53 429.427 322.53 427.2C322.53 424.947 322.996 422.967 323.93 421.26C324.863 419.54 326.15 418.2 327.79 417.24C329.43 416.28 331.316 415.8 333.45 415.8C335.623 415.8 337.53 416.287 339.17 417.26C340.823 418.233 342.11 419.58 343.03 421.3C343.95 423.007 344.41 424.973 344.41 427.2C344.41 429.44 343.943 431.42 343.01 433.14C342.09 434.847 340.803 436.187 339.15 437.16C337.51 438.12 335.61 438.6 333.45 438.6ZM333.45 433.52C335.196 433.52 336.496 432.933 337.35 431.76C338.216 430.573 338.65 429.053 338.65 427.2C338.65 425.28 338.21 423.747 337.33 422.6C336.463 421.453 335.17 420.88 333.45 420.88C332.263 420.88 331.29 421.147 330.53 421.68C329.77 422.213 329.203 422.953 328.83 423.9C328.47 424.847 328.29 425.947 328.29 427.2C328.29 429.133 328.723 430.673 329.59 431.82C330.47 432.953 331.756 433.52 333.45 433.52ZM348.768 438V416.4H358.888C359.688 416.4 360.388 416.447 360.988 416.54C361.588 416.62 362.088 416.72 362.488 416.84C363.474 417.133 364.374 417.707 365.188 418.56C366.001 419.413 366.408 420.653 366.408 422.28C366.408 423.24 366.254 424.02 365.948 424.62C365.641 425.207 365.234 425.693 364.728 426.08C364.488 426.253 364.248 426.4 364.008 426.52C363.768 426.64 363.528 426.733 363.288 426.8C363.848 426.88 364.354 427.027 364.808 427.24C365.528 427.56 366.154 428.067 366.688 428.76C367.221 429.44 367.488 430.453 367.488 431.8C367.488 433.24 367.134 434.467 366.428 435.48C365.734 436.493 364.688 437.2 363.288 437.6C362.808 437.733 362.241 437.833 361.588 437.9C360.948 437.967 360.274 438 359.568 438H348.768ZM354.288 433.88H359.168C359.448 433.88 359.734 433.853 360.028 433.8C360.334 433.733 360.608 433.653 360.848 433.56C361.234 433.4 361.508 433.127 361.668 432.74C361.841 432.353 361.928 431.96 361.928 431.56C361.928 431 361.801 430.56 361.548 430.24C361.308 429.92 361.034 429.693 360.728 429.56C360.474 429.44 360.194 429.373 359.888 429.36C359.594 429.333 359.354 429.32 359.168 429.32H354.288V433.88ZM354.288 425.12H357.608C358.034 425.12 358.434 425.1 358.808 425.06C359.194 425.007 359.514 424.92 359.768 424.8C360.114 424.64 360.374 424.387 360.548 424.04C360.721 423.68 360.808 423.28 360.808 422.84C360.808 422.373 360.708 421.953 360.508 421.58C360.321 421.193 360.008 420.933 359.568 420.8C359.274 420.693 358.901 420.633 358.448 420.62C358.008 420.607 357.728 420.6 357.608 420.6H354.288V425.12ZM390.743 416.4V438H385.543V424.8L375.783 438H371.463V416.4H376.663V429.16L386.463 416.4H390.743ZM403.987 438.6C401.974 438.6 400.107 438.187 398.387 437.36C396.68 436.52 395.334 435.373 394.347 433.92L398.627 431.04C399.387 431.813 400.2 432.42 401.067 432.86C401.947 433.3 402.907 433.52 403.947 433.52C405.027 433.52 405.867 433.287 406.467 432.82C407.08 432.353 407.387 431.733 407.387 430.96C407.387 430.213 407.14 429.707 406.647 429.44C406.167 429.173 405.554 429.033 404.807 429.02C404.074 429.007 403.334 429 402.587 429H401.307V424.76H402.587C403.707 424.76 404.66 424.667 405.447 424.48C406.234 424.28 406.627 423.733 406.627 422.84C406.627 422.093 406.354 421.573 405.807 421.28C405.26 420.987 404.627 420.84 403.907 420.84C402.947 420.84 401.98 421.047 401.007 421.46C400.034 421.873 399.147 422.36 398.347 422.92L395.347 419.2C396.574 418.173 397.934 417.353 399.427 416.74C400.934 416.113 402.507 415.8 404.147 415.8C405.534 415.8 406.84 416.04 408.067 416.52C409.307 417 410.307 417.727 411.067 418.7C411.84 419.66 412.227 420.867 412.227 422.32C412.227 423.253 412.04 424.167 411.667 425.06C411.294 425.953 410.654 426.84 409.747 427.72L409.707 426C410.374 426.347 410.947 426.793 411.427 427.34C411.92 427.873 412.294 428.493 412.547 429.2C412.814 429.907 412.947 430.68 412.947 431.52C412.947 433.067 412.534 434.367 411.707 435.42C410.88 436.473 409.787 437.267 408.427 437.8C407.067 438.333 405.587 438.6 403.987 438.6ZM423.363 438.6C421.816 438.6 420.503 438.307 419.423 437.72C418.356 437.12 417.543 436.327 416.983 435.34C416.436 434.34 416.163 433.24 416.163 432.04C416.163 431.04 416.316 430.127 416.623 429.3C416.929 428.473 417.423 427.747 418.103 427.12C418.796 426.48 419.723 425.947 420.883 425.52C421.683 425.227 422.636 424.967 423.743 424.74C424.849 424.513 426.103 424.3 427.503 424.1C428.903 423.887 430.443 423.653 432.123 423.4L430.163 424.48C430.163 423.2 429.856 422.26 429.243 421.66C428.629 421.06 427.603 420.76 426.163 420.76C425.363 420.76 424.529 420.953 423.663 421.34C422.796 421.727 422.189 422.413 421.843 423.4L416.923 421.84C417.469 420.053 418.496 418.6 420.003 417.48C421.509 416.36 423.563 415.8 426.163 415.8C428.069 415.8 429.763 416.093 431.243 416.68C432.723 417.267 433.843 418.28 434.603 419.72C435.029 420.52 435.283 421.32 435.363 422.12C435.443 422.92 435.483 423.813 435.483 424.8V438H430.723V433.56L431.403 434.48C430.349 435.933 429.209 436.987 427.983 437.64C426.769 438.28 425.229 438.6 423.363 438.6ZM424.523 434.32C425.523 434.32 426.363 434.147 427.043 433.8C427.736 433.44 428.283 433.033 428.683 432.58C429.096 432.127 429.376 431.747 429.523 431.44C429.803 430.853 429.963 430.173 430.003 429.4C430.056 428.613 430.083 427.96 430.083 427.44L431.683 427.84C430.069 428.107 428.763 428.333 427.763 428.52C426.763 428.693 425.956 428.853 425.343 429C424.729 429.147 424.189 429.307 423.723 429.48C423.189 429.693 422.756 429.927 422.423 430.18C422.103 430.42 421.863 430.687 421.703 430.98C421.556 431.273 421.483 431.6 421.483 431.96C421.483 432.453 421.603 432.88 421.843 433.24C422.096 433.587 422.449 433.853 422.903 434.04C423.356 434.227 423.896 434.32 424.523 434.32ZM458.603 442.8V438H440.643V416.4H446.083V432.92H454.483V416.4H459.923V433.2H464.043V442.8H458.603ZM486.485 416.4V438H481.285V424.8L471.525 438H467.205V416.4H472.405V429.16L482.205 416.4H486.485ZM511.569 438.6C509.916 438.6 508.402 438.267 507.029 437.6C505.656 436.92 504.502 435.933 503.569 434.64C502.636 433.347 502.009 431.773 501.689 429.92H497.489V438H492.049V416.4H497.489V424.48H501.689C502.009 422.6 502.636 421.02 503.569 419.74C504.516 418.447 505.682 417.467 507.069 416.8C508.469 416.133 510.009 415.8 511.689 415.8C513.822 415.8 515.702 416.293 517.329 417.28C518.956 418.253 520.229 419.6 521.149 421.32C522.069 423.027 522.529 424.973 522.529 427.16C522.529 429.413 522.062 431.4 521.129 433.12C520.196 434.84 518.902 436.187 517.249 437.16C515.609 438.12 513.716 438.6 511.569 438.6ZM511.529 433.52C513.289 433.52 514.602 432.933 515.469 431.76C516.336 430.573 516.769 429.053 516.769 427.2C516.769 425.253 516.329 423.713 515.449 422.58C514.582 421.447 513.276 420.88 511.529 420.88C509.769 420.88 508.476 421.46 507.649 422.62C506.822 423.78 506.409 425.293 506.409 427.16C506.409 429.12 506.842 430.673 507.709 431.82C508.576 432.953 509.849 433.52 511.529 433.52ZM526.122 420.04L526.442 417.76C527.082 417.813 527.602 417.713 528.002 417.46C528.402 417.193 528.675 416.82 528.822 416.34C528.982 415.847 529.015 415.28 528.922 414.64H526.122V409.2H531.562V414.64C531.562 416.56 531.115 418.013 530.222 419C529.329 419.987 527.962 420.333 526.122 420.04ZM533.362 420.04L533.682 417.76C534.322 417.813 534.842 417.713 535.242 417.46C535.642 417.193 535.915 416.82 536.062 416.34C536.222 415.847 536.255 415.28 536.162 414.64H533.362V409.2H538.802V414.64C538.802 416.56 538.355 418.013 537.462 419C536.569 419.987 535.202 420.333 533.362 420.04Z" fill="#191A1B"/>
<path d="M843.724 220.2L843.404 222.48C842.764 222.427 842.244 222.533 841.844 222.8C841.444 223.053 841.164 223.427 841.004 223.92C840.857 224.4 840.83 224.96 840.924 225.6H843.724V231.04H838.284V225.6C838.284 223.68 838.73 222.227 839.624 221.24C840.517 220.24 841.884 219.893 843.724 220.2ZM836.484 220.2L836.164 222.48C835.524 222.427 835.004 222.533 834.604 222.8C834.204 223.053 833.924 223.427 833.764 223.92C833.617 224.4 833.59 224.96 833.684 225.6H836.484V231.04H831.044V225.6C831.044 223.68 831.49 222.227 832.384 221.24C833.277 220.24 834.644 219.893 836.484 220.2ZM849.706 249V220.2H854.586L864.106 239.32L873.626 220.2H878.506V249H873.426V231.8L865.066 249H863.146L854.786 231.8V249H849.706ZM893.84 249.6C891.667 249.6 889.76 249.113 888.12 248.14C886.48 247.167 885.2 245.827 884.28 244.12C883.374 242.4 882.92 240.427 882.92 238.2C882.92 235.947 883.387 233.967 884.32 232.26C885.254 230.54 886.54 229.2 888.18 228.24C889.82 227.28 891.707 226.8 893.84 226.8C896.014 226.8 897.92 227.287 899.56 228.26C901.214 229.233 902.5 230.58 903.42 232.3C904.34 234.007 904.8 235.973 904.8 238.2C904.8 240.44 904.334 242.42 903.4 244.14C902.48 245.847 901.194 247.187 899.54 248.16C897.9 249.12 896 249.6 893.84 249.6ZM893.84 244.52C895.587 244.52 896.887 243.933 897.74 242.76C898.607 241.573 899.04 240.053 899.04 238.2C899.04 236.28 898.6 234.747 897.72 233.6C896.854 232.453 895.56 231.88 893.84 231.88C892.654 231.88 891.68 232.147 890.92 232.68C890.16 233.213 889.594 233.953 889.22 234.9C888.86 235.847 888.68 236.947 888.68 238.2C888.68 240.133 889.114 241.673 889.98 242.82C890.86 243.953 892.147 244.52 893.84 244.52ZM907.198 249V244.48C907.985 244.627 908.592 244.62 909.018 244.46C909.445 244.287 909.765 243.953 909.978 243.46C910.205 242.953 910.398 242.267 910.558 241.4C910.772 240.253 910.958 238.913 911.118 237.38C911.292 235.847 911.438 234.227 911.558 232.52C911.678 230.8 911.785 229.093 911.878 227.4H928.198V249H922.758V232.48H916.638C916.585 233.173 916.512 234 916.418 234.96C916.338 235.92 916.245 236.92 916.138 237.96C916.045 238.987 915.938 239.973 915.818 240.92C915.698 241.853 915.572 242.653 915.438 243.32C915.118 245.013 914.645 246.347 914.018 247.32C913.392 248.293 912.532 248.913 911.438 249.18C910.345 249.46 908.932 249.4 907.198 249ZM943.528 249.6C941.354 249.6 939.448 249.113 937.808 248.14C936.168 247.167 934.888 245.827 933.968 244.12C933.061 242.4 932.608 240.427 932.608 238.2C932.608 235.947 933.074 233.967 934.008 232.26C934.941 230.54 936.228 229.2 937.868 228.24C939.508 227.28 941.394 226.8 943.528 226.8C945.701 226.8 947.608 227.287 949.248 228.26C950.901 229.233 952.188 230.58 953.108 232.3C954.028 234.007 954.488 235.973 954.488 238.2C954.488 240.44 954.021 242.42 953.088 244.14C952.168 245.847 950.881 247.187 949.228 248.16C947.588 249.12 945.688 249.6 943.528 249.6ZM943.528 244.52C945.274 244.52 946.574 243.933 947.428 242.76C948.294 241.573 948.728 240.053 948.728 238.2C948.728 236.28 948.288 234.747 947.408 233.6C946.541 232.453 945.248 231.88 943.528 231.88C942.341 231.88 941.368 232.147 940.608 232.68C939.848 233.213 939.281 233.953 938.908 234.9C938.548 235.847 938.368 236.947 938.368 238.2C938.368 240.133 938.801 241.673 939.668 242.82C940.548 243.953 941.834 244.52 943.528 244.52ZM957.286 253.8V244.8C958.433 244.8 959.246 244.4 959.726 243.6C960.219 242.8 960.606 241.373 960.886 239.32C961.046 238.133 961.179 236.887 961.286 235.58C961.406 234.273 961.506 232.933 961.586 231.56C961.666 230.187 961.739 228.8 961.806 227.4H978.486V244.8H980.686V253.8H975.566V249H962.406V253.8H957.286ZM964.246 244.8H973.046V231.6H966.526C966.486 232.333 966.439 233.067 966.386 233.8C966.346 234.533 966.293 235.26 966.226 235.98C966.173 236.7 966.119 237.4 966.066 238.08C966.013 238.747 965.953 239.387 965.886 240C965.766 241.173 965.599 242.127 965.386 242.86C965.173 243.593 964.793 244.24 964.246 244.8ZM994.707 249.6C992.494 249.6 990.541 249.127 988.847 248.18C987.167 247.22 985.847 245.907 984.887 244.24C983.941 242.56 983.467 240.64 983.467 238.48C983.467 236.12 983.934 234.067 984.867 232.32C985.801 230.573 987.087 229.22 988.727 228.26C990.367 227.287 992.254 226.8 994.387 226.8C996.654 226.8 998.581 227.333 1000.17 228.4C1001.75 229.467 1002.93 230.967 1003.69 232.9C1004.45 234.833 1004.71 237.107 1004.49 239.72H999.107V237.72C999.107 235.52 998.754 233.94 998.047 232.98C997.354 232.007 996.214 231.52 994.627 231.52C992.774 231.52 991.407 232.087 990.527 233.22C989.661 234.34 989.227 236 989.227 238.2C989.227 240.213 989.661 241.773 990.527 242.88C991.407 243.973 992.694 244.52 994.387 244.52C995.454 244.52 996.367 244.287 997.127 243.82C997.887 243.353 998.467 242.68 998.867 241.8L1004.31 243.36C1003.49 245.333 1002.21 246.867 1000.45 247.96C998.701 249.053 996.787 249.6 994.707 249.6ZM987.547 239.72V235.68H1001.87V239.72H987.547ZM1005.82 249L1013.34 238.2L1006.34 227.4H1012.26L1018.78 237.8V227.4H1023.58V237.8L1030.1 227.4H1036.02L1029.02 238.2L1036.54 249H1030.26L1023.58 238.6V249H1018.78V238.6L1012.1 249H1005.82ZM1039.71 249V227.4H1045.15V234.28H1048.63C1049.23 234.28 1049.93 234.293 1050.73 234.32C1051.53 234.347 1052.19 234.413 1052.71 234.52C1053.97 234.8 1055.04 235.247 1055.91 235.86C1056.77 236.473 1057.43 237.267 1057.87 238.24C1058.32 239.2 1058.55 240.347 1058.55 241.68C1058.55 243.6 1058.05 245.147 1057.05 246.32C1056.06 247.48 1054.63 248.28 1052.75 248.72C1052.23 248.84 1051.56 248.92 1050.75 248.96C1049.93 248.987 1049.23 249 1048.63 249H1039.71ZM1045.15 244.8H1049.23C1049.47 244.8 1049.73 244.787 1050.03 244.76C1050.32 244.733 1050.61 244.68 1050.91 244.6C1051.47 244.44 1051.96 244.087 1052.39 243.54C1052.81 242.993 1053.03 242.373 1053.03 241.68C1053.03 240.92 1052.81 240.273 1052.37 239.74C1051.93 239.193 1051.41 238.84 1050.83 238.68C1050.55 238.6 1050.27 238.547 1049.99 238.52C1049.71 238.493 1049.45 238.48 1049.23 238.48H1045.15V244.8ZM814.729 304.6C812.716 304.6 810.849 304.187 809.129 303.36C807.422 302.52 806.076 301.373 805.089 299.92L809.369 297.04C810.129 297.813 810.942 298.42 811.809 298.86C812.689 299.3 813.649 299.52 814.689 299.52C815.769 299.52 816.609 299.287 817.209 298.82C817.822 298.353 818.129 297.733 818.129 296.96C818.129 296.213 817.882 295.707 817.389 295.44C816.909 295.173 816.296 295.033 815.549 295.02C814.816 295.007 814.076 295 813.329 295H812.049V290.76H813.329C814.449 290.76 815.402 290.667 816.189 290.48C816.976 290.28 817.369 289.733 817.369 288.84C817.369 288.093 817.096 287.573 816.549 287.28C816.002 286.987 815.369 286.84 814.649 286.84C813.689 286.84 812.722 287.047 811.749 287.46C810.776 287.873 809.889 288.36 809.089 288.92L806.089 285.2C807.316 284.173 808.676 283.353 810.169 282.74C811.676 282.113 813.249 281.8 814.889 281.8C816.276 281.8 817.582 282.04 818.809 282.52C820.049 283 821.049 283.727 821.809 284.7C822.582 285.66 822.969 286.867 822.969 288.32C822.969 289.253 822.782 290.167 822.409 291.06C822.036 291.953 821.396 292.84 820.489 293.72L820.449 292C821.116 292.347 821.689 292.793 822.169 293.34C822.662 293.873 823.036 294.493 823.289 295.2C823.556 295.907 823.689 296.68 823.689 297.52C823.689 299.067 823.276 300.367 822.449 301.42C821.622 302.473 820.529 303.267 819.169 303.8C817.809 304.333 816.329 304.6 814.729 304.6ZM834.105 304.6C832.558 304.6 831.245 304.307 830.165 303.72C829.098 303.12 828.285 302.327 827.725 301.34C827.178 300.34 826.905 299.24 826.905 298.04C826.905 297.04 827.058 296.127 827.365 295.3C827.671 294.473 828.165 293.747 828.845 293.12C829.538 292.48 830.465 291.947 831.625 291.52C832.425 291.227 833.378 290.967 834.485 290.74C835.591 290.513 836.845 290.3 838.245 290.1C839.645 289.887 841.185 289.653 842.865 289.4L840.905 290.48C840.905 289.2 840.598 288.26 839.985 287.66C839.371 287.06 838.345 286.76 836.905 286.76C836.105 286.76 835.271 286.953 834.405 287.34C833.538 287.727 832.931 288.413 832.585 289.4L827.665 287.84C828.211 286.053 829.238 284.6 830.745 283.48C832.251 282.36 834.305 281.8 836.905 281.8C838.811 281.8 840.505 282.093 841.985 282.68C843.465 283.267 844.585 284.28 845.345 285.72C845.771 286.52 846.025 287.32 846.105 288.12C846.185 288.92 846.225 289.813 846.225 290.8V304H841.465V299.56L842.145 300.48C841.091 301.933 839.951 302.987 838.725 303.64C837.511 304.28 835.971 304.6 834.105 304.6ZM835.265 300.32C836.265 300.32 837.105 300.147 837.785 299.8C838.478 299.44 839.025 299.033 839.425 298.58C839.838 298.127 840.118 297.747 840.265 297.44C840.545 296.853 840.705 296.173 840.745 295.4C840.798 294.613 840.825 293.96 840.825 293.44L842.425 293.84C840.811 294.107 839.505 294.333 838.505 294.52C837.505 294.693 836.698 294.853 836.085 295C835.471 295.147 834.931 295.307 834.465 295.48C833.931 295.693 833.498 295.927 833.165 296.18C832.845 296.42 832.605 296.687 832.445 296.98C832.298 297.273 832.225 297.6 832.225 297.96C832.225 298.453 832.345 298.88 832.585 299.24C832.838 299.587 833.191 299.853 833.645 300.04C834.098 300.227 834.638 300.32 835.265 300.32ZM857.433 304V299.48C858.219 299.627 858.826 299.62 859.253 299.46C859.679 299.287 859.999 298.953 860.213 298.46C860.439 297.953 860.633 297.267 860.793 296.4C861.006 295.253 861.193 293.913 861.353 292.38C861.526 290.847 861.673 289.227 861.793 287.52C861.913 285.8 862.019 284.093 862.113 282.4H878.433V304H872.993V287.48H866.873C866.819 288.173 866.746 289 866.653 289.96C866.573 290.92 866.479 291.92 866.373 292.96C866.279 293.987 866.173 294.973 866.053 295.92C865.933 296.853 865.806 297.653 865.673 298.32C865.353 300.013 864.879 301.347 864.253 302.32C863.626 303.293 862.766 303.913 861.673 304.18C860.579 304.46 859.166 304.4 857.433 304ZM903.282 282.4V304H898.082V290.8L888.322 304H884.002V282.4H889.202V295.16L899.002 282.4H903.282ZM907.286 308.8V299.8C908.433 299.8 909.246 299.4 909.726 298.6C910.219 297.8 910.606 296.373 910.886 294.32C911.046 293.133 911.179 291.887 911.286 290.58C911.406 289.273 911.506 287.933 911.586 286.56C911.666 285.187 911.739 283.8 911.806 282.4H928.486V299.8H930.686V308.8H925.566V304H912.406V308.8H907.286ZM914.246 299.8H923.046V286.6H916.526C916.486 287.333 916.439 288.067 916.386 288.8C916.346 289.533 916.293 290.26 916.226 290.98C916.173 291.7 916.119 292.4 916.066 293.08C916.013 293.747 915.953 294.387 915.886 295C915.766 296.173 915.599 297.127 915.386 297.86C915.173 298.593 914.793 299.24 914.246 299.8ZM944.707 304.6C942.494 304.6 940.541 304.127 938.847 303.18C937.167 302.22 935.847 300.907 934.887 299.24C933.941 297.56 933.467 295.64 933.467 293.48C933.467 291.12 933.934 289.067 934.867 287.32C935.801 285.573 937.087 284.22 938.727 283.26C940.367 282.287 942.254 281.8 944.387 281.8C946.654 281.8 948.581 282.333 950.167 283.4C951.754 284.467 952.927 285.967 953.687 287.9C954.447 289.833 954.714 292.107 954.487 294.72H949.107V292.72C949.107 290.52 948.754 288.94 948.047 287.98C947.354 287.007 946.214 286.52 944.627 286.52C942.774 286.52 941.407 287.087 940.527 288.22C939.661 289.34 939.227 291 939.227 293.2C939.227 295.213 939.661 296.773 940.527 297.88C941.407 298.973 942.694 299.52 944.387 299.52C945.454 299.52 946.367 299.287 947.127 298.82C947.887 298.353 948.467 297.68 948.867 296.8L954.307 298.36C953.494 300.333 952.207 301.867 950.447 302.96C948.701 304.053 946.787 304.6 944.707 304.6ZM937.547 294.72V290.68H951.867V294.72H937.547ZM969.603 304.6C967.456 304.6 965.663 304.1 964.223 303.1C962.783 302.1 961.696 300.74 960.963 299.02C960.243 297.3 959.883 295.36 959.883 293.2C959.883 291.04 960.243 289.1 960.963 287.38C961.683 285.66 962.743 284.3 964.143 283.3C965.543 282.3 967.27 281.8 969.323 281.8C971.39 281.8 973.19 282.293 974.723 283.28C976.256 284.267 977.443 285.62 978.283 287.34C979.136 289.047 979.563 291 979.563 293.2C979.563 295.36 979.143 297.3 978.303 299.02C977.476 300.74 976.316 302.1 974.823 303.1C973.33 304.1 971.59 304.6 969.603 304.6ZM958.963 313.6V282.4H963.763V297.2H964.443V313.6H958.963ZM968.723 299.76C969.896 299.76 970.856 299.467 971.603 298.88C972.35 298.293 972.903 297.507 973.263 296.52C973.623 295.52 973.803 294.413 973.803 293.2C973.803 292 973.616 290.907 973.243 289.92C972.87 288.92 972.29 288.127 971.503 287.54C970.73 286.94 969.736 286.64 968.523 286.64C967.39 286.64 966.47 286.913 965.763 287.46C965.07 288.007 964.563 288.773 964.243 289.76C963.923 290.747 963.763 291.893 963.763 293.2C963.763 294.507 963.923 295.653 964.243 296.64C964.563 297.627 965.083 298.393 965.803 298.94C966.536 299.487 967.51 299.76 968.723 299.76ZM993.484 304.6C991.244 304.6 989.324 304.1 987.724 303.1C986.124 302.1 984.897 300.74 984.044 299.02C983.191 297.3 982.764 295.36 982.764 293.2C982.764 291.013 983.204 289.06 984.084 287.34C984.977 285.62 986.231 284.267 987.844 283.28C989.457 282.293 991.364 281.8 993.564 281.8C996.111 281.8 998.244 282.447 999.964 283.74C1001.7 285.02 1002.8 286.773 1003.28 289L997.844 290.44C997.524 289.32 996.964 288.447 996.164 287.82C995.377 287.193 994.484 286.88 993.484 286.88C992.337 286.88 991.397 287.16 990.664 287.72C989.931 288.267 989.391 289.02 989.044 289.98C988.697 290.927 988.524 292 988.524 293.2C988.524 295.08 988.937 296.607 989.764 297.78C990.604 298.94 991.844 299.52 993.484 299.52C994.711 299.52 995.644 299.24 996.284 298.68C996.924 298.12 997.404 297.32 997.724 296.28L1003.28 297.44C1002.67 299.733 1001.51 301.5 999.804 302.74C998.097 303.98 995.991 304.6 993.484 304.6ZM1012.56 304V287.2H1005.48V282.4H1025.08V287.2H1018V304H1012.56ZM1028.85 304V282.4H1038.97C1039.77 282.4 1040.47 282.447 1041.07 282.54C1041.67 282.62 1042.17 282.72 1042.57 282.84C1043.55 283.133 1044.45 283.707 1045.27 284.56C1046.08 285.413 1046.49 286.653 1046.49 288.28C1046.49 289.24 1046.33 290.02 1046.03 290.62C1045.72 291.207 1045.31 291.693 1044.81 292.08C1044.57 292.253 1044.33 292.4 1044.09 292.52C1043.85 292.64 1043.61 292.733 1043.37 292.8C1043.93 292.88 1044.43 293.027 1044.89 293.24C1045.61 293.56 1046.23 294.067 1046.77 294.76C1047.3 295.44 1047.57 296.453 1047.57 297.8C1047.57 299.24 1047.21 300.467 1046.51 301.48C1045.81 302.493 1044.77 303.2 1043.37 303.6C1042.89 303.733 1042.32 303.833 1041.67 303.9C1041.03 303.967 1040.35 304 1039.65 304H1028.85ZM1034.37 299.88H1039.25C1039.53 299.88 1039.81 299.853 1040.11 299.8C1040.41 299.733 1040.69 299.653 1040.93 299.56C1041.31 299.4 1041.59 299.127 1041.75 298.74C1041.92 298.353 1042.01 297.96 1042.01 297.56C1042.01 297 1041.88 296.56 1041.63 296.24C1041.39 295.92 1041.11 295.693 1040.81 295.56C1040.55 295.44 1040.27 295.373 1039.97 295.36C1039.67 295.333 1039.43 295.32 1039.25 295.32H1034.37V299.88ZM1034.37 291.12H1037.69C1038.11 291.12 1038.51 291.1 1038.89 291.06C1039.27 291.007 1039.59 290.92 1039.85 290.8C1040.19 290.64 1040.45 290.387 1040.63 290.04C1040.8 289.68 1040.89 289.28 1040.89 288.84C1040.89 288.373 1040.79 287.953 1040.59 287.58C1040.4 287.193 1040.09 286.933 1039.65 286.8C1039.35 286.693 1038.98 286.633 1038.53 286.62C1038.09 286.607 1037.81 286.6 1037.69 286.6H1034.37V291.12ZM1061.3 304.6C1059.13 304.6 1057.22 304.113 1055.58 303.14C1053.94 302.167 1052.66 300.827 1051.74 299.12C1050.83 297.4 1050.38 295.427 1050.38 293.2C1050.38 290.947 1050.85 288.967 1051.78 287.26C1052.71 285.54 1054 284.2 1055.64 283.24C1057.28 282.28 1059.17 281.8 1061.3 281.8C1063.47 281.8 1065.38 282.287 1067.02 283.26C1068.67 284.233 1069.96 285.58 1070.88 287.3C1071.8 289.007 1072.26 290.973 1072.26 293.2C1072.26 295.44 1071.79 297.42 1070.86 299.14C1069.94 300.847 1068.65 302.187 1067 303.16C1065.36 304.12 1063.46 304.6 1061.3 304.6ZM1061.3 299.52C1063.05 299.52 1064.35 298.933 1065.2 297.76C1066.07 296.573 1066.5 295.053 1066.5 293.2C1066.5 291.28 1066.06 289.747 1065.18 288.6C1064.31 287.453 1063.02 286.88 1061.3 286.88C1060.11 286.88 1059.14 287.147 1058.38 287.68C1057.62 288.213 1057.05 288.953 1056.68 289.9C1056.32 290.847 1056.14 291.947 1056.14 293.2C1056.14 295.133 1056.57 296.673 1057.44 297.82C1058.32 298.953 1059.61 299.52 1061.3 299.52ZM1075.85 286.04L1076.17 283.76C1076.81 283.813 1077.33 283.713 1077.73 283.46C1078.13 283.193 1078.4 282.82 1078.55 282.34C1078.71 281.847 1078.74 281.28 1078.65 280.64H1075.85V275.2H1081.29V280.64C1081.29 282.56 1080.84 284.013 1079.95 285C1079.06 285.987 1077.69 286.333 1075.85 286.04ZM1083.09 286.04L1083.41 283.76C1084.05 283.813 1084.57 283.713 1084.97 283.46C1085.37 283.193 1085.64 282.82 1085.79 282.34C1085.95 281.847 1085.98 281.28 1085.89 280.64H1083.09V275.2H1088.53V280.64C1088.53 282.56 1088.08 284.013 1087.19 285C1086.3 285.987 1084.93 286.333 1083.09 286.04Z" fill="#191A1B"/>
<path d="M671.556 515.2L671.236 517.48C670.596 517.427 670.076 517.533 669.676 517.8C669.276 518.053 668.996 518.427 668.836 518.92C668.689 519.4 668.662 519.96 668.756 520.6H671.556V526.04H666.116V520.6C666.116 518.68 666.562 517.227 667.456 516.24C668.349 515.24 669.716 514.893 671.556 515.2ZM664.316 515.2L663.996 517.48C663.356 517.427 662.836 517.533 662.436 517.8C662.036 518.053 661.756 518.427 661.596 518.92C661.449 519.4 661.422 519.96 661.516 520.6H664.316V526.04H658.876V520.6C658.876 518.68 659.322 517.227 660.216 516.24C661.109 515.24 662.476 514.893 664.316 515.2ZM677.538 544V515.2H682.418L691.938 534.32L701.458 515.2H706.338V544H701.258V526.8L692.898 544H690.978L682.618 526.8V544H677.538ZM721.672 544.6C719.499 544.6 717.592 544.113 715.952 543.14C714.312 542.167 713.032 540.827 712.112 539.12C711.206 537.4 710.752 535.427 710.752 533.2C710.752 530.947 711.219 528.967 712.152 527.26C713.086 525.54 714.372 524.2 716.012 523.24C717.652 522.28 719.539 521.8 721.672 521.8C723.846 521.8 725.752 522.287 727.392 523.26C729.046 524.233 730.332 525.58 731.252 527.3C732.172 529.007 732.632 530.973 732.632 533.2C732.632 535.44 732.166 537.42 731.232 539.14C730.312 540.847 729.026 542.187 727.372 543.16C725.732 544.12 723.832 544.6 721.672 544.6ZM721.672 539.52C723.419 539.52 724.719 538.933 725.572 537.76C726.439 536.573 726.872 535.053 726.872 533.2C726.872 531.28 726.432 529.747 725.552 528.6C724.686 527.453 723.392 526.88 721.672 526.88C720.486 526.88 719.512 527.147 718.752 527.68C717.992 528.213 717.426 528.953 717.052 529.9C716.692 530.847 716.512 531.947 716.512 533.2C716.512 535.133 716.946 536.673 717.812 537.82C718.692 538.953 719.979 539.52 721.672 539.52ZM735.03 544V539.48C735.817 539.627 736.424 539.62 736.85 539.46C737.277 539.287 737.597 538.953 737.81 538.46C738.037 537.953 738.23 537.267 738.39 536.4C738.604 535.253 738.79 533.913 738.95 532.38C739.124 530.847 739.27 529.227 739.39 527.52C739.51 525.8 739.617 524.093 739.71 522.4H756.03V544H750.59V527.48H744.47C744.417 528.173 744.344 529 744.25 529.96C744.17 530.92 744.077 531.92 743.97 532.96C743.877 533.987 743.77 534.973 743.65 535.92C743.53 536.853 743.404 537.653 743.27 538.32C742.95 540.013 742.477 541.347 741.85 542.32C741.224 543.293 740.364 543.913 739.27 544.18C738.177 544.46 736.764 544.4 735.03 544ZM771.36 544.6C769.187 544.6 767.28 544.113 765.64 543.14C764 542.167 762.72 540.827 761.8 539.12C760.893 537.4 760.44 535.427 760.44 533.2C760.44 530.947 760.907 528.967 761.84 527.26C762.773 525.54 764.06 524.2 765.7 523.24C767.34 522.28 769.227 521.8 771.36 521.8C773.533 521.8 775.44 522.287 777.08 523.26C778.733 524.233 780.02 525.58 780.94 527.3C781.86 529.007 782.32 530.973 782.32 533.2C782.32 535.44 781.853 537.42 780.92 539.14C780 540.847 778.713 542.187 777.06 543.16C775.42 544.12 773.52 544.6 771.36 544.6ZM771.36 539.52C773.107 539.52 774.407 538.933 775.26 537.76C776.127 536.573 776.56 535.053 776.56 533.2C776.56 531.28 776.12 529.747 775.24 528.6C774.373 527.453 773.08 526.88 771.36 526.88C770.173 526.88 769.2 527.147 768.44 527.68C767.68 528.213 767.113 528.953 766.74 529.9C766.38 530.847 766.2 531.947 766.2 533.2C766.2 535.133 766.633 536.673 767.5 537.82C768.38 538.953 769.667 539.52 771.36 539.52ZM785.118 548.8V539.8C786.265 539.8 787.078 539.4 787.558 538.6C788.051 537.8 788.438 536.373 788.718 534.32C788.878 533.133 789.011 531.887 789.118 530.58C789.238 529.273 789.338 527.933 789.418 526.56C789.498 525.187 789.571 523.8 789.638 522.4H806.318V539.8H808.518V548.8H803.398V544H790.238V548.8H785.118ZM792.078 539.8H800.878V526.6H794.358C794.318 527.333 794.271 528.067 794.218 528.8C794.178 529.533 794.125 530.26 794.058 530.98C794.005 531.7 793.951 532.4 793.898 533.08C793.845 533.747 793.785 534.387 793.718 535C793.598 536.173 793.431 537.127 793.218 537.86C793.005 538.593 792.625 539.24 792.078 539.8ZM822.539 544.6C820.326 544.6 818.373 544.127 816.679 543.18C814.999 542.22 813.679 540.907 812.719 539.24C811.773 537.56 811.299 535.64 811.299 533.48C811.299 531.12 811.766 529.067 812.699 527.32C813.633 525.573 814.919 524.22 816.559 523.26C818.199 522.287 820.086 521.8 822.219 521.8C824.486 521.8 826.413 522.333 827.999 523.4C829.586 524.467 830.759 525.967 831.519 527.9C832.279 529.833 832.546 532.107 832.319 534.72H826.939V532.72C826.939 530.52 826.586 528.94 825.879 527.98C825.186 527.007 824.046 526.52 822.459 526.52C820.606 526.52 819.239 527.087 818.359 528.22C817.493 529.34 817.059 531 817.059 533.2C817.059 535.213 817.493 536.773 818.359 537.88C819.239 538.973 820.526 539.52 822.219 539.52C823.286 539.52 824.199 539.287 824.959 538.82C825.719 538.353 826.299 537.68 826.699 536.8L832.139 538.36C831.326 540.333 830.039 541.867 828.279 542.96C826.533 544.053 824.619 544.6 822.539 544.6ZM815.379 534.72V530.68H829.699V534.72H815.379ZM833.654 544L841.174 533.2L834.174 522.4H840.094L846.614 532.8V522.4H851.414V532.8L857.934 522.4H863.854L856.854 533.2L864.374 544H858.094L851.414 533.6V544H846.614V533.6L839.934 544H833.654ZM867.537 544V522.4H872.977V529.28H876.457C877.057 529.28 877.757 529.293 878.557 529.32C879.357 529.347 880.017 529.413 880.537 529.52C881.804 529.8 882.871 530.247 883.737 530.86C884.604 531.473 885.257 532.267 885.697 533.24C886.151 534.2 886.377 535.347 886.377 536.68C886.377 538.6 885.877 540.147 884.877 541.32C883.891 542.48 882.457 543.28 880.577 543.72C880.057 543.84 879.391 543.92 878.577 543.96C877.764 543.987 877.057 544 876.457 544H867.537ZM872.977 539.8H877.057C877.297 539.8 877.564 539.787 877.857 539.76C878.151 539.733 878.444 539.68 878.737 539.6C879.297 539.44 879.791 539.087 880.217 538.54C880.644 537.993 880.857 537.373 880.857 536.68C880.857 535.92 880.637 535.273 880.197 534.74C879.757 534.193 879.244 533.84 878.657 533.68C878.377 533.6 878.097 533.547 877.817 533.52C877.537 533.493 877.284 533.48 877.057 533.48H872.977V539.8ZM906.428 544.6C904.415 544.6 902.548 544.187 900.828 543.36C899.122 542.52 897.775 541.373 896.788 539.92L901.068 537.04C901.828 537.813 902.642 538.42 903.508 538.86C904.388 539.3 905.348 539.52 906.388 539.52C907.468 539.52 908.308 539.287 908.908 538.82C909.522 538.353 909.828 537.733 909.828 536.96C909.828 536.213 909.582 535.707 909.088 535.44C908.608 535.173 907.995 535.033 907.248 535.02C906.515 535.007 905.775 535 905.028 535H903.748V530.76H905.028C906.148 530.76 907.102 530.667 907.888 530.48C908.675 530.28 909.068 529.733 909.068 528.84C909.068 528.093 908.795 527.573 908.248 527.28C907.702 526.987 907.068 526.84 906.348 526.84C905.388 526.84 904.422 527.047 903.448 527.46C902.475 527.873 901.588 528.36 900.788 528.92L897.788 525.2C899.015 524.173 900.375 523.353 901.868 522.74C903.375 522.113 904.948 521.8 906.588 521.8C907.975 521.8 909.282 522.04 910.508 522.52C911.748 523 912.748 523.727 913.508 524.7C914.282 525.66 914.668 526.867 914.668 528.32C914.668 529.253 914.482 530.167 914.108 531.06C913.735 531.953 913.095 532.84 912.188 533.72L912.148 532C912.815 532.347 913.388 532.793 913.868 533.34C914.362 533.873 914.735 534.493 914.988 535.2C915.255 535.907 915.388 536.68 915.388 537.52C915.388 539.067 914.975 540.367 914.148 541.42C913.322 542.473 912.228 543.267 910.868 543.8C909.508 544.333 908.028 544.6 906.428 544.6ZM925.804 544.6C924.257 544.6 922.944 544.307 921.864 543.72C920.797 543.12 919.984 542.327 919.424 541.34C918.877 540.34 918.604 539.24 918.604 538.04C918.604 537.04 918.757 536.127 919.064 535.3C919.371 534.473 919.864 533.747 920.544 533.12C921.237 532.48 922.164 531.947 923.324 531.52C924.124 531.227 925.077 530.967 926.184 530.74C927.291 530.513 928.544 530.3 929.944 530.1C931.344 529.887 932.884 529.653 934.564 529.4L932.604 530.48C932.604 529.2 932.297 528.26 931.684 527.66C931.071 527.06 930.044 526.76 928.604 526.76C927.804 526.76 926.971 526.953 926.104 527.34C925.237 527.727 924.631 528.413 924.284 529.4L919.364 527.84C919.911 526.053 920.937 524.6 922.444 523.48C923.951 522.36 926.004 521.8 928.604 521.8C930.511 521.8 932.204 522.093 933.684 522.68C935.164 523.267 936.284 524.28 937.044 525.72C937.471 526.52 937.724 527.32 937.804 528.12C937.884 528.92 937.924 529.813 937.924 530.8V544H933.164V539.56L933.844 540.48C932.791 541.933 931.651 542.987 930.424 543.64C929.211 544.28 927.671 544.6 925.804 544.6ZM926.964 540.32C927.964 540.32 928.804 540.147 929.484 539.8C930.177 539.44 930.724 539.033 931.124 538.58C931.537 538.127 931.817 537.747 931.964 537.44C932.244 536.853 932.404 536.173 932.444 535.4C932.497 534.613 932.524 533.96 932.524 533.44L934.124 533.84C932.511 534.107 931.204 534.333 930.204 534.52C929.204 534.693 928.397 534.853 927.784 535C927.171 535.147 926.631 535.307 926.164 535.48C925.631 535.693 925.197 535.927 924.864 536.18C924.544 536.42 924.304 536.687 924.144 536.98C923.997 537.273 923.924 537.6 923.924 537.96C923.924 538.453 924.044 538.88 924.284 539.24C924.537 539.587 924.891 539.853 925.344 540.04C925.797 540.227 926.337 540.32 926.964 540.32ZM573.573 599V577.4H592.852V599H587.413V582.48H579.013V599H573.573ZM609.056 599.6C606.91 599.6 605.116 599.1 603.676 598.1C602.236 597.1 601.15 595.74 600.416 594.02C599.696 592.3 599.336 590.36 599.336 588.2C599.336 586.04 599.696 584.1 600.416 582.38C601.136 580.66 602.196 579.3 603.596 578.3C604.996 577.3 606.723 576.8 608.776 576.8C610.843 576.8 612.643 577.293 614.176 578.28C615.71 579.267 616.896 580.62 617.736 582.34C618.59 584.047 619.016 586 619.016 588.2C619.016 590.36 618.596 592.3 617.756 594.02C616.93 595.74 615.77 597.1 614.276 598.1C612.783 599.1 611.043 599.6 609.056 599.6ZM598.416 608.6V577.4H603.216V592.2H603.896V608.6H598.416ZM608.176 594.76C609.35 594.76 610.31 594.467 611.056 593.88C611.803 593.293 612.356 592.507 612.716 591.52C613.076 590.52 613.256 589.413 613.256 588.2C613.256 587 613.07 585.907 612.696 584.92C612.323 583.92 611.743 583.127 610.956 582.54C610.183 581.94 609.19 581.64 607.976 581.64C606.843 581.64 605.923 581.913 605.216 582.46C604.523 583.007 604.016 583.773 603.696 584.76C603.376 585.747 603.216 586.893 603.216 588.2C603.216 589.507 603.376 590.653 603.696 591.64C604.016 592.627 604.536 593.393 605.256 593.94C605.99 594.487 606.963 594.76 608.176 594.76ZM642.657 577.4V599H637.457V585.8L627.697 599H623.377V577.4H628.577V590.16L638.377 577.4H642.657ZM658.861 599.6C656.714 599.6 654.921 599.1 653.481 598.1C652.041 597.1 650.954 595.74 650.221 594.02C649.501 592.3 649.141 590.36 649.141 588.2C649.141 586.04 649.501 584.1 650.221 582.38C650.941 580.66 652.001 579.3 653.401 578.3C654.801 577.3 656.528 576.8 658.581 576.8C660.648 576.8 662.448 577.293 663.981 578.28C665.514 579.267 666.701 580.62 667.541 582.34C668.394 584.047 668.821 586 668.821 588.2C668.821 590.36 668.401 592.3 667.561 594.02C666.734 595.74 665.574 597.1 664.081 598.1C662.588 599.1 660.848 599.6 658.861 599.6ZM648.221 608.6V577.4H653.021V592.2H653.701V608.6H648.221ZM657.981 594.76C659.154 594.76 660.114 594.467 660.861 593.88C661.608 593.293 662.161 592.507 662.521 591.52C662.881 590.52 663.061 589.413 663.061 588.2C663.061 587 662.874 585.907 662.501 584.92C662.128 583.92 661.548 583.127 660.761 582.54C659.988 581.94 658.994 581.64 657.781 581.64C656.648 581.64 655.728 581.913 655.021 582.46C654.328 583.007 653.821 583.773 653.501 584.76C653.181 585.747 653.021 586.893 653.021 588.2C653.021 589.507 653.181 590.653 653.501 591.64C653.821 592.627 654.341 593.393 655.061 593.94C655.794 594.487 656.768 594.76 657.981 594.76ZM682.942 599.6C680.769 599.6 678.862 599.113 677.222 598.14C675.582 597.167 674.302 595.827 673.382 594.12C672.475 592.4 672.022 590.427 672.022 588.2C672.022 585.947 672.489 583.967 673.422 582.26C674.355 580.54 675.642 579.2 677.282 578.24C678.922 577.28 680.809 576.8 682.942 576.8C685.115 576.8 687.022 577.287 688.662 578.26C690.315 579.233 691.602 580.58 692.522 582.3C693.442 584.007 693.902 585.973 693.902 588.2C693.902 590.44 693.435 592.42 692.502 594.14C691.582 595.847 690.295 597.187 688.642 598.16C687.002 599.12 685.102 599.6 682.942 599.6ZM682.942 594.52C684.689 594.52 685.989 593.933 686.842 592.76C687.709 591.573 688.142 590.053 688.142 588.2C688.142 586.28 687.702 584.747 686.822 583.6C685.955 582.453 684.662 581.88 682.942 581.88C681.755 581.88 680.782 582.147 680.022 582.68C679.262 583.213 678.695 583.953 678.322 584.9C677.962 585.847 677.782 586.947 677.782 588.2C677.782 590.133 678.215 591.673 679.082 592.82C679.962 593.953 681.249 594.52 682.942 594.52ZM696.7 603.8V594.8C697.847 594.8 698.66 594.4 699.14 593.6C699.633 592.8 700.02 591.373 700.3 589.32C700.46 588.133 700.593 586.887 700.7 585.58C700.82 584.273 700.92 582.933 701 581.56C701.08 580.187 701.153 578.8 701.22 577.4H717.9V594.8H720.1V603.8H714.98V599H701.82V603.8H696.7ZM703.66 594.8H712.46V581.6H705.94C705.9 582.333 705.853 583.067 705.8 583.8C705.76 584.533 705.707 585.26 705.64 585.98C705.587 586.7 705.533 587.4 705.48 588.08C705.427 588.747 705.367 589.387 705.3 590C705.18 591.173 705.013 592.127 704.8 592.86C704.587 593.593 704.207 594.24 703.66 594.8ZM733.801 599.6C731.628 599.6 729.721 599.113 728.081 598.14C726.441 597.167 725.161 595.827 724.241 594.12C723.335 592.4 722.881 590.427 722.881 588.2C722.881 585.947 723.348 583.967 724.281 582.26C725.215 580.54 726.501 579.2 728.141 578.24C729.781 577.28 731.668 576.8 733.801 576.8C735.975 576.8 737.881 577.287 739.521 578.26C741.175 579.233 742.461 580.58 743.381 582.3C744.301 584.007 744.761 585.973 744.761 588.2C744.761 590.44 744.295 592.42 743.361 594.14C742.441 595.847 741.155 597.187 739.501 598.16C737.861 599.12 735.961 599.6 733.801 599.6ZM733.801 594.52C735.548 594.52 736.848 593.933 737.701 592.76C738.568 591.573 739.001 590.053 739.001 588.2C739.001 586.28 738.561 584.747 737.681 583.6C736.815 582.453 735.521 581.88 733.801 581.88C732.615 581.88 731.641 582.147 730.881 582.68C730.121 583.213 729.555 583.953 729.181 584.9C728.821 585.847 728.641 586.947 728.641 588.2C728.641 590.133 729.075 591.673 729.941 592.82C730.821 593.953 732.108 594.52 733.801 594.52ZM758.679 599.6C756.439 599.6 754.519 599.1 752.919 598.1C751.319 597.1 750.093 595.74 749.239 594.02C748.386 592.3 747.959 590.36 747.959 588.2C747.959 586.013 748.399 584.06 749.279 582.34C750.173 580.62 751.426 579.267 753.039 578.28C754.653 577.293 756.559 576.8 758.759 576.8C761.306 576.8 763.439 577.447 765.159 578.74C766.893 580.02 767.999 581.773 768.479 584L763.039 585.44C762.719 584.32 762.159 583.447 761.359 582.82C760.573 582.193 759.679 581.88 758.679 581.88C757.533 581.88 756.593 582.16 755.859 582.72C755.126 583.267 754.586 584.02 754.239 584.98C753.893 585.927 753.719 587 753.719 588.2C753.719 590.08 754.133 591.607 754.959 592.78C755.799 593.94 757.039 594.52 758.679 594.52C759.906 594.52 760.839 594.24 761.479 593.68C762.119 593.12 762.599 592.32 762.919 591.28L768.479 592.44C767.866 594.733 766.706 596.5 764.999 597.74C763.293 598.98 761.186 599.6 758.679 599.6ZM781.58 599.64C779.5 599.613 777.74 599.153 776.3 598.26C774.86 597.353 773.726 596.107 772.9 594.52C772.086 592.92 771.58 591.067 771.38 588.96C771.273 587.827 771.246 586.553 771.3 585.14C771.366 583.713 771.52 582.313 771.76 580.94C772 579.567 772.34 578.387 772.78 577.4C773.206 576.48 773.753 575.64 774.42 574.88C775.1 574.107 775.82 573.453 776.58 572.92C777.473 572.293 778.433 571.813 779.46 571.48C780.486 571.133 781.566 570.867 782.7 570.68C783.833 570.493 785.006 570.327 786.22 570.18C787.446 570.033 788.686 569.84 789.94 569.6L790.42 574.4C789.66 574.6 788.793 574.747 787.82 574.84C786.846 574.933 785.846 575.033 784.82 575.14C783.793 575.233 782.813 575.387 781.88 575.6C780.946 575.813 780.14 576.133 779.46 576.56C778.54 577.133 777.833 577.933 777.34 578.96C776.86 579.973 776.58 581 776.5 582.04C777.326 580.84 778.333 580.013 779.52 579.56C780.72 579.107 781.9 578.88 783.06 578.88C784.966 578.88 786.6 579.34 787.96 580.26C789.333 581.167 790.386 582.393 791.12 583.94C791.853 585.473 792.22 587.173 792.22 589.04C792.22 591.16 791.76 593.02 790.84 594.62C789.933 596.22 788.68 597.467 787.08 598.36C785.48 599.24 783.646 599.667 781.58 599.64ZM781.82 594.56C783.366 594.56 784.533 594.08 785.32 593.12C786.106 592.16 786.5 590.88 786.5 589.28C786.5 587.64 786.093 586.353 785.28 585.42C784.48 584.473 783.326 584 781.82 584C780.286 584 779.12 584.473 778.32 585.42C777.533 586.353 777.14 587.64 777.14 589.28C777.14 590.973 777.546 592.28 778.36 593.2C779.173 594.107 780.326 594.56 781.82 594.56ZM806.66 599.6C804.447 599.6 802.494 599.127 800.8 598.18C799.12 597.22 797.8 595.907 796.84 594.24C795.894 592.56 795.42 590.64 795.42 588.48C795.42 586.12 795.887 584.067 796.82 582.32C797.754 580.573 799.04 579.22 800.68 578.26C802.32 577.287 804.207 576.8 806.34 576.8C808.607 576.8 810.534 577.333 812.12 578.4C813.707 579.467 814.88 580.967 815.64 582.9C816.4 584.833 816.667 587.107 816.44 589.72H811.06V587.72C811.06 585.52 810.707 583.94 810 582.98C809.307 582.007 808.167 581.52 806.58 581.52C804.727 581.52 803.36 582.087 802.48 583.22C801.614 584.34 801.18 586 801.18 588.2C801.18 590.213 801.614 591.773 802.48 592.88C803.36 593.973 804.647 594.52 806.34 594.52C807.407 594.52 808.32 594.287 809.08 593.82C809.84 593.353 810.42 592.68 810.82 591.8L816.26 593.36C815.447 595.333 814.16 596.867 812.4 597.96C810.654 599.053 808.74 599.6 806.66 599.6ZM799.5 589.72V585.68H813.82V589.72H799.5ZM831.556 599.6C829.41 599.6 827.616 599.1 826.176 598.1C824.736 597.1 823.65 595.74 822.916 594.02C822.196 592.3 821.836 590.36 821.836 588.2C821.836 586.04 822.196 584.1 822.916 582.38C823.636 580.66 824.696 579.3 826.096 578.3C827.496 577.3 829.223 576.8 831.276 576.8C833.343 576.8 835.143 577.293 836.676 578.28C838.21 579.267 839.396 580.62 840.236 582.34C841.09 584.047 841.516 586 841.516 588.2C841.516 590.36 841.096 592.3 840.256 594.02C839.43 595.74 838.27 597.1 836.776 598.1C835.283 599.1 833.543 599.6 831.556 599.6ZM820.916 608.6V577.4H825.716V592.2H826.396V608.6H820.916ZM830.676 594.76C831.85 594.76 832.81 594.467 833.556 593.88C834.303 593.293 834.856 592.507 835.216 591.52C835.576 590.52 835.756 589.413 835.756 588.2C835.756 587 835.57 585.907 835.196 584.92C834.823 583.92 834.243 583.127 833.456 582.54C832.683 581.94 831.69 581.64 830.476 581.64C829.343 581.64 828.423 581.913 827.716 582.46C827.023 583.007 826.516 583.773 826.196 584.76C825.876 585.747 825.716 586.893 825.716 588.2C825.716 589.507 825.876 590.653 826.196 591.64C826.516 592.627 827.036 593.393 827.756 593.94C828.49 594.487 829.463 594.76 830.676 594.76ZM855.957 599.6C853.744 599.6 851.791 599.127 850.097 598.18C848.417 597.22 847.097 595.907 846.137 594.24C845.191 592.56 844.717 590.64 844.717 588.48C844.717 586.12 845.184 584.067 846.117 582.32C847.051 580.573 848.337 579.22 849.977 578.26C851.617 577.287 853.504 576.8 855.637 576.8C857.904 576.8 859.831 577.333 861.417 578.4C863.004 579.467 864.177 580.967 864.937 582.9C865.697 584.833 865.964 587.107 865.737 589.72H860.357V587.72C860.357 585.52 860.004 583.94 859.297 582.98C858.604 582.007 857.464 581.52 855.877 581.52C854.024 581.52 852.657 582.087 851.777 583.22C850.911 584.34 850.477 586 850.477 588.2C850.477 590.213 850.911 591.773 851.777 592.88C852.657 593.973 853.944 594.52 855.637 594.52C856.704 594.52 857.617 594.287 858.377 593.82C859.137 593.353 859.717 592.68 860.117 591.8L865.557 593.36C864.744 595.333 863.457 596.867 861.697 597.96C859.951 599.053 858.037 599.6 855.957 599.6ZM848.797 589.72V585.68H863.117V589.72H848.797ZM870.253 599V577.4H885.853V582.48H875.693V599H870.253ZM895.238 599.6C893.691 599.6 892.378 599.307 891.298 598.72C890.231 598.12 889.418 597.327 888.858 596.34C888.311 595.34 888.038 594.24 888.038 593.04C888.038 592.04 888.191 591.127 888.498 590.3C888.804 589.473 889.298 588.747 889.978 588.12C890.671 587.48 891.598 586.947 892.758 586.52C893.558 586.227 894.511 585.967 895.618 585.74C896.724 585.513 897.978 585.3 899.378 585.1C900.778 584.887 902.318 584.653 903.998 584.4L902.038 585.48C902.038 584.2 901.731 583.26 901.118 582.66C900.504 582.06 899.478 581.76 898.038 581.76C897.238 581.76 896.404 581.953 895.538 582.34C894.671 582.727 894.064 583.413 893.718 584.4L888.798 582.84C889.344 581.053 890.371 579.6 891.878 578.48C893.384 577.36 895.438 576.8 898.038 576.8C899.944 576.8 901.638 577.093 903.118 577.68C904.598 578.267 905.718 579.28 906.478 580.72C906.904 581.52 907.158 582.32 907.238 583.12C907.318 583.92 907.358 584.813 907.358 585.8V599H902.598V594.56L903.278 595.48C902.224 596.933 901.084 597.987 899.858 598.64C898.644 599.28 897.104 599.6 895.238 599.6ZM896.398 595.32C897.398 595.32 898.238 595.147 898.918 594.8C899.611 594.44 900.158 594.033 900.558 593.58C900.971 593.127 901.251 592.747 901.398 592.44C901.678 591.853 901.838 591.173 901.878 590.4C901.931 589.613 901.958 588.96 901.958 588.44L903.558 588.84C901.944 589.107 900.638 589.333 899.638 589.52C898.638 589.693 897.831 589.853 897.218 590C896.604 590.147 896.064 590.307 895.598 590.48C895.064 590.693 894.631 590.927 894.298 591.18C893.978 591.42 893.738 591.687 893.578 591.98C893.431 592.273 893.358 592.6 893.358 592.96C893.358 593.453 893.478 593.88 893.718 594.24C893.971 594.587 894.324 594.853 894.778 595.04C895.231 595.227 895.771 595.32 896.398 595.32ZM932.038 599.6C930.384 599.6 928.871 599.267 927.498 598.6C926.124 597.92 924.971 596.933 924.038 595.64C923.104 594.347 922.478 592.773 922.158 590.92H917.958V599H912.518V577.4H917.958V585.48H922.158C922.478 583.6 923.104 582.02 924.038 580.74C924.984 579.447 926.151 578.467 927.538 577.8C928.938 577.133 930.478 576.8 932.158 576.8C934.291 576.8 936.171 577.293 937.798 578.28C939.424 579.253 940.698 580.6 941.618 582.32C942.538 584.027 942.998 585.973 942.998 588.16C942.998 590.413 942.531 592.4 941.598 594.12C940.664 595.84 939.371 597.187 937.718 598.16C936.078 599.12 934.184 599.6 932.038 599.6ZM931.998 594.52C933.758 594.52 935.071 593.933 935.938 592.76C936.804 591.573 937.238 590.053 937.238 588.2C937.238 586.253 936.798 584.713 935.918 583.58C935.051 582.447 933.744 581.88 931.998 581.88C930.238 581.88 928.944 582.46 928.118 583.62C927.291 584.78 926.878 586.293 926.878 588.16C926.878 590.12 927.311 591.673 928.178 592.82C929.044 593.953 930.318 594.52 931.998 594.52ZM970.162 603.8V599H947.362V577.4H952.562V594.2H958.002V577.4H963.202V594.2H968.642V577.4H973.842V594.2H975.602V603.8H970.162ZM998.048 577.4V599H992.848V585.8L983.088 599H978.768V577.4H983.968V590.16L993.768 577.4H998.048ZM1013.69 599.6C1011.48 599.6 1009.52 599.127 1007.83 598.18C1006.15 597.22 1004.83 595.907 1003.87 594.24C1002.92 592.56 1002.45 590.64 1002.45 588.48C1002.45 586.12 1002.92 584.067 1003.85 582.32C1004.78 580.573 1006.07 579.22 1007.71 578.26C1009.35 577.287 1011.24 576.8 1013.37 576.8C1015.64 576.8 1017.56 577.333 1019.15 578.4C1020.74 579.467 1021.91 580.967 1022.67 582.9C1023.43 584.833 1023.7 587.107 1023.47 589.72H1018.09V587.72C1018.09 585.52 1017.74 583.94 1017.03 582.98C1016.34 582.007 1015.2 581.52 1013.61 581.52C1011.76 581.52 1010.39 582.087 1009.51 583.22C1008.64 584.34 1008.21 586 1008.21 588.2C1008.21 590.213 1008.64 591.773 1009.51 592.88C1010.39 593.973 1011.68 594.52 1013.37 594.52C1014.44 594.52 1015.35 594.287 1016.11 593.82C1016.87 593.353 1017.45 592.68 1017.85 591.8L1023.29 593.36C1022.48 595.333 1021.19 596.867 1019.43 597.96C1017.68 599.053 1015.77 599.6 1013.69 599.6ZM1006.53 589.72V585.68H1020.85V589.72H1006.53ZM589.26 654.6C587.247 654.6 585.38 654.187 583.66 653.36C581.954 652.52 580.607 651.373 579.62 649.92L583.9 647.04C584.66 647.813 585.474 648.42 586.34 648.86C587.22 649.3 588.18 649.52 589.22 649.52C590.3 649.52 591.14 649.287 591.74 648.82C592.354 648.353 592.66 647.733 592.66 646.96C592.66 646.213 592.414 645.707 591.92 645.44C591.44 645.173 590.827 645.033 590.08 645.02C589.347 645.007 588.607 645 587.86 645H586.58V640.76H587.86C588.98 640.76 589.934 640.667 590.72 640.48C591.507 640.28 591.9 639.733 591.9 638.84C591.9 638.093 591.627 637.573 591.08 637.28C590.534 636.987 589.9 636.84 589.18 636.84C588.22 636.84 587.254 637.047 586.28 637.46C585.307 637.873 584.42 638.36 583.62 638.92L580.62 635.2C581.847 634.173 583.207 633.353 584.7 632.74C586.207 632.113 587.78 631.8 589.42 631.8C590.807 631.8 592.114 632.04 593.34 632.52C594.58 633 595.58 633.727 596.34 634.7C597.114 635.66 597.5 636.867 597.5 638.32C597.5 639.253 597.314 640.167 596.94 641.06C596.567 641.953 595.927 642.84 595.02 643.72L594.98 642C595.647 642.347 596.22 642.793 596.7 643.34C597.194 643.873 597.567 644.493 597.82 645.2C598.087 645.907 598.22 646.68 598.22 647.52C598.22 649.067 597.807 650.367 596.98 651.42C596.154 652.473 595.06 653.267 593.7 653.8C592.34 654.333 590.86 654.6 589.26 654.6ZM612.676 654.6C610.463 654.6 608.509 654.127 606.816 653.18C605.136 652.22 603.816 650.907 602.856 649.24C601.909 647.56 601.436 645.64 601.436 643.48C601.436 641.12 601.903 639.067 602.836 637.32C603.769 635.573 605.056 634.22 606.696 633.26C608.336 632.287 610.223 631.8 612.356 631.8C614.623 631.8 616.549 632.333 618.136 633.4C619.723 634.467 620.896 635.967 621.656 637.9C622.416 639.833 622.683 642.107 622.456 644.72H617.076V642.72C617.076 640.52 616.723 638.94 616.016 637.98C615.323 637.007 614.183 636.52 612.596 636.52C610.743 636.52 609.376 637.087 608.496 638.22C607.629 639.34 607.196 641 607.196 643.2C607.196 645.213 607.629 646.773 608.496 647.88C609.376 648.973 610.663 649.52 612.356 649.52C613.423 649.52 614.336 649.287 615.096 648.82C615.856 648.353 616.436 647.68 616.836 646.8L622.276 648.36C621.463 650.333 620.176 651.867 618.416 652.96C616.669 654.053 614.756 654.6 612.676 654.6ZM605.516 644.72V640.68H619.836V644.72H605.516ZM624.972 654V649.48C625.759 649.627 626.365 649.62 626.792 649.46C627.219 649.287 627.539 648.953 627.752 648.46C627.979 647.953 628.172 647.267 628.332 646.4C628.545 645.253 628.732 643.913 628.892 642.38C629.065 640.847 629.212 639.227 629.332 637.52C629.452 635.8 629.559 634.093 629.652 632.4H645.972V654H640.532V637.48H634.412C634.359 638.173 634.285 639 634.192 639.96C634.112 640.92 634.019 641.92 633.912 642.96C633.819 643.987 633.712 644.973 633.592 645.92C633.472 646.853 633.345 647.653 633.212 648.32C632.892 650.013 632.419 651.347 631.792 652.32C631.165 653.293 630.305 653.913 629.212 654.18C628.119 654.46 626.705 654.4 624.972 654ZM661.621 654.6C659.408 654.6 657.455 654.127 655.761 653.18C654.081 652.22 652.761 650.907 651.801 649.24C650.855 647.56 650.381 645.64 650.381 643.48C650.381 641.12 650.848 639.067 651.781 637.32C652.715 635.573 654.001 634.22 655.641 633.26C657.281 632.287 659.168 631.8 661.301 631.8C663.568 631.8 665.495 632.333 667.081 633.4C668.668 634.467 669.841 635.967 670.601 637.9C671.361 639.833 671.628 642.107 671.401 644.72H666.021V642.72C666.021 640.52 665.668 638.94 664.961 637.98C664.268 637.007 663.128 636.52 661.541 636.52C659.688 636.52 658.321 637.087 657.441 638.22C656.575 639.34 656.141 641 656.141 643.2C656.141 645.213 656.575 646.773 657.441 647.88C658.321 648.973 659.608 649.52 661.301 649.52C662.368 649.52 663.281 649.287 664.041 648.82C664.801 648.353 665.381 647.68 665.781 646.8L671.221 648.36C670.408 650.333 669.121 651.867 667.361 652.96C665.615 654.053 663.701 654.6 661.621 654.6ZM654.461 644.72V640.68H668.781V644.72H654.461ZM675.877 654V632.4H681.317V640.64H690.197V632.4H695.637V654H690.197V645.72H681.317V654H675.877ZM701.19 654V632.4H706.63V639.28H708.59C709.19 639.28 709.89 639.293 710.69 639.32C711.49 639.347 712.15 639.413 712.67 639.52C713.936 639.8 715.003 640.247 715.87 640.86C716.736 641.473 717.39 642.267 717.83 643.24C718.283 644.2 718.51 645.347 718.51 646.68C718.51 648.6 718.01 650.147 717.01 651.32C716.023 652.48 714.59 653.28 712.71 653.72C712.19 653.84 711.523 653.92 710.71 653.96C709.896 653.987 709.19 654 708.59 654H701.19ZM706.63 649.8H709.19C709.43 649.8 709.696 649.787 709.99 649.76C710.283 649.733 710.576 649.68 710.87 649.6C711.43 649.44 711.923 649.087 712.35 648.54C712.776 647.993 712.99 647.373 712.99 646.68C712.99 645.92 712.77 645.273 712.33 644.74C711.89 644.193 711.376 643.84 710.79 643.68C710.51 643.6 710.23 643.547 709.95 643.52C709.67 643.493 709.416 643.48 709.19 643.48H706.63V649.8ZM720.67 654V632.4H726.11V654H720.67ZM741.738 654.6C739.525 654.6 737.572 654.127 735.878 653.18C734.198 652.22 732.878 650.907 731.918 649.24C730.972 647.56 730.498 645.64 730.498 643.48C730.498 641.12 730.965 639.067 731.898 637.32C732.832 635.573 734.118 634.22 735.758 633.26C737.398 632.287 739.285 631.8 741.418 631.8C743.685 631.8 745.612 632.333 747.198 633.4C748.785 634.467 749.958 635.967 750.718 637.9C751.478 639.833 751.745 642.107 751.518 644.72H746.138V642.72C746.138 640.52 745.785 638.94 745.078 637.98C744.385 637.007 743.245 636.52 741.658 636.52C739.805 636.52 738.438 637.087 737.558 638.22C736.692 639.34 736.258 641 736.258 643.2C736.258 645.213 736.692 646.773 737.558 647.88C738.438 648.973 739.725 649.52 741.418 649.52C742.485 649.52 743.398 649.287 744.158 648.82C744.918 648.353 745.498 647.68 745.898 646.8L751.338 648.36C750.525 650.333 749.238 651.867 747.478 652.96C745.732 654.053 743.818 654.6 741.738 654.6ZM734.578 644.72V640.68H748.898V644.72H734.578ZM769.322 654V637.2H762.242V632.4H781.842V637.2H774.762V654H769.322ZM795.684 654.6C793.47 654.6 791.517 654.127 789.824 653.18C788.144 652.22 786.824 650.907 785.864 649.24C784.917 647.56 784.444 645.64 784.444 643.48C784.444 641.12 784.91 639.067 785.844 637.32C786.777 635.573 788.064 634.22 789.704 633.26C791.344 632.287 793.23 631.8 795.364 631.8C797.63 631.8 799.557 632.333 801.144 633.4C802.73 634.467 803.904 635.967 804.664 637.9C805.424 639.833 805.69 642.107 805.464 644.72H800.084V642.72C800.084 640.52 799.73 638.94 799.024 637.98C798.33 637.007 797.19 636.52 795.604 636.52C793.75 636.52 792.384 637.087 791.504 638.22C790.637 639.34 790.204 641 790.204 643.2C790.204 645.213 790.637 646.773 791.504 647.88C792.384 648.973 793.67 649.52 795.364 649.52C796.43 649.52 797.344 649.287 798.104 648.82C798.864 648.353 799.444 647.68 799.844 646.8L805.284 648.36C804.47 650.333 803.184 651.867 801.424 652.96C799.677 654.053 797.764 654.6 795.684 654.6ZM788.524 644.72V640.68H802.844V644.72H788.524ZM806.798 654L814.518 643.08L806.958 632.4H813.358L817.678 638.8L821.918 632.4H828.318L820.758 643.08L828.518 654H822.118L817.678 647.36L813.198 654H806.798ZM831.698 654V632.4H837.138V640.64H846.018V632.4H851.458V654H846.018V645.72H837.138V654H831.698ZM866.77 654.6C864.597 654.6 862.69 654.113 861.05 653.14C859.41 652.167 858.13 650.827 857.21 649.12C856.303 647.4 855.85 645.427 855.85 643.2C855.85 640.947 856.317 638.967 857.25 637.26C858.183 635.54 859.47 634.2 861.11 633.24C862.75 632.28 864.637 631.8 866.77 631.8C868.943 631.8 870.85 632.287 872.49 633.26C874.143 634.233 875.43 635.58 876.35 637.3C877.27 639.007 877.73 640.973 877.73 643.2C877.73 645.44 877.263 647.42 876.33 649.14C875.41 650.847 874.123 652.187 872.47 653.16C870.83 654.12 868.93 654.6 866.77 654.6ZM866.77 649.52C868.517 649.52 869.817 648.933 870.67 647.76C871.537 646.573 871.97 645.053 871.97 643.2C871.97 641.28 871.53 639.747 870.65 638.6C869.783 637.453 868.49 636.88 866.77 636.88C865.583 636.88 864.61 637.147 863.85 637.68C863.09 638.213 862.523 638.953 862.15 639.9C861.79 640.847 861.61 641.947 861.61 643.2C861.61 645.133 862.043 646.673 862.91 647.82C863.79 648.953 865.077 649.52 866.77 649.52ZM880.128 654V649.48C880.915 649.627 881.521 649.62 881.948 649.46C882.375 649.287 882.695 648.953 882.908 648.46C883.135 647.953 883.328 647.267 883.488 646.4C883.701 645.253 883.888 643.913 884.048 642.38C884.221 640.847 884.368 639.227 884.488 637.52C884.608 635.8 884.715 634.093 884.808 632.4H901.128V654H895.688V637.48H889.568C889.515 638.173 889.441 639 889.348 639.96C889.268 640.92 889.175 641.92 889.068 642.96C888.975 643.987 888.868 644.973 888.748 645.92C888.628 646.853 888.501 647.653 888.368 648.32C888.048 650.013 887.575 651.347 886.948 652.32C886.321 653.293 885.461 653.913 884.368 654.18C883.275 654.46 881.861 654.4 880.128 654ZM916.458 654.6C914.284 654.6 912.378 654.113 910.738 653.14C909.098 652.167 907.818 650.827 906.898 649.12C905.991 647.4 905.538 645.427 905.538 643.2C905.538 640.947 906.004 638.967 906.938 637.26C907.871 635.54 909.158 634.2 910.798 633.24C912.438 632.28 914.324 631.8 916.458 631.8C918.631 631.8 920.538 632.287 922.178 633.26C923.831 634.233 925.118 635.58 926.038 637.3C926.958 639.007 927.418 640.973 927.418 643.2C927.418 645.44 926.951 647.42 926.018 649.14C925.098 650.847 923.811 652.187 922.158 653.16C920.518 654.12 918.618 654.6 916.458 654.6ZM916.458 649.52C918.204 649.52 919.504 648.933 920.358 647.76C921.224 646.573 921.658 645.053 921.658 643.2C921.658 641.28 921.218 639.747 920.338 638.6C919.471 637.453 918.178 636.88 916.458 636.88C915.271 636.88 914.298 637.147 913.538 637.68C912.778 638.213 912.211 638.953 911.838 639.9C911.478 640.847 911.298 641.947 911.298 643.2C911.298 645.133 911.731 646.673 912.598 647.82C913.478 648.953 914.764 649.52 916.458 649.52ZM931.816 654V632.4H947.416V637.48H937.256V654H931.816ZM970.47 632.4V654H965.27V640.8L955.51 654H951.19V632.4H956.39V645.16L966.19 632.4H970.47ZM995.313 632.4V654H990.113V640.8L980.353 654H976.033V632.4H981.233V645.16L991.033 632.4H995.313ZM1001.32 636.04L1001.64 633.76C1002.28 633.813 1002.8 633.713 1003.2 633.46C1003.6 633.193 1003.87 632.82 1004.02 632.34C1004.18 631.847 1004.21 631.28 1004.12 630.64H1001.32V625.2H1006.76V630.64C1006.76 632.56 1006.31 634.013 1005.42 635C1004.52 635.987 1003.16 636.333 1001.32 636.04ZM1008.56 636.04L1008.88 633.76C1009.52 633.813 1010.04 633.713 1010.44 633.46C1010.84 633.193 1011.11 632.82 1011.26 632.34C1011.42 631.847 1011.45 631.28 1011.36 630.64H1008.56V625.2H1014V630.64C1014 632.56 1013.55 634.013 1012.66 635C1011.76 635.987 1010.4 636.333 1008.56 636.04Z" fill="#161616"/>
<rect x="431" y="221" width="56" height="56" rx="28" fill="#161616"/>
<path d="M453.638 259.39C452.425 259.39 451.341 259.117 450.388 258.571C449.443 258.016 448.694 257.267 448.139 256.322C447.593 255.369 447.32 254.285 447.32 253.072V246.208C447.32 244.995 447.593 243.911 448.139 242.958C448.694 242.005 449.443 241.255 450.388 240.709C451.341 240.163 452.425 239.89 453.638 239.89C454.851 239.89 455.935 240.163 456.888 240.709C457.841 241.255 458.591 242.005 459.137 242.958C459.683 243.911 459.956 244.995 459.956 246.208V253.072C459.956 254.285 459.683 255.369 459.137 256.322C458.591 257.267 457.841 258.016 456.888 258.571C455.935 259.117 454.851 259.39 453.638 259.39ZM453.638 257.167C454.375 257.167 455.042 256.989 455.64 256.634C456.238 256.279 456.715 255.802 457.07 255.204C457.425 254.597 457.603 253.93 457.603 253.202V246.065C457.603 245.328 457.425 244.661 457.07 244.063C456.715 243.465 456.238 242.988 455.64 242.633C455.042 242.278 454.375 242.1 453.638 242.1C452.91 242.1 452.243 242.278 451.636 242.633C451.038 242.988 450.561 243.465 450.206 244.063C449.851 244.661 449.673 245.328 449.673 246.065V253.202C449.673 253.93 449.851 254.597 450.206 255.204C450.561 255.802 451.038 256.279 451.636 256.634C452.243 256.989 452.91 257.167 453.638 257.167ZM466.858 259V242.841L463.335 244.973V242.386L466.858 240.28H469.211V259H466.858Z" fill="white"/>
<rect x="968" y="115" width="56" height="56" rx="28" fill="#161616"/>
<path d="M988.138 153.39C986.925 153.39 985.841 153.117 984.888 152.571C983.943 152.016 983.194 151.267 982.639 150.322C982.093 149.369 981.82 148.285 981.82 147.072V140.208C981.82 138.995 982.093 137.911 982.639 136.958C983.194 136.005 983.943 135.255 984.888 134.709C985.841 134.163 986.925 133.89 988.138 133.89C989.351 133.89 990.435 134.163 991.388 134.709C992.341 135.255 993.091 136.005 993.637 136.958C994.183 137.911 994.456 138.995 994.456 140.208V147.072C994.456 148.285 994.183 149.369 993.637 150.322C993.091 151.267 992.341 152.016 991.388 152.571C990.435 153.117 989.351 153.39 988.138 153.39ZM988.138 151.167C988.875 151.167 989.542 150.989 990.14 150.634C990.738 150.279 991.215 149.802 991.57 149.204C991.925 148.597 992.103 147.93 992.103 147.202V140.065C992.103 139.328 991.925 138.661 991.57 138.063C991.215 137.465 990.738 136.988 990.14 136.633C989.542 136.278 988.875 136.1 988.138 136.1C987.41 136.1 986.743 136.278 986.136 136.633C985.538 136.988 985.061 137.465 984.706 138.063C984.351 138.661 984.173 139.328 984.173 140.065V147.202C984.173 147.93 984.351 148.597 984.706 149.204C985.061 149.802 985.538 150.279 986.136 150.634C986.743 150.989 987.41 151.167 988.138 151.167ZM997.575 152.987L997.588 150.907L1005.9 143.432C1006.59 142.808 1007.05 142.219 1007.29 141.664C1007.53 141.101 1007.65 140.524 1007.65 139.935C1007.65 139.216 1007.49 138.566 1007.16 137.985C1006.83 137.404 1006.38 136.945 1005.8 136.607C1005.24 136.269 1004.6 136.1 1003.88 136.1C1003.14 136.1 1002.47 136.278 1001.89 136.633C1001.31 136.98 1000.85 137.443 1000.51 138.024C1000.18 138.605 1000.02 139.237 1000.03 139.922H997.666C997.666 138.743 997.939 137.703 998.485 136.802C999.031 135.892 999.772 135.181 1000.71 134.67C1001.65 134.15 1002.72 133.89 1003.92 133.89C1005.08 133.89 1006.12 134.159 1007.04 134.696C1007.96 135.225 1008.68 135.948 1009.21 136.867C1009.75 137.777 1010.02 138.808 1010.02 139.961C1010.02 140.776 1009.91 141.482 1009.7 142.08C1009.51 142.678 1009.19 143.233 1008.77 143.744C1008.34 144.247 1007.81 144.784 1007.17 145.356L1000.27 151.557L999.967 150.777H1010.02V152.987H997.575Z" fill="white"/>
<rect x="950" y="430" width="56" height="56" rx="28" fill="#161616"/>
<path d="M970.638 468.39C969.425 468.39 968.341 468.117 967.388 467.571C966.443 467.016 965.694 466.267 965.139 465.322C964.593 464.369 964.32 463.285 964.32 462.072V455.208C964.32 453.995 964.593 452.911 965.139 451.958C965.694 451.005 966.443 450.255 967.388 449.709C968.341 449.163 969.425 448.89 970.638 448.89C971.851 448.89 972.935 449.163 973.888 449.709C974.841 450.255 975.591 451.005 976.137 451.958C976.683 452.911 976.956 453.995 976.956 455.208V462.072C976.956 463.285 976.683 464.369 976.137 465.322C975.591 466.267 974.841 467.016 973.888 467.571C972.935 468.117 971.851 468.39 970.638 468.39ZM970.638 466.167C971.375 466.167 972.042 465.989 972.64 465.634C973.238 465.279 973.715 464.802 974.07 464.204C974.425 463.597 974.603 462.93 974.603 462.202V455.065C974.603 454.328 974.425 453.661 974.07 453.063C973.715 452.465 973.238 451.988 972.64 451.633C972.042 451.278 971.375 451.1 970.638 451.1C969.91 451.1 969.243 451.278 968.636 451.633C968.038 451.988 967.561 452.465 967.206 453.063C966.851 453.661 966.673 454.328 966.673 455.065V462.202C966.673 462.93 966.851 463.597 967.206 464.204C967.561 464.802 968.038 465.279 968.636 465.634C969.243 465.989 969.91 466.167 970.638 466.167ZM985.73 468.364C984.803 468.364 983.941 468.195 983.143 467.857C982.346 467.51 981.657 467.025 981.076 466.401C980.504 465.768 980.084 465.019 979.815 464.152L982.038 463.515C982.324 464.382 982.801 465.04 983.468 465.491C984.136 465.942 984.885 466.163 985.717 466.154C986.48 466.137 987.139 465.963 987.693 465.634C988.257 465.296 988.69 464.837 988.993 464.256C989.305 463.675 989.461 463.004 989.461 462.241C989.461 461.08 989.115 460.139 988.421 459.42C987.728 458.692 986.818 458.328 985.691 458.328C985.379 458.328 985.05 458.371 984.703 458.458C984.365 458.545 984.049 458.666 983.754 458.822L982.636 456.989L989.578 450.71L989.877 451.49H980.556V449.28H991.593V451.503L985.678 457.171L985.652 456.352C986.892 456.265 987.975 456.469 988.902 456.963C989.83 457.457 990.549 458.163 991.06 459.082C991.58 460.001 991.84 461.054 991.84 462.241C991.84 463.437 991.572 464.494 991.034 465.413C990.497 466.332 989.769 467.055 988.85 467.584C987.932 468.104 986.892 468.364 985.73 468.364Z" fill="white"/>
</svg>
