<svg width="654" height="655" viewBox="0 0 654 655" fill="none" xmlns="http://www.w3.org/2000/svg">
<path fill-rule="evenodd" clip-rule="evenodd" d="M68.5922 108.492C63.1133 113.971 62.7569 115.804 66.2166 120.743C67.7355 122.911 68.0183 124.457 66.9621 124.81C66.0236 125.122 64.2088 134.196 62.9269 144.974C54.8958 212.531 68.8244 259.148 103.823 281.85L113.633 288.213L113.731 311.411C113.784 324.17 114.42 338.105 115.142 342.376L116.457 350.142H108.097H99.7357V333.992C99.7357 322.148 99.1259 317.336 97.4483 315.944C95.9719 314.718 89.7393 314.213 79.8721 314.517C65.4285 314.963 64.5538 315.192 64.06 318.668C63.7314 320.988 62.407 322.347 60.4744 322.347C56.3493 322.347 52.3207 328.46 52.3207 334.721C52.3207 339.809 55.437 343.816 60.9045 345.755C65.5102 347.389 64.2022 349.894 58.452 350.448C53.1987 350.953 53.1333 351.066 52.6477 360.361L52.1572 369.762H57.9615H63.7657V431.03V492.3L39.6495 492.799L15.5332 493.299L39.4009 493.661L63.2687 494.022L64.3347 511.445C64.9216 521.026 65.4007 533.166 65.4007 538.422V547.977H71.1232C74.2706 547.977 76.9111 547.426 76.9896 546.751C77.0681 546.076 77.9886 534.121 79.0333 520.182L80.9332 494.84L93.2742 494.369L105.614 493.896L112.015 506.007L118.416 518.119L109.484 526.389C100.579 534.637 100.561 534.673 103.117 539.276C105.376 543.342 106.495 543.837 112.544 543.448C121.247 542.889 136.047 537.402 139.68 533.388C142.13 530.679 142.259 528.831 140.746 517.962C139.801 511.168 139.476 503.371 140.024 500.634L141.019 495.657H156.143H171.267L172.289 500.767C174.234 510.493 173.796 511.265 165.075 513.5C149.75 517.427 140.482 531.266 148.084 538.869C151.312 542.094 152.8 542.094 156.027 538.869C159.111 535.783 159.119 535.69 156.624 531.696C155.002 529.098 155.188 527.948 157.687 525.189C160.469 522.113 171.489 517.815 172.92 519.247C173.255 519.582 173.665 524.528 173.829 530.239C174.118 540.268 174.28 540.638 178.634 541.138C184.528 541.816 185.787 538.388 183.57 527.697C182.619 523.114 182.079 519.108 182.37 518.794C183.757 517.298 196.613 520.825 199.875 523.596C203.297 526.5 203.355 526.845 200.697 528.439C196.74 530.811 197.113 536.03 201.405 538.327C204.444 539.954 205.416 539.693 207.945 536.568C216.661 525.805 204.773 512.059 186.71 512.017C183.235 512.007 182.98 511.402 183.44 504.241L183.938 496.475L198.115 496.004C210.556 495.592 212.397 495.891 213.156 498.456C214.913 504.395 214.444 526.116 212.418 532.692C210.585 538.638 210.677 540.011 213.159 543.8C217.024 549.699 223.319 551.924 229.223 549.48C234.702 547.209 236.216 542.497 234.703 532.412C233.497 524.36 236.373 513.642 239.741 513.642C240.844 513.642 242.931 509.579 244.374 504.612L246.999 495.582L275.902 496.028L304.806 496.475L307.314 500.945C309.699 505.197 309.622 505.549 305.739 508.225C297.327 514.02 292.666 520.365 292.666 526.021C292.666 533.35 297.692 536.411 302.248 531.854C304.188 529.915 305.087 527.276 304.627 524.868C304.101 522.113 305.275 519.672 308.702 516.392L313.515 511.783L316.988 517.403C318.898 520.493 320.461 523.534 320.461 524.16C320.461 524.786 318.227 527.178 315.497 529.475C309.884 534.199 305.12 542.372 306.593 544.755C309.526 549.501 330.119 541.172 339.394 531.49C343.835 526.856 343.923 526.42 342.35 516.907C341.129 509.527 341.207 507.102 342.666 507.102C345.17 507.102 346.57 512.488 346.598 522.226C346.614 527.916 347.54 530.911 350.056 533.427C358.893 542.265 380.956 546.937 380.956 539.972C380.956 537.068 373.07 528.875 367.011 525.486C364.589 524.131 364.895 522.569 370.003 510.225L375.691 496.475L412.657 496.035L449.622 495.595L455.705 507.889C459.535 515.629 462.769 520.182 464.437 520.182C465.894 520.182 467.894 521.954 468.879 524.119C470.501 527.679 470.081 528.467 464.488 532.343C456.679 537.754 453.167 543.842 455.644 547.675C458.214 551.656 471.098 550.925 483.143 546.115L492.953 542.196V532.512C492.953 523.457 493.272 522.649 497.858 520.066C500.556 518.546 504.755 516.84 507.188 516.276L511.612 515.251L512.092 527.118C512.555 538.558 512.72 538.985 516.661 538.985C520.681 538.985 520.743 538.788 520.408 526.94L520.066 514.896L525.109 515.903C527.882 516.459 530.803 516.912 531.601 516.912C532.401 516.912 531.941 519.577 530.579 522.834C529.219 526.091 528.106 530.133 528.106 531.817C528.106 538.118 551.789 550.654 561.177 549.323C567.548 548.419 566.831 541.514 559.388 532.098L552.899 523.887L557.323 519.043C559.758 516.378 563.929 510.027 566.59 504.931C573.81 491.117 576.458 492.309 577.769 509.963C578.354 517.833 579.286 529.973 579.84 536.941L580.848 549.612H586.137C591.191 549.612 591.473 549.274 592.466 542.026C593.038 537.855 593.506 525.715 593.506 515.048V495.657H615.578C629.203 495.657 637.651 495.031 637.651 494.022C637.651 493.013 629.203 492.387 615.578 492.387H593.506V469.031C593.506 449.012 594.019 444.284 597.103 435.922C602.387 421.598 602.431 393.38 597.184 382.734C591.905 372.023 592.276 369.762 599.31 369.762H605.114L604.624 360.371C604.156 351.427 603.906 350.94 599.382 350.152L594.631 349.325L599.109 346.933C605.018 343.775 611.072 333.179 613.111 322.421C617.859 297.386 600.994 261.514 578.209 248.187C568.471 242.49 555.211 238.962 543.545 238.962C533.513 238.962 533.41 238.915 532.398 233.853C530.66 225.164 531.261 218.203 533.943 215.977C535.354 214.807 536.158 212.509 535.73 210.874C535.303 209.238 535.62 207.488 536.434 206.985C537.249 206.481 537.916 204.142 537.916 201.785C537.916 199.429 538.807 195.036 539.897 192.025C541.588 187.348 541.441 185.735 538.897 181.011C537.257 177.967 536.41 174.677 537.012 173.701C538.472 171.34 528.969 171.35 524.553 173.714C520.276 176.002 515.995 172.761 519.944 170.223C522.105 168.837 522.104 168.472 519.931 167.047C515.915 164.411 509.506 165.152 501.575 169.166C496.843 171.561 494.412 172.161 494.933 170.801C496.544 166.602 488.817 168.657 483.019 173.973C478.761 177.874 476.981 181.065 476.322 185.972C475.539 191.814 476.083 193.408 480.637 198.594C485.431 204.053 485.656 204.805 483.451 207.954C480.678 211.913 481.534 216.935 485.471 219.802C486.979 220.897 489.709 224.738 491.542 228.335C493.373 231.932 497.109 236.395 499.843 238.256L504.813 241.635L493.429 243.588C469.252 247.734 453.425 259.306 443.128 280.369C429.971 307.279 431.059 335.19 445.713 346.717L450.067 350.142H436.971H423.876L427.231 343.36C430.262 337.234 430.411 335.55 428.766 325.951C426.71 313.942 419.769 298.748 411.241 287.577C406.485 281.348 405.481 278.655 405.481 272.123C405.481 261.989 403.107 258.755 388.379 248.816C372.998 238.437 366.931 230.977 362.757 217.308C356.45 196.665 348.542 189.062 333.461 189.152C320.752 189.225 316.391 192.509 308.494 207.951C302.85 218.984 302.355 219.53 303.346 213.62C306.387 195.505 307.319 186.299 307.348 174.089C307.382 159.861 304.949 138.088 302.49 130.634C301.384 127.277 301.712 124.89 303.784 121.275C306.496 116.537 306.465 116.322 302.428 112.281C300.154 110.005 295.962 107.472 293.114 106.656C288.375 105.296 287.573 105.646 283.658 110.778C278.889 117.032 279.282 121.724 284.823 124.69C286.693 125.691 287.483 126.968 286.59 127.548C285.704 128.127 282.919 134.853 280.405 142.497C261.444 200.111 235.475 232.097 205.113 235.229C200.211 235.736 196.201 235.612 196.201 234.955C196.201 234.297 198.776 230.751 201.923 227.074C205.071 223.397 207.646 219.535 207.646 218.494C207.646 217.45 209.485 215.758 211.733 214.735C214.794 213.34 215.821 211.618 215.821 207.881C215.821 204.952 214.807 202.5 213.368 201.949C211.754 201.329 210.916 198.774 210.916 194.48C210.916 185.864 206.671 177.257 200.967 174.308C194.991 171.218 184.234 171.268 178.15 174.414C173.105 177.022 166.771 187.433 166.771 193.117C166.771 195.352 165.701 196.452 163.532 196.452C161.473 196.452 159.933 197.888 159.305 200.388C158.265 204.534 160.881 211.167 163.558 211.167C164.426 211.167 165.136 212.833 165.136 214.87C165.136 216.906 166.607 221.319 168.406 224.674C173.173 233.57 172.714 235.692 166.015 235.692C153.75 235.692 142.236 229.509 128.248 215.408C116.696 203.764 113.829 199.603 105.038 181.711C99.5215 170.485 92.1607 152.839 88.6798 142.497L82.3524 123.695L86.5004 120.215L90.6484 116.738L86.1194 110.201C80.5195 102.122 75.456 101.629 68.5922 108.492ZM74.3932 108.162C74.9491 109.061 75.7274 109.797 76.1247 109.797C76.522 109.797 76.8457 109.061 76.8457 108.162C76.8457 107.263 76.0658 106.527 75.1142 106.527C74.1627 106.527 73.8373 107.263 74.3932 108.162ZM68.6707 110.07C68.6707 111.118 69.1547 111.493 69.7465 110.901C70.3384 110.309 71.993 110.739 73.4253 111.856C75.729 113.651 75.7699 113.554 73.785 111.023C71.2131 107.745 68.6707 107.271 68.6707 110.07ZM291.848 109.797C291.292 110.696 291.618 111.432 292.569 111.432C293.521 111.432 294.301 110.696 294.301 109.797C294.301 108.898 293.977 108.162 293.58 108.162C293.182 108.162 292.404 108.898 291.848 109.797ZM80.7239 112.219C83.4887 114.313 83.5394 114.782 81.2488 117.071C77.7809 120.541 76.9912 120.258 78.0572 115.928C78.5837 113.795 78.3466 112.822 77.4964 113.612C76.0086 114.992 75.783 115.77 75.4151 120.737C75.2352 123.176 74.9377 123.129 72.8972 120.338C71.4044 118.296 71.1755 116.81 72.2546 116.143C74.6842 114.642 70.7292 112.555 67.675 113.726C65.5135 114.557 65.5691 115.299 68.105 119.594C71.5156 125.367 75.3562 125.796 81.9077 121.131C87.4193 117.205 87.967 113.883 83.4936 111.489C78.9172 109.04 77.1433 109.508 80.7239 112.219ZM296.042 112.12C294.461 114.027 294.716 114.287 297.46 113.571C299.299 113.088 300.401 112.044 299.909 111.246C298.71 109.308 298.3 109.4 296.042 112.12ZM283.946 114.158C281.693 116.409 282.975 121.061 286.126 122.06C287.924 122.63 289.396 124.151 289.396 125.439C289.396 129.075 295.88 128.201 299.297 124.103C302.966 119.707 303.403 114.702 300.12 114.702C297.18 114.702 295.288 117.483 297.685 118.283C298.676 118.613 297.96 120.228 296.062 121.947C292.705 124.983 292.666 124.968 292.666 120.678C292.666 118.291 291.953 116.337 291.081 116.337C290.212 116.337 289.95 117.514 290.501 118.951C291.382 121.245 291.072 121.296 287.97 119.36C284.693 117.316 284.639 117.006 287.228 115.111C289.551 113.41 289.602 113.067 287.529 113.067C286.157 113.067 284.545 113.558 283.946 114.158ZM70.9172 127.429C67.8467 127.895 67.227 129.63 65.6034 142.286C64.593 150.167 63.769 165.395 63.7722 176.126C63.7886 225.54 77.4752 260.894 103.251 278.107C112.745 284.446 116.074 285.188 116.096 280.967C116.113 276.937 119.565 266.757 120.912 266.757C121.684 266.757 121.113 270.987 119.643 276.158C116.704 286.506 115.813 328.222 118.229 342.376L119.557 350.142H184.679H249.803L246.709 344.075C242.684 336.178 242.8 328.169 247.134 314.97C250.329 305.238 250.461 303.394 248.576 294.907C247.435 289.765 244.781 280.803 242.682 274.993C239.129 265.16 238.717 259.843 241.909 265.006C243.081 266.904 251.052 290.566 252.893 297.619C253.254 299.001 255.255 297.426 258.087 293.532L262.693 287.195L259.73 280.655C252.476 264.64 259.403 251.032 279.98 240.88C285.607 238.104 291.488 234.808 293.047 233.558C294.631 232.286 297.499 224.873 299.557 216.731C302.721 204.212 303.225 198.056 303.148 172.745C303.099 156.558 302.347 140.372 301.477 136.775C300.035 130.809 299.382 130.19 294.055 129.741L288.217 129.247L282.208 146.908C278.902 156.622 271.689 173.722 266.175 184.907C257.742 202.019 254.315 207.093 244.571 216.898C232.463 229.079 223.155 234.505 209.246 237.487C202.173 239.005 201.106 239.758 201.106 243.238C201.106 248.455 197.422 257.171 194.028 259.987C191.682 261.932 191.129 261.628 189.572 257.534C186.325 248.994 184.998 256.787 186.466 275.75C187.233 285.641 187.897 300.896 187.942 309.65C188.022 324.991 187.852 325.758 183.242 330.905L178.459 336.245L173.432 331.443C169.485 327.672 168.406 325.259 168.406 320.207C168.406 310.822 172.928 281.894 176.553 268.083C178.281 261.504 179.064 255.507 178.297 254.74C177.531 253.973 176.416 254.892 175.816 256.782C175.215 258.672 174.028 260.217 173.177 260.217C170.083 260.217 164.992 249.635 165.546 244.358C166.077 239.301 165.821 239.062 157.849 237.187C142.571 233.594 130.418 225.49 118.028 210.631C108.55 199.264 93.6306 168.691 86.6377 146.305C80.6814 127.236 79.7298 126.093 70.9172 127.429ZM173.299 187.991C165.309 194.542 165.564 219.771 173.703 227.91C175.963 230.169 176.509 231.629 175.253 232.048C172.631 232.921 172.81 236.595 175.781 242.855C177.691 246.88 179.233 248.018 182.576 247.871C188.376 247.618 193.46 241.205 192.334 235.568C191.644 232.123 192.275 230.866 195.403 229.442C201.642 226.598 206.639 215.237 206.74 203.658C206.853 190.959 204.763 188.277 194.764 188.277C190.596 188.277 184.813 187.597 181.914 186.765C177.784 185.581 175.915 185.846 173.299 187.991ZM175.93 191.276C175.403 192.129 177.554 193.128 180.709 193.498C184.255 193.911 186.232 193.511 185.884 192.448C185.15 190.206 177.173 189.266 175.93 191.276ZM191.704 190.994C187.663 192.626 189.788 194.058 196.515 194.235C202.716 194.397 203.076 194.201 200.29 192.164C197.108 189.837 195.213 189.579 191.704 190.994ZM491.411 193.547C490.012 195.545 488.866 198.759 488.866 200.688C488.866 203.574 490.087 204.361 495.738 205.118C501.331 205.868 503.023 205.451 504.823 202.881C506.303 200.769 508.958 199.722 512.841 199.722C517.462 199.722 518.443 199.196 517.653 197.136C517.107 195.713 516.661 193.506 516.661 192.231C516.661 190.452 514.019 189.912 505.309 189.912C495.43 189.912 493.625 190.385 491.411 193.547ZM177.398 199.722C176.746 200.778 176.947 202.377 177.846 203.277C178.937 204.367 179.877 204.272 180.668 202.992C181.321 201.936 181.119 200.337 180.22 199.438C179.13 198.347 178.19 198.442 177.398 199.722ZM183.06 204.853C181.543 210.485 181.664 212.045 183.775 214.158C185.171 215.554 186.862 216.147 187.53 215.477C188.201 214.807 187.751 213.643 186.531 212.889C184.421 211.584 184.69 207.691 187.377 200.692C187.926 199.259 187.589 198.087 186.629 198.087C185.668 198.087 184.062 201.132 183.06 204.853ZM161.498 200.634C160.183 201.949 161.979 207.897 163.692 207.897C164.485 207.897 165.136 206.058 165.136 203.81C165.136 199.962 163.551 198.581 161.498 200.634ZM192.931 202.175C192.931 203.524 193.666 204.627 194.566 204.627C195.465 204.627 196.201 203.524 196.201 202.175C196.201 200.826 195.465 199.722 194.566 199.722C193.666 199.722 192.931 200.826 192.931 202.175ZM509.851 202.457C502.237 204.473 505.94 213.27 514.069 212.477C517.965 212.097 519.239 211.097 519.664 208.082C520.441 202.598 516.927 200.584 509.851 202.457ZM210.371 205.718C209.771 206.316 209.304 208.34 209.333 210.214C209.384 213.561 209.426 213.564 211.786 210.446C213.105 208.7 214.186 206.677 214.186 205.95C214.186 204.349 211.879 204.209 210.371 205.718ZM510.121 207.801C510.121 209.651 510.856 211.167 511.756 211.167C512.655 211.167 513.391 210.108 513.391 208.811C513.391 207.515 512.655 206.001 511.756 205.445C510.856 204.889 510.121 205.95 510.121 207.801ZM488.889 208.306C488.938 212.905 491.009 217.707 492.943 217.707C496.29 217.707 499.029 213.219 497.883 209.611C496.71 205.917 488.849 204.776 488.889 208.306ZM520.398 212.372C516.19 216.674 509.826 217.179 506.149 213.504C503.815 211.167 503.581 211.306 503.581 215.024C503.581 217.985 504.596 219.293 507.259 219.759C510.685 220.357 510.726 220.496 507.84 221.773C505.636 222.748 504.143 222.323 502.66 220.295C500.908 217.898 499.977 217.763 496.766 219.434C494.668 220.526 492.714 221.62 492.423 221.865C492.132 222.109 493.038 224.519 494.435 227.221C497.515 233.178 504.547 238.962 508.706 238.962C510.384 238.962 511.756 239.698 511.756 240.597C511.756 241.496 511.02 242.232 510.121 242.232C507.403 242.232 508.293 249.254 511.725 254.882C513.884 258.425 514.689 261.94 514.156 265.51C513.36 270.836 513.361 270.838 515.147 266.348C517.37 260.753 519.553 260.598 520.894 265.94C521.458 268.188 522.576 270.027 523.377 270.027C525.586 270.027 525.125 266.263 522.447 262.441C520.276 259.339 520.418 258.695 524.035 255.296C528.752 250.867 532.023 241.943 530.589 237.425C530.027 235.653 528.976 230.462 528.253 225.887C527.11 218.66 527.336 217.359 529.974 215.948C533.549 214.033 534.069 207.897 530.655 207.897C529.358 207.897 527.795 208.711 527.18 209.707C526.566 210.701 525.603 210.876 525.04 210.095C524.478 209.311 522.39 210.337 520.398 212.372ZM333.295 211.947C333.16 213.317 332.977 215.341 332.887 216.445C332.764 217.962 321.855 228.835 319.226 230.063C318.258 230.514 322.838 241.763 325.616 245.754C327.277 248.141 328.636 251.923 328.636 254.158C328.636 260.402 333.797 265.822 338.594 264.619C342.934 263.53 348.256 255.889 348.256 250.751C348.256 248.968 349.354 245.404 350.698 242.827C353.694 237.085 353.975 221.674 351.119 219.908C349.994 219.213 346.948 218.868 344.346 219.141C340.682 219.525 339.832 219.079 340.568 217.161C341.153 215.634 339.989 213.682 337.53 212.07C334.003 209.759 333.513 209.745 333.295 211.947ZM483.985 211.576C484 212.701 484.724 214.723 485.596 216.072C486.83 217.983 487.187 217.532 487.206 214.028C487.219 211.556 486.495 209.532 485.596 209.532C484.696 209.532 483.972 210.453 483.985 211.576ZM493.771 211.985C493.771 213.334 494.506 214.437 495.406 214.437C496.305 214.437 497.041 213.334 497.041 211.985C497.041 210.636 496.305 209.532 495.406 209.532C494.506 209.532 493.771 210.636 493.771 211.985ZM176.581 219.226C176.581 222.779 181.322 228.272 182.907 226.554C183.474 225.938 183.019 225.106 181.894 224.705C177.773 223.232 179.767 219.784 184.347 220.464C188.516 221.083 188.444 220.949 183.341 218.601C176.468 215.441 176.581 215.43 176.581 219.226ZM328.106 224.903C327.576 226.283 327.797 227.816 328.595 228.308C330.732 229.63 332.545 225.867 330.673 223.995C329.627 222.949 328.735 223.263 328.106 224.903ZM334.532 224.561C332.578 228.825 334.048 233.146 337.646 233.717C339.672 234.039 340.184 233.735 339.002 232.914C337.958 232.188 336.812 229.389 336.453 226.695C335.941 222.862 335.522 222.398 334.532 224.561ZM341.716 224.968C341.716 226.265 342.451 227.779 343.351 228.335C344.25 228.891 344.986 227.829 344.986 225.979C344.986 224.128 344.25 222.612 343.351 222.612C342.451 222.612 341.716 223.672 341.716 224.968ZM513.391 225.065C512.271 226.414 509.974 227.517 508.286 227.517C506.597 227.517 505.216 228.253 505.216 229.152C505.216 231.274 509.48 231.245 513.499 229.095C517.161 227.135 518.031 230.398 514.726 233.702C513.662 234.767 513.235 236.081 513.778 236.624C515.634 238.48 519.829 229.932 518.866 226.255C517.753 221.996 516.214 221.662 513.391 225.065ZM195.483 239.78C194.71 241.578 192.77 244.521 191.171 246.32C188.672 249.132 188.562 250.142 190.387 253.532L192.51 257.474L195.279 253.249C197.038 250.564 197.836 246.738 197.468 242.765C196.987 237.597 196.642 237.079 195.483 239.78ZM342.885 239.454C342.298 240.981 340.692 242.232 339.314 242.232C337.937 242.232 336.811 242.968 336.811 243.867C336.811 246.328 341.042 245.831 343.305 243.105C344.399 241.786 344.992 239.799 344.623 238.691C344.183 237.371 343.583 237.635 342.885 239.454ZM168.406 243.761C168.406 246.4 169.169 250.569 170.104 253.026C171.766 257.395 171.852 257.421 174.109 254.202C176.115 251.336 176.054 250.142 173.636 244.989C170.257 237.787 168.406 237.353 168.406 243.761ZM541.186 243.57C541.186 250.903 535.64 264.455 530.563 269.532C518.222 281.873 501.946 270.956 501.946 250.342C501.946 244.029 501.879 243.96 496.632 244.878C471.832 249.209 456.274 260.188 446.405 280.321C430.563 312.635 435.113 342.26 456.843 348.26C468.073 351.36 476.721 348.664 499.902 334.83C515.498 325.524 516.661 324.473 516.661 319.676C516.661 314.646 516.412 314.475 506.442 312.612C490.234 309.583 470.707 308.693 463.615 310.66C460.068 311.644 456.839 312.122 456.44 311.721C455.069 310.35 464.815 307.532 474.388 306.532L483.961 305.531V293.798C483.961 287.345 482.806 278.181 481.397 273.433C478.305 263.023 479.417 260.703 483.308 269.442C485.295 273.9 486.161 280.422 486.266 291.688L486.413 307.624L491.727 307.629C496.432 307.632 497.042 307.117 497.051 303.136C497.067 294.444 500.335 286.287 504.421 284.734C506.573 283.915 519.682 282.739 533.554 282.121L558.772 280.996L559.714 273.049C561.262 259.974 564.259 257.446 563.052 270.233L562.03 281.065L573.062 281.768C581.439 282.301 584.633 283.212 586.346 285.553C589.376 289.698 589.278 312.001 586.138 332.837C584.794 341.755 583.983 349.339 584.335 349.693C585.375 350.732 597.206 345.355 600.569 342.314C610.011 333.776 613.605 315.217 609.189 297.796C601.888 268.991 586.359 251.694 560.601 243.677C547.665 239.65 541.186 239.614 541.186 243.57ZM303.452 260.206C285.437 265.959 268.595 281.137 256.271 302.727C251.431 311.205 246.886 325.679 246.886 332.615C246.886 340.983 251.483 348.066 259.402 351.9C265.641 354.92 268.803 355.337 281.013 354.753C293.277 354.168 297.108 353.219 307.888 348.098C318.319 343.146 320.461 341.472 320.461 338.272C320.461 336.151 319.542 333.277 318.417 331.884C315.492 328.259 296.884 323.591 284.888 323.472C279.128 323.416 275.555 322.802 276.713 322.068C277.843 321.35 282.579 320.751 287.236 320.737L295.704 320.712L298.346 311.626C302.688 296.684 304.407 284.794 303.229 277.823C302.446 273.188 302.654 271.579 303.932 272.368C306.985 274.255 306.089 296.437 302.497 307.895C300.71 313.595 299.238 319.031 299.227 319.975C299.216 320.918 304.385 323.215 310.716 325.079L322.228 328.47L324.614 323.855C327.161 318.932 327.988 282.568 325.941 265.531L324.91 256.947L319.007 257.035C315.76 257.083 308.761 258.51 303.452 260.206ZM348.831 259.442C346.884 264.512 352.816 324.183 355.536 326.902C356.418 327.784 371.211 324.329 374.036 322.581C375.627 321.598 375.328 319.156 372.692 311.613C368.147 298.604 365.969 285.262 367.174 277.793C368.785 267.807 370.314 270.773 370.544 284.338C370.694 293.14 371.984 300.497 374.774 308.45L378.789 319.895L389.273 320.712C400.703 321.603 400.723 323.25 389.309 323.797C382.007 324.147 357.958 329.386 354.861 331.299C353.926 331.878 353.161 334.413 353.161 336.935C353.161 340.939 354.474 342.165 363.548 346.632C392.687 360.977 423.575 355.66 426.234 335.842C429.19 313.798 405.33 276.595 380.3 264.225C365.883 257.099 350.62 254.781 348.831 259.442ZM510.391 286.302C506.493 286.935 502.713 288.408 501.99 289.577C500.357 292.217 498.216 307.717 499.33 308.831C499.779 309.28 500.634 305.979 501.23 301.493C501.825 297.006 502.935 292.329 503.695 291.096C506.169 287.093 568.842 284.541 578.111 288.064L582.55 289.752L581.506 310.546C580.933 321.983 579.991 334.466 579.412 338.288C578.76 342.603 578.992 345.237 580.025 345.237C582.371 345.237 583.419 337.885 584.693 312.482C585.679 292.829 585.489 290.04 582.998 287.548C580.527 285.077 576.453 284.767 548.836 284.947C531.588 285.059 514.288 285.669 510.391 286.302ZM530.637 310.776C530.123 311.607 527.504 312.769 524.818 313.36C521.033 314.19 519.931 315.325 519.931 318.389C519.931 320.567 520.792 322.347 521.845 322.347C522.898 322.347 525.231 323.634 527.028 325.208C530.14 327.934 530.246 327.934 529.252 325.208C528.384 322.829 529.234 322.31 534.288 322.125C537.932 321.991 538.924 321.621 536.766 321.203C532.435 320.364 530.341 314.936 533.076 311.641C534.346 310.109 534.43 309.267 533.307 309.267C532.352 309.267 531.148 309.946 530.637 310.776ZM533.035 313.763C533.101 316.929 535.679 318.546 538.733 317.334C541.712 316.152 541.64 316.016 537.916 315.807C534.149 315.595 534.083 315.467 537.098 314.172C540.218 312.831 540.2 312.761 536.689 312.652C534.665 312.589 533.022 313.09 533.035 313.763ZM524.971 316.27C525.347 316.525 526.958 317.732 528.552 318.953C531.075 320.887 531.317 320.827 530.421 318.49C529.854 317.015 528.243 315.807 526.84 315.807C525.439 315.807 524.597 316.015 524.971 316.27ZM327.01 324.227C322.464 330.506 320.4 338.697 323.366 338.697C325.93 338.697 331.906 333.54 331.906 331.328C331.906 330.076 333.192 328.222 334.767 327.21C337.403 325.516 337.385 325.447 334.536 326.348C331.796 327.216 331.703 327.008 333.719 324.531C335.725 322.066 335.651 321.863 333.094 322.821C330.627 323.747 330.452 323.426 331.925 320.675C334.881 315.152 332.161 317.117 327.01 324.227ZM341.506 319.626C343.205 321.685 343.256 322.347 341.716 322.347C340.092 322.347 340.092 322.843 341.716 324.8C343.254 326.654 343.275 327.252 341.799 327.252C340.386 327.252 340.444 327.88 342.008 329.522C343.195 330.771 345.64 333.531 347.438 335.653L350.708 339.515L351.215 335.126C351.856 329.572 347.692 321.397 342.926 318.858C339.607 317.089 339.474 317.161 341.506 319.626ZM58.586 331.291C57.1783 334.379 57.2339 335.919 58.8198 337.831C62.2402 341.951 63.7657 340.705 63.7657 333.792C63.7657 326.415 61.341 325.244 58.586 331.291ZM497.994 340.113C497.289 341.253 497.155 342.626 497.695 343.166C499.158 344.629 500.754 342.477 499.962 340.106C499.41 338.445 499.024 338.445 497.994 340.113ZM485.596 348.507C485.596 349.524 494.861 350.142 510.121 350.142C525.38 350.142 534.646 349.524 534.646 348.507C534.646 347.49 525.38 346.872 510.121 346.872C494.861 346.872 485.596 347.49 485.596 348.507ZM537.916 348.507C537.916 349.513 546.091 350.142 559.171 350.142C572.251 350.142 580.426 349.513 580.426 348.507C580.426 347.502 572.251 346.872 559.171 346.872C546.091 346.872 537.916 347.502 537.916 348.507ZM299.206 355.114C287.89 358.893 267.071 359.28 258.896 355.865C253.898 353.777 238.359 353.412 154.309 353.412H55.5907V360.77V368.127H328.636H601.681V360.77V353.412H510.013C443.475 353.412 417.372 353.934 414.794 355.314C409.756 358.01 384.96 357.42 375.233 354.374C362.837 350.49 311.56 350.991 299.206 355.114ZM67.0357 458.052V546.342H70.8894C75.4429 546.342 75.0145 550.436 80.0438 458.87C81.8226 426.497 83.7143 393.205 84.2473 384.886L85.2185 369.762H76.1263H67.0357V458.052ZM87.7462 370.853C87.1462 371.451 86.6557 375.058 86.6557 378.866V385.788L91.8468 380.939C94.7032 378.272 99.1177 375.015 101.657 373.701C104.198 372.388 106.276 370.964 106.276 370.537C106.276 369.332 88.9725 369.625 87.7462 370.853ZM136.523 372.182C146.665 376.634 174.715 380.076 192.815 379.088C209.413 378.182 230.135 374.406 235.388 371.328C236.901 370.442 216.847 369.895 184.756 369.945C139.363 370.017 132.333 370.343 136.523 372.182ZM490.806 370.612C493.256 373.062 519.878 376.397 537.159 376.418C560.628 376.449 570.616 375.131 570.616 372.005C570.616 370.164 563.374 369.762 530.285 369.762C508.105 369.762 490.339 370.145 490.806 370.612ZM573.897 375.893C573.902 379.266 575.735 415.869 577.968 457.235C580.202 498.6 582.036 535.572 582.046 539.393C582.059 545.711 582.432 546.342 586.148 546.342H590.236V458.052V369.762H582.061H573.886L573.897 375.893ZM264.509 373.944C268.085 376.448 271.411 375.962 271.411 372.936C271.411 372.089 269.04 371.397 266.141 371.397C260.906 371.397 260.896 371.413 264.509 373.944ZM273.974 375.086C271.51 378.845 271.613 379.521 275.757 386.935C279.52 393.669 280.124 396.576 279.967 407.213C279.865 414.043 278.677 423.225 277.324 427.62C274.865 435.61 274.865 435.612 280.694 447.24C285.287 456.404 315.932 510.341 318.374 513.559C318.945 514.311 333.745 510.714 334.922 509.535C336.225 508.232 331.68 439.649 329.314 424.92C327.88 415.995 324.893 405.541 322.011 399.357C319.329 393.602 317.477 388.552 317.895 388.131C318.929 387.098 328.636 402.555 328.636 405.235C328.636 406.635 330.897 407.367 335.223 407.367C341.711 407.367 341.873 407.22 346.063 397.557C348.403 392.162 351.037 387.747 351.915 387.747C352.817 387.747 352.971 388.988 352.268 390.608C347.858 400.755 344.899 411.87 344.028 421.546C342.886 434.212 347.728 507.174 349.851 509.331C350.617 510.107 354.433 511.098 358.332 511.535L365.423 512.326L378.248 483.964C405.992 422.61 411.354 393.958 398.048 378.146L393.972 373.302L384.811 376.521C379.772 378.294 369.45 380.542 361.872 381.521C348.135 383.293 348.081 383.285 343.589 378.984C337.942 373.573 336.201 373.568 333.745 378.959C331.848 383.123 331.486 383.218 321.628 382.115C316.04 381.49 307.054 379.087 301.658 376.775C296.263 374.463 288.415 372.239 284.218 371.835C277.513 371.19 276.268 371.584 273.974 375.086ZM401.107 376.261C414.427 392.09 410.087 421.498 386.892 472.586L377.903 492.387H412.846H447.79L439.804 475.628C426.528 447.771 421.353 430.308 421.272 413.09C421.211 400.363 421.775 397.269 425.442 390.2C429.675 382.038 434.455 376.722 440.633 373.305C443.148 371.914 438.49 371.485 420.459 371.446L397.015 371.397L401.107 376.261ZM441.91 376.157C422.925 389.91 419.501 412.038 431.013 446.607C436.595 463.371 462.763 516.912 465.376 516.912C468.346 516.912 485.959 510.299 488.622 508.183C490.404 506.767 490.687 498.984 490.09 467.934C489.459 435.211 488.822 427.501 485.838 416.507C481.91 402.042 481.667 400.227 483.835 401.566C484.665 402.08 485.828 404.705 486.42 407.4C487.012 410.094 488.781 412.987 490.35 413.827C494.345 415.964 524.512 417.843 533.416 416.507C540.487 415.446 540.888 415.089 542.852 408.072C543.982 404.04 545.646 400.284 546.552 399.725C548.39 398.589 548.144 399.98 542.96 420.027C537.636 440.612 534.709 464.806 534.675 488.496L534.646 509.947L541.594 511.865C557.413 516.232 557.197 516.353 567.029 497.577L575.867 480.695L574.016 443.622C572.998 423.233 571.755 401.246 571.257 394.763L570.349 382.975L564.35 385.327C555.046 388.978 537.867 392.601 529.741 392.628C523.264 392.649 521.831 391.959 517.772 386.872L513.16 381.093L506.56 385.949C501.216 389.878 499.21 390.518 496.037 389.31C488.96 386.621 481.631 382.509 473.932 376.909C467.522 372.246 464.978 371.397 457.418 371.397C450.144 371.397 447.26 372.282 441.91 376.157ZM593.659 408.185C593.702 428.92 594.094 433.498 595.551 430.257C598.108 424.572 598.146 389.47 595.599 385.295C593.978 382.638 593.615 386.923 593.659 408.185ZM218.401 402.053C217.722 402.727 216.211 405.562 215.042 408.351C213.465 412.123 211.509 413.711 207.422 414.54C196.678 416.718 172.191 417.602 155.028 416.433C137.782 415.258 137.596 415.2 135.645 410.488C134.561 407.872 133.018 405.732 132.215 405.732C131.414 405.732 131.95 408.492 133.41 411.863C139.752 426.518 141.122 435.636 141.276 464.182L141.428 492.385H156.778L172.125 492.387L171.121 478.898C170.569 471.479 169.638 458.324 169.052 449.661L167.986 433.913L155.144 432.793C148.081 432.177 142.018 431.169 141.672 430.556C141.324 429.942 140.567 426.811 139.988 423.599L138.936 417.758L147.54 418.984C160.525 420.833 191.111 420.673 201.783 418.699C206.982 417.738 211.454 417.187 211.72 417.473C211.988 417.761 211.725 420.938 211.135 424.535C210.069 431.053 210.034 431.08 200.643 432.571C193.058 433.776 191.083 434.732 190.508 437.476C189.859 440.569 184.748 488.259 184.752 491.161C184.754 491.836 190.947 492.387 198.516 492.387H212.276L211.364 470.617C210.378 447.091 212.338 428.308 217.518 411.666C220.572 401.854 220.77 399.701 218.401 402.053ZM492.695 437.585C493.287 441.898 493.771 455.994 493.771 468.909V492.387H502.171H510.572L509.382 462.548C508.728 446.136 508.015 432.528 507.801 432.307C507.585 432.087 503.857 431.42 499.514 430.824L491.621 429.742L492.695 437.585ZM532.721 431.521C530.632 431.951 529.711 434.686 528.85 443.025C528.227 449.042 526.492 462.611 524.994 473.176L522.269 492.387H526.574H530.879L531.874 472.358C532.422 461.342 533.683 448.052 534.677 442.825C536.74 431.977 536.526 430.738 532.721 431.521ZM266.475 454.216C262.695 462.171 257.126 474.013 254.101 480.533L248.602 492.387H274.722C289.087 492.387 300.841 491.98 300.841 491.483C300.841 490.986 296.346 482.793 290.853 473.274C285.357 463.757 279.172 452.321 277.107 447.861L273.35 439.753L266.475 454.216ZM82.8102 462.365C82.2281 469.257 81.7507 478.831 81.7507 483.642V492.387H93.2382H104.726L97.862 479.881C94.0868 473.003 89.3927 463.428 87.434 458.605L83.8697 449.835L82.8102 462.365ZM341.961 479.716C341.825 486.684 342.268 492.387 342.942 492.389C343.616 492.389 343.957 488.525 343.701 483.805C342.86 468.346 342.209 466.819 341.961 479.716ZM574.839 488.898C574.134 490.038 574 491.411 574.54 491.951C576.003 493.414 577.599 491.262 576.807 488.892C576.255 487.23 575.869 487.23 574.839 488.898ZM340.081 497.117C340.081 497.92 341.184 499.001 342.533 499.519C344.028 500.091 344.986 499.521 344.986 498.059C344.986 496.738 343.882 495.657 342.533 495.657C341.184 495.657 340.081 496.314 340.081 497.117ZM492.136 504.023C492.136 511.907 492.347 512.331 495.814 511.379C497.839 510.825 502.253 509.909 505.624 509.345C510.626 508.508 511.756 507.629 511.756 504.574C511.756 496.887 510.266 495.657 500.953 495.657H492.136V504.023ZM520.953 500.767C519.386 508.601 519.483 508.737 526.646 508.737C532.097 508.737 533.174 508.25 532.368 506.151C531.822 504.728 531.376 501.785 531.376 499.611C531.376 496.345 530.557 495.657 526.675 495.657C522.718 495.657 521.813 496.466 520.953 500.767ZM126.304 508.474C118.599 511.374 117.757 513.678 122.626 518.547C130.534 526.456 140.49 518.843 136.348 508.054C135.2 505.06 135.403 505.052 126.304 508.474ZM217.771 518.956C218.255 525.658 218.484 525.923 224.215 526.4C229.605 526.851 230.323 526.413 231.981 521.66C235.086 512.753 234.587 512.007 225.537 512.007H217.268L217.771 518.956ZM331.906 513.663C330.557 514.523 327.429 515.238 324.957 515.253C319.725 515.282 319.655 515.516 322.956 521.899C327.3 530.301 335.722 527.561 334.88 518.017C334.456 513.209 333.897 512.393 331.906 513.663ZM348.279 515.104C348.323 520.455 350.272 524.803 352.902 525.429C357.781 526.59 360.631 525.054 362.425 520.303C364.179 515.655 364.143 515.619 356.223 514.053C349.34 512.692 348.259 512.834 348.279 515.104ZM477.908 515.974L469.404 519.577L472.691 524.983C475.679 529.896 476.515 530.301 481.873 529.433C485.113 528.907 488.339 527.898 489.039 527.19C490.476 525.738 488.988 511.907 487.424 512.19C486.868 512.29 482.586 513.994 477.908 515.974ZM535.151 516.317C533.707 520.082 536.557 523.89 541.89 525.316C545.559 526.297 547.256 525.705 550.731 522.231L555.031 517.931L546.882 515.818C536.495 513.125 536.374 513.13 535.151 516.317ZM111.876 527.25C100.421 536.692 106.163 538.995 125.078 532.546C131.373 530.399 136.821 528.938 137.185 529.297C138.757 530.854 121.058 537.167 113.252 537.835C108.148 538.272 105.102 539.223 105.702 540.195C107.232 542.672 120.394 540.316 130.26 535.798C137.771 532.36 138.976 531.174 138.976 527.221C138.976 522.661 138.915 522.635 128.226 522.635C118.842 522.635 116.761 523.222 111.876 527.25ZM216.527 531.974C215.342 535.716 218.469 541.251 222.876 543.208C225.786 544.501 225.389 544.64 220.726 543.962C215.396 543.187 215.221 543.296 218.177 545.554C222.733 549.033 227.921 548.543 231.464 544.298C233.155 542.274 233.489 541.54 232.208 542.663C228.53 545.894 226.458 545.041 229.587 541.581C231.226 539.773 232.192 536.578 231.885 533.993C231.402 529.945 230.702 529.513 224.383 529.351C219.138 529.219 217.194 529.868 216.527 531.974Z" fill="#161616"/>
<path d="M303.452 260.206C285.437 265.959 268.595 281.137 256.271 302.727C251.431 311.205 246.886 325.679 246.886 332.615C246.886 340.983 251.483 348.066 259.402 351.9C265.641 354.92 268.803 355.337 281.013 354.753C293.277 354.168 297.108 353.219 307.888 348.098C318.319 343.146 320.461 341.472 320.461 338.272C320.461 336.151 319.542 333.277 318.417 331.884C315.492 328.259 296.884 323.591 284.888 323.472C279.128 323.416 275.555 322.802 276.713 322.068C277.843 321.35 282.579 320.751 287.236 320.737L295.704 320.712L298.346 311.626C302.688 296.684 304.407 284.794 303.229 277.823C302.446 273.188 302.654 271.579 303.932 272.368C306.985 274.255 306.089 296.437 302.497 307.895C300.71 313.595 299.238 319.031 299.227 319.975C299.216 320.918 304.385 323.215 310.716 325.079L322.228 328.47L324.614 323.855C327.161 318.932 327.988 282.568 325.941 265.531L324.91 256.947L319.007 257.035C315.76 257.083 308.761 258.51 303.452 260.206Z" fill="#B7FF64"/>
<path d="M348.831 259.442C346.884 264.512 352.816 324.183 355.536 326.902C356.418 327.784 371.211 324.329 374.036 322.581C375.627 321.598 375.328 319.156 372.692 311.613C368.147 298.604 365.969 285.262 367.174 277.793C368.785 267.807 370.314 270.773 370.544 284.338C370.694 293.14 371.984 300.497 374.774 308.45L378.789 319.895L389.273 320.712C400.703 321.603 400.723 323.25 389.309 323.797C382.007 324.147 357.958 329.386 354.861 331.299C353.926 331.878 353.161 334.413 353.161 336.935C353.161 340.939 354.474 342.165 363.548 346.632C392.687 360.977 423.575 355.66 426.234 335.842C429.19 313.798 405.33 276.595 380.3 264.225C365.883 257.099 350.62 254.781 348.831 259.442Z" fill="#B7FF64"/>
<path d="M541.186 243.57C541.186 250.903 535.64 264.455 530.563 269.532C518.222 281.873 501.946 270.956 501.946 250.342C501.946 244.029 501.879 243.96 496.632 244.878C471.832 249.209 456.274 260.188 446.405 280.321C430.563 312.635 435.113 342.26 456.843 348.26C468.073 351.36 476.721 348.664 499.902 334.83C515.498 325.524 516.661 324.473 516.661 319.676C516.661 314.646 516.412 314.475 506.442 312.612C490.234 309.583 470.707 308.693 463.615 310.66C460.068 311.644 456.839 312.122 456.44 311.721C455.069 310.35 464.815 307.532 474.388 306.532L483.961 305.531V293.798C483.961 287.345 482.806 278.181 481.397 273.433C478.305 263.023 479.417 260.703 483.308 269.442C485.295 273.9 486.161 280.422 486.266 291.688L486.413 307.624L491.727 307.629C496.432 307.632 497.042 307.117 497.051 303.136C497.067 294.444 500.335 286.287 504.421 284.734C506.573 283.915 519.682 282.739 533.554 282.121L558.772 280.996L559.714 273.049C561.262 259.974 564.259 257.446 563.052 270.233L562.03 281.065L573.062 281.768C581.439 282.301 584.633 283.212 586.346 285.553C589.376 289.698 589.278 312.001 586.138 332.837C584.794 341.755 583.983 349.339 584.335 349.693C585.375 350.732 597.206 345.355 600.569 342.314C610.011 333.776 613.605 315.217 609.189 297.796C601.888 268.991 586.359 251.694 560.601 243.677C547.665 239.65 541.186 239.614 541.186 243.57Z" fill="#B7FF64"/>
<path d="M70.9172 127.429C67.8467 127.895 67.227 129.63 65.6034 142.286C64.593 150.167 63.769 165.395 63.7722 176.126C63.7886 225.54 77.4752 260.894 103.251 278.107C112.745 284.446 116.074 285.188 116.096 280.967C116.113 276.937 119.565 266.757 120.912 266.757C121.684 266.757 121.113 270.987 119.643 276.158C116.704 286.506 115.813 328.222 118.229 342.376L119.557 350.142H184.679H249.803L246.709 344.075C242.684 336.178 242.8 328.169 247.134 314.97C250.329 305.238 250.461 303.394 248.576 294.907C247.435 289.765 244.781 280.803 242.682 274.993C239.129 265.16 238.717 259.843 241.909 265.006C243.081 266.904 251.052 290.566 252.893 297.619C253.254 299.001 255.255 297.426 258.087 293.532L262.693 287.195L259.73 280.655C252.476 264.64 259.403 251.032 279.98 240.88C285.607 238.104 291.488 234.808 293.047 233.558C294.631 232.286 297.499 224.873 299.557 216.731C302.721 204.212 303.225 198.056 303.148 172.745C303.099 156.558 302.347 140.372 301.477 136.775C300.035 130.809 299.382 130.19 294.055 129.741L288.217 129.247L282.208 146.908C278.902 156.622 271.689 173.722 266.175 184.907C257.742 202.019 254.315 207.093 244.571 216.898C232.463 229.079 223.155 234.505 209.246 237.487C202.173 239.005 201.106 239.758 201.106 243.238C201.106 248.455 197.422 257.171 194.028 259.987C191.682 261.932 191.129 261.628 189.572 257.534C186.325 248.994 184.998 256.787 186.466 275.75C187.233 285.641 187.897 300.896 187.942 309.65C188.022 324.991 187.852 325.758 183.242 330.905L178.459 336.245L173.432 331.443C169.485 327.672 168.406 325.259 168.406 320.207C168.406 310.822 172.928 281.894 176.553 268.083C178.281 261.504 179.064 255.507 178.297 254.74C177.531 253.973 176.416 254.892 175.816 256.782C175.215 258.672 174.028 260.217 173.177 260.217C170.083 260.217 164.992 249.635 165.546 244.358C166.077 239.301 165.821 239.062 157.849 237.187C142.571 233.594 130.418 225.49 118.028 210.631C108.55 199.264 93.6306 168.691 86.6377 146.305C80.6814 127.236 79.7298 126.093 70.9172 127.429Z" fill="#B7FF64"/>
<path fill-rule="evenodd" clip-rule="evenodd" d="M173.299 187.991C165.309 194.542 165.564 219.771 173.703 227.91C175.963 230.169 176.509 231.629 175.253 232.048C172.631 232.921 172.81 236.595 175.781 242.855C177.691 246.88 179.233 248.018 182.576 247.871C188.376 247.618 193.46 241.205 192.334 235.568C191.644 232.123 192.275 230.866 195.403 229.442C201.642 226.598 206.639 215.237 206.74 203.658C206.853 190.959 204.763 188.277 194.764 188.277C190.596 188.277 184.813 187.597 181.914 186.765C177.784 185.581 175.915 185.846 173.299 187.991ZM180.709 193.498C177.554 193.128 175.403 192.129 175.93 191.276C177.173 189.266 185.15 190.206 185.884 192.448C186.232 193.511 184.255 193.911 180.709 193.498ZM196.515 194.235C189.788 194.058 187.663 192.626 191.704 190.994C195.213 189.579 197.108 189.837 200.29 192.164C203.076 194.201 202.716 194.397 196.515 194.235ZM177.846 203.277C176.947 202.377 176.746 200.778 177.398 199.722C178.19 198.442 179.13 198.347 180.22 199.438C181.119 200.337 181.321 201.936 180.668 202.992C179.877 204.272 178.937 204.367 177.846 203.277ZM183.775 214.158C181.664 212.045 181.543 210.485 183.06 204.853C184.062 201.132 185.668 198.087 186.629 198.087C187.589 198.087 187.926 199.259 187.377 200.692C184.69 207.691 184.421 211.584 186.531 212.889C187.751 213.643 188.201 214.807 187.53 215.477C186.862 216.147 185.171 215.554 183.775 214.158ZM194.566 204.627C193.666 204.627 192.931 203.524 192.931 202.175C192.931 200.826 193.666 199.722 194.566 199.722C195.465 199.722 196.201 200.826 196.201 202.175C196.201 203.524 195.465 204.627 194.566 204.627ZM182.907 226.554C181.322 228.272 176.581 222.779 176.581 219.226C176.581 215.43 176.468 215.441 183.341 218.601C188.444 220.949 188.516 221.083 184.347 220.464C179.767 219.784 177.773 223.232 181.894 224.705C183.019 225.106 183.474 225.938 182.907 226.554Z" fill="white"/>
<path fill-rule="evenodd" clip-rule="evenodd" d="M333.295 211.947C333.16 213.317 332.977 215.341 332.887 216.445C332.764 217.962 321.855 228.835 319.226 230.063C318.258 230.514 322.838 241.763 325.616 245.754C327.277 248.141 328.636 251.923 328.636 254.158C328.636 260.402 333.797 265.822 338.594 264.619C342.934 263.53 348.256 255.889 348.256 250.751C348.256 248.968 349.354 245.404 350.698 242.827C353.694 237.085 353.975 221.674 351.119 219.908C349.994 219.213 346.948 218.868 344.346 219.141C340.682 219.525 339.832 219.079 340.568 217.161C341.153 215.634 339.989 213.682 337.53 212.07C334.003 209.759 333.513 209.745 333.295 211.947ZM328.595 228.308C327.797 227.816 327.576 226.283 328.106 224.903C328.735 223.263 329.627 222.949 330.673 223.995C332.545 225.867 330.732 229.63 328.595 228.308ZM337.646 233.717C334.048 233.146 332.578 228.825 334.532 224.561C335.522 222.398 335.941 222.862 336.453 226.695C336.812 229.389 337.958 232.188 339.002 232.914C340.184 233.735 339.672 234.039 337.646 233.717ZM343.351 228.335C342.451 227.779 341.716 226.265 341.716 224.968C341.716 223.672 342.451 222.612 343.351 222.612C344.25 222.612 344.986 224.128 344.986 225.979C344.986 227.829 344.25 228.891 343.351 228.335ZM339.314 242.232C340.692 242.232 342.298 240.981 342.885 239.454C343.583 237.635 344.183 237.371 344.623 238.691C344.992 239.799 344.399 241.786 343.305 243.105C341.042 245.831 336.811 246.328 336.811 243.867C336.811 242.968 337.937 242.232 339.314 242.232Z" fill="white"/>
<path fill-rule="evenodd" clip-rule="evenodd" d="M520.398 212.372C516.19 216.674 509.826 217.179 506.149 213.504C503.815 211.167 503.581 211.306 503.581 215.024C503.581 217.985 504.596 219.293 507.259 219.759C510.685 220.357 510.726 220.496 507.84 221.773C505.636 222.748 504.143 222.323 502.66 220.295C500.908 217.898 499.977 217.763 496.766 219.434C494.668 220.526 492.714 221.62 492.423 221.865C492.132 222.109 493.038 224.519 494.435 227.221C497.515 233.178 504.547 238.962 508.706 238.962C510.384 238.962 511.756 239.698 511.756 240.597C511.756 241.496 511.02 242.232 510.121 242.232C507.403 242.232 508.293 249.254 511.725 254.882C513.884 258.425 514.689 261.94 514.156 265.51C513.36 270.836 513.361 270.838 515.147 266.348C517.37 260.753 519.553 260.598 520.894 265.94C521.458 268.188 522.576 270.027 523.377 270.027C525.586 270.027 525.125 266.263 522.447 262.441C520.276 259.339 520.418 258.695 524.035 255.296C528.752 250.867 532.023 241.943 530.589 237.425C530.027 235.653 528.976 230.462 528.253 225.887C527.11 218.66 527.336 217.359 529.974 215.948C533.549 214.033 534.069 207.897 530.655 207.897C529.358 207.897 527.795 208.711 527.18 209.707C526.566 210.701 525.603 210.876 525.04 210.095C524.478 209.311 522.39 210.337 520.398 212.372ZM508.286 227.517C509.974 227.517 512.271 226.414 513.391 225.065C516.214 221.662 517.753 221.996 518.866 226.255C519.829 229.932 515.634 238.48 513.778 236.624C513.235 236.081 513.662 234.767 514.726 233.702C518.031 230.398 517.161 227.135 513.499 229.095C509.48 231.245 505.216 231.274 505.216 229.152C505.216 228.253 506.597 227.517 508.286 227.517Z" fill="white"/>
<path d="M273.974 375.086C271.51 378.845 271.613 379.521 275.757 386.935C279.52 393.669 280.124 396.576 279.967 407.213C279.865 414.043 278.677 423.225 277.324 427.62C274.865 435.61 274.865 435.612 280.694 447.24C285.287 456.404 315.932 510.341 318.374 513.559C318.945 514.311 333.745 510.714 334.922 509.535C336.225 508.232 331.68 439.649 329.314 424.92C327.88 415.995 324.893 405.541 322.011 399.357C319.329 393.602 317.477 388.552 317.895 388.131C318.929 387.098 328.636 402.555 328.636 405.235C328.636 406.635 330.897 407.367 335.223 407.367C341.711 407.367 341.873 407.22 346.063 397.557C348.403 392.162 351.037 387.747 351.915 387.747C352.817 387.747 352.971 388.988 352.268 390.608C347.858 400.755 344.899 411.87 344.028 421.546C342.886 434.212 347.728 507.174 349.851 509.331C350.617 510.107 354.433 511.098 358.332 511.535L365.423 512.326L378.248 483.964C405.992 422.61 411.354 393.958 398.048 378.146L393.972 373.302L384.811 376.521C379.772 378.294 369.45 380.542 361.872 381.521C348.135 383.293 348.081 383.285 343.589 378.984C337.942 373.573 336.201 373.568 333.745 378.959C331.848 383.123 331.486 383.218 321.628 382.115C316.04 381.49 307.054 379.087 301.658 376.775C296.263 374.463 288.415 372.239 284.218 371.835C277.513 371.19 276.268 371.584 273.974 375.086Z" fill="white"/>
<path d="M441.91 376.157C422.925 389.91 419.501 412.038 431.013 446.607C436.595 463.371 462.763 516.912 465.376 516.912C468.346 516.912 485.959 510.299 488.622 508.183C490.404 506.767 490.687 498.984 490.09 467.934C489.459 435.211 488.822 427.501 485.838 416.507C481.91 402.042 481.667 400.227 483.835 401.566C484.665 402.08 485.828 404.705 486.42 407.4C487.012 410.094 488.781 412.987 490.35 413.827C494.345 415.964 524.512 417.843 533.416 416.507C540.487 415.446 540.888 415.089 542.852 408.072C543.982 404.04 545.646 400.284 546.552 399.725C548.39 398.589 548.144 399.98 542.96 420.027C537.636 440.612 534.709 464.806 534.675 488.496L534.646 509.947L541.594 511.865C557.413 516.232 557.197 516.353 567.029 497.577L575.867 480.695L574.016 443.622C572.998 423.233 571.755 401.246 571.257 394.763L570.349 382.975L564.35 385.327C555.046 388.978 537.867 392.601 529.741 392.628C523.264 392.649 521.831 391.959 517.772 386.872L513.16 381.093L506.56 385.949C501.216 389.878 499.21 390.518 496.037 389.31C488.96 386.621 481.631 382.509 473.932 376.909C467.522 372.246 464.978 371.397 457.418 371.397C450.144 371.397 447.26 372.282 441.91 376.157Z" fill="#161616"/>
<path d="M593.659 408.185C593.702 428.92 594.094 433.498 595.551 430.257C598.108 424.572 598.146 389.47 595.599 385.295C593.978 382.638 593.615 386.923 593.659 408.185Z" fill="#161616"/>
<path d="M299.206 355.114C287.89 358.893 267.071 359.28 258.896 355.865C253.898 353.777 238.359 353.412 154.309 353.412H55.5907V360.77V368.127H328.636H601.681V360.77V353.412H510.013C443.475 353.412 417.372 353.934 414.794 355.314C409.756 358.01 384.96 357.42 375.233 354.374C362.837 350.49 311.56 350.991 299.206 355.114Z" fill="white"/>
<path d="M136.523 372.182C146.665 376.634 174.715 380.076 192.815 379.088C209.413 378.182 230.135 374.406 235.388 371.328C236.901 370.442 216.847 369.895 184.756 369.945C139.363 370.017 132.333 370.343 136.523 372.182Z" fill="#AEFB2A"/>
<path d="M490.806 370.612C493.256 373.062 519.878 376.397 537.159 376.418C560.628 376.449 570.616 375.131 570.616 372.005C570.616 370.164 563.374 369.762 530.285 369.762C508.105 369.762 490.339 370.145 490.806 370.612Z" fill="#AEFB2A"/>
<path d="M217.771 518.956C218.255 525.658 218.484 525.923 224.215 526.4C229.605 526.851 230.323 526.413 231.981 521.66C235.086 512.753 234.587 512.007 225.537 512.007H217.268L217.771 518.956Z" fill="white"/>
<path d="M477.908 515.974L469.404 519.577L472.691 524.983C475.679 529.896 476.515 530.301 481.873 529.433C485.113 528.907 488.339 527.898 489.039 527.19C490.476 525.738 488.988 511.907 487.424 512.19C486.868 512.29 482.586 513.994 477.908 515.974Z" fill="white"/>
<path d="M535.151 516.317C533.707 520.082 536.557 523.89 541.89 525.316C545.559 526.297 547.256 525.705 550.731 522.231L555.031 517.931L546.882 515.818C536.495 513.125 536.374 513.13 535.151 516.317Z" fill="white"/>
<path d="M573.897 375.893C573.902 379.266 575.735 415.869 577.968 457.235C580.202 498.6 582.036 535.572 582.046 539.393C582.059 545.711 582.432 546.342 586.148 546.342H590.236V458.052V369.762H582.061H573.886L573.897 375.893Z" fill="white"/>
</svg>
