<svg width="24" height="25" viewBox="0 0 24 25" fill="none" xmlns="http://www.w3.org/2000/svg">
<path d="M22 8.24275V15.7716C22 17.0044 21.3396 18.1492 20.2719 18.7766L13.7336 22.552C12.6659 23.1684 11.3451 23.1684 10.2664 22.552L3.72812 18.7766C2.66043 18.1602 2 17.0154 2 15.7716V8.24275C2 7.00994 2.66043 5.86515 3.72812 5.23775L10.2664 1.4623C11.3341 0.8459 12.6549 0.8459 13.7336 1.4623L20.2719 5.23775C21.3396 5.86515 22 6.99894 22 8.24275Z" stroke="white" stroke-width="2" stroke-linecap="round" stroke-linejoin="round"/>
<path d="M12.0019 11.0001C13.2887 11.0001 14.3319 9.95687 14.3319 8.67004C14.3319 7.38322 13.2887 6.34009 12.0019 6.34009C10.7151 6.34009 9.67188 7.38322 9.67188 8.67004C9.67188 9.95687 10.7151 11.0001 12.0019 11.0001Z" stroke="white" stroke-width="1.5" stroke-linecap="round" stroke-linejoin="round"/>
<path d="M16 16.6601C16 14.8601 14.21 13.4001 12 13.4001C9.79 13.4001 8 14.8601 8 16.6601" stroke="white" stroke-width="1.5" stroke-linecap="round" stroke-linejoin="round"/>
</svg>
