<svg width="623" height="448" viewBox="0 0 623 448" fill="none" xmlns="http://www.w3.org/2000/svg">
<path fill-rule="evenodd" clip-rule="evenodd" d="M53.5922 5.4924C48.1133 10.9713 47.7569 12.8041 51.2166 17.7434C52.7355 19.9115 53.0183 21.4565 51.9621 21.8097C51.0236 22.122 49.2088 31.1962 47.9269 41.9741C39.8958 109.531 53.8244 156.148 88.8232 178.85L98.6332 185.213L98.7313 208.411C98.7836 221.17 99.4196 235.105 100.142 239.376L101.457 247.142H93.0971H84.7357V230.992C84.7357 219.148 84.1259 214.336 82.4483 212.944C80.9719 211.718 74.7393 211.213 64.8721 211.517C50.4285 211.963 49.5538 212.192 49.06 215.668C48.7314 217.988 47.407 219.347 45.4744 219.347C41.3493 219.347 37.3207 225.46 37.3207 231.721C37.3207 236.809 40.437 240.816 45.9045 242.755C50.5102 244.389 49.2022 246.894 43.452 247.448C38.1987 247.953 38.1333 248.066 37.6477 257.361L37.1572 266.762H42.9615H48.7657V328.03V389.3L24.6495 389.799L0.533203 390.299L24.4009 390.661L48.2687 391.022L49.3347 408.445C49.9216 418.026 50.4007 430.166 50.4007 435.422V444.977H56.1232C59.2706 444.977 61.9111 444.426 61.9896 443.751C62.0681 443.076 62.9886 431.121 64.0333 417.182L65.9332 391.84L78.2742 391.369L90.6135 390.896L97.0146 403.007L103.416 415.119L94.4836 423.389C85.5794 431.637 85.5614 431.673 88.1169 436.276C90.3764 440.342 91.4948 440.837 97.5443 440.448C106.247 439.889 121.047 434.402 124.68 430.388C127.13 427.679 127.259 425.831 125.746 414.962C124.801 408.168 124.476 400.371 125.024 397.634L126.019 392.657H141.143H156.267L157.289 397.767C159.234 407.493 158.796 408.265 150.075 410.5C134.75 414.427 125.482 428.266 133.084 435.869C136.312 439.094 137.8 439.094 141.027 435.869C144.111 432.783 144.119 432.69 141.624 428.696C140.002 426.098 140.188 424.948 142.687 422.189C145.469 419.113 156.489 414.815 157.92 416.247C158.255 416.582 158.665 421.528 158.829 427.239C159.118 437.268 159.28 437.638 163.634 438.138C169.528 438.816 170.787 435.388 168.57 424.697C167.619 420.114 167.079 416.108 167.37 415.794C168.757 414.298 181.613 417.825 184.875 420.596C188.297 423.5 188.355 423.845 185.697 425.439C181.74 427.811 182.113 433.03 186.405 435.327C189.444 436.954 190.416 436.693 192.945 433.568C201.661 422.805 189.773 409.059 171.71 409.017C168.235 409.007 167.98 408.402 168.44 401.241L168.938 393.475L183.115 393.004C195.556 392.592 197.397 392.891 198.156 395.456C199.913 401.395 199.444 423.116 197.418 429.692C195.585 435.638 195.677 437.011 198.159 440.8C202.024 446.699 208.319 448.924 214.223 446.48C219.702 444.209 221.216 439.497 219.703 429.412C218.497 421.36 221.373 410.642 224.741 410.642C225.844 410.642 227.931 406.579 229.374 401.612L231.999 392.582L260.902 393.028L289.806 393.475L292.314 397.945C294.699 402.197 294.622 402.549 290.739 405.225C282.327 411.02 277.666 417.365 277.666 423.021C277.666 430.35 282.692 433.411 287.248 428.854C289.188 426.915 290.087 424.276 289.627 421.868C289.101 419.113 290.275 416.672 293.702 413.392L298.515 408.783L301.988 414.403C303.898 417.493 305.461 420.534 305.461 421.16C305.461 421.786 303.227 424.178 300.497 426.475C294.884 431.199 290.12 439.372 291.593 441.755C294.526 446.501 315.119 438.172 324.394 428.49C328.835 423.856 328.923 423.42 327.35 413.907C326.129 406.527 326.207 404.102 327.666 404.102C330.17 404.102 331.57 409.488 331.598 419.226C331.614 424.916 332.54 427.911 335.056 430.427C343.893 439.265 365.956 443.937 365.956 436.972C365.956 434.068 358.07 425.875 352.011 422.486C349.589 421.131 349.895 419.569 355.003 407.225L360.691 393.475L397.657 393.035L434.622 392.595L440.705 404.889C444.535 412.629 447.769 417.182 449.437 417.182C450.894 417.182 452.894 418.954 453.879 421.119C455.501 424.679 455.081 425.467 449.488 429.343C441.679 434.754 438.167 440.842 440.644 444.675C443.214 448.656 456.098 447.925 468.143 443.115L477.953 439.196V429.512C477.953 420.457 478.272 419.649 482.858 417.066C485.556 415.546 489.755 413.84 492.188 413.276L496.612 412.251L497.092 424.118C497.555 435.558 497.72 435.985 501.661 435.985C505.681 435.985 505.743 435.788 505.408 423.94L505.066 411.896L510.109 412.903C512.882 413.459 515.803 413.912 516.601 413.912C517.401 413.912 516.941 416.577 515.579 419.834C514.219 423.091 513.106 427.133 513.106 428.817C513.106 435.118 536.789 447.654 546.177 446.323C552.548 445.419 551.831 438.514 544.388 429.098L537.899 420.887L542.323 416.043C544.758 413.378 548.929 407.027 551.59 401.931C558.81 388.117 561.458 389.309 562.769 406.963C563.354 414.833 564.286 426.973 564.84 433.941L565.848 446.612H571.137C576.191 446.612 576.473 446.274 577.466 439.026C578.038 434.855 578.506 422.715 578.506 412.048V392.657H600.578C614.203 392.657 622.651 392.031 622.651 391.022C622.651 390.013 614.203 389.387 600.578 389.387H578.506V366.031C578.506 346.012 579.019 341.284 582.103 332.922C587.387 318.598 587.431 290.38 582.184 279.734C576.905 269.023 577.276 266.762 584.31 266.762H590.114L589.624 257.371C589.156 248.427 588.906 247.94 584.382 247.152L579.631 246.325L584.109 243.933C590.018 240.775 596.072 230.179 598.111 219.421C602.859 194.386 585.994 158.514 563.209 145.187C553.471 139.49 540.211 135.962 528.545 135.962C518.513 135.962 518.41 135.915 517.398 130.853C515.66 122.164 516.261 115.203 518.943 112.977C520.354 111.807 521.158 109.509 520.73 107.874C520.303 106.238 520.62 104.488 521.434 103.985C522.249 103.481 522.916 101.142 522.916 98.7855C522.916 96.4295 523.807 92.0362 524.897 89.0245C526.588 84.3484 526.441 82.7347 523.897 78.0112C522.257 74.9668 521.41 71.6772 522.012 70.7011C523.472 68.3402 513.969 68.35 509.553 70.7142C505.276 73.0015 500.995 69.761 504.944 67.2235C507.105 65.837 507.104 65.4724 504.931 64.0466C500.915 61.411 494.506 62.1517 486.575 66.1656C481.843 68.5609 479.412 69.1609 479.933 67.8006C481.544 63.6019 473.817 65.6571 468.019 70.9725C463.761 74.8736 461.981 78.0651 461.322 82.9718C460.539 88.8136 461.083 90.4078 465.637 95.594C470.431 101.053 470.656 101.805 468.451 104.954C465.678 108.913 466.534 113.935 470.471 116.802C471.979 117.897 474.709 121.738 476.542 125.335C478.373 128.932 482.109 133.395 484.843 135.256L489.813 138.635L478.429 140.588C454.252 144.734 438.425 156.306 428.128 177.369C414.971 204.279 416.059 232.19 430.713 243.717L435.067 247.142H421.971H408.876L412.231 240.36C415.262 234.234 415.411 232.55 413.766 222.951C411.71 210.942 404.769 195.748 396.241 184.577C391.485 178.348 390.481 175.655 390.481 169.123C390.481 158.989 388.107 155.755 373.379 145.816C357.998 135.437 351.931 127.977 347.757 114.308C341.45 93.6647 333.542 86.0619 318.461 86.1519C305.752 86.2254 301.391 89.5085 293.494 104.951C287.85 115.984 287.355 116.53 288.346 110.62C291.387 92.5055 292.319 83.2988 292.348 71.0886C292.382 56.8608 289.949 35.0875 287.49 27.6336C286.384 24.2769 286.712 21.8898 288.784 18.2748C291.496 13.5366 291.465 13.3224 287.428 9.28068C285.154 7.00476 280.962 4.47216 278.114 3.65629C273.375 2.29597 272.573 2.64585 268.658 7.77812C263.889 14.032 264.282 18.7244 269.823 21.6903C271.693 22.691 272.483 23.9679 271.59 24.5483C270.704 25.1271 267.919 31.8535 265.405 39.4971C246.444 97.1113 220.475 129.097 190.113 132.229C185.211 132.736 181.201 132.612 181.201 131.955C181.201 131.297 183.776 127.751 186.923 124.074C190.071 120.397 192.646 116.535 192.646 115.494C192.646 114.45 194.485 112.758 196.733 111.735C199.794 110.34 200.821 108.618 200.821 104.881C200.821 101.952 199.807 99.5 198.368 98.949C196.754 98.3293 195.916 95.7738 195.916 91.4803C195.916 82.8639 191.671 74.2572 185.967 71.3077C179.991 68.2175 169.234 68.2682 163.15 71.414C158.105 74.0218 151.771 84.4335 151.771 90.1167C151.771 92.3518 150.701 93.4521 148.532 93.4521C146.473 93.4521 144.933 94.8876 144.305 97.3876C143.265 101.534 145.881 108.167 148.558 108.167C149.426 108.167 150.136 109.833 150.136 111.87C150.136 113.906 151.607 118.319 153.406 121.674C158.173 130.57 157.714 132.692 151.015 132.692C138.75 132.692 127.236 126.509 113.248 112.408C101.696 100.764 98.8294 96.6028 90.038 78.711C84.5215 67.4851 77.1607 49.8385 73.6798 39.4971L67.3524 20.6946L71.5004 17.2153L75.6484 13.7377L71.1194 7.20097C65.5195 -0.877566 60.456 -1.37133 53.5922 5.4924ZM59.3932 5.16212C59.9491 6.06137 60.7274 6.79712 61.1247 6.79712C61.522 6.79712 61.8457 6.06137 61.8457 5.16212C61.8457 4.26287 61.0658 3.52712 60.1142 3.52712C59.1627 3.52712 58.8373 4.26287 59.3932 5.16212ZM53.6707 7.07017C53.6707 8.1182 54.1547 8.49262 54.7465 7.90075C55.3384 7.30888 56.993 7.73889 58.4253 8.85559C60.729 10.6508 60.7699 10.5544 58.785 8.02337C56.2131 4.7452 53.6707 4.27105 53.6707 7.07017ZM276.848 6.79712C276.292 7.69637 276.618 8.43212 277.569 8.43212C278.521 8.43212 279.301 7.69637 279.301 6.79712C279.301 5.89787 278.977 5.16212 278.58 5.16212C278.182 5.16212 277.404 5.89787 276.848 6.79712ZM65.7239 9.21856C68.4887 11.313 68.5394 11.7822 66.2488 14.0712C62.7809 17.5407 61.9912 17.2579 63.0572 12.9284C63.5837 10.7947 63.3466 9.82187 62.4964 10.6116C61.0086 11.9915 60.783 12.7698 60.4151 17.7369C60.2352 20.1763 59.9377 20.1289 57.8972 17.338C56.4044 15.2958 56.1755 13.8096 57.2546 13.1426C59.6842 11.6416 55.7292 9.55537 52.675 10.726C50.5135 11.5566 50.5691 12.2989 53.105 16.594C56.5156 22.3672 60.3562 22.7956 66.9077 18.1309C72.4193 14.2053 72.967 10.883 68.4936 8.48935C63.9172 6.04012 62.1433 6.50773 65.7239 9.21856ZM281.042 9.12045C279.461 11.0269 279.716 11.2868 282.46 10.5707C284.299 10.0884 285.401 9.04361 284.909 8.24573C283.71 6.30826 283.3 6.39981 281.042 9.12045ZM268.946 11.1577C266.693 13.4091 267.975 18.0606 271.126 19.0596C272.924 19.6302 274.396 21.1508 274.396 22.4392C274.396 26.0754 280.88 25.2007 284.297 21.1034C287.966 16.7069 288.403 11.7021 285.12 11.7021C282.18 11.7021 280.288 14.4833 282.685 15.2828C283.676 15.613 282.96 17.2284 281.062 18.9468C277.705 21.983 277.666 21.9683 277.666 17.678C277.666 15.2909 276.953 13.3371 276.081 13.3371C275.212 13.3371 274.95 14.5143 275.501 15.9515C276.382 18.2454 276.072 18.2961 272.97 16.3602C269.693 14.3165 269.639 14.0058 272.228 12.1109C274.551 10.4105 274.602 10.0671 272.529 10.0671C271.157 10.0671 269.545 10.5576 268.946 11.1577ZM55.9172 24.429C52.8467 24.8949 52.227 26.6297 50.6034 39.2862C49.593 47.1669 48.769 62.3953 48.7722 73.1258C48.7886 122.54 62.4752 157.894 88.251 175.107C97.7454 181.446 101.074 182.188 101.096 177.967C101.113 173.937 104.565 163.757 105.912 163.757C106.684 163.757 106.113 167.987 104.643 173.158C101.704 183.506 100.813 225.222 103.229 239.376L104.557 247.142H169.679H234.803L231.709 241.075C227.684 233.178 227.8 225.169 232.134 211.97C235.329 202.238 235.461 200.394 233.576 191.907C232.435 186.765 229.781 177.803 227.682 171.993C224.129 162.16 223.717 156.843 226.909 162.006C228.081 163.904 236.052 187.566 237.893 194.619C238.254 196.001 240.255 194.426 243.087 190.532L247.693 184.195L244.73 177.655C237.476 161.64 244.403 148.032 264.98 137.88C270.607 135.104 276.488 131.808 278.047 130.558C279.631 129.286 282.499 121.873 284.557 113.731C287.721 101.212 288.225 95.0561 288.148 69.7446C288.099 53.5581 287.347 37.3716 286.477 33.7746C285.035 27.8085 284.382 27.1905 279.055 26.7409L273.217 26.2471L267.208 43.9083C263.902 53.6219 256.689 70.7224 251.175 81.9074C242.742 99.0193 239.315 104.093 229.571 113.898C217.463 126.079 208.155 131.505 194.246 134.487C187.173 136.005 186.106 136.758 186.106 140.238C186.106 145.455 182.422 154.171 179.028 156.987C176.682 158.932 176.129 158.628 174.572 154.534C171.325 145.994 169.998 153.787 171.466 172.75C172.233 182.641 172.897 197.896 172.942 206.65C173.022 221.991 172.852 222.758 168.242 227.905L163.459 233.245L158.432 228.443C154.485 224.672 153.406 222.259 153.406 217.207C153.406 207.822 157.928 178.894 161.553 165.083C163.281 158.504 164.064 152.507 163.297 151.74C162.531 150.973 161.416 151.892 160.816 153.782C160.215 155.672 159.028 157.217 158.177 157.217C155.083 157.217 149.992 146.635 150.546 141.358C151.077 136.301 150.821 136.062 142.849 134.187C127.571 130.594 115.418 122.49 103.028 107.631C93.55 96.2643 78.6306 65.6915 71.6377 43.305C65.6814 24.236 64.7298 23.0932 55.9172 24.429ZM158.299 84.991C150.309 91.5424 150.564 116.771 158.703 124.91C160.963 127.169 161.509 128.629 160.253 129.048C157.631 129.921 157.81 133.595 160.781 139.855C162.691 143.88 164.233 145.018 167.576 144.871C173.376 144.618 178.46 138.205 177.334 132.568C176.644 129.123 177.275 127.866 180.403 126.442C186.642 123.598 191.639 112.237 191.74 100.658C191.853 87.9585 189.763 85.2771 179.764 85.2771C175.596 85.2771 169.813 84.597 166.914 83.7647C162.784 82.581 160.915 82.8459 158.299 84.991ZM160.93 88.2757C160.403 89.1292 162.554 90.1282 165.709 90.4977C169.255 90.9113 171.232 90.5108 170.884 89.448C170.15 87.2064 162.173 86.2663 160.93 88.2757ZM176.704 87.9945C172.663 89.6262 174.788 91.0585 181.515 91.2351C187.716 91.3969 188.076 91.2007 185.29 89.1635C182.108 86.8369 180.213 86.5786 176.704 87.9945ZM476.411 90.5467C475.012 92.5447 473.866 95.7591 473.866 97.6884C473.866 100.574 475.087 101.361 480.738 102.118C486.331 102.868 488.023 102.451 489.823 99.8809C491.303 97.7685 493.958 96.7221 497.841 96.7221C502.462 96.7221 503.443 96.1956 502.653 94.1356C502.107 92.7131 501.661 90.5059 501.661 89.2306C501.661 87.4517 499.019 86.9121 490.309 86.9121C480.43 86.9121 478.625 87.3846 476.411 90.5467ZM162.398 96.7221C161.746 97.7783 161.947 99.3774 162.846 100.277C163.937 101.367 164.877 101.272 165.668 99.9921C166.321 98.9359 166.119 97.3369 165.22 96.4376C164.13 95.3471 163.19 95.4419 162.398 96.7221ZM168.06 101.853C166.543 107.485 166.664 109.045 168.775 111.158C170.171 112.554 171.862 113.147 172.53 112.477C173.201 111.807 172.751 110.643 171.531 109.889C169.421 108.584 169.69 104.691 172.377 97.6917C172.926 96.2594 172.589 95.0871 171.629 95.0871C170.668 95.0871 169.062 98.1315 168.06 101.853ZM146.498 97.6345C145.183 98.949 146.979 104.897 148.692 104.897C149.485 104.897 150.136 103.058 150.136 100.81C150.136 96.9625 148.551 95.5809 146.498 97.6345ZM177.931 99.1746C177.931 100.524 178.666 101.627 179.566 101.627C180.465 101.627 181.201 100.524 181.201 99.1746C181.201 97.8258 180.465 96.7221 179.566 96.7221C178.666 96.7221 177.931 97.8258 177.931 99.1746ZM494.851 99.4575C487.237 101.473 490.94 110.27 499.069 109.477C502.965 109.097 504.239 108.097 504.664 105.082C505.441 99.5981 501.927 97.5838 494.851 99.4575ZM195.371 102.718C194.771 103.316 194.304 105.34 194.333 107.214C194.384 110.561 194.426 110.564 196.786 107.446C198.105 105.7 199.186 103.677 199.186 102.95C199.186 101.349 196.879 101.209 195.371 102.718ZM495.121 104.801C495.121 106.651 495.856 108.167 496.756 108.167C497.655 108.167 498.391 107.108 498.391 105.811C498.391 104.515 497.655 103.001 496.756 102.445C495.856 101.889 495.121 102.95 495.121 104.801ZM473.889 105.306C473.938 109.905 476.009 114.707 477.943 114.707C481.29 114.707 484.029 110.219 482.883 106.611C481.71 102.917 473.849 101.776 473.889 105.306ZM505.398 109.372C501.19 113.674 494.826 114.179 491.149 110.504C488.815 108.167 488.581 108.306 488.581 112.024C488.581 114.985 489.596 116.293 492.259 116.759C495.685 117.357 495.726 117.496 492.84 118.773C490.636 119.748 489.143 119.323 487.66 117.295C485.908 114.898 484.977 114.763 481.766 116.434C479.668 117.526 477.714 118.62 477.423 118.865C477.132 119.109 478.038 121.519 479.435 124.221C482.515 130.178 489.547 135.962 493.706 135.962C495.384 135.962 496.756 136.698 496.756 137.597C496.756 138.496 496.02 139.232 495.121 139.232C492.403 139.232 493.293 146.254 496.725 151.882C498.884 155.425 499.689 158.94 499.156 162.51C498.36 167.836 498.361 167.838 500.147 163.348C502.37 157.753 504.553 157.598 505.894 162.94C506.458 165.188 507.576 167.027 508.377 167.027C510.586 167.027 510.125 163.263 507.447 159.441C505.276 156.339 505.418 155.695 509.035 152.296C513.752 147.867 517.023 138.943 515.589 134.425C515.027 132.653 513.976 127.462 513.253 122.887C512.11 115.66 512.336 114.359 514.974 112.948C518.549 111.033 519.069 104.897 515.655 104.897C514.358 104.897 512.795 105.711 512.18 106.707C511.566 107.701 510.603 107.876 510.04 107.095C509.478 106.311 507.39 107.337 505.398 109.372ZM318.295 108.947C318.16 110.317 317.977 112.341 317.887 113.445C317.764 114.962 306.855 125.835 304.226 127.063C303.258 127.514 307.838 138.763 310.616 142.754C312.277 145.141 313.636 148.923 313.636 151.158C313.636 157.402 318.797 162.822 323.594 161.619C327.934 160.53 333.256 152.889 333.256 147.751C333.256 145.968 334.354 142.404 335.698 139.827C338.694 134.085 338.975 118.674 336.119 116.908C334.994 116.213 331.948 115.868 329.346 116.141C325.682 116.525 324.832 116.079 325.568 114.161C326.153 112.634 324.989 110.682 322.53 109.07C319.003 106.759 318.513 106.745 318.295 108.947ZM468.985 108.576C469 109.701 469.724 111.723 470.596 113.072C471.83 114.983 472.187 114.532 472.206 111.028C472.219 108.556 471.495 106.532 470.596 106.532C469.696 106.532 468.972 107.453 468.985 108.576ZM478.771 108.985C478.771 110.334 479.506 111.437 480.406 111.437C481.305 111.437 482.041 110.334 482.041 108.985C482.041 107.636 481.305 106.532 480.406 106.532C479.506 106.532 478.771 107.636 478.771 108.985ZM161.581 116.226C161.581 119.779 166.322 125.272 167.907 123.554C168.474 122.938 168.019 122.106 166.894 121.705C162.773 120.232 164.767 116.784 169.347 117.464C173.516 118.083 173.444 117.949 168.341 115.601C161.468 112.441 161.581 112.43 161.581 116.226ZM313.106 121.903C312.576 123.283 312.797 124.816 313.595 125.308C315.732 126.63 317.545 122.867 315.673 120.995C314.627 119.949 313.735 120.263 313.106 121.903ZM319.532 121.561C317.578 125.825 319.048 130.146 322.646 130.717C324.672 131.039 325.184 130.735 324.002 129.914C322.958 129.188 321.812 126.389 321.453 123.695C320.941 119.862 320.522 119.398 319.532 121.561ZM326.716 121.968C326.716 123.265 327.451 124.779 328.351 125.335C329.25 125.891 329.986 124.829 329.986 122.979C329.986 121.128 329.25 119.612 328.351 119.612C327.451 119.612 326.716 120.672 326.716 121.968ZM498.391 122.065C497.271 123.414 494.974 124.517 493.286 124.517C491.597 124.517 490.216 125.253 490.216 126.152C490.216 128.274 494.48 128.245 498.499 126.095C502.161 124.135 503.031 127.398 499.726 130.702C498.662 131.767 498.235 133.081 498.778 133.624C500.634 135.48 504.829 126.932 503.866 123.255C502.753 118.996 501.214 118.662 498.391 122.065ZM180.483 136.78C179.71 138.578 177.77 141.521 176.171 143.32C173.672 146.132 173.562 147.142 175.387 150.532L177.51 154.474L180.279 150.249C182.038 147.564 182.836 143.738 182.468 139.765C181.987 134.597 181.642 134.079 180.483 136.78ZM327.885 136.454C327.298 137.981 325.692 139.232 324.314 139.232C322.937 139.232 321.811 139.968 321.811 140.867C321.811 143.328 326.042 142.831 328.305 140.105C329.399 138.786 329.992 136.799 329.623 135.691C329.183 134.371 328.583 134.635 327.885 136.454ZM153.406 140.761C153.406 143.4 154.169 147.569 155.104 150.026C156.766 154.395 156.852 154.421 159.109 151.202C161.115 148.336 161.054 147.142 158.636 141.989C155.257 134.787 153.406 134.353 153.406 140.761ZM526.186 140.57C526.186 147.903 520.64 161.455 515.563 166.532C503.222 178.873 486.946 167.956 486.946 147.342C486.946 141.029 486.879 140.96 481.632 141.878C456.832 146.209 441.274 157.188 431.405 177.321C415.563 209.635 420.113 239.26 441.843 245.26C453.073 248.36 461.721 245.664 484.902 231.83C500.498 222.524 501.661 221.473 501.661 216.676C501.661 211.646 501.412 211.475 491.442 209.612C475.234 206.583 455.707 205.693 448.615 207.66C445.068 208.644 441.839 209.122 441.44 208.721C440.069 207.35 449.815 204.532 459.388 203.532L468.961 202.531V190.798C468.961 184.345 467.806 175.181 466.397 170.433C463.305 160.023 464.417 157.703 468.308 166.442C470.295 170.9 471.161 177.422 471.266 188.688L471.413 204.624L476.727 204.629C481.432 204.632 482.042 204.117 482.051 200.136C482.067 191.444 485.335 183.287 489.421 181.734C491.573 180.915 504.682 179.739 518.554 179.121L543.772 177.996L544.714 170.049C546.262 156.974 549.259 154.446 548.052 167.233L547.03 178.065L558.062 178.768C566.439 179.301 569.633 180.212 571.346 182.553C574.376 186.698 574.278 209.001 571.138 229.837C569.794 238.755 568.983 246.339 569.335 246.693C570.375 247.732 582.206 242.355 585.569 239.314C595.011 230.776 598.605 212.217 594.189 194.796C586.888 165.991 571.359 148.694 545.601 140.677C532.665 136.65 526.186 136.614 526.186 140.57ZM288.452 157.206C270.437 162.959 253.595 178.137 241.271 199.727C236.431 208.205 231.886 222.679 231.886 229.615C231.886 237.983 236.483 245.066 244.402 248.9C250.641 251.92 253.803 252.337 266.013 251.753C278.277 251.168 282.108 250.219 292.888 245.098C303.319 240.146 305.461 238.472 305.461 235.272C305.461 233.151 304.542 230.277 303.417 228.884C300.492 225.259 281.884 220.591 269.888 220.472C264.128 220.416 260.555 219.802 261.713 219.068C262.843 218.35 267.579 217.751 272.236 217.737L280.704 217.712L283.346 208.626C287.688 193.684 289.407 181.794 288.229 174.823C287.446 170.188 287.654 168.579 288.932 169.368C291.985 171.255 291.089 193.437 287.497 204.895C285.71 210.595 284.238 216.031 284.227 216.975C284.216 217.918 289.385 220.215 295.716 222.079L307.228 225.47L309.614 220.855C312.161 215.932 312.988 179.568 310.941 162.531L309.91 153.947L304.007 154.035C300.76 154.083 293.761 155.51 288.452 157.206ZM333.831 156.442C331.884 161.512 337.816 221.183 340.536 223.902C341.418 224.784 356.211 221.329 359.036 219.581C360.627 218.598 360.328 216.156 357.692 208.613C353.147 195.604 350.969 182.262 352.174 174.793C353.785 164.807 355.314 167.773 355.544 181.338C355.694 190.14 356.984 197.497 359.774 205.45L363.789 216.895L374.273 217.712C385.703 218.603 385.723 220.25 374.309 220.797C367.007 221.147 342.958 226.386 339.861 228.299C338.926 228.878 338.161 231.413 338.161 233.935C338.161 237.939 339.474 239.165 348.548 243.632C377.687 257.977 408.575 252.66 411.234 232.842C414.19 210.798 390.33 173.595 365.3 161.225C350.883 154.099 335.62 151.781 333.831 156.442ZM495.391 183.302C491.493 183.935 487.713 185.408 486.99 186.577C485.357 189.217 483.216 204.717 484.33 205.831C484.779 206.28 485.634 202.979 486.23 198.493C486.825 194.006 487.935 189.329 488.695 188.096C491.169 184.093 553.842 181.541 563.111 185.064L567.55 186.752L566.506 207.546C565.933 218.983 564.991 231.466 564.412 235.288C563.76 239.603 563.992 242.237 565.025 242.237C567.371 242.237 568.419 234.885 569.693 209.482C570.679 189.829 570.489 187.04 567.998 184.548C565.527 182.077 561.453 181.767 533.836 181.947C516.588 182.059 499.288 182.669 495.391 183.302ZM515.637 207.776C515.123 208.607 512.504 209.769 509.818 210.36C506.033 211.19 504.931 212.325 504.931 215.389C504.931 217.567 505.792 219.347 506.845 219.347C507.898 219.347 510.231 220.634 512.028 222.208C515.14 224.934 515.246 224.934 514.252 222.208C513.384 219.829 514.234 219.31 519.288 219.125C522.932 218.991 523.924 218.621 521.766 218.203C517.435 217.364 515.341 211.936 518.076 208.641C519.346 207.109 519.43 206.267 518.307 206.267C517.352 206.267 516.148 206.946 515.637 207.776ZM518.035 210.763C518.101 213.929 520.679 215.546 523.733 214.334C526.712 213.152 526.64 213.016 522.916 212.807C519.149 212.595 519.083 212.467 522.098 211.172C525.218 209.831 525.2 209.761 521.689 209.652C519.665 209.589 518.022 210.09 518.035 210.763ZM509.971 213.27C510.347 213.525 511.958 214.732 513.552 215.953C516.075 217.887 516.317 217.827 515.421 215.49C514.854 214.015 513.243 212.807 511.84 212.807C510.439 212.807 509.597 213.015 509.971 213.27ZM312.01 221.227C307.464 227.506 305.4 235.697 308.366 235.697C310.93 235.697 316.906 230.54 316.906 228.328C316.906 227.076 318.192 225.222 319.767 224.21C322.403 222.516 322.385 222.447 319.536 223.348C316.796 224.216 316.703 224.008 318.719 221.531C320.725 219.066 320.651 218.863 318.094 219.821C315.627 220.747 315.452 220.426 316.925 217.675C319.881 212.152 317.161 214.117 312.01 221.227ZM326.506 216.626C328.205 218.685 328.256 219.347 326.716 219.347C325.092 219.347 325.092 219.843 326.716 221.8C328.254 223.654 328.275 224.252 326.799 224.252C325.386 224.252 325.444 224.88 327.008 226.522C328.195 227.771 330.64 230.531 332.438 232.653L335.708 236.515L336.215 232.126C336.856 226.572 332.692 218.397 327.926 215.858C324.607 214.089 324.474 214.161 326.506 216.626ZM43.586 228.291C42.1783 231.379 42.2339 232.919 43.8198 234.831C47.2402 238.951 48.7657 237.705 48.7657 230.792C48.7657 223.415 46.341 222.244 43.586 228.291ZM482.994 237.113C482.289 238.253 482.155 239.626 482.695 240.166C484.158 241.629 485.754 239.477 484.962 237.106C484.41 235.445 484.024 235.445 482.994 237.113ZM470.596 245.507C470.596 246.524 479.861 247.142 495.121 247.142C510.38 247.142 519.646 246.524 519.646 245.507C519.646 244.49 510.38 243.872 495.121 243.872C479.861 243.872 470.596 244.49 470.596 245.507ZM522.916 245.507C522.916 246.513 531.091 247.142 544.171 247.142C557.251 247.142 565.426 246.513 565.426 245.507C565.426 244.502 557.251 243.872 544.171 243.872C531.091 243.872 522.916 244.502 522.916 245.507ZM284.206 252.114C272.89 255.893 252.071 256.28 243.896 252.865C238.898 250.777 223.359 250.412 139.309 250.412H40.5907V257.77V265.127H313.636H586.681V257.77V250.412H495.013C428.475 250.412 402.372 250.934 399.794 252.314C394.756 255.01 369.96 254.42 360.233 251.374C347.837 247.49 296.56 247.991 284.206 252.114ZM52.0357 355.052V443.342H55.8894C60.4429 443.342 60.0145 447.436 65.0438 355.87C66.8226 323.497 68.7143 290.205 69.2473 281.886L70.2185 266.762H61.1263H52.0357V355.052ZM72.7462 267.853C72.1462 268.451 71.6557 272.058 71.6557 275.866V282.788L76.8468 277.939C79.7032 275.272 84.1177 272.015 86.6568 270.701C89.1976 269.388 91.2757 267.964 91.2757 267.537C91.2757 266.332 73.9725 266.625 72.7462 267.853ZM121.523 269.182C131.665 273.634 159.715 277.076 177.815 276.088C194.413 275.182 215.135 271.406 220.388 268.328C221.901 267.442 201.847 266.895 169.756 266.945C124.363 267.017 117.333 267.343 121.523 269.182ZM475.806 267.612C478.256 270.062 504.878 273.397 522.159 273.418C545.628 273.449 555.616 272.131 555.616 269.005C555.616 267.164 548.374 266.762 515.285 266.762C493.105 266.762 475.339 267.145 475.806 267.612ZM558.897 272.893C558.902 276.266 560.735 312.869 562.968 354.235C565.202 395.6 567.036 432.572 567.046 436.393C567.059 442.711 567.432 443.342 571.148 443.342H575.236V355.052V266.762H567.061H558.886L558.897 272.893ZM249.509 270.944C253.085 273.448 256.411 272.962 256.411 269.936C256.411 269.089 254.04 268.397 251.141 268.397C245.906 268.397 245.896 268.413 249.509 270.944ZM258.974 272.086C256.51 275.845 256.613 276.521 260.757 283.935C264.52 290.669 265.124 293.576 264.967 304.213C264.865 311.043 263.677 320.225 262.324 324.62C259.865 332.61 259.865 332.612 265.694 344.24C270.287 353.404 300.932 407.341 303.374 410.559C303.945 411.311 318.745 407.714 319.922 406.535C321.225 405.232 316.68 336.649 314.314 321.92C312.88 312.995 309.893 302.541 307.011 296.357C304.329 290.602 302.477 285.552 302.895 285.131C303.929 284.098 313.636 299.555 313.636 302.235C313.636 303.635 315.897 304.367 320.223 304.367C326.711 304.367 326.873 304.22 331.063 294.557C333.403 289.162 336.037 284.747 336.915 284.747C337.817 284.747 337.971 285.988 337.268 287.608C332.858 297.755 329.899 308.87 329.028 318.546C327.886 331.212 332.728 404.174 334.851 406.331C335.617 407.107 339.433 408.098 343.332 408.535L350.423 409.326L363.248 380.964C390.992 319.61 396.354 290.958 383.048 275.146L378.972 270.302L369.811 273.521C364.772 275.294 354.45 277.542 346.872 278.521C333.135 280.293 333.081 280.285 328.589 275.984C322.942 270.573 321.201 270.568 318.745 275.959C316.848 280.123 316.486 280.218 306.628 279.115C301.04 278.49 292.054 276.087 286.658 273.775C281.263 271.463 273.415 269.239 269.218 268.835C262.513 268.19 261.268 268.584 258.974 272.086ZM386.107 273.261C399.427 289.09 395.087 318.498 371.892 369.586L362.903 389.387H397.846H432.79L424.804 372.628C411.528 344.771 406.353 327.308 406.272 310.09C406.211 297.363 406.775 294.269 410.442 287.2C414.675 279.038 419.455 273.722 425.633 270.305C428.148 268.914 423.49 268.485 405.459 268.446L382.015 268.397L386.107 273.261ZM426.91 273.157C407.925 286.91 404.501 309.038 416.013 343.607C421.595 360.371 447.763 413.912 450.376 413.912C453.346 413.912 470.959 407.299 473.622 405.183C475.404 403.767 475.687 395.984 475.09 364.934C474.459 332.211 473.822 324.501 470.838 313.507C466.91 299.042 466.667 297.227 468.835 298.566C469.665 299.08 470.828 301.705 471.42 304.4C472.012 307.094 473.781 309.987 475.35 310.827C479.345 312.964 509.512 314.843 518.416 313.507C525.487 312.446 525.888 312.089 527.852 305.072C528.982 301.04 530.646 297.284 531.552 296.725C533.39 295.589 533.144 296.98 527.96 317.027C522.636 337.612 519.709 361.806 519.675 385.496L519.646 406.947L526.594 408.865C542.413 413.232 542.197 413.353 552.029 394.577L560.867 377.695L559.016 340.622C557.998 320.233 556.755 298.246 556.257 291.763L555.349 279.975L549.35 282.327C540.046 285.978 522.867 289.601 514.741 289.628C508.264 289.649 506.831 288.959 502.772 283.872L498.16 278.093L491.56 282.949C486.216 286.878 484.21 287.518 481.037 286.31C473.96 283.621 466.631 279.509 458.932 273.909C452.522 269.246 449.978 268.397 442.418 268.397C435.144 268.397 432.26 269.282 426.91 273.157ZM578.659 305.185C578.702 325.92 579.094 330.498 580.551 327.257C583.108 321.572 583.146 286.47 580.599 282.295C578.978 279.638 578.615 283.923 578.659 305.185ZM203.401 299.053C202.722 299.727 201.211 302.562 200.042 305.351C198.465 309.123 196.509 310.711 192.422 311.54C181.678 313.718 157.191 314.602 140.028 313.433C122.782 312.258 122.596 312.2 120.645 307.488C119.561 304.872 118.018 302.732 117.215 302.732C116.414 302.732 116.95 305.492 118.41 308.863C124.752 323.518 126.122 332.636 126.276 361.182L126.428 389.385H141.778L157.125 389.387L156.121 375.898C155.569 368.479 154.638 355.324 154.052 346.661L152.986 330.913L140.144 329.793C133.081 329.177 127.018 328.169 126.672 327.556C126.324 326.942 125.567 323.811 124.988 320.599L123.936 314.758L132.54 315.984C145.525 317.833 176.111 317.673 186.783 315.699C191.982 314.738 196.454 314.187 196.72 314.473C196.988 314.761 196.725 317.938 196.135 321.535C195.069 328.053 195.034 328.08 185.643 329.571C178.058 330.776 176.083 331.732 175.508 334.476C174.859 337.569 169.748 385.259 169.752 388.161C169.754 388.836 175.947 389.387 183.516 389.387H197.276L196.364 367.617C195.378 344.091 197.338 325.308 202.518 308.666C205.572 298.854 205.77 296.701 203.401 299.053ZM477.695 334.585C478.287 338.898 478.771 352.994 478.771 365.909V389.387H487.171H495.572L494.382 359.548C493.728 343.136 493.015 329.528 492.801 329.307C492.585 329.087 488.857 328.42 484.514 327.824L476.621 326.742L477.695 334.585ZM517.721 328.521C515.632 328.951 514.711 331.686 513.85 340.025C513.227 346.042 511.492 359.611 509.994 370.176L507.269 389.387H511.574H515.879L516.874 369.358C517.422 358.342 518.683 345.052 519.677 339.825C521.74 328.977 521.526 327.738 517.721 328.521ZM251.475 351.216C247.695 359.171 242.126 371.013 239.101 377.533L233.602 389.387H259.722C274.087 389.387 285.841 388.98 285.841 388.483C285.841 387.986 281.346 379.793 275.853 370.274C270.357 360.757 264.172 349.321 262.107 344.861L258.35 336.753L251.475 351.216ZM67.8102 359.365C67.2281 366.257 66.7507 375.831 66.7507 380.642V389.387H78.2382H89.7257L82.862 376.881C79.0868 370.003 74.3927 360.428 72.434 355.605L68.8697 346.835L67.8102 359.365ZM326.961 376.716C326.825 383.684 327.268 389.387 327.942 389.389C328.616 389.389 328.957 385.525 328.701 380.805C327.86 365.346 327.209 363.819 326.961 376.716ZM559.839 385.898C559.134 387.038 559 388.411 559.54 388.951C561.003 390.414 562.599 388.262 561.807 385.892C561.255 384.23 560.869 384.23 559.839 385.898ZM325.081 394.117C325.081 394.92 326.184 396.001 327.533 396.519C329.028 397.091 329.986 396.521 329.986 395.059C329.986 393.738 328.882 392.657 327.533 392.657C326.184 392.657 325.081 393.314 325.081 394.117ZM477.136 401.023C477.136 408.907 477.347 409.331 480.814 408.379C482.839 407.825 487.253 406.909 490.624 406.345C495.626 405.508 496.756 404.629 496.756 401.574C496.756 393.887 495.266 392.657 485.953 392.657H477.136V401.023ZM505.953 397.767C504.386 405.601 504.483 405.737 511.646 405.737C517.097 405.737 518.174 405.25 517.368 403.151C516.822 401.728 516.376 398.785 516.376 396.611C516.376 393.345 515.557 392.657 511.675 392.657C507.718 392.657 506.813 393.466 505.953 397.767ZM111.304 405.474C103.599 408.374 102.757 410.678 107.626 415.547C115.534 423.456 125.49 415.843 121.348 405.054C120.2 402.06 120.403 402.052 111.304 405.474ZM202.771 415.956C203.255 422.658 203.484 422.923 209.215 423.4C214.605 423.851 215.323 423.413 216.981 418.66C220.086 409.753 219.587 409.007 210.537 409.007H202.268L202.771 415.956ZM316.906 410.663C315.557 411.523 312.429 412.238 309.957 412.253C304.725 412.282 304.655 412.516 307.956 418.899C312.3 427.301 320.722 424.561 319.88 415.017C319.456 410.209 318.897 409.393 316.906 410.663ZM333.279 412.104C333.323 417.455 335.272 421.803 337.902 422.429C342.781 423.59 345.631 422.054 347.425 417.303C349.179 412.655 349.143 412.619 341.223 411.053C334.34 409.692 333.259 409.834 333.279 412.104ZM462.908 412.974L454.404 416.577L457.691 421.983C460.679 426.896 461.515 427.301 466.873 426.433C470.113 425.907 473.339 424.898 474.039 424.19C475.476 422.738 473.988 408.907 472.424 409.19C471.868 409.29 467.586 410.994 462.908 412.974ZM520.151 413.317C518.707 417.082 521.557 420.89 526.89 422.316C530.559 423.297 532.256 422.705 535.731 419.231L540.031 414.931L531.882 412.818C521.495 410.125 521.374 410.13 520.151 413.317ZM96.8756 424.25C85.4208 433.692 91.1629 435.995 110.078 429.546C116.373 427.399 121.821 425.938 122.185 426.297C123.757 427.854 106.058 434.167 98.2522 434.835C93.1478 435.272 90.1018 436.223 90.7018 437.195C92.2322 439.672 105.394 437.316 115.26 432.798C122.771 429.36 123.976 428.174 123.976 424.221C123.976 419.661 123.915 419.635 113.226 419.635C103.842 419.635 101.761 420.222 96.8756 424.25ZM201.527 428.974C200.342 432.716 203.469 438.251 207.876 440.208C210.786 441.501 210.389 441.64 205.726 440.962C200.396 440.187 200.221 440.296 203.177 442.554C207.733 446.033 212.921 445.543 216.464 441.298C218.155 439.274 218.489 438.54 217.208 439.663C213.53 442.894 211.458 442.041 214.587 438.581C216.226 436.773 217.192 433.578 216.885 430.993C216.402 426.945 215.702 426.513 209.383 426.351C204.138 426.219 202.194 426.868 201.527 428.974Z" fill="#161616"/>
<path d="M288.452 157.206C270.437 162.959 253.595 178.137 241.271 199.727C236.431 208.205 231.886 222.679 231.886 229.615C231.886 237.983 236.483 245.066 244.402 248.9C250.641 251.92 253.803 252.337 266.013 251.753C278.277 251.168 282.108 250.219 292.888 245.098C303.319 240.146 305.461 238.472 305.461 235.272C305.461 233.151 304.542 230.277 303.417 228.884C300.492 225.259 281.884 220.591 269.888 220.472C264.128 220.416 260.555 219.802 261.713 219.068C262.843 218.35 267.579 217.751 272.236 217.737L280.704 217.712L283.346 208.626C287.688 193.684 289.407 181.794 288.229 174.823C287.446 170.188 287.654 168.579 288.932 169.368C291.985 171.255 291.089 193.437 287.497 204.895C285.71 210.595 284.238 216.031 284.227 216.975C284.216 217.918 289.385 220.215 295.716 222.079L307.228 225.47L309.614 220.855C312.161 215.932 312.988 179.568 310.941 162.531L309.91 153.947L304.007 154.035C300.76 154.083 293.761 155.51 288.452 157.206Z" fill="#B7FF64"/>
<path d="M333.831 156.442C331.884 161.512 337.816 221.183 340.536 223.902C341.418 224.784 356.211 221.329 359.036 219.581C360.627 218.598 360.328 216.156 357.692 208.613C353.147 195.604 350.969 182.262 352.174 174.793C353.785 164.807 355.314 167.773 355.544 181.338C355.694 190.14 356.984 197.497 359.774 205.45L363.789 216.895L374.273 217.712C385.703 218.603 385.723 220.25 374.309 220.797C367.007 221.147 342.958 226.386 339.861 228.299C338.926 228.878 338.161 231.413 338.161 233.935C338.161 237.939 339.474 239.165 348.548 243.632C377.687 257.977 408.575 252.66 411.234 232.842C414.19 210.798 390.33 173.595 365.3 161.225C350.883 154.099 335.62 151.781 333.831 156.442Z" fill="#B7FF64"/>
<path d="M526.186 140.57C526.186 147.903 520.64 161.455 515.563 166.532C503.222 178.873 486.946 167.956 486.946 147.342C486.946 141.029 486.879 140.96 481.632 141.878C456.832 146.209 441.274 157.188 431.405 177.321C415.563 209.635 420.113 239.26 441.843 245.26C453.073 248.36 461.721 245.664 484.902 231.83C500.498 222.524 501.661 221.473 501.661 216.676C501.661 211.646 501.412 211.475 491.442 209.612C475.234 206.583 455.707 205.693 448.615 207.66C445.068 208.644 441.839 209.122 441.44 208.721C440.069 207.35 449.815 204.532 459.388 203.532L468.961 202.531V190.798C468.961 184.345 467.806 175.181 466.397 170.433C463.305 160.023 464.417 157.703 468.308 166.442C470.295 170.9 471.161 177.422 471.266 188.688L471.413 204.624L476.727 204.629C481.432 204.632 482.042 204.117 482.051 200.136C482.067 191.444 485.335 183.287 489.421 181.734C491.573 180.915 504.682 179.739 518.554 179.121L543.772 177.996L544.714 170.049C546.262 156.974 549.259 154.446 548.052 167.233L547.03 178.065L558.062 178.768C566.439 179.301 569.633 180.212 571.346 182.553C574.376 186.698 574.278 209.001 571.138 229.837C569.794 238.755 568.983 246.339 569.335 246.693C570.375 247.732 582.206 242.355 585.569 239.314C595.011 230.776 598.605 212.217 594.189 194.796C586.888 165.991 571.359 148.694 545.601 140.677C532.665 136.65 526.186 136.614 526.186 140.57Z" fill="#B7FF64"/>
<path d="M55.9172 24.429C52.8467 24.8949 52.227 26.6297 50.6034 39.2862C49.593 47.1669 48.769 62.3953 48.7722 73.1258C48.7886 122.54 62.4752 157.894 88.251 175.107C97.7454 181.446 101.074 182.188 101.096 177.967C101.113 173.937 104.565 163.757 105.912 163.757C106.684 163.757 106.113 167.987 104.643 173.158C101.704 183.506 100.813 225.222 103.229 239.376L104.557 247.142H169.679H234.803L231.709 241.075C227.684 233.178 227.8 225.169 232.134 211.97C235.329 202.238 235.461 200.394 233.576 191.907C232.435 186.765 229.781 177.803 227.682 171.993C224.129 162.16 223.717 156.843 226.909 162.006C228.081 163.904 236.052 187.566 237.893 194.619C238.254 196.001 240.255 194.426 243.087 190.532L247.693 184.195L244.73 177.655C237.476 161.64 244.403 148.032 264.98 137.88C270.607 135.104 276.488 131.808 278.047 130.558C279.631 129.286 282.499 121.873 284.557 113.731C287.721 101.212 288.225 95.0561 288.148 69.7446C288.099 53.5581 287.347 37.3716 286.477 33.7746C285.035 27.8085 284.382 27.1905 279.055 26.7409L273.217 26.2471L267.208 43.9083C263.902 53.6219 256.689 70.7224 251.175 81.9074C242.742 99.0193 239.315 104.093 229.571 113.898C217.463 126.079 208.155 131.505 194.246 134.487C187.173 136.005 186.106 136.758 186.106 140.238C186.106 145.455 182.422 154.171 179.028 156.987C176.682 158.932 176.129 158.628 174.572 154.534C171.325 145.994 169.998 153.787 171.466 172.75C172.233 182.641 172.897 197.896 172.942 206.65C173.022 221.991 172.852 222.758 168.242 227.905L163.459 233.245L158.432 228.443C154.485 224.672 153.406 222.259 153.406 217.207C153.406 207.822 157.928 178.894 161.553 165.083C163.281 158.504 164.064 152.507 163.297 151.74C162.531 150.973 161.416 151.892 160.816 153.782C160.215 155.672 159.028 157.217 158.177 157.217C155.083 157.217 149.992 146.635 150.546 141.358C151.077 136.301 150.821 136.062 142.849 134.187C127.571 130.594 115.418 122.49 103.028 107.631C93.55 96.2643 78.6306 65.6915 71.6377 43.305C65.6814 24.236 64.7298 23.0932 55.9172 24.429Z" fill="#B7FF64"/>
<path fill-rule="evenodd" clip-rule="evenodd" d="M158.299 84.991C150.309 91.5424 150.564 116.771 158.703 124.91C160.963 127.169 161.509 128.629 160.253 129.048C157.631 129.921 157.81 133.595 160.781 139.855C162.691 143.88 164.233 145.018 167.576 144.871C173.376 144.618 178.46 138.205 177.334 132.568C176.644 129.123 177.275 127.866 180.403 126.442C186.642 123.598 191.639 112.237 191.74 100.658C191.853 87.9585 189.763 85.2771 179.764 85.2771C175.596 85.2771 169.813 84.597 166.914 83.7647C162.784 82.581 160.915 82.8459 158.299 84.991ZM165.709 90.4977C162.554 90.1282 160.403 89.1292 160.93 88.2757C162.173 86.2663 170.15 87.2064 170.884 89.448C171.232 90.5108 169.255 90.9113 165.709 90.4977ZM181.515 91.2351C174.788 91.0585 172.663 89.6262 176.704 87.9945C180.213 86.5786 182.108 86.8369 185.29 89.1635C188.076 91.2007 187.716 91.3969 181.515 91.2351ZM162.846 100.277C161.947 99.3774 161.746 97.7783 162.398 96.7221C163.19 95.4419 164.13 95.3471 165.22 96.4376C166.119 97.3369 166.321 98.9359 165.668 99.9921C164.877 101.272 163.937 101.367 162.846 100.277ZM168.775 111.158C166.664 109.045 166.543 107.485 168.06 101.853C169.062 98.1315 170.668 95.0871 171.629 95.0871C172.589 95.0871 172.926 96.2594 172.377 97.6917C169.69 104.691 169.421 108.584 171.531 109.889C172.751 110.643 173.201 111.807 172.53 112.477C171.862 113.147 170.171 112.554 168.775 111.158ZM179.566 101.627C178.666 101.627 177.931 100.524 177.931 99.1746C177.931 97.8258 178.666 96.7221 179.566 96.7221C180.465 96.7221 181.201 97.8258 181.201 99.1746C181.201 100.524 180.465 101.627 179.566 101.627ZM167.907 123.554C166.322 125.272 161.581 119.779 161.581 116.226C161.581 112.43 161.468 112.441 168.341 115.601C173.444 117.949 173.516 118.083 169.347 117.464C164.767 116.784 162.773 120.232 166.894 121.705C168.019 122.106 168.474 122.938 167.907 123.554Z" fill="white"/>
<path fill-rule="evenodd" clip-rule="evenodd" d="M318.295 108.947C318.16 110.317 317.977 112.341 317.887 113.445C317.764 114.962 306.855 125.835 304.226 127.063C303.258 127.514 307.838 138.763 310.616 142.754C312.277 145.141 313.636 148.923 313.636 151.158C313.636 157.402 318.797 162.822 323.594 161.619C327.934 160.53 333.256 152.889 333.256 147.751C333.256 145.968 334.354 142.404 335.698 139.827C338.694 134.085 338.975 118.674 336.119 116.908C334.994 116.213 331.948 115.868 329.346 116.141C325.682 116.525 324.832 116.079 325.568 114.161C326.153 112.634 324.989 110.682 322.53 109.07C319.003 106.759 318.513 106.745 318.295 108.947ZM313.595 125.308C312.797 124.816 312.576 123.283 313.106 121.903C313.735 120.263 314.627 119.949 315.673 120.995C317.545 122.867 315.732 126.63 313.595 125.308ZM322.646 130.717C319.048 130.146 317.578 125.825 319.532 121.561C320.522 119.398 320.941 119.862 321.453 123.695C321.812 126.389 322.958 129.188 324.002 129.914C325.184 130.735 324.672 131.039 322.646 130.717ZM328.351 125.335C327.451 124.779 326.716 123.265 326.716 121.968C326.716 120.672 327.451 119.612 328.351 119.612C329.25 119.612 329.986 121.128 329.986 122.979C329.986 124.829 329.25 125.891 328.351 125.335ZM324.314 139.232C325.692 139.232 327.298 137.981 327.885 136.454C328.583 134.635 329.183 134.371 329.623 135.691C329.992 136.799 329.399 138.786 328.305 140.105C326.042 142.831 321.811 143.328 321.811 140.867C321.811 139.968 322.937 139.232 324.314 139.232Z" fill="white"/>
<path fill-rule="evenodd" clip-rule="evenodd" d="M505.398 109.372C501.19 113.674 494.826 114.179 491.149 110.504C488.815 108.167 488.581 108.306 488.581 112.024C488.581 114.985 489.596 116.293 492.259 116.759C495.685 117.357 495.726 117.496 492.84 118.773C490.636 119.748 489.143 119.323 487.66 117.295C485.908 114.898 484.977 114.763 481.766 116.434C479.668 117.526 477.714 118.62 477.423 118.865C477.132 119.109 478.038 121.519 479.435 124.221C482.515 130.178 489.547 135.962 493.706 135.962C495.384 135.962 496.756 136.698 496.756 137.597C496.756 138.496 496.02 139.232 495.121 139.232C492.403 139.232 493.293 146.254 496.725 151.882C498.884 155.425 499.689 158.94 499.156 162.51C498.36 167.836 498.361 167.838 500.147 163.348C502.37 157.753 504.553 157.598 505.894 162.94C506.458 165.188 507.576 167.027 508.377 167.027C510.586 167.027 510.125 163.263 507.447 159.441C505.276 156.339 505.418 155.695 509.035 152.296C513.752 147.867 517.023 138.943 515.589 134.425C515.027 132.653 513.976 127.462 513.253 122.887C512.11 115.66 512.336 114.359 514.974 112.948C518.549 111.033 519.069 104.897 515.655 104.897C514.358 104.897 512.795 105.711 512.18 106.707C511.566 107.701 510.603 107.876 510.04 107.095C509.478 106.311 507.39 107.337 505.398 109.372ZM493.286 124.517C494.974 124.517 497.271 123.414 498.391 122.065C501.214 118.662 502.753 118.996 503.866 123.255C504.829 126.932 500.634 135.48 498.778 133.624C498.235 133.081 498.662 131.767 499.726 130.702C503.031 127.398 502.161 124.135 498.499 126.095C494.48 128.245 490.216 128.274 490.216 126.152C490.216 125.253 491.597 124.517 493.286 124.517Z" fill="white"/>
<path d="M258.974 272.086C256.51 275.845 256.613 276.521 260.757 283.935C264.52 290.669 265.124 293.576 264.967 304.213C264.865 311.043 263.677 320.225 262.324 324.62C259.865 332.61 259.865 332.612 265.694 344.24C270.287 353.404 300.932 407.341 303.374 410.559C303.945 411.311 318.745 407.714 319.922 406.535C321.225 405.232 316.68 336.649 314.314 321.92C312.88 312.995 309.893 302.541 307.011 296.357C304.329 290.602 302.477 285.552 302.895 285.131C303.929 284.098 313.636 299.555 313.636 302.235C313.636 303.635 315.897 304.367 320.223 304.367C326.711 304.367 326.873 304.22 331.063 294.557C333.403 289.162 336.037 284.747 336.915 284.747C337.817 284.747 337.971 285.988 337.268 287.608C332.858 297.755 329.899 308.87 329.028 318.546C327.886 331.212 332.728 404.174 334.851 406.331C335.617 407.107 339.433 408.098 343.332 408.535L350.423 409.326L363.248 380.964C390.992 319.61 396.354 290.958 383.048 275.146L378.972 270.302L369.811 273.521C364.772 275.294 354.45 277.542 346.872 278.521C333.135 280.293 333.081 280.285 328.589 275.984C322.942 270.573 321.201 270.568 318.745 275.959C316.848 280.123 316.486 280.218 306.628 279.115C301.04 278.49 292.054 276.087 286.658 273.775C281.263 271.463 273.415 269.239 269.218 268.835C262.513 268.19 261.268 268.584 258.974 272.086Z" fill="white"/>
<path d="M426.91 273.157C407.925 286.91 404.501 309.038 416.013 343.607C421.595 360.371 447.763 413.912 450.376 413.912C453.346 413.912 470.959 407.299 473.622 405.183C475.404 403.767 475.687 395.984 475.09 364.934C474.459 332.211 473.822 324.501 470.838 313.507C466.91 299.042 466.667 297.227 468.835 298.566C469.665 299.08 470.828 301.705 471.42 304.4C472.012 307.094 473.781 309.987 475.35 310.827C479.345 312.964 509.512 314.843 518.416 313.507C525.487 312.446 525.888 312.089 527.852 305.072C528.982 301.04 530.646 297.284 531.552 296.725C533.39 295.589 533.144 296.98 527.96 317.027C522.636 337.612 519.709 361.806 519.675 385.496L519.646 406.947L526.594 408.865C542.413 413.232 542.197 413.353 552.029 394.577L560.867 377.695L559.016 340.622C557.998 320.233 556.755 298.246 556.257 291.763L555.349 279.975L549.35 282.327C540.046 285.978 522.867 289.601 514.741 289.628C508.264 289.649 506.831 288.959 502.772 283.872L498.16 278.093L491.56 282.949C486.216 286.878 484.21 287.518 481.037 286.31C473.96 283.621 466.631 279.509 458.932 273.909C452.522 269.246 449.978 268.397 442.418 268.397C435.144 268.397 432.26 269.282 426.91 273.157Z" fill="#161616"/>
<path d="M578.659 305.185C578.702 325.92 579.094 330.498 580.551 327.257C583.108 321.572 583.146 286.47 580.599 282.295C578.978 279.638 578.615 283.923 578.659 305.185Z" fill="#161616"/>
<path d="M284.206 252.114C272.89 255.893 252.071 256.28 243.896 252.865C238.898 250.777 223.359 250.412 139.309 250.412H40.5907V257.77V265.127H313.636H586.681V257.77V250.412H495.013C428.475 250.412 402.372 250.934 399.794 252.314C394.756 255.01 369.96 254.42 360.233 251.374C347.837 247.49 296.56 247.991 284.206 252.114Z" fill="white"/>
<path d="M121.523 269.182C131.665 273.634 159.715 277.076 177.815 276.088C194.413 275.182 215.135 271.406 220.388 268.328C221.901 267.442 201.847 266.895 169.756 266.945C124.363 267.017 117.333 267.343 121.523 269.182Z" fill="#AEFB2A"/>
<path d="M475.806 267.612C478.256 270.062 504.878 273.397 522.159 273.418C545.628 273.449 555.616 272.131 555.616 269.005C555.616 267.164 548.374 266.762 515.285 266.762C493.105 266.762 475.339 267.145 475.806 267.612Z" fill="#AEFB2A"/>
<path d="M202.771 415.956C203.255 422.658 203.484 422.923 209.215 423.4C214.605 423.851 215.323 423.413 216.981 418.66C220.086 409.753 219.587 409.007 210.537 409.007H202.268L202.771 415.956Z" fill="white"/>
<path d="M462.908 412.974L454.404 416.577L457.691 421.983C460.679 426.896 461.515 427.301 466.873 426.433C470.113 425.907 473.339 424.898 474.039 424.19C475.476 422.738 473.988 408.907 472.424 409.19C471.868 409.29 467.586 410.994 462.908 412.974Z" fill="white"/>
<path d="M520.151 413.317C518.707 417.082 521.557 420.89 526.89 422.316C530.559 423.297 532.256 422.705 535.731 419.231L540.031 414.931L531.882 412.818C521.495 410.125 521.374 410.13 520.151 413.317Z" fill="white"/>
<path d="M558.897 272.893C558.902 276.266 560.735 312.869 562.968 354.235C565.202 395.6 567.036 432.572 567.046 436.393C567.059 442.711 567.432 443.342 571.148 443.342H575.236V355.052V266.762H567.061H558.886L558.897 272.893Z" fill="white"/>
</svg>
