<svg width="32" height="32" viewBox="0 0 32 32" fill="none" xmlns="http://www.w3.org/2000/svg">
<g clip-path="url(#clip0_3358_5251)">
<path d="M0.683438 15.809C0.682688 18.4977 1.39069 21.1229 2.73694 23.4368L0.554688 31.3428L8.70869 29.2214C10.964 30.4396 13.4909 31.078 16.0587 31.0781L16.0654 31.0781C24.5423 31.0781 31.4427 24.2337 31.4463 15.8211C31.4479 11.7445 29.8494 7.91125 26.9452 5.02728C24.0414 2.14356 20.1796 0.554595 16.0648 0.552734C7.58694 0.552734 0.687063 7.39677 0.683563 15.809" fill="url(#paint0_linear_3358_5251)"/>
<path d="M0.13375 15.8035C0.132875 18.5889 0.86625 21.308 2.2605 23.7048L2.54282e-07 31.8942L8.44638 29.6967C10.7736 30.9558 13.3939 31.6196 16.0601 31.6206L16.067 31.6206C24.848 31.6206 31.9963 24.53 32 15.8162C32.0015 11.5932 30.3455 7.62208 27.3375 4.63479C24.3291 1.64788 20.3291 0.00173627 16.067 -1.28097e-07C7.2845 -5.8077e-08 0.13725 7.08961 0.13375 15.8035ZM5.16375 23.292L4.84838 22.7953C3.52263 20.7036 2.82288 18.2865 2.82388 15.8045C2.82675 8.56174 8.76725 2.66915 16.072 2.66915C19.6095 2.67064 22.934 4.03895 25.4345 6.52155C27.9349 9.0044 29.3108 12.3049 29.3099 15.8152C29.3066 23.058 23.366 28.9513 16.067 28.9513L16.0618 28.9513C13.6851 28.9501 11.3542 28.3168 9.3215 27.12L8.83775 26.8353L3.8255 28.1393L5.16375 23.2919L5.16375 23.292Z" fill="url(#paint1_linear_3358_5251)"/>
<path d="M12.0825 9.19759C11.7842 8.53986 11.4704 8.52658 11.1867 8.51505C10.9545 8.50513 10.689 8.50587 10.4237 8.50587C10.1582 8.50587 9.72687 8.60497 9.36225 9.00001C8.99725 9.39542 7.96875 10.351 7.96875 12.2944C7.96875 14.238 9.39538 16.1162 9.59425 16.38C9.79338 16.6433 12.3484 20.7591 16.3949 22.3425C19.7579 23.6584 20.4422 23.3967 21.1721 23.3307C21.9021 23.2649 23.5276 22.3754 23.8592 21.453C24.1911 20.5307 24.1911 19.7401 24.0916 19.5749C23.9921 19.4103 23.7266 19.3115 23.3285 19.114C22.9302 18.9164 20.973 17.9608 20.6081 17.8289C20.2431 17.6972 19.9777 17.6315 19.7122 18.027C19.4467 18.4219 18.6844 19.3115 18.452 19.5749C18.2199 19.839 17.9875 19.8718 17.5895 19.6742C17.1911 19.476 15.909 19.0594 14.3879 17.7138C13.2044 16.6667 12.4054 15.3737 12.1731 14.9782C11.9409 14.5833 12.1483 14.3692 12.3479 14.1724C12.5268 13.9954 12.7461 13.7111 12.9454 13.4805C13.1439 13.2498 13.2101 13.0852 13.3429 12.8218C13.4758 12.5581 13.4093 12.3274 13.3099 12.1298C13.2101 11.9322 12.4365 9.97862 12.0825 9.19759Z" fill="white"/>
</g>
<defs>
<linearGradient id="paint0_linear_3358_5251" x1="1545.14" y1="3079.56" x2="1545.14" y2="0.552722" gradientUnits="userSpaceOnUse">
<stop stop-color="#1FAF38"/>
<stop offset="1" stop-color="#60D669"/>
</linearGradient>
<linearGradient id="paint1_linear_3358_5251" x1="1600" y1="3189.42" x2="1600" y2="-1.27563e-05" gradientUnits="userSpaceOnUse">
<stop stop-color="#F9F9F9"/>
<stop offset="1" stop-color="white"/>
</linearGradient>
<clipPath id="clip0_3358_5251">
<rect width="32" height="32" fill="white"/>
</clipPath>
</defs>
</svg>
